<?xml version="1.0" standalone="no"?>
<!DOCTYPE svg PUBLIC "-//W3C//DTD SVG 1.1//EN" "http://www.w3.org/Graphics/SVG/1.1/DTD/svg11.dtd" >
<svg xmlns="http://www.w3.org/2000/svg">
<metadata>
This is a custom SVG webfont generated by Font Squirrel.
Copyright   : Copyright c 2008 by Mrio Feliciano All rights reserved
Designer    : Mrio Feliciano
Foundry     : Mrio Feliciano  Feliciano Type Foundry
Foundry URL : wwwfelicianotypefoundrycom
</metadata>
<defs>
<font id="webfontPZJeejpy" horiz-adv-x="1105" >
<font-face units-per-em="2048" ascent="1638" descent="-410" />
<missing-glyph horiz-adv-x="368" />
<glyph unicode=" "  horiz-adv-x="368" />
<glyph unicode="&#x09;" horiz-adv-x="368" />
<glyph unicode="&#xa0;" horiz-adv-x="368" />
<glyph unicode="!" horiz-adv-x="458" d="M193 391l-21 567v502h115v-502l-19 -567h-75zM172 0v211h115v-211h-115z" />
<glyph unicode="&#x22;" horiz-adv-x="624" d="M137 1057l-18 215v190h114v-190l-18 -215h-78zM414 1057l-19 215v190h115v-190l-18 -215h-78z" />
<glyph unicode="#" horiz-adv-x="1032" d="M186 -6l58 414h-181l11 86h178l78 512h-189l13 79h184l57 379h76l-53 -379h299l53 379h78l-53 -379h182l-12 -79h-179l-73 -512h184l-6 -86h-189l-55 -414h-82l56 414h-297l-56 -414h-82zM336 494h295l78 512h-299z" />
<glyph unicode="$" horiz-adv-x="960" d="M438 -68v168q-221 14 -356 160l72 74q82 -74 155.5 -105.5t182.5 -31.5q121 0 191.5 63.5t70.5 167.5q0 94 -46 150.5t-145 97.5l-196 84q-219 104 -220 309q0 121 81 210t210 103v152h101v-150q193 -12 311 -129l-64 -77q-139 113 -294 112q-96 0 -164 -54t-68 -151 q0 -158 180 -229l47 -20l95 -43l45 -21q121 -51 181 -131t60 -201q0 -133 -90 -228t-239 -108v-172h-101z" />
<glyph unicode="%" horiz-adv-x="1390" d="M340 739q-109 0 -173.5 62.5t-64.5 171.5v280q0 113 68 173.5t172 60.5t173 -59.5t69 -174.5v-286q0 -106 -71 -167t-173 -61zM342 819q68 0 107.5 42t39.5 100v309q0 55 -39.5 96t-107.5 41q-70 0 -108.5 -40t-38.5 -97v-312q0 -61 37.5 -100t109.5 -39zM287 -8 l753 1489h86l-751 -1489h-88zM1042 -23q-106 0 -171.5 59.5t-65.5 168.5v276q0 115 67.5 180.5t172 65.5t172 -60.5t67.5 -172.5v-289q0 -106 -70 -167t-172 -61zM1042 61q72 0 111 41t39 99v309q0 55 -40 97t-109.5 42t-106.5 -40t-37 -99v-311q0 -61 36.5 -99.5 t106.5 -38.5z" />
<glyph unicode="&#x26;" horiz-adv-x="1310" d="M535 -29q-188 0 -299 111t-111 278q0 133 83 250t255 181q-182 217 -182 360q0 55 19 110.5t59 107.5t114 85t172 33q156 0 250 -92t94 -211q0 -295 -366 -426l338 -426q61 111 106 305l102 -14q-39 -186 -145 -371l201 -252h-142l-139 176q-165 -205 -409 -205zM553 72 q205 0 332 174l-371 471q-139 -47 -204.5 -141.5t-65.5 -208.5q0 -129 86 -212t223 -83zM573 825q162 63 233 144.5t71 204.5q0 100 -70 163.5t-172 63.5q-115 0 -178.5 -70.5t-63.5 -169.5q0 -43 23.5 -96t50.5 -92l84 -117q14 -21 22 -31z" />
<glyph unicode="'" horiz-adv-x="350" d="M137 1057l-18 215v190h114v-190l-18 -215h-78z" />
<glyph unicode="(" horiz-adv-x="448" d="M348 -373q-115 180 -175 439.5t-60 490.5q0 522 235 920l74 -4q-109 -262 -157 -454t-48 -464q0 -485 207 -922z" />
<glyph unicode=")" horiz-adv-x="448" d="M100 -373l-75 6q207 436 206 922q0 272 -48 463.5t-156 454.5l73 4q236 -397 236 -920q0 -231 -60.5 -490.5t-175.5 -439.5z" />
<glyph unicode="*" horiz-adv-x="716" d="M190 862l-65 45l151 217l-231 140l41 65l233 -139v270h80v-270l230 139l43 -65l-234 -140l156 -217l-68 -45l-168 236z" />
<glyph unicode="+" d="M512 254v354h-344v86h344v355h84v-355h342v-86h-342v-354h-84z" />
<glyph unicode="," horiz-adv-x="389" d="M135 -211l45 217h-45v205h119v-203l-57 -219h-62z" />
<glyph unicode="-" horiz-adv-x="563" d="M74 557v94h415v-94h-415z" />
<glyph unicode="." horiz-adv-x="389" d="M135 0v211h119v-211h-119z" />
<glyph unicode="/" horiz-adv-x="610" d="M-2 -367l457 1837h90l-451 -1837h-96z" />
<glyph unicode="0" horiz-adv-x="1050" d="M528 -25q-178 0 -293.5 97.5t-115.5 271.5v776q0 174 118.5 270.5t290.5 96.5q178 0 291 -94.5t113 -268.5v-780q0 -174 -116 -271.5t-288 -97.5zM530.5 78q137.5 0 209 74.5t71.5 195.5v778q0 113 -76 188t-207 75q-135 0 -211.5 -74t-76.5 -195v-774 q0 -121 76.5 -194.5t214 -73.5z" />
<glyph unicode="1" horiz-adv-x="653" d="M281 0v1343l-175 -57l-10 96l228 82h75v-1464h-118z" />
<glyph unicode="2" horiz-adv-x="913" d="M109 0v74l266 360q293 381 293 670v24q-2 117 -60.5 186.5t-179.5 69.5q-109 0 -172 -59t-63 -162v-73h-111v67q0 156 100.5 243t259.5 87q170 0 257 -98.5t87 -268.5q0 -199 -80.5 -370.5t-242.5 -378.5l-195 -260v-5h559v-106h-718z" />
<glyph unicode="3" horiz-adv-x="1001" d="M504 -25q-188 0 -286.5 91.5t-98.5 226.5v80h114v-76q0 -104 78 -162.5t191 -58.5q135 0 205.5 84t70.5 237q0 88 -28.5 152.5t-75.5 96.5t-93 46.5t-94 14.5h-135v102h129q121 0 195 77t74 222t-77 211.5t-185.5 66.5t-176 -54t-67.5 -171v-65h-111v65q0 152 98.5 239 t268.5 87q182 0 273 -102.5t91 -254.5q0 -129 -58 -231t-175 -131v-6q123 -23 195.5 -125t72.5 -246q0 -184 -111.5 -300t-283.5 -116z" />
<glyph unicode="4" horiz-adv-x="1021" d="M651 0v397h-563v97l516 966h125l-522 -962h444v307l115 78v-385h180v-101h-180v-397h-115z" />
<glyph unicode="5" horiz-adv-x="989" d="M483 -25q-180 0 -275 90.5t-95 217.5v90h116v-78q0 -104 75 -161.5t185 -57.5q119 0 198 65.5t79 225.5v180q0 279 -262 278q-131 0 -246 -106l-111 8l39 735h633v-106h-538l-27 -541q117 106 295 107q145 0 239.5 -87t94.5 -264v-215q0 -180 -112 -280.5t-288 -100.5z " />
<glyph unicode="6" horiz-adv-x="1011" d="M508 -25q-172 0 -280.5 102.5t-108.5 266.5l2 780q0 170 108.5 267.5t280.5 97.5q168 0 272.5 -82t104.5 -217v-86h-115v74q0 98 -75.5 155.5t-190.5 57.5q-125 0 -194.5 -72t-69.5 -182v-412q45 88 137 139t190 51q137 0 234.5 -86t97.5 -225v-282q0 -162 -109.5 -254.5 t-283.5 -92.5zM520 76q123 0 192.5 67.5t69.5 165.5v275q0 125 -72.5 180t-177.5 55q-115 0 -202.5 -82t-87.5 -198v-205q0 -111 74.5 -184.5t203.5 -73.5z" />
<glyph unicode="7" horiz-adv-x="925" d="M297 0q0 440 128 815t282 543h-619v104h750v-84q-211 -229 -316.5 -622.5t-103.5 -755.5h-121z" />
<glyph unicode="8" horiz-adv-x="1001" d="M498 -25q-170 0 -276.5 91.5t-106.5 244.5v148q0 100 60.5 179t156.5 114q-92 27 -147.5 103.5t-55.5 162.5v137q0 158 108.5 244t264.5 86q162 0 268.5 -81t106.5 -239v-135q0 -88 -55.5 -167t-153.5 -109q96 -29 159.5 -107t63.5 -186v-148q0 -158 -109.5 -248 t-283.5 -90zM502 76q123 0 196.5 63.5t73.5 175.5v150q0 115 -82 179.5t-188 64.5q-109 0 -190 -65.5t-81 -178.5v-156q0 -104 77 -168.5t194 -64.5zM504 795q100 0 179 66.5t79 166.5v146q0 102 -79 158.5t-187 56.5q-98 0 -175 -62.5t-77 -163.5v-137q0 -109 81 -170 t179 -61z" />
<glyph unicode="9" horiz-adv-x="1011" d="M502 -25q-166 0 -270.5 82t-104.5 217v88h115v-71q0 -98 75.5 -156.5t190.5 -58.5q125 0 193.5 72.5t68.5 181.5v409q-51 -92 -138 -140t-188 -48q-139 0 -234 84t-95 223v289q0 162 108.5 252t282.5 90q170 0 277.5 -102.5t107.5 -264.5v-778q0 -172 -108.5 -270.5 t-280.5 -98.5zM479 647q115 0 203 82t88 199v205q0 102 -76 180t-200 78q-123 0 -193 -69t-70 -165v-280q0 -123 72 -176.5t176 -53.5z" />
<glyph unicode=":" horiz-adv-x="389" d="M135 0v211h119v-211h-119zM135 797v209h119v-209h-119z" />
<glyph unicode=";" horiz-adv-x="389" d="M135 -211l45 217h-45v205h119v-203l-57 -219h-62zM135 797v209h119v-209h-119z" />
<glyph unicode="&#x3c;" d="M870 283l-682 331v76l691 320l39 -82l-592 -275l585 -288z" />
<glyph unicode="=" d="M166 451v96h772v-96h-772zM166 758v94h772v-94h-772z" />
<glyph unicode="&#x3e;" d="M236 283l-43 84l587 286l-594 275l43 82l689 -320v-76z" />
<glyph unicode="?" horiz-adv-x="929" d="M383 391v84q6 100 43 168t111 154q82 92 121.5 162.5t39.5 168.5q0 121 -62.5 189.5t-174.5 68.5q-100 0 -166 -54t-66 -171v-57h-106v39q0 166 95 254t251 88q158 0 251 -92.5t93 -257.5q0 -84 -29.5 -161t-63.5 -123t-91 -108q-47 -55 -65.5 -78.5t-44 -75.5 t-30.5 -106v-92h-106zM377 0v211h121v-211h-121z" />
<glyph unicode="@" horiz-adv-x="1818" d="M942 -248q-250 0 -442 101q-176 94 -275.5 267t-95.5 417q0 385 237.5 634.5t612.5 249.5q317 0 519 -188.5t202 -499.5q0 -145 -50.5 -266t-130 -194.5t-173 -114.5t-187.5 -47h-96l31 190h-4q-127 -213 -322 -213q-115 0 -178.5 56.5t-63.5 156.5q0 35 6 64l70 421 q27 152 127 230t223 78q88 0 156 -48.5t80 -138.5h2l29 178h108l-149 -888q182 14 308 163.5t126 382.5q0 276 -185.5 438t-447.5 162q-336 0 -545 -227t-209 -573q0 -221 87 -378t241 -241q164 -88 391 -88q195 0 379 51l18 -75q-178 -60 -399 -60zM807 176 q100 0 197.5 95.5t119.5 228.5l33 211q6 31 6 61q0 113 -55 175.5t-143 62.5q-100 0 -170 -65.5t-88 -180.5l-60 -373q-6 -43 -6 -63q0 -152 166 -152z" />
<glyph unicode="A" horiz-adv-x="1136" d="M59 0l441 1466h145l434 -1466h-123l-141 485h-498l-143 -485h-115zM342 584h444l-219 753h-2z" />
<glyph unicode="B" horiz-adv-x="1116" d="M164 0v1460h450q168 0 265.5 -93t97.5 -259q0 -133 -74 -233.5t-190 -118.5v-4q141 -20 221 -120t80 -235q0 -195 -111.5 -296t-277.5 -101h-461zM283 102h313q139 0 216 76t77 232q0 143 -94.5 215.5t-231.5 72.5h-280v-596zM283 801h268q127 0 216 73.5t89 217.5 q0 135 -74.5 202.5t-195.5 67.5h-303v-561z" />
<glyph unicode="C" horiz-adv-x="1132" d="M590 -25q-211 0 -338 109t-127 313v662q0 190 127 308t336 118q195 0 309.5 -101.5t114.5 -257.5v-120h-109v90q0 129 -81 207.5t-240.5 78.5t-247.5 -91t-88 -240v-633q0 -172 92 -255t252 -83q150 0 231.5 74.5t81.5 197.5v105h109v-115q0 -164 -114.5 -265.5 t-307.5 -101.5z" />
<glyph unicode="D" horiz-adv-x="1175" d="M164 0v1460h459q195 0 311.5 -100t116.5 -293v-649q0 -199 -118 -308.5t-312 -109.5h-457zM285 104h319q164 0 244 87.5t80 222.5v635q0 137 -81 223t-239 86h-323v-1254z" />
<glyph unicode="E" horiz-adv-x="1032" d="M164 0v1460h766v-104h-645v-543h514v-104h-514v-603h645v-106h-766z" />
<glyph unicode="F" horiz-adv-x="997" d="M164 0v1460h766v-102h-645v-549h512v-100h-512v-709h-121z" />
<glyph unicode="G" horiz-adv-x="1171" d="M590 -25q-211 0 -338 109t-127 313v652q0 193 129 315.5t336 122.5q195 0 314.5 -103.5t119.5 -257.5v-108h-113v88q0 123 -87 199.5t-238 76.5q-160 0 -250 -96t-90 -246v-632q0 -156 91 -242t255 -86q170 0 246.5 82t76.5 213v272h-319v101h436v-392 q0 -166 -119.5 -273.5t-322.5 -107.5z" />
<glyph unicode="H" horiz-adv-x="1232" d="M164 0v1460h121v-647h665v647h119v-1460h-119v702h-665v-702h-121z" />
<glyph unicode="I" horiz-adv-x="446" d="M164 0v1460h121v-1460h-121z" />
<glyph unicode="J" horiz-adv-x="1050" d="M485 -25q-190 0 -298.5 99.5t-108.5 285.5v154h115v-141q0 -293 294 -293q152 0 221.5 84t69.5 203v1093h119v-1061q0 -190 -103.5 -307t-308.5 -117z" />
<glyph unicode="K" horiz-adv-x="1122" d="M164 0v1460h121v-788l630 788h132l-451 -561l461 -899h-137l-410 803l-225 -279v-524h-121z" />
<glyph unicode="L" horiz-adv-x="1001" d="M164 0v1460h121v-1354h645v-106h-766z" />
<glyph unicode="M" horiz-adv-x="1378" d="M164 0v1460h158l370 -755h4l367 755h154v-1460h-115v1292h-4l-365 -753h-90l-364 751h-7v-1290h-108z" />
<glyph unicode="N" horiz-adv-x="1224" d="M164 0v1460h125l663 -1218h4v1218h107v-1460h-107l-682 1264h-4v-1264h-106z" />
<glyph unicode="O" horiz-adv-x="1181" d="M592 -25q-209 0 -338 110t-129 321v624q0 213 129 335t338 122q207 0 336 -109.5t129 -316.5v-627q0 -217 -128 -338t-337 -121zM594 86q160 0 251 92t91 244v637q0 150 -93 234.5t-257 84.5t-251 -92t-87 -258v-610q0 -154 91 -243t255 -89z" />
<glyph unicode="P" horiz-adv-x="1101" d="M164 0v1460h418q197 0 301 -118.5t104 -303.5q0 -203 -116.5 -323.5t-325.5 -120.5h-260v-594h-121zM285 694h233q168 0 258 87t90 253q0 143 -77.5 233.5t-221.5 90.5h-282v-664z" />
<glyph unicode="Q" horiz-adv-x="1181" d="M1024 -186l-315 176q-66 -14 -117 -15q-209 0 -338 110t-129 321v624q0 213 129 335t338 122q207 0 336 -109.5t129 -316.5v-627q0 -287 -213 -389l243 -121zM594 86q160 0 251 92t91 244v637q0 150 -93 234.5t-257 84.5t-251 -92t-87 -258v-610q0 -154 91 -243t255 -89z " />
<glyph unicode="R" horiz-adv-x="1138" d="M164 0v1460h420q203 0 311.5 -110.5t108.5 -298.5q0 -168 -85 -278.5t-247 -129.5l377 -643h-136l-360 625h-268v-625h-121zM285 721h266q332 0 332 321q0 145 -78 231.5t-240 86.5h-280v-639z" />
<glyph unicode="S" horiz-adv-x="1042" d="M508 -25q-274 0 -442 179l79 88q88 -82 172 -119t207 -37q133 0 212 77t79 195q0 117 -63.5 182.5t-178.5 123.5l-182 88q-266 129 -266 360q0 162 111.5 268.5t291.5 106.5q252 0 387 -154l-79 -80q-72 63 -143.5 96t-176.5 33q-117 0 -193.5 -66.5t-76.5 -185.5 q0 -90 54 -155.5t165 -118.5l166 -80q150 -74 228.5 -170t78.5 -233q0 -174 -120 -286t-310 -112z" />
<glyph unicode="T" horiz-adv-x="1050" d="M467 0v1358h-422v102h961v-102h-418v-1358h-121z" />
<glyph unicode="U" horiz-adv-x="1214" d="M604 -25q-190 0 -320 104.5t-130 319.5v1061h120v-1038q0 -180 97.5 -261t240.5 -81q158 0 248 91q84 85 85 222q0 9 -1 19v1048h115v-1054q2 -199 -124 -315t-331 -116z" />
<glyph unicode="V" horiz-adv-x="1067" d="M469 -6l-416 1466h123l361 -1313h2l362 1313h115l-418 -1466h-129z" />
<glyph unicode="W" horiz-adv-x="1550" d="M381 -6l-313 1466h120l254 -1257h4l269 1257h133l260 -1253h4l254 1253h115l-314 -1466h-120l-269 1284h-6l-270 -1284h-121z" />
<glyph unicode="X" horiz-adv-x="989" d="M45 0l377 756l-344 704h131l291 -608l295 608h120l-350 -702l381 -758h-129l-328 662l-323 -662h-121z" />
<glyph unicode="Y" horiz-adv-x="1017" d="M449 0v627l-388 833h125l332 -717l324 717h116l-389 -835v-625h-120z" />
<glyph unicode="Z" horiz-adv-x="993" d="M98 0v82l660 1280h-641v100h780v-84l-657 -1274h649v-104h-791z" />
<glyph unicode="[" horiz-adv-x="520" d="M139 -360v1820h336v-80h-229v-1659h229v-81h-336z" />
<glyph unicode="\" horiz-adv-x="610" d="M508 -367l-449 1837h88l455 -1837h-94z" />
<glyph unicode="]" horiz-adv-x="520" d="M45 -360v81h229v1659h-229v80h338v-1820h-338z" />
<glyph unicode="^" horiz-adv-x="827" d="M201 408l176 710h94l156 -710h-88l-117 577q-129 -573 -131 -577h-90z" />
<glyph unicode="_" horiz-adv-x="944" d="M0 -164v84h944v-84h-944z" />
<glyph unicode="`" horiz-adv-x="518" d="M270 1178l-217 295h127l185 -295h-95z" />
<glyph unicode="a" horiz-adv-x="940" d="M381 -23q-119 0 -201 77t-82 218q0 164 112 244t257 82h213v190q0 186 -215 187q-94 0 -161.5 -44t-67.5 -128v-64h-103v66q0 123 98.5 189.5t247.5 66.5q141 0 229.5 -66.5t88.5 -197.5v-531q0 -33 2 -85t5 -108.5t3 -72.5h-107l-8 172h-4q-45 -102 -131 -148.5 t-176 -46.5zM416 68q109 0 186.5 77.5t77.5 194.5v176h-193q-113 0 -191.5 -50t-78.5 -177q0 -106 57.5 -163.5t141.5 -57.5z" />
<glyph unicode="b" horiz-adv-x="976" d="M549 -25q-90 0 -174 55.5t-111 145.5h-4l-2 -176h-98v1460h112v-596h7q41 96 123.5 147.5t168.5 51.5q137 0 213 -85t76 -212v-465q0 -156 -91 -241t-220 -85zM535 66q96 0 153 58t57 171v463q0 94 -54 151.5t-159 57.5q-98 0 -179 -90.5t-81 -227.5v-270q0 -131 77 -222 t186 -91z" />
<glyph unicode="c" horiz-adv-x="899" d="M467 -25q-168 0 -259 94.5t-91 270.5v356q0 172 94 268.5t252 96.5q162 0 247 -79t85 -204v-51h-105v49q0 72 -53 132.5t-174 60.5t-176.5 -75t-55.5 -194v-364q0 -268 242 -268q123 0 170 59t47 139v51h105v-55q0 -129 -82 -208t-246 -79z" />
<glyph unicode="d" horiz-adv-x="972" d="M401 -25q-135 0 -209.5 83t-74.5 210v471q0 152 90 237t217 85q90 0 167 -48t107 -136h2v583h117v-1460h-102l-4 195h-6q-49 -115 -131.5 -167.5t-172.5 -52.5zM436 72q109 0 187.5 92t78.5 239v256q0 129 -79.5 222.5t-180.5 93.5q-94 0 -152.5 -56.5t-58.5 -179.5v-452 q0 -215 205 -215z" />
<glyph unicode="e" horiz-adv-x="925" d="M492 -25q-174 0 -274.5 92.5t-100.5 280.5v324q0 184 100 286.5t264 102.5q160 0 249 -96.5t89 -266.5v-196h-586v-158q0 -270 273 -270q117 0 258 78l41 -78q-125 -99 -313 -99zM233 588h478v123q0 111 -57.5 185.5t-184.5 74.5q-117 0 -176.5 -79t-59.5 -185v-119z" />
<glyph unicode="f" horiz-adv-x="626" d="M236 0v940h-166v94h166v195q0 121 66.5 189.5t178.5 68.5q59 0 111 -14v-97q-35 12 -103 13q-139 0 -139 -156v-199h217v-94h-217v-940h-114z" />
<glyph unicode="g" horiz-adv-x="970" d="M440 -385q-199 0 -317 82l43 90q129 -76 270 -76q125 0 195.5 66.5t70.5 193.5v242h-2q-41 -100 -121.5 -148.5t-172.5 -48.5q-137 0 -213 82t-76 209v443q0 150 93 231.5t218 81.5q86 0 169 -47t114 -144h2l6 166h98v-1052q0 -178 -101.5 -274.5t-275.5 -96.5zM442 111 q106 0 183 90t77 233v250q0 127 -79.5 209t-178.5 82q-92 0 -152.5 -62.5t-60.5 -175.5v-411q0 -215 211 -215z" />
<glyph unicode="h" horiz-adv-x="999" d="M160 0v1462h112v-604h4q45 98 130.5 150.5t185.5 52.5q119 0 188.5 -74t69.5 -184v-803h-115v764q0 109 -48 156t-142 47q-102 0 -187.5 -91.5t-85.5 -209.5v-666h-112z" />
<glyph unicode="i" horiz-adv-x="430" d="M160 0v1036h112v-1036h-112zM160 1227v207h112v-207h-112z" />
<glyph unicode="j" horiz-adv-x="454" d="M63 -387q-47 0 -86 6v98q29 -4 60 -4q84 0 114.5 44t30.5 128v1151h115v-1173q-1 -250 -234 -250zM182 1227v207h115v-207h-115z" />
<glyph unicode="k" horiz-adv-x="880" d="M160 0v1462h112v-958l412 532h133l-285 -356l302 -680h-121l-262 594l-179 -223v-371h-112z" />
<glyph unicode="l" horiz-adv-x="550" d="M362 -12q-96 0 -150 55t-54 156v1261h114v-1247q0 -121 125 -121q43 0 92 8v-92q-55 -20 -127 -20z" />
<glyph unicode="m" horiz-adv-x="1576" d="M160 0v1036h104v-184h4q45 102 132 155.5t191.5 53.5t171 -60.5t81.5 -148.5h2q47 104 134 156.5t191 52.5q117 0 186.5 -73t69.5 -183v-805h-114v766q0 201 -191 201q-100 0 -185 -84t-87 -197v-686h-115v776q-2 190 -190 191q-102 0 -187.5 -88t-85.5 -207v-672h-112z " />
<glyph unicode="n" horiz-adv-x="999" d="M160 0v1036h104v-180h4q45 102 132 153.5t192 51.5q119 0 188.5 -74t69.5 -184v-803h-115v766q0 201 -190 201q-102 0 -187.5 -88t-85.5 -207v-672h-112z" />
<glyph unicode="o" horiz-adv-x="948" d="M475 -25q-166 0 -262 96.5t-96 274.5v342q0 174 98 273.5t258 99.5q166 0 262 -96.5t96 -272.5v-340q0 -182 -96 -279.5t-260 -97.5zM479 72q238 0 238 280v348q0 119 -60.5 194t-185.5 75t-182.5 -77t-57.5 -202v-340q0 -278 248 -278z" />
<glyph unicode="p" horiz-adv-x="976" d="M160 -362v1398h104v-176h4q43 100 126 151.5t171 51.5q137 0 216 -83t79 -208v-461q0 -160 -85 -248t-226 -88q-88 0 -166 51.5t-107 141.5h-4v-530h-112zM545 66q90 0 145 58t55 171v457q0 94 -53 154.5t-160 60.5q-111 0 -185.5 -92.5t-74.5 -231.5v-256 q0 -137 76 -229t197 -92z" />
<glyph unicode="q" horiz-adv-x="970" d="M702 -362v540h-4q-53 -104 -133 -153.5t-162 -49.5q-135 0 -210.5 83t-75.5 212v469q0 152 90 237t217 85q92 0 177 -51.5t112 -145.5h4l6 174h94v-1400h-115zM432 72q100 0 185 90t85 223v274q0 131 -79.5 222.5t-184.5 91.5q-92 0 -149.5 -61.5t-57.5 -172.5v-454 q0 -96 49.5 -154.5t151.5 -58.5z" />
<glyph unicode="r" horiz-adv-x="681" d="M160 0v1036h104v-182h2q55 113 129 154t176 41q39 0 66 -7v-104q-37 4 -84 4q-119 0 -199 -72.5t-82 -212.5v-657h-112z" />
<glyph unicode="s" horiz-adv-x="835" d="M418 -25q-215 0 -346 150l71 78q121 -131 277 -131q98 0 163.5 49t65.5 135q0 84 -44 133t-140 86l-119 45q-219 86 -219 273q0 102 80 186t225 84q195 0 295 -100l-63 -84q-109 92 -234 92q-86 0 -140 -47t-54 -119q0 -74 38.5 -115t133.5 -80l122 -49q227 -88 228 -289 q0 -135 -100.5 -216t-239.5 -81z" />
<glyph unicode="t" horiz-adv-x="694" d="M461 -18q-221 0 -221 194v764h-172v94h172v309h114v-309h273v-94h-273v-729q0 -125 142 -125q51 0 129 25v-97q-82 -32 -164 -32z" />
<glyph unicode="u" horiz-adv-x="999" d="M414 -25q-119 0 -190.5 73t-71.5 183v805h114v-766q0 -106 48 -152t141 -46q109 0 191.5 87t82.5 208v669h115v-1036h-101l-6 182h-4q-41 -96 -129 -151.5t-190 -55.5z" />
<glyph unicode="v" horiz-adv-x="825" d="M350 -4l-303 1040h123l242 -880h4l254 880h108l-315 -1040h-113z" />
<glyph unicode="w" horiz-adv-x="1337" d="M324 -4l-263 1040h121l201 -856h4l229 856h121l217 -856h4l211 856h109l-270 -1040h-111l-223 903h-6l-236 -903h-108z" />
<glyph unicode="x" horiz-adv-x="808" d="M33 0l309 537l-281 499h127l230 -424l229 424h115l-283 -497l299 -539h-123l-254 463l-254 -463h-114z" />
<glyph unicode="y" horiz-adv-x="839" d="M162 -391q-70 0 -125 16l14 99q61 -14 105 -15q59 0 96 35t65 119l54 174l-322 999h121l260 -850h2l256 850h107l-363 -1163q-75 -264 -270 -264z" />
<glyph unicode="z" horiz-adv-x="813" d="M84 0v74l510 872h-498v90h629l-2 -78l-500 -868h502v-90h-641z" />
<glyph unicode="{" horiz-adv-x="536" d="M276 -360q-49 0 -78.5 28.5t-29.5 83.5v701q0 88 -82 96v82q82 14 82 88v624q0 55 30.5 86t82.5 31h223v-76h-201q-35 0 -35 -47v-616q0 -94 -75 -123v-6q76 -33 75 -129v-701q0 -47 35 -47h201v-75h-228z" />
<glyph unicode="|" horiz-adv-x="493" d="M207 -106v1570h82v-1570h-82z" />
<glyph unicode="}" horiz-adv-x="536" d="M31 -360v75h202q35 0 35 47v701q0 96 74 129v6q-74 29 -74 123v620q0 45 -35 45h-202v76h225q51 0 82 -29.5t31 -84.5v-629q0 -76 80 -88v-82q-80 -8 -80 -96v-701q0 -113 -113 -112h-225z" />
<glyph unicode="~" d="M229 543l-69 12q10 72 49 119t104 47q49 0 238.5 -34t239.5 -34q57 0 86 90l69 -16q-33 -170 -155 -170q-45 0 -239 36t-243 36q-25 0 -42 -14.5t-23.5 -29.5t-14.5 -42z" />
<glyph unicode="&#xa1;" horiz-adv-x="458" d="M172 -350v506l16 565h78l17 -565v-506h-111zM172 905v205h115v-205h-115z" />
<glyph unicode="&#xa2;" horiz-adv-x="933" d="M438 -135v164q-152 8 -230.5 100t-78.5 256v356q0 158 83 252t226 105v151h94v-151q137 -12 209 -88t72 -189v-69h-106v71q0 72 -52.5 131.5t-171.5 59.5q-125 0 -181 -76t-56 -195v-356q0 -272 235 -272q123 0 174.5 61.5t51.5 134.5v72h106v-76q0 -115 -71.5 -190.5 t-209.5 -85.5v-166h-94z" />
<glyph unicode="&#xa3;" horiz-adv-x="1056" d="M109 0v100h147v605h-137v79h137v353q0 178 100.5 263t253.5 85q150 0 234 -75t84 -212v-86h-103v90q0 190 -221 191q-102 0 -166.5 -57.5t-64.5 -184.5v-367h393v-79h-393v-605h588l-27 -100h-825z" />
<glyph unicode="&#xa4;" horiz-adv-x="649" d="M125 446l-57 58l63 65q-47 66 -47 146q0 74 45 135l-63 63l57 58l61 -62q68 45 138 45q78 0 139 -43l63 64l60 -57l-66 -62q49 -72 49 -145q0 -76 -49 -142l66 -63l-56 -55l-63 63q-63 -43 -139 -43q-70 0 -138 39zM324 543q76 0 118.5 46t42.5 126q0 74 -47 121t-112 47 q-74 0 -118 -46t-44 -130q0 -66 45 -115t115 -49z" />
<glyph unicode="&#xa5;" horiz-adv-x="1013" d="M446 0v571h-335v86h319l-371 803h129l326 -712l324 712h118l-370 -803h323v-86h-342v-571h-121z" />
<glyph unicode="&#xa6;" horiz-adv-x="497" d="M205 -104v743h88v-743h-88zM205 776v686h88v-686h-88z" />
<glyph unicode="&#xa7;" horiz-adv-x="925" d="M457 -150q-145 0 -255 68t-110 211v51h84v-30q0 -104 80 -163t211 -59q121 0 196.5 59.5t75.5 157.5q0 47 -15 82t-53 59.5t-59.5 34t-72.5 27.5l-177 60q-236 80 -235 266q0 76 47 147.5t139 118.5q-102 49 -143 106.5t-41 143.5q0 117 86 196.5t254 79.5 q160 0 249 -72.5t89 -201.5v-45h-82v43q0 92 -67.5 147.5t-184.5 55.5q-115 0 -184.5 -52.5t-69.5 -148.5q0 -127 172 -197l182 -73q250 -92 250 -263q0 -176 -192 -260q207 -74 200 -243q0 -135 -102 -220.5t-272 -85.5zM543 436q188 57 188 219q0 115 -174 185 q-158 59 -166 61q-68 -29 -120 -88t-52 -133t50 -122t116 -69z" />
<glyph unicode="&#xa8;" horiz-adv-x="712" d="M156 1233v199h104v-199h-104zM457 1233v199h104v-199h-104z" />
<glyph unicode="&#xa9;" horiz-adv-x="1710" d="M854 154q-168 0 -256 92t-88 264v387q0 170 91 265t253 95q160 0 246 -77.5t86 -202.5v-100h-96v102q0 72 -54.5 130t-177.5 58q-127 0 -185.5 -77.5t-58.5 -198.5v-377q0 -268 244 -268q123 0 177.5 59.5t54.5 130.5v101h96v-101q0 -123 -87 -202.5t-245 -79.5zM852 -96 q-348 0 -541.5 224t-193.5 589q0 338 203.5 571.5t531.5 233.5q227 0 399 -112t258 -293t86 -400q0 -225 -85 -407.5t-256 -294t-402 -111.5zM860 -31q283 0 466 206t183 542q0 342 -187 539.5t-470 197.5t-467 -201.5t-184 -535.5q0 -348 182 -548t477 -200z" />
<glyph unicode="&#xaa;" horiz-adv-x="645" d="M260 786q-76 0 -130 50.5t-54 142.5q0 104 75.5 155.5t172.5 51.5h120v112q0 117 -127 117q-55 0 -93 -26.5t-38 -77.5v-39h-86v37q0 86 63.5 130t164.5 44q94 0 152.5 -44t58.5 -132v-344q0 -70 6 -162h-88l-2 22q0 20 -2 44t-2 30q-56 -111 -191 -111zM295 860 q63 0 106 45t43 115v104h-114q-158 0 -158 -135q0 -63 35 -96t88 -33zM106 604v90h441v-90h-441z" />
<glyph unicode="&#xab;" horiz-adv-x="798" d="M268 250l-221 311l219 316l70 -43l-158 -271l162 -270zM590 250l-221 311l219 316l69 -43l-159 -271l161 -270z" />
<glyph unicode="&#xac;" horiz-adv-x="1007" d="M807 352v244h-721v84h815v-328h-94z" />
<glyph unicode="&#xad;" horiz-adv-x="563" d="M74 557v94h415v-94h-415z" />
<glyph unicode="&#xae;" horiz-adv-x="1050" d="M522.5 606q-198.5 0 -317.5 132t-119 329q0 203 122 334t316 131q197 0 319 -130t122 -335q0 -193 -122 -327t-320.5 -134zM522 666q154 0 265.5 110.5t111.5 290.5q0 184 -110.5 296t-266 112t-262 -111t-106.5 -297q0 -182 109 -291.5t259 -109.5zM350 788v578h187 q86 0 135 -47t49 -123q0 -61 -35 -107.5t-96 -62.5l155 -238h-79l-148 232h-94v-232h-74zM424 1079h98q127 0 127 115q0 49 -34.5 81t-94.5 32h-96v-228z" />
<glyph unicode="&#xaf;" horiz-adv-x="763" d="M117 1237v90h532v-90h-532z" />
<glyph unicode="&#xb0;" horiz-adv-x="579" d="M287 1083q-84 0 -141.5 58.5t-57.5 140.5q0 84 58.5 143.5t140.5 59.5q88 0 146.5 -59.5t58.5 -141.5q0 -84 -58.5 -142.5t-146.5 -58.5zM287 1145q59 0 97 40t38 97t-38 98t-97 41q-55 0 -91 -40t-36 -99q0 -57 36 -97t91 -40z" />
<glyph unicode="&#xb1;" d="M512 385v338h-344v86h344v344h84v-344h342v-86h-342v-338h-84zM168 143v88h768v-88h-768z" />
<glyph unicode="&#xb2;" horiz-adv-x="600" d="M102 778v56l162 204q80 106 121 184t41 156v8q-4 139 -129 140q-59 0 -92 -34t-33 -89v-33h-84v35q0 92 59.5 143t155.5 51q100 0 155.5 -57t55.5 -156q0 -72 -27.5 -143.5t-60.5 -118.5t-96 -129l-109 -141h311v-76h-430z" />
<glyph unicode="&#xb3;" horiz-adv-x="638" d="M317 754q-113 0 -170 55t-57 137v33h84v-27q0 -57 41 -91t98 -34q68 0 105 43t37 123q0 86 -48.5 124t-99.5 38h-74v70h66q66 0 103.5 39t37.5 116q0 74 -37.5 109t-93.5 35q-59 0 -95 -31t-36 -92v-25h-82v33q0 88 57.5 139t159.5 51q106 0 160.5 -59t54.5 -145 q0 -70 -30.5 -126.5t-94.5 -72.5v-4q68 -16 107 -72.5t39 -130.5q0 -111 -65 -173t-167 -62z" />
<glyph unicode="&#xb4;" horiz-adv-x="518" d="M152 1178l182 295h125l-215 -295h-92z" />
<glyph unicode="&#xb5;" horiz-adv-x="1015" d="M158 -365v1403h116v-762q0 -104 56.5 -154t152.5 -50q102 0 179 86t77 207v673h117v-755q0 -57 26.5 -102.5t75.5 -65.5l-2 -121q-164 61 -186 190q-41 -98 -120 -153.5t-181 -55.5q-156 0 -221 123h-4l35 -454z" />
<glyph unicode="&#xb6;" horiz-adv-x="1107" d="M467 -166v662q-172 18 -258 148t-86 323q0 205 103.5 349t271.5 144h516v-84h-156v-1542h-78v1542h-237v-1542h-76z" />
<glyph unicode="&#xb7;" horiz-adv-x="389" d="M135 582v204h119v-204h-119z" />
<glyph unicode="&#x22c5;" horiz-adv-x="389" d="M135 582v204h119v-204h-119z" />
<glyph unicode="&#xb8;" horiz-adv-x="690" d="M317 -397q-80 0 -159 22v72q84 -25 161 -25q106 0 107 72q0 66 -121 76l-65 4l49 190h67l-34 -135q199 -12 198 -135q0 -61 -56.5 -101t-146.5 -40z" />
<glyph unicode="&#xb9;" horiz-adv-x="473" d="M205 778v721l-101 -31l-10 76l152 49h51v-815h-92z" />
<glyph unicode="&#xba;" horiz-adv-x="671" d="M334 788q-111 0 -172.5 57.5t-61.5 170.5v229q0 113 63.5 171.5t170.5 58.5q109 0 171 -57.5t62 -170.5v-233q0 -111 -63.5 -168.5t-169.5 -57.5zM334 862q139 0 139 154v235q0 150 -139 150q-72 0 -105.5 -42t-33.5 -110v-235q0 -152 139 -152zM115 604v90h440v-90h-440 z" />
<glyph unicode="&#xbb;" horiz-adv-x="798" d="M121 250l-72 45l160 270l-162 271l72 43l221 -312zM440 250l-69 45l159 270l-161 271l69 43l221 -312z" />
<glyph unicode="&#xbc;" horiz-adv-x="1435" d="M276 649v721l-100 -31l-10 76l151 49h52v-815h-93zM1133 0v215h-312v72l291 530h96l-295 -526h220v155l92 64v-219h100v-76h-100v-215h-92zM264 -8l772 1478h80l-772 -1478h-80z" />
<glyph unicode="&#xbd;" horiz-adv-x="1435" d="M274 649v721l-100 -31l-10 76l151 49h52v-815h-93zM893 0v55l162 205q80 106 121 184t41 156v8q-4 139 -130 140q-59 0 -91.5 -34t-32.5 -89v-33h-84v35q0 92 59 143t156 51q100 0 155.5 -57t55.5 -156q0 -72 -28 -143.5t-60.5 -118.5t-96.5 -129l-108 -141h311v-76h-430 zM262 -8l772 1478h80l-772 -1478h-80z" />
<glyph unicode="&#xbe;" horiz-adv-x="1435" d="M1141 0v215h-312v72l291 530h97l-295 -526h219v155l92 64v-219h100v-76h-100v-215h-92zM352 625q-113 0 -170 55t-57 137v33h84v-27q0 -57 41 -91t98 -34q68 0 104.5 43t36.5 123q0 86 -48 124t-99 38h-74v70h66q66 0 103.5 39t37.5 116q0 74 -38 109t-93 35 q-59 0 -95 -31t-36 -92v-25h-82v33q0 88 57.5 139t159.5 51q106 0 160.5 -59t54.5 -145q0 -70 -30.5 -126.5t-94.5 -72.5v-4q68 -16 107 -72.5t39 -130.5q0 -111 -65 -173t-167 -62zM332 -8l772 1478h80l-772 -1478h-80z" />
<glyph unicode="&#xbf;" horiz-adv-x="929" d="M469 -375q-160 0 -251 93.5t-91 256.5q-2 86 28.5 166t62.5 123t91 109q45 49 66.5 75.5t46 76.5t29.5 104v94h104v-84q-6 -102 -43 -171t-109 -151q-57 -66 -83.5 -101.5t-52 -99t-25.5 -134.5q0 -121 62.5 -189.5t176.5 -68.5q92 0 162 59t70 174v51h104v-41 q0 -164 -97 -253t-251 -89zM442 903v209h121v-209h-121z" />
<glyph unicode="&#xc0;" horiz-adv-x="1136" d="M59 0l441 1466h145l434 -1466h-123l-141 485h-498l-143 -485h-115zM342 584h444l-219 753h-2zM516 1573l-217 295h127l184 -295h-94z" />
<glyph unicode="&#xc1;" horiz-adv-x="1136" d="M59 0l441 1466h145l434 -1466h-123l-141 485h-498l-143 -485h-115zM342 584h444l-219 753h-2zM537 1573l182 295h125l-215 -295h-92z" />
<glyph unicode="&#xc2;" horiz-adv-x="1136" d="M59 0l441 1466h145l434 -1466h-123l-141 485h-498l-143 -485h-115zM342 584h444l-219 753h-2zM342 1567l178 299h88l174 -299h-104l-117 215l-121 -215h-98z" />
<glyph unicode="&#xc3;" horiz-adv-x="1136" d="M59 0l441 1466h145l434 -1466h-123l-141 485h-498l-143 -485h-115zM342 584h444l-219 753h-2zM330 1581l-70 8q8 74 50 123t110 49q49 0 147.5 -37.5t147.5 -37.5q37 0 57.5 23.5t36.5 68.5l63 -13q-10 -74 -53 -122t-106 -48q-53 0 -153.5 38t-141.5 38 q-29 0 -47.5 -14.5t-24.5 -29.5t-16 -46z" />
<glyph unicode="&#xc4;" horiz-adv-x="1136" d="M59 0l441 1466h145l434 -1466h-123l-141 485h-498l-143 -485h-115zM342 584h444l-219 753h-2zM367 1632v199h104v-199h-104zM668 1632v199h104v-199h-104z" />
<glyph unicode="&#xc5;" horiz-adv-x="1136" d="M59 0l441 1466h145l434 -1466h-123l-141 485h-498l-143 -485h-115zM342 584h444l-219 753h-2zM573 1530q-80 0 -123.5 49t-43.5 119q0 74 47 124t116 50q80 0 125 -45t45 -119q0 -76 -47 -127t-119 -51zM571 1589q45 0 74 30t29 83t-28 83t-77 30q-45 0 -70.5 -32 t-25.5 -85t27.5 -81t70.5 -28z" />
<glyph unicode="&#xc6;" horiz-adv-x="1660" d="M47 0l709 1460h833v-104h-647v-545h516v-102h-516v-603h647v-106h-766v463l-430 2l-223 -465h-123zM438 561h385v789h-4z" />
<glyph unicode="&#xc7;" horiz-adv-x="1132" d="M600 -397q-80 0 -160 22v72q84 -25 162 -25q106 0 107 72q0 66 -121 76l-66 4l39 151q-201 8 -318.5 117t-117.5 305v662q0 190 127 308t336 118q195 0 309.5 -101.5t114.5 -257.5v-120h-109v90q0 129 -81 207.5t-240.5 78.5t-247.5 -91t-88 -240v-633q0 -172 92 -255 t252 -83q150 0 231.5 74.5t81.5 197.5v105h109v-115q0 -156 -102.5 -255t-280.5 -110l-25 -98q199 -12 199 -135q0 -61 -56.5 -101t-146.5 -40z" />
<glyph unicode="&#xc8;" horiz-adv-x="1032" d="M164 0v1460h766v-104h-645v-543h514v-104h-514v-603h645v-106h-766zM541 1573l-217 295h127l184 -295h-94z" />
<glyph unicode="&#xc9;" horiz-adv-x="1032" d="M489 1573l183 295h125l-215 -295h-93zM164 0v1460h766v-104h-645v-543h514v-104h-514v-603h645v-106h-766z" />
<glyph unicode="&#xca;" horiz-adv-x="1032" d="M334 1567l178 299h88l174 -299h-104l-117 215l-121 -215h-98zM164 0v1460h766v-104h-645v-543h514v-104h-514v-603h645v-106h-766z" />
<glyph unicode="&#xcb;" horiz-adv-x="1032" d="M365 1628v199h104v-199h-104zM666 1628v199h104v-199h-104zM164 0v1460h766v-104h-645v-543h514v-104h-514v-603h645v-106h-766z" />
<glyph unicode="&#xcc;" horiz-adv-x="413" d="M152 0v1460h120v-1460h-120zM154 1573l-217 295h126l185 -295h-94z" />
<glyph unicode="&#xcd;" horiz-adv-x="413" d="M152 0v1460h120v-1460h-120zM172 1573l182 295h125l-215 -295h-92z" />
<glyph unicode="&#xce;" horiz-adv-x="413" d="M152 0v1460h120v-1460h-120zM-6 1567l178 299h88l174 -299h-104l-117 215l-121 -215h-98z" />
<glyph unicode="&#xcf;" horiz-adv-x="413" d="M152 0v1460h120v-1460h-120zM14 1628v199h105v-199h-105zM315 1628v199h105v-199h-105z" />
<glyph unicode="&#xd0;" horiz-adv-x="1212" d="M66 721v88h135v651h458q195 0 311.5 -100t116.5 -293v-649q0 -199 -117.5 -308.5t-312.5 -109.5h-456v721h-135zM322 104h319q164 0 244 87.5t80 222.5v635q0 137 -81 223t-239 86h-323v-549h352v-88h-352v-617z" />
<glyph unicode="&#xd1;" horiz-adv-x="1224" d="M164 0v1460h125l663 -1218h4v1218h107v-1460h-107l-682 1264h-4v-1264h-106zM395 1581l-69 8q8 74 50 123t109 49q49 0 147.5 -37.5t147.5 -37.5q37 0 57.5 23.5t36.5 68.5l64 -13q-10 -74 -53 -122t-107 -48q-53 0 -153.5 38t-141.5 38q-29 0 -47 -14.5t-24.5 -29.5 t-16.5 -46z" />
<glyph unicode="&#xd2;" horiz-adv-x="1181" d="M592 -25q-209 0 -338 110t-129 321v624q0 213 129 335t338 122q207 0 336 -109.5t129 -316.5v-627q0 -217 -128 -338t-337 -121zM594 86q160 0 251 92t91 244v637q0 150 -93 234.5t-257 84.5t-251 -92t-87 -258v-610q0 -154 91 -243t255 -89zM559 1573l-217 295h127 l184 -295h-94z" />
<glyph unicode="&#xd3;" horiz-adv-x="1181" d="M530 1573l183 295h125l-215 -295h-93zM592 -25q-209 0 -338 110t-129 321v624q0 213 129 335t338 122q207 0 336 -109.5t129 -316.5v-627q0 -217 -128 -338t-337 -121zM594 86q160 0 251 92t91 244v637q0 150 -93 234.5t-257 84.5t-251 -92t-87 -258v-610q0 -154 91 -243 t255 -89z" />
<glyph unicode="&#xd4;" horiz-adv-x="1181" d="M369 1567l178 299h88l174 -299h-104l-117 215l-121 -215h-98zM592 -25q-209 0 -338 110t-129 321v624q0 213 129 335t338 122q207 0 336 -109.5t129 -316.5v-627q0 -217 -128 -338t-337 -121zM594 86q160 0 251 92t91 244v637q0 150 -93 234.5t-257 84.5t-251 -92 t-87 -258v-610q0 -154 91 -243t255 -89z" />
<glyph unicode="&#xd5;" horiz-adv-x="1181" d="M592 -25q-209 0 -338 110t-129 321v624q0 213 129 335t338 122q207 0 336 -109.5t129 -316.5v-627q0 -217 -128 -338t-337 -121zM594 86q160 0 251 92t91 244v637q0 150 -93 234.5t-257 84.5t-251 -92t-87 -258v-610q0 -154 91 -243t255 -89zM346 1581l-70 8 q8 74 50.5 123t109.5 49q49 0 147.5 -37.5t147.5 -37.5q37 0 57.5 23.5t36.5 68.5l64 -13q-10 -74 -53 -122t-107 -48q-53 0 -153.5 38t-141.5 38q-29 0 -47 -14.5t-24.5 -29.5t-16.5 -46z" />
<glyph unicode="&#xd6;" horiz-adv-x="1181" d="M389 1628v199h105v-199h-105zM690 1628v199h105v-199h-105zM592 -25q-209 0 -338 110t-129 321v624q0 213 129 335t338 122q207 0 336 -109.5t129 -316.5v-627q0 -217 -128 -338t-337 -121zM594 86q160 0 251 92t91 244v637q0 150 -93 234.5t-257 84.5t-251 -92t-87 -258 v-610q0 -154 91 -243t255 -89z" />
<glyph unicode="&#xd7;" d="M260 295l-57 63l293 295l-295 295l61 62l295 -295l145 146q137 138 144 147l59 -62l-291 -291l291 -295l-59 -59l-289 291q-49 -45 -158 -156z" />
<glyph unicode="&#xd8;" horiz-adv-x="1179" d="M252 -102l-74 32l74 156q-127 115 -127 320v624q0 213 129 335t338 122q166 0 285 -72l61 131l76 -30l-72 -152q115 -115 115 -303v-627q0 -217 -128 -338t-337 -121q-162 0 -275 64zM248 418q0 -127 61 -209l516 1098q-90 72 -239 71q-164 0 -251 -92t-87 -258v-610z M594 86q160 0 251 92t91 244v637q0 104 -51 184l-514 -1093q86 -64 223 -64z" />
<glyph unicode="&#xd9;" horiz-adv-x="1214" d="M604 -25q-190 0 -320 104.5t-130 319.5v1061h120v-1038q0 -180 97.5 -261t240.5 -81q158 0 248 91t84 241v1048h115v-1054q2 -199 -124 -315t-331 -116zM594 1571l-217 295h127l184 -295h-94z" />
<glyph unicode="&#xda;" horiz-adv-x="1214" d="M563 1571l182 295h125l-215 -295h-92zM604 -25q-190 0 -320 104.5t-130 319.5v1061h120v-1038q0 -180 97.5 -261t240.5 -81q158 0 248 91t84 241v1048h115v-1054q2 -199 -124 -315t-331 -116z" />
<glyph unicode="&#xdb;" horiz-adv-x="1214" d="M403 1565l179 299h88l174 -299h-105l-116 215l-121 -215h-99zM604 -25q-190 0 -320 104.5t-130 319.5v1061h120v-1038q0 -180 97.5 -261t240.5 -81q158 0 248 91t84 241v1048h115v-1054q2 -199 -124 -315t-331 -116z" />
<glyph unicode="&#xdc;" horiz-adv-x="1214" d="M428 1628v199h104v-199h-104zM729 1628v199h105v-199h-105zM604 -25q-190 0 -320 104.5t-130 319.5v1061h120v-1038q0 -180 97.5 -261t240.5 -81q158 0 248 91t84 241v1048h115v-1054q2 -199 -124 -315t-331 -116z" />
<glyph unicode="&#xdd;" horiz-adv-x="1017" d="M449 0v627l-388 833h125l332 -717l324 717h116l-389 -835v-625h-120zM473 1569l182 295h125l-215 -295h-92z" />
<glyph unicode="&#xde;" horiz-adv-x="1095" d="M164 0v1460h121v-284h297q197 0 302 -118t105 -300q0 -199 -116.5 -316.5t-325.5 -117.5h-262v-324h-121zM285 420h233q168 0 258 85t90 251q0 139 -80.5 231t-220.5 92h-280v-659z" />
<glyph unicode="&#xdf;" horiz-adv-x="1177" d="M780 -25q-201 0 -327 144l65 74q121 -127 266 -127q113 0 169.5 73.5t56.5 190.5q0 156 -116 256t-282 121v92l56 2q231 109 231 315q0 127 -77 201t-210 74q-129 0 -196.5 -76t-67.5 -199v-1116h-115v940h-161v94h161v74q0 164 105.5 269.5t282.5 105.5 q180 0 285.5 -101.5t105.5 -246.5q0 -244 -246 -371v-2q174 -53 263 -172t89 -246q0 -172 -92 -270.5t-246 -98.5z" />
<glyph unicode="&#xe0;" horiz-adv-x="940" d="M381 -23q-119 0 -201 77t-82 218q0 164 112 244t257 82h213v190q0 186 -215 187q-94 0 -161.5 -44t-67.5 -128v-64h-103v66q0 123 98.5 189.5t247.5 66.5q141 0 229.5 -66.5t88.5 -197.5v-531q0 -33 2 -85t5 -108.5t3 -72.5h-107l-8 172h-4q-45 -102 -131 -148.5 t-176 -46.5zM416 68q109 0 186.5 77.5t77.5 194.5v176h-193q-113 0 -191.5 -50t-78.5 -177q0 -106 57.5 -163.5t141.5 -57.5zM438 1178l-217 295h127l184 -295h-94z" />
<glyph unicode="&#xe1;" horiz-adv-x="940" d="M381 -23q-119 0 -201 77t-82 218q0 164 112 244t257 82h213v190q0 186 -215 187q-94 0 -161.5 -44t-67.5 -128v-64h-103v66q0 123 98.5 189.5t247.5 66.5q141 0 229.5 -66.5t88.5 -197.5v-531q0 -33 2 -85t5 -108.5t3 -72.5h-107l-8 172h-4q-45 -102 -131 -148.5 t-176 -46.5zM416 68q109 0 186.5 77.5t77.5 194.5v176h-193q-113 0 -191.5 -50t-78.5 -177q0 -106 57.5 -163.5t141.5 -57.5zM395 1178l183 295h124l-215 -295h-92z" />
<glyph unicode="&#xe2;" horiz-adv-x="940" d="M381 -23q-119 0 -201 77t-82 218q0 164 112 244t257 82h213v190q0 186 -215 187q-94 0 -161.5 -44t-67.5 -128v-64h-103v66q0 123 98.5 189.5t247.5 66.5q141 0 229.5 -66.5t88.5 -197.5v-531q0 -33 2 -85t5 -108.5t3 -72.5h-107l-8 172h-4q-45 -102 -131 -148.5 t-176 -46.5zM416 68q109 0 186.5 77.5t77.5 194.5v176h-193q-113 0 -191.5 -50t-78.5 -177q0 -106 57.5 -163.5t141.5 -57.5zM236 1171l178 299h88l174 -299h-105l-116 215l-121 -215h-98z" />
<glyph unicode="&#xe3;" horiz-adv-x="940" d="M381 -23q-119 0 -201 77t-82 218q0 164 112 244t257 82h213v190q0 186 -215 187q-94 0 -161.5 -44t-67.5 -128v-64h-103v66q0 123 98.5 189.5t247.5 66.5q141 0 229.5 -66.5t88.5 -197.5v-531q0 -33 2 -85t5 -108.5t3 -72.5h-107l-8 172h-4q-45 -102 -131 -148.5 t-176 -46.5zM416 68q109 0 186.5 77.5t77.5 194.5v176h-193q-113 0 -191.5 -50t-78.5 -177q0 -106 57.5 -163.5t141.5 -57.5zM229 1186l-69 8q8 74 50 123t109 49q49 0 147.5 -38t147.5 -38q37 0 57.5 23.5t37.5 68.5l63 -12q-10 -74 -53 -122t-107 -48q-53 0 -153.5 38 t-141.5 38q-29 0 -47 -14.5t-24.5 -29.5t-16.5 -46z" />
<glyph unicode="&#xe4;" horiz-adv-x="940" d="M381 -23q-119 0 -201 77t-82 218q0 164 112 244t257 82h213v190q0 186 -215 187q-94 0 -161.5 -44t-67.5 -128v-64h-103v66q0 123 98.5 189.5t247.5 66.5q141 0 229.5 -66.5t88.5 -197.5v-531q0 -33 2 -85t5 -108.5t3 -72.5h-107l-8 172h-4q-45 -102 -131 -148.5 t-176 -46.5zM416 68q109 0 186.5 77.5t77.5 194.5v176h-193q-113 0 -191.5 -50t-78.5 -177q0 -106 57.5 -163.5t141.5 -57.5zM260 1233v199h105v-199h-105zM561 1233v199h105v-199h-105z" />
<glyph unicode="&#xe5;" horiz-adv-x="940" d="M381 -23q-119 0 -201 77t-82 218q0 164 112 244t257 82h213v190q0 186 -215 187q-94 0 -161.5 -44t-67.5 -128v-64h-103v66q0 123 98.5 189.5t247.5 66.5q141 0 229.5 -66.5t88.5 -197.5v-531q0 -33 2 -85t5 -108.5t3 -72.5h-107l-8 172h-4q-45 -102 -131 -148.5 t-176 -46.5zM416 68q109 0 186.5 77.5t77.5 194.5v176h-193q-113 0 -191.5 -50t-78.5 -177q0 -106 57.5 -163.5t141.5 -57.5zM467 1151q-80 0 -124 49t-44 119q0 74 47 124t117 50q80 0 125 -45t45 -119q0 -76 -47 -127t-119 -51zM465 1210q45 0 73.5 30t28.5 83t-27.5 83 t-76.5 30q-45 0 -70.5 -32t-25.5 -85t27.5 -81t70.5 -28z" />
<glyph unicode="&#xe6;" horiz-adv-x="1480" d="M389 -25q-123 0 -207 78t-84 219q0 164 112 245t257 81h213v190q0 94 -60.5 140.5t-162.5 46.5q-92 0 -156.5 -44t-64.5 -128v-64h-103v66q0 123 94.5 189.5t245.5 66.5q104 0 181 -38t100 -118q90 156 295 156q158 0 245.5 -95.5t87.5 -265.5v-190h-587v-168 q0 -268 278 -268q125 0 254 78l43 -78q-125 -98 -313 -99q-129 0 -218 53.5t-120 161.5q-47 -119 -142.5 -167t-187.5 -48zM422 68q106 0 182 79.5t76 196.5v172h-182q-281 0 -281 -227q0 -109 57.5 -165t147.5 -56zM795 598h479v113q0 109 -57.5 184.5t-182.5 75.5 q-117 0 -178 -78t-61 -182v-113z" />
<glyph unicode="&#xe7;" horiz-adv-x="899" d="M487 -397q-80 0 -159 22v72q84 -25 161 -25q106 0 107 72q0 66 -121 76l-65 4l39 151q-160 6 -246 99.5t-86 265.5v356q0 172 94 268.5t252 96.5q162 0 247 -79t85 -204v-51h-105v49q0 72 -53 132.5t-174 60.5t-176.5 -75t-55.5 -194v-364q0 -268 242 -268q123 0 170 59 t47 139v51h105v-55q0 -119 -70 -195.5t-209 -89.5l-24 -98q199 -12 198 -135q0 -61 -56.5 -101t-146.5 -40z" />
<glyph unicode="&#xe8;" horiz-adv-x="925" d="M492 -25q-174 0 -274.5 92.5t-100.5 280.5v324q0 184 100 286.5t264 102.5q160 0 249 -96.5t89 -266.5v-196h-586v-158q0 -270 273 -270q117 0 258 78l41 -78q-125 -99 -313 -99zM233 588h478v123q0 111 -57.5 185.5t-184.5 74.5q-117 0 -176.5 -79t-59.5 -185v-119z M453 1178l-217 295h126l185 -295h-94z" />
<glyph unicode="&#xe9;" horiz-adv-x="925" d="M426 1178l182 295h125l-215 -295h-92zM492 -25q-174 0 -274.5 92.5t-100.5 280.5v324q0 184 100 286.5t264 102.5q160 0 249 -96.5t89 -266.5v-196h-586v-158q0 -270 273 -270q117 0 258 78l41 -78q-125 -99 -313 -99zM233 588h478v123q0 111 -57.5 185.5t-184.5 74.5 q-117 0 -176.5 -79t-59.5 -185v-119z" />
<glyph unicode="&#xea;" horiz-adv-x="925" d="M252 1171l178 299h88l174 -299h-104l-117 215l-121 -215h-98zM492 -25q-174 0 -274.5 92.5t-100.5 280.5v324q0 184 100 286.5t264 102.5q160 0 249 -96.5t89 -266.5v-196h-586v-158q0 -270 273 -270q117 0 258 78l41 -78q-125 -99 -313 -99zM233 588h478v123 q0 111 -57.5 185.5t-184.5 74.5q-117 0 -176.5 -79t-59.5 -185v-119z" />
<glyph unicode="&#xeb;" horiz-adv-x="925" d="M266 1233v199h105v-199h-105zM567 1233v199h105v-199h-105zM492 -25q-174 0 -274.5 92.5t-100.5 280.5v324q0 184 100 286.5t264 102.5q160 0 249 -96.5t89 -266.5v-196h-586v-158q0 -270 273 -270q117 0 258 78l41 -78q-125 -99 -313 -99zM233 588h478v123 q0 111 -57.5 185.5t-184.5 74.5q-117 0 -176.5 -79t-59.5 -185v-119z" />
<glyph unicode="&#xec;" horiz-adv-x="430" d="M160 0v1036h112v-1036h-112zM160 1178l-217 295h127l184 -295h-94z" />
<glyph unicode="&#xed;" horiz-adv-x="430" d="M172 1178l182 295h125l-215 -295h-92zM160 0v1036h112v-1036h-112z" />
<glyph unicode="&#xee;" horiz-adv-x="430" d="M-6 1171l178 299h88l174 -299h-104l-117 215l-121 -215h-98zM160 0v1036h112v-1036h-112z" />
<glyph unicode="&#xef;" horiz-adv-x="430" d="M18 1233v199h105v-199h-105zM319 1233v199h105v-199h-105zM160 0v1036h112v-1036h-112z" />
<glyph unicode="&#xf0;" horiz-adv-x="946" d="M473 -25q-168 0 -262 89.5t-94 263.5v364q0 164 96 259.5t248 97.5q68 0 129 -29l-144 229l-213 -59l-30 70l194 57l-90 141l117 33q2 -2 44 -68.5t44 -70.5l215 61l31 -70l-199 -59l213 -342q59 -96 59 -244v-356q0 -180 -93 -273.5t-265 -93.5zM475 70 q133 0 187.5 71.5t54.5 198.5v356q0 262 -230 262q-127 0 -191.5 -73.5t-64.5 -196.5v-362q0 -119 59.5 -187.5t184.5 -68.5z" />
<glyph unicode="&#xf1;" horiz-adv-x="999" d="M160 0v1036h104v-180h4q45 102 132 153.5t192 51.5q119 0 188.5 -74t69.5 -184v-803h-115v766q0 201 -190 201q-102 0 -187.5 -88t-85.5 -207v-672h-112zM283 1186l-70 8q8 74 50 123t110 49q49 0 147 -38t148 -38q37 0 57 23.5t37 68.5l63 -12q-10 -74 -53 -122 t-106 -48q-53 0 -153.5 38t-141.5 38q-29 0 -47.5 -14.5t-24.5 -29.5t-16 -46z" />
<glyph unicode="&#xf2;" horiz-adv-x="948" d="M475 -25q-166 0 -262 96.5t-96 274.5v342q0 174 98 273.5t258 99.5q166 0 262 -96.5t96 -272.5v-340q0 -182 -96 -279.5t-260 -97.5zM479 72q238 0 238 280v348q0 119 -60.5 194t-185.5 75t-182.5 -77t-57.5 -202v-340q0 -278 248 -278zM426 1178l-217 295h127l184 -295 h-94z" />
<glyph unicode="&#xf3;" horiz-adv-x="948" d="M412 1178l182 295h125l-215 -295h-92zM475 -25q-166 0 -262 96.5t-96 274.5v342q0 174 98 273.5t258 99.5q166 0 262 -96.5t96 -272.5v-340q0 -182 -96 -279.5t-260 -97.5zM479 72q238 0 238 280v348q0 119 -60.5 194t-185.5 75t-182.5 -77t-57.5 -202v-340 q0 -278 248 -278z" />
<glyph unicode="&#xf4;" horiz-adv-x="948" d="M254 1171l178 299h88l174 -299h-104l-117 215l-121 -215h-98zM475 -25q-166 0 -262 96.5t-96 274.5v342q0 174 98 273.5t258 99.5q166 0 262 -96.5t96 -272.5v-340q0 -182 -96 -279.5t-260 -97.5zM479 72q238 0 238 280v348q0 119 -60.5 194t-185.5 75t-182.5 -77 t-57.5 -202v-340q0 -278 248 -278z" />
<glyph unicode="&#xf5;" horiz-adv-x="948" d="M475 -25q-166 0 -262 96.5t-96 274.5v342q0 174 98 273.5t258 99.5q166 0 262 -96.5t96 -272.5v-340q0 -182 -96 -279.5t-260 -97.5zM479 72q238 0 238 280v348q0 119 -60.5 194t-185.5 75t-182.5 -77t-57.5 -202v-340q0 -278 248 -278zM231 1186l-69 8q8 74 50 123 t110 49q49 0 147 -38t147 -38q37 0 57.5 23.5t37.5 68.5l63 -12q-10 -74 -53 -122t-107 -48q-53 0 -153.5 38t-141.5 38q-29 0 -47 -14.5t-24.5 -29.5t-16.5 -46z" />
<glyph unicode="&#xf6;" horiz-adv-x="948" d="M270 1233v199h105v-199h-105zM571 1233v199h105v-199h-105zM475 -25q-166 0 -262 96.5t-96 274.5v342q0 174 98 273.5t258 99.5q166 0 262 -96.5t96 -272.5v-340q0 -182 -96 -279.5t-260 -97.5zM479 72q238 0 238 280v348q0 119 -60.5 194t-185.5 75t-182.5 -77 t-57.5 -202v-340q0 -278 248 -278z" />
<glyph unicode="&#xf7;" d="M500 242v188h118v-188h-118zM168 608v88h768v-88h-768zM500 848v188h118v-188h-118z" />
<glyph unicode="&#xf8;" horiz-adv-x="948" d="M233 -102l-69 32l61 129q-109 96 -108 287v342q0 174 98 273.5t258 99.5q117 0 203 -51l53 112l70 -32l-62 -127q94 -100 94 -271v-340q0 -182 -96 -279.5t-260 -97.5q-104 0 -186 41zM231 350q0 -121 43 -186l357 754q-66 51 -160 51q-125 0 -182.5 -77t-57.5 -202v-340 zM479 72q238 0 238 280v348q0 86 -33 150l-350 -741q55 -37 145 -37z" />
<glyph unicode="&#xf9;" horiz-adv-x="999" d="M414 -25q-119 0 -190.5 73t-71.5 183v805h114v-766q0 -106 48 -152t141 -46q109 0 191.5 87t82.5 208v669h115v-1036h-101l-6 182h-4q-41 -96 -129 -151.5t-190 -55.5zM463 1178l-217 295h127l184 -295h-94z" />
<glyph unicode="&#xfa;" horiz-adv-x="999" d="M453 1178l182 295h125l-215 -295h-92zM414 -25q-119 0 -190.5 73t-71.5 183v805h114v-766q0 -106 48 -152t141 -46q109 0 191.5 87t82.5 208v669h115v-1036h-101l-6 182h-4q-41 -96 -129 -151.5t-190 -55.5z" />
<glyph unicode="&#xfb;" horiz-adv-x="999" d="M295 1171l178 299h88l174 -299h-104l-117 215l-121 -215h-98zM414 -25q-119 0 -190.5 73t-71.5 183v805h114v-766q0 -106 48 -152t141 -46q109 0 191.5 87t82.5 208v669h115v-1036h-101l-6 182h-4q-41 -96 -129 -151.5t-190 -55.5z" />
<glyph unicode="&#xfc;" horiz-adv-x="999" d="M305 1233v199h105v-199h-105zM606 1233v199h105v-199h-105zM414 -25q-119 0 -190.5 73t-71.5 183v805h114v-766q0 -106 48 -152t141 -46q109 0 191.5 87t82.5 208v669h115v-1036h-101l-6 182h-4q-41 -96 -129 -151.5t-190 -55.5z" />
<glyph unicode="&#xfd;" horiz-adv-x="839" d="M162 -391q-70 0 -125 16l14 99q61 -14 105 -15q59 0 96 35t65 119l54 174l-322 999h121l260 -850h2l256 850h107l-363 -1163q-75 -264 -270 -264zM410 1178l182 295h125l-215 -295h-92z" />
<glyph unicode="&#xfe;" horiz-adv-x="972" d="M160 -371v1833h112v-596h7q41 98 122.5 147.5t169.5 49.5q135 0 212 -83t77 -208v-471q0 -152 -90 -239t-219 -87q-88 0 -168 50.5t-107 140.5h-4v-537h-112zM532 66q92 0 152.5 59t60.5 172v457q0 92 -56 152.5t-163 60.5q-100 0 -177 -90.5t-77 -229.5v-272 q0 -131 79 -220t181 -89z" />
<glyph unicode="&#xff;" horiz-adv-x="839" d="M162 -391q-70 0 -125 16l14 99q61 -14 105 -15q59 0 96 35t65 119l54 174l-322 999h121l260 -850h2l256 850h107l-363 -1163q-75 -264 -270 -264zM248 1233v199h104v-199h-104zM549 1233v199h104v-199h-104z" />
<glyph unicode="&#x152;" horiz-adv-x="1806" d="M575 -23q-205 0 -327.5 110t-122.5 321v628q0 213 125 333t332 120q256 0 354 -180v153h766v-104h-647v-547h516v-102h-516v-603h649v-106h-768v172q-47 -90 -141.5 -142.5t-219.5 -52.5zM594 80q158 0 250 95t92 247v641q0 150 -93 234.5t-257 84.5q-162 0 -250 -93 t-88 -257v-614q0 -154 91 -246t255 -92z" />
<glyph unicode="&#x153;" horiz-adv-x="1523" d="M475 -25q-166 0 -262 96.5t-96 274.5v342q0 174 98 273.5t258 99.5q209 0 303 -174q94 174 305 174q160 0 249 -97.5t89 -267.5v-194h-588v-162q0 -266 277 -266q125 0 254 78l43 -78q-127 -98 -313 -99q-231 0 -320 168q-88 -168 -297 -168zM479 72q238 0 238 280v348 q0 119 -60.5 194t-185.5 75t-182.5 -77t-57.5 -202v-338q0 -280 248 -280zM831 588h478v123q0 111 -56.5 185.5t-183.5 74.5q-117 0 -177.5 -79t-60.5 -185v-119z" />
<glyph unicode="&#x178;" horiz-adv-x="1017" d="M449 0v627l-388 833h125l332 -717l324 717h116l-389 -835v-625h-120zM317 1628v199h105v-199h-105zM618 1628v199h105v-199h-105z" />
<glyph unicode="&#x2c6;" horiz-adv-x="729" d="M150 1171l178 299h88l174 -299h-105l-116 215l-121 -215h-98z" />
<glyph unicode="&#x2dc;" horiz-adv-x="763" d="M160 1186l-70 8q8 74 50 123t110 49q49 0 147.5 -38t147.5 -38q37 0 57.5 23.5t36.5 68.5l63 -12q-10 -74 -53 -122t-106 -48q-53 0 -153.5 38t-141.5 38q-29 0 -47.5 -14.5t-24.5 -29.5t-16 -46z" />
<glyph unicode="&#x2000;" horiz-adv-x="935" />
<glyph unicode="&#x2001;" horiz-adv-x="1871" />
<glyph unicode="&#x2002;" horiz-adv-x="935" />
<glyph unicode="&#x2003;" horiz-adv-x="1871" />
<glyph unicode="&#x2004;" horiz-adv-x="622" />
<glyph unicode="&#x2005;" horiz-adv-x="466" />
<glyph unicode="&#x2006;" horiz-adv-x="311" />
<glyph unicode="&#x2007;" horiz-adv-x="311" />
<glyph unicode="&#x2008;" horiz-adv-x="233" />
<glyph unicode="&#x2009;" horiz-adv-x="372" />
<glyph unicode="&#x200a;" horiz-adv-x="102" />
<glyph unicode="&#x2010;" horiz-adv-x="563" d="M74 557v94h415v-94h-415z" />
<glyph unicode="&#x2011;" horiz-adv-x="563" d="M74 557v94h415v-94h-415z" />
<glyph unicode="&#x2012;" horiz-adv-x="563" d="M74 557v94h415v-94h-415z" />
<glyph unicode="&#x2013;" horiz-adv-x="944" d="M0 563v82h944v-82h-944z" />
<glyph unicode="&#x2014;" horiz-adv-x="1595" d="M0 563v82h1595v-82h-1595z" />
<glyph unicode="&#x2018;" horiz-adv-x="372" d="M127 1057v198l45 207h61l-34 -200h41v-205h-113z" />
<glyph unicode="&#x2019;" horiz-adv-x="374" d="M139 1055l33 202h-41v203h113v-198l-43 -207h-62z" />
<glyph unicode="&#x201a;" horiz-adv-x="370" d="M160 -43l-8 49l-21 148l55 57l58 -148l-29 -210l-49 -52z" />
<glyph unicode="&#x201c;" horiz-adv-x="634" d="M127 1057v198l45 207h61l-34 -200h41v-205h-113zM393 1057v198l49 207h58l-31 -200h39v-205h-115z" />
<glyph unicode="&#x201d;" horiz-adv-x="634" d="M137 1055l33 202h-39v203h113v-198l-47 -207h-60zM403 1055l33 202h-41v203h115v-198l-45 -207h-62z" />
<glyph unicode="&#x201e;" horiz-adv-x="634" d="M137 -199l33 205h-39v205h113v-201l-47 -209h-60zM403 -199l33 205h-41v205h115v-201l-45 -209h-62z" />
<glyph unicode="&#x2022;" horiz-adv-x="768" d="M385 504q-88 0 -150.5 62.5t-62.5 148.5q0 88 62.5 150.5t150.5 62.5q86 0 147.5 -62.5t61.5 -150.5q0 -86 -61.5 -148.5t-147.5 -62.5z" />
<glyph unicode="&#x2026;" horiz-adv-x="1083" d="M135 0v211h115v-211h-115zM485 0v211h115v-211h-115zM836 0v211h114v-211h-114z" />
<glyph unicode="&#x202f;" horiz-adv-x="372" />
<glyph unicode="&#x2039;" horiz-adv-x="491" d="M297 250l-221 311l219 316l70 -43l-160 -271l162 -270z" />
<glyph unicode="&#x203a;" horiz-adv-x="491" d="M147 250l-69 45l160 270l-162 271l69 43l222 -312z" />
<glyph unicode="&#x205f;" horiz-adv-x="466" />
<glyph unicode="&#x20ac;" horiz-adv-x="1251" d="M723 -25q-205 0 -328 107.5t-123 308.5v150h-170v84h170v217h-170v84h170v131q0 186 125 309t326 123q195 0 312.5 -102.5t117.5 -258.5v-116h-111v102q0 125 -82.5 202t-242.5 77q-156 0 -238 -94.5t-82 -241.5v-131h490v-84h-490v-217h490v-84h-490v-135 q0 -156 86 -246t244 -90t236.5 78.5t78.5 205.5v78h111v-92q0 -164 -117.5 -264.5t-312.5 -100.5z" />
<glyph unicode="&#x2122;" horiz-adv-x="1193" d="M594 813v653h88l158 -315l155 315h84v-653h-71l-2 516l-142 -287h-53l-145 295v-524h-72zM248 813v584h-180v69h434v-69h-178v-584h-76z" />
<glyph unicode="&#xe000;" horiz-adv-x="1035" d="M0 1035h1035v-1035h-1035v1035z" />
<glyph unicode="&#xe38c;" horiz-adv-x="1042" d="M770 0v1036h113v-1036h-113zM770 1227v207h113v-207h-113zM236 0v940h-166v94h166v195q0 121 66.5 189.5t178.5 68.5q59 0 111 -14v-97q-35 12 -103 13q-139 0 -139 -156v-199h217v-94h-217v-940h-114z" />
<glyph unicode="&#xfb01;" horiz-adv-x="1042" d="M770 0v1036h113v-1036h-113zM770 1227v207h113v-207h-113zM236 0v940h-166v94h166v195q0 121 66.5 189.5t178.5 68.5q59 0 111 -14v-97q-35 12 -103 13q-139 0 -139 -156v-199h217v-94h-217v-940h-114z" />
<glyph unicode="&#xe38d;" horiz-adv-x="1169" d="M973 -12q-96 0 -150.5 55t-54.5 156v1261h115v-1247q0 -121 125 -121q43 0 92 8v-92q-55 -20 -127 -20zM236 0v940h-166v94h166v195q0 121 66.5 189.5t178.5 68.5q59 0 111 -14v-97q-35 12 -103 13q-139 0 -139 -156v-199h217v-94h-217v-940h-114z" />
<glyph unicode="&#xfb02;" horiz-adv-x="1169" d="M973 -12q-96 0 -150.5 55t-54.5 156v1261h115v-1247q0 -121 125 -121q43 0 92 8v-92q-55 -20 -127 -20zM236 0v940h-166v94h166v195q0 121 66.5 189.5t178.5 68.5q59 0 111 -14v-97q-35 12 -103 13q-139 0 -139 -156v-199h217v-94h-217v-940h-114z" />
<glyph unicode="&#xfb03;" horiz-adv-x="1683" d="M1413 0v1036h112v-1036h-112zM1413 1227v207h112v-207h-112zM863 0v940h-166v94h166v195q0 121 66.5 189.5t178.5 68.5q59 0 111 -14v-97q-35 12 -103 13q-139 0 -139 -156v-199h217v-94h-217v-940h-114zM236 0v940h-166v94h166v195q0 121 66.5 189.5t178.5 68.5 q59 0 111 -14v-97q-35 12 -103 13q-139 0 -139 -156v-199h217v-94h-217v-940h-114z" />
<glyph unicode="&#xfb04;" horiz-adv-x="1804" d="M1615 -12q-96 0 -150 55t-54 156v1261h114v-1247q0 -121 125 -121q43 0 92 8v-92q-55 -20 -127 -20zM863 0v940h-166v94h166v195q0 121 66.5 189.5t178.5 68.5q59 0 111 -14v-97q-35 12 -103 13q-139 0 -139 -156v-199h217v-94h-217v-940h-114zM236 0v940h-166v94h166 v195q0 121 66.5 189.5t178.5 68.5q59 0 111 -14v-97q-35 12 -103 13q-139 0 -139 -156v-199h217v-94h-217v-940h-114z" />
<glyph horiz-adv-x="366" />
</font>
</defs>
</svg>
