<?xml version="1.0" standalone="no"?>
<!DOCTYPE svg PUBLIC "-//W3C//DTD SVG 1.1//EN" "http://www.w3.org/Graphics/SVG/1.1/DTD/svg11.dtd" >
<svg xmlns="http://www.w3.org/2000/svg">
<metadata>
This is a custom SVG webfont generated by Font Squirrel.
Copyright   : Copyright c 2008 by Mrio Feliciano All rights reserved
Designer    : Mrio Feliciano
Foundry     : Mrio Feliciano  Feliciano Type Foundry
Foundry URL : wwwfelicianotypefoundrycom
</metadata>
<defs>
<font id="webfontxAWlZaKR" horiz-adv-x="794" >
<font-face units-per-em="2048" ascent="1638" descent="-410" />
<missing-glyph horiz-adv-x="296" />
<glyph unicode=" "  horiz-adv-x="296" />
<glyph unicode="&#x09;" horiz-adv-x="296" />
<glyph unicode="&#xa0;" horiz-adv-x="296" />
<glyph unicode="!" horiz-adv-x="413" d="M137 412l-35 508v542h211v-542l-32 -508h-144zM102 0v281h207v-281h-207z" />
<glyph unicode="&#x22;" horiz-adv-x="671" d="M117 958l-31 271v233h193v-233l-29 -271h-133zM424 958l-31 271v233h193v-233l-29 -271h-133z" />
<glyph unicode="#" horiz-adv-x="864" d="M152 -4l36 391h-141l12 137h142l47 443h-146l13 135h143l39 364h125l-37 -364h174l37 364h125l-37 -364h141l-10 -135h-143l-45 -443h143l-10 -137h-146l-36 -391h-129l38 391h-172l-36 -391h-127zM330 524h172l45 443h-174z" />
<glyph unicode="$" horiz-adv-x="798" d="M358 -72v129q-123 14 -207.5 97.5t-93.5 232.5l207 8q18 -172 150 -172q59 0 91 40t32 99q0 106 -125 232l-142 147q-186 186 -186 342q0 125 71.5 210t202.5 102v129h146v-131q225 -37 241 -312l-186 -4q-14 164 -139 164q-59 0 -93 -37t-34 -98q0 -35 21.5 -76 t43.5 -66l66 -73l135 -141q186 -201 186 -365q0 -119 -64.5 -205t-176.5 -112v-140h-146z" />
<glyph unicode="%" horiz-adv-x="1216" d="M295 729q-98 0 -161.5 57.5t-63.5 157.5v318q0 104 62.5 162.5t162.5 58.5q98 0 161.5 -58.5t63.5 -160.5v-322q0 -96 -65.5 -154.5t-159.5 -58.5zM295 856q41 0 60.5 24.5t19.5 59.5v336q0 33 -20.5 57.5t-59.5 24.5q-80 0 -80 -82v-338q0 -82 80 -82zM264 -4l578 1470 h119l-574 -1470h-123zM920 -23q-98 0 -162 56.5t-64 156.5v312q0 104 63.5 167.5t162 63.5t163 -59.5t64.5 -161.5v-319q0 -96 -66.5 -156t-160.5 -60zM919.5 102q77.5 0 77.5 86v336q0 33 -19.5 57.5t-58 24.5t-58 -24.5t-19.5 -57.5v-338q0 -84 77.5 -84z" />
<glyph unicode="&#x26;" horiz-adv-x="1036" d="M399 -27q-160 0 -243.5 112t-83.5 298q0 285 231 424q-121 209 -121 348t80 235.5t238 96.5q141 0 221 -87t80 -229q0 -264 -234 -405q4 -10 87 -149.5t87 -149.5q27 92 47 217l173 -20q-31 -199 -117 -390q4 -12 78.5 -136t81.5 -138h-242l-74 127q-121 -154 -289 -154z M442 166q94 0 160 108q-6 14 -106.5 187.5t-106.5 187.5q-104 -74 -104 -250q0 -96 39.5 -164.5t117.5 -68.5zM483 911q129 86 129 258q0 68 -30.5 111t-79.5 43q-57 0 -85 -44t-28 -105q0 -89 94 -263z" />
<glyph unicode="'" horiz-adv-x="368" d="M117 958l-31 271v233h193v-233l-29 -271h-133z" />
<glyph unicode="(" horiz-adv-x="450" d="M305 -352q-98 174 -156.5 431t-58.5 492q0 242 56.5 484.5t158.5 425.5l125 -11q-84 -276 -117.5 -454t-33.5 -447q0 -426 151 -911z" />
<glyph unicode=")" horiz-adv-x="450" d="M145 -352l-125 10q152 485 152 911q0 268 -34 446.5t-118 454.5l125 11q102 -182 158.5 -425t56.5 -485q0 -238 -57.5 -494.5t-157.5 -428.5z" />
<glyph unicode="*" horiz-adv-x="690" d="M211 881l-102 67l127 191l-195 114l63 103l181 -103v209h125v-211l176 105l65 -103l-196 -114l129 -191l-105 -67l-133 194z" />
<glyph unicode="+" horiz-adv-x="866" d="M358 291v287h-270v151h270v287h150v-287h268v-151h-268v-287h-150z" />
<glyph unicode="," horiz-adv-x="372" d="M104 -238l58 252h-78v267h207v-254l-78 -265h-109z" />
<glyph unicode="-" horiz-adv-x="479" d="M51 528v170h375v-170h-375z" />
<glyph unicode="." horiz-adv-x="372" d="M84 0v281h207v-281h-207z" />
<glyph unicode="/" horiz-adv-x="512" d="M-12 -338l334 1806h145l-328 -1806h-151z" />
<glyph unicode="0" horiz-adv-x="862" d="M432 -20q-152 0 -248 82.5t-96 236.5v872q0 150 100.5 231t246 81t243.5 -80t98 -229v-877q0 -154 -97 -235.5t-247 -81.5zM434.5 166q61.5 0 92 37t30.5 90v885q0 49 -34 83.5t-91 34.5q-59 0 -92 -34.5t-33 -83.5v-887q0 -51 33 -88t94.5 -37z" />
<glyph unicode="1" horiz-adv-x="565" d="M197 0v1235l-113 -29l-29 166l230 90h127v-1462h-215z" />
<glyph unicode="2" horiz-adv-x="776" d="M80 0v141l233 408q174 315 174 538v39q-4 170 -110 170q-109 0 -109 -141v-88h-196v86q0 152 84 242t233 90q156 0 233.5 -96.5t77.5 -268.5q0 -178 -63.5 -346t-173.5 -356l-127 -221v-4h373v-193h-629z" />
<glyph unicode="3" horiz-adv-x="798" d="M393 -20q-174 0 -252 94t-78 248v77h205v-86q0 -150 119 -149q61 0 92 55t31 193q0 233 -160 233h-98v199h102q72 0 107 54t35 183q0 215 -117 215q-106 0 -107 -149v-80h-200v76q0 164 84 252t241 88q147 0 229.5 -100.5t82.5 -274.5q0 -291 -172 -352v-6 q96 -33 145 -127.5t49 -219.5q0 -211 -96.5 -317t-241.5 -106z" />
<glyph unicode="4" horiz-adv-x="833" d="M463 0v352h-410v172l340 936h230l-369 -921h209v256l201 141v-397h106v-187h-106v-352h-201z" />
<glyph unicode="5" horiz-adv-x="823" d="M403 -23q-156 0 -239.5 84t-83.5 226v121h203v-103q0 -61 31.5 -100t89 -39t90 43t32.5 125v280q0 154 -120 154q-70 0 -121 -82l-189 12l29 762h571v-190h-393q0 -113 -14 -404q84 72 196.5 72t184 -70.5t71.5 -216.5v-323q0 -164 -94 -257.5t-244 -93.5z" />
<glyph unicode="6" horiz-adv-x="839" d="M419.5 -20q-153.5 0 -244.5 89t-91 234v852q0 158 97.5 244t250.5 86q145 0 229 -80t84 -209v-119h-204v103q0 51 -29 84.5t-84 33.5q-61 0 -91 -37.5t-30 -93.5v-356q78 90 203 90q117 0 183.5 -65.5t66.5 -182.5v-362q0 -141 -93.5 -226t-247 -85zM426 164q61 0 90 37 t29 90v342q0 55 -30 82.5t-79 27.5q-55 0 -92 -39.5t-37 -95.5v-317q0 -51 31 -89t88 -38z" />
<glyph unicode="7" horiz-adv-x="763" d="M190 0q2 360 86 700t205 568h-418v192h648v-166q-145 -260 -222 -600t-77 -694h-222z" />
<glyph unicode="8" horiz-adv-x="827" d="M411.5 -20q-151.5 0 -244.5 77.5t-93 221.5v243q0 158 129 226q-55 29 -85 86t-30 122v228q0 141 93 221t234.5 80t233.5 -76t92 -215v-227q0 -152 -118 -219q59 -27 95 -84.5t36 -131.5v-251q0 -143 -95.5 -222t-247 -79zM416 158q59 0 90 32.5t31 88.5v268q0 55 -35 89 t-86 34q-53 0 -88 -34t-35 -85v-275q0 -51 33 -84.5t90 -33.5zM416 829q55 0 87 36t32 87v240q0 51 -34 82t-85 31q-53 0 -86 -31t-33 -80v-244q0 -51 34 -86t85 -35z" />
<glyph unicode="9" horiz-adv-x="837" d="M416 -20q-147 0 -235.5 79.5t-88.5 214.5v115h207v-96q0 -57 29.5 -91t83.5 -34q57 0 87.5 38t30.5 95v365q-76 -100 -198 -101q-119 0 -185.5 67.5t-66.5 182.5v356q0 143 93 227.5t245 84.5q156 0 246 -88t90 -234v-831q0 -162 -93 -256t-245 -94zM403 723q51 0 89 39 t38 94v322q0 51 -30.5 89t-87.5 38q-59 0 -89 -39t-30 -90v-338q0 -55 31.5 -85t78.5 -30z" />
<glyph unicode=":" horiz-adv-x="372" d="M84 0v281h207v-281h-207zM86 799v278h205v-278h-205z" />
<glyph unicode=";" horiz-adv-x="374" d="M104 -238l58 252h-76v267h205v-254l-78 -265h-109zM86 799v278h205v-278h-205z" />
<glyph unicode="&#x3c;" horiz-adv-x="858" d="M686 309l-586 287v117l588 286l68 -137l-441 -207q82 -43 441 -211z" />
<glyph unicode="=" horiz-adv-x="858" d="M88 410v153h680v-153h-680zM88 721v156h680v-156h-680z" />
<glyph unicode="&#x3e;" horiz-adv-x="858" d="M170 309l-68 137l441 209q-14 8 -219 104.5l-222 104.5l68 135l588 -284v-119z" />
<glyph unicode="?" horiz-adv-x="749" d="M254 414v59q6 180 102 332l59.5 95.5t37 91t20.5 130.5q0 74 -26.5 124t-84.5 50q-51 0 -79.5 -39.5t-28.5 -109.5v-103h-184v99q0 158 81.5 249t225.5 91q147 0 228 -96.5t81 -266.5q0 -78 -22.5 -152.5t-47 -116.5t-65.5 -103q-82 -131 -96 -199q-6 -29 -6 -57v-78 h-195zM252 0v281h207v-281h-207z" />
<glyph unicode="@" horiz-adv-x="1433" d="M762 -156q-244 0 -404 109q-287 184 -284 631q0 379 197.5 608t510.5 229q246 0 414 -159.5t168 -464.5q0 -250 -124 -422t-296 -201h-170l17 119h-7q-86 -139 -221 -139q-90 0 -140 51t-50 141q0 29 4 70l69 450q18 113 93 177.5t176 64.5q55 0 103 -24.5t67 -75.5h4 l14 88h182l-118 -815q121 27 201.5 176t80.5 336q0 272 -134 404t-343 132q-276 0 -431 -209t-155 -534q0 -406 258 -561q129 -82 320 -82q174 0 373 59l20 -84q-168 -74 -395 -74zM659 317q57 0 100.5 50.5t53.5 121.5l45 312q2 10 2 33q0 57 -27.5 88.5t-74.5 31.5 q-111 0 -131 -141l-52 -360q-4 -20 -4 -47q0 -89 88 -89z" />
<glyph unicode="A" horiz-adv-x="993" d="M49 0l297 1464h311l287 -1464h-229l-74 381h-309l-70 -381h-213zM369 567h235l-112 637h-7z" />
<glyph unicode="B" horiz-adv-x="921" d="M104 0v1460h408q156 0 237.5 -93t81.5 -275q0 -141 -52 -229.5t-142 -110.5v-9q205 -49 205 -335q0 -205 -85 -306.5t-233 -101.5h-420zM332 188h137q141 0 141 234q0 227 -157 227h-121v-461zM332 836h117q158 0 157 227q0 213 -137 213h-137v-440z" />
<glyph unicode="C" horiz-adv-x="911" d="M475 -20q-176 0 -282.5 92t-106.5 262v794q0 164 108.5 259.5t280.5 95.5q160 0 260.5 -88t100.5 -238v-162h-207v138q0 70 -41 111.5t-113 41.5q-80 0 -119 -45t-39 -121v-772q0 -80 42 -124t118 -44q72 0 112 42t40 110v137h207v-150q0 -156 -100.5 -247.5 t-260.5 -91.5z" />
<glyph unicode="D" horiz-adv-x="942" d="M104 0v1460h383q164 0 266.5 -84t102.5 -246v-780q0 -172 -103.5 -261t-267.5 -89h-381zM332 197h133q82 0 121 48t39 115v748q0 70 -40 114t-120 44h-133v-1069z" />
<glyph unicode="E" horiz-adv-x="815" d="M104 0v1460h639v-192h-411v-414h330v-195h-330v-462h413v-197h-641z" />
<glyph unicode="F" horiz-adv-x="796" d="M104 0v1460h639v-192h-411v-420h327v-197h-327v-651h-228z" />
<glyph unicode="G" horiz-adv-x="931" d="M477 -20q-176 0 -283.5 93t-107.5 263v790q0 164 108.5 261.5t280.5 97.5q162 0 266.5 -88t104.5 -236v-155h-209v135q0 68 -44 108.5t-116 40.5q-80 0 -120 -47t-40 -125v-772q0 -80 42 -124t118 -44q152 0 152 152v264h-172v176h391v-455q0 -156 -99.5 -245.5 t-271.5 -89.5z" />
<glyph unicode="H" horiz-adv-x="972" d="M104 0v1460h230v-612h307v612h227v-1460h-227v639h-307v-639h-230z" />
<glyph unicode="I" horiz-adv-x="436" d="M104 0v1460h230v-1460h-230z" />
<glyph unicode="J" horiz-adv-x="884" d="M426 -23q-174 0 -266 90.5t-92 260.5v211h217v-211q0 -152 139 -152q135 0 135 154v1130h229v-1116q0 -170 -95 -268.5t-267 -98.5z" />
<glyph unicode="K" horiz-adv-x="929" d="M104 0v1460h230v-682l321 682h228l-273 -563l277 -897h-246l-199 698l-108 -204v-494h-230z" />
<glyph unicode="L" d="M104 0v1460h228v-1263h413v-197h-641z" />
<glyph unicode="M" horiz-adv-x="1157" d="M104 0v1460h285l191 -606h6l194 606h273v-1460h-203v1092h-4l-189 -613h-157l-189 613h-4v-1092h-203z" />
<glyph unicode="N" horiz-adv-x="993" d="M104 0v1460h238l342 -905h4v905h203v-1460h-209l-371 997h-4v-997h-203z" />
<glyph unicode="O" horiz-adv-x="952" d="M475 -20q-180 0 -284.5 94t-104.5 278v758q0 178 108.5 275.5t282.5 97.5q172 0 280.5 -91.5t108.5 -269.5v-764q0 -182 -109.5 -280t-281.5 -98zM477 182q78 0 118 46t40 120v778q0 74 -43 116t-117 42q-76 0 -116 -45t-40 -117v-774q0 -74 41 -120t117 -46z" />
<glyph unicode="P" horiz-adv-x="907" d="M104 0v1460h383q346 0 347 -434q0 -221 -89.5 -343t-269.5 -122h-141v-561h-230zM334 750h110q164 0 164 272q0 246 -155 246h-119v-518z" />
<glyph unicode="Q" horiz-adv-x="952" d="M778 -170l-217 160q-41 -10 -86 -10q-180 0 -284.5 94t-104.5 278v758q0 178 109.5 275.5t283.5 97.5q172 0 280.5 -91.5t108.5 -269.5v-764q0 -162 -96 -252l148 -98zM479 182q76 0 117 46t41 120v778q0 72 -43 115t-119 43t-116 -45t-40 -117v-774q0 -72 41 -119 t119 -47z" />
<glyph unicode="R" horiz-adv-x="929" d="M104 0v1460h371q180 0 275.5 -106.5t95.5 -311.5q0 -305 -184 -383l200 -659h-237l-170 608h-121v-608h-230zM334 780h127q156 0 155.5 244t-159.5 244h-123v-488z" />
<glyph unicode="S" horiz-adv-x="847" d="M430 -20q-166 0 -261 103t-106 290l213 6q20 -213 156 -213q70 0 101.5 49t31.5 121q0 115 -133 248l-153 166q-193 188 -193 383q0 152 91 252t259 100q143 0 234.5 -89t101.5 -290l-203 -6q-23 201 -143 200q-61 0 -95 -40.5t-34 -110.5q0 -39 26.5 -86t47 -71.5 t73.5 -82.5l142 -147q201 -205 200 -414q0 -162 -95 -265t-261 -103z" />
<glyph unicode="T" horiz-adv-x="864" d="M319 0v1266h-278v194h782v-194h-274v-1266h-230z" />
<glyph unicode="U" horiz-adv-x="950" d="M469 -23q-174 0 -273.5 91.5t-99.5 271.5v1120h232v-1108q0 -86 43 -129t112 -43q76 0 115 46t37 124v1110h219v-1110q0 -174 -106.5 -273.5t-278.5 -99.5z" />
<glyph unicode="V" horiz-adv-x="854" d="M309 -8l-282 1468h227l180 -1040h6l181 1040h206l-278 -1468h-240z" />
<glyph unicode="W" horiz-adv-x="1273" d="M264 -8l-225 1468h225l127 -968h4l146 968h223l141 -966h4l123 966h205l-221 -1468h-213l-158 1024h-6l-158 -1024h-217z" />
<glyph unicode="X" horiz-adv-x="864" d="M27 0l280 737l-266 723h240l163 -467l164 467h215l-266 -706l283 -754h-238l-180 496l-176 -496h-219z" />
<glyph unicode="Y" horiz-adv-x="860" d="M317 0v598l-294 864h241l180 -590l174 590h220l-293 -866v-596h-228z" />
<glyph unicode="Z" horiz-adv-x="788" d="M63 0v154l416 1112h-407v194h661v-166l-411 -1097h403v-197h-662z" />
<glyph unicode="[" horiz-adv-x="460" d="M111 -344v1804h309v-123h-131v-1560h131v-121h-309z" />
<glyph unicode="\" horiz-adv-x="512" d="M373 -346l-344 1812h145l348 -1812h-149z" />
<glyph unicode="]" horiz-adv-x="460" d="M41 -344v121h131v1560h-131v123h311v-1804h-311z" />
<glyph unicode="^" horiz-adv-x="776" d="M133 387l178 733h154l162 -733h-154l-88 451q-98 -449 -98 -451h-154z" />
<glyph unicode="_" d="M0 -262v149h795v-149h-795z" />
<glyph unicode="`" horiz-adv-x="479" d="M254 1196l-201 299h219l140 -299h-158z" />
<glyph unicode="a" d="M297 -20q-102 0 -166.5 82.5t-64.5 244.5q0 164 100 257t252 95h71v181q0 98 -104 98q-51 0 -77.5 -26.5t-26.5 -69.5v-99h-193v101q0 119 86 191.5t227 72.5q137 0 218 -73.5t81 -198.5v-580q0 -92 11 -256h-195q0 4 -2 20.5t-4 43t-4 49.5h-6q-29 -68 -87.5 -100.5 t-115.5 -32.5zM375 147q47 0 80.5 43t33.5 101v235h-67q-61 0 -102 -48t-41 -146q0 -185 96 -185z" />
<glyph unicode="b" horiz-adv-x="833" d="M489 -18q-59 0 -110 30.5t-78 81.5h-2l-4 -94h-193v1460h213v-467h4q70 117 201 117q117 0 174.5 -70.5t57.5 -173.5v-624q0 -117 -73 -188.5t-190 -71.5zM440 152q98 0 99 114v553q0 113 -103 113q-49 0 -85 -46t-36 -118v-465q0 -63 37 -107t88 -44z" />
<glyph unicode="c" horiz-adv-x="774" d="M401 -20q-145 0 -232 80.5t-87 228.5v502q0 150 92 233.5t231.5 83.5t219.5 -75t80 -193v-105h-189v92q0 45 -26.5 75t-79.5 30q-57 0 -85 -35t-28 -90v-524q0 -131 111 -131q57 0 82.5 33.5t25.5 78.5v88h189v-100q0 -129 -81.5 -200.5t-222.5 -71.5z" />
<glyph unicode="d" horiz-adv-x="833" d="M317 -18q-119 0 -177 70.5t-58 178.5v625q0 109 68.5 180.5t179.5 71.5q123 0 188 -98h2v450h213v-1460h-194l-7 113h-6q-35 -66 -92.5 -98.5t-116.5 -32.5zM397 158q51 0 88 48t37 118v462q0 63 -38 108.5t-87 45.5q-100 0 -100 -123v-543q0 -116 100 -116z" />
<glyph unicode="e" horiz-adv-x="780" d="M415.5 -23q-153.5 0 -243.5 81t-90 239v481q0 154 91 242t235 88q141 0 220 -83t79 -224v-330h-410v-149q0 -166 160 -166q88 0 196 43l41 -156q-125 -66 -278.5 -66zM297 627h217v184q0 53 -26.5 89t-82 36t-82 -37t-26.5 -90v-182z" />
<glyph unicode="f" horiz-adv-x="565" d="M166 0v911h-103v166h103v174q0 104 65.5 166t174.5 62q80 0 126 -15v-159q-37 6 -79 6q-33 0 -53.5 -22.5t-20.5 -63.5v-148h127v-166h-127v-911h-213z" />
<glyph unicode="g" horiz-adv-x="833" d="M375 -348q-154 0 -273 53l56 166q113 -43 204 -43q158 0 158 156v180h-4q-31 -63 -87 -97t-114 -34q-115 0 -174 69.5t-59 178.5v561q0 119 70.5 191.5t181.5 72.5q57 0 112.5 -28.5t81.5 -82.5h2l2 95h199v-1092q0 -170 -93 -258t-263 -88zM397 203q49 0 85 44t36 109 v430q0 66 -38 109t-87 43q-45 0 -71.5 -32t-26.5 -91v-496q0 -51 25.5 -83.5t76.5 -32.5z" />
<glyph unicode="h" horiz-adv-x="843" d="M102 0v1460h213v-481h2q76 129 222 129q90 0 150.5 -58.5t60.5 -154.5v-895h-213v811q0 117 -99 117q-51 0 -87 -50.5t-36 -115.5v-762h-213z" />
<glyph unicode="i" horiz-adv-x="417" d="M102 0v1085h213v-1085h-213zM102 1239v252h213v-252h-213z" />
<glyph unicode="j" horiz-adv-x="421" d="M94 -346q-55 0 -98 8v168q6 -2 43 -2q72 0 72 90v1167h213v-1196q0 -111 -62 -173t-168 -62zM111 1239v252h213v-252h-213z" />
<glyph unicode="k" d="M102 0v1460h213v-842l232 467h215l-197 -372l197 -713h-225l-136 530l-86 -153v-377h-213z" />
<glyph unicode="l" horiz-adv-x="464" d="M299 -14q-201 0 -201 192v1282h213v-1218q0 -59 62 -60q12 0 53 4v-178q-53 -22 -127 -22z" />
<glyph unicode="m" horiz-adv-x="1280" d="M102 0v1085h207v-108h4q72 131 226 131q72 0 124 -35t72 -98h4q84 133 236 133q90 0 150.5 -58.5t60.5 -154.5v-895h-213v811q0 117 -101 117q-51 0 -85.5 -45t-36.5 -109v-774h-213v813q0 115 -99 115q-53 0 -88 -49.5t-35 -114.5v-764h-213z" />
<glyph unicode="n" horiz-adv-x="843" d="M102 0v1085h207v-106h4q76 129 226 129q90 0 150.5 -58.5t60.5 -154.5v-895h-213v811q0 117 -99 117q-53 0 -88 -49.5t-35 -114.5v-764h-213z" />
<glyph unicode="o" horiz-adv-x="819" d="M410 -20q-150 0 -239 79.5t-89 233.5v500q0 147 94 231t234 84q141 0 234 -80t93 -227v-504q0 -156 -92 -236.5t-235 -80.5zM412 154q111 0 110 129v522q0 55 -29.5 91t-85 36t-83 -37t-27.5 -92v-520q0 -57 29 -93t86 -36z" />
<glyph unicode="p" horiz-adv-x="833" d="M102 -330v1415h207v-106h4q33 59 92.5 93t118.5 34q115 0 171.5 -69.5t56.5 -180.5v-623q0 -111 -67 -182t-183 -71q-125 0 -183 100h-4v-410h-213zM438 154q100 0 101 114v551q0 51 -26 82t-75 31q-53 0 -88 -43t-35 -117v-475q0 -66 35 -104.5t88 -38.5z" />
<glyph unicode="q" horiz-adv-x="833" d="M520 -330v422h-4q-78 -115 -199 -115q-115 0 -175 70t-60 178v625q0 113 71.5 184.5t188.5 71.5q137 0 195 -113h2l2 94h192v-1417h-213zM399.5 156q49.5 0 85 45t35.5 110v475q0 66 -37 111t-88 45q-45 0 -72.5 -34t-27.5 -91v-541q0 -53 27.5 -86.5t77 -33.5z" />
<glyph unicode="r" horiz-adv-x="604" d="M102 0v1085h211v-122h2q59 133 187 133q41 0 65 -9v-200q-47 6 -88 6q-70 0 -116 -37t-48 -111v-745h-213z" />
<glyph unicode="s" horiz-adv-x="712" d="M362 -20q-127 0 -210.5 75.5t-94.5 225.5l199 4q12 -139 111 -140q90 0 90 103q0 82 -127 194l-88 90q-158 143 -158 297q0 113 72.5 195t218.5 82q123 0 198.5 -71.5t83.5 -223.5l-184 -6q-14 141 -102 141q-92 0 -92 -94q0 -57 100 -158l108 -110q170 -164 170 -320 q0 -119 -75 -201.5t-220 -82.5z" />
<glyph unicode="t" horiz-adv-x="577" d="M369 -14q-92 0 -151.5 47t-59.5 145v729h-103v170h103v246h213v-246h159v-170h-159v-665q0 -70 63 -70q47 0 88 10v-170q-71 -26 -153 -26z" />
<glyph unicode="u" horiz-adv-x="841" d="M303 -23q-90 0 -149.5 58.5t-59.5 157.5v892h213v-813q0 -115 99 -114q53 0 87.5 49t34.5 117v761h213v-1085h-206v113h-3q-77 -136 -229 -136z" />
<glyph unicode="v" horiz-adv-x="741" d="M262 -4l-239 1089h225l131 -747h6l137 747h197l-238 -1089h-219z" />
<glyph unicode="w" horiz-adv-x="1114" d="M242 -2l-203 1087h221l96 -671h6l113 671h201l108 -671h9l98 671h196l-204 -1087h-187l-127 719h-6l-129 -719h-192z" />
<glyph unicode="x" horiz-adv-x="739" d="M18 2l236 551l-221 532h223l129 -337l127 337h193l-218 -522l234 -561h-223l-142 360l-143 -360h-195z" />
<glyph unicode="y" horiz-adv-x="743" d="M197 -350q-74 0 -129 14l20 170q66 -12 86 -12q70 0 88 76l27 116l-264 1071h221l147 -712h4l129 712h195l-260 -1161q-35 -141 -98.5 -207.5t-165.5 -66.5z" />
<glyph unicode="z" horiz-adv-x="675" d="M57 0v150l326 759h-317v176h557l-2 -159l-318 -748h320v-178h-566z" />
<glyph unicode="{" horiz-adv-x="475" d="M287 -344q-160 0 -160 168v608q0 57 -15.5 83t-56.5 30v129q43 8 57.5 29.5t14.5 66.5v514q0 176 162 176h147v-123h-94q-37 0 -37 -47v-493q0 -74 -18.5 -116t-71.5 -63v-10q55 -23 72.5 -60.5t17.5 -117.5v-606q0 -47 37 -47h94v-121h-149z" />
<glyph unicode="|" horiz-adv-x="507" d="M184 -215v1683h142v-1683h-142z" />
<glyph unicode="}" horiz-adv-x="475" d="M37 -344v121h94q37 0 37 47v606q0 80 17.5 118t72.5 60v10q-51 20 -70.5 62.5t-19.5 116.5v495q0 47 -37 47h-94v123h149q74 0 117 -44t43 -132v-516q0 -45 13.5 -66.5t56.5 -29.5v-129q-41 -4 -55.5 -30t-14.5 -83v-608q0 -168 -160 -168h-149z" />
<glyph unicode="~" horiz-adv-x="831" d="M182 520l-104 19q31 219 170 219q43 0 170 -28t166 -28q29 0 43 18.5t28 59.5l99 -20q-25 -219 -164 -219q-43 0 -174 29.5t-164 29.5q-31 0 -45.5 -18.5t-24.5 -61.5z" />
<glyph unicode="&#xa1;" horiz-adv-x="413" d="M279 737l34 -508v-542h-211v542l33 508h144zM313 1149v-281h-207v281h207z" />
<glyph unicode="&#xa2;" horiz-adv-x="772" d="M309 -115v156q-111 20 -173 96t-62 201v479q0 123 64.5 200t170.5 101v158h178v-158q100 -20 156.5 -91t56.5 -167v-115h-190v107q0 45 -27.5 77t-83.5 32q-113 0 -112 -130v-497q0 -135 112 -135q59 0 85 33.5t26 80.5v111h190v-123q0 -104 -55 -171t-158 -87v-158h-178 z" />
<glyph unicode="&#xa3;" horiz-adv-x="903" d="M74 0v184h102v471h-88v154h88v348q0 160 97.5 243t244.5 83q137 0 219 -76t82 -209v-131h-190v127q0 111 -115 111q-51 0 -83 -31t-32 -96v-369h263v-154h-263v-471h441l-33 -184h-733z" />
<glyph unicode="&#xa4;" horiz-adv-x="755" d="M156 406l-72 71l78 76q-51 70 -51 158q0 78 43 147l-78 78l69 72l78 -78q68 51 154 51q82 0 147 -43l80 78l72 -72l-78 -76q51 -78 51 -157q0 -84 -47 -150l80 -78l-70 -69l-77 75q-72 -49 -156 -49q-76 0 -146 43zM379 532q78 0 122 50.5t44 128.5q0 76 -47 128t-119 52 q-80 0 -124 -51.5t-44 -130.5q0 -72 46 -124.5t122 -52.5z" />
<glyph unicode="&#xa5;" horiz-adv-x="843" d="M309 0v504h-227v147h205l-271 811h240l178 -585l174 585h221l-268 -811h205v-147h-229v-504h-228z" />
<glyph unicode="&#xa6;" horiz-adv-x="579" d="M193 -92v733h153v-733h-153zM193 786v682h153v-682h-153z" />
<glyph unicode="&#xa7;" horiz-adv-x="798" d="M393 -88q-129 0 -222 67.5t-93 223.5v71h176v-51q0 -76 39 -120t113 -44q68 0 99.5 45.5t31.5 106.5q0 111 -123 166q-74 33 -111 45q-221 90 -221 280q0 125 125 236q-121 88 -121 242q0 131 83 212t232 81q137 0 220.5 -73t83.5 -208v-72h-170v62q0 63 -34 103t-100 40 q-61 0 -96 -37t-35 -100q0 -109 113 -158l121 -53q219 -94 219 -270q0 -141 -121 -242q129 -86 127 -242q0 -139 -92 -225t-244 -86zM457 551q86 45 86 133q0 82 -101 125q-86 39 -98 43q-84 -53 -84 -141q0 -84 105 -123z" />
<glyph unicode="&#xa8;" horiz-adv-x="638" d="M88 1212v269h172v-269h-172zM379 1212v269h172v-269h-172z" />
<glyph unicode="&#xa9;" horiz-adv-x="1462" d="M735 150q-137 0 -220 73.5t-83 210.5v553q0 135 84 212t221 77q131 0 210 -70.5t79 -189.5v-168h-176v158q0 45 -26.5 75.5t-82.5 30.5q-115 0 -114 -131v-537q0 -129 112 -129q57 0 84 32t27 75v160h176v-166q0 -123 -80 -194.5t-211 -71.5zM731 -82q-315 0 -482 224.5 t-167 574.5q0 338 175 565t474 227q156 0 282 -63.5t205.5 -174t121.5 -251.5t42 -303q0 -342 -172 -570.5t-479 -228.5zM733 27q229 0 374.5 188t145.5 502q0 315 -144 502.5t-378 187.5q-236 0 -377 -187.5t-141 -502.5q0 -319 144.5 -504.5t375.5 -185.5z" />
<glyph unicode="&#xaa;" horiz-adv-x="552" d="M203 801q-63 0 -103.5 48t-40.5 144.5t63.5 150.5t158.5 54h38v100q0 53 -57 53.5t-57 -53.5v-55h-131v55q0 76 54 120t144 44t140.5 -44t50.5 -124v-336q0 -86 8 -143h-135l-6 62q-39 -76 -127 -76zM258 911q25 0 43 20.5t18 49.5v131h-36q-82 0 -82 -102q0 -99 57 -99z M90 612v123h373v-123h-373z" />
<glyph unicode="&#xab;" horiz-adv-x="776" d="M266 252l-225 309l223 313l115 -67l-119 -244l125 -246zM594 258l-223 303l221 307l115 -69l-117 -236l123 -239z" />
<glyph unicode="&#xac;" horiz-adv-x="927" d="M690 340v231h-622v148h778v-379h-156z" />
<glyph unicode="&#xad;" horiz-adv-x="479" d="M51 528v170h375v-170h-375z" />
<glyph unicode="&#xae;" horiz-adv-x="851" d="M428 635q-168 0 -266.5 127t-98.5 315.5t102.5 315.5t266.5 127t265.5 -127t101.5 -316q0 -186 -101.5 -314t-269.5 -128zM428 713q119 0 201 99t82 265q0 164 -82 265.5t-201 101.5q-117 0 -196.5 -100.5t-79.5 -266.5t80.5 -266t195.5 -98zM285 819v531h161 q70 0 109 -43t39 -117q0 -113 -78 -148l92 -223h-106l-80 207h-37v-207h-100zM385 1102h45q66 0 66 82q0 35 -17.5 58.5t-48.5 23.5h-45v-164z" />
<glyph unicode="&#xaf;" horiz-adv-x="667" d="M115 1225v157h440v-157h-440z" />
<glyph unicode="&#xb0;" horiz-adv-x="499" d="M250 1122q-80 0 -131 53.5t-51 127t52 127t130 53.5t130 -53.5t52 -127t-53 -127t-129 -53.5zM250 1208q37 0 62.5 28t25.5 66.5t-24.5 65.5t-63.5 27t-62.5 -26t-23.5 -66q0 -39 24.5 -67t61.5 -28z" />
<glyph unicode="&#xb1;" horiz-adv-x="866" d="M358 393v254h-270v154h270v262h152l-2 -262h268v-154h-266v-254h-152zM94 121v151h678v-151h-678z" />
<glyph unicode="&#xb2;" horiz-adv-x="544" d="M72 778v101l159 231q100 160 101 258v12q0 86 -61.5 86t-61.5 -82v-47h-150v56q0 96 57.5 151t157.5 55q104 0 159.5 -58t55.5 -163q0 -66 -24.5 -133t-50 -110t-74.5 -113l-72 -113h226v-131h-422z" />
<glyph unicode="&#xb3;" horiz-adv-x="557" d="M276 756q-111 0 -166 58t-55 155v45h150v-47q0 -37 18.5 -59.5t48.5 -22.5q66 0 66 121q0 63 -23.5 89.5t-56.5 26.5h-61v123h57q80 0 80 117q0 104 -66 104q-61 0 -61 -84v-36h-148v45q0 98 56.5 153t160.5 55q98 0 154.5 -58t56.5 -159q0 -156 -104 -192v-4 q57 -18 88 -70.5t31 -120.5q0 -123 -63 -181t-163 -58z" />
<glyph unicode="&#xb4;" horiz-adv-x="491" d="M88 1196l139 299h219l-200 -299h-158z" />
<glyph unicode="&#xb5;" horiz-adv-x="862" d="M88 -367v1450h215v-804q0 -119 107 -119q51 0 89 42t38 115v766h215v-761q0 -96 67 -115v-213q-172 20 -205 145q-55 -162 -196 -162q-59 0 -110.5 32t-67.5 89l-9 -2l66 -442z" />
<glyph unicode="&#xb6;" horiz-adv-x="890" d="M340 -133v612q-268 59 -268 473q0 227 92 368.5t274 141.5h391v-125h-92v-1470h-135v1470h-127v-1470h-135z" />
<glyph unicode="&#xb7;" horiz-adv-x="372" d="M84 578v278h207v-278h-207z" />
<glyph unicode="&#x22c5;" horiz-adv-x="372" d="M84 578v278h207v-278h-207z" />
<glyph unicode="&#xb8;" horiz-adv-x="550" d="M246 -387q-90 0 -162 20v107q84 -23 152 -23q74 0 73 47q0 41 -82 50l-69 4l49 209h92l-29 -131q190 0 191 -125q0 -72 -62.5 -115t-152.5 -43z" />
<glyph unicode="&#xb9;" horiz-adv-x="428" d="M152 778v668l-74 -21l-21 115l158 57h88v-819h-151z" />
<glyph unicode="&#xba;" horiz-adv-x="550" d="M274 803q-96 0 -152 47t-56 139v287q0 88 59 137t149.5 49t149.5 -47t59 -137v-289q0 -90 -58.5 -138t-150.5 -48zM274.5 915q63.5 0 63.5 68v297q0 68 -63.5 68t-63.5 -68v-297q0 -68 63.5 -68zM90 612v123h375v-123h-375z" />
<glyph unicode="&#xbb;" horiz-adv-x="776" d="M162 258l-117 70l117 237l-121 238l119 65l223 -303zM489 252l-116 70l119 243l-123 244l118 65l226 -309z" />
<glyph unicode="&#xbc;" horiz-adv-x="1257" d="M207 647v668l-74 -21l-20 115l157 57h88v-819h-151zM950 0v186h-264v117l225 514h162l-237 -504h114v125l150 113v-238h65v-127h-65v-186h-150zM236 -4l610 1470h112l-608 -1470h-114z" />
<glyph unicode="&#xbd;" horiz-adv-x="1257" d="M203 647v668l-74 -21l-20 115l157 57h88v-819h-151zM741 0v100l160 232q100 160 100 258v12q0 86 -61 86t-61 -82v-47h-150v55q0 96 57.5 151.5t157.5 55.5q104 0 159.5 -58t55.5 -163q0 -66 -24.5 -133.5t-50 -110.5t-74.5 -112l-72 -113h225v-131h-422zM219 -4 l610 1470h113l-608 -1470h-115z" />
<glyph unicode="&#xbe;" horiz-adv-x="1257" d="M973 0v186h-264v117l225 514h162l-238 -504h115v125l149 113v-238h66v-127h-66v-186h-149zM283 625q-111 0 -166.5 58t-55.5 155v45h150v-47q0 -37 18.5 -59.5t49.5 -22.5q66 0 65 120q0 63 -23.5 90t-56.5 27h-61v123h57q80 0 80 117q0 104 -66 104q-61 0 -61 -84v-37 h-147v46q0 98 56 153t161 55q98 0 154.5 -58t56.5 -159q0 -156 -105 -192v-4q57 -18 88 -70.5t31 -120.5q0 -123 -62.5 -181t-162.5 -58zM287 -4l610 1470h113l-609 -1470h-114z" />
<glyph unicode="&#xbf;" horiz-adv-x="751" d="M504 735v-59q-6 -180 -103 -332q-43 -68 -59 -95.5t-36.5 -91t-20.5 -130.5q0 -74 26.5 -124t83.5 -50q51 0 80 39.5t29 109.5v102h184v-98q0 -158 -82 -249t-225 -91q-147 0 -228 96.5t-81 266.5q0 78 22.5 152.5t47 116.5t65.5 103q82 131 96 199q6 29 6 57v78h195z M506 1149v-281h-207v281h207z" />
<glyph unicode="&#xc0;" horiz-adv-x="993" d="M49 0l297 1464h311l287 -1464h-229l-74 381h-309l-70 -381h-213zM369 567h235l-112 637h-7zM424 1565l-201 299h219l140 -299h-158z" />
<glyph unicode="&#xc1;" horiz-adv-x="993" d="M49 0l297 1464h311l287 -1464h-229l-74 381h-309l-70 -381h-213zM369 567h235l-112 637h-7zM420 1565l139 299h219l-200 -299h-158z" />
<glyph unicode="&#xc2;" horiz-adv-x="993" d="M49 0l297 1464h311l287 -1464h-229l-74 381h-309l-70 -381h-213zM369 567h235l-112 637h-7zM252 1567l172 303h158l170 -303h-170l-84 166l-82 -166h-164z" />
<glyph unicode="&#xc3;" horiz-adv-x="993" d="M49 0l297 1464h311l287 -1464h-229l-74 381h-309l-70 -381h-213zM369 567h235l-112 637h-7zM311 1575l-112 24q12 92 58 151.5t116 59.5q41 0 120.5 -29.5t118.5 -29.5q47 0 72 76l107 -27q-12 -88 -58.5 -148.5t-118.5 -60.5q-41 0 -121.5 30t-111.5 30 q-29 0 -44.5 -16.5t-25.5 -59.5z" />
<glyph unicode="&#xc4;" horiz-adv-x="993" d="M49 0l297 1464h311l287 -1464h-229l-74 381h-309l-70 -381h-213zM369 567h235l-112 637h-7zM264 1581v268h172v-268h-172zM555 1581v268h172v-268h-172z" />
<glyph unicode="&#xc5;" horiz-adv-x="993" d="M49 0l297 1464h311l287 -1464h-229l-74 381h-309l-70 -381h-213zM369 567h235l-112 637h-7zM504 1534q-80 0 -130 50t-50 126q0 80 51 133t131 53q82 0 131 -49t49 -129q0 -78 -52 -131t-130 -53zM506 1620q39 0 63.5 26.5t24.5 67.5q0 43 -23.5 69.5t-66.5 26.5 q-39 0 -61.5 -26.5t-22.5 -69.5t24.5 -68.5t61.5 -25.5z" />
<glyph unicode="&#xc6;" horiz-adv-x="1345" d="M35 0l467 1462h772v-194h-412v-416h328v-195h-328v-460h414v-197h-641v408h-258l-115 -408h-227zM438 584h197v647h-8z" />
<glyph unicode="&#xc7;" horiz-adv-x="911" d="M473 -387q-90 0 -162 20v107q84 -23 152 -23q74 0 74 47q0 41 -82 50l-70 4l39 164q-158 14 -248 104t-90 248v794q0 164 108.5 259.5t280.5 95.5q160 0 260.5 -88t100.5 -238v-162h-207v138q0 70 -41 111.5t-113 41.5q-80 0 -119 -45t-39 -121v-772q0 -80 42 -124 t118 -44q72 0 112 42t40 110v137h207v-150q0 -143 -88.5 -234t-231.5 -103l-18 -86q190 0 190 -125q0 -72 -62.5 -115t-152.5 -43z" />
<glyph unicode="&#xc8;" horiz-adv-x="815" d="M104 0v1460h639v-192h-411v-414h330v-195h-330v-462h413v-197h-641zM381 1565l-201 299h219l140 -299h-158z" />
<glyph unicode="&#xc9;" horiz-adv-x="815" d="M336 1565l139 299h219l-200 -299h-158zM104 0v1460h639v-192h-411v-414h330v-195h-330v-462h413v-197h-641z" />
<glyph unicode="&#xca;" horiz-adv-x="815" d="M160 1567l172 303h157l170 -303h-170l-83 166l-82 -166h-164zM104 0v1460h639v-192h-411v-414h330v-195h-330v-462h413v-197h-641z" />
<glyph unicode="&#xcb;" horiz-adv-x="815" d="M207 1581v268h172v-268h-172zM498 1581v268h172v-268h-172zM104 0v1460h639v-192h-411v-414h330v-195h-330v-462h413v-197h-641z" />
<glyph unicode="&#xcc;" horiz-adv-x="436" d="M104 0v1460h230v-1460h-230zM139 1565l-200 299h219l139 -299h-158z" />
<glyph unicode="&#xcd;" horiz-adv-x="436" d="M104 0v1460h230v-1460h-230zM135 1565l139 299h220l-201 -299h-158z" />
<glyph unicode="&#xce;" horiz-adv-x="436" d="M104 0v1460h230v-1460h-230zM-31 1567l172 303h158l170 -303h-170l-84 166l-82 -166h-164z" />
<glyph unicode="&#xcf;" horiz-adv-x="436" d="M104 0v1460h230v-1460h-230zM-12 1581v268h172v-268h-172zM279 1581v268h172v-268h-172z" />
<glyph unicode="&#xd0;" horiz-adv-x="968" d="M45 688v148h86v624h383q164 0 266.5 -84t102.5 -246v-780q0 -172 -103.5 -261t-267.5 -89h-381v688h-86zM358 197h134q82 0 120.5 48t38.5 115v748q0 70 -40 114t-119 44h-134v-430h207v-148h-207v-491z" />
<glyph unicode="&#xd1;" horiz-adv-x="993" d="M104 0v1460h238l342 -905h4v905h203v-1460h-209l-371 997h-4v-997h-203zM330 1575l-113 24q12 92 58.5 151.5t115.5 59.5q41 0 121 -29.5t119 -29.5q47 0 71 76l107 -27q-12 -88 -58 -148.5t-118 -60.5q-41 0 -122 30t-112 30q-29 0 -44 -16.5t-25 -59.5z" />
<glyph unicode="&#xd2;" horiz-adv-x="952" d="M475 -20q-180 0 -284.5 94t-104.5 278v758q0 178 108.5 275.5t282.5 97.5q172 0 280.5 -91.5t108.5 -269.5v-764q0 -182 -109.5 -280t-281.5 -98zM477 182q78 0 118 46t40 120v778q0 74 -43 116t-117 42q-76 0 -116 -45t-40 -117v-774q0 -74 41 -120t117 -46zM408 1565 l-201 299h219l139 -299h-157z" />
<glyph unicode="&#xd3;" horiz-adv-x="952" d="M399 1565l140 299h219l-201 -299h-158zM475 -20q-180 0 -284.5 94t-104.5 278v758q0 178 108.5 275.5t282.5 97.5q172 0 280.5 -91.5t108.5 -269.5v-764q0 -182 -109.5 -280t-281.5 -98zM477 182q78 0 118 46t40 120v778q0 74 -43 116t-117 42q-76 0 -116 -45t-40 -117 v-774q0 -74 41 -120t117 -46z" />
<glyph unicode="&#xd4;" horiz-adv-x="952" d="M223 1567l172 303h158l170 -303h-170l-84 166l-82 -166h-164zM475 -20q-180 0 -284.5 94t-104.5 278v758q0 178 108.5 275.5t282.5 97.5q172 0 280.5 -91.5t108.5 -269.5v-764q0 -182 -109.5 -280t-281.5 -98zM477 182q78 0 118 46t40 120v778q0 74 -43 116t-117 42 q-76 0 -116 -45t-40 -117v-774q0 -74 41 -120t117 -46z" />
<glyph unicode="&#xd5;" horiz-adv-x="952" d="M475 -20q-180 0 -284.5 94t-104.5 278v758q0 178 108.5 275.5t282.5 97.5q172 0 280.5 -91.5t108.5 -269.5v-764q0 -182 -109.5 -280t-281.5 -98zM477 182q78 0 118 46t40 120v778q0 74 -43 116t-117 42q-76 0 -116 -45t-40 -117v-774q0 -74 41 -120t117 -46zM287 1575 l-113 24q12 92 58.5 151.5t115.5 59.5q41 0 121 -29.5t119 -29.5q47 0 71 76l107 -27q-12 -88 -58 -148.5t-118 -60.5q-41 0 -122 30t-112 30q-29 0 -44 -16.5t-25 -59.5z" />
<glyph unicode="&#xd6;" horiz-adv-x="952" d="M242 1581v268h172v-268h-172zM532 1581v268h173v-268h-173zM475 -20q-180 0 -284.5 94t-104.5 278v758q0 178 108.5 275.5t282.5 97.5q172 0 280.5 -91.5t108.5 -269.5v-764q0 -182 -109.5 -280t-281.5 -98zM477 182q78 0 118 46t40 120v778q0 74 -43 116t-117 42 q-76 0 -116 -45t-40 -117v-774q0 -74 41 -120t117 -46z" />
<glyph unicode="&#xd7;" horiz-adv-x="866" d="M201 311l-105 109l232 235l-236 236l109 108l233 -235l234 235l106 -108l-233 -234l233 -235l-106 -109l-234 236z" />
<glyph unicode="&#xd8;" horiz-adv-x="952" d="M244 -96l-103 28l49 142q-104 98 -104 278v758q0 178 108.5 275.5t282.5 97.5q115 0 199 -39l41 112l100 -26l-51 -146q100 -96 100 -262v-764q0 -182 -109.5 -280t-281.5 -98q-106 0 -192 34zM319 1122v-688l281 797q-43 53 -125 53q-76 0 -116 -45t-40 -117zM477 182 q78 0 118 46t40 120v666l-277 -785q41 -47 119 -47z" />
<glyph unicode="&#xd9;" horiz-adv-x="950" d="M469 -23q-174 0 -273.5 91.5t-99.5 271.5v1120h232v-1108q0 -86 43 -129t112 -43q76 0 115 46t37 124v1110h219v-1110q0 -174 -106.5 -273.5t-278.5 -99.5zM422 1565l-201 299h219l140 -299h-158z" />
<glyph unicode="&#xda;" horiz-adv-x="950" d="M406 1565l139 299h219l-201 -299h-157zM469 -23q-174 0 -273.5 91.5t-99.5 271.5v1120h232v-1108q0 -86 43 -129t112 -43q76 0 115 46t37 124v1110h219v-1110q0 -174 -106.5 -273.5t-278.5 -99.5z" />
<glyph unicode="&#xdb;" horiz-adv-x="950" d="M231 1567l172 303h158l170 -303h-170l-84 166l-82 -166h-164zM469 -23q-174 0 -273.5 91.5t-99.5 271.5v1120h232v-1108q0 -86 43 -129t112 -43q76 0 115 46t37 124v1110h219v-1110q0 -174 -106.5 -273.5t-278.5 -99.5z" />
<glyph unicode="&#xdc;" horiz-adv-x="950" d="M250 1581v268h172v-268h-172zM541 1581v268h172v-268h-172zM469 -23q-174 0 -273.5 91.5t-99.5 271.5v1120h232v-1108q0 -86 43 -129t112 -43q76 0 115 46t37 124v1110h219v-1110q0 -174 -106.5 -273.5t-278.5 -99.5z" />
<glyph unicode="&#xdd;" horiz-adv-x="860" d="M317 0v598l-294 864h241l180 -590l174 590h220l-293 -866v-596h-228zM367 1565l139 299h219l-201 -299h-157z" />
<glyph unicode="&#xde;" horiz-adv-x="892" d="M94 0v1460h230v-276h159q346 0 346 -424q0 -215 -89 -335t-269 -120h-147v-305h-230zM324 487h114q166 0 166 267q0 244 -155 243h-125v-510z" />
<glyph unicode="&#xdf;" horiz-adv-x="925" d="M600 -12q-106 0 -172 26l27 168q59 -18 98 -18q109 0 109 174q0 109 -54.5 192.5t-136.5 120.5v166h21q53 53 88.5 141.5t35.5 161.5q0 78 -32.5 130.5t-91.5 52.5q-61 0 -93 -49.5t-32 -125.5v-1128h-213v911h-101v166h101v47q0 160 90 256.5t264 96.5q156 0 241 -92.5 t85 -233.5q0 -111 -42 -216.5t-122 -170.5v-4q96 -78 150 -191.5t54 -232.5q0 -150 -70.5 -249t-203.5 -99z" />
<glyph unicode="&#xe0;" d="M297 -20q-102 0 -166.5 82.5t-64.5 244.5q0 164 100 257t252 95h71v181q0 98 -104 98q-51 0 -77.5 -26.5t-26.5 -69.5v-99h-193v101q0 119 86 191.5t227 72.5q137 0 218 -73.5t81 -198.5v-580q0 -92 11 -256h-195q0 4 -2 20.5t-4 43t-4 49.5h-6q-29 -68 -87.5 -100.5 t-115.5 -32.5zM375 147q47 0 80.5 43t33.5 101v235h-67q-61 0 -102 -48t-41 -146q0 -185 96 -185zM334 1196l-201 299h219l140 -299h-158z" />
<glyph unicode="&#xe1;" d="M297 -20q-102 0 -166.5 82.5t-64.5 244.5q0 164 100 257t252 95h71v181q0 98 -104 98q-51 0 -77.5 -26.5t-26.5 -69.5v-99h-193v101q0 119 86 191.5t227 72.5q137 0 218 -73.5t81 -198.5v-580q0 -92 11 -256h-195q0 4 -2 20.5t-4 43t-4 49.5h-6q-29 -68 -87.5 -100.5 t-115.5 -32.5zM375 147q47 0 80.5 43t33.5 101v235h-67q-61 0 -102 -48t-41 -146q0 -185 96 -185zM299 1196l139 299h219l-200 -299h-158z" />
<glyph unicode="&#xe2;" d="M297 -20q-102 0 -166.5 82.5t-64.5 244.5q0 164 100 257t252 95h71v181q0 98 -104 98q-51 0 -77.5 -26.5t-26.5 -69.5v-99h-193v101q0 119 86 191.5t227 72.5q137 0 218 -73.5t81 -198.5v-580q0 -92 11 -256h-195q0 4 -2 20.5t-4 43t-4 49.5h-6q-29 -68 -87.5 -100.5 t-115.5 -32.5zM375 147q47 0 80.5 43t33.5 101v235h-67q-61 0 -102 -48t-41 -146q0 -185 96 -185zM143 1198l172 303h158l170 -303h-170l-84 166l-82 -166h-164z" />
<glyph unicode="&#xe3;" d="M297 -20q-102 0 -166.5 82.5t-64.5 244.5q0 164 100 257t252 95h71v181q0 98 -104 98q-51 0 -77.5 -26.5t-26.5 -69.5v-99h-193v101q0 119 86 191.5t227 72.5q137 0 218 -73.5t81 -198.5v-580q0 -92 11 -256h-195q0 4 -2 20.5t-4 43t-4 49.5h-6q-29 -68 -87.5 -100.5 t-115.5 -32.5zM375 147q47 0 80.5 43t33.5 101v235h-67q-61 0 -102 -48t-41 -146q0 -185 96 -185zM213 1206l-113 25q12 92 58.5 151.5t115.5 59.5q41 0 121 -30t119 -30q47 0 72 76l106 -26q-12 -88 -58 -148.5t-118 -60.5q-41 0 -122 29.5t-111 29.5q-29 0 -44.5 -16.5 t-25.5 -59.5z" />
<glyph unicode="&#xe4;" d="M297 -20q-102 0 -166.5 82.5t-64.5 244.5q0 164 100 257t252 95h71v181q0 98 -104 98q-51 0 -77.5 -26.5t-26.5 -69.5v-99h-193v101q0 119 86 191.5t227 72.5q137 0 218 -73.5t81 -198.5v-580q0 -92 11 -256h-195q0 4 -2 20.5t-4 43t-4 49.5h-6q-29 -68 -87.5 -100.5 t-115.5 -32.5zM375 147q47 0 80.5 43t33.5 101v235h-67q-61 0 -102 -48t-41 -146q0 -185 96 -185zM164 1212v269h172v-269h-172zM455 1212v269h172v-269h-172z" />
<glyph unicode="&#xe5;" d="M297 -20q-102 0 -166.5 82.5t-64.5 244.5q0 164 100 257t252 95h71v181q0 98 -104 98q-51 0 -77.5 -26.5t-26.5 -69.5v-99h-193v101q0 119 86 191.5t227 72.5q137 0 218 -73.5t81 -198.5v-580q0 -92 11 -256h-195q0 4 -2 20.5t-4 43t-4 49.5h-6q-29 -68 -87.5 -100.5 t-115.5 -32.5zM375 147q47 0 80.5 43t33.5 101v235h-67q-61 0 -102 -48t-41 -146q0 -185 96 -185zM395 1182q-80 0 -130 50t-50 126q0 80 51 133t131 53q82 0 131.5 -49t49.5 -129q0 -78 -52.5 -131t-130.5 -53zM397 1268q39 0 63.5 26.5t24.5 67.5q0 43 -23.5 69.5 t-66.5 26.5q-39 0 -61.5 -26.5t-22.5 -69.5t24.5 -68.5t61.5 -25.5z" />
<glyph unicode="&#xe6;" horiz-adv-x="1187" d="M299 -23q-102 0 -167.5 84t-65.5 246q0 164 100 257t252 95h71v181q0 98 -104 98q-51 0 -77.5 -26.5t-26.5 -69.5v-99h-193v101q0 119 86 191.5t227 72.5q137 0 205 -76q80 76 209 76q139 0 218 -82t79 -223v-332h-407v-149q0 -166 157 -166q98 0 197 43l43 -156 q-117 -66 -277 -66q-203 0 -282 138q-78 -138 -244 -138zM379 147q47 0 78.5 37t31.5 97v245h-67q-61 0 -102 -48t-41 -146q0 -185 100 -185zM705 627h217v184q0 53 -27 89t-82 36t-81.5 -37t-26.5 -88v-184z" />
<glyph unicode="&#xe7;" horiz-adv-x="774" d="M405.5 -387q-90.5 0 -161.5 20v107q84 -23 151 -23q74 0 74 47q0 41 -82 50l-70 4l39 164q-127 12 -200.5 91t-73.5 216v502q0 150 92 233.5t231.5 83.5t219.5 -75t80 -193v-105h-189v92q0 45 -26.5 75t-79.5 30q-57 0 -85 -35t-28 -90v-524q0 -131 111 -131 q57 0 82.5 33.5t25.5 78.5v88h189v-100q0 -117 -69 -187.5t-187 -82.5l-19 -86q190 0 191 -125q0 -72 -62.5 -115t-153 -43z" />
<glyph unicode="&#xe8;" horiz-adv-x="780" d="M415.5 -23q-153.5 0 -243.5 81t-90 239v481q0 154 91 242t235 88q141 0 220 -83t79 -224v-330h-410v-149q0 -166 160 -166q88 0 196 43l41 -156q-125 -66 -278.5 -66zM297 627h217v184q0 53 -26.5 89t-82 36t-82 -37t-26.5 -90v-182zM354 1196l-200 299h219l139 -299 h-158z" />
<glyph unicode="&#xe9;" horiz-adv-x="780" d="M319 1196l140 299h219l-201 -299h-158zM415.5 -23q-153.5 0 -243.5 81t-90 239v481q0 154 91 242t235 88q141 0 220 -83t79 -224v-330h-410v-149q0 -166 160 -166q88 0 196 43l41 -156q-125 -66 -278.5 -66zM297 627h217v184q0 53 -26.5 89t-82 36t-82 -37t-26.5 -90 v-182z" />
<glyph unicode="&#xea;" horiz-adv-x="780" d="M170 1198l172 303h158l170 -303h-170l-84 166l-82 -166h-164zM415.5 -23q-153.5 0 -243.5 81t-90 239v481q0 154 91 242t235 88q141 0 220 -83t79 -224v-330h-410v-149q0 -166 160 -166q88 0 196 43l41 -156q-125 -66 -278.5 -66zM297 627h217v184q0 53 -26.5 89t-82 36 t-82 -37t-26.5 -90v-182z" />
<glyph unicode="&#xeb;" horiz-adv-x="780" d="M178 1212v269h172v-269h-172zM469 1212v269h172v-269h-172zM415.5 -23q-153.5 0 -243.5 81t-90 239v481q0 154 91 242t235 88q141 0 220 -83t79 -224v-330h-410v-149q0 -166 160 -166q88 0 196 43l41 -156q-125 -66 -278.5 -66zM297 627h217v184q0 53 -26.5 89t-82 36 t-82 -37t-26.5 -90v-182z" />
<glyph unicode="&#xec;" horiz-adv-x="417" d="M102 0v1085h213v-1085h-213zM131 1196l-201 299h220l139 -299h-158z" />
<glyph unicode="&#xed;" horiz-adv-x="417" d="M127 1196l139 299h219l-200 -299h-158zM102 0v1085h213v-1085h-213z" />
<glyph unicode="&#xee;" horiz-adv-x="417" d="M-37 1198l172 303h158l170 -303h-170l-84 166l-82 -166h-164zM102 0v1085h213v-1085h-213z" />
<glyph unicode="&#xef;" horiz-adv-x="417" d="M-18 1212v269h172v-269h-172zM272 1212v269h172v-269h-172zM102 0v1085h213v-1085h-213z" />
<glyph unicode="&#xf0;" horiz-adv-x="808" d="M137 1176l-55 120l154 33l-70 117l215 47l68 -119l147 31l55 -117l-135 -31l176 -307q43 -72 43 -166v-489q0 -156 -90 -235.5t-237.5 -79.5t-236.5 78.5t-89 232.5v485q0 133 71.5 215t192.5 92q27 0 39 -6l-80 135zM410 154q113 0 112 127v507q0 55 -27.5 90t-83 35 t-85 -35.5t-29.5 -91.5v-512q0 -53 28 -86.5t85 -33.5z" />
<glyph unicode="&#xf1;" horiz-adv-x="843" d="M102 0v1085h207v-106h4q76 129 226 129q90 0 150.5 -58.5t60.5 -154.5v-895h-213v811q0 117 -99 117q-53 0 -88 -49.5t-35 -114.5v-764h-213zM268 1206l-112 25q12 92 58 151.5t116 59.5q41 0 120.5 -30t118.5 -30q47 0 72 76l107 -26q-12 -88 -58.5 -148.5t-118.5 -60.5 q-41 0 -121.5 29.5t-111.5 29.5q-29 0 -44.5 -16.5t-25.5 -59.5z" />
<glyph unicode="&#xf2;" horiz-adv-x="819" d="M410 -20q-150 0 -239 79.5t-89 233.5v500q0 147 94 231t234 84q141 0 234 -80t93 -227v-504q0 -156 -92 -236.5t-235 -80.5zM412 154q111 0 110 129v522q0 55 -29.5 91t-85 36t-83 -37t-27.5 -92v-520q0 -57 29 -93t86 -36zM338 1196l-201 299h219l140 -299h-158z" />
<glyph unicode="&#xf3;" horiz-adv-x="819" d="M322 1196l139 299h219l-201 -299h-157zM410 -20q-150 0 -239 79.5t-89 233.5v500q0 147 94 231t234 84q141 0 234 -80t93 -227v-504q0 -156 -92 -236.5t-235 -80.5zM412 154q111 0 110 129v522q0 55 -29.5 91t-85 36t-83 -37t-27.5 -92v-520q0 -57 29 -93t86 -36z" />
<glyph unicode="&#xf4;" horiz-adv-x="819" d="M168 1198l172 303h158l170 -303h-170l-84 166l-82 -166h-164zM410 -20q-150 0 -239 79.5t-89 233.5v500q0 147 94 231t234 84q141 0 234 -80t93 -227v-504q0 -156 -92 -236.5t-235 -80.5zM412 154q111 0 110 129v522q0 55 -29.5 91t-85 36t-83 -37t-27.5 -92v-520 q0 -57 29 -93t86 -36z" />
<glyph unicode="&#xf5;" horiz-adv-x="819" d="M410 -20q-150 0 -239 79.5t-89 233.5v500q0 147 94 231t234 84q141 0 234 -80t93 -227v-504q0 -156 -92 -236.5t-235 -80.5zM412 154q111 0 110 129v522q0 55 -29.5 91t-85 36t-83 -37t-27.5 -92v-520q0 -57 29 -93t86 -36zM229 1206l-112 25q12 92 58 151.5t116 59.5 q41 0 121 -30t118 -30q47 0 72 76l107 -26q-12 -88 -58.5 -148.5t-118.5 -60.5q-41 0 -121.5 29.5t-111.5 29.5q-29 0 -44.5 -16.5t-25.5 -59.5z" />
<glyph unicode="&#xf6;" horiz-adv-x="819" d="M180 1212v269h172v-269h-172zM471 1212v269h172v-269h-172zM410 -20q-150 0 -239 79.5t-89 233.5v500q0 147 94 231t234 84q141 0 234 -80t93 -227v-504q0 -156 -92 -236.5t-235 -80.5zM412 154q111 0 110 129v522q0 55 -29.5 91t-85 36t-83 -37t-27.5 -92v-520 q0 -57 29 -93t86 -36z" />
<glyph unicode="&#xf7;" horiz-adv-x="866" d="M346 240v227h176v-227h-176zM100 578v153h666v-153h-666zM346 831v226h176v-226h-176z" />
<glyph unicode="&#xf8;" horiz-adv-x="819" d="M231 -100l-88 28l43 119q-104 82 -104 246v500q0 147 94 231t234 84q84 0 149 -27l37 103l88 -29l-45 -123q98 -84 98 -231v-504q0 -156 -92 -236.5t-235 -80.5q-78 0 -142 22zM297 803v-449l195 543q-31 35 -84 35q-55 0 -83 -37t-28 -92zM412 154q111 0 110 129v424 l-190 -525q29 -28 80 -28z" />
<glyph unicode="&#xf9;" horiz-adv-x="841" d="M303 -23q-90 0 -149.5 58.5t-59.5 157.5v892h213v-813q0 -115 99 -114q53 0 87.5 49t34.5 117v761h213v-1085h-206v113h-3q-77 -136 -229 -136zM344 1196l-201 299h219l140 -299h-158z" />
<glyph unicode="&#xfa;" horiz-adv-x="841" d="M338 1196l139 299h219l-200 -299h-158zM303 -23q-90 0 -149.5 58.5t-59.5 157.5v892h213v-813q0 -115 99 -114q53 0 87.5 49t34.5 117v761h213v-1085h-206v113h-3q-77 -136 -229 -136z" />
<glyph unicode="&#xfb;" horiz-adv-x="841" d="M178 1198l172 303h158l170 -303h-170l-84 166l-82 -166h-164zM303 -23q-90 0 -149.5 58.5t-59.5 157.5v892h213v-813q0 -115 99 -114q53 0 87.5 49t34.5 117v761h213v-1085h-206v113h-3q-77 -136 -229 -136z" />
<glyph unicode="&#xfc;" horiz-adv-x="841" d="M188 1212v269h172v-269h-172zM479 1212v269h172v-269h-172zM303 -23q-90 0 -149.5 58.5t-59.5 157.5v892h213v-813q0 -115 99 -114q53 0 87.5 49t34.5 117v761h213v-1085h-206v113h-3q-77 -136 -229 -136z" />
<glyph unicode="&#xfd;" horiz-adv-x="743" d="M197 -350q-74 0 -129 14l20 170q66 -12 86 -12q70 0 88 76l27 116l-264 1071h221l147 -712h4l129 712h195l-260 -1161q-35 -141 -98.5 -207.5t-165.5 -66.5zM311 1196l140 299h219l-201 -299h-158z" />
<glyph unicode="&#xfe;" horiz-adv-x="815" d="M92 -330v1790h213v-481h2q33 61 93.5 94t117.5 33q115 0 169 -69.5t54 -180.5v-625q0 -111 -67.5 -181t-181.5 -70q-125 0 -183 100h-4v-410h-213zM422 152q47 0 76.5 29.5t29.5 86.5v551q0 51 -27.5 84t-76.5 33q-51 0 -85 -41t-34 -113v-495q0 -61 34 -98t83 -37z" />
<glyph unicode="&#xff;" horiz-adv-x="743" d="M197 -350q-74 0 -129 14l20 170q66 -12 86 -12q70 0 88 76l27 116l-264 1071h221l147 -712h4l129 712h195l-260 -1161q-35 -141 -98.5 -207.5t-165.5 -66.5zM156 1212v269h172v-269h-172zM446 1212v269h172v-269h-172z" />
<glyph unicode="&#x152;" horiz-adv-x="1351" d="M442 -16q-356 0 -356 372v752q0 180 97.5 276.5t265.5 96.5q125 0 190 -72v51h639v-192h-412v-414h330v-197h-330v-460h416v-197h-643v63q-70 -79 -197 -79zM479 184q76 0 117 47.5t41 120.5v772q0 72 -43 114t-119 42t-116 -44t-40 -118v-766q0 -74 41 -121t119 -47z " />
<glyph unicode="&#x153;" horiz-adv-x="1222" d="M410 -23q-147 0 -237.5 81t-90.5 235v500q0 147 94 231t233.5 84t223.5 -78q88 78 217 78q141 0 219 -83t78 -224v-330h-408v-149q0 -166 158 -166q90 0 197 43l43 -156q-127 -66 -276.5 -66t-229.5 78q-88 -78 -221 -78zM412 154q111 0 110 129v522q0 55 -29.5 91 t-85 36t-83 -37t-27.5 -92v-520q0 -57 29 -93t86 -36zM739 627h217v184q0 125 -108 125q-55 0 -82 -36t-27 -89v-184z" />
<glyph unicode="&#x178;" horiz-adv-x="860" d="M317 0v598l-294 864h241l180 -590l174 590h220l-293 -866v-596h-228zM207 1581v268h172v-268h-172zM498 1581v268h172v-268h-172z" />
<glyph unicode="&#x2c6;" horiz-adv-x="614" d="M59 1198l172 303h158l170 -303h-170l-84 166l-82 -166h-164z" />
<glyph unicode="&#x2dc;" horiz-adv-x="704" d="M176 1206l-113 25q12 92 58.5 151.5t116.5 59.5q41 0 120.5 -30t118.5 -30q47 0 72 76l106 -26q-12 -88 -58 -148.5t-118 -60.5q-41 0 -122 29.5t-111 29.5q-29 0 -44.5 -16.5t-25.5 -59.5z" />
<glyph unicode="&#x2000;" horiz-adv-x="948" />
<glyph unicode="&#x2001;" horiz-adv-x="1896" />
<glyph unicode="&#x2002;" horiz-adv-x="948" />
<glyph unicode="&#x2003;" horiz-adv-x="1896" />
<glyph unicode="&#x2004;" horiz-adv-x="630" />
<glyph unicode="&#x2005;" horiz-adv-x="473" />
<glyph unicode="&#x2006;" horiz-adv-x="315" />
<glyph unicode="&#x2007;" horiz-adv-x="315" />
<glyph unicode="&#x2008;" horiz-adv-x="235" />
<glyph unicode="&#x2009;" horiz-adv-x="378" />
<glyph unicode="&#x200a;" horiz-adv-x="104" />
<glyph unicode="&#x2010;" horiz-adv-x="479" d="M51 528v170h375v-170h-375z" />
<glyph unicode="&#x2011;" horiz-adv-x="479" d="M51 528v170h375v-170h-375z" />
<glyph unicode="&#x2012;" horiz-adv-x="479" d="M51 528v170h375v-170h-375z" />
<glyph unicode="&#x2013;" horiz-adv-x="747" d="M0 549v145h748v-145h-748z" />
<glyph unicode="&#x2014;" horiz-adv-x="1277" d="M0 549v145h1278v-145h-1278z" />
<glyph unicode="&#x2018;" horiz-adv-x="370" d="M82 958v254l80 252h104l-49 -239h70v-267h-205z" />
<glyph unicode="&#x2019;" horiz-adv-x="370" d="M104 958l50 236h-70v268h205v-254l-80 -250h-105z" />
<glyph unicode="&#x201a;" horiz-adv-x="370" d="M111 -188l36 202l-63 37l14 230l191 -37l-8 -258l-80 -213z" />
<glyph unicode="&#x201c;" horiz-adv-x="686" d="M82 958v254l80 252h104l-49 -239h70v-267h-205zM399 958v254l80 252h103l-47 -239h69v-267h-205z" />
<glyph unicode="&#x201d;" horiz-adv-x="686" d="M104 958l50 236h-70v268h205v-254l-80 -250h-105zM420 958l49 236h-70v268h205v-254l-80 -250h-104z" />
<glyph unicode="&#x201e;" horiz-adv-x="686" d="M104 -227l50 241h-70v267h205v-254l-80 -254h-105zM420 -227l49 241h-70v267h205v-254l-80 -254h-104z" />
<glyph unicode="&#x2022;" horiz-adv-x="757" d="M381 457q-111 0 -189.5 78.5t-78.5 189.5t78.5 187.5t189.5 76.5q109 0 185.5 -76.5t76.5 -187.5t-76.5 -189.5t-185.5 -78.5z" />
<glyph unicode="&#x2026;" horiz-adv-x="1075" d="M84 0v281h205v-281h-205zM436 0v281h205v-281h-205zM786 0v281h205v-281h-205z" />
<glyph unicode="&#x202f;" horiz-adv-x="378" />
<glyph unicode="&#x2039;" horiz-adv-x="450" d="M274 252l-225 309l221 313l117 -67l-119 -244l123 -246z" />
<glyph unicode="&#x203a;" horiz-adv-x="452" d="M170 252l-117 70l119 243l-123 244l119 65l225 -309z" />
<glyph unicode="&#x205f;" horiz-adv-x="473" />
<glyph unicode="&#x20ac;" horiz-adv-x="960" d="M541 -23q-172 0 -275.5 91.5t-103.5 253.5v206h-103v136h103v143h-103v131h103v197q0 156 106.5 253t274.5 97q160 0 258 -87t98 -237v-135h-207v123q0 70 -40 108.5t-113.5 38.5t-109.5 -44t-36 -115v-199h277v-131h-277v-143h277v-136h-277v-194q0 -78 40 -122t114 -44 q72 0 108.5 42t36.5 112v108h207v-117q0 -156 -99 -246t-259 -90z" />
<glyph unicode="&#x2122;" horiz-adv-x="1017" d="M477 827v639h154l78 -272l77 272h148v-639h-111v433l-73 -248h-86l-76 248v-433h-111zM176 827v533h-125v106h371v-106h-125v-533h-121z" />
<glyph unicode="&#xe000;" horiz-adv-x="1085" d="M0 1085h1085v-1085h-1085v1085z" />
<glyph unicode="&#xe38c;" horiz-adv-x="931" d="M627 0v1085h213v-1085h-213zM627 1239v252h213v-252h-213zM162 0v911h-103v166h103v174q0 104 65.5 166t173.5 62q80 0 127 -15v-159q-37 6 -79 6q-33 0 -53.5 -22.5t-20.5 -63.5v-148h127v-166h-127v-911h-213z" />
<glyph unicode="&#xfb01;" horiz-adv-x="931" d="M627 0v1085h213v-1085h-213zM627 1239v252h213v-252h-213zM162 0v911h-103v166h103v174q0 104 65.5 166t173.5 62q80 0 127 -15v-159q-37 6 -79 6q-33 0 -53.5 -22.5t-20.5 -63.5v-148h127v-166h-127v-911h-213z" />
<glyph unicode="&#xe38d;" horiz-adv-x="995" d="M825 -14q-201 0 -200 192v1282h213v-1218q0 -59 61 -60q12 0 53 4v-178q-53 -22 -127 -22zM162 0v911h-103v166h103v174q0 104 65.5 166t173.5 62q80 0 127 -15v-159q-37 6 -79 6q-33 0 -53.5 -22.5t-20.5 -63.5v-148h127v-166h-127v-911h-213z" />
<glyph unicode="&#xfb02;" horiz-adv-x="995" d="M825 -14q-201 0 -200 192v1282h213v-1218q0 -59 61 -60q12 0 53 4v-178q-53 -22 -127 -22zM162 0v911h-103v166h103v174q0 104 65.5 166t173.5 62q80 0 127 -15v-159q-37 6 -79 6q-33 0 -53.5 -22.5t-20.5 -63.5v-148h127v-166h-127v-911h-213z" />
<glyph unicode="&#xfb03;" horiz-adv-x="1548" d="M1232 0v1085h213v-1085h-213zM1232 1239v252h213v-252h-213zM731 0v911h-103v166h103v174q0 104 65.5 166t174.5 62q80 0 126 -15v-159q-37 6 -79 6q-33 0 -53.5 -22.5t-20.5 -63.5v-148h127v-166h-127v-911h-213zM166 0v911h-103v166h103v174q0 104 65.5 166t174.5 62 q80 0 126 -15v-159q-37 6 -79 6q-33 0 -53.5 -22.5t-20.5 -63.5v-148h127v-166h-127v-911h-213z" />
<glyph unicode="&#xfb04;" horiz-adv-x="1595" d="M1429 -14q-201 0 -201 192v1282h213v-1218q0 -59 62 -60q12 0 53 4v-178q-53 -22 -127 -22zM731 0v911h-103v166h103v174q0 104 65.5 166t174.5 62q80 0 126 -15v-159q-37 6 -79 6q-33 0 -53.5 -22.5t-20.5 -63.5v-148h127v-166h-127v-911h-213zM166 0v911h-103v166h103 v174q0 104 65.5 166t174.5 62q80 0 126 -15v-159q-37 6 -79 6q-33 0 -53.5 -22.5t-20.5 -63.5v-148h127v-166h-127v-911h-213z" />
<glyph horiz-adv-x="305" />
</font>
</defs>
</svg>
