<?xml version="1.0" standalone="no"?>
<!DOCTYPE svg PUBLIC "-//W3C//DTD SVG 1.1//EN" "http://www.w3.org/Graphics/SVG/1.1/DTD/svg11.dtd" >
<svg xmlns="http://www.w3.org/2000/svg">
<metadata>
This is a custom SVG webfont generated by Font Squirrel.
Copyright   : Copyright c Feliciano Type Foundry 2004 All rights reserved
Foundry     : Feliciano Type Foundry
</metadata>
<defs>
<font id="webfontNZn8jMu9" horiz-adv-x="1024" >
<font-face units-per-em="2048" ascent="1638" descent="-410" />
<missing-glyph horiz-adv-x="512" />
<glyph unicode=" "  horiz-adv-x="512" />
<glyph unicode="&#x09;" horiz-adv-x="512" />
<glyph unicode="&#xa0;" horiz-adv-x="512" />
<glyph unicode="!" horiz-adv-x="598" d="M375 430h-152l-61 578v452h272v-452zM164 0v305h268v-305h-268z" />
<glyph unicode="&#x22;" horiz-adv-x="886" d="M702 928h-151l-39 305v240h229v-240zM336 928h-152l-39 305v240h230v-240z" />
<glyph unicode="#" horiz-adv-x="1206" d="M1108 811h-197l-63 -367h201l-21 -139h-203l-55 -330h-135l53 330h-278l-56 -330h-135l55 330h-200l24 139h199l63 367h-206l24 137h201l51 303h137l-49 -303h279l51 303h135l-51 -303h196zM496 811l-62 -367h277l63 367h-278z" />
<glyph unicode="$" horiz-adv-x="1144" d="M1067 455q0 -78 -28.5 -142.5t-81 -113.5t-123 -81t-156.5 -42v-168h-174v166q-147 14 -264 90t-162 223l221 88q37 -92 113.5 -141t179.5 -49q47 0 89 9t74.5 27.5t51 47t18.5 69.5q0 51 -26.5 82t-73.5 49q-51 23 -114 37l-115 27q-63 16 -125 38.5t-110 61.5 t-77.5 98.5t-29.5 151.5q0 78 26.5 141.5t73.5 110.5t110.5 76.5t139.5 42.5v137h174v-135q131 -16 231.5 -82t139.5 -191l-213 -84q-37 80 -100.5 115t-151.5 35q-74 0 -131.5 -39t-57.5 -117q0 -59 49.5 -87.5t122.5 -49.5q82 -23 164 -39t158 -55q78 -41 128 -111.5 t50 -195.5z" />
<glyph unicode="%" horiz-adv-x="1650" d="M1542 231q0 -66 -25.5 -113.5t-68.5 -78.5t-96.5 -46.5t-108.5 -15.5q-57 0 -109.5 14.5t-93.5 45.5t-65.5 79t-24.5 115v287q0 70 24.5 119t65.5 80t93.5 45t109.5 14t111.5 -14t95.5 -45t66.5 -81t25.5 -120v-285zM510 -25h-168l803 1504h166zM700 938 q0 -66 -25.5 -113t-67.5 -77.5t-95 -46t-109 -15.5q-57 0 -109 14.5t-93 45t-65.5 78.5t-24.5 116v285q0 70 24.5 119t65.5 80.5t93 46t109 14.5t110.5 -14.5t94.5 -46t66.5 -82t25.5 -119.5v-285zM1362 528q0 45 -27.5 77t-89.5 32q-61 0 -89 -31t-28 -78v-299 q0 -49 26 -78.5t89 -29.5t91 31.5t28 78.5v297zM522 1237q0 45 -27.5 77t-88.5 32t-89 -31t-28 -78v-299q0 -49 25.5 -79t88.5 -30t91 32t28 77v299z" />
<glyph unicode="&#x26;" horiz-adv-x="1595" d="M1212 0l-139 150q-92 -84 -213 -132.5t-272 -48.5q-109 0 -200 31t-156.5 85t-102.5 131t-37 169q0 135 95.5 250t271.5 180l-60 67q-31 36 -55.5 74.5t-39.5 79.5t-15 82q0 70 27.5 136.5t86 117.5t150.5 83t219 32q98 0 177 -26.5t132.5 -73t82 -106.5t28.5 -128 q0 -76 -31 -137.5t-80 -107.5t-110.5 -79.5t-122.5 -54.5l264 -287q25 51 42 95.5t38 115.5l203 -22q-23 -104 -53.5 -187t-77.5 -163l301 -326h-353zM965 1149q0 39 -16.5 67.5t-42 48t-59.5 30t-67 10.5q-102 0 -150 -48.5t-48 -119.5q0 -43 32.5 -90.5t65.5 -85.5l28 -32 l27 -32q94 29 162 90.5t68 161.5zM575 690q-53 -20 -91 -53t-62.5 -72t-35.5 -80t-11 -79q0 -106 73.5 -173t196.5 -67q96 0 167 32.5t130 94.5z" />
<glyph unicode="'" horiz-adv-x="520" d="M336 928h-152l-39 305v240h230v-240z" />
<glyph unicode="(" horiz-adv-x="778" d="M539 -391q-74 86 -128.5 213t-90 265t-53 274.5t-17.5 240.5q0 106 14.5 234.5t48 258.5t89 256t135.5 230h141q-59 -131 -100 -246.5t-66 -230.5t-35 -237t-10 -265q0 -256 51 -506t160 -487h-139z" />
<glyph unicode=")" horiz-adv-x="778" d="M528 602q0 -104 -17 -240.5t-53 -274.5t-90.5 -265t-127.5 -213h-140q109 238 160 487.5t51 505.5q0 143 -10 265t-34.5 237t-65.5 230.5t-101 246.5h142q80 -104 134 -230t88 -256t49 -258.5t15 -234.5z" />
<glyph unicode="*" horiz-adv-x="894" d="M578 1130l163 -229l-125 -80l-167 242l-170 -242l-121 80l157 229l-241 136l73 118l228 -122v243h145v-243l228 122l73 -118z" />
<glyph unicode="+" horiz-adv-x="1226" d="M690 575v-407h-151v407h-408v148h408v410h151v-410h406v-148h-406z" />
<glyph unicode="," horiz-adv-x="532" d="M293 -240h-133l61 244h-88v299h268v-289z" />
<glyph unicode="-" horiz-adv-x="743" d="M76 469v193h592v-193h-592z" />
<glyph unicode="." horiz-adv-x="532" d="M133 0v305h268v-305h-268z" />
<glyph unicode="/" horiz-adv-x="714" d="M193 -74h-173l502 1563h168z" />
<glyph unicode="0" horiz-adv-x="1220" d="M1118 418q0 -111 -43 -194t-113.5 -138t-161.5 -83t-188 -28q-96 0 -187 25t-163 77t-116 135t-44 200v624q0 113 43 198t114 140.5t164 83t191 27.5t189.5 -26.5t161 -82t111.5 -140.5t42 -202v-616zM846 1044q0 94 -58.5 160t-173.5 66t-176 -67.5t-61 -166.5v-614 q0 -94 59.5 -163t175.5 -69q57 0 101.5 19.5t73 51.5t44 74t15.5 89v620z" />
<glyph unicode="1" horiz-adv-x="1126" d="M131 0v193h318v1034l-297 -31l-9 188l500 84l64 2v-1277h297v-193h-873z" />
<glyph unicode="2" horiz-adv-x="1171" d="M150 0v172l487 573q66 76 99.5 152t33.5 164v37q0 76 -49 127t-154 51q-98 0 -151.5 -52.5t-53.5 -140.5v-39h-247v54q0 96 34.5 167.5t98 120t150.5 73t190 24.5q111 0 194.5 -31t139 -86t84 -131t28.5 -164q0 -102 -31.5 -187t-83 -162t-114.5 -147l-127 -141 l-189 -211v-4h566v-219h-905z" />
<glyph unicode="3" horiz-adv-x="1187" d="M1096 412q0 -111 -43 -194t-114 -136t-162 -80t-189 -27q-119 0 -207 28t-146.5 77t-87 115.5t-28.5 144.5v53h254v-39q0 -90 65.5 -130t161.5 -40t156.5 62.5t60.5 173.5q0 72 -27.5 118t-66.5 71.5t-81 34.5t-69 9h-104v187h104q100 0 159 53t59 170q0 55 -19.5 95 t-48.5 64.5t-65.5 36t-69.5 11.5q-106 0 -156.5 -52.5t-50.5 -140.5v-14h-248v49q0 80 31 147.5t90 117.5t145 79t195 29q119 0 205 -33t141 -87t82 -124t27 -141q0 -121 -58.5 -212t-154.5 -124v-8q49 -14 96 -44t84 -73t58.5 -100t21.5 -127z" />
<glyph unicode="4" horiz-adv-x="1212" d="M954 369v-369h-254v369h-620v200l551 891h323v-882h174v-209h-174zM700 1212h-10l-391 -634h401v634z" />
<glyph unicode="5" horiz-adv-x="1171" d="M1073 446q0 -117 -39 -205.5t-105.5 -147t-156.5 -88.5t-192 -30q-113 0 -199 27t-145.5 74t-90 108.5t-30.5 132.5v76h252v-37q0 -82 64.5 -125t156.5 -43q45 0 84 15.5t68.5 48.5t46 86t16.5 129v82q0 49 -19.5 86t-50.5 61.5t-69.5 35.5t-79.5 11q-72 0 -125 -27.5 t-90 -66.5l-228 35l43 776h815v-217h-604l-22 -403q70 47 147.5 68.5t163.5 21.5q63 0 132 -16.5t126 -56.5t94 -104.5t37 -158.5v-148z" />
<glyph unicode="6" horiz-adv-x="1196" d="M1092 379q0 -98 -39 -174t-106.5 -127t-158 -77t-194.5 -26q-102 0 -191.5 31t-155 87.5t-102 136t-36.5 178.5v636q0 102 39.5 184.5t107.5 138.5t159 87t195 31q215 0 339 -97.5t124 -269.5v-51h-254v29q0 88 -58.5 133t-154.5 45q-113 0 -168 -63.5t-55 -157.5v-283 q59 61 147 99t187 38q82 0 151.5 -22.5t118.5 -64.5t77 -102.5t28 -135.5v-203zM829 555q0 51 -19 85t-51 54.5t-70 28.5t-75 8q-39 0 -79.5 -15.5t-74.5 -45t-55.5 -73.5t-21.5 -101v-93q0 -86 55.5 -151.5t167.5 -65.5q113 0 168 57.5t55 137.5v174z" />
<glyph unicode="7" horiz-adv-x="1150" d="M451 0h-275l615 1243h-689v217h963v-200z" />
<glyph unicode="8" horiz-adv-x="1183" d="M1085 367q0 -94 -38.5 -167t-105.5 -123t-158 -76t-195 -26q-109 0 -198 24t-154.5 71t-101.5 118.5t-36 169.5v91q0 100 53.5 178t135.5 116q-78 33 -124 107t-46 166v74q0 98 39 171.5t104.5 123t151.5 75t178 25.5q90 0 175 -21.5t151.5 -66.5t106.5 -115t40 -164 q2 -37 2 -65v-46q0 -22 -2 -24q0 -80 -51 -144.5t-123 -93.5q43 -14 79 -43.5t61.5 -67.5t40.5 -84t15 -95v-88zM811 1094q0 49 -19.5 84.5t-50 58.5t-70.5 34t-83 11q-41 0 -79 -11t-67.5 -34t-48 -56.5t-18.5 -78.5v-88q0 -49 18.5 -84t49 -57.5t69.5 -33t82 -10.5 q41 0 80 12.5t69.5 36t49 58.5t18.5 80v78zM815 463q0 53 -19.5 88t-51 56.5t-71.5 30.5t-81 9q-43 0 -84 -9t-71.5 -30.5t-50 -55.5t-19.5 -83v-94q0 -47 17 -83t48 -61.5t71 -39t85 -13.5q96 0 161.5 49t65.5 150v86z" />
<glyph unicode="9" horiz-adv-x="1187" d="M1081 412q0 -102 -41 -183.5t-110.5 -137.5t-161.5 -86t-195 -30q-213 0 -334.5 96.5t-121.5 268.5v53h254v-31q0 -86 58 -132t155 -46q113 0 168 64.5t55 159.5v280q-49 -76 -142.5 -111.5t-191.5 -35.5q-84 0 -152.5 24.5t-117.5 68.5t-77 106.5t-28 138.5v202 q0 98 39 174t106.5 127.5t158 77t194.5 25.5q102 0 191.5 -31t155 -86t102 -135t36.5 -178v-643zM807 1057q0 43 -14.5 83t-42 70.5t-69.5 49t-97 18.5q-113 0 -168.5 -57.5t-55.5 -137.5v-176q0 -51 19.5 -86t49.5 -57.5t68 -32.5t74 -10q39 0 81 15.5t76 46t56.5 74.5 t22.5 101v99z" />
<glyph unicode=":" horiz-adv-x="532" d="M133 713v305h268v-305h-268zM133 0v305h268v-305h-268z" />
<glyph unicode=";" horiz-adv-x="532" d="M133 713v305h268v-305h-268zM293 -240h-133l61 244h-88v299h268v-289z" />
<glyph unicode="&#x3c;" horiz-adv-x="1226" d="M995 215l-831 379v121l829 377l68 -136l-680 -301l682 -305z" />
<glyph unicode="=" horiz-adv-x="1226" d="M131 760v147h965v-147h-965zM131 383v147h965v-147h-965z" />
<glyph unicode="&#x3e;" horiz-adv-x="1226" d="M231 215l-67 135l682 305l-680 301l67 136l830 -377v-121z" />
<glyph unicode="?" horiz-adv-x="1099" d="M1010 1085q0 -63 -15.5 -113t-40 -91t-57.5 -74t-68 -62q-16 -14 -51 -41.5t-51 -41.5q-41 -33 -64.5 -70t-23.5 -86v-94h-229v96q0 82 28.5 136t81.5 108l22 20l27 27q14 14 28.5 26.5t23.5 18.5l44 41q22 20 40 45q23 29 38 63.5t15 77.5q0 86 -54.5 144.5t-144.5 58.5 q-37 0 -75 -9.5t-70.5 -30t-53 -53t-20.5 -81.5v-84l-6 -2h-225v90q0 98 39.5 168.5t104 117t148.5 69t174 22.5q205 0 320 -106t115 -290zM387 0v305h268v-305h-268z" />
<glyph unicode="@" horiz-adv-x="1933" d="M1767 836q0 -119 -37.5 -229.5t-103 -196.5t-158 -138.5t-198.5 -52.5q-78 0 -127 45t-68 109q-61 -78 -129.5 -113t-136.5 -35q-61 0 -104 29t-69 72t-38 95t-12 99q0 96 32.5 190.5t91 168t140.5 118.5t180 45h303l-112 -555q0 -55 26.5 -82.5t69.5 -27.5q74 0 129 50 t90 123t52.5 153.5t17.5 144.5q0 117 -46.5 206t-122 149.5t-175 91t-205.5 30.5q-166 0 -300 -60.5t-227.5 -163t-144.5 -240.5t-51 -294q0 -147 48 -260.5t134 -189.5t204 -115t257 -39q184 0 333.5 44t291.5 102l47 -146q-59 -29 -136 -56.5t-165 -49t-185.5 -34.5 t-199.5 -13q-170 0 -315.5 50t-253 146t-168 237.5t-60.5 323.5q0 193 66.5 360t187.5 287.5t286.5 190.5t366.5 70q147 0 273.5 -43t220.5 -124t147 -199.5t53 -272.5zM1008 887q-53 0 -98.5 -32t-77 -80t-49 -105.5t-17.5 -106.5q0 -27 1 -56.5t10 -55t29.5 -42 t59.5 -16.5q49 0 85 29t60.5 69.5t40 83.5t21.5 74l53 238h-118z" />
<glyph unicode="A" horiz-adv-x="1376" d="M1069 0l-106 311h-557l-111 -311h-272l542 1460h250l539 -1460h-285zM686 1130h-4l-201 -585h404z" />
<glyph unicode="B" horiz-adv-x="1355" d="M1270 420q0 -102 -38 -181t-101.5 -132.5t-147.5 -80t-174 -26.5h-662v1460h627q213 0 332 -93t119 -284q0 -98 -47.5 -177t-159.5 -132l2 -2q127 -35 188.5 -132t61.5 -220zM958 1049q0 96 -62 138t-167 42h-309v-369h321q104 0 160.5 49.5t56.5 139.5zM999 436 q0 100 -60 147.5t-175 47.5h-344v-400h342q111 0 174 52.5t63 152.5z" />
<glyph unicode="C" horiz-adv-x="1351" d="M1251 457q0 -123 -46 -213t-122.5 -149.5t-175 -89.5t-202.5 -30q-119 0 -226.5 33t-189.5 97.5t-130 157.5t-48 216v467q0 129 46 229.5t125.5 169t185 104.5t226.5 36q104 0 204.5 -30t178.5 -89t126 -149.5t48 -212.5v-46h-258v21q0 72 -27.5 122t-71.5 81.5t-97.5 46 t-102.5 14.5q-53 0 -108.5 -14.5t-100.5 -48t-74.5 -88t-29.5 -131.5v-467q0 -66 26.5 -118t70.5 -87t102.5 -53.5t124.5 -18.5q49 0 101 14.5t93 46t67.5 82t26.5 121.5v21h258v-45z" />
<glyph unicode="D" horiz-adv-x="1402" d="M1292 539q0 -129 -49 -229.5t-129 -169t-183.5 -104.5t-211.5 -36h-572v1460h570q119 0 223 -38t183 -106.5t124 -166.5t45 -221v-389zM1022 944q0 66 -26.5 117t-70.5 87t-103.5 54.5t-123.5 18.5h-278v-981h289q51 0 107 14t101.5 48t75 88t29.5 132v422z" />
<glyph unicode="E" horiz-adv-x="1280" d="M147 0v1460h1014v-239h-741v-357h657v-239h-657v-385h749v-240h-1022z" />
<glyph unicode="F" horiz-adv-x="1193" d="M422 1221v-369h606v-238h-606v-614h-275v1460h981v-239h-706z" />
<glyph unicode="G" horiz-adv-x="1361" d="M1251 457q0 -123 -46 -213t-122.5 -149.5t-175 -89.5t-202.5 -30q-119 0 -226.5 33t-189.5 97.5t-130 157.5t-48 216v467q0 129 46 229.5t125.5 169t185 104.5t226.5 36q104 0 204.5 -26.5t178.5 -83t126 -143.5t48 -210v-45h-258v20q0 72 -27.5 119t-71.5 76t-97.5 40 t-102.5 11q-53 0 -108.5 -14.5t-100.5 -48t-74.5 -88t-29.5 -131.5v-467q0 -66 26.5 -118t70.5 -87t102.5 -53.5t124.5 -18.5q49 0 101 14.5t93 46t67.5 82t26.5 121.5v35h-377v246h635v-305z" />
<glyph unicode="H" horiz-adv-x="1423" d="M1004 0v625h-584v-625h-273v1460h273v-596h584v596h272v-1460h-272z" />
<glyph unicode="I" horiz-adv-x="1110" d="M111 0v240h309v981h-309v239h888v-239h-309v-981h309v-240h-888z" />
<glyph unicode="J" horiz-adv-x="1228" d="M1094 457q0 -90 -34 -176t-98.5 -154t-157.5 -109t-210 -41t-210 28t-158.5 86.5t-100.5 148.5t-35 213v94h272v-72q0 -43 8.5 -88t35 -82t74.5 -59.5t128 -22.5q53 0 93 22.5t67 60.5t40 88t13 106v960h273v-1003z" />
<glyph unicode="K" horiz-adv-x="1404" d="M1059 0l-420 686l-219 -227v-459h-273v1460h273v-678h2l586 678h331l-520 -575l572 -885h-332z" />
<glyph unicode="L" horiz-adv-x="1183" d="M147 0v1460h273v-1220h710v-240h-983z" />
<glyph unicode="M" horiz-adv-x="1705" d="M1296 0v973h-4l-331 -805h-216l-331 801h-4v-969h-263v1460h332l379 -913h2l367 913h332v-1460h-263z" />
<glyph unicode="N" horiz-adv-x="1460" d="M1047 0l-633 997h-4v-997h-263v1460h265l635 -995h4v995h262v-1460h-266z" />
<glyph unicode="O" horiz-adv-x="1398" d="M1288 514q0 -129 -50 -229.5t-133 -169t-187.5 -104.5t-212.5 -36q-119 0 -226.5 33t-189.5 97.5t-130 157.5t-48 216v467q0 129 50 229.5t133 169t187.5 104.5t212.5 36q119 0 226.5 -38t189.5 -106.5t130 -167t48 -221.5v-438zM1018 967q0 66 -26.5 117t-70.5 86.5 t-103.5 54t-123.5 18.5q-53 0 -108.5 -14.5t-100.5 -48t-74.5 -88t-29.5 -131.5v-467q0 -66 26.5 -118t70.5 -87t102.5 -53.5t124.5 -18.5q51 0 107 14.5t101 48t75 88t30 132.5v467z" />
<glyph unicode="P" horiz-adv-x="1290" d="M1237 1001q0 -84 -28.5 -164.5t-88 -145t-149.5 -104.5t-215 -40h-336v-547h-273v1460h594q106 0 196.5 -29.5t157 -88t104.5 -143.5t38 -198zM971 1004q0 63 -20.5 107t-56.5 70.5t-84 38t-105 11.5h-285v-455h289q119 0 190.5 56.5t71.5 171.5z" />
<glyph unicode="Q" horiz-adv-x="1398" d="M1245 -102l-201 174q-76 -47 -162.5 -72t-176.5 -25q-119 0 -226.5 33t-189.5 97.5t-130 157.5t-48 216v467q0 129 50 229.5t133 169t187.5 104.5t212.5 36q119 0 226.5 -38t189.5 -106.5t130 -167t48 -221.5v-438q0 -82 -20.5 -151.5t-57.5 -129.5l189 -163zM1018 967 q0 66 -26.5 117t-70.5 86.5t-103.5 54t-123.5 18.5q-53 0 -108.5 -14.5t-100.5 -48t-74.5 -88t-29.5 -131.5v-467q0 -66 26.5 -118t70.5 -87t102.5 -53.5t124.5 -18.5q35 0 70.5 6t70.5 21l-160 137l154 172l166 -143q12 39 12 90v467z" />
<glyph unicode="R" horiz-adv-x="1333" d="M997 0l-342 547h-235v-547h-273v1460h578q100 0 182 -22.5t154 -79.5q76 -59 118 -152.5t42 -204.5q0 -66 -17.5 -130t-53.5 -120.5t-90 -101.5t-128 -71l362 -578h-297zM954 1004q0 63 -20.5 107t-56 70.5t-84 38t-105.5 11.5h-268v-455h272q119 0 190.5 56.5 t71.5 171.5z" />
<glyph unicode="S" horiz-adv-x="1275" d="M1196 424q0 -100 -42 -183t-117.5 -141.5t-178 -90.5t-223.5 -32q-100 0 -194.5 21.5t-173.5 66t-136 113t-86 160.5l246 96q41 -106 135 -163.5t217 -57.5q55 0 106.5 11.5t91.5 35t64.5 59t24.5 87.5q0 63 -34 102t-90 62.5t-128 39.5l-147 34q-75 17 -146.5 44 t-127.5 72t-90 114.5t-34 176.5q0 102 40 183t108.5 136t162 85t199.5 30q92 0 177 -18.5t156 -57.5t122 -97.5t76 -137.5l-236 -93q-43 92 -121 133t-184 41q-45 0 -87 -12t-75 -35.5t-52.5 -60.5t-19.5 -86q0 -39 17.5 -65.5t46.5 -46t67.5 -33t81.5 -25.5 q59 -16 125 -29.5t131.5 -33t125 -49t104.5 -77t71.5 -115t26.5 -163.5z" />
<glyph unicode="T" horiz-adv-x="1220" d="M745 1227v-1227h-270v1227h-420v233h1110v-233h-420z" />
<glyph unicode="U" horiz-adv-x="1417" d="M1280 524q0 -131 -42 -232.5t-116.5 -171t-180 -106.5t-232.5 -37t-232.5 33t-181.5 99.5t-117 165t-41 229.5v956h273v-923q0 -68 16 -125.5t53 -99.5t93.5 -65.5t136.5 -23.5q299 0 299 314v923h272v-936z" />
<glyph unicode="V" horiz-adv-x="1228" d="M745 0h-266l-479 1460h283l329 -1069h4l330 1069h283z" />
<glyph unicode="W" horiz-adv-x="1839" d="M1436 0h-252l-262 1024h-4l-263 -1024h-254l-376 1460h278l229 -1016h5l268 1016h231l267 -1022h4l233 1022h275z" />
<glyph unicode="X" horiz-adv-x="1232" d="M932 0l-320 524l-321 -524h-307l479 758l-445 702h312l288 -485l295 485h301l-444 -704l479 -756h-317z" />
<glyph unicode="Y" horiz-adv-x="1245" d="M754 582v-582h-265v586l-489 874h299l326 -612l323 612h297z" />
<glyph unicode="Z" horiz-adv-x="1222" d="M70 0v219l723 1008h-678v233h1028v-209l-725 -1011h735v-240h-1083z" />
<glyph unicode="[" horiz-adv-x="778" d="M467 1448v-1708h272v-137h-487v1982h487v-137h-272z" />
<glyph unicode="\" horiz-adv-x="714" d="M524 -74l-497 1563h168l501 -1563h-172z" />
<glyph unicode="]" horiz-adv-x="778" d="M39 -397v137h272v1708h-272v137h487v-1982h-487z" />
<glyph unicode="^" horiz-adv-x="1583" d="M115 0v1460h1353v-1460h-1353z" />
<glyph unicode="_" d="M0 -268v127h1024v-127h-1024z" />
<glyph unicode="`" horiz-adv-x="704" d="M397 1190l-264 356h264l174 -356h-174z" />
<glyph unicode="a" horiz-adv-x="1107" d="M750 0q-2 6 -3.5 19.5t-3.5 28.5t-3 28.5t-1 19.5h-4q-35 -37 -67.5 -59.5t-67.5 -34.5t-76 -17t-92 -5q-164 0 -264 83.5t-100 233.5q0 76 31.5 136.5t86 101t124 63.5t145.5 23h278v96q0 84 -52 120.5t-149 36.5q-82 0 -135 -26.5t-53 -77.5v-37h-225v29q0 86 37 144.5 t97 95t134 52t148 15.5q88 0 168.5 -16.5t143 -54t99.5 -102.5t37 -161v-510q0 -18 1 -52t3 -69.5t6 -65.5t8 -38h-251zM733 438h-246q-80 0 -128 -29.5t-48 -99.5q0 -66 50.5 -99.5t138.5 -33.5q76 0 122 17.5t70.5 46t32.5 66.5t8 81v51z" />
<glyph unicode="b" horiz-adv-x="1175" d="M1090 401q0 -106 -36 -186t-97.5 -133t-141.5 -80t-168 -27t-156.5 38t-109.5 91h-6v-104h-240v1460h250v-532h2q59 78 138 109.5t151 31.5q86 0 161.5 -26.5t131 -79t88.5 -130t33 -178.5v-254zM836 653q0 96 -64.5 148.5t-163.5 52.5q-39 0 -79 -13.5t-71.5 -41 t-52 -69.5t-20.5 -99v-242q0 -96 66.5 -149.5t164.5 -53.5q39 0 78 11.5t71 36t51.5 63.5t19.5 96v260z" />
<glyph unicode="c" horiz-adv-x="1073" d="M1022 385q0 -104 -39 -181t-101.5 -128t-143.5 -76t-167 -25q-96 0 -185 28t-156.5 82t-107.5 134t-40 184v205q0 111 39 196t104.5 143.5t152.5 89t185 30.5q86 0 168 -25.5t146.5 -76t104.5 -128t40 -182.5v-20h-244v20q0 53 -19.5 91t-50 63t-68.5 36t-77 11 q-41 0 -80 -11t-70.5 -37t-51 -67t-19.5 -100v-246q0 -100 64.5 -155.5t164.5 -55.5q39 0 76 11.5t65.5 36t47 62.5t18.5 91v10h244v-10z" />
<glyph unicode="d" horiz-adv-x="1175" d="M797 0v117h-2q-23 -31 -59 -56.5t-77 -45t-82.5 -30t-76.5 -10.5q-86 0 -162 27t-131 79t-88 130t-33 178v254q0 106 35 186t94 133.5t137 80t166 26.5t156.5 -38t109.5 -91h7v520h249v-1460h-243zM791 655q0 96 -67 149.5t-165 53.5q-39 0 -78 -11t-70.5 -36t-51 -63.5 t-19.5 -96.5v-260q0 -96 64.5 -148.5t162.5 -52.5q39 0 79 11.5t72 36t52.5 63.5t20.5 96v258z" />
<glyph unicode="e" horiz-adv-x="1105" d="M1016 229q-72 -129 -188.5 -191.5t-256.5 -62.5q-96 0 -185 27t-156.5 80t-107.5 133t-40 188v205q0 111 39 196t104.5 143.5t152.5 89t185 30.5q86 0 167 -25.5t144.5 -76t102.5 -128t39 -182.5v-202h-674v-58q0 -100 70.5 -155.5t171.5 -55.5q63 0 124.5 38t102.5 97z M766 655q0 53 -17.5 91t-46 63t-64.5 36t-75 11q-41 0 -80 -11t-70.5 -37t-51 -67t-19.5 -100v-14h424v28z" />
<glyph unicode="f" horiz-adv-x="647" d="M432 854v-854h-248v854h-149v195h149v135q0 301 303 301q31 0 63 -3t62 -7v-209q-27 4 -47 5t-47 1q-37 0 -61.5 -16.5t-24.5 -63.5v-143h180v-195h-180z" />
<glyph unicode="g" horiz-adv-x="1165" d="M1036 47q0 -92 -26.5 -175t-87 -147.5t-155.5 -102.5t-230 -38q-63 0 -131 15.5t-126.5 47t-103.5 79t-65 112.5l256 78q29 -59 77 -95t115 -36q115 0 175.5 66.5t60.5 177.5v123l-4 -2q-47 -68 -120 -102t-161 -34q-193 0 -304.5 104.5t-111.5 307.5v201q0 106 32 189 t87 139.5t131 85t162 28.5q92 0 169 -43t118 -102h2v125h241v-1002zM795 653q0 96 -64.5 148.5t-163.5 52.5q-39 0 -77.5 -11.5t-70.5 -36t-51.5 -63t-19.5 -96.5v-231q0 -96 64.5 -149.5t162.5 -53.5q39 0 78 11.5t71 36t51.5 63t19.5 96.5v233z" />
<glyph unicode="h" horiz-adv-x="1169" d="M797 0v608q0 242 -195 242q-104 0 -160.5 -63.5t-56.5 -198.5v-588h-250v1460h250v-540h6q53 76 130 112.5t159 36.5q178 0 272.5 -104.5t94.5 -292.5v-672h-250z" />
<glyph unicode="i" horiz-adv-x="520" d="M135 1237v223h250v-223h-250zM135 0v1049h250v-1049h-250z" />
<glyph unicode="j" horiz-adv-x="548" d="M150 1237v223h249v-223h-249zM399 -90q0 -147 -80.5 -226t-257.5 -79q-12 0 -42.5 1t-45.5 3v213q14 -2 27 -2h45q45 0 75 22.5t30 81.5v1125h249v-1139z" />
<glyph unicode="k" horiz-adv-x="1132" d="M809 0l-285 479l-137 -147v-332h-250v1460h250l2 -844l383 433h297l-379 -398l426 -651h-307z" />
<glyph unicode="l" horiz-adv-x="630" d="M590 14q-41 -10 -96.5 -19t-104.5 -9q-92 0 -143 32.5t-76 78.5t-30 97.5t-5 86.5v1179h250v-1177q0 -35 19.5 -60.5t70.5 -25.5q35 0 57.5 2t57.5 6v-191z" />
<glyph unicode="m" horiz-adv-x="1800" d="M1417 0v610q0 106 -42 173t-148 67q-53 0 -91 -19.5t-62.5 -52.5t-36 -78t-11.5 -96v-604h-250v606q0 49 -8 94t-29.5 78t-58.5 52.5t-94 19.5q-33 0 -69 -12.5t-65.5 -40t-49 -71.5t-19.5 -110v-616h-250v1049h242v-127h4q111 147 297 147q104 0 178 -39t123 -117 q55 72 135 114t188 42q74 0 139.5 -21.5t117 -66.5t81 -114.5t29.5 -166.5v-700h-250z" />
<glyph unicode="n" horiz-adv-x="1169" d="M797 0v608q0 242 -195 242q-104 0 -160.5 -63.5t-56.5 -198.5v-588h-250v1049h244v-129h4q53 76 131 112.5t166 36.5q178 0 272.5 -104.5t94.5 -292.5v-672h-250z" />
<glyph unicode="o" horiz-adv-x="1126" d="M1040 416q0 -106 -41 -188.5t-108.5 -138.5t-152.5 -85t-171 -29q-96 0 -183 27t-152.5 79t-105.5 129t-40 177v240q0 106 41 188t108.5 138.5t152.5 85t171 28.5q94 0 182 -30.5t154 -87t105.5 -137.5t39.5 -181v-215zM786 653q0 96 -64.5 148.5t-162.5 52.5 q-39 0 -78 -11.5t-70.5 -36t-51 -63t-19.5 -96.5v-258q0 -96 64.5 -149.5t162.5 -53.5q39 0 78 11.5t71 36t51 63.5t19 96v260z" />
<glyph unicode="p" horiz-adv-x="1175" d="M1090 401q0 -106 -35 -186t-94.5 -133t-137.5 -80t-166 -27t-156.5 38t-109.5 91h-6v-499h-250v1444h244v-121h2q61 74 142 107.5t153 33.5q86 0 161.5 -26.5t131 -79t88.5 -130t33 -178.5v-254zM836 653q0 96 -64.5 148.5t-163.5 52.5q-39 0 -79 -13.5t-71.5 -41 t-52 -68.5t-20.5 -98v-244q0 -96 66.5 -149.5t164.5 -53.5q39 0 78 11.5t71 36t51.5 63.5t19.5 96v260z" />
<glyph unicode="q" horiz-adv-x="1175" d="M797 -410v527h-2q-23 -31 -59 -56.5t-77 -45t-82.5 -30t-76.5 -10.5q-86 0 -162 27t-131 79t-88 130t-33 178v254q0 106 35 186t94 133.5t137 80t166 26.5t156.5 -38t109.5 -91h7v111h249v-1461h-243zM791 655q0 96 -67 149.5t-165 53.5q-39 0 -78 -11t-70.5 -36 t-51 -63.5t-19.5 -96.5v-260q0 -96 64.5 -148.5t162.5 -52.5q39 0 79 11.5t72 36t52.5 63.5t20.5 96v258z" />
<glyph unicode="r" horiz-adv-x="833" d="M797 834q-25 4 -46.5 5t-48.5 1q-18 0 -46.5 -3t-47.5 -8q-115 -29 -175 -99.5t-60 -192.5v-537h-250v1049h244v-175h4q23 41 61.5 77t85.5 61.5t97.5 41t97.5 15.5q20 0 41.5 -1t42.5 -5v-229z" />
<glyph unicode="s" horiz-adv-x="1069" d="M997 334q0 -90 -42 -157.5t-108.5 -112t-149.5 -66t-162 -21.5q-141 0 -266.5 44.5t-202.5 158.5l176 133q49 -66 123.5 -101.5t164.5 -35.5q39 0 76 7t65.5 22.5t47 40t18.5 59.5q0 61 -45 84t-151 41l-138 25q-129 23 -207.5 88t-78.5 184q0 90 33.5 155.5t90 107.5 t132.5 61.5t159 19.5q141 0 244 -39t168 -133l-180 -123q-47 53 -101.5 78t-132.5 25q-74 0 -122 -29t-48 -88q0 -29 15.5 -45.5t43 -27.5t63.5 -17t77 -15l158 -30q135 -27 207.5 -100.5t72.5 -192.5z" />
<glyph unicode="t" horiz-adv-x="679" d="M647 4q-20 -4 -47 -7t-54.5 -5t-50 -3t-32.5 -1q-61 0 -114.5 14t-93.5 46t-62.5 81t-22.5 119v602h-141v199h141v317h250v-317h227v-199h-227v-543q0 -59 27.5 -79.5t70.5 -20.5q39 0 65.5 2t63.5 8v-213z" />
<glyph unicode="u" horiz-adv-x="1157" d="M793 0v129h-7q-53 -76 -129.5 -112.5t-164.5 -36.5q-178 0 -273.5 106.5t-95.5 292.5v670h250v-609q0 -119 50 -180t146 -61q104 0 159.5 64.5t55.5 199.5v586h250v-1049h-241z" />
<glyph unicode="v" horiz-adv-x="1013" d="M633 0h-248l-373 1049h264l234 -725h4l234 725h253z" />
<glyph unicode="w" horiz-adv-x="1581" d="M1237 0h-242l-202 719h-5l-198 -719h-244l-334 1049h264l197 -723h4l207 723h217l207 -721h4l197 721h260z" />
<glyph unicode="x" horiz-adv-x="1071" d="M756 0l-221 340l-222 -340h-288l368 545l-344 504h291l197 -306l194 306h287l-344 -502l373 -547h-291z" />
<glyph unicode="y" horiz-adv-x="1038" d="M582 -174q-45 -125 -132.5 -176t-209.5 -51q-16 0 -35 1t-35 3q-20 2 -41 6v211q16 -2 35 -4q16 -2 34.5 -3t34.5 -1q47 0 77 25.5t44 62.5l45 125l-387 1024h273l243 -725h4l238 725h256z" />
<glyph unicode="z" horiz-adv-x="987" d="M57 0v193l535 655h-500v201h819v-193l-536 -647h555v-209h-873z" />
<glyph unicode="{" horiz-adv-x="780" d="M467 1448v-653l-82 -107l82 -113v-837h270v-135h-481v942l-90 141l90 129v770h485v-137h-274z" />
<glyph unicode="|" horiz-adv-x="667" d="M246 -80v1565h176v-1565h-176z" />
<glyph unicode="}" horiz-adv-x="778" d="M522 545v-942h-479v135h268v837l82 113l-82 107v653h-274v137h485v-770l90 -129z" />
<glyph unicode="~" horiz-adv-x="1583" d="M115 0v1460h1353v-1460h-1353zM1329 1321h-1075v-1182h1075v1182z" />
<glyph unicode="&#xa1;" horiz-adv-x="598" d="M164 782v303h268v-303h-268zM162 -375v453l61 577h152l59 -577v-453h-272z" />
<glyph unicode="&#xa2;" horiz-adv-x="1126" d="M1020 434q0 -86 -28.5 -148.5t-77 -106.5t-111 -68.5t-131.5 -32.5v-174h-156v174q-78 8 -145.5 35.5t-119.5 73.5t-82 112t-30 152v325q0 90 30 161t81 120t119.5 77.5t146.5 39.5v147h156v-150q68 -8 131 -32.5t111.5 -67.5t77 -105.5t28.5 -146.5v-57h-238v39 q0 45 -17 76.5t-45 52t-62.5 30t-67.5 9.5q-37 0 -73 -10.5t-65.5 -32t-48 -56t-18.5 -84.5v-325q0 -84 61.5 -131t151.5 -47q33 0 66.5 9t59.5 29.5t42 52.5t16 77v41h238v-58z" />
<glyph unicode="&#xa3;" horiz-adv-x="1226" d="M1110 0h-1008v211h166v434h-139v162h139v266q0 115 39 194t102.5 127t143.5 69.5t162 21.5q86 0 160.5 -25.5t130 -75t87 -121t31.5 -163.5v-68h-254v70q0 72 -50 122t-130 50q-72 0 -120 -47t-48 -125v-295h400v-162h-400v-434h637z" />
<glyph unicode="&#xa4;" horiz-adv-x="1486" d="M1378 457q0 -123 -46 -213t-122.5 -149.5t-175 -89.5t-203.5 -30q-119 0 -218 33t-170.5 97.5t-111.5 157.5t-40 216v15h-203v143h203v180h-203v144h203q2 127 41 224t108.5 163.5t165.5 101.5t215 35q104 0 204.5 -30t178.5 -89t126 -149.5t48 -212.5v-46h-258v21 q0 72 -27.5 122t-71.5 81.5t-97.5 46t-102.5 14.5q-53 0 -100 -14.5t-82 -48t-56.5 -88t-21.5 -131.5h408v-144h-408v-180h408v-143h-408q0 -133 70.5 -205t199.5 -72q49 0 101.5 14.5t93.5 46t67.5 82t26.5 121.5v21h258v-45z" />
<glyph unicode="&#xa5;" horiz-adv-x="1245" d="M799 662h366v-158h-411v-504h-265v504h-409v158h366l-446 798h299l326 -612l323 612h297z" />
<glyph unicode="&#xa6;" horiz-adv-x="1005" d="M428 760v725h150v-725h-150zM428 -158v766h150v-766h-150z" />
<glyph unicode="&#xa7;" horiz-adv-x="1130" d="M997 176q0 -74 -29.5 -138.5t-87 -112.5t-141.5 -75.5t-190 -27.5q-72 0 -144.5 15.5t-133 51t-98.5 95t-38 147.5v74h193v-39q0 -80 59 -128t176 -48t176.5 49t59.5 111q0 37 -15.5 60t-38 39.5t-52.5 28.5l-56 21q-10 4 -43 13l-68 20l-92 26q-117 33 -196.5 102.5 t-79.5 190.5q0 80 36.5 146.5t112.5 109.5q-78 41 -114.5 95.5t-36.5 144.5q0 143 106.5 233t308.5 90q92 0 167 -20t128.5 -59t82 -97.5t28.5 -134.5v-63h-186v51q0 66 -58.5 112t-171.5 46q-92 0 -149.5 -36t-57.5 -108q0 -33 21.5 -54.5t51.5 -36.5t62 -27l56 -19l39 -15 q29 -11 61 -22l84 -29q49 -18 96 -39.5t85 -53t60.5 -77t22.5 -108.5q0 -84 -33.5 -150.5t-111.5 -109.5q68 -39 108.5 -97.5t40.5 -146.5zM797 641q0 53 -36 81t-93 44l-74 22q-29 10 -59.5 19.5t-47.5 13.5q-59 -20 -95 -57t-36 -100q0 -29 17.5 -48.5t43 -34t53.5 -23.5 t50 -15l21 -6l46 -14l50 -14q25 -7 35 -11q66 20 95.5 61t29.5 82z" />
<glyph unicode="&#xa8;" horiz-adv-x="1036" d="M618 1200v270h226v-270h-226zM207 1200v270h225v-270h-225z" />
<glyph unicode="&#xa9;" horiz-adv-x="1918" d="M1788 711q0 -172 -59.5 -323.5t-169 -266.5t-263 -181.5t-340.5 -66.5q-197 0 -349 66.5t-258.5 181.5t-162 266.5t-55.5 323.5t60.5 322.5t169 264t261 179t334.5 65.5q190 0 344 -65.5t262.5 -179t167 -264t58.5 -322.5zM1632 711q0 164 -54 295t-147.5 223t-216 142 t-258.5 50q-139 0 -261 -49t-213 -141t-143 -223t-52 -297t54 -298t145.5 -224.5t213 -141.5t256.5 -49t258 50t215.5 142.5t147.5 224.5t55 296zM1364 522q0 -90 -34 -154.5t-90 -107.5t-129 -63.5t-150 -20.5q-82 0 -156 21.5t-130.5 65.5t-89 112.5t-32.5 165.5v325 q0 90 31.5 161t87 119t130.5 72.5t161 24.5q80 0 152.5 -20.5t127.5 -61.5t88 -104.5t33 -151.5v-57h-199v35q0 6 -2 8q-2 88 -53 134t-145 46q-98 0 -148.5 -55t-50.5 -150v-321q0 -94 51 -146.5t150 -52.5q92 0 145 47t53 133v43h199v-47z" />
<glyph unicode="&#xaa;" horiz-adv-x="858" d="M565 758q0 6 -1 17l-2 24q-1 12 -2 22t-1 15q-43 -53 -102.5 -74t-106.5 -21t-90 12.5t-76.5 37t-53 62.5t-19.5 89q0 80 37.5 127t91 71.5t114 32t107.5 7.5h86v63q0 53 -30 83t-87 30q-53 0 -87 -25.5t-34 -70.5v-31h-166v35q0 57 25 99t66.5 69.5t96 41t115.5 13.5 q55 0 106.5 -13.5t91.5 -42t63.5 -73.5t23.5 -109v-334q0 -47 3 -88t7 -69h-176zM145 467v162h588v-162h-588zM541 1022v49h-80q-29 0 -58.5 -2t-52 -13.5t-37 -31.5t-14.5 -57q0 -43 28.5 -65.5t78.5 -22.5q20 0 43.5 6t44 20.5t34 33.5t13.5 48v35z" />
<glyph unicode="&#xab;" horiz-adv-x="1144" d="M952 131l-428 414l426 418l125 -113l-299 -305l301 -305zM496 131l-428 414l428 418l122 -113l-299 -305l302 -305z" />
<glyph unicode="&#xac;" horiz-adv-x="1095" d="M864 225l-317 324l-318 -322l-104 105l317 321l-317 324l106 108l318 -323l317 319l103 -104l-316 -320l318 -323z" />
<glyph unicode="&#xad;" horiz-adv-x="743" d="M76 469v193h592v-193h-592z" />
<glyph unicode="&#xae;" horiz-adv-x="1077" d="M948 1188q0 -84 -29.5 -159t-84 -131t-130 -89t-167.5 -33q-96 0 -171 33t-128.5 89t-81 131t-27.5 159t30.5 158.5t84 131t128 89t165.5 32.5q94 0 169.5 -32.5t129 -89t83 -131t29.5 -158.5zM848 1188q0 76 -24.5 137t-67.5 104.5t-99.5 67t-119.5 23.5t-120 -22.5 t-97.5 -65.5t-65.5 -104.5t-25 -139.5t26 -138.5t68 -102.5t97 -64.5t117 -22.5q61 0 117.5 22.5t99.5 65.5t68.5 103.5t25.5 136.5zM629 987q-12 18 -13 43l-6 60q-4 31 -17 43t-42 12h-70v-158h-106v422h207q53 0 94 -24.5t41 -88.5q0 -41 -19.5 -66.5t-52.5 -35.5v-4 q35 -10 50.5 -31.5t19.5 -52.5l4 -51q2 -18 5 -36t13 -28v-4h-108zM608 1278q0 31 -16.5 43t-40.5 12h-70v-114h74q53 0 53 59z" />
<glyph unicode="&#xaf;" horiz-adv-x="849" d="M94 1237v184h662v-184h-662z" />
<glyph unicode="&#xb0;" horiz-adv-x="608" d="M504 1313q0 -84 -58.5 -140.5t-142.5 -56.5q-45 0 -82 15.5t-62.5 42t-40 61.5t-14.5 74t15.5 75.5t42 63.5t62.5 43t79 16q45 0 82 -15t63.5 -42t41 -62.5t14.5 -74.5zM399 1309q0 41 -26.5 72.5t-69.5 31.5q-41 0 -66.5 -30.5t-25.5 -73.5q0 -41 26.5 -70t65.5 -29 q41 0 68.5 29t27.5 70z" />
<glyph unicode="&#xb1;" />
<glyph unicode="&#xb2;" />
<glyph unicode="&#xb3;" />
<glyph unicode="&#xb4;" horiz-adv-x="704" d="M307 1190h-174l174 356h264z" />
<glyph unicode="&#xb5;" />
<glyph unicode="&#x3bc;" />
<glyph unicode="&#xb6;" horiz-adv-x="1271" d="M1059 1317v-1501h-168v1501h-199v-1501h-166v643q-104 8 -178 52t-120 112.5t-67.5 153.5t-21.5 177q0 94 30 185.5t84 163t130 114.5t170 43h614v-143h-108z" />
<glyph unicode="&#xb7;" horiz-adv-x="532" d="M133 653v305h268v-305h-268z" />
<glyph unicode="&#xb8;" horiz-adv-x="786" d="M633 -236q0 -43 -22.5 -74.5t-59.5 -52t-84 -30.5t-96 -10q-45 0 -106.5 10t-108.5 26v99q47 -16 108.5 -25.5t95.5 -9.5q59 0 84 15.5t25 41.5q0 18 -9 28.5t-21.5 15.5t-28 7t-27.5 2l-109 5l52 206h114l-26 -120h28q37 0 71 -6.5t60.5 -21.5t43 -41t16.5 -65z" />
<glyph unicode="&#xb9;" />
<glyph unicode="&#xba;" horiz-adv-x="870" d="M756 1036q0 -78 -25.5 -134t-71 -93t-103.5 -54.5t-122 -17.5q-68 0 -126 17.5t-101 53.5t-67.5 92t-24.5 134v160q0 76 24.5 133t67.5 95t101.5 57.5t125.5 19.5q68 0 127.5 -18.5t102.5 -55t67.5 -94t24.5 -135.5v-160zM145 467v162h588v-162h-588zM563 1204 q0 66 -27.5 108t-97.5 42q-72 0 -101.5 -43t-29.5 -113v-168q0 -66 26.5 -107.5t100.5 -41.5q72 0 100.5 42t28.5 111v170z" />
<glyph unicode="&#xbb;" horiz-adv-x="1144" d="M649 131l-123 113l299 305l-301 305l125 109l428 -414zM193 131l-123 113l299 305l-301 305l125 109l428 -414z" />
<glyph unicode="&#xbc;" />
<glyph unicode="&#xbd;" />
<glyph unicode="&#xbe;" />
<glyph unicode="&#xbf;" horiz-adv-x="1099" d="M459 782v303h268v-303h-268zM1006 -16q0 -98 -40 -169t-105.5 -118t-149.5 -69.5t-174 -22.5q-205 0 -319 105.5t-114 291.5q0 61 15.5 111.5t40 91.5t57.5 74.5t68 62.5l51 40q35 28 51 42q41 33 64.5 69.5t23.5 86.5v94h230v-94q0 -84 -29 -138.5t-82 -107.5l-22 -21 l-27 -26q-14 -14 -28.5 -26.5t-22.5 -18.5l-44 -41q-22 -20 -40 -45q-23 -29 -37.5 -64t-14.5 -76q0 -86 53.5 -144t143.5 -58q37 0 75 9t70.5 28.5t53 52.5t20.5 82v86h232v-88z" />
<glyph unicode="&#xc0;" horiz-adv-x="1376" d="M606 1604l-270 372h264l180 -372h-174zM1069 0l-106 311h-557l-111 -311h-272l542 1460h250l539 -1460h-285zM686 1130h-4l-201 -585h404z" />
<glyph unicode="&#xc1;" horiz-adv-x="1376" d="M780 1604h-174l180 372h265zM1069 0l-106 311h-557l-111 -311h-272l542 1460h250l539 -1460h-285zM686 1130h-4l-201 -585h404z" />
<glyph unicode="&#xc2;" horiz-adv-x="1376" d="M791 1577l-99 205l-110 -205h-195l205 356h201l196 -356h-198zM1069 0l-106 311h-557l-111 -311h-272l542 1460h250l539 -1460h-285zM686 1130h-4l-201 -585h404z" />
<glyph unicode="&#xc3;" horiz-adv-x="1376" d="M1073 1845q-8 -49 -21.5 -95t-38 -81t-61.5 -55.5t-90 -20.5q-43 0 -85 11l-83 20l-84 23.5t-88 11.5q-33 0 -49 -11.5t-29 -35.5q-8 -14 -16 -45l-125 26q8 53 25.5 99.5t44 80t64.5 53t89 19.5q43 0 83 -9t81 -21t84 -22.5t86 -10.5q29 0 44.5 10t27.5 33l9 21.5 t13 27.5zM1069 0l-106 311h-557l-111 -311h-272l542 1460h250l539 -1460h-285zM686 1130h-4l-201 -585h404z" />
<glyph unicode="&#xc4;" horiz-adv-x="1376" d="M780 1595v269h226v-269h-226zM371 1595v269h225v-269h-225zM1069 0l-106 311h-557l-111 -311h-272l542 1460h250l539 -1460h-285zM686 1130h-4l-201 -585h404z" />
<glyph unicode="&#xc5;" horiz-adv-x="1376" d="M907 1759q0 -43 -17.5 -81t-48 -65.5t-70.5 -44t-85 -16.5q-102 0 -159.5 56.5t-57.5 140.5q0 43 16.5 81t46 66.5t68.5 45t86 16.5q100 0 160.5 -54.5t60.5 -144.5zM1069 0l-106 311h-557l-111 -311h-272l542 1460h250l539 -1460h-285zM782 1755q0 39 -24.5 67.5 t-71.5 28.5q-43 0 -67.5 -27.5t-24.5 -68.5t26.5 -69.5t65.5 -28.5q41 0 68.5 28.5t27.5 69.5zM686 1130h-4l-201 -585h404z" />
<glyph unicode="&#xc6;" horiz-adv-x="2097" d="M967 0v356h-463l-195 -356h-284l786 1460h1167v-239h-741v-357h657v-239h-657v-385h750v-240h-1020zM967 1245l-357 -661h357v661z" />
<glyph unicode="&#xc7;" horiz-adv-x="1351" d="M1251 457q0 -111 -38.5 -196t-104.5 -144.5t-151 -94t-179 -42.5l-18 -82h28q37 0 71 -6.5t60.5 -21.5t43 -41t16.5 -65q0 -43 -22.5 -74.5t-59.5 -52t-84 -30.5t-96 -10q-45 0 -106.5 10t-108.5 26v99q47 -16 108.5 -25.5t96.5 -9.5q59 0 83.5 15.5t24.5 41.5 q0 18 -9 28.5t-21.5 15.5t-28 7t-27.5 2l-108 5l41 165q-113 6 -213.5 41t-175 98.5t-118.5 154.5t-44 208v467q0 129 46 229.5t125.5 169t185 104.5t226.5 36q104 0 204.5 -30t178.5 -89t126 -149.5t48 -212.5v-46h-258v21q0 72 -27.5 122t-71.5 81.5t-97.5 46t-102.5 14.5 q-53 0 -108.5 -14.5t-100.5 -48t-74.5 -88t-29.5 -131.5v-467q0 -66 26.5 -118t70.5 -87t102.5 -53.5t124.5 -18.5q49 0 101 14.5t93 46t67.5 82t26.5 121.5v21h258v-45z" />
<glyph unicode="&#xc8;" horiz-adv-x="1280" d="M641 1604l-270 372h264l182 -372h-176zM147 0v1460h1014v-239h-741v-357h657v-239h-657v-385h749v-240h-1022z" />
<glyph unicode="&#xc9;" horiz-adv-x="1280" d="M727 1604h-176l182 372h264zM147 0v1460h1014v-239h-741v-357h657v-239h-657v-385h749v-240h-1022z" />
<glyph unicode="&#xca;" horiz-adv-x="1280" d="M799 1577l-99 205l-110 -205h-195l205 356h201l196 -356h-198zM147 0v1460h1014v-239h-741v-357h657v-239h-657v-385h749v-240h-1022z" />
<glyph unicode="&#xcb;" horiz-adv-x="1280" d="M768 1595v269h225v-269h-225zM356 1595v269h226v-269h-226zM147 0v1460h1014v-239h-741v-357h657v-239h-657v-385h749v-240h-1022z" />
<glyph unicode="&#xcc;" horiz-adv-x="1110" d="M481 1604l-270 372h264l180 -372h-174zM111 0v240h309v981h-309v239h888v-239h-309v-981h309v-240h-888z" />
<glyph unicode="&#xcd;" horiz-adv-x="1110" d="M655 1604h-174l181 372h264zM111 0v240h309v981h-309v239h888v-239h-309v-981h309v-240h-888z" />
<glyph unicode="&#xce;" horiz-adv-x="1110" d="M657 1577l-98 205l-110 -205h-195l205 356h200l197 -356h-199zM111 0v240h309v981h-309v239h888v-239h-309v-981h309v-240h-888z" />
<glyph unicode="&#xcf;" horiz-adv-x="1110" d="M647 1595v269h225v-269h-225zM238 1595v269h225v-269h-225zM111 0v240h309v981h-309v239h888v-239h-309v-981h309v-240h-888z" />
<glyph unicode="&#xd0;" horiz-adv-x="1402" d="M1292 539q0 -129 -49 -229.5t-129 -169t-183.5 -104.5t-211.5 -36h-572v647h-102v187h102v626h570q119 0 223 -38t183 -106.5t124 -166.5t45 -221v-389zM1022 944q0 66 -26.5 117t-70.5 87t-103.5 54.5t-123.5 18.5h-278v-387h366v-187h-366v-407h289q51 0 107 14 t101.5 48t75 88t29.5 132v422z" />
<glyph unicode="&#xd1;" horiz-adv-x="1460" d="M1116 1845q-8 -49 -21.5 -95t-38 -81t-61.5 -55.5t-90 -20.5q-43 0 -85 11l-83 20l-86 24q-43 11 -88 11q-33 0 -49 -11.5t-27 -35.5l-8 -19.5t-10 -25.5l-125 26q10 53 27.5 99.5t44 80t63.5 53t88 19.5q43 0 84 -9t82 -21t83 -22.5t87 -10.5q29 0 43.5 10t26.5 33 q10 14 22 49zM1047 0l-633 997h-4v-997h-263v1460h265l635 -995h4v995h262v-1460h-266z" />
<glyph unicode="&#xd2;" horiz-adv-x="1398" d="M641 1604l-270 372h264l182 -372h-176zM1288 514q0 -129 -50 -229.5t-133 -169t-187.5 -104.5t-212.5 -36q-119 0 -226.5 33t-189.5 97.5t-130 157.5t-48 216v467q0 129 50 229.5t133 169t187.5 104.5t212.5 36q119 0 226.5 -38t189.5 -106.5t130 -167t48 -221.5v-438z M1018 967q0 66 -26.5 117t-70.5 86.5t-103.5 54t-123.5 18.5q-53 0 -108.5 -14.5t-100.5 -48t-74.5 -88t-29.5 -131.5v-467q0 -66 26.5 -118t70.5 -87t102.5 -53.5t124.5 -18.5q51 0 107 14.5t101 48t75 88t30 132.5v467z" />
<glyph unicode="&#xd3;" horiz-adv-x="1398" d="M784 1604h-174l181 372h264zM1288 514q0 -129 -50 -229.5t-133 -169t-187.5 -104.5t-212.5 -36q-119 0 -226.5 33t-189.5 97.5t-130 157.5t-48 216v467q0 129 50 229.5t133 169t187.5 104.5t212.5 36q119 0 226.5 -38t189.5 -106.5t130 -167t48 -221.5v-438zM1018 967 q0 66 -26.5 117t-70.5 86.5t-103.5 54t-123.5 18.5q-53 0 -108.5 -14.5t-100.5 -48t-74.5 -88t-29.5 -131.5v-467q0 -66 26.5 -118t70.5 -87t102.5 -53.5t124.5 -18.5q51 0 107 14.5t101 48t75 88t30 132.5v467z" />
<glyph unicode="&#xd4;" horiz-adv-x="1398" d="M801 1577l-96 205l-113 -205h-193l205 356h201l194 -356h-198zM1288 514q0 -129 -50 -229.5t-133 -169t-187.5 -104.5t-212.5 -36q-119 0 -226.5 33t-189.5 97.5t-130 157.5t-48 216v467q0 129 50 229.5t133 169t187.5 104.5t212.5 36q119 0 226.5 -38t189.5 -106.5 t130 -167t48 -221.5v-438zM1018 967q0 66 -26.5 117t-70.5 86.5t-103.5 54t-123.5 18.5q-53 0 -108.5 -14.5t-100.5 -48t-74.5 -88t-29.5 -131.5v-467q0 -66 26.5 -118t70.5 -87t102.5 -53.5t124.5 -18.5q51 0 107 14.5t101 48t75 88t30 132.5v467z" />
<glyph unicode="&#xd5;" horiz-adv-x="1398" d="M1085 1845q-8 -49 -21 -95t-38 -81t-61.5 -55.5t-90.5 -20.5q-43 0 -84 11l-83 20l-86 24q-43 11 -89 11q-33 0 -49 -11.5t-26 -35.5q-4 -10 -8.5 -19.5t-10.5 -25.5l-125 26q10 53 27.5 99.5t44.5 80t63.5 53t88.5 19.5q43 0 84 -9t81 -21q41 -12 83 -22.5t87 -10.5 q29 0 43.5 10t26.5 33q10 14 23 49zM1288 514q0 -129 -50 -229.5t-133 -169t-187.5 -104.5t-212.5 -36q-119 0 -226.5 33t-189.5 97.5t-130 157.5t-48 216v467q0 129 50 229.5t133 169t187.5 104.5t212.5 36q119 0 226.5 -38t189.5 -106.5t130 -167t48 -221.5v-438z M1018 967q0 66 -26.5 117t-70.5 86.5t-103.5 54t-123.5 18.5q-53 0 -108.5 -14.5t-100.5 -48t-74.5 -88t-29.5 -131.5v-467q0 -66 26.5 -118t70.5 -87t102.5 -53.5t124.5 -18.5q51 0 107 14.5t101 48t75 88t30 132.5v467z" />
<glyph unicode="&#xd6;" horiz-adv-x="1398" d="M793 1595v269h225v-269h-225zM381 1595v269h225v-269h-225zM1288 514q0 -129 -50 -229.5t-133 -169t-187.5 -104.5t-212.5 -36q-119 0 -226.5 33t-189.5 97.5t-130 157.5t-48 216v467q0 129 50 229.5t133 169t187.5 104.5t212.5 36q119 0 226.5 -38t189.5 -106.5 t130 -167t48 -221.5v-438zM1018 967q0 66 -26.5 117t-70.5 86.5t-103.5 54t-123.5 18.5q-53 0 -108.5 -14.5t-100.5 -48t-74.5 -88t-29.5 -131.5v-467q0 -66 26.5 -118t70.5 -87t102.5 -53.5t124.5 -18.5q51 0 107 14.5t101 48t75 88t30 132.5v467z" />
<glyph unicode="&#xd7;" horiz-adv-x="1097" d="M864 225l-319 324l-316 -322l-104 105l317 321l-317 324l106 108l318 -325l315 323l105 -106l-316 -320l318 -323z" />
<glyph unicode="&#xd8;" horiz-adv-x="1398" d="M1288 514q0 -129 -50 -229.5t-133 -169t-187.5 -104.5t-212.5 -36q-170 0 -312 66l-80 -139l-137 75l86 150q-72 63 -111.5 151.5t-39.5 200.5v467q0 129 50 229.5t133 169t187.5 104.5t212.5 36q174 0 316 -76l77 133l136 -76l-86 -149q72 -68 111.5 -160t39.5 -205 v-438zM885 1194q-41 25 -89 37t-102 12q-53 0 -108.5 -14.5t-100.5 -48t-74.5 -88t-29.5 -131.5v-467q0 -35 7 -64t20 -55zM1018 967q0 57 -23 108l-473 -815q80 -43 183 -43q51 0 107 14.5t101 48t75 88t30 132.5v467z" />
<glyph unicode="&#xd9;" horiz-adv-x="1417" d="M641 1604l-270 372h264l182 -372h-176zM1280 524q0 -131 -42 -232.5t-116.5 -171t-180 -106.5t-232.5 -37t-232.5 33t-181.5 99.5t-117 165t-41 229.5v956h273v-923q0 -68 16 -125.5t53 -99.5t93.5 -65.5t136.5 -23.5q299 0 299 314v923h272v-936z" />
<glyph unicode="&#xda;" horiz-adv-x="1417" d="M811 1604h-174l180 372h264zM1280 524q0 -131 -42 -232.5t-116.5 -171t-180 -106.5t-232.5 -37t-232.5 33t-181.5 99.5t-117 165t-41 229.5v956h273v-923q0 -68 16 -125.5t53 -99.5t93.5 -65.5t136.5 -23.5q299 0 299 314v923h272v-936z" />
<glyph unicode="&#xdb;" horiz-adv-x="1417" d="M811 1577l-98 205l-111 -205h-194l204 356h201l197 -356h-199zM1280 524q0 -131 -42 -232.5t-116.5 -171t-180 -106.5t-232.5 -37t-232.5 33t-181.5 99.5t-117 165t-41 229.5v956h273v-923q0 -68 16 -125.5t53 -99.5t93.5 -65.5t136.5 -23.5q299 0 299 314v923h272v-936z " />
<glyph unicode="&#xdc;" horiz-adv-x="1417" d="M807 1595v269h225v-269h-225zM395 1595v269h226v-269h-226zM1280 524q0 -131 -42 -232.5t-116.5 -171t-180 -106.5t-232.5 -37t-232.5 33t-181.5 99.5t-117 165t-41 229.5v956h273v-923q0 -68 16 -125.5t53 -99.5t93.5 -65.5t136.5 -23.5q299 0 299 314v923h272v-936z " />
<glyph unicode="&#xdd;" horiz-adv-x="1245" d="M727 1604h-176l182 372h264zM754 582v-582h-265v586l-489 874h299l326 -612l323 612h297z" />
<glyph unicode="&#xde;" horiz-adv-x="1290" d="M1237 784q0 -84 -28.5 -164.5t-88 -145t-149.5 -104.5t-215 -40h-336v-330h-273v1460h273v-217h321q106 0 196.5 -29.5t157 -88t104.5 -143.5t38 -198zM971 786q0 63 -20.5 107.5t-56.5 71t-84 38t-105 11.5h-285v-455h289q119 0 190.5 56t71.5 171z" />
<glyph unicode="&#xdf;" horiz-adv-x="1292" d="M1212 383q0 -117 -56 -205t-146 -141q-109 -61 -240 -62q-63 0 -131 9.5t-117 31.5v207q47 -20 99.5 -29.5t87.5 -9.5q49 0 95 15.5t75 42.5q66 61 65 155q0 68 -30.5 113t-79 71.5t-107.5 37t-119 10.5v186h60q39 14 72.5 43t58 66t39 78.5t14.5 84.5q0 96 -58.5 152.5 t-166.5 56.5q-59 0 -102.5 -21.5t-72 -56t-43 -76.5t-14.5 -85v-1057h-264v1042q0 88 32 169t95.5 142.5t158.5 97.5t220 36q104 0 192.5 -26.5t150.5 -76t97 -119t35 -157.5q0 -109 -57.5 -199t-157.5 -131v-8q86 -27 146.5 -67.5t97.5 -91t54 -109t17 -119.5z" />
<glyph unicode="&#xe0;" horiz-adv-x="1107" d="M506 1190l-264 356h264l174 -356h-174zM750 0q-2 6 -3.5 19.5t-3.5 28.5t-3 28.5t-1 19.5h-4q-35 -37 -67.5 -59.5t-67.5 -34.5t-76 -17t-92 -5q-164 0 -264 83.5t-100 233.5q0 76 31.5 136.5t86 101t124 63.5t145.5 23h278v96q0 84 -52 120.5t-149 36.5 q-82 0 -135 -26.5t-53 -77.5v-37h-225v29q0 86 37 144.5t97 95t134 52t148 15.5q88 0 168.5 -16.5t143 -54t99.5 -102.5t37 -161v-510q0 -18 1 -52t3 -69.5t6 -65.5t8 -38h-251zM733 438h-246q-80 0 -128 -29.5t-48 -99.5q0 -66 50.5 -99.5t138.5 -33.5q76 0 122 17.5 t70.5 46t32.5 66.5t8 81v51z" />
<glyph unicode="&#xe1;" horiz-adv-x="1107" d="M606 1190h-174l174 356h264zM750 0q-2 6 -3.5 19.5t-3.5 28.5t-3 28.5t-1 19.5h-4q-35 -37 -67.5 -59.5t-67.5 -34.5t-76 -17t-92 -5q-164 0 -264 83.5t-100 233.5q0 76 31.5 136.5t86 101t124 63.5t145.5 23h278v96q0 84 -52 120.5t-149 36.5q-82 0 -135 -26.5 t-53 -77.5v-37h-225v29q0 86 37 144.5t97 95t134 52t148 15.5q88 0 168.5 -16.5t143 -54t99.5 -102.5t37 -161v-510q0 -18 1 -52t3 -69.5t6 -65.5t8 -38h-251zM733 438h-246q-80 0 -128 -29.5t-48 -99.5q0 -66 50.5 -99.5t138.5 -33.5q76 0 122 17.5t70.5 46t32.5 66.5t8 81 v51z" />
<glyph unicode="&#xe2;" horiz-adv-x="1107" d="M645 1190l-98 205l-111 -205h-194l204 356h201l197 -356h-199zM750 0q-2 6 -3.5 19.5t-3.5 28.5t-3 28.5t-1 19.5h-4q-35 -37 -67.5 -59.5t-67.5 -34.5t-76 -17t-92 -5q-164 0 -264 83.5t-100 233.5q0 76 31.5 136.5t86 101t124 63.5t145.5 23h278v96q0 84 -52 120.5 t-149 36.5q-82 0 -135 -26.5t-53 -77.5v-37h-225v29q0 86 37 144.5t97 95t134 52t148 15.5q88 0 168.5 -16.5t143 -54t99.5 -102.5t37 -161v-510q0 -18 1 -52t3 -69.5t6 -65.5t8 -38h-251zM733 438h-246q-80 0 -128 -29.5t-48 -99.5q0 -66 50.5 -99.5t138.5 -33.5 q76 0 122 17.5t70.5 46t32.5 66.5t8 81v51z" />
<glyph unicode="&#xe3;" horiz-adv-x="1107" d="M940 1464q-8 -49 -21.5 -95t-38 -81t-61.5 -55.5t-90 -20.5q-43 0 -85 11l-83 20q-43 12 -86 22.5t-88 10.5q-33 0 -49 -10.5t-27 -34.5l-8 -21l-10 -24l-125 24q10 53 27.5 100.5t44 81t63.5 53t88 19.5q43 0 84 -9t82 -21t83 -22.5t87 -10.5q29 0 43 10t27 33 q10 14 22 49zM750 0q-2 6 -3.5 19.5t-3.5 28.5t-3 28.5t-1 19.5h-4q-35 -37 -67.5 -59.5t-67.5 -34.5t-76 -17t-92 -5q-164 0 -264 83.5t-100 233.5q0 76 31.5 136.5t86 101t124 63.5t145.5 23h278v96q0 84 -52 120.5t-149 36.5q-82 0 -135 -26.5t-53 -77.5v-37h-225v29 q0 86 37 144.5t97 95t134 52t148 15.5q88 0 168.5 -16.5t143 -54t99.5 -102.5t37 -161v-510q0 -18 1 -52t3 -69.5t6 -65.5t8 -38h-251zM733 438h-246q-80 0 -128 -29.5t-48 -99.5q0 -66 50.5 -99.5t138.5 -33.5q76 0 122 17.5t70.5 46t32.5 66.5t8 81v51z" />
<glyph unicode="&#xe4;" horiz-adv-x="1107" d="M653 1200v270h226v-270h-226zM242 1200v270h225v-270h-225zM750 0q-2 6 -3.5 19.5t-3.5 28.5t-3 28.5t-1 19.5h-4q-35 -37 -67.5 -59.5t-67.5 -34.5t-76 -17t-92 -5q-164 0 -264 83.5t-100 233.5q0 76 31.5 136.5t86 101t124 63.5t145.5 23h278v96q0 84 -52 120.5 t-149 36.5q-82 0 -135 -26.5t-53 -77.5v-37h-225v29q0 86 37 144.5t97 95t134 52t148 15.5q88 0 168.5 -16.5t143 -54t99.5 -102.5t37 -161v-510q0 -18 1 -52t3 -69.5t6 -65.5t8 -38h-251zM733 438h-246q-80 0 -128 -29.5t-48 -99.5q0 -66 50.5 -99.5t138.5 -33.5 q76 0 122 17.5t70.5 46t32.5 66.5t8 81v51z" />
<glyph unicode="&#xe5;" horiz-adv-x="1107" d="M752 1386q0 -43 -17.5 -80.5t-48.5 -65.5t-71 -44t-85 -16q-102 0 -159.5 56t-57.5 140q0 43 16.5 81t46.5 66.5t68.5 45t85.5 16.5q100 0 161 -54.5t61 -144.5zM750 0q-2 6 -3.5 19.5t-3.5 28.5t-3 28.5t-1 19.5h-4q-35 -37 -67.5 -59.5t-67.5 -34.5t-76 -17t-92 -5 q-164 0 -264 83.5t-100 233.5q0 76 31.5 136.5t86 101t124 63.5t145.5 23h278v96q0 84 -52 120.5t-149 36.5q-82 0 -135 -26.5t-53 -77.5v-37h-225v29q0 86 37 144.5t97 95t134 52t148 15.5q88 0 168.5 -16.5t143 -54t99.5 -102.5t37 -161v-510q0 -18 1 -52t3 -69.5t6 -65.5 t8 -38h-251zM627 1380q0 41 -24.5 70t-72.5 29q-43 0 -67.5 -29t-24.5 -70t27 -68.5t65 -27.5q41 0 69 27.5t28 68.5zM733 438h-246q-80 0 -128 -29.5t-48 -99.5q0 -66 50.5 -99.5t138.5 -33.5q76 0 122 17.5t70.5 46t32.5 66.5t8 81v51z" />
<glyph unicode="&#xe6;" horiz-adv-x="1755" d="M1665 229q-72 -129 -188.5 -191.5t-255.5 -62.5q-129 0 -239 46.5t-175 140.5q-37 -57 -82 -93t-94 -55.5t-99.5 -26.5t-99.5 -7q-164 0 -264 83.5t-100 233.5q0 76 31.5 136.5t86 101t124 63.5t145.5 23h278v96q0 84 -52 120.5t-149 36.5q-82 0 -135 -26.5t-53 -77.5 v-37h-225v29q0 86 37 144.5t97 95t134 52t148 15.5q106 0 200 -23.5t158 -82.5q133 104 319 104q86 0 167 -25.5t144.5 -76t102.5 -128t39 -182.5v-202h-674v-58q0 -100 71 -155.5t171 -55.5q63 0 124.5 38t102.5 97zM1415 655q0 53 -17.5 91t-46 63t-64.5 36t-75 11 q-41 0 -79.5 -11t-70.5 -37t-51.5 -67t-19.5 -100v-14h424v28zM733 438h-246q-80 0 -128 -29.5t-48 -99.5q0 -66 50.5 -99.5t138.5 -33.5q76 0 122 17.5t70.5 46t32.5 66.5t8 81v51z" />
<glyph unicode="&#xe7;" horiz-adv-x="1073" d="M1022 385q0 -96 -33 -170t-88 -124t-128 -78.5t-150 -35.5l-19 -79h29q37 0 70.5 -6.5t60.5 -21.5t43 -41t16 -65q0 -43 -22.5 -74.5t-59 -52t-84 -30.5t-96.5 -10q-45 0 -106.5 10t-108.5 26v99q47 -16 108.5 -25.5t98.5 -9.5q57 0 81.5 15.5t24.5 41.5q0 18 -9 28.5 t-21.5 15.5t-27.5 7t-28 2l-106 5l39 168q-86 8 -163 39.5t-135 85t-92 128t-34 170.5v205q0 111 39 196t104.5 143.5t152.5 89t185 30.5q86 0 168 -25.5t146.5 -76t104.5 -128t40 -182.5v-20h-244v20q0 53 -19.5 91t-50 63t-68.5 36t-77 11q-41 0 -80 -11t-70.5 -37 t-51 -67t-19.5 -100v-246q0 -100 64.5 -155.5t164.5 -55.5q39 0 76 11.5t65.5 36t47 62.5t18.5 91v10h244v-10z" />
<glyph unicode="&#xe8;" horiz-adv-x="1105" d="M518 1190l-264 356h264l174 -356h-174zM1016 229q-72 -129 -188.5 -191.5t-256.5 -62.5q-96 0 -185 27t-156.5 80t-107.5 133t-40 188v205q0 111 39 196t104.5 143.5t152.5 89t185 30.5q86 0 167 -25.5t144.5 -76t102.5 -128t39 -182.5v-202h-674v-58q0 -100 70.5 -155.5 t171.5 -55.5q63 0 124.5 38t102.5 97zM766 655q0 53 -17.5 91t-46 63t-64.5 36t-75 11q-41 0 -80 -11t-70.5 -37t-51 -67t-19.5 -100v-14h424v28z" />
<glyph unicode="&#xe9;" horiz-adv-x="1105" d="M653 1190h-174l174 356h262zM1016 229q-72 -129 -188.5 -191.5t-256.5 -62.5q-96 0 -185 27t-156.5 80t-107.5 133t-40 188v205q0 111 39 196t104.5 143.5t152.5 89t185 30.5q86 0 167 -25.5t144.5 -76t102.5 -128t39 -182.5v-202h-674v-58q0 -100 70.5 -155.5 t171.5 -55.5q63 0 124.5 38t102.5 97zM766 655q0 53 -17.5 91t-46 63t-64.5 36t-75 11q-41 0 -80 -11t-70.5 -37t-51 -67t-19.5 -100v-14h424v28z" />
<glyph unicode="&#xea;" horiz-adv-x="1105" d="M680 1190l-98 205l-111 -205h-195l205 356h203l195 -356h-199zM1016 229q-72 -129 -188.5 -191.5t-256.5 -62.5q-96 0 -185 27t-156.5 80t-107.5 133t-40 188v205q0 111 39 196t104.5 143.5t152.5 89t185 30.5q86 0 167 -25.5t144.5 -76t102.5 -128t39 -182.5v-202h-674 v-58q0 -100 70.5 -155.5t171.5 -55.5q63 0 124.5 38t102.5 97zM766 655q0 53 -17.5 91t-46 63t-64.5 36t-75 11q-41 0 -80 -11t-70.5 -37t-51 -67t-19.5 -100v-14h424v28z" />
<glyph unicode="&#xeb;" horiz-adv-x="1105" d="M666 1200v270h225v-270h-225zM254 1200v270h227v-270h-227zM1016 229q-72 -129 -188.5 -191.5t-256.5 -62.5q-96 0 -185 27t-156.5 80t-107.5 133t-40 188v205q0 111 39 196t104.5 143.5t152.5 89t185 30.5q86 0 167 -25.5t144.5 -76t102.5 -128t39 -182.5v-202h-674v-58 q0 -100 70.5 -155.5t171.5 -55.5q63 0 124.5 38t102.5 97zM766 655q0 53 -17.5 91t-46 63t-64.5 36t-75 11q-41 0 -80 -11t-70.5 -37t-51 -67t-19.5 -100v-14h424v28z" />
<glyph unicode="&#xec;" horiz-adv-x="520" d="M176 1190l-264 356h264l174 -356h-174zM135 0v1049h250v-1049h-250z" />
<glyph unicode="&#xed;" horiz-adv-x="520" d="M342 1190h-174l174 356h262zM135 0v1049h250v-1049h-250z" />
<glyph unicode="&#xee;" horiz-adv-x="520" d="M362 1190l-98 205l-110 -205h-195l205 356h201l196 -356h-199zM135 0v1049h250v-1049h-250z" />
<glyph unicode="&#xef;" horiz-adv-x="520" d="M352 1200v270h226v-270h-226zM-57 1200v270h225v-270h-225zM135 0v1049h250v-1049h-250z" />
<glyph unicode="&#xf0;" horiz-adv-x="1118" d="M1032 412q0 -109 -41 -191t-107.5 -136t-151.5 -82t-175 -28q-96 0 -182 26t-150.5 78t-101.5 131t-37 185v238q0 102 34 182t92 135.5t135 86t163 36.5q12 2 25 2h24l-67 109l-220 -58l-49 162l174 45l-80 125l263 47l67 -110l213 55l49 -162l-170 -45l242 -387 q29 -45 40 -99.5t11 -117.5v-227zM774 655q0 98 -57.5 158.5t-159.5 60.5q-98 0 -155.5 -57t-57.5 -168v-246q0 -98 53.5 -158.5t159.5 -60.5q96 0 156.5 56.5t60.5 165.5v249z" />
<glyph unicode="&#xf1;" horiz-adv-x="1169" d="M999 1464q-8 -49 -21 -95t-38 -81t-61.5 -55.5t-90.5 -20.5q-43 0 -85 11l-82 20q-43 12 -85 22.5t-87 10.5q-33 0 -49.5 -10.5t-28.5 -34.5l-9 -21l-10 -24l-123 24q8 53 25.5 100.5t44.5 81t64.5 53t89.5 19.5q43 0 82.5 -9t80.5 -21t84 -22.5t86 -10.5q29 0 44.5 10 t27.5 33l9 21.5t14 27.5zM797 0v608q0 242 -195 242q-104 0 -160.5 -63.5t-56.5 -198.5v-588h-250v1049h244v-129h4q53 76 131 112.5t166 36.5q178 0 272.5 -104.5t94.5 -292.5v-672h-250z" />
<glyph unicode="&#xf2;" horiz-adv-x="1126" d="M506 1190l-264 356h264l174 -356h-174zM1040 416q0 -106 -41 -188.5t-108.5 -138.5t-152.5 -85t-171 -29q-96 0 -183 27t-152.5 79t-105.5 129t-40 177v240q0 106 41 188t108.5 138.5t152.5 85t171 28.5q94 0 182 -30.5t154 -87t105.5 -137.5t39.5 -181v-215zM786 653 q0 96 -64.5 148.5t-162.5 52.5q-39 0 -78 -11.5t-70.5 -36t-51 -63t-19.5 -96.5v-258q0 -96 64.5 -149.5t162.5 -53.5q39 0 78 11.5t71 36t51 63.5t19 96v260z" />
<glyph unicode="&#xf3;" horiz-adv-x="1126" d="M649 1190h-174l174 356h262zM1040 416q0 -106 -41 -188.5t-108.5 -138.5t-152.5 -85t-171 -29q-96 0 -183 27t-152.5 79t-105.5 129t-40 177v240q0 106 41 188t108.5 138.5t152.5 85t171 28.5q94 0 182 -30.5t154 -87t105.5 -137.5t39.5 -181v-215zM786 653 q0 96 -64.5 148.5t-162.5 52.5q-39 0 -78 -11.5t-70.5 -36t-51 -63t-19.5 -96.5v-258q0 -96 64.5 -149.5t162.5 -53.5q39 0 78 11.5t71 36t51 63.5t19 96v260z" />
<glyph unicode="&#xf4;" horiz-adv-x="1126" d="M666 1190l-99 205l-110 -205h-195l205 356h201l196 -356h-198zM1040 416q0 -106 -41 -188.5t-108.5 -138.5t-152.5 -85t-171 -29q-96 0 -183 27t-152.5 79t-105.5 129t-40 177v240q0 106 41 188t108.5 138.5t152.5 85t171 28.5q94 0 182 -30.5t154 -87t105.5 -137.5 t39.5 -181v-215zM786 653q0 96 -64.5 148.5t-162.5 52.5q-39 0 -78 -11.5t-70.5 -36t-51 -63t-19.5 -96.5v-258q0 -96 64.5 -149.5t162.5 -53.5q39 0 78 11.5t71 36t51 63.5t19 96v260z" />
<glyph unicode="&#xf5;" horiz-adv-x="1126" d="M948 1464q-8 -49 -21.5 -95t-38 -81t-61 -55.5t-90.5 -20.5q-43 0 -85 11l-83 20q-41 12 -84 22.5t-88 10.5q-33 0 -49 -10.5t-29 -34.5l-8 -21q-4 -10 -8 -24l-125 24q8 53 25.5 100.5t44 81t64.5 53t89 19.5q43 0 83 -9t81 -21t84 -22.5t86 -10.5q29 0 44.5 10t27.5 33 l9 21.5t13 27.5zM1040 416q0 -106 -41 -188.5t-108.5 -138.5t-152.5 -85t-171 -29q-96 0 -183 27t-152.5 79t-105.5 129t-40 177v240q0 106 41 188t108.5 138.5t152.5 85t171 28.5q94 0 182 -30.5t154 -87t105.5 -137.5t39.5 -181v-215zM786 653q0 96 -64.5 148.5 t-162.5 52.5q-39 0 -78 -11.5t-70.5 -36t-51 -63t-19.5 -96.5v-258q0 -96 64.5 -149.5t162.5 -53.5q39 0 78 11.5t71 36t51 63.5t19 96v260z" />
<glyph unicode="&#xf6;" horiz-adv-x="1126" d="M655 1200v270h226v-270h-226zM246 1200v270h225v-270h-225zM1040 416q0 -106 -41 -188.5t-108.5 -138.5t-152.5 -85t-171 -29q-96 0 -183 27t-152.5 79t-105.5 129t-40 177v240q0 106 41 188t108.5 138.5t152.5 85t171 28.5q94 0 182 -30.5t154 -87t105.5 -137.5 t39.5 -181v-215zM786 653q0 96 -64.5 148.5t-162.5 52.5q-39 0 -78 -11.5t-70.5 -36t-51 -63t-19.5 -96.5v-258q0 -96 64.5 -149.5t162.5 -53.5q39 0 78 11.5t71 36t51 63.5t19 96v260z" />
<glyph unicode="&#xf7;" horiz-adv-x="1226" d="M502 877v227h223v-227h-223zM139 575v148h948v-148h-948zM502 203v225h223v-225h-223z" />
<glyph unicode="&#xf8;" horiz-adv-x="1126" d="M1040 416q0 -106 -41 -188.5t-108.5 -138.5t-152.5 -85t-171 -29q-129 0 -235 48l-84 -132l-133 64l94 145q-57 53 -90 124t-33 163v240q0 106 41 188t108.5 138.5t152.5 85t171 28.5q127 0 238 -53l86 131l129 -64l-97 -149q57 -57 91 -133t34 -168v-215zM678 829 q-53 25 -119 25q-39 0 -78 -11.5t-70.5 -36t-51 -63t-19.5 -96.5v-258q0 -33 10 -67zM786 653q0 16 -2 31.5t-6 32.5l-325 -506q49 -25 114 -25q39 0 78 11.5t71 36t51 63.5t19 96v260z" />
<glyph unicode="&#xf9;" horiz-adv-x="1157" d="M526 1190l-264 356h264l174 -356h-174zM793 0v129h-7q-53 -76 -129.5 -112.5t-164.5 -36.5q-178 0 -273.5 106.5t-95.5 292.5v670h250v-609q0 -119 50 -180t146 -61q104 0 159.5 64.5t55.5 199.5v586h250v-1049h-241z" />
<glyph unicode="&#xfa;" horiz-adv-x="1157" d="M582 1190h-174l174 356h262zM793 0v129h-7q-53 -76 -129.5 -112.5t-164.5 -36.5q-178 0 -273.5 106.5t-95.5 292.5v670h250v-609q0 -119 50 -180t146 -61q104 0 159.5 64.5t55.5 199.5v586h250v-1049h-241z" />
<glyph unicode="&#xfb;" horiz-adv-x="1157" d="M680 1190l-98 205l-111 -205h-195l205 356h203l195 -356h-199zM793 0v129h-7q-53 -76 -129.5 -112.5t-164.5 -36.5q-178 0 -273.5 106.5t-95.5 292.5v670h250v-609q0 -119 50 -180t146 -61q104 0 159.5 64.5t55.5 199.5v586h250v-1049h-241z" />
<glyph unicode="&#xfc;" horiz-adv-x="1157" d="M690 1200v270h225v-270h-225zM279 1200v270h225v-270h-225zM793 0v129h-7q-53 -76 -129.5 -112.5t-164.5 -36.5q-178 0 -273.5 106.5t-95.5 292.5v670h250v-609q0 -119 50 -180t146 -61q104 0 159.5 64.5t55.5 199.5v586h250v-1049h-241z" />
<glyph unicode="&#xfd;" horiz-adv-x="1038" d="M606 1190h-174l174 356h264zM582 -174q-45 -125 -132.5 -176t-209.5 -51q-16 0 -35 1t-35 3q-20 2 -41 6v211q16 -2 35 -4q16 -2 34.5 -3t34.5 -1q47 0 77 25.5t44 62.5l45 125l-387 1024h273l243 -725h4l238 725h256z" />
<glyph unicode="&#xfe;" horiz-adv-x="1175" d="M1090 401q0 -106 -35 -186t-94.5 -133t-137.5 -80t-166 -27t-156.5 38t-109.5 91h-6v-499h-250v1855h248v-532h2q61 74 140 107.5t151 33.5q86 0 161.5 -26.5t131 -79t88.5 -130t33 -178.5v-254zM836 653q0 96 -64.5 148.5t-163.5 52.5q-39 0 -79 -13.5t-71.5 -41 t-52 -68.5t-20.5 -98v-244q0 -96 66.5 -149.5t164.5 -53.5q39 0 78 11.5t71 36t51.5 63.5t19.5 96v260z" />
<glyph unicode="&#xff;" horiz-adv-x="1038" d="M637 1200v270h225v-270h-225zM225 1200v270h226v-270h-226zM582 -174q-45 -125 -132.5 -176t-209.5 -51q-16 0 -35 1t-35 3q-20 2 -41 6v211q16 -2 35 -4q16 -2 34.5 -3t34.5 -1q47 0 77 25.5t44 62.5l45 125l-387 1024h273l243 -725h4l238 725h256z" />
<glyph unicode="&#x152;" horiz-adv-x="2150" d="M1022 0v57q-72 -41 -163 -61.5t-175 -20.5q-119 0 -223.5 33t-182 97.5t-122.5 157.5t-45 216v467q0 129 47 229.5t125.5 169t180 104.5t210.5 36q90 0 183 -20.5t165 -61.5v57h1010v-239h-742v-357h658v-239h-658v-385h750v-240h-1018zM1018 967q0 66 -26.5 117 t-70.5 86.5t-103.5 54t-123.5 18.5q-53 0 -108.5 -14.5t-100.5 -48t-74.5 -88t-29.5 -131.5v-467q0 -66 26.5 -118t70.5 -87t102.5 -53.5t124.5 -18.5q51 0 107 14.5t101 48t75 88t30 132.5v467z" />
<glyph unicode="&#x153;" horiz-adv-x="1810" d="M1720 229q-72 -129 -188.5 -191.5t-255.5 -62.5q-106 0 -202.5 32t-164.5 97q-70 -63 -160 -96t-182 -33q-96 0 -183 27t-152.5 79t-105.5 129t-40 177v240q0 106 41 188t108.5 138.5t152.5 85t171 28.5q102 0 194.5 -34t159.5 -99q66 66 158 99.5t197 33.5 q86 0 167 -25.5t144 -76t102 -128t39 -182.5v-202h-673v-58q0 -100 70.5 -155.5t170.5 -55.5q63 0 125 38t103 97zM1470 655q0 53 -17 91t-46 63t-64.5 36t-74.5 11q-41 0 -80 -11t-71 -37t-51 -67t-19 -100v-14h423v28zM786 403v250q0 96 -64.5 148.5t-162.5 52.5 q-39 0 -78 -11.5t-70.5 -36t-51 -63t-19.5 -96.5v-258q0 -96 64.5 -149.5t162.5 -53.5q39 0 78 11.5t71 36t51 63.5t19 96v10z" />
<glyph unicode="&#x178;" horiz-adv-x="1245" d="M715 1595v269h225v-269h-225zM305 1595v269h225v-269h-225zM754 582v-582h-265v586l-489 874h299l326 -612l323 612h297z" />
<glyph unicode="&#x2c6;" horiz-adv-x="786" d="M496 1190l-99 205l-110 -205h-195l205 356h203l194 -356h-198z" />
<glyph unicode="&#x2dc;" horiz-adv-x="1040" d="M911 1464q-8 -49 -21 -95t-38 -81t-61.5 -55.5t-90.5 -20.5q-43 0 -85 11l-83 20q-43 12 -86 22.5t-88 10.5q-33 0 -49 -10.5t-26 -34.5l-9 -21l-10 -24l-125 24q10 53 27.5 100.5t44.5 81t63.5 53t87.5 19.5q43 0 84 -9t82 -21t83 -22.5t87 -10.5q29 0 43.5 10t26.5 33 q6 10 11 21.5t14 27.5z" />
<glyph unicode="&#x2000;" horiz-adv-x="987" />
<glyph unicode="&#x2001;" horiz-adv-x="1976" />
<glyph unicode="&#x2002;" horiz-adv-x="987" />
<glyph unicode="&#x2003;" horiz-adv-x="1976" />
<glyph unicode="&#x2004;" horiz-adv-x="657" />
<glyph unicode="&#x2005;" horiz-adv-x="493" />
<glyph unicode="&#x2006;" horiz-adv-x="327" />
<glyph unicode="&#x2007;" horiz-adv-x="327" />
<glyph unicode="&#x2008;" horiz-adv-x="245" />
<glyph unicode="&#x2009;" horiz-adv-x="395" />
<glyph unicode="&#x200a;" horiz-adv-x="108" />
<glyph unicode="&#x2010;" horiz-adv-x="743" d="M76 469v193h592v-193h-592z" />
<glyph unicode="&#x2011;" horiz-adv-x="743" d="M76 469v193h592v-193h-592z" />
<glyph unicode="&#x2012;" horiz-adv-x="743" d="M76 469v193h592v-193h-592z" />
<glyph unicode="&#x2013;" horiz-adv-x="1208" d="M61 504v158h1086v-158h-1086z" />
<glyph unicode="&#x2014;" horiz-adv-x="1941" d="M61 504v158h1819v-158h-1819z" />
<glyph unicode="&#x2018;" horiz-adv-x="542" d="M135 928v289l109 253h133l-62 -243h88v-299h-268z" />
<glyph unicode="&#x2019;" horiz-adv-x="542" d="M301 928h-133l61 243h-90v299h269v-288z" />
<glyph unicode="&#x201a;" horiz-adv-x="546" d="M301 -240h-133l61 244h-90v299h269v-289z" />
<glyph unicode="&#x201c;" horiz-adv-x="937" d="M528 928v289l109 253h133l-61 -243h88v-299h-269zM135 928v289l109 253h133l-62 -243h88v-299h-268z" />
<glyph unicode="&#x201d;" horiz-adv-x="937" d="M694 928h-133l62 243h-91v299h269v-288zM301 928h-133l61 243h-90v299h269v-288z" />
<glyph unicode="&#x201e;" horiz-adv-x="937" d="M694 -240h-133l62 244h-91v299h269v-289zM301 -240h-133l61 244h-90v299h269v-289z" />
<glyph unicode="&#x2022;" horiz-adv-x="825" d="M596 745q0 -78 -53.5 -131t-128.5 -53q-78 0 -131.5 53.5t-53.5 130.5q0 78 53.5 130.5t131.5 52.5q76 0 129 -52.5t53 -130.5z" />
<glyph unicode="&#x2026;" horiz-adv-x="1497" d="M1065 0v305h268v-305h-268zM614 0v305h269v-305h-269zM164 0v305h268v-305h-268z" />
<glyph unicode="&#x202f;" horiz-adv-x="395" />
<glyph unicode="&#x2039;" horiz-adv-x="688" d="M496 131l-428 414l428 418l122 -113l-299 -305l302 -305z" />
<glyph unicode="&#x203a;" horiz-adv-x="688" d="M193 131l-123 113l299 305l-301 305l125 109l428 -414z" />
<glyph unicode="&#x205f;" horiz-adv-x="493" />
<glyph unicode="&#x20ac;" horiz-adv-x="1486" d="M1378 457q0 -123 -46 -213t-122.5 -149.5t-175 -89.5t-203.5 -30q-119 0 -218 33t-170.5 97.5t-111.5 157.5t-40 216v15h-203v143h203v180h-203v144h203q2 127 41 224t108.5 163.5t165.5 101.5t215 35q104 0 204.5 -30t178.5 -89t126 -149.5t48 -212.5v-46h-258v21 q0 72 -27.5 122t-71.5 81.5t-97.5 46t-102.5 14.5q-53 0 -100 -14.5t-82 -48t-56.5 -88t-21.5 -131.5h408v-144h-408v-180h408v-143h-408q0 -133 70.5 -205t199.5 -72q49 0 101.5 14.5t93.5 46t67.5 82t26.5 121.5v21h258v-45z" />
<glyph unicode="&#x2122;" horiz-adv-x="1353" d="M1102 838v397l-107 -283h-98l-106 281v-395h-136v637h179l112 -299l115 299h178v-637h-137zM410 1346v-508h-148v508h-168v129h484v-129h-168z" />
<glyph unicode="&#xe000;" horiz-adv-x="1050" d="M0 1050h1050v-1050h-1050v1050z" />
<glyph unicode="&#xfb01;" horiz-adv-x="1142" d="M758 1237v223h250v-223h-250zM758 0v1049h250v-1049h-250zM432 854v-854h-248v854h-149v195h149v135q0 301 303 301q31 0 63 -3t62 -7v-209q-27 4 -47 5t-47 1q-37 0 -61.5 -16.5t-24.5 -63.5v-143h180v-195h-180z" />
<glyph unicode="&#xfb02;" horiz-adv-x="1253" d="M1212 14q-41 -10 -96 -19t-104 -9q-92 0 -143.5 32.5t-76 78.5t-29.5 97.5t-5 86.5v1179h250v-1177q0 -35 19.5 -60.5t70.5 -25.5q35 0 57.5 2t56.5 6v-191zM432 854v-854h-248v854h-149v195h149v135q0 301 303 301q31 0 63 -3t62 -7v-209q-27 4 -47 5t-47 1 q-37 0 -61.5 -16.5t-24.5 -63.5v-143h180v-195h-180z" />
<glyph unicode="&#xfb03;" horiz-adv-x="1814" d="M1429 1237v223h250v-223h-250zM1429 0v1049h250v-1049h-250zM1079 854v-854h-248v854h-149v195h149v135q0 301 303 301q31 0 63 -3t62 -7v-209q-27 4 -47 5t-47 1q-37 0 -61.5 -16.5t-24.5 -63.5v-143h180v-195h-180zM432 854v-854h-248v854h-149v195h149v135 q0 301 303 301q31 0 63 -3t62 -7v-209q-27 4 -47 5t-47 1q-37 0 -61.5 -16.5t-24.5 -63.5v-143h180v-195h-180z" />
<glyph unicode="&#xfb04;" horiz-adv-x="1925" d="M1884 14q-41 -10 -96.5 -19t-104.5 -9q-92 0 -143 32.5t-76 78.5t-30 97.5t-5 86.5v1179h250v-1177q0 -35 19.5 -60.5t70.5 -25.5q35 0 57.5 2t57.5 6v-191zM1079 854v-854h-248v854h-149v195h149v135q0 301 303 301q31 0 63 -3t62 -7v-209q-27 4 -47 5t-47 1 q-37 0 -61.5 -16.5t-24.5 -63.5v-143h180v-195h-180zM432 854v-854h-248v854h-149v195h149v135q0 301 303 301q31 0 63 -3t62 -7v-209q-27 4 -47 5t-47 1q-37 0 -61.5 -16.5t-24.5 -63.5v-143h180v-195h-180z" />
</font>
</defs>
</svg>
