<?xml version="1.0" standalone="no"?>
<!DOCTYPE svg PUBLIC "-//W3C//DTD SVG 1.1//EN" "http://www.w3.org/Graphics/SVG/1.1/DTD/svg11.dtd" >
<svg xmlns="http://www.w3.org/2000/svg">
<metadata>
This is a custom SVG webfont generated by Font Squirrel.
Copyright   : Copyright c Feliciano Type Foundry 20022005 All rights reserved
Foundry     : Feliciano Type Foundry 
</metadata>
<defs>
<font id="webfontV2qNHsan" horiz-adv-x="1024" >
<font-face units-per-em="2048" ascent="1638" descent="-410" />
<missing-glyph horiz-adv-x="430" />
<glyph unicode=" "  horiz-adv-x="430" />
<glyph unicode="&#x09;" horiz-adv-x="430" />
<glyph unicode="&#xa0;" horiz-adv-x="430" />
<glyph unicode="!" horiz-adv-x="548" d="M471 1067l-135 -623h-84l86 623l70 393h133zM287 0h-142l39 225h142z" />
<glyph unicode="&#x22;" horiz-adv-x="749" d="M735 1278l-76 -248h-79l14 248l31 184h141zM444 1278l-75 -248h-80l14 248l31 184h141z" />
<glyph unicode="#" horiz-adv-x="1130" d="M1075 848h-180l-84 -422h180l-16 -88h-180l-72 -365h-84l70 365h-332l-70 -365h-84l70 365h-180l16 88h182l84 422h-182l16 88h183l65 336h84l-65 -336h331l66 336h84l-66 -336h181zM479 848l-84 -422h332l84 422h-332z" />
<glyph unicode="$" horiz-adv-x="1050" d="M942 1083q-41 92 -116.5 128t-174.5 36q-51 0 -98 -16.5t-83 -47t-57.5 -74.5t-21.5 -99q0 -63 39 -99.5t88 -62.5q47 -25 98.5 -46.5t100.5 -45.5q47 -23 89 -48.5t72.5 -60.5t49 -79t18.5 -103q0 -98 -39 -168t-100.5 -114t-137 -65.5t-149.5 -23.5l-43 -239h-100 l43 243q-131 16 -221 100.5t-103 233.5l121 12q18 -129 94 -184t197 -55q63 0 119.5 16.5t97.5 48t65.5 77.5t24.5 108q0 49 -20.5 84.5t-55 63.5t-80.5 48l-94 41q-53 23 -107.5 49.5t-97.5 62.5t-70.5 85t-27.5 117q0 82 32 145t84 107.5t120.5 69t142.5 28.5l37 205h100 l-37 -205q109 -10 184.5 -61.5t125.5 -159.5z" />
<glyph unicode="%" horiz-adv-x="1560" d="M821 1296v-29q0 -13 -4 -30l-47 -264q-20 -115 -105 -176.5t-198 -61.5q-90 0 -152.5 39t-62.5 139q0 29 6 60l47 264q20 117 100 182.5t199 65.5q92 0 154.5 -44.5t62.5 -144.5zM315 -39h-116l1169 1518h113zM1423 537q0 -31 -6 -58l-45 -264q-20 -115 -106 -176.5 t-199 -61.5q-90 0 -152.5 43t-62.5 142q0 27 6 55l45 262q20 117 100 182.5t199 65.5q92 0 156.5 -44t64.5 -146zM719 1290q0 61 -37 87t-94 26q-78 0 -121 -40t-57 -114l-50 -278q-2 -10 -3 -22.5t-1 -22.5q0 -59 35 -82t90 -23q76 0 124 38t61 112l49 278q2 10 3 20.5 t1 20.5zM1319 530q0 61 -37 87t-94 26q-152 0 -180 -151l-47 -279l-4.5 -22.5t-2.5 -22.5q0 -59 36 -82t91 -23q74 0 123 38t64 112l47 279q2 10 3 19t1 19z" />
<glyph unicode="&#x26;" horiz-adv-x="1376" d="M1386 735h-194q-14 -74 -26.5 -148.5t-26.5 -148.5q-18 -109 -60.5 -193.5t-111 -145t-169 -92.5t-235.5 -32q-84 0 -162.5 25t-140 74t-99.5 122.5t-38 170.5q0 78 27.5 146.5t76.5 122.5t114 95t138 64v6q-39 14 -68.5 43.5t-50 66.5t-31 80t-10.5 84q0 98 35 174 t96.5 128.5t144.5 80t179 27.5q158 0 252 -60.5t158 -195.5l-109 -51q-49 104 -128 151t-199 47q-141 0 -219 -78.5t-78 -216.5q0 -102 62 -170.5t159 -68.5h733zM610 735q-70 0 -133 -28.5t-111.5 -76.5t-77 -112.5t-28.5 -136.5t28.5 -126t76 -92t106.5 -57.5t119 -19.5 q98 0 171 22.5t124 64.5t81.5 100.5t43.5 132.5q16 84 29.5 164.5t29.5 164.5h-459z" />
<glyph unicode="'" horiz-adv-x="458" d="M457 1278l-76 -248h-80l14 248l31 184h141z" />
<glyph unicode="(" horiz-adv-x="565" d="M670 1583q-74 -129 -128.5 -243.5t-94 -230.5t-69.5 -237.5t-54 -263.5q-45 -254 -46.5 -499.5t48.5 -481.5h-70q-41 86 -60.5 211t-21.5 262.5t9.5 271.5t29.5 236q18 106 49 229.5t78 252.5t110.5 254.5t147.5 238.5h72z" />
<glyph unicode=")" horiz-adv-x="565" d="M422 608q-18 -102 -54 -236t-87.5 -271.5t-114 -262.5t-133.5 -211h-70q131 236 218 481.5t132 499.5q25 141 37 263t12 238t-13 230.5t-42 243.5h72q45 -113 63.5 -238.5t20.5 -254.5t-10.5 -252.5t-30.5 -229.5z" />
<glyph unicode="*" horiz-adv-x="854" d="M606 1145l123 -240l-84 -51l-131 258l-219 -258l-74 55l203 242l-219 141l65 84l217 -137l48 272h98l-47 -272l264 137l37 -84z" />
<glyph unicode="+" horiz-adv-x="1220" d="M1075 606h-399l-72 -405h-94l72 405h-402l17 90h401l72 406h94l-72 -406h400z" />
<glyph unicode="," horiz-adv-x="458" d="M246 6l-103 -207h-80l89 211h-46l39 221h142z" />
<glyph unicode="-" horiz-adv-x="745" d="M639 485h-555l22 129h556z" />
<glyph unicode="." horiz-adv-x="458" d="M244 0h-142l41 231h142z" />
<glyph unicode="/" horiz-adv-x="681" d="M61 -76h-114l772 1565h110z" />
<glyph unicode="0" horiz-adv-x="1146" d="M1141 1159q0 -25 -3 -48.5t-8 -45.5l-116 -670q-16 -94 -63.5 -171t-116 -132t-154.5 -86t-180 -31q-78 0 -145.5 18.5t-119 58.5t-81 100.5t-29.5 144.5q0 49 8 88l58 337l61 337q16 96 64.5 175t118 134t156.5 86t185 31q78 0 144.5 -19.5t115.5 -60.5t77 -102.5 t28 -143.5zM1014 1137q0 121 -70 183t-188 62q-76 0 -140.5 -24.5t-113.5 -69.5t-82 -105.5t-45 -133.5l-115 -648q-6 -35 -6 -69q0 -123 72.5 -189.5t193.5 -66.5q72 0 134.5 24.5t110.5 68.5t81 103.5t45 128.5l117 660q6 37 6 76z" />
<glyph unicode="1" horiz-adv-x="1146" d="M936 0h-844l19 102h368l217 1235l-344 -49l2 92l385 80h103l-240 -1358h352z" />
<glyph unicode="2" horiz-adv-x="1105" d="M1051 1163q0 -123 -42 -225t-108.5 -191.5t-148.5 -168.5l-164 -158l-322 -303l-2 -11h627l-19 -106h-780l17 94l407 393l148 142q74 70 132 147.5t95 167.5t37 205q0 55 -19.5 98t-54.5 73t-81 46t-97 16q-113 0 -194 -53t-101 -172l-6 -33h-113q31 186 147.5 273.5 t299.5 87.5q72 0 134 -22.5t108 -63.5t73 -101.5t27 -134.5z" />
<glyph unicode="3" horiz-adv-x="1126" d="M1075 1178q0 -61 -20.5 -125t-57 -119t-88 -98t-110.5 -64l-2 -4q94 -35 147 -118t53 -183q0 -109 -43 -199t-114.5 -155.5t-168 -101.5t-202.5 -36q-61 0 -123.5 13.5t-113 43t-81 80t-30.5 124.5q0 25 5 50t9 50h117q-10 -41 -10 -76q0 -53 24.5 -88t61.5 -55.5 t83 -29.5t89 -9q82 0 148.5 28.5t113.5 80t72.5 120t25.5 146.5q0 55 -18.5 102t-51 82t-78.5 55.5t-100 20.5h-123l19 100h115q74 0 133 28.5t102 77t65.5 112t22.5 132.5q0 49 -19.5 90t-52 70t-75.5 45t-90 16q-131 0 -209 -62t-99 -198h-112l8 47q14 80 55 138.5 t99.5 97.5t130 58.5t145.5 19.5q70 0 133.5 -20.5t111.5 -59.5t75.5 -96t27.5 -131z" />
<glyph unicode="4" horiz-adv-x="1146" d="M1042 422h-206l-74 -422h-117l74 422h-606l18 104l729 934h158l-164 -936h207zM872 1331l-616 -807h481l142 807h-7z" />
<glyph unicode="5" horiz-adv-x="1105" d="M1087 1358h-604l-127 -543q78 53 158 75.5t174 22.5q74 0 135.5 -25.5t105.5 -70.5t67.5 -107.5t23.5 -136.5q0 -23 -2 -47t-6 -47q-18 -109 -62.5 -201t-112 -159.5t-158.5 -105.5t-206 -38q-63 0 -125.5 13.5t-112 44t-80 81t-30.5 124.5q0 25 4 49l8 49h117 q-4 -18 -6 -45t-2 -45q0 -49 23.5 -82t60.5 -52.5t81 -26.5t87 -7q86 0 150.5 28.5t110.5 79t74.5 118t43.5 145.5q4 25 7 49t3 49q0 125 -68.5 192.5t-193.5 67.5q-86 0 -165 -32t-145 -87l-94 27l178 745h707z" />
<glyph unicode="6" horiz-adv-x="1126" d="M1120 1217q0 -41 -10 -93h-117q4 16 6 33t2 33q0 53 -23.5 90t-61 59.5t-85 32.5t-94.5 10q-143 0 -229 -86t-111 -223l-61 -358q66 80 169 129t208 49q59 0 116.5 -14.5t101.5 -45t71.5 -79.5t27.5 -117q0 -16 -1 -30.5t-3 -31.5l-39 -217q-16 -96 -61 -167.5 t-109.5 -118.5t-147.5 -72t-175 -25q-156 0 -251.5 84t-95.5 244q0 51 9 90l116 666q16 94 58.5 172t106 134t144.5 88t177 32q63 0 128.5 -14.5t117 -46t84 -82.5t32.5 -125zM905 610q0 51 -20.5 87t-54 56.5t-76.5 30t-88 9.5q-61 0 -124 -27t-114 -71t-87 -100t-48 -118 q-6 -39 -14.5 -79t-8.5 -81q0 -117 70 -178t184 -61q129 0 222.5 68.5t115.5 197.5l37 217q6 24 6 49z" />
<glyph unicode="7" horiz-adv-x="1064" d="M1133 1343l-897 -1343h-127l909 1356h-725l18 104h842z" />
<glyph unicode="8" horiz-adv-x="1105" d="M1100 1204q0 -35 -6 -71l-13 -72q-20 -111 -91.5 -193t-178.5 -112q82 -27 133 -86.5t51 -149.5q0 -39 -8 -79l-16 -81q-16 -92 -63.5 -163.5t-114 -120.5t-150.5 -75t-174 -26q-70 0 -134.5 15.5t-114.5 49.5t-79.5 89t-29.5 133q0 37 6 74l18 106q18 104 92 185.5 t170 122.5q-72 33 -109.5 92t-37.5 137q0 33 6 65l12 66q16 88 60.5 157.5t108 118t143 74t165.5 25.5q68 0 131.5 -14.5t112.5 -48t80 -87t31 -131.5zM973 1180q0 53 -21.5 91t-57.5 62.5t-81 36.5t-92 12q-57 0 -111.5 -18t-98.5 -51t-74.5 -80t-41.5 -105l-14 -81 q-2 -14 -3 -26.5t-1 -27.5q0 -53 20.5 -92t55 -63.5t80 -35.5t94.5 -11q55 0 109.5 18t99.5 52t75.5 81t40.5 105l17 86q2 10 3 22.5t1 24.5zM864 512q0 55 -22.5 92t-59.5 58.5t-83 30.5t-93 9q-125 0 -221 -59t-121 -190l-13 -73q-7 -38 -7 -73q0 -53 19.5 -95t53 -71.5 t78.5 -45t97 -15.5q63 0 122.5 18.5t105.5 54t77.5 87t44.5 116.5q8 39 15 78t7 78z" />
<glyph unicode="9" horiz-adv-x="1110" d="M1085 1161q0 -23 -2 -45t-6 -45l-119 -674q-16 -94 -59 -172t-106.5 -133t-146.5 -86t-177 -31q-66 0 -129.5 13.5t-114.5 45.5t-82.5 82t-31.5 124q0 25 3 48t7 48h117q-6 -35 -7 -66q0 -53 20.5 -90t54.5 -59.5t77 -32.5t90 -10q143 0 239.5 87t121.5 224l61 344 q-31 -43 -74 -77.5t-93 -58.5t-104.5 -36t-107.5 -12q-61 0 -118.5 17.5t-101.5 51t-69.5 85t-25.5 118.5q0 33 6 64l37 217q16 94 61 166.5t109.5 120t147.5 72t177 24.5q154 0 250 -82t96 -242zM961 1137q0 117 -69 181t-185 64q-129 0 -221.5 -68.5t-114.5 -197.5 l-39 -217q-2 -12 -3 -25.5t-1 -25.5q0 -51 19.5 -89t51 -62.5t74.5 -36t90 -11.5q61 0 123 26.5t113 69.5t88 99.5t47 116.5l17 87q10 44 10 89z" />
<glyph unicode=":" horiz-adv-x="458" d="M373 721h-142l41 227h142zM246 0h-142l41 227h142z" />
<glyph unicode=";" horiz-adv-x="458" d="M373 721h-142l41 227h142zM246 6l-103 -207h-80l89 211h-46l39 221h142z" />
<glyph unicode="&#x3c;" horiz-adv-x="1220" d="M338 659l676 -315l-58 -86l-747 358l14 84l875 359l26 -86z" />
<glyph unicode="=" horiz-adv-x="1220" d="M1126 788h-895l17 91h895zM1063 430h-895l16 90h895z" />
<glyph unicode="&#x3e;" horiz-adv-x="1220" d="M1059 616l-875 -358l-26 86l786 315l-676 314l58 86l747 -359z" />
<glyph unicode="?" horiz-adv-x="1042" d="M1042 1196q0 -70 -18 -130t-51 -113.5t-76 -100.5t-94 -90q-31 -27 -62.5 -50.5t-62.5 -52.5q-45 -41 -77 -80.5t-42 -103.5l-12 -65h-107l13 67q14 84 57 142.5t97.5 107.5t113.5 94t108 105q39 45 55.5 88t26.5 102q6 27 7 58q0 104 -62.5 157t-161.5 53 q-115 0 -204 -59t-109 -176l-14 -80h-113l12 68q14 86 55 151.5t101.5 109.5t136.5 65.5t160 21.5q68 0 127 -17.5t103 -53.5t68.5 -90t24.5 -128zM487 0h-141l39 225h141z" />
<glyph unicode="@" horiz-adv-x="1953" d="M1806 799q0 -98 -31.5 -205t-91 -194t-147.5 -143t-201 -56q-78 0 -124 51t-62 123q-49 -72 -117.5 -120t-161.5 -48q-55 0 -96 27.5t-66.5 69.5t-39 93.5t-13.5 100.5q0 86 28 178t81 168t130 124t175 48h281l-105 -567q-2 -10 0 -19.5l4 -19.5q10 -53 41 -84t84 -31 q86 0 148.5 56.5t102.5 137t58.5 171t18.5 159.5q0 129 -49 229.5t-133 168t-195 103.5t-231 36q-172 0 -311.5 -61.5t-235.5 -169t-148.5 -253t-52.5 -313.5q0 -121 28.5 -227.5t88 -192.5t149.5 -147.5t211 -89.5q66 -16 136.5 -20.5t136.5 -4.5q92 0 176 15.5t170 39.5 l24 -84q-94 -29 -185 -47t-189 -18q-72 0 -147 5t-144 22q-139 31 -244.5 100.5t-176.5 167.5t-106.5 221t-35.5 262q0 193 64.5 355.5t180 281.5t277.5 184.5t356 65.5q150 0 277 -44t219 -127t143 -203.5t51 -274.5zM1042 909q-66 0 -115.5 -37.5t-84.5 -95t-53.5 -123 t-18.5 -121.5q0 -37 4 -74.5t17.5 -70.5t41 -53.5t74.5 -20.5q59 0 102.5 33t75 84t53 116.5t36 132t23.5 127t17 103.5h-172z" />
<glyph unicode="A" horiz-adv-x="1314" d="M1024 0l-78 457h-581l-236 -457h-135l782 1473h119l254 -1473h-125zM803 1296h-4l-379 -735h508z" />
<glyph unicode="B" horiz-adv-x="1230" d="M1198 1151q0 -141 -81 -245.5t-216 -147.5l-2 -10q102 -27 155.5 -110t53.5 -189q0 -109 -41 -193t-110.5 -140.5t-162 -86t-194.5 -29.5h-502l256 1460h506q70 0 131.5 -19.5t107.5 -58.5t72.5 -97t26.5 -134zM1063 1141q0 55 -19.5 94t-53.5 64.5t-78 38t-93 12.5h-360 l-97 -545h340q76 0 142.5 23.5t115 66.5t76 105.5t27.5 140.5zM973 438q0 63 -24.5 111.5t-64.5 81.5t-92.5 50t-107.5 17h-340l-104 -589h346q82 0 152.5 20.5t122.5 62t82 103t30 143.5z" />
<glyph unicode="C" horiz-adv-x="1273" d="M1278 1165q0 -29 -5 -56.5t-9 -55.5h-121q4 23 7 45t3 45q0 70 -30.5 116t-80 72.5t-110 36.5t-117.5 10q-182 0 -303 -103.5t-152 -279.5l-43 -252l-43 -251q-8 -41 -8 -93q0 -154 91.5 -235.5t236.5 -81.5q76 0 147.5 15.5t130 50t98.5 90t54 137.5l6 35h121l-10 -54 q-18 -98 -74.5 -170.5t-134.5 -119t-171 -69t-186 -22.5q-92 0 -172.5 25t-141 74t-96.5 123.5t-36 177.5q0 49 10 106l86 500q20 125 77.5 220t139.5 158.5t184.5 95.5t215.5 32q76 0 152.5 -16.5t140 -55.5t103.5 -100.5t40 -149.5z" />
<glyph unicode="D" horiz-adv-x="1294" d="M1274 1110q0 -29 -3 -54.5t-7 -54.5l-44 -265q-22 -132 -49 -263q-47 -242 -192 -357.5t-369 -115.5h-512l258 1460h510q86 0 161 -19.5t129 -61.5t86 -108.5t32 -160.5zM1141 1071q0 74 -23.5 126t-64.5 86t-98.5 50.5t-127.5 16.5h-366l-217 -1239h381q170 0 278.5 96 t136.5 260l93 518q8 39 8 86z" />
<glyph unicode="E" horiz-adv-x="1146" d="M1174 1350h-713l-94 -535h557l-19 -110h-557l-104 -594h712l-20 -111h-838l258 1460h838z" />
<glyph unicode="F" horiz-adv-x="1081" d="M1174 1350h-713l-94 -535h557l-19 -110h-557l-125 -705h-125l258 1460h838z" />
<glyph unicode="G" horiz-adv-x="1318" d="M1282 1167q0 -29 -5 -57.5t-9 -56.5h-121l8 45q4 23 4 45q0 70 -31.5 116t-81 72.5t-109.5 36.5t-118 10q-190 0 -307 -108.5t-150 -290.5l-90 -512q-8 -41 -8 -90q0 -78 24.5 -133.5t69.5 -91t106.5 -53t133.5 -17.5q174 0 296 80t155 260l34 199h-362l18 110h484 l-49 -289q-23 -135 -76.5 -225t-132 -143.5t-179 -76t-217.5 -22.5q-90 0 -171 21.5t-141 67t-95 116t-35 170.5q0 29 3 54.5t7 52.5l88 506q20 121 76.5 218t137.5 164.5t185.5 104.5t223.5 37q76 0 152.5 -16.5t139 -54.5t102.5 -99.5t40 -149.5z" />
<glyph unicode="H" horiz-adv-x="1359" d="M1116 0h-125l125 702h-768l-125 -702h-125l258 1460h125l-114 -643h768l114 643h125z" />
<glyph unicode="I" horiz-adv-x="1056" d="M1071 1350h-319l-217 -1239h319l-20 -111h-764l20 111h320l217 1239h-320l21 110h764z" />
<glyph unicode="J" horiz-adv-x="1196" d="M1030 442q-18 -106 -62 -192t-113 -147.5t-159 -94.5t-200 -33q-78 0 -149 16.5t-125 53.5t-87 97.5t-33 148.5q0 63 13.5 126.5t23.5 127.5h125l-21 -113q-11 -57 -12 -115q0 -68 24 -112.5t63.5 -72.5t93 -39t112.5 -11q76 0 139.5 26.5t111.5 72.5t81 109.5t45 135.5 l182 1034h127z" />
<glyph unicode="K" horiz-adv-x="1214" d="M662 844l399 -844h-125l-365 768l-256 -229l-94 -539h-123l258 1460h123l-139 -782l829 782h144z" />
<glyph unicode="L" horiz-adv-x="1081" d="M936 0h-838l258 1460h127l-237 -1349h710z" />
<glyph unicode="M" horiz-adv-x="1560" d="M1317 0h-125l233 1327h-8l-608 -1001h-102l-246 1001h-10l-234 -1327h-119l258 1460h195l231 -960h11l573 960h209z" />
<glyph unicode="N" horiz-adv-x="1345" d="M1102 -4h-115l-549 1249h-10l-219 -1245h-111l258 1460h111l553 -1243h10l221 1243h109z" />
<glyph unicode="O" horiz-adv-x="1318" d="M1294 1110q0 -49 -10 -106l-44 -262q-22 -130 -48 -259q-25 -129 -81 -225t-138 -158.5t-184.5 -93.5t-219.5 -31q-90 0 -171 21.5t-141 67t-95 117t-35 169.5q0 29 3 54.5t7 52.5l44 254l44 252q20 119 74.5 216t135.5 165.5t185.5 105.5t225.5 37q92 0 173 -20.5 t142.5 -66.5t97 -118t35.5 -172zM1157 1087q0 78 -26.5 133.5t-72.5 89t-107.5 49t-133.5 15.5q-94 0 -171 -29.5t-135 -84t-96 -129t-55 -164.5l-88 -500q-8 -39 -8 -90q0 -78 25.5 -133.5t69.5 -90t105.5 -51t133.5 -16.5q186 0 306 101.5t153 281.5l46 265l46 265 q4 23 6 44t2 44z" />
<glyph unicode="P" horiz-adv-x="1220" d="M1204 1094q0 -125 -45 -219.5t-123 -157t-182 -94t-225 -31.5h-301l-105 -592h-125l258 1460h422q80 0 157 -23.5t137.5 -69.5t96 -114.5t35.5 -158.5zM1077 1071q0 82 -29.5 136.5t-77.5 86t-108.5 44t-122.5 12.5h-278l-113 -648h281q94 0 176 19.5t142.5 63.5t95 114 t34.5 172z" />
<glyph unicode="Q" horiz-adv-x="1318" d="M1294 1110q0 -49 -10 -106l-92 -521q-18 -104 -66.5 -194t-126.5 -160l168 -154l-88 -86l-182 168q-154 -82 -328 -82q-90 0 -171 21.5t-141 67t-95 117t-35 169.5q0 29 3 54.5t7 54.5l88 506q20 119 74.5 215t135.5 164.5t185.5 105.5t225.5 37q92 0 173 -20.5 t142.5 -66.5t97 -118t35.5 -172zM1157 1087q0 78 -26.5 133.5t-72.5 89t-107.5 49t-133.5 15.5q-94 0 -171 -29.5t-135 -83t-96 -128t-55 -164.5l-88 -500q-8 -41 -8 -92q0 -78 25.5 -133.5t69.5 -90t105.5 -51t133.5 -16.5q119 0 219 47l-137 127l86 88l156 -143 q55 53 87.5 121.5t47.5 144.5l92 528q4 23 6 44t2 44z" />
<glyph unicode="R" horiz-adv-x="1257" d="M1221 1087q0 -109 -34 -192.5t-96.5 -144t-149.5 -98.5t-193 -52l331 -600h-143l-315 592h-293l-105 -592h-125l258 1460h447q84 0 159.5 -24.5t133 -72.5t91.5 -118t34 -158zM1083 1077q0 72 -26.5 124t-70.5 85t-103.5 48.5t-124.5 15.5h-297l-113 -648h299 q94 0 175 19.5t138.5 63.5t90 116t32.5 176z" />
<glyph unicode="S" horiz-adv-x="1183" d="M1081 1182q-49 104 -142 149t-214 45q-66 0 -124 -20.5t-104 -58t-73 -94t-27 -128.5q0 -51 20.5 -88t56.5 -65.5t82 -52t97 -46.5l144 -65q74 -33 134 -78t98 -108.5t38 -157.5q0 -121 -50 -205t-128 -136.5t-172 -75t-185 -22.5q-94 0 -176 25t-143 74t-100 121.5 t-47 169.5l122 12q23 -152 118 -221.5t245 -69.5q78 0 147.5 20.5t121.5 60.5t83 99.5t31 136.5q0 63 -26.5 109.5t-69.5 80.5t-100 59l-113 50q-66 27 -130.5 59t-115.5 75t-82 99t-31 136q0 102 41 179t109.5 129.5t158 79t183.5 26.5q158 0 263 -58.5t169 -193.5z" />
<glyph unicode="T" horiz-adv-x="1118" d="M1202 1348h-418l-237 -1348h-133l237 1348h-422l21 112h973z" />
<glyph unicode="U" horiz-adv-x="1294" d="M1333 1460l-93 -528l-93 -531q-18 -104 -73.5 -184t-133.5 -134t-173 -81t-196 -27q-78 0 -156.5 19.5t-143 59.5t-104.5 103.5t-40 153.5q0 39 6 76l191 1073h129l-185 -1048q-4 -16 -5 -41t-1 -41q0 -72 28.5 -119t76 -74.5t108 -40t121.5 -12.5q76 0 147.5 21.5 t130 62.5t99.5 102.5t55 139.5l186 1050h119z" />
<glyph unicode="V" horiz-adv-x="1198" d="M594 -12h-139l-199 1470h123l170 -1284h14l615 1284h137z" />
<glyph unicode="W" horiz-adv-x="1839" d="M1284 -12h-119l-102 1267h-8l-555 -1267h-117l-129 1472h115l106 -1265h6l547 1265h133l94 -1270h9l548 1270h125z" />
<glyph unicode="X" horiz-adv-x="1114" d="M676 729l280 -729h-118l-250 649l-473 -649h-135l561 758l-269 702h121l234 -624l454 624h133z" />
<glyph unicode="Y" horiz-adv-x="1146" d="M678 625l-111 -625h-129l111 625l-305 835h131l256 -723l516 723h135z" />
<glyph unicode="Z" horiz-adv-x="1130" d="M1188 1384l-983 -1278h751l-18 -106h-905l14 86l973 1268h-725l18 106h889z" />
<glyph unicode="[" horiz-adv-x="778" d="M889 1499h-277l-319 -1823h276l-16 -86h-395l352 1995h395z" />
<glyph unicode="\" horiz-adv-x="681" d="M436 -76l-215 1565h94l220 -1565h-99z" />
<glyph unicode="]" horiz-adv-x="778" d="M289 -410h-395l14 86h276l322 1823h-277l17 86h395z" />
<glyph unicode="^" horiz-adv-x="1583" d="M1337 0h-1347l256 1460h1347z" />
<glyph unicode="_" d="M1012 -254h-1018l18 98h1018z" />
<glyph unicode="`" horiz-adv-x="614" d="M496 1176l-209 360h147l162 -360h-100z" />
<glyph unicode="a" horiz-adv-x="1060" d="M834 0h-117l26 150h-6q-59 -82 -141 -128.5t-184 -46.5q-63 0 -118.5 16.5t-97.5 50.5t-66 84t-24 118q0 33 7 63l67 381q14 78 47 143.5t83 113.5t118 75t152 27q33 0 75.5 -8.5t84.5 -25t77 -41t49 -57.5h8l21 109h121zM838 723q0 53 -22.5 95t-59.5 72t-83 45t-95 15 q-57 0 -103.5 -21.5t-81.5 -57t-57.5 -83t-30.5 -100.5l-65 -366q-6 -29 -7 -58q0 -96 55.5 -141t147.5 -45q57 0 113.5 23.5t104.5 63.5t81 92t43 108l56 313q2 10 3 22.5t1 22.5z" />
<glyph unicode="b" horiz-adv-x="1060" d="M989 782q0 -35 -6 -67l-68 -381q-14 -80 -52 -146.5t-94 -113.5t-128 -73t-154 -26q-37 0 -75.5 8.5t-75.5 26t-66.5 43t-44.5 60.5h-8l-20 -113h-117l258 1460h121l-105 -594h6q61 76 141.5 128.5t194.5 52.5q61 0 115.5 -16.5t93.5 -49.5t61.5 -83t22.5 -116zM860 760 q0 96 -54 140t-147 44q-57 0 -114.5 -26.5t-105.5 -69.5t-81.5 -97.5t-44.5 -109.5l-49 -283q-2 -12 -3 -37.5t-1 -37.5q0 -102 70.5 -156.5t171.5 -54.5q57 0 106 20.5t86 56t61.5 83t35.5 102.5l31 183l32 183q6 27 6 60z" />
<glyph unicode="c" horiz-adv-x="952" d="M938 797q0 -41 -10 -88h-113q4 16 6 30.5t2 30.5q0 49 -18.5 83t-49 55.5t-70.5 30.5t-83 9q-78 0 -132 -24.5t-93 -67.5t-61.5 -102.5t-34.5 -128.5l-41 -234q-4 -25 -6.5 -44t-2.5 -42q0 -113 65.5 -169t176.5 -56q39 0 80 11t80 30.5t72.5 44t60.5 53.5l72 -53 q-72 -86 -168.5 -138.5t-208.5 -52.5q-76 0 -140.5 19.5t-112.5 58.5t-76 97.5t-28 138.5q0 29 4 50l7 50l43 244q16 92 54 168t96.5 131t135 86t172.5 31q61 0 120 -13.5t103 -42t71.5 -77.5t27.5 -119z" />
<glyph unicode="d" horiz-adv-x="1060" d="M836 0h-117l24 150h-2q-66 -86 -153.5 -130.5t-188.5 -44.5q-61 0 -115.5 16.5t-93 49.5t-61.5 83t-23 116q0 33 7 67l67 381q29 166 140.5 262.5t275.5 96.5q33 0 75 -8.5t79.5 -25t69.5 -41t46 -57.5h8l97 545h121zM838 729q0 51 -23.5 92t-62.5 70t-86.5 44t-96.5 15 q-57 0 -102 -20.5t-78 -56t-53.5 -83t-30.5 -102.5l-65 -366q-4 -14 -4 -28v-30q0 -96 54 -141t146 -45q57 0 114.5 23.5t104.5 63.5t80 91t43 109l56 313q2 12 3 24.5t1 26.5z" />
<glyph unicode="e" horiz-adv-x="1019" d="M956 745q0 -68 -13 -136t-23 -134h-666q-8 -35 -14.5 -72.5t-6.5 -74.5q0 -127 79 -187.5t200 -60.5q78 0 151.5 42t127.5 97l71 -53q-72 -86 -168 -138.5t-209 -52.5q-78 0 -147.5 17.5t-120.5 56.5t-81 99.5t-30 146.5q0 25 2.5 49.5t6.5 48.5l41 230 q35 195 150.5 310.5t316.5 115.5q74 0 134 -19.5t105 -57.5t69.5 -95.5t24.5 -131.5zM840 735q0 106 -65.5 159.5t-174.5 53.5q-131 0 -211 -77.5t-102 -206.5l-17 -91h549q8 41 14.5 81t6.5 81z" />
<glyph unicode="f" horiz-adv-x="749" d="M850 1364q-35 16 -63.5 22.5t-71.5 6.5q-63 0 -115.5 -41t-69.5 -140l-34 -198h276l-18 -96h-277l-229 -1309l-123 -19l231 1328h-194l18 96h195l31 182q27 141 118.5 218t214.5 77q70 0 129 -23z" />
<glyph unicode="g" horiz-adv-x="1052" d="M838 -23q-16 -90 -59.5 -161.5t-106 -121.5t-143 -77t-171.5 -27q-104 0 -195 34t-151 130l92 68q51 -70 120 -100.5t155 -30.5q55 0 110.5 20.5t101.5 56t78.5 84t43.5 103.5l20 116l21 113h-4q-61 -76 -156.5 -125t-196.5 -49q-125 0 -201.5 65.5t-76.5 198.5 q0 16 2 34l4 34l30.5 174l30.5 174q31 168 142.5 263.5t277.5 95.5q33 0 75 -8.5t81 -25t70.5 -41t46.5 -56.5h8l18 106h117zM846 731q0 51 -23.5 92t-61.5 70t-85 44t-96 15q-57 0 -102.5 -20.5t-79 -56t-55 -83t-32.5 -102.5l-57 -334q-6 -29 -6 -57q0 -186 186 -186 q57 0 117.5 26.5t113 69.5t88 98t46.5 113l41 260q6 24 6 51z" />
<glyph unicode="h" horiz-adv-x="1077" d="M983 807q0 -16 -3 -34.5t-7 -35.5l-129 -737h-119l119 688q4 16 7 43t3 45q0 86 -47 128t-135 42q-66 0 -125.5 -30.5t-108.5 -80t-82.5 -109.5t-44.5 -120l-106 -606h-121l258 1460h121l-111 -616h2q72 92 160 148.5t209 56.5q117 0 188.5 -66.5t71.5 -175.5z" />
<glyph unicode="i" horiz-adv-x="446" d="M428 1260h-121l39 215h121zM207 0h-121l180 1022h121z" />
<glyph unicode="j" horiz-adv-x="514" d="M483 1260h-123l39 215h123zM242 -115q-53 -295 -340 -295q-27 0 -53.5 2t-49.5 7l17 96q23 -4 55.5 -6t52.5 -2q94 0 136 55t57 137l202 1143h123z" />
<glyph unicode="k" horiz-adv-x="976" d="M592 645l256 -645h-125l-215 578l-240 -216l-63 -362h-121l258 1460h121l-170 -964l571 526h137z" />
<glyph unicode="l" horiz-adv-x="593" d="M475 6q-35 -10 -71.5 -18t-73.5 -8q-88 0 -145.5 35.5t-57.5 121.5q0 16 2 39t6 39l219 1245h123l-219 -1243q-2 -10 -4 -24.5t-2 -24.5q0 -51 29.5 -69.5t78.5 -18.5q33 0 66 5t66 11z" />
<glyph unicode="m" horiz-adv-x="1718" d="M1624 811q0 -16 -2 -35.5t-6 -36.5l-131 -739h-121l121 688q4 16 7 46t3 48q0 80 -47 122t-135 42q-66 0 -125.5 -30.5t-108.5 -80t-82.5 -109.5t-44.5 -120l-106 -606h-2h-119h-2l121 688q4 16 7 46t3 48q0 80 -47 122t-135 42q-66 0 -125.5 -30.5t-108.5 -80 t-82.5 -109.5t-44.5 -120l-106 -606h-121l180 1024h117l-31 -180h4q66 94 158 149.5t213 55.5q113 0 182.5 -62.5t75.5 -159.5q78 104 166 163t217 59q117 0 187.5 -68t70.5 -170z" />
<glyph unicode="n" horiz-adv-x="1077" d="M983 811q0 -16 -2 -35.5t-6 -36.5l-131 -739h-121l121 688q4 16 7 46t3 48q0 80 -47 122t-135 42q-66 0 -125.5 -30.5t-108.5 -80t-82.5 -109.5t-44.5 -120l-106 -606h-121l180 1024h117l-31 -180h4q66 94 158 149.5t213 55.5q117 0 187.5 -68t70.5 -170z" />
<glyph unicode="o" d="M950 748q0 -57 -12 -115l-20 -121l-21 -121q-35 -188 -153.5 -302t-315.5 -114q-150 0 -237 71t-87 226q0 29 3.5 58.5t7.5 58.5q10 61 21 121.5l22 122.5q16 92 55 169t97.5 132t137 85t177.5 30q150 0 237.5 -71.5t87.5 -229.5zM825 743q0 106 -54 155.5t-161 49.5 q-78 0 -134 -24.5t-95 -67.5t-62.5 -102.5t-35.5 -128.5l-41 -234q-12 -55 -13 -108q0 -109 54.5 -159t160.5 -50q76 0 132.5 23.5t96.5 66.5t63.5 102.5t35.5 130.5l43 238q4 29 7 54t3 54z" />
<glyph unicode="p" horiz-adv-x="1060" d="M993 766q0 -35 -6 -68l-32 -181l-33 -181q-35 -172 -149 -265.5t-277 -93.5q-37 0 -76 7.5t-75 24t-65.5 41t-43.5 59.5h-11l-88 -504h-121l250 1419h117l-29 -166h6q61 92 149.5 141.5t190.5 49.5q61 0 115.5 -19.5t93.5 -56.5t61.5 -89t22.5 -118zM864 760 q0 96 -57 141t-150 45q-59 0 -115.5 -26.5t-102.5 -69.5t-77.5 -97.5t-42.5 -109.5l-49 -283q-2 -12 -3 -25t-1 -26q0 -51 19.5 -94t52.5 -74.5t77 -49t93 -17.5q57 0 105.5 20.5t86 56t62 83t35.5 102.5l31 174l32 174q2 14 3 37t1 39z" />
<glyph unicode="q" horiz-adv-x="1060" d="M758 -397h-121l96 549h-4q-61 -76 -148 -125.5t-188 -49.5q-61 0 -115.5 16.5t-93.5 49.5t-61.5 83t-22.5 116q0 33 6 67l32 179l32 180q31 176 142.5 278.5t279.5 102.5q33 0 74 -8.5t80.5 -25t71.5 -41t46 -56.5h8l21 106h117zM831 731q0 51 -21.5 92t-57 70t-80.5 44 t-94 15q-57 0 -104.5 -20.5t-83.5 -56t-58.5 -83t-32.5 -102.5l-66 -366q-4 -14 -4 -29v-31q0 -96 54.5 -140t146.5 -44q57 0 114.5 28.5t105.5 74.5t82 103.5t44 114.5l51 279q4 12 4 25v26z" />
<glyph unicode="r" horiz-adv-x="788" d="M809 913q-31 8 -66.5 11.5t-54.5 3.5q-23 0 -55.5 -4t-57.5 -13q-45 -14 -88 -41.5t-78.5 -67.5t-61 -93.5t-38.5 -116.5l-104 -592h-121l180 1024h119l-35 -195h4q86 117 180.5 161t204.5 44q29 0 48.5 -3t41.5 -7z" />
<glyph unicode="s" horiz-adv-x="937" d="M799 862q-59 41 -117.5 63.5t-138.5 22.5q-45 0 -87 -9t-75 -28.5t-52.5 -50.5t-19.5 -72q0 -47 19.5 -78.5t51.5 -54t74 -40.5l85 -33l97 -38q48 -19 86 -49t61.5 -73t23.5 -107q0 -90 -34 -153.5t-91 -105.5t-133 -61.5t-158 -19.5q-100 0 -198.5 39t-163.5 123l94 84 q59 -61 130 -103t157 -42q47 0 96 10t88 34.5t63.5 64.5t24.5 100q0 39 -14.5 67.5t-38 50t-55 38t-68.5 28.5q-55 18 -111.5 42t-102.5 55.5t-76 73.5t-30 101q0 88 32 147.5t84 94.5t122 50.5t145 15.5q80 0 166 -22.5t142 -86.5z" />
<glyph unicode="t" horiz-adv-x="759" d="M778 918h-334l-122 -701q-2 -10 -3.5 -19.5t-1.5 -19.5q0 -61 39 -81.5t93 -20.5q49 0 104 12t102 29l-16 -99q-109 -37 -225 -36q-43 0 -83 8t-71 26.5t-49 51t-18 82.5q0 14 1 26t3 27l127 715h-195l16 96h195l63 358h121l-63 -358h334z" />
<glyph unicode="u" horiz-adv-x="1077" d="M844 0h-117l31 180h-4q-66 -94 -158 -149.5t-213 -55.5q-117 0 -187.5 68t-70.5 170q0 16 2 35.5t6 36.5l131 739h121l-121 -688q-4 -16 -7 -46t-3 -48q0 -80 47 -122t135 -42q63 0 124 30.5t110 80t82.5 109.5t44.5 120l106 606h121z" />
<glyph unicode="v" horiz-adv-x="974" d="M459 -4h-131l-172 1028h120l140 -885h6l452 885h125z" />
<glyph unicode="w" horiz-adv-x="1630" d="M1145 -4h-127l-115 887h-10l-436 -887h-121l-143 1028h122l107 -872h8l420 872h149l109 -872h6l424 872h113z" />
<glyph unicode="x" horiz-adv-x="946" d="M541 524l254 -524h-119l-215 436l-365 -436h-129l451 532l-240 492h123l197 -408l346 408h123z" />
<glyph unicode="y" horiz-adv-x="1052" d="M838 -23q-16 -90 -59.5 -161.5t-106 -121.5t-143 -77t-171.5 -27q-104 0 -195 34t-151 130l92 68q51 -70 120 -100.5t155 -30.5q55 0 110.5 20.5t101.5 56t78.5 84t43.5 103.5l43 229h-4q-61 -76 -157.5 -125t-197.5 -49q-125 0 -192.5 65.5t-67.5 198.5q0 16 2 34l4 34 l12 61l16 94l19 111l21 119q23 137 53 297h123l-115 -668q-6 -29 -6 -57q0 -96 38 -141t130 -45q57 0 117.5 26.5t112 69.5t87 98t46.5 113l108 604h117z" />
<glyph unicode="z" horiz-adv-x="972" d="M928 930l-735 -834h589l-16 -96h-721l18 104l719 820h-559l19 100h702z" />
<glyph unicode="{" horiz-adv-x="778" d="M918 1497h-273l-129 -737l-106 -109l63 -131l-149 -844h272l-14 -86h-394l162 918l-63 143l110 125l144 809h393z" />
<glyph unicode="|" horiz-adv-x="663" d="M305 -80h-108l276 1565h109z" />
<glyph unicode="}" horiz-adv-x="778" d="M518 776l66 -125l-113 -143l-162 -918h-393l14 86h273l149 844l109 131l-66 109l129 737h-272l16 88h394z" />
<glyph unicode="~" horiz-adv-x="1583" d="M1337 0h-1347l256 1460h1347zM356 1327l-211 -1194h1082l211 1194h-1082z" />
<glyph unicode="&#xa1;" horiz-adv-x="548" d="M414 850h-142l41 225h142zM262 8l-69 -393h-134l70 393l133 623h86z" />
<glyph unicode="&#xa2;" horiz-adv-x="1036" d="M983 842q0 -27 -4 -54l-8 -53h-113q10 45 10 84q0 104 -59 154.5t-162 50.5q-78 0 -135 -23.5t-97 -66.5t-64.5 -102.5t-37.5 -129.5l-41 -233q-4 -23 -6 -46.5t-2 -45.5q0 -113 59.5 -167t170.5 -54q139 0 214.5 79.5t98.5 208.5h113q-29 -166 -126.5 -269t-271.5 -120 l-47 -268h-106l47 270q-135 12 -207 88t-72 213q0 27 3 53.5t7 55.5l43 244q29 170 133.5 282.5t280.5 130.5l43 244h107l-43 -244q127 -12 199.5 -81.5t72.5 -200.5z" />
<glyph unicode="&#xa3;" horiz-adv-x="1142" d="M1167 1245q0 -37 -6 -74l-12 -71h-109q4 29 10.5 59.5t6.5 59.5q0 47 -17.5 79.5t-47 52t-68.5 29t-80 9.5q-135 0 -209 -74t-96 -203l-58 -317h455l-16 -101h-455l-105 -588h658l-53 -106h-908l19 106h166l104 588h-160l17 101h159l56 309q33 182 145.5 281.5 t298.5 99.5q61 0 116.5 -11.5t97.5 -39t66.5 -73.5t24.5 -116z" />
<glyph unicode="&#xa4;" horiz-adv-x="1437" d="M1397 1151q0 -45 -6.5 -89t-14.5 -87h-121q16 78 17 147q0 74 -21.5 122t-61.5 77t-95.5 41t-120.5 12q-106 0 -182 -34.5t-127.5 -94t-82 -141.5t-46.5 -176h509l-18 -101h-510l-37 -217h510l-18 -100h-510l-12 -74q-6 -37 -7 -74q0 -150 86 -213t226 -63 q102 0 173.5 26.5t120 78t77 125t44.5 167.5h121q-20 -119 -64 -213t-114 -159.5t-167 -100.5t-222 -35q-90 0 -166 20.5t-131 64.5t-87 114t-32 166q0 43 6 85t15 85h-215l18 100h215l37 217h-215l18 101h215l7 35q20 119 69 215t124 164.5t176.5 106.5t223.5 38 q86 0 159 -17.5t125 -57.5t82 -103.5t30 -157.5z" />
<glyph unicode="&#xa5;" horiz-adv-x="1146" d="M678 625l-2 -15h430l-19 -100h-430l-90 -510h-129l90 510h-434l19 100h434l2 15l-305 835h131l258 -723l516 723h133z" />
<glyph unicode="&#xa6;" horiz-adv-x="1005" d="M633 776h-98l124 709h99zM469 -158h-98l137 783h98z" />
<glyph unicode="&#xa7;" horiz-adv-x="1196" d="M1128 1229q0 -29 -6 -58.5t-10 -58.5h-115l9 40q4 19 4 40q0 49 -23.5 81t-60.5 50t-80 25.5t-82 7.5q-47 0 -97.5 -11.5t-91 -36t-67.5 -64.5t-27 -95q0 -41 17.5 -66.5t45 -44t60.5 -30.5l64 -25l87 -34l87 -34q39 -16 76.5 -35.5t68.5 -47t49.5 -63.5t18.5 -83 q0 -59 -18.5 -102t-50.5 -77t-75 -57.5t-92 -41.5q66 -33 108 -82.5t42 -124.5q0 -25 -6 -49q-14 -86 -61.5 -147.5t-115 -102.5t-146.5 -60.5t-159 -19.5q-55 0 -115.5 10t-109.5 37t-82 72t-33 112q0 31 6.5 61.5t10.5 61.5h121q-4 -18 -6.5 -37.5t-2.5 -38.5 q0 -51 22.5 -84.5t58.5 -53t79 -27t86 -7.5q51 0 108.5 13.5t103.5 41t77 71.5t31 106q0 66 -42 102.5t-105.5 61t-136.5 44t-136.5 49t-105.5 78t-42 128.5q0 115 66.5 184.5t167.5 107.5q-68 29 -110 76t-42 125q0 94 39 159.5t101.5 105.5t142.5 58.5t162 18.5 q57 0 116.5 -10t107.5 -36t78.5 -69.5t30.5 -113.5zM922 664q0 61 -41 90.5t-93 46.5l-93 32q-46 15 -93 27q-37 -10 -75 -29.5t-67.5 -47t-48 -64.5t-18.5 -80q0 -49 39 -80t92.5 -50.5t107.5 -32.5t87 -30q37 10 73.5 30t65.5 47.5t46.5 62.5t17.5 78z" />
<glyph unicode="&#xa8;" horiz-adv-x="851" d="M784 1217h-125l33 180h125zM408 1217h-125l32 180h125z" />
<glyph unicode="&#xa9;" horiz-adv-x="1937" d="M1872 877q0 -201 -77 -383.5t-211 -320.5t-312 -219t-381 -81q-154 0 -279 45t-214 131t-137 209t-48 279q0 199 76 381t207 321t309 221t381 82q152 0 277.5 -46t217 -132t141.5 -209.5t50 -277.5zM1769 866q0 133 -44 243t-122.5 187.5t-189 119.5t-242.5 42 q-186 0 -342.5 -74.5t-270.5 -200.5t-177.5 -290t-63.5 -344q0 -133 42 -241.5t119 -186.5t186.5 -120t242.5 -42q182 0 340 75t273.5 199.5t182 289.5t66.5 343zM1458 999q0 -31 -4 -61.5t-10 -58.5h-96l8 46q4 24 4 48q0 55 -18.5 93t-51.5 60.5t-77 32.5t-93 10 q-135 0 -217 -80.5t-104 -209.5l-64 -363q-6 -35 -6 -67q0 -109 65.5 -157t168.5 -48q127 0 210.5 62.5t106.5 189.5l6 34h96q-29 -180 -145.5 -280t-298.5 -100q-68 0 -125 16t-100 50t-67.5 87t-24.5 125q0 39 6 80l65 366q14 86 53 158t97.5 123t134.5 79t166 28 q63 0 120.5 -14.5t100.5 -45.5t68.5 -81t25.5 -122z" />
<glyph unicode="&#xaa;" horiz-adv-x="798" d="M807 1321q0 -12 -1 -23.5t-3 -23.5l-47 -258q-25 -129 -35 -260h-103l7 71q-45 -39 -99.5 -63.5t-115.5 -24.5q-37 0 -75 8.5t-68.5 27t-50 51t-19.5 81.5q0 92 39.5 144.5t101 78t136.5 32.5t144 7h68l8 45q4 18 7.5 40t3.5 38q0 59 -35 88t-92 29q-59 0 -113.5 -28.5 t-65.5 -94.5l-6 -37h-96l6 31q8 55 37 95t70 65.5t90 38t102 12.5q41 0 79 -9t65.5 -29.5t44 -53.5t16.5 -78zM649 518h-487l16 90h488zM535 1087q-43 0 -83 -6t-73 -24.5t-52.5 -51t-19.5 -83.5q0 -53 38 -74t83 -21q78 0 145.5 45.5t81.5 124.5l17 90h-137z" />
<glyph unicode="&#xab;" horiz-adv-x="1058" d="M676 559l237 -321l-84 -68l-315 389l453 391l59 -69zM283 559l237 -321l-84 -68l-315 389l452 391l60 -69z" />
<glyph unicode="&#xac;" horiz-adv-x="1036" d="M639 643l250 -303l-72 -61l-250 301l-340 -291l-57 78l338 288l-258 318l72 65l258 -319l329 280l60 -75z" />
<glyph unicode="&#xad;" horiz-adv-x="745" d="M639 485h-555l22 129h556z" />
<glyph unicode="&#xae;" horiz-adv-x="1073" d="M1079 1266q0 -98 -39 -187.5t-105.5 -156t-154.5 -106.5t-186 -40q-154 0 -246 87t-92 241q0 98 38 187t103.5 158t153.5 108.5t186 39.5q152 0 247 -88.5t95 -242.5zM997 1262q0 123 -73.5 196.5t-196.5 73.5q-86 0 -156.5 -35t-122 -93t-80 -133t-28.5 -157 q0 -121 72.5 -194.5t193.5 -73.5q84 0 156 34.5t124 92t81.5 132.5t29.5 157zM854 1327q0 -49 -26.5 -84t-73.5 -49v-8q55 -18 55 -76q0 -23 -3 -45.5t-3 -44.5q0 -10 1 -21.5t7 -21.5h-84q-2 8 -2 24q0 23 3 47.5t3 49.5q0 57 -63 57h-74l-33 -178h-80l80 440h174 q45 0 82 -19.5t37 -70.5zM770 1307q0 31 -19.5 43t-48.5 12h-71l-27 -152h76q41 0 65.5 28t24.5 69z" />
<glyph unicode="&#xaf;" horiz-adv-x="821" d="M829 1241h-561l19 125h561z" />
<glyph unicode="&#xb0;" horiz-adv-x="761" d="M772 1270q-8 -49 -34.5 -92t-65.5 -75t-86 -50.5t-99 -18.5q-49 0 -90 18.5t-66.5 50.5t-36.5 75t-3 92t34.5 93t64.5 75.5t85 51t96 19.5q51 0 92.5 -19.5t68 -51t37.5 -75.5t3 -93zM676 1270q10 63 -24 108t-95 45q-59 0 -109.5 -45t-60.5 -108t22.5 -106.5t92.5 -43.5 q61 0 112.5 43.5t61.5 106.5z" />
<glyph unicode="&#xb1;" />
<glyph unicode="&#xb2;" />
<glyph unicode="&#xb3;" />
<glyph unicode="&#xb4;" horiz-adv-x="614" d="M430 1176h-100l225 360h147z" />
<glyph unicode="&#xb5;" />
<glyph unicode="&#x3bc;" />
<glyph unicode="&#xb6;" horiz-adv-x="1271" d="M1288 1360h-123l-272 -1544h-111l273 1544h-256l-273 -1544h-108l121 680q-104 4 -171 45t-102 106.5t-41 150.5t11 177q16 94 59 181t106.5 154.5t143.5 108.5t168 41h594z" />
<glyph unicode="&#xb7;" horiz-adv-x="458" d="M342 680h-141l41 231h141z" />
<glyph unicode="&#xb8;" horiz-adv-x="819" d="M508 -221q0 -51 -25.5 -86t-64.5 -56.5t-85 -32t-87 -10.5t-96.5 11.5t-90.5 29.5l13 68q35 -16 89 -26.5t93 -10.5q20 0 47 3t50.5 12.5t39 27t15.5 45.5q0 35 -27 45.5t-55 12.5l-103 2l76 196h78l-47 -133q27 0 57.5 -2t58 -11t46 -28.5t18.5 -56.5z" />
<glyph unicode="&#xb9;" />
<glyph unicode="&#xba;" horiz-adv-x="821" d="M836 1280q0 -63 -13.5 -128t-23.5 -124q-25 -135 -111 -217t-227 -82q-111 0 -173.5 51t-62.5 166q0 61 13.5 126t23.5 126q25 135 111 218t227 83q111 0 173.5 -53t62.5 -166zM670 518h-488l17 90h487zM727 1272q0 72 -35 103.5t-104 31.5q-102 0 -150.5 -60.5 t-64.5 -152.5q-10 -55 -23.5 -119.5t-13.5 -120.5q0 -133 141 -133q100 0 148.5 59.5t64.5 151.5l24 119q13 66 13 121z" />
<glyph unicode="&#xbb;" horiz-adv-x="1058" d="M496 170l-60 68l352 321l-237 322l84 69l313 -391zM102 170l-59 68l352 321l-237 322l84 69l313 -391z" />
<glyph unicode="&#xbc;" />
<glyph unicode="&#xbd;" />
<glyph unicode="&#xbe;" />
<glyph unicode="&#xbf;" horiz-adv-x="1042" d="M735 848h-141l41 225h141zM858 -63q-16 -86 -57 -152t-101.5 -109t-136.5 -65.5t-160 -22.5q-68 0 -127 17.5t-102 53.5t-67.5 90t-24.5 128q0 137 67.5 242.5t169.5 191.5q31 27 64 51.5t63 51.5q45 41 76 81t41 103l10 66h109l-10 -68q-14 -80 -54 -137.5t-92.5 -104.5 t-109 -90t-103.5 -94t-77.5 -115.5t-30.5 -154.5q0 -104 62.5 -157.5t160.5 -53.5q113 0 203 59t112 176l15 80h112z" />
<glyph unicode="&#xc0;" horiz-adv-x="1314" d="M766 1599l-209 361h148l161 -361h-100zM1024 0l-78 457h-581l-236 -457h-135l782 1473h119l254 -1473h-125zM803 1296h-4l-379 -735h508z" />
<glyph unicode="&#xc1;" horiz-adv-x="1314" d="M899 1599h-106l225 361h153zM1024 0l-78 457h-581l-236 -457h-135l782 1473h119l254 -1473h-125zM803 1296h-4l-379 -735h508z" />
<glyph unicode="&#xc2;" horiz-adv-x="1314" d="M977 1581l-74 227l-164 -227h-121l244 340h109l112 -340h-106zM1024 0l-78 457h-581l-236 -457h-135l782 1473h119l254 -1473h-125zM803 1296h-4l-379 -735h508z" />
<glyph unicode="&#xc3;" horiz-adv-x="1314" d="M1196 1812q-29 -76 -74 -125t-123 -49q-41 0 -77.5 9.5l-73.5 19.5q-39 12 -78 21.5t-82 9.5q-27 0 -43 -6t-27.5 -16.5t-19.5 -25t-20 -32.5l-72 12q35 80 85 128t122 48q41 0 77.5 -9t71.5 -19q37 -12 76 -21.5t80 -9.5q47 0 65.5 23.5t42.5 58.5zM1024 0l-78 457h-581 l-236 -457h-135l782 1473h119l254 -1473h-125zM803 1296h-4l-379 -735h508z" />
<glyph unicode="&#xc4;" horiz-adv-x="1314" d="M1106 1624h-125l31 174h125zM729 1624h-125l31 174h125zM1024 0l-78 457h-581l-236 -457h-135l782 1473h119l254 -1473h-125zM803 1296h-4l-379 -735h508z" />
<glyph unicode="&#xc5;" horiz-adv-x="1314" d="M1077 1796q0 -45 -18.5 -87t-50 -73.5t-73.5 -50t-87 -18.5q-70 0 -116 36.5t-46 108.5q0 45 18.5 86t50 73t72.5 50t86 18q70 0 117 -34.5t47 -108.5zM1024 0l-78 457h-581l-236 -457h-135l782 1473h119l254 -1473h-125zM997 1780q0 45 -24.5 71.5t-69.5 26.5 q-59 0 -98 -46t-39 -101q0 -41 25.5 -70t66.5 -29q59 0 99 46.5t40 101.5zM803 1296h-4l-379 -735h508z" />
<glyph unicode="&#xc6;" horiz-adv-x="1939" d="M1968 1350h-713l-94 -535h557l-20 -110h-557l-105 -594h713l-18 -111h-838l80 455h-524l-347 -455h-137l1122 1460h900zM532 561h459l137 782z" />
<glyph unicode="&#xc7;" horiz-adv-x="1273" d="M1278 1165q0 -29 -5 -56.5t-9 -55.5h-121q4 23 7 45t3 45q0 70 -30.5 116t-80 72.5t-110 36.5t-117.5 10q-182 0 -303 -103.5t-152 -279.5l-43 -252l-43 -251q-8 -41 -8 -93q0 -154 91.5 -235.5t236.5 -81.5q76 0 147.5 15.5t130 50t98.5 90t54 137.5l6 35h121l-10 -54 q-16 -94 -69.5 -163.5t-127.5 -116.5t-162 -71.5t-176 -29.5l-37 -98q27 0 58.5 -2t59.5 -11t46.5 -28.5t18.5 -56.5q0 -51 -26 -86t-64.5 -56.5t-85 -32t-87.5 -10.5t-96 11.5t-90 29.5l12 68q35 -16 89.5 -26.5t93.5 -10.5q20 0 46.5 3t49 12.5t38 27t15.5 45.5 q0 35 -26.5 45.5t-55.5 12.5l-102 2l63 163q-84 6 -155.5 33t-126 76t-85 121t-30.5 168q0 49 10 106l86 500q20 125 77.5 220t139.5 158.5t184.5 95.5t215.5 32q76 0 152.5 -16.5t140 -55.5t103.5 -100.5t40 -149.5z" />
<glyph unicode="&#xc8;" horiz-adv-x="1146" d="M739 1599l-209 361h148l162 -361h-101zM1174 1350h-713l-94 -535h557l-19 -110h-557l-104 -594h712l-20 -111h-838l258 1460h838z" />
<glyph unicode="&#xc9;" horiz-adv-x="1146" d="M836 1636h-93l232 324h137zM1174 1350h-713l-94 -535h557l-19 -110h-557l-104 -594h712l-20 -111h-838l258 1460h838z" />
<glyph unicode="&#xca;" horiz-adv-x="1146" d="M924 1581l-74 227l-164 -227h-121l244 340h109l112 -340h-106zM1174 1350h-713l-94 -535h557l-19 -110h-557l-104 -594h712l-20 -111h-838l258 1460h838z" />
<glyph unicode="&#xcb;" horiz-adv-x="1146" d="M1069 1620h-127l33 190h127zM676 1620h-127l33 190h127zM1174 1350h-713l-94 -535h557l-19 -110h-557l-104 -594h712l-20 -111h-838l258 1460h838z" />
<glyph unicode="&#xcc;" horiz-adv-x="1056" d="M659 1599l-208 361h147l162 -361h-101zM1071 1350h-319l-217 -1239h319l-20 -111h-764l20 111h320l217 1239h-320l21 110h764z" />
<glyph unicode="&#xcd;" horiz-adv-x="1056" d="M776 1599h-106l225 361h154zM1071 1350h-319l-217 -1239h319l-20 -111h-764l20 111h320l217 1239h-320l21 110h764z" />
<glyph unicode="&#xce;" horiz-adv-x="1056" d="M842 1581l-74 227l-164 -227h-121l244 340h109l112 -340h-106zM1071 1350h-319l-217 -1239h319l-20 -111h-764l20 111h320l217 1239h-320l21 110h764z" />
<glyph unicode="&#xcf;" horiz-adv-x="1056" d="M979 1620h-127l33 190h127zM586 1620h-127l33 190h126zM1071 1350h-319l-217 -1239h319l-20 -111h-764l20 111h320l217 1239h-320l21 110h764z" />
<glyph unicode="&#xd0;" horiz-adv-x="1294" d="M1274 1110q0 -29 -3 -54.5t-7 -54.5l-44 -265q-22 -132 -49 -263q-47 -242 -192 -357.5t-369 -115.5h-512l123 700h-149l16 103h152l116 657h510q86 0 161 -19.5t129 -61.5t86 -108.5t32 -160.5zM1141 1071q0 74 -23.5 126t-64.5 86t-98.5 50.5t-127.5 16.5h-366 l-96 -547h454l-16 -103h-457l-102 -589h381q170 0 278.5 96t136.5 260l93 518q8 39 8 86z" />
<glyph unicode="&#xd1;" horiz-adv-x="1345" d="M1227 1804q-29 -72 -73 -118t-118 -46q-41 0 -77.5 9.5l-71.5 19.5l-79 19.5t-81 9.5q-27 0 -43 -6t-29 -17q-12 -10 -20 -26.5t-19 -28.5l-67 10q33 76 81 122t120 46q39 0 75.5 -9t73.5 -20l77 -19q38 -9 79 -9q23 0 38 6t27 16q12 12 23 28l20 30zM1102 -4h-115 l-549 1249h-10l-219 -1245h-111l258 1460h111l553 -1243h10l221 1243h109z" />
<glyph unicode="&#xd2;" horiz-adv-x="1318" d="M827 1599l-209 361h148l162 -361h-101zM1294 1110q0 -49 -10 -106l-44 -262q-22 -130 -48 -259q-25 -129 -81 -225t-138 -158.5t-184.5 -93.5t-219.5 -31q-90 0 -171 21.5t-141 67t-95 117t-35 169.5q0 29 3 54.5t7 52.5l44 254l44 252q20 119 74.5 216t135.5 165.5 t185.5 105.5t225.5 37q92 0 173 -20.5t142.5 -66.5t97 -118t35.5 -172zM1157 1087q0 78 -26.5 133.5t-72.5 89t-107.5 49t-133.5 15.5q-94 0 -171 -29.5t-135 -84t-96 -129t-55 -164.5l-88 -500q-8 -39 -8 -90q0 -78 25.5 -133.5t69.5 -90t105.5 -51t133.5 -16.5 q186 0 306 101.5t153 281.5l46 265l46 265q4 23 6 44t2 44z" />
<glyph unicode="&#xd3;" horiz-adv-x="1318" d="M913 1599h-106l225 361h154zM1294 1110q0 -49 -10 -106l-44 -262q-22 -130 -48 -259q-25 -129 -81 -225t-138 -158.5t-184.5 -93.5t-219.5 -31q-90 0 -171 21.5t-141 67t-95 117t-35 169.5q0 29 3 54.5t7 52.5l44 254l44 252q20 119 74.5 216t135.5 165.5t185.5 105.5 t225.5 37q92 0 173 -20.5t142.5 -66.5t97 -118t35.5 -172zM1157 1087q0 78 -26.5 133.5t-72.5 89t-107.5 49t-133.5 15.5q-94 0 -171 -29.5t-135 -84t-96 -129t-55 -164.5l-88 -500q-8 -39 -8 -90q0 -78 25.5 -133.5t69.5 -90t105.5 -51t133.5 -16.5q186 0 306 101.5 t153 281.5l46 265l46 265q4 23 6 44t2 44z" />
<glyph unicode="&#xd4;" horiz-adv-x="1318" d="M983 1581l-74 227l-164 -227h-120l245 340h109l111 -340h-107zM1294 1110q0 -49 -10 -106l-44 -262q-22 -130 -48 -259q-25 -129 -81 -225t-138 -158.5t-184.5 -93.5t-219.5 -31q-90 0 -171 21.5t-141 67t-95 117t-35 169.5q0 29 3 54.5t7 52.5l44 254l44 252 q20 119 74.5 216t135.5 165.5t185.5 105.5t225.5 37q92 0 173 -20.5t142.5 -66.5t97 -118t35.5 -172zM1157 1087q0 78 -26.5 133.5t-72.5 89t-107.5 49t-133.5 15.5q-94 0 -171 -29.5t-135 -84t-96 -129t-55 -164.5l-88 -500q-8 -39 -8 -90q0 -78 25.5 -133.5t69.5 -90 t105.5 -51t133.5 -16.5q186 0 306 101.5t153 281.5l46 265l46 265q4 23 6 44t2 44z" />
<glyph unicode="&#xd5;" horiz-adv-x="1318" d="M1217 1812q-29 -76 -74 -125t-123 -49q-41 0 -78 9.5l-74 19.5q-39 12 -77.5 21.5t-81.5 9.5q-27 0 -43.5 -6t-27.5 -16.5t-19.5 -25t-20.5 -32.5l-72 12q35 80 85.5 128t121.5 48q41 0 78 -9t72 -19q37 -12 75.5 -21.5t79.5 -9.5q47 0 65.5 23.5t43.5 58.5zM1294 1110 q0 -49 -10 -106l-44 -262q-22 -130 -48 -259q-25 -129 -81 -225t-138 -158.5t-184.5 -93.5t-219.5 -31q-90 0 -171 21.5t-141 67t-95 117t-35 169.5q0 29 3 54.5t7 52.5l44 254l44 252q20 119 74.5 216t135.5 165.5t185.5 105.5t225.5 37q92 0 173 -20.5t142.5 -66.5 t97 -118t35.5 -172zM1157 1087q0 78 -26.5 133.5t-72.5 89t-107.5 49t-133.5 15.5q-94 0 -171 -29.5t-135 -84t-96 -129t-55 -164.5l-88 -500q-8 -39 -8 -90q0 -78 25.5 -133.5t69.5 -90t105.5 -51t133.5 -16.5q186 0 306 101.5t153 281.5l46 265l46 265q4 23 6 44t2 44z " />
<glyph unicode="&#xd6;" horiz-adv-x="1318" d="M1124 1624h-125l31 174h125zM748 1624h-125l30 174h125zM1294 1110q0 -49 -10 -106l-44 -262q-22 -130 -48 -259q-25 -129 -81 -225t-138 -158.5t-184.5 -93.5t-219.5 -31q-90 0 -171 21.5t-141 67t-95 117t-35 169.5q0 29 3 54.5t7 52.5l44 254l44 252q20 119 74.5 216 t135.5 165.5t185.5 105.5t225.5 37q92 0 173 -20.5t142.5 -66.5t97 -118t35.5 -172zM1157 1087q0 78 -26.5 133.5t-72.5 89t-107.5 49t-133.5 15.5q-94 0 -171 -29.5t-135 -84t-96 -129t-55 -164.5l-88 -500q-8 -39 -8 -90q0 -78 25.5 -133.5t69.5 -90t105.5 -51 t133.5 -16.5q186 0 306 101.5t153 281.5l46 265l46 265q4 23 6 44t2 44z" />
<glyph unicode="&#xd7;" horiz-adv-x="1036" d="M639 643l250 -303l-72 -61l-250 301l-340 -291l-57 78l338 288l-258 318l72 65l258 -319l329 280l60 -75z" />
<glyph unicode="&#xd8;" horiz-adv-x="1318" d="M1221 1343q39 -51 56 -110t17 -123q0 -29 -3 -54.5t-7 -51.5l-46 -262l-46 -259q-20 -119 -76.5 -213t-138.5 -159.5t-186.5 -100.5t-221.5 -35q-80 0 -160.5 19.5t-146.5 66.5l-94 -129l-72 41l107 144q-41 51 -58.5 110.5t-17.5 124.5q0 47 10 105l90 506 q20 119 74.5 216t135.5 165.5t184.5 105.5t224.5 37q84 0 166 -18.5t149 -69.5l92 125l72 -41zM1079 1290q-51 49 -121.5 66.5t-140.5 17.5q-94 0 -171 -29.5t-135 -84t-96 -129t-55 -164.5l-88 -498q-8 -41 -8 -90q0 -35 6 -71t23 -70zM1159 1087q0 76 -29 136l-786 -1053 q53 -47 119.5 -65.5t136.5 -18.5q184 0 304 101.5t153 283.5l94 528q4 23 6 44t2 44z" />
<glyph unicode="&#xd9;" horiz-adv-x="1294" d="M827 1599l-209 361h148l162 -361h-101zM1333 1460l-93 -528l-93 -531q-18 -104 -73.5 -184t-133.5 -134t-173 -81t-196 -27q-78 0 -156.5 19.5t-143 59.5t-104.5 103.5t-40 153.5q0 39 6 76l191 1073h129l-185 -1048q-4 -16 -5 -41t-1 -41q0 -72 28.5 -119t76 -74.5 t108 -40t121.5 -12.5q76 0 147.5 21.5t130 62.5t99.5 102.5t55 139.5l186 1050h119z" />
<glyph unicode="&#xda;" horiz-adv-x="1294" d="M899 1599h-106l225 361h153zM1333 1460l-93 -528l-93 -531q-18 -104 -73.5 -184t-133.5 -134t-173 -81t-196 -27q-78 0 -156.5 19.5t-143 59.5t-104.5 103.5t-40 153.5q0 39 6 76l191 1073h129l-185 -1048q-4 -16 -5 -41t-1 -41q0 -72 28.5 -119t76 -74.5t108 -40 t121.5 -12.5q76 0 147.5 21.5t130 62.5t99.5 102.5t55 139.5l186 1050h119z" />
<glyph unicode="&#xdb;" horiz-adv-x="1294" d="M971 1581l-74 227l-164 -227h-121l244 340h109l112 -340h-106zM1333 1460l-93 -528l-93 -531q-18 -104 -73.5 -184t-133.5 -134t-173 -81t-196 -27q-78 0 -156.5 19.5t-143 59.5t-104.5 103.5t-40 153.5q0 39 6 76l191 1073h129l-185 -1048q-4 -16 -5 -41t-1 -41 q0 -72 28.5 -119t76 -74.5t108 -40t121.5 -12.5q76 0 147.5 21.5t130 62.5t99.5 102.5t55 139.5l186 1050h119z" />
<glyph unicode="&#xdc;" horiz-adv-x="1294" d="M1098 1624h-125l31 174h124zM721 1624h-125l31 174h125zM1333 1460l-93 -528l-93 -531q-18 -104 -73.5 -184t-133.5 -134t-173 -81t-196 -27q-78 0 -156.5 19.5t-143 59.5t-104.5 103.5t-40 153.5q0 39 6 76l191 1073h129l-185 -1048q-4 -16 -5 -41t-1 -41 q0 -72 28.5 -119t76 -74.5t108 -40t121.5 -12.5q76 0 147.5 21.5t130 62.5t99.5 102.5t55 139.5l186 1050h119z" />
<glyph unicode="&#xdd;" horiz-adv-x="1146" d="M819 1599h-106l225 361h154zM678 625l-111 -625h-129l111 625l-305 835h131l256 -723l516 723h135z" />
<glyph unicode="&#xde;" horiz-adv-x="1220" d="M1161 850q0 -125 -45 -219t-123 -156.5t-182 -94.5t-225 -32h-301l-62 -348h-125l258 1460h125l-43 -243h297q80 0 157 -24t137.5 -70t96 -114.5t35.5 -158.5zM1034 827q0 82 -29.5 136.5t-77.5 86t-108.5 44t-122.5 12.5h-278l-113 -647h281q94 0 176 19.5t142.5 63.5 t95 113.5t34.5 171.5z" />
<glyph unicode="&#xdf;" horiz-adv-x="1204" d="M1135 1171q0 -68 -24 -130t-63.5 -115.5t-93 -96.5t-114.5 -71l-2 -8q117 -35 193.5 -118t76.5 -212q0 -102 -37 -185t-102.5 -140.5t-154.5 -88.5t-191 -31q-27 0 -60 2.5t-66.5 8.5t-65.5 15t-54 24l18 110q53 -27 112.5 -42t119.5 -15q74 0 140.5 21.5t115.5 63.5 t77.5 101.5t28.5 136.5q0 76 -34.5 127.5t-88 84t-118 47t-125.5 14.5l14 92q16 0 32.5 -1t32.5 1q6 0 28 10t26 15q49 27 95 64.5t82 84.5t57.5 100.5t21.5 110.5q0 70 -25.5 117t-66.5 73.5t-91.5 38t-101.5 11.5q-66 0 -119 -24t-93 -64.5t-66.5 -96t-38.5 -116.5 l-263 -1485l-124 -15l264 1479q37 211 161.5 314.5t307.5 103.5q70 0 137.5 -17.5t121.5 -54.5t87 -97.5t33 -146.5z" />
<glyph unicode="&#xe0;" horiz-adv-x="1060" d="M561 1184l-205 325h138l157 -325h-90zM834 0h-117l26 150h-6q-59 -82 -141 -128.5t-184 -46.5q-63 0 -118.5 16.5t-97.5 50.5t-66 84t-24 118q0 33 7 63l67 381q14 78 47 143.5t83 113.5t118 75t152 27q33 0 75.5 -8.5t84.5 -25t77 -41t49 -57.5h8l21 109h121zM838 723 q0 53 -22.5 95t-59.5 72t-83 45t-95 15q-57 0 -103.5 -21.5t-81.5 -57t-57.5 -83t-30.5 -100.5l-65 -366q-6 -29 -7 -58q0 -96 55.5 -141t147.5 -45q57 0 113.5 23.5t104.5 63.5t81 92t43 108l56 313q2 10 3 22.5t1 22.5z" />
<glyph unicode="&#xe1;" horiz-adv-x="1060" d="M653 1184h-92l232 325h137zM834 0h-117l26 150h-6q-59 -82 -141 -128.5t-184 -46.5q-63 0 -118.5 16.5t-97.5 50.5t-66 84t-24 118q0 33 7 63l67 381q14 78 47 143.5t83 113.5t118 75t152 27q33 0 75.5 -8.5t84.5 -25t77 -41t49 -57.5h8l21 109h121zM838 723 q0 53 -22.5 95t-59.5 72t-83 45t-95 15q-57 0 -103.5 -21.5t-81.5 -57t-57.5 -83t-30.5 -100.5l-65 -366q-6 -29 -7 -58q0 -96 55.5 -141t147.5 -45q57 0 113.5 23.5t104.5 63.5t81 92t43 108l56 313q2 10 3 22.5t1 22.5z" />
<glyph unicode="&#xe2;" horiz-adv-x="1060" d="M737 1184l-86 256l-176 -256h-110l237 336h127l111 -336h-103zM834 0h-117l26 150h-6q-59 -82 -141 -128.5t-184 -46.5q-63 0 -118.5 16.5t-97.5 50.5t-66 84t-24 118q0 33 7 63l67 381q14 78 47 143.5t83 113.5t118 75t152 27q33 0 75.5 -8.5t84.5 -25t77 -41t49 -57.5 h8l21 109h121zM838 723q0 53 -22.5 95t-59.5 72t-83 45t-95 15q-57 0 -103.5 -21.5t-81.5 -57t-57.5 -83t-30.5 -100.5l-65 -366q-6 -29 -7 -58q0 -96 55.5 -141t147.5 -45q57 0 113.5 23.5t104.5 63.5t81 92t43 108l56 313q2 10 3 22.5t1 22.5z" />
<glyph unicode="&#xe3;" horiz-adv-x="1060" d="M995 1386q-29 -72 -72.5 -117.5t-117.5 -45.5q-41 0 -78 9t-72 19l-78.5 19.5t-80.5 9.5q-47 0 -74 -23q-10 -10 -19.5 -25l-19.5 -30l-66 10q33 78 81 123t120 45q39 0 76 -9t72 -19l75.5 -19.5t81.5 -9.5q23 0 38.5 6t27.5 17q12 12 22.5 27.5t18.5 29.5zM834 0h-117 l26 150h-6q-59 -82 -141 -128.5t-184 -46.5q-63 0 -118.5 16.5t-97.5 50.5t-66 84t-24 118q0 33 7 63l67 381q14 78 47 143.5t83 113.5t118 75t152 27q33 0 75.5 -8.5t84.5 -25t77 -41t49 -57.5h8l21 109h121zM838 723q0 53 -22.5 95t-59.5 72t-83 45t-95 15 q-57 0 -103.5 -21.5t-81.5 -57t-57.5 -83t-30.5 -100.5l-65 -366q-6 -29 -7 -58q0 -96 55.5 -141t147.5 -45q57 0 113.5 23.5t104.5 63.5t81 92t43 108l56 313q2 10 3 22.5t1 22.5z" />
<glyph unicode="&#xe4;" horiz-adv-x="1060" d="M893 1223h-125l31 174h125zM516 1223h-125l31 174h125zM834 0h-117l26 150h-6q-59 -82 -141 -128.5t-184 -46.5q-63 0 -118.5 16.5t-97.5 50.5t-66 84t-24 118q0 33 7 63l67 381q14 78 47 143.5t83 113.5t118 75t152 27q33 0 75.5 -8.5t84.5 -25t77 -41t49 -57.5h8 l21 109h121zM838 723q0 53 -22.5 95t-59.5 72t-83 45t-95 15q-57 0 -103.5 -21.5t-81.5 -57t-57.5 -83t-30.5 -100.5l-65 -366q-6 -29 -7 -58q0 -96 55.5 -141t147.5 -45q57 0 113.5 23.5t104.5 63.5t81 92t43 108l56 313q2 10 3 22.5t1 22.5z" />
<glyph unicode="&#xe5;" horiz-adv-x="1060" d="M844 1401q0 -45 -18.5 -87t-50.5 -74t-74 -51.5t-87 -19.5q-70 0 -114.5 37t-44.5 111q0 45 18.5 86t49 72.5t71.5 51t86 19.5q72 0 118 -35.5t46 -109.5zM834 0h-117l26 150h-6q-59 -82 -141 -128.5t-184 -46.5q-63 0 -118.5 16.5t-97.5 50.5t-66 84t-24 118q0 33 7 63 l67 381q14 78 47 143.5t83 113.5t118 75t152 27q33 0 75.5 -8.5t84.5 -25t77 -41t49 -57.5h8l21 109h121zM764 1384q0 45 -23.5 73t-70.5 28q-59 0 -97 -47t-38 -105q0 -41 24.5 -69.5t67.5 -28.5q59 0 98 47t39 102zM838 723q0 53 -22.5 95t-59.5 72t-83 45t-95 15 q-57 0 -103.5 -21.5t-81.5 -57t-57.5 -83t-30.5 -100.5l-65 -366q-6 -29 -7 -58q0 -96 55.5 -141t147.5 -45q57 0 113.5 23.5t104.5 63.5t81 92t43 108l56 313q2 10 3 22.5t1 22.5z" />
<glyph unicode="&#xe6;" horiz-adv-x="1667" d="M1606 752q0 -70 -14.5 -139.5t-26.5 -137.5h-666q-6 -35 -13 -71.5t-7 -73.5q0 -61 21.5 -107.5t59 -78t89 -48t108.5 -16.5q72 0 136.5 26.5t123.5 67.5l56 -68q-68 -57 -159 -94t-181 -37q-57 0 -111.5 11.5t-101 36t-82 64.5t-54.5 99h-12q-66 -100 -168 -154.5 t-221 -54.5q-53 0 -106.5 12.5t-96.5 39t-70.5 69.5t-27.5 105q0 12 1 24.5t3 24.5q16 88 60 151.5t107.5 102.5t140.5 57.5t161 18.5h240l21 102q11 53 11 104q0 92 -55 132.5t-141 40.5q-51 0 -98.5 -10.5t-86 -34t-64.5 -62.5t-34 -94h-110q12 82 52 137t96 89t127 49.5 t144 15.5q43 0 85 -7.5t80 -25t68 -46t46 -71.5q74 78 167 114t197 36q147 0 226.5 -76t79.5 -223zM1487 735q0 213 -217 213q-127 0 -219.5 -73.5t-114.5 -200.5l-18 -101h548q6 41 13.5 81t7.5 81zM524 487q-121 0 -202.5 -48t-106.5 -175q-2 -10 -2 -18v-19 q0 -41 16.5 -69.5t44 -46t61.5 -25.5t71 -8q59 0 116.5 18.5t105.5 52t80.5 83t45.5 110.5l12 72q6 37 14 73h-256z" />
<glyph unicode="&#xe7;" horiz-adv-x="952" d="M938 797q0 -41 -10 -88h-113q4 16 6 30.5t2 30.5q0 49 -18.5 83t-49 55.5t-70.5 30.5t-83 9q-78 0 -132 -24.5t-93 -67.5t-61.5 -102.5t-34.5 -128.5l-41 -234q-4 -25 -6.5 -44t-2.5 -42q0 -113 65.5 -169t176.5 -56q39 0 80 11t80 30.5t72.5 44t60.5 53.5l72 -53 q-66 -80 -155 -131t-194 -60l-36 -98q27 0 58.5 -2t59 -11t46 -28.5t18.5 -56.5q0 -51 -25.5 -86t-64.5 -56.5t-85 -32t-87 -10.5t-96.5 11.5t-90.5 29.5l13 68q35 -16 89 -26.5t93 -10.5q20 0 47 3t49.5 12.5t37.5 27t15 45.5q0 35 -26.5 45.5t-54.5 12.5l-103 2l66 163 q-68 6 -124.5 29t-97 60.5t-63.5 93t-23 129.5q0 29 4 50l7 50l43 244q16 92 54 168t96.5 131t135 86t172.5 31q61 0 120 -13.5t103 -42t71.5 -77.5t27.5 -119z" />
<glyph unicode="&#xe8;" horiz-adv-x="1019" d="M561 1184l-205 325h138l157 -325h-90zM956 745q0 -68 -13 -136t-23 -134h-666q-8 -35 -14.5 -72.5t-6.5 -74.5q0 -127 79 -187.5t200 -60.5q78 0 151.5 42t127.5 97l71 -53q-72 -86 -168 -138.5t-209 -52.5q-78 0 -147.5 17.5t-120.5 56.5t-81 99.5t-30 146.5 q0 25 2.5 49.5t6.5 48.5l41 230q35 195 150.5 310.5t316.5 115.5q74 0 134 -19.5t105 -57.5t69.5 -95.5t24.5 -131.5zM840 735q0 106 -65.5 159.5t-174.5 53.5q-131 0 -211 -77.5t-102 -206.5l-17 -91h549q8 41 14.5 81t6.5 81z" />
<glyph unicode="&#xe9;" horiz-adv-x="1019" d="M664 1184h-93l232 325h137zM956 745q0 -68 -13 -136t-23 -134h-666q-8 -35 -14.5 -72.5t-6.5 -74.5q0 -127 79 -187.5t200 -60.5q78 0 151.5 42t127.5 97l71 -53q-72 -86 -168 -138.5t-209 -52.5q-78 0 -147.5 17.5t-120.5 56.5t-81 99.5t-30 146.5q0 25 2.5 49.5 t6.5 48.5l41 230q35 195 150.5 310.5t316.5 115.5q74 0 134 -19.5t105 -57.5t69.5 -95.5t24.5 -131.5zM840 735q0 106 -65.5 159.5t-174.5 53.5q-131 0 -211 -77.5t-102 -206.5l-17 -91h549q8 41 14.5 81t6.5 81z" />
<glyph unicode="&#xea;" horiz-adv-x="1019" d="M778 1184l-86 256l-176 -256h-110l237 336h127l111 -336h-103zM956 745q0 -68 -13 -136t-23 -134h-666q-8 -35 -14.5 -72.5t-6.5 -74.5q0 -127 79 -187.5t200 -60.5q78 0 151.5 42t127.5 97l71 -53q-72 -86 -168 -138.5t-209 -52.5q-78 0 -147.5 17.5t-120.5 56.5 t-81 99.5t-30 146.5q0 25 2.5 49.5t6.5 48.5l41 230q35 195 150.5 310.5t316.5 115.5q74 0 134 -19.5t105 -57.5t69.5 -95.5t24.5 -131.5zM840 735q0 106 -65.5 159.5t-174.5 53.5q-131 0 -211 -77.5t-102 -206.5l-17 -91h549q8 41 14.5 81t6.5 81z" />
<glyph unicode="&#xeb;" horiz-adv-x="1019" d="M911 1223h-125l31 174h125zM535 1223h-125l30 174h125zM956 745q0 -68 -13 -136t-23 -134h-666q-8 -35 -14.5 -72.5t-6.5 -74.5q0 -127 79 -187.5t200 -60.5q78 0 151.5 42t127.5 97l71 -53q-72 -86 -168 -138.5t-209 -52.5q-78 0 -147.5 17.5t-120.5 56.5t-81 99.5 t-30 146.5q0 25 2.5 49.5t6.5 48.5l41 230q35 195 150.5 310.5t316.5 115.5q74 0 134 -19.5t105 -57.5t69.5 -95.5t24.5 -131.5zM840 735q0 106 -65.5 159.5t-174.5 53.5q-131 0 -211 -77.5t-102 -206.5l-17 -91h549q8 41 14.5 81t6.5 81z" />
<glyph unicode="&#xec;" horiz-adv-x="446" d="M283 1184l-203 325h137l158 -325h-92zM207 0h-121l180 1022h121z" />
<glyph unicode="&#xed;" horiz-adv-x="446" d="M399 1184h-92l232 325h137zM207 0h-121l180 1022h121z" />
<glyph unicode="&#xee;" horiz-adv-x="446" d="M489 1184l-86 256l-176 -256h-110l237 336h127l111 -336h-103zM207 0h-121l180 1022h121z" />
<glyph unicode="&#xef;" horiz-adv-x="446" d="M610 1223h-125l31 174h125zM233 1223h-124l30 174h125zM207 0h-121l180 1022h121z" />
<glyph unicode="&#xf0;" d="M750 1253l170 -358q16 -35 22 -72t6 -73q0 -29 -3 -58.5t-7 -58.5l-43 -244q-33 -186 -152.5 -300t-314.5 -114q-150 0 -237 70t-87 227q0 55 13 115l43 244q33 188 151.5 302t313.5 114q23 0 49 -2.5t55 -8.5l-90 187l-219 -60l-8 86l188 51l-80 166l113 33l80 -168 l256 70l10 -84zM825 741q0 109 -55 158t-162 49q-78 0 -134 -24.5t-95 -67.5t-62.5 -102.5t-35.5 -128.5l-41 -236q-10 -57 -11 -106q0 -111 54.5 -161t160.5 -50q78 0 134.5 24.5t95.5 67.5t62.5 102.5t35.5 128.5l43 238q4 29 7 54t3 54z" />
<glyph unicode="&#xf1;" horiz-adv-x="1077" d="M1022 1386q-29 -72 -73 -117.5t-118 -45.5q-41 0 -77.5 9t-71.5 19l-79 19.5t-81 9.5q-47 0 -73 -23q-10 -10 -19.5 -25l-19.5 -30l-66 10q33 78 81 123t120 45q39 0 75.5 -9t71.5 -19q37 -10 76 -19.5t82 -9.5q23 0 38 6t27 17q12 12 22.5 27.5t18.5 29.5zM983 811 q0 -16 -2 -35.5t-6 -36.5l-131 -739h-121l121 688q4 16 7 46t3 48q0 80 -47 122t-135 42q-66 0 -125.5 -30.5t-108.5 -80t-82.5 -109.5t-44.5 -120l-106 -606h-121l180 1024h117l-31 -180h4q66 94 158 149.5t213 55.5q117 0 187.5 -68t70.5 -170z" />
<glyph unicode="&#xf2;" d="M561 1184l-205 325h138l157 -325h-90zM950 748q0 -57 -12 -115l-20 -121l-21 -121q-35 -188 -153.5 -302t-315.5 -114q-150 0 -237 71t-87 226q0 29 3.5 58.5t7.5 58.5q10 61 21 121.5l22 122.5q16 92 55 169t97.5 132t137 85t177.5 30q150 0 237.5 -71.5t87.5 -229.5z M825 743q0 106 -54 155.5t-161 49.5q-78 0 -134 -24.5t-95 -67.5t-62.5 -102.5t-35.5 -128.5l-41 -234q-12 -55 -13 -108q0 -109 54.5 -159t160.5 -50q76 0 132.5 23.5t96.5 66.5t63.5 102.5t35.5 130.5l43 238q4 29 7 54t3 54z" />
<glyph unicode="&#xf3;" d="M643 1184h-92l231 325h138zM950 748q0 -57 -12 -115l-20 -121l-21 -121q-35 -188 -153.5 -302t-315.5 -114q-150 0 -237 71t-87 226q0 29 3.5 58.5t7.5 58.5q10 61 21 121.5l22 122.5q16 92 55 169t97.5 132t137 85t177.5 30q150 0 237.5 -71.5t87.5 -229.5zM825 743 q0 106 -54 155.5t-161 49.5q-78 0 -134 -24.5t-95 -67.5t-62.5 -102.5t-35.5 -128.5l-41 -234q-12 -55 -13 -108q0 -109 54.5 -159t160.5 -50q76 0 132.5 23.5t96.5 66.5t63.5 102.5t35.5 130.5l43 238q4 29 7 54t3 54z" />
<glyph unicode="&#xf4;" d="M782 1184l-86 256l-176 -256h-110l237 336h127l111 -336h-103zM950 748q0 -57 -12 -115l-20 -121l-21 -121q-35 -188 -153.5 -302t-315.5 -114q-150 0 -237 71t-87 226q0 29 3.5 58.5t7.5 58.5q10 61 21 121.5l22 122.5q16 92 55 169t97.5 132t137 85t177.5 30 q150 0 237.5 -71.5t87.5 -229.5zM825 743q0 106 -54 155.5t-161 49.5q-78 0 -134 -24.5t-95 -67.5t-62.5 -102.5t-35.5 -128.5l-41 -234q-12 -55 -13 -108q0 -109 54.5 -159t160.5 -50q76 0 132.5 23.5t96.5 66.5t63.5 102.5t35.5 130.5l43 238q4 29 7 54t3 54z" />
<glyph unicode="&#xf5;" d="M981 1386q-29 -72 -73 -117.5t-117 -45.5q-41 0 -78 9t-72 19l-79 19.5t-81 9.5q-47 0 -73 -23q-10 -10 -19.5 -25l-19.5 -30l-66 10q33 78 81 123t120 45q39 0 75.5 -9t71.5 -19q37 -10 76 -19.5t82 -9.5q23 0 38 6t27 17q12 12 22.5 27.5t18.5 29.5zM950 748 q0 -57 -12 -115l-20 -121l-21 -121q-35 -188 -153.5 -302t-315.5 -114q-150 0 -237 71t-87 226q0 29 3.5 58.5t7.5 58.5q10 61 21 121.5l22 122.5q16 92 55 169t97.5 132t137 85t177.5 30q150 0 237.5 -71.5t87.5 -229.5zM825 743q0 106 -54 155.5t-161 49.5 q-78 0 -134 -24.5t-95 -67.5t-62.5 -102.5t-35.5 -128.5l-41 -234q-12 -55 -13 -108q0 -109 54.5 -159t160.5 -50q76 0 132.5 23.5t96.5 66.5t63.5 102.5t35.5 130.5l43 238q4 29 7 54t3 54z" />
<glyph unicode="&#xf6;" d="M872 1223h-124l30 174h125zM496 1223h-125l30 174h125zM950 748q0 -57 -12 -115l-20 -121l-21 -121q-35 -188 -153.5 -302t-315.5 -114q-150 0 -237 71t-87 226q0 29 3.5 58.5t7.5 58.5q10 61 21 121.5l22 122.5q16 92 55 169t97.5 132t137 85t177.5 30 q150 0 237.5 -71.5t87.5 -229.5zM825 743q0 106 -54 155.5t-161 49.5q-78 0 -134 -24.5t-95 -67.5t-62.5 -102.5t-35.5 -128.5l-41 -234q-12 -55 -13 -108q0 -109 54.5 -159t160.5 -50q76 0 132.5 23.5t96.5 66.5t63.5 102.5t35.5 130.5l43 238q4 29 7 54t3 54z" />
<glyph unicode="&#xf7;" horiz-adv-x="1220" d="M766 883h-145l28 170h146zM1092 606h-895l16 90h895zM655 262h-145l31 170h145z" />
<glyph unicode="&#xf8;" d="M905 932q27 -41 37 -88t10 -94q0 -29 -3 -58.5t-7 -58.5l-43 -242q-35 -188 -153.5 -302t-313.5 -114q-59 0 -116.5 11.5t-104.5 46.5l-74 -96l-67 38l86 113q-27 41 -38.5 90t-11.5 96q0 55 13 115l43 244q16 92 54 169t96.5 132t137 85t177.5 30q59 0 117.5 -13.5 t105.5 -48.5l72 94l67 -39zM778 893q-35 33 -78 44t-88 11q-78 0 -133 -24.5t-95 -67.5t-63.5 -102.5t-35.5 -128.5l-41 -234q-10 -57 -11 -104q0 -23 2.5 -43.5t8.5 -42.5zM827 739q0 20 -2 40t-8 40l-532 -690q33 -33 74.5 -44t86.5 -11q78 0 134.5 24.5t95.5 67.5 t62.5 102.5t35.5 128.5l43 238q10 57 10 104z" />
<glyph unicode="&#xf9;" horiz-adv-x="1077" d="M633 1184l-203 325h137l158 -325h-92zM844 0h-117l31 180h-4q-66 -94 -158 -149.5t-213 -55.5q-117 0 -187.5 68t-70.5 170q0 16 2 35.5t6 36.5l131 739h121l-121 -688q-4 -16 -7 -46t-3 -48q0 -80 47 -122t135 -42q63 0 124 30.5t110 80t82.5 109.5t44.5 120l106 606 h121z" />
<glyph unicode="&#xfa;" horiz-adv-x="1077" d="M696 1184h-90l230 325h137zM844 0h-117l31 180h-4q-66 -94 -158 -149.5t-213 -55.5q-117 0 -187.5 68t-70.5 170q0 16 2 35.5t6 36.5l131 739h121l-121 -688q-4 -16 -7 -46t-3 -48q0 -80 47 -122t135 -42q63 0 124 30.5t110 80t82.5 109.5t44.5 120l106 606h121z" />
<glyph unicode="&#xfb;" horiz-adv-x="1077" d="M809 1184l-86 256l-176 -256h-111l238 336h127l110 -336h-102zM844 0h-117l31 180h-4q-66 -94 -158 -149.5t-213 -55.5q-117 0 -187.5 68t-70.5 170q0 16 2 35.5t6 36.5l131 739h121l-121 -688q-4 -16 -7 -46t-3 -48q0 -80 47 -122t135 -42q63 0 124 30.5t110 80 t82.5 109.5t44.5 120l106 606h121z" />
<glyph unicode="&#xfc;" horiz-adv-x="1077" d="M920 1223h-125l30 174h125zM543 1223h-125l31 174h124zM844 0h-117l31 180h-4q-66 -94 -158 -149.5t-213 -55.5q-117 0 -187.5 68t-70.5 170q0 16 2 35.5t6 36.5l131 739h121l-121 -688q-4 -16 -7 -46t-3 -48q0 -80 47 -122t135 -42q63 0 124 30.5t110 80t82.5 109.5 t44.5 120l106 606h121z" />
<glyph unicode="&#xfd;" horiz-adv-x="1052" d="M713 1176h-101l226 360h147zM838 -23q-16 -90 -59.5 -161.5t-106 -121.5t-143 -77t-171.5 -27q-104 0 -195 34t-151 130l92 68q51 -70 120 -100.5t155 -30.5q55 0 110.5 20.5t101.5 56t78.5 84t43.5 103.5l43 229h-4q-61 -76 -157.5 -125t-197.5 -49q-125 0 -192.5 65.5 t-67.5 198.5q0 16 2 34l4 34l12 61l16 94l19 111l21 119q23 137 53 297h123l-115 -668q-6 -29 -6 -57q0 -96 38 -141t130 -45q57 0 117.5 26.5t112 69.5t87 98t46.5 113l108 604h117z" />
<glyph unicode="&#xfe;" horiz-adv-x="1060" d="M993 766q0 -35 -6 -68l-32 -181l-33 -181q-35 -172 -149 -265.5t-277 -93.5q-37 0 -76 7.5t-75 24t-65.5 41t-43.5 59.5h-11l-88 -504h-121l326 1855h119l-105 -602h6q61 92 148.5 141.5t189.5 49.5q61 0 115.5 -19.5t93.5 -56.5t61.5 -89t22.5 -118zM864 760 q0 96 -57 141t-150 45q-59 0 -115.5 -26.5t-102.5 -69.5t-77.5 -97.5t-42.5 -109.5l-49 -283q-2 -12 -3 -25t-1 -26q0 -51 19.5 -94t52.5 -74.5t77 -49t93 -17.5q57 0 105.5 20.5t86 56t62 83t35.5 102.5l31 174l32 174q2 14 3 37t1 39z" />
<glyph unicode="&#xff;" horiz-adv-x="1052" d="M899 1253h-127l33 191h127zM571 1253h-127l33 191h127zM838 -23q-16 -90 -59.5 -161.5t-106 -121.5t-143 -77t-171.5 -27q-104 0 -195 34t-151 130l92 68q51 -70 120 -100.5t155 -30.5q55 0 110.5 20.5t101.5 56t78.5 84t43.5 103.5l43 229h-4q-61 -76 -157.5 -125 t-197.5 -49q-125 0 -192.5 65.5t-67.5 198.5q0 16 2 34l4 34l12 61l16 94l19 111l21 119q23 137 53 297h123l-115 -668q-6 -29 -6 -57q0 -96 38 -141t130 -45q57 0 117.5 26.5t112 69.5t87 98t46.5 113l108 604h117z" />
<glyph unicode="&#x152;" horiz-adv-x="2019" d="M2048 1350h-713l-94 -535h557l-20 -110h-557l-105 -594h713l-19 -111h-837l22 133q-90 -80 -198.5 -119t-227.5 -39q-90 0 -171 21.5t-141 67t-95 116t-35 170.5q0 29 3 54.5t7 52.5l45 253l45 253q20 119 74.5 216t134.5 165.5t184.5 105.5t225.5 37q102 0 199.5 -28.5 t164.5 -110.5l19 112h837zM1157 1047q2 10 1 20t-1 20q0 80 -25.5 134.5t-71.5 88t-108.5 49t-134.5 15.5q-94 0 -171 -29.5t-135 -84t-96 -129t-55 -164.5l-88 -500q-8 -41 -8 -90q0 -78 25.5 -133.5t69.5 -90t105.5 -51t133.5 -16.5q135 0 243.5 58.5t168.5 181.5l21 48 q11 26 16 48l55 312z" />
<glyph unicode="&#x153;" horiz-adv-x="1689" d="M1616 752q0 -70 -13 -140l-26 -137h-666q-6 -37 -13 -75t-7 -74q0 -61 21.5 -107.5t59.5 -77t88 -46t107 -15.5q72 0 136.5 26.5t123.5 67.5l56 -68q-68 -57 -159 -94t-181 -37q-51 0 -102.5 8.5t-98.5 27t-86 51t-63 81.5q-70 -86 -163 -127t-202 -41q-150 0 -237 70 t-87 227q0 29 3.5 58.5t7.5 58.5l43 244q16 92 55 169t97.5 132t137 85t177.5 30q49 0 95 -8.5t86 -28t71.5 -51t50.5 -80.5q74 86 174 128t211 42q147 0 225 -76t78 -223zM1499 733q0 109 -56.5 162t-162.5 53q-131 0 -222 -77.5t-114 -206.5l-16 -91h549l15 80q7 39 7 80z M825 741q0 109 -54 158t-161 49q-78 0 -133 -24.5t-95 -67.5t-63.5 -102.5t-35.5 -128.5l-41 -234q-12 -55 -13 -108q0 -209 215 -209q76 0 132.5 24.5t96.5 67.5t63.5 102.5t35.5 128.5l43 238q10 57 10 106z" />
<glyph unicode="&#x178;" horiz-adv-x="1146" d="M1049 1620h-127l32 190h127zM655 1620h-127l33 190h127zM678 625l-111 -625h-129l111 625l-305 835h131l256 -723l516 723h135z" />
<glyph unicode="&#x2c6;" horiz-adv-x="753" d="M637 1198l-86 254l-176 -254h-111l238 336h127l110 -336h-102z" />
<glyph unicode="&#x2dc;" horiz-adv-x="856" d="M915 1386q-29 -72 -72.5 -117.5t-117.5 -45.5q-41 0 -78 9t-72 19l-78.5 19.5t-80.5 9.5q-47 0 -74 -23q-12 -10 -20.5 -25t-18.5 -30l-65 10q33 78 81 123t119 45q39 0 76 -9t72 -19l75.5 -19.5t81.5 -9.5q39 0 66 23q12 12 21.5 27.5t19.5 29.5z" />
<glyph unicode="&#x2000;" horiz-adv-x="978" />
<glyph unicode="&#x2001;" horiz-adv-x="1959" />
<glyph unicode="&#x2002;" horiz-adv-x="978" />
<glyph unicode="&#x2003;" horiz-adv-x="1959" />
<glyph unicode="&#x2004;" horiz-adv-x="653" />
<glyph unicode="&#x2005;" horiz-adv-x="489" />
<glyph unicode="&#x2006;" horiz-adv-x="325" />
<glyph unicode="&#x2007;" horiz-adv-x="325" />
<glyph unicode="&#x2008;" horiz-adv-x="243" />
<glyph unicode="&#x2009;" horiz-adv-x="391" />
<glyph unicode="&#x200a;" horiz-adv-x="108" />
<glyph unicode="&#x2010;" horiz-adv-x="745" d="M639 485h-555l22 129h556z" />
<glyph unicode="&#x2011;" horiz-adv-x="745" d="M639 485h-555l22 129h556z" />
<glyph unicode="&#x2012;" horiz-adv-x="745" d="M639 485h-555l22 129h556z" />
<glyph unicode="&#x2013;" horiz-adv-x="1138" d="M1077 508h-993l18 106h994z" />
<glyph unicode="&#x2014;" horiz-adv-x="1642" d="M1589 508h-1497l19 106h1497z" />
<glyph unicode="&#x2018;" horiz-adv-x="452" d="M393 1249h45l-39 -221h-141l39 225l104 207h80z" />
<glyph unicode="&#x2019;" horiz-adv-x="452" d="M424 1235l-102 -207h-80l88 211h-45l39 221h141z" />
<glyph unicode="&#x201a;" horiz-adv-x="458" d="M233 6l-102 -207h-80l88 211h-45l39 221h141z" />
<glyph unicode="&#x201c;" horiz-adv-x="741" d="M684 1249h45l-39 -221h-141l39 225l104 207h80zM395 1249h45l-39 -221h-141l39 225l104 207h80z" />
<glyph unicode="&#x201d;" horiz-adv-x="741" d="M713 1235l-103 -207h-80l88 211h-45l39 221h142zM424 1235l-102 -207h-80l88 211h-45l39 221h141z" />
<glyph unicode="&#x201e;" horiz-adv-x="741" d="M526 6l-102 -207h-80l88 211h-45l39 221h141zM238 6l-103 -207h-80l88 211h-45l39 221h142z" />
<glyph unicode="&#x2022;" horiz-adv-x="753" d="M586 741q-10 -66 -63.5 -111.5t-116.5 -45.5q-66 0 -102 46t-25 111q12 66 64 111t118 45q63 0 100 -45t25 -111z" />
<glyph unicode="&#x2026;" horiz-adv-x="1306" d="M1036 0h-141l41 231h141zM657 0h-141l41 231h141zM279 0h-142l41 231h141z" />
<glyph unicode="&#x202f;" horiz-adv-x="391" />
<glyph unicode="&#x2039;" horiz-adv-x="665" d="M283 559l237 -321l-84 -68l-315 389l452 391l60 -69z" />
<glyph unicode="&#x203a;" horiz-adv-x="665" d="M104 170l-61 68l354 321l-237 322l82 69l313 -391z" />
<glyph unicode="&#x205f;" horiz-adv-x="489" />
<glyph unicode="&#x20ac;" horiz-adv-x="1437" d="M1397 1151q0 -45 -6.5 -89t-14.5 -87h-121q16 78 17 147q0 74 -21.5 122t-61.5 77t-95.5 41t-120.5 12q-106 0 -182 -34.5t-127.5 -94t-82 -141.5t-46.5 -176h509l-18 -101h-510l-37 -217h510l-18 -100h-510l-12 -74q-6 -37 -7 -74q0 -150 86 -213t226 -63 q102 0 173.5 26.5t120 78t77 125t44.5 167.5h121q-20 -119 -64 -213t-114 -159.5t-167 -100.5t-222 -35q-90 0 -166 20.5t-131 64.5t-87 114t-32 166q0 43 6 85t15 85h-215l18 100h215l37 217h-215l18 101h215l7 35q20 119 69 215t124 164.5t176.5 106.5t223.5 38 q86 0 159 -17.5t125 -57.5t82 -103.5t30 -157.5z" />
<glyph unicode="&#x2122;" horiz-adv-x="1286" d="M1208 848h-86l82 471l-207 -340h-65l-82 338l-82 -469h-84l109 620h114l84 -358l213 358h113zM678 1386h-164l-94 -538h-90l94 538h-168l14 82h422z" />
<glyph unicode="&#xe000;" horiz-adv-x="1025" d="M0 1025h1025v-1025h-1025v1025z" />
<glyph unicode="&#xfb01;" horiz-adv-x="1171" d="M1153 1260h-121l39 215h121zM932 0h-121l180 1022h121zM850 1364q-35 16 -63.5 22.5t-71.5 6.5q-63 0 -115.5 -41t-69.5 -140l-34 -198h276l-18 -96h-277l-229 -1309l-123 -19l231 1328h-194l18 96h195l31 182q27 141 118.5 218t214.5 77q70 0 129 -23z" />
<glyph unicode="&#xfb02;" horiz-adv-x="1308" d="M1190 6q-35 -10 -72 -18t-74 -8q-88 0 -145 35.5t-57 121.5q0 16 2 39t6 39l219 1245h123l-219 -1243q-2 -10 -4 -24.5t-2 -24.5q0 -51 28.5 -69.5t79.5 -18.5q33 0 66 5t65 11zM850 1364q-35 16 -63.5 22.5t-71.5 6.5q-63 0 -115.5 -41t-69.5 -140l-34 -198h276l-18 -96 h-277l-229 -1309l-123 -19l231 1328h-194l18 96h195l31 182q27 141 118.5 218t214.5 77q70 0 129 -23z" />
<glyph unicode="&#xfb03;" horiz-adv-x="1945" d="M1927 1260h-121l39 215h121zM1706 0h-121l180 1022h121zM1600 1364q-35 16 -63.5 22.5t-71.5 6.5q-63 0 -115.5 -41t-69.5 -140l-34 -198h276l-18 -96h-277l-229 -1309l-123 -19l231 1328h-194l18 96h195l31 182q27 141 118.5 218t214.5 77q70 0 129 -23zM850 1364 q-35 16 -63.5 22.5t-71.5 6.5q-63 0 -115.5 -41t-69.5 -140l-34 -198h276l-18 -96h-277l-229 -1309l-123 -19l231 1328h-194l18 96h195l31 182q27 141 118.5 218t214.5 77q70 0 129 -23z" />
<glyph unicode="&#xfb04;" horiz-adv-x="2093" d="M1974 6q-35 -10 -71.5 -18t-73.5 -8q-88 0 -145.5 35.5t-57.5 121.5q0 16 2 39t6 39l219 1245h123l-219 -1243q-2 -10 -4 -24.5t-2 -24.5q0 -51 29.5 -69.5t78.5 -18.5q33 0 66 5t66 11zM1600 1364q-35 16 -63.5 22.5t-71.5 6.5q-63 0 -115.5 -41t-69.5 -140l-34 -198 h276l-18 -96h-277l-229 -1309l-123 -19l231 1328h-194l18 96h195l31 182q27 141 118.5 218t214.5 77q70 0 129 -23zM850 1364q-35 16 -63.5 22.5t-71.5 6.5q-63 0 -115.5 -41t-69.5 -140l-34 -198h276l-18 -96h-277l-229 -1309l-123 -19l231 1328h-194l18 96h195l31 182 q27 141 118.5 218t214.5 77q70 0 129 -23z" />
</font>
</defs>
</svg>
