<?xml version="1.0" standalone="no"?>
<!DOCTYPE svg PUBLIC "-//W3C//DTD SVG 1.1//EN" "http://www.w3.org/Graphics/SVG/1.1/DTD/svg11.dtd" >
<svg xmlns="http://www.w3.org/2000/svg">
<metadata>
This is a custom SVG webfont generated by Font Squirrel.
Copyright   : Copyright c 2008 by Mrio Feliciano All rights reserved
Designer    : Mrio Feliciano
Foundry     : Mrio Feliciano  Feliciano Type Foundry
Foundry URL : wwwfelicianotypefoundrycom
</metadata>
<defs>
<font id="webfontTUzoSWar" horiz-adv-x="1146" >
<font-face units-per-em="2048" ascent="1638" descent="-410" />
<missing-glyph horiz-adv-x="471" />
<glyph unicode=" "  horiz-adv-x="471" />
<glyph unicode="&#x09;" horiz-adv-x="471" />
<glyph unicode="&#xa0;" horiz-adv-x="471" />
<glyph unicode="!" horiz-adv-x="548" d="M258 373l-2 622v465h41v-465l-2 -622h-37zM248 0v164h51v-164h-51z" />
<glyph unicode="&#x22;" horiz-adv-x="626" d="M170 1122l-10 183v163h51v-163l-10 -183h-31zM426 1122l-10 183v163h51v-163l-10 -183h-31z" />
<glyph unicode="#" horiz-adv-x="1130" d="M186 -12l74 424h-207l8 34h205l101 560h-215l8 32h213l71 389h31l-69 -389h444l70 389h32l-65 -389h203l-7 -32h-204l-101 -560h211l-6 -34h-209l-74 -424h-36l71 424h-438l-72 -424h-39zM303 446h438l105 560h-445z" />
<glyph unicode="$" horiz-adv-x="1050" d="M498 -90v246q-156 4 -258.5 74.5t-137.5 193.5l39 8q84 -240 381 -239q152 0 246 73.5t94 192.5q0 109 -51 169t-156 93q-39 12 -128 37.5t-130 40.5q-127 39 -177 104.5t-50 163.5q0 117 91 199t237 84v198h37v-198q244 -10 344 -193l-37 -18q-98 172 -326 172 q-123 0 -212 -63.5t-89 -174.5q0 -45 6 -73.5t26.5 -62.5t64.5 -58.5t116 -44.5l254 -78q223 -68 223 -289q0 -129 -98 -218t-272 -93v-246h-37z" />
<glyph unicode="%" horiz-adv-x="1501" d="M365 754q-115 0 -175.5 64.5t-60.5 172.5v258q0 115 66.5 174.5t173.5 59.5q109 0 176 -58.5t67 -175.5v-272q0 -104 -70.5 -163.5t-176.5 -59.5zM368.5 786q96.5 0 154 55.5t57.5 133.5v287q0 80 -56.5 135t-154.5 55q-96 0 -150.5 -54.5t-54.5 -135.5v-287 q0 -84 54 -136.5t150.5 -52.5zM1124 -23q-109 0 -172 57.5t-63 166.5v256q0 117 67.5 182.5t171.5 65.5q111 0 178.5 -58.5t67.5 -175.5v-272q0 -104 -72 -163t-178 -59zM1128.5 8q96.5 0 154.5 55.5t58 133.5v286q0 80 -57 136.5t-156 56.5q-96 0 -150 -55.5t-54 -137.5 v-286q0 -86 54 -137.5t150.5 -51.5zM295 0l895 1468h41l-893 -1468h-43z" />
<glyph unicode="&#x26;" horiz-adv-x="1482" d="M610 -27q-205 0 -324.5 120t-119.5 284q0 59 18.5 116.5t59.5 119t124 113.5t199 85q-209 209 -209 379q0 47 15.5 93t52.5 95t113.5 80t183.5 31q154 0 234.5 -84t80.5 -199q0 -297 -401 -413l481 -521q86 125 156 330l35 -12q-47 -160 -164 -346l235 -244h-55l-209 215 q-187 -242 -506 -242zM614 819q193 61 286 149.5t93 235.5q0 121 -84 183.5t-192 62.5q-147 0 -230.5 -73.5t-83.5 -188.5q0 -129 158 -307q37 -42 53 -62zM608 12q145 0 275.5 60.5t208.5 171.5l-498 538q-186 -45 -284.5 -154.5t-98.5 -240.5q0 -162 112.5 -268.5 t284.5 -106.5z" />
<glyph unicode="'" horiz-adv-x="370" d="M170 1122l-10 183v163h51v-163l-10 -183h-31z" />
<glyph unicode="(" horiz-adv-x="591" d="M465 -379q-133 186 -196.5 451.5t-63.5 492.5q0 526 260 942l31 -6q-127 -238 -189.5 -443.5t-62.5 -494.5q0 -518 256 -938z" />
<glyph unicode=")" horiz-adv-x="591" d="M127 -379l-31 4q252 414 252 938q0 289 -62.5 496t-187.5 442l29 6q260 -416 260 -942q0 -227 -63.5 -492.5t-196.5 -451.5z" />
<glyph unicode="*" horiz-adv-x="813" d="M215 852l-35 25l170 237l-258 162l21 31l274 -168v321h39v-321l274 168l21 -31l-260 -162l174 -237l-33 -25l-196 264z" />
<glyph unicode="+" d="M557 170v463h-461v33h461v460h37v-460h457v-33h-457v-463h-37z" />
<glyph unicode="," horiz-adv-x="362" d="M152 -182l22 182h-18v164h51v-166l-29 -180h-26z" />
<glyph unicode="-" horiz-adv-x="716" d="M115 561v45h487v-45h-487z" />
<glyph unicode="." horiz-adv-x="362" d="M156 0v164h51v-164h-51z" />
<glyph unicode="/" horiz-adv-x="681" d="M57 -219l525 1708h34l-520 -1708h-39z" />
<glyph unicode="0" horiz-adv-x="1161" d="M586 -27q-199 0 -325 106.5t-126 291.5v719q0 184 129 291.5t320 107.5q197 0 319.5 -106.5t122.5 -292.5v-717q0 -184 -126 -292t-314 -108zM585.5 8q186.5 0 292 102.5t105.5 272.5v709q0 150 -109.5 256t-291.5 106q-184 0 -295 -107.5t-111 -265.5v-706 q0 -158 111.5 -262.5t298 -104.5z" />
<glyph unicode="1" horiz-adv-x="985" d="M100 0v37h402v1380l-367 -82l-6 29l381 96h33v-1423h372v-37h-815z" />
<glyph unicode="2" horiz-adv-x="1001" d="M141 0v27l324 346q176 201 268 369.5t92 373.5v6q0 147 -86 237.5t-254 90.5q-145 0 -239 -71.5t-94 -198.5v-64h-39v53q0 154 103 237t278 83q186 0 281 -99.5t95 -261.5q0 -209 -93 -389t-285 -395l-287 -305v-2h717v-37h-781z" />
<glyph unicode="3" horiz-adv-x="1054" d="M537 -27q-197 0 -304.5 89.5t-107.5 199.5v72h41v-58q0 -127 111.5 -196.5t259.5 -69.5q158 0 269.5 100.5t111.5 266.5q0 109 -44.5 186.5t-112 113.5t-123.5 51t-103 15h-160v39h168q147 0 238 91.5t91 252.5q0 168 -97 247t-238 79q-145 0 -252 -67.5t-107 -217.5v-47 h-39v58q0 139 109.5 224t290.5 85q102 0 179 -34t115.5 -89t57 -111.5t18.5 -115.5q0 -313 -264 -369v-6q137 -31 228.5 -127t89.5 -240q0 -188 -115.5 -305t-310.5 -117z" />
<glyph unicode="4" d="M756 0v442h-666v37l645 981h49l-649 -981h621v428l41 27v-455h239v-37h-239v-442h-41z" />
<glyph unicode="5" horiz-adv-x="1058" d="M528 -27q-199 0 -301 89.5t-102 201.5v70h41v-58q0 -129 106.5 -197.5t251.5 -68.5q74 0 137.5 18.5t125 62.5t97.5 132t36 213v19q0 197 -100.5 294t-262.5 97q-180 0 -340 -123l-49 4l47 735h670v-37h-637l-43 -667q176 125 364 125q170 0 282 -112t112 -310v-10 q0 -240 -117 -359t-318 -119z" />
<glyph unicode="6" horiz-adv-x="1085" d="M537 -27q-186 0 -294 114t-108 290v721q0 180 116 284.5t302 104.5q178 0 279.5 -84t101.5 -229v-41h-37v30q0 135 -94 212t-250 77q-174 0 -275.5 -101.5t-101.5 -252.5v-424q61 115 174 176t232 61q150 0 259 -93t109 -236v-240q0 -174 -112.5 -271.5t-300.5 -97.5z M551 10q168 0 263 90t95 226v229q0 162 -103.5 239.5t-242.5 77.5q-137 0 -262 -97t-125 -245v-168q0 -141 100.5 -246.5t274.5 -105.5z" />
<glyph unicode="7" horiz-adv-x="1001" d="M324 0q-2 408 174 828.5t372 594.5h-780v37h830v-28q-225 -233 -387 -620.5t-164 -811.5h-45z" />
<glyph unicode="8" horiz-adv-x="1071" d="M535 -27q-182 0 -297 100.5t-115 262.5v67q0 123 82 216.5t207 130.5q-125 29 -199 117.5t-74 191.5v69q0 170 118 264.5t280 94.5q168 0 282.5 -88t114.5 -256v-66q0 -102 -75 -196.5t-206 -126.5q127 -31 211 -123t84 -228v-59q0 -174 -114.5 -272.5t-298.5 -98.5z M537 8q164 0 265 92.5t101 251.5v54q0 158 -111.5 242.5t-254.5 84.5q-147 0 -259 -88t-112 -246v-59q0 -145 108.5 -238.5t262.5 -93.5zM541 764q129 0 238.5 89t109.5 228v72q0 141 -107.5 219t-253.5 78q-133 0 -239.5 -84t-106.5 -223v-64q0 -152 115 -233.5t244 -81.5z " />
<glyph unicode="9" horiz-adv-x="1110" d="M532 -25q-178 0 -279 84t-101 230v41h36v-31q0 -135 94.5 -212t249.5 -77q174 0 275.5 101.5t101.5 253.5v432q-59 -129 -168.5 -187.5t-236.5 -58.5q-150 0 -259.5 93t-109.5 237v215q0 176 113.5 284.5t300 108.5t294 -113.5t107.5 -290.5v-720q0 -180 -116 -285 t-302 -105zM522 590q137 0 262 97t125 245v168q0 141 -100 246.5t-274 105.5q-166 0 -262.5 -101.5t-96.5 -238.5v-205q0 -162 103.5 -239.5t242.5 -77.5z" />
<glyph unicode=":" horiz-adv-x="362" d="M156 0v164h51v-164h-51zM156 788v164h51v-164h-51z" />
<glyph unicode=";" horiz-adv-x="362" d="M152 -182l22 182h-18v164h51v-166l-29 -180h-26zM156 788v164h51v-164h-51z" />
<glyph unicode="&#x3c;" d="M989 215l-860 418v29l875 395l12 -29l-842 -381l830 -403z" />
<glyph unicode="=" d="M96 461v33h955v-33h-955zM96 821v33h955v-33h-955z" />
<glyph unicode="&#x3e;" d="M156 215l-15 29l830 403l-842 381l12 29l875 -395v-29z" />
<glyph unicode="?" horiz-adv-x="1042" d="M469 373v94q8 70 41 133.5t61.5 95t92.5 95.5q98 98 143 177t45 189q0 152 -88 223.5t-244 71.5q-125 0 -225 -67.5t-100 -215.5v-47h-43v35q0 162 105 246t271 84q168 0 267.5 -84t99.5 -244q2 -68 -15.5 -128t-57.5 -116.5t-68.5 -89t-81.5 -86.5q-72 -72 -111 -131 t-47 -143v-92h-45zM465 0v164h51v-164h-51z" />
<glyph unicode="@" horiz-adv-x="1953" d="M1001 -315q-158 0 -309 47q-252 80 -405.5 280.5t-145.5 497.5q0 393 259 649t663 256q340 0 564 -213t224 -520q0 -150 -57 -273.5t-146 -196.5t-189.5 -113t-196.5 -40h-35l45 252h-6q-84 -150 -191.5 -214t-214.5 -64q-135 0 -207.5 62.5t-72.5 172.5q0 39 6 70 l65 371q33 184 151 272t259 88q115 0 201 -67.5t90 -190.5h4l43 248h41l-172 -973q88 0 181 41t176 113.5t136.5 191.5t53.5 260q0 287 -222.5 488.5t-531.5 201.5q-389 0 -637 -248.5t-248 -621.5q0 -301 145.5 -490.5t385.5 -261.5q141 -43 301 -43q205 0 378 50l7 -27 q-177 -55 -392 -55zM883 70q129 0 261 132t163 312l20 127q8 57 8 84q0 156 -79.5 232.5t-200.5 76.5q-137 0 -235.5 -78.5t-125.5 -228.5l-63 -375q-6 -55 -6 -86q0 -92 65.5 -144t192.5 -52z" />
<glyph unicode="A" horiz-adv-x="1308" d="M90 0l547 1468h45l537 -1468h-43l-201 551h-641l-203 -551h-41zM346 586h617l-304 835h-2z" />
<glyph unicode="B" horiz-adv-x="1198" d="M176 0v1460h486q172 0 276 -90t104 -256q0 -135 -87 -240.5t-222 -119.5v-2q166 -18 258 -117.5t92 -241.5q0 -195 -124.5 -294t-301.5 -99h-481zM217 37h420q176 0 288.5 88t112.5 266q0 170 -117.5 256t-291.5 86h-412v-696zM217 770h385q162 0 280.5 84t118.5 250 q0 160 -101 239.5t-261 79.5h-422v-653z" />
<glyph unicode="C" horiz-adv-x="1259" d="M664 -27q-236 0 -378.5 121t-142.5 348v555q0 209 144.5 351.5t376.5 142.5q219 0 350 -114.5t131 -274.5v-103h-41v84q0 162 -115 264.5t-336 102.5q-215 0 -341 -131t-126 -332v-520q0 -209 128 -333t350 -124q219 0 329.5 102.5t110.5 266.5v45h41v-66 q0 -168 -129 -276.5t-352 -108.5z" />
<glyph unicode="D" horiz-adv-x="1300" d="M176 0v1460h514q217 0 342 -113.5t125 -330.5v-555q0 -213 -126 -337t-341 -124h-514zM217 37h465q217 0 324.5 124t107.5 294v544q0 188 -106.5 306t-325.5 118h-465v-1386z" />
<glyph unicode="E" d="M176 0v1460h850v-37h-809v-643h643v-37h-643v-706h809v-37h-850z" />
<glyph unicode="F" horiz-adv-x="1087" d="M176 0v1460h850v-37h-809v-643h643v-37h-643v-743h-41z" />
<glyph unicode="G" horiz-adv-x="1333" d="M675.5 -27q-235.5 0 -377.5 121t-142 348v555q0 209 144 351.5t376 142.5q219 0 350 -114.5t131 -274.5v-103h-41v84q0 162 -114.5 264.5t-335.5 102.5q-215 0 -341 -131t-126 -332v-520q0 -209 128 -333t349 -124t336.5 100.5t115.5 262.5v311h-430v39h471v-365 q0 -170 -129 -277.5t-364.5 -107.5z" />
<glyph unicode="H" horiz-adv-x="1359" d="M176 0v1460h41v-678h922v678h41v-1460h-41v745h-922v-745h-41z" />
<glyph unicode="I" horiz-adv-x="393" d="M176 0v1460h41v-1460h-41z" />
<glyph unicode="J" d="M532 -27q-199 0 -316.5 106.5t-117.5 301.5v115h37v-90q0 -170 98.5 -285t317.5 -115q184 0 287.5 111.5t103.5 255.5v1087h41v-1042q0 -205 -110 -325t-341 -120z" />
<glyph unicode="K" horiz-adv-x="1183" d="M176 0v1460h41v-864l848 864h51l-559 -571l582 -889h-49l-562 858l-311 -315v-543h-41z" />
<glyph unicode="L" horiz-adv-x="1107" d="M176 0v1460h41v-1423h809v-37h-850z" />
<glyph unicode="M" horiz-adv-x="1562" d="M176 0v1460h55l551 -878h2l543 878h59v-1460h-43v1399h-6l-538 -869h-35l-539 869h-8v-1399h-41z" />
<glyph unicode="N" horiz-adv-x="1335" d="M176 0v1460h53l889 -1380h4v1380h37v-1460h-39l-905 1413h-2v-1413h-37z" />
<glyph unicode="O" horiz-adv-x="1327" d="M664 -27q-229 0 -375 122t-146 347v535q0 236 141.5 375t379.5 139q236 0 378 -123t142 -350v-531q0 -236 -141 -375t-379 -139zM664 10q217 0 347 129t130 336v539q0 203 -129 319.5t-359 116.5q-217 0 -342 -135t-125 -350v-498q0 -211 128.5 -334t349.5 -123z" />
<glyph unicode="P" horiz-adv-x="1177" d="M176 0v1460h445q207 0 324.5 -118.5t117.5 -297.5q0 -201 -135 -315.5t-365 -114.5h-346v-614h-41zM217 651h322q227 0 353 98.5t126 294.5q0 162 -111.5 270.5t-288.5 108.5h-401v-772z" />
<glyph unicode="Q" horiz-adv-x="1327" d="M1174 -236l-386 222q-59 -12 -124 -13q-229 0 -375 122t-146 347v535q0 236 141.5 375t379.5 139q236 0 378 -123t142 -350v-531q0 -186 -92.5 -315t-251.5 -174l362 -193zM664 10q217 0 347 129t130 336v539q0 203 -129 319.5t-359 116.5q-217 0 -342 -135t-125 -350 v-498q0 -211 128.5 -334t349.5 -123z" />
<glyph unicode="R" horiz-adv-x="1216" d="M176 0v1460h449q213 0 335.5 -109.5t122.5 -297.5q0 -180 -111.5 -295t-324.5 -125l494 -633h-54l-491 633h-379v-633h-41zM217 670h367q453 0 452 383q0 176 -118.5 273t-333.5 97h-367v-753z" />
<glyph unicode="S" horiz-adv-x="1155" d="M596 -27q-197 0 -327 90.5t-173 245.5l41 8q49 -145 169 -226t298 -81q182 0 298 96.5t116 249.5q0 147 -64.5 222t-189.5 116l-311 101q-289 92 -289 348q0 150 118.5 248t301.5 98q317 0 442 -240l-35 -16q-123 217 -397 217q-156 0 -269.5 -79t-113.5 -220 q0 -113 57.5 -191.5t214.5 -132.5l310 -98q268 -84 268 -362q0 -176 -123 -285t-342 -109z" />
<glyph unicode="T" horiz-adv-x="1214" d="M588 0v1421h-539v39h1116v-39h-536v-1421h-41z" />
<glyph unicode="U" horiz-adv-x="1337" d="M664 -27q-88 0 -171 25t-160 77t-123 147t-46 222v1016h41v-989q0 -127 40 -221t109.5 -144.5t148.5 -74t169 -23.5q213 0 342 121q121 114 121 300v24v1007h36v-1016q0 -6 1 -12q0 -208 -137 -332q-140 -127 -371 -127z" />
<glyph unicode="V" horiz-adv-x="1161" d="M553 -8l-504 1468h43l483 -1427h3l493 1427h41l-514 -1468h-45z" />
<glyph unicode="W" horiz-adv-x="1720" d="M453 -8l-375 1468h43l354 -1419h2l361 1419h51l352 -1413h2l359 1413h40l-380 -1468h-45l-355 1411h-4l-356 -1411h-49z" />
<glyph unicode="X" horiz-adv-x="1081" d="M72 0l448 768l-397 692h49l375 -669l391 669h39l-408 -698l445 -762h-45l-426 733l-430 -733h-41z" />
<glyph unicode="Y" horiz-adv-x="1130" d="M545 0v631l-455 829h51l426 -784l426 784h47l-454 -829v-631h-41z" />
<glyph unicode="Z" horiz-adv-x="1046" d="M63 0v27l842 1400h-817v33h862v-30l-835 -1393h829v-37h-881z" />
<glyph unicode="[" horiz-adv-x="673" d="M266 -391v1935h338v-37h-295v-1859h295v-39h-338z" />
<glyph unicode="\" horiz-adv-x="681" d="M647 -272l-536 1761h34l541 -1761h-39z" />
<glyph unicode="]" horiz-adv-x="673" d="M70 -391v39h295v1859h-295v37h338v-1935h-338z" />
<glyph unicode="^" horiz-adv-x="882" d="M246 414l182 735h47l162 -735h-45l-139 665l-160 -665h-47z" />
<glyph unicode="_" horiz-adv-x="1024" d="M0 -219v43h1024v-43h-1024z" />
<glyph unicode="`" horiz-adv-x="548" d="M279 1163l-232 297h55l220 -297h-43z" />
<glyph unicode="a" horiz-adv-x="985" d="M436 -25q-133 0 -226 73t-93 204q0 86 36.5 148.5t97 92t119 43t122.5 13.5h311v192q0 250 -297 250q-125 0 -216 -53t-91 -170v-33h-39v33q0 133 100 196.5t256 63.5q145 0 236.5 -63.5t91.5 -202.5v-488q0 -39 6 -150.5t6 -123.5h-39q-8 94 -8 201h-4 q-90 -226 -369 -226zM446 12q158 0 257.5 93.5t99.5 250.5v156h-293q-348 0 -348 -260q0 -117 85.5 -178.5t198.5 -61.5z" />
<glyph unicode="b" horiz-adv-x="1005" d="M545 -27q-115 0 -214.5 68t-125.5 190h-4v-231h-37v1460h41v-678h6q45 123 144.5 184.5t207.5 61.5q152 0 240 -88t88 -225v-381q0 -184 -102.5 -272.5t-243.5 -88.5zM545 8q123 0 214 81t91 226v402q0 119 -80 196.5t-223 77.5q-133 0 -238.5 -116.5t-105.5 -294.5v-179 q0 -172 101.5 -282.5t240.5 -110.5z" />
<glyph unicode="c" horiz-adv-x="917" d="M477 -27q-362 0 -362 398v258q0 186 94 292.5t268 106.5t260 -83t86 -210v-37h-39v52q0 35 -13 72.5t-44 78.5t-94.5 66.5t-151.5 25.5q-168 0 -246.5 -105.5t-78.5 -266.5v-248q0 -365 323 -365q88 0 151.5 25.5t95.5 66.5t45 79t13 73v51h39v-37q0 -127 -86 -210 t-260 -83z" />
<glyph unicode="d" horiz-adv-x="1009" d="M442 -27q-152 0 -239.5 84t-87.5 222v389q0 184 102 272t244 88q115 0 212 -67.5t124 -190.5h4v690h41v-1460h-37v252h-6q-41 -135 -146 -207t-211 -72zM451 10q131 0 241.5 122t110.5 300v168q0 172 -101.5 282.5t-240.5 110.5q-123 0 -214 -81t-91 -226v-393 q0 -123 72.5 -203t222.5 -80z" />
<glyph unicode="e" horiz-adv-x="968" d="M506 -27q-391 0 -391 402v231q0 199 107.5 310.5t285.5 111.5q170 0 263 -103.5t93 -291.5v-119h-708v-160q0 -160 92 -253t264 -93q178 0 299 129l27 -22q-117 -142 -332 -142zM156 549h669v92q0 147 -78.5 249.5t-254.5 102.5q-164 0 -250 -111.5t-86 -254.5v-78z" />
<glyph unicode="f" horiz-adv-x="669" d="M303 0v963h-221v36h221v215q0 129 65.5 202t180.5 73q55 0 104 -14v-39q-41 14 -112 14q-88 0 -142.5 -55.5t-54.5 -169.5v-226h291v-36h-291v-963h-41z" />
<glyph unicode="g" horiz-adv-x="1005" d="M451 -418q-188 0 -316 127l27 29q115 -121 289 -121q158 0 255 95t97 257v283h-4q-51 -125 -148.5 -184.5t-210.5 -59.5q-152 0 -238.5 88t-86.5 226v364q0 166 106.5 254t239.5 88q102 0 203.5 -59.5t136.5 -188.5h2v221h39v-1040q0 -174 -108.5 -276.5t-282.5 -102.5z M461 45q137 0 239.5 106.5t102.5 301.5v172q0 166 -107.5 267t-234.5 101q-123 0 -214 -81t-91 -226v-360q0 -121 77.5 -201t227.5 -80z" />
<glyph unicode="h" horiz-adv-x="1034" d="M164 0v1460h41v-694h4q51 127 154.5 194.5t228.5 67.5q139 0 213 -81t74 -193v-754h-41v702q0 289 -260 289q-137 0 -255 -109.5t-118 -265.5v-616h-41z" />
<glyph unicode="i" horiz-adv-x="368" d="M164 0v1001h41v-1001h-41zM164 1247v174h41v-174h-41z" />
<glyph unicode="j" horiz-adv-x="421" d="M2 -434q-51 0 -70 2v37q23 -2 76 -2q117 0 163 63.5t46 179.5v1155h41v-1165q0 -270 -256 -270zM217 1247v174h41v-174h-41z" />
<glyph unicode="k" horiz-adv-x="901" d="M164 0v1460h41v-1048l549 589h53l-334 -362l377 -639h-45l-365 608l-235 -248v-360h-41z" />
<glyph unicode="l" horiz-adv-x="567" d="M381 -8q-102 0 -157.5 58.5t-55.5 168.5v1241h41v-1255q0 -78 47 -127t135 -49q63 0 113 12v-35q-55 -14 -123 -14z" />
<glyph unicode="m" horiz-adv-x="1708" d="M164 0v1001h37v-235h4q51 127 156.5 194.5t230.5 67.5q131 0 204.5 -78t80.5 -184h2q51 127 156.5 194.5t230.5 67.5q139 0 212.5 -81t73.5 -193v-754h-41v702q0 289 -260 289q-133 0 -249.5 -104.5t-122.5 -253.5v-633h-41v717q-8 274 -260 274q-137 0 -255 -109.5 t-118 -265.5v-616h-41z" />
<glyph unicode="n" horiz-adv-x="1034" d="M164 0v1001h37v-235h4q51 127 156.5 194.5t230.5 67.5q139 0 213 -81t74 -193v-754h-41v702q0 289 -260 289q-137 0 -255 -109.5t-118 -265.5v-616h-41z" />
<glyph unicode="o" horiz-adv-x="980" d="M496 -27q-381 0 -381 379v295q0 186 99 283.5t280 97.5q373 0 372 -381v-293q0 -188 -96 -284.5t-274 -96.5zM496 8q176 0 252.5 91t76.5 266v284q0 156 -79.5 250t-254 94t-255 -96t-80.5 -258v-283q0 -348 340 -348z" />
<glyph unicode="p" horiz-adv-x="1005" d="M164 -397v1398h37v-219h6q45 121 146.5 183.5t209.5 62.5q152 0 240 -84t88 -221v-389q0 -184 -102.5 -272.5t-243.5 -88.5q-115 0 -212 68t-124 190h-4v-628h-41zM545 8q123 0 214 81t91 226v394q0 119 -80 200.5t-223 81.5q-133 0 -238.5 -111.5t-105.5 -289.5v-189 q0 -172 101.5 -282.5t240.5 -110.5z" />
<glyph unicode="q" horiz-adv-x="1005" d="M801 -397v628h-6q-113 -258 -353 -258q-152 0 -239.5 84t-87.5 222v389q0 184 102 272t244 88q115 0 214 -67.5t126 -190.5h4v231h37v-1398h-41zM451 10q131 0 241.5 122t110.5 300v168q0 172 -101.5 282.5t-240.5 110.5q-123 0 -214 -81t-91 -226v-393q0 -121 77 -202 t218 -81z" />
<glyph unicode="r" horiz-adv-x="694" d="M164 0v1001h39v-258h2q102 268 403 269q29 0 62 -4v-41q-35 4 -92 4q-156 0 -261.5 -107.5t-111.5 -294.5v-569h-41z" />
<glyph unicode="s" horiz-adv-x="888" d="M444 -27q-229 0 -360 119l29 31q137 -111 333 -111q119 0 208 66.5t89 177.5q0 106 -57 155.5t-174 75.5l-98 23q-291 57 -291 254q0 109 82 186.5t239 77.5q188 0 293 -76l-24 -30q-119 72 -279 71q-117 0 -192.5 -64.5t-75.5 -154.5q0 -92 59.5 -143t192.5 -82l145 -35 q223 -55 223 -238q0 -141 -100.5 -222t-241.5 -81z" />
<glyph unicode="t" horiz-adv-x="749" d="M489 -18q-217 0 -217 194v787h-221v36h221v324h41v-324h351v-36h-351v-770q0 -96 47.5 -135.5t149.5 -39.5q72 0 174 29v-35q-82 -30 -195 -30z" />
<glyph unicode="u" horiz-adv-x="1034" d="M442 -27q-141 0 -213.5 81t-72.5 208v739h41v-720q0 -147 68.5 -209t191.5 -62q137 0 254.5 110.5t117.5 266.5v614h41v-1001h-36v236h-5q-51 -127 -156.5 -195t-230.5 -68z" />
<glyph unicode="v" horiz-adv-x="919" d="M430 -4l-364 1005h45l342 -960h2l360 960h39l-379 -1005h-45z" />
<glyph unicode="w" horiz-adv-x="1488" d="M387 -4l-313 1005h45l291 -956h2l309 956h53l293 -956h2l307 956h39l-328 -1005h-45l-294 956h-5l-311 -956h-45z" />
<glyph unicode="x" horiz-adv-x="854" d="M45 0l356 526l-323 475h47l307 -454l307 454h43l-323 -475l350 -526h-43l-340 502l-338 -502h-43z" />
<glyph unicode="y" horiz-adv-x="931" d="M129 -420q-59 0 -123 17v38q55 -18 133 -18q168 0 234 174l88 229l-387 981h45l358 -923h2l344 923h39l-442 -1187q-78 -234 -291 -234z" />
<glyph unicode="z" horiz-adv-x="872" d="M90 0v25l635 942h-619v34h670v-28l-635 -942h637v-31h-688z" />
<glyph unicode="{" horiz-adv-x="653" d="M307 -377q-35 0 -57.5 18.5t-22.5 53.5v823q0 76 -90 88v33q90 18 90 86v664q0 35 22.5 53t57.5 18h258v-37h-262q-33 0 -33 -41v-665q0 -59 -69 -90v-4q70 -33 69 -99v-823q0 -41 33 -41h262v-37h-258z" />
<glyph unicode="|" horiz-adv-x="663" d="M311 -109v1594h41v-1594h-41z" />
<glyph unicode="}" horiz-adv-x="653" d="M88 -377v37h262q33 0 33 41v823q0 66 70 99v4q-70 31 -70 90v665q0 41 -33 41h-262v37h258q35 0 57.5 -18.5t22.5 -52.5v-664q0 -68 90 -86v-33q-90 -12 -90 -88v-823q0 -35 -22.5 -53.5t-57.5 -18.5h-258z" />
<glyph unicode="~" horiz-adv-x="1161" d="M131 580l-33 4q8 57 46 96t98 39q55 0 334.5 -44t338.5 -44q80 0 115 108l31 -8q-16 -63 -55 -101t-93 -38q-61 0 -345.5 46t-331.5 46q-35 0 -59.5 -20.5t-30.5 -35.5z" />
<glyph unicode="&#xa1;" horiz-adv-x="548" d="M252 -385v465l2 622h37l2 -622v-465h-41zM250 911v164h51v-164h-51z" />
<glyph unicode="&#xa2;" horiz-adv-x="1036" d="M516 -172v225q-350 6 -350 398v258q0 182 91 288.5t259 110.5v227h39v-227q162 -8 240.5 -90t78.5 -203v-37h-38v51q0 35 -13.5 73t-44 79t-94 66.5t-152.5 25.5q-168 0 -246.5 -105.5t-78.5 -267.5v-247q0 -365 323 -365q88 0 151.5 25.5t95.5 66.5t45.5 79t13.5 73v51 h38v-37q0 -123 -79.5 -205t-239.5 -88v-225h-39z" />
<glyph unicode="&#xa3;" horiz-adv-x="1142" d="M135 0v41h174v690h-168v37h168v350q0 190 99.5 279.5t261 89.5t246.5 -76t85 -223v-43h-40v61q0 125 -80 184.5t-215 59.5q-139 0 -227.5 -77t-88.5 -245v-360h488v-37h-488v-690h690l-16 -41h-889z" />
<glyph unicode="&#xa4;" horiz-adv-x="579" d="M109 475l-50 49l56 58q-45 59 -45 133q0 70 45 127q-18 16 -56 53l50 49l53 -53q59 41 123 41q76 0 131 -41l55 55l49 -49l-55 -53q45 -63 45 -133q0 -68 -47 -131l55 -56l-47 -47l-55 55q-57 -39 -125 -38.5t-129 36.5zM287 553q70 0 111.5 42t41.5 120q0 70 -45 113.5 t-104 43.5q-70 0 -112 -43t-42 -122q0 -63 43.5 -108.5t106.5 -45.5z" />
<glyph unicode="&#xa5;" d="M545 0v604h-475v37h469l-449 819h51l426 -784l426 784h47l-450 -819h479v-37h-483v-604h-41z" />
<glyph unicode="&#xa6;" horiz-adv-x="913" d="M434 -104v759h45v-759h-45zM434 793v669h45v-669h-45z" />
<glyph unicode="&#xa7;" horiz-adv-x="1038" d="M516 -186q-154 0 -267.5 65.5t-113.5 200.5v45h35v-31q0 -119 97.5 -180t252.5 -61q152 0 245 65.5t93 181.5q0 27 -4 49.5t-14.5 41l-18.5 32t-28.5 27.5t-29.5 21.5t-36 18.5t-35 15t-38 14l-36 13l-196 63q-244 76 -244 258q0 80 55.5 158t172.5 125 q-127 53 -177.5 111.5t-50.5 148.5q0 109 88 186.5t262 77.5q168 0 258.5 -70.5t90.5 -193.5v-39h-37v37q0 109 -81 170t-227 61q-139 0 -225 -59t-86 -172q0 -86 54.5 -137t146.5 -86l205 -84q262 -96 262 -254q0 -188 -232 -275q121 -33 184.5 -99t59.5 -155 q0 -129 -105.5 -209.5t-279.5 -80.5zM608 373q240 70 240 260q0 43 -19.5 79t-56.5 61.5t-65.5 40.5t-69.5 32l-195 74q-86 -31 -152.5 -103t-66.5 -160q0 -86 60.5 -142t140.5 -81z" />
<glyph unicode="&#xa8;" horiz-adv-x="772" d="M178 1178v151h45v-151h-45zM555 1178v151h45v-151h-45z" />
<glyph unicode="&#xa9;" horiz-adv-x="1921" d="M958 137q-391 0 -391 420v272q0 197 101.5 309.5t290 112.5t279.5 -87t91 -222v-39h-41v53q0 29 -8 61t-30.5 68.5t-57.5 64.5t-94.5 46t-134.5 18q-182 0 -266.5 -111.5t-84.5 -281.5v-262q0 -385 349 -385q94 0 162.5 27.5t102.5 70.5t48 83t14 77v53h41v-39 q0 -135 -91.5 -222t-279.5 -87zM956 -131q-383 0 -600 229.5t-217 612.5q0 350 229.5 592.5t587.5 242.5q371 0 598.5 -240.5t227.5 -594.5q0 -231 -95.5 -421t-286 -305.5t-444.5 -115.5zM969 -94q334 0 552 222t218 583q0 250 -111.5 434t-286 271t-385.5 87 q-326 0 -549 -217t-223 -575q0 -379 218.5 -592t566.5 -213z" />
<glyph unicode="&#xaa;" horiz-adv-x="741" d="M336 797q-84 0 -145.5 47t-61.5 131q0 57 24.5 97t64.5 60.5t78 28.5t79 8h184v115q0 158 -176 158q-74 0 -129 -33t-55 -102v-21h-39v19q0 86 65.5 128t165.5 42q94 0 153.5 -42t59.5 -133v-325q0 -84 4 -162h-41l-6 117q-65 -133 -225 -133zM344 834q94 0 154.5 55 t60.5 149v97h-176q-209 0 -209 -156q0 -70 51 -107.5t119 -37.5zM162 653v41h452v-41h-452z" />
<glyph unicode="&#xab;" horiz-adv-x="1101" d="M494 193l-357 358l352 358l31 -28l-309 -330l311 -330zM936 193l-356 358l352 358l31 -28l-310 -330l312 -330z" />
<glyph unicode="&#xac;" horiz-adv-x="1157" d="M1006 197v428h-936v34h972v-462h-36z" />
<glyph unicode="&#xad;" horiz-adv-x="716" d="M115 561v45h487v-45h-487z" />
<glyph unicode="&#xae;" horiz-adv-x="1073" d="M401 809v549h183q86 0 135 -43t49 -115q0 -66 -40 -109.5t-116 -52.5l181 -229h-48l-180 229h-123v-229h-41zM559 653q-197 0 -312.5 123t-115.5 307q0 188 120 310.5t308 122.5q195 0 313.5 -120t118.5 -313q0 -180 -121 -305t-311 -125zM559 692q158 0 275.5 108.5 t117.5 282.5q0 178 -114.5 288t-278.5 110t-276.5 -108.5t-112.5 -289.5q0 -176 115.5 -283.5t273.5 -107.5zM442 1075h125q158 0 158 125q0 57 -42 89t-118 32h-123v-246z" />
<glyph unicode="&#xaf;" horiz-adv-x="821" d="M160 1241v39h499v-39h-499z" />
<glyph unicode="&#xb0;" horiz-adv-x="761" d="M379 1065q-86 0 -145.5 59.5t-59.5 145.5t59.5 147.5t145.5 61.5q88 0 148.5 -61.5t60.5 -147.5t-60.5 -145.5t-148.5 -59.5zM379 1094q76 0 128 51t52 124.5t-52 127t-128 53.5q-74 0 -125 -53.5t-51 -127t51 -124.5t125 -51z" />
<glyph unicode="&#xb1;" d="M96 61v37h955v-37h-955zM557 324v462h-461v33h461v461h37v-461h457v-33h-457v-462h-37z" />
<glyph unicode="&#xb2;" horiz-adv-x="696" d="M133 778v25l193 209q90 102 138 193t48 196v4q0 78 -46 126t-134 48q-78 0 -129 -39t-51 -106v-35h-35v31q0 88 59.5 135t159.5 47q106 0 161.5 -56.5t55.5 -148.5q0 -115 -52 -212t-159 -218l-156 -162v-4h394v-33h-447z" />
<glyph unicode="&#xb3;" horiz-adv-x="696" d="M342 752q-113 0 -173 51t-60 115v38h34v-30q0 -68 60.5 -105t140.5 -37q84 0 144.5 52.5t60.5 142.5q0 109 -69.5 153t-137.5 44h-92v32h94q80 0 129 48.5t49 136.5q0 90 -52 133t-128 43q-80 0 -135 -37t-55 -117v-24h-35v30q0 80 61.5 129t165.5 49q111 0 162 -61 t51 -137q0 -172 -145 -205v-2q76 -18 126 -71.5t50 -133.5q0 -106 -67.5 -171.5t-178.5 -65.5z" />
<glyph unicode="&#xb4;" horiz-adv-x="548" d="M195 1163l219 297h55l-231 -297h-43z" />
<glyph unicode="&#xb5;" horiz-adv-x="1034" d="M156 -365v1366h41v-731q0 -121 71.5 -190.5t182.5 -69.5q160 0 269 122t109 263v606h41v-708q0 -100 31 -165t74 -85v-47q-63 31 -95 88t-46 162q-119 -272 -396 -273q-162 0 -248 156h-2l13 -489z" />
<glyph unicode="&#xb6;" horiz-adv-x="1271" d="M545 -184v678q-197 8 -292 143t-95 336q0 195 111.5 341t283.5 146h596v-43h-203v-1601h-37v1601h-329v-1601h-35z" />
<glyph unicode="&#xb7;" horiz-adv-x="362" d="M156 788v164h51v-164h-51z" />
<glyph unicode="&#x22c5;" horiz-adv-x="362" d="M156 788v164h51v-164h-51z" />
<glyph unicode="&#xb8;" horiz-adv-x="559" d="M252 -403q-117 0 -203 41v36q98 -39 205 -39q158 0 158 107q0 100 -179 100h-43l29 164h35l-23 -131q221 0 222 -127q0 -68 -50.5 -109.5t-150.5 -41.5z" />
<glyph unicode="&#xb9;" horiz-adv-x="620" d="M88 778v31h219v745l-201 -43l-4 27l220 53h22v-782h205v-31h-461z" />
<glyph unicode="&#xba;" horiz-adv-x="741" d="M373 799q-236 0 -236 241v172q0 119 62.5 181.5t173.5 62.5q236 0 235 -244v-172q0 -117 -61 -179t-174 -62zM373 834q193 0 192 213v167q0 205 -192 205q-195 0 -195 -209v-166q0 -210 195 -210zM145 653v41h453v-41h-453z" />
<glyph unicode="&#xbb;" horiz-adv-x="1101" d="M170 193l-31 28l310 330l-312 330l29 28l356 -358zM612 193l-30 28l309 330l-311 330l28 28l357 -358z" />
<glyph unicode="&#xbc;" horiz-adv-x="1630" d="M88 651v31h219v745l-201 -43l-4 27l220 53h22v-782h205v-31h-461zM1341 0v244h-364v30l350 543h43l-354 -543h325v222l37 28v-250h129v-30h-129v-244h-37zM391 -4l809 1466h39l-805 -1466h-43z" />
<glyph unicode="&#xbd;" horiz-adv-x="1630" d="M88 651v31h219v745l-201 -43l-4 27l220 53h22v-782h205v-31h-461zM391 -4l809 1466h39l-805 -1466h-43zM1028 0v25l193 208q90 102 138 193.5t48 196.5v4q0 78 -46 126t-134 48q-78 0 -129 -39t-51 -107v-34h-35v30q0 88 59 135.5t160 47.5q106 0 161.5 -56.5 t55.5 -148.5q0 -115 -52.5 -212.5t-158.5 -217.5l-156 -162v-4h394v-33h-447z" />
<glyph unicode="&#xbe;" horiz-adv-x="1630" d="M342 625q-113 0 -173 51t-60 115v38h34v-30q0 -68 60.5 -105t140.5 -37q84 0 144.5 52.5t60.5 142.5q0 109 -69.5 153t-137.5 44h-92v32h94q80 0 129 48.5t49 136.5q0 90 -52 133t-128 43q-80 0 -135 -37t-55 -117v-24h-35v30q0 80 61.5 129.5t165.5 49.5 q111 0 162 -61.5t51 -137.5q0 -172 -145 -205v-2q76 -18 126 -71.5t50 -133.5q0 -106 -67.5 -171.5t-178.5 -65.5zM1341 0v244h-364v30l350 543h43l-354 -543h325v222l37 28v-250h129v-30h-129v-244h-37zM391 -4l809 1466h39l-805 -1466h-43z" />
<glyph unicode="&#xbf;" horiz-adv-x="1042" d="M524 -412q-168 0 -267 84t-99 244q-2 68 15 128t57 116.5t69 89.5t82 86q72 72 110.5 131t47.5 143v92h45v-94q-8 -70 -41 -133t-61.5 -95t-92.5 -95q-98 -98 -143 -177t-45 -190q0 -152 88 -223.5t243 -71.5q125 0 225.5 67.5t100.5 215.5v47h43v-35q0 -162 -105.5 -246 t-271.5 -84zM537 911v164h51v-164h-51z" />
<glyph unicode="&#xc0;" horiz-adv-x="1308" d="M90 0l547 1468h45l537 -1468h-43l-201 551h-641l-203 -551h-41zM346 586h617l-304 835h-2zM639 1622l-231 297h55l219 -297h-43z" />
<glyph unicode="&#xc1;" horiz-adv-x="1308" d="M90 0l547 1468h45l537 -1468h-43l-201 551h-641l-203 -551h-41zM346 586h617l-304 835h-2zM635 1622l219 297h55l-231 -297h-43z" />
<glyph unicode="&#xc2;" horiz-adv-x="1308" d="M90 0l547 1468h45l537 -1468h-43l-201 551h-641l-203 -551h-41zM346 586h617l-304 835h-2zM459 1614l176 295h47l168 -295h-45l-146 258l-153 -258h-47z" />
<glyph unicode="&#xc3;" horiz-adv-x="1308" d="M90 0l547 1468h45l537 -1468h-43l-201 551h-641l-203 -551h-41zM346 586h617l-304 835h-2zM395 1638l-35 4q8 57 47 96.5t99 39.5q57 0 153.5 -41t143.5 -41t71.5 25.5t40.5 76.5l35 -8q-14 -63 -54 -99t-95 -36q-53 0 -152.5 42t-148.5 42q-74 -1 -105 -101z" />
<glyph unicode="&#xc4;" horiz-adv-x="1308" d="M90 0l547 1468h45l537 -1468h-43l-201 551h-641l-203 -551h-41zM346 586h617l-304 835h-2zM442 1636v152h45v-152h-45zM819 1636v152h45v-152h-45z" />
<glyph unicode="&#xc5;" horiz-adv-x="1308" d="M90 0l547 1468h45l537 -1468h-43l-201 551h-641l-203 -551h-41zM346 586h617l-304 835h-2zM655 1591q-80 0 -119.5 47.5t-39.5 110.5q0 68 43 117t110 49q80 0 122 -45t42 -113q0 -72 -43 -119t-115 -47zM653 1620q53 0 90 34t37 99q0 63 -35.5 97t-95.5 34 q-53 0 -86 -37t-33 -98q0 -66 36 -97.5t87 -31.5z" />
<glyph unicode="&#xc6;" horiz-adv-x="1925" d="M59 0l871 1460h874v-37h-809v-641h643v-37h-643v-708h809v-37h-850v479h-565l-283 -479h-47zM414 516h540v911z" />
<glyph unicode="&#xc7;" horiz-adv-x="1259" d="M678 -403q-117 0 -203 41v36q98 -39 205 -39q158 0 158 107q0 100 -179 100h-43l23 131q-225 6 -360.5 127t-135.5 342v555q0 209 144.5 351.5t376.5 142.5q219 0 350 -114.5t131 -274.5v-103h-41v84q0 162 -115 264.5t-336 102.5q-215 0 -341 -131t-126 -332v-520 q0 -209 128 -333t350 -124q219 0 329.5 102.5t110.5 266.5v45h41v-66q0 -168 -126 -275.5t-345 -109.5l-17 -98q221 0 222 -127q0 -68 -50.5 -109.5t-150.5 -41.5z" />
<glyph unicode="&#xc8;" d="M176 0v1460h850v-37h-809v-643h643v-37h-643v-706h809v-37h-850zM606 1622l-231 297h55l219 -297h-43z" />
<glyph unicode="&#xc9;" d="M176 0v1460h850v-37h-809v-643h643v-37h-643v-706h809v-37h-850zM606 1622l219 297h56l-232 -297h-43z" />
<glyph unicode="&#xca;" d="M176 0v1460h850v-37h-809v-643h643v-37h-643v-706h809v-37h-850zM406 1614l176 295h47l168 -295h-45l-146 258l-153 -258h-47z" />
<glyph unicode="&#xcb;" d="M176 0v1460h850v-37h-809v-643h643v-37h-643v-706h809v-37h-850zM397 1636v152h45v-152h-45zM774 1636v152h45v-152h-45z" />
<glyph unicode="&#xcc;" horiz-adv-x="393" d="M176 0v1460h41v-1460h-41zM172 1622l-231 297h55l219 -297h-43z" />
<glyph unicode="&#xcd;" horiz-adv-x="393" d="M176 0v1460h41v-1460h-41zM178 1622l219 297h56l-232 -297h-43z" />
<glyph unicode="&#xce;" horiz-adv-x="393" d="M176 0v1460h41v-1460h-41zM2 1614l176 295h47l168 -295h-45l-145 258l-154 -258h-47z" />
<glyph unicode="&#xcf;" horiz-adv-x="393" d="M176 0v1460h41v-1460h-41zM-14 1636v152h45v-152h-45zM362 1636v152h46v-152h-46z" />
<glyph unicode="&#xd0;" horiz-adv-x="1357" d="M66 756v37h167v667h515q217 0 341.5 -113.5t124.5 -330.5v-555q0 -213 -125.5 -337t-340.5 -124h-515v756h-167zM274 37h465q217 0 324.5 124t107.5 294v544q0 188 -106.5 306t-325.5 118h-465v-630h512v-37h-512v-719z" />
<glyph unicode="&#xd1;" horiz-adv-x="1335" d="M176 0v1460h53l889 -1380h4v1380h37v-1460h-39l-905 1413h-2v-1413h-37zM442 1638l-34 4q8 57 47 96.5t98 39.5q57 0 153.5 -41t143.5 -41t71.5 25.5t41.5 76.5l34 -8q-14 -63 -54 -99t-95 -36q-53 0 -152.5 42t-148.5 42q-74 -1 -105 -101z" />
<glyph unicode="&#xd2;" horiz-adv-x="1327" d="M664 -27q-229 0 -375 122t-146 347v535q0 236 141.5 375t379.5 139q236 0 378 -123t142 -350v-531q0 -236 -141 -375t-379 -139zM664 10q217 0 347 129t130 336v539q0 203 -129 319.5t-359 116.5q-217 0 -342 -135t-125 -350v-498q0 -211 128.5 -334t349.5 -123z M664 1622l-232 297h55l220 -297h-43z" />
<glyph unicode="&#xd3;" horiz-adv-x="1327" d="M664 -27q-229 0 -375 122t-146 347v535q0 236 141.5 375t379.5 139q236 0 378 -123t142 -350v-531q0 -236 -141 -375t-379 -139zM664 10q217 0 347 129t130 336v539q0 203 -129 319.5t-359 116.5q-217 0 -342 -135t-125 -350v-498q0 -211 128.5 -334t349.5 -123z M643 1622l219 297h56l-232 -297h-43z" />
<glyph unicode="&#xd4;" horiz-adv-x="1327" d="M664 -27q-229 0 -375 122t-146 347v535q0 236 141.5 375t379.5 139q236 0 378 -123t142 -350v-531q0 -236 -141 -375t-379 -139zM664 10q217 0 347 129t130 336v539q0 203 -129 319.5t-359 116.5q-217 0 -342 -135t-125 -350v-498q0 -211 128.5 -334t349.5 -123z M467 1614l176 295h47l168 -295h-45l-145 258l-154 -258h-47z" />
<glyph unicode="&#xd5;" horiz-adv-x="1327" d="M664 -27q-229 0 -375 122t-146 347v535q0 236 141.5 375t379.5 139q236 0 378 -123t142 -350v-531q0 -236 -141 -375t-379 -139zM664 10q217 0 347 129t130 336v539q0 203 -129 319.5t-359 116.5q-217 0 -342 -135t-125 -350v-498q0 -211 128.5 -334t349.5 -123z M403 1638l-34 4q8 57 47 96.5t98 39.5q57 0 153.5 -41t143.5 -41t71.5 25.5t41.5 76.5l34 -8q-14 -63 -54 -99t-95 -36q-53 0 -152.5 42t-148.5 42q-74 -1 -105 -101z" />
<glyph unicode="&#xd6;" horiz-adv-x="1327" d="M664 -27q-229 0 -375 122t-146 347v535q0 236 141.5 375t379.5 139q236 0 378 -123t142 -350v-531q0 -236 -141 -375t-379 -139zM664 10q217 0 347 129t130 336v539q0 203 -129 319.5t-359 116.5q-217 0 -342 -135t-125 -350v-498q0 -211 128.5 -334t349.5 -123z M453 1636v152h45v-152h-45zM829 1636v152h45v-152h-45z" />
<glyph unicode="&#xd7;" d="M188 238l-24 26l385 385l-385 383l26 27l383 -383l381 381l27 -27l-381 -381l381 -381l-27 -26l-381 381z" />
<glyph unicode="&#xd8;" horiz-adv-x="1327" d="M229 -70l-36 19l88 153q-137 125 -138 340v535q0 236 141.5 375t379.5 139q217 0 352 -105l76 134l36 -19l-79 -141q135 -125 135 -342v-531q0 -236 -141.5 -375t-378.5 -139q-213 0 -351 103zM664 10q217 0 347 129t130 336v539q0 190 -117 307l-688 -1206 q123 -105 328 -105zM186 467q0 -203 117 -324l690 1205q-129 102 -340 102q-217 0 -342 -135t-125 -350v-498z" />
<glyph unicode="&#xd9;" horiz-adv-x="1337" d="M664 -27q-88 0 -171 25t-160 77t-123 147t-46 222v1016h41v-989q0 -127 40 -221t109.5 -144.5t148.5 -74t169 -23.5q213 0 342 121t121 324v1007h36v-1016q4 -217 -136 -344t-371 -127zM690 1622l-231 297h55l219 -297h-43z" />
<glyph unicode="&#xda;" horiz-adv-x="1337" d="M664 -27q-88 0 -171 25t-160 77t-123 147t-46 222v1016h41v-989q0 -127 40 -221t109.5 -144.5t148.5 -74t169 -23.5q213 0 342 121t121 324v1007h36v-1016q4 -217 -136 -344t-371 -127zM649 1622l219 297h56l-232 -297h-43z" />
<glyph unicode="&#xdb;" horiz-adv-x="1337" d="M664 -27q-88 0 -171 25t-160 77t-123 147t-46 222v1016h41v-989q0 -127 40 -221t109.5 -144.5t148.5 -74t169 -23.5q213 0 342 121t121 324v1007h36v-1016q4 -217 -136 -344t-371 -127zM473 1614l176 295h47l168 -295h-45l-145 258l-154 -258h-47z" />
<glyph unicode="&#xdc;" horiz-adv-x="1337" d="M664 -27q-88 0 -171 25t-160 77t-123 147t-46 222v1016h41v-989q0 -127 40 -221t109.5 -144.5t148.5 -74t169 -23.5q213 0 342 121t121 324v1007h36v-1016q4 -217 -136 -344t-371 -127zM481 1636v152h45v-152h-45zM858 1636v152h45v-152h-45z" />
<glyph unicode="&#xdd;" horiz-adv-x="1130" d="M545 0v631l-455 829h51l426 -784l426 784h47l-454 -829v-631h-41zM551 1622l219 297h55l-231 -297h-43z" />
<glyph unicode="&#xde;" horiz-adv-x="1198" d="M176 0v1460h41v-282h404q207 0 324.5 -119t117.5 -297q0 -201 -135 -315.5t-365 -114.5h-346v-332h-41zM217 369h322q227 0 353 98t126 295q0 162 -111.5 270.5t-288.5 108.5h-401v-772z" />
<glyph unicode="&#xdf;" horiz-adv-x="1302" d="M803 -18q-152 0 -228 24v35q121 -25 224 -25q152 0 255 92.5t103 241.5q0 98 -47 174t-122 116t-149.5 59.5t-146.5 19.5v35h51q158 55 239 158.5t81 228.5q0 147 -95.5 230t-256.5 83q-168 0 -267.5 -101.5t-99.5 -219.5v-1133h-41v963h-221v36h221v113q0 172 119 274.5 t295 102.5q184 0 285.5 -97.5t101.5 -244.5q0 -129 -71.5 -238.5t-225.5 -167.5v-2q139 -20 232.5 -85.5t127 -140.5t33.5 -157q0 -168 -112.5 -271t-284.5 -103z" />
<glyph unicode="&#xe0;" horiz-adv-x="985" d="M436 -25q-133 0 -226 73t-93 204q0 86 36.5 148.5t97 92t119 43t122.5 13.5h311v192q0 250 -297 250q-125 0 -216 -53t-91 -170v-33h-39v33q0 133 100 196.5t256 63.5q145 0 236.5 -63.5t91.5 -202.5v-488q0 -39 6 -150.5t6 -123.5h-39q-8 94 -8 201h-4 q-90 -226 -369 -226zM446 12q158 0 257.5 93.5t99.5 250.5v156h-293q-348 0 -348 -260q0 -117 85.5 -178.5t198.5 -61.5zM506 1163l-232 297h56l219 -297h-43z" />
<glyph unicode="&#xe1;" horiz-adv-x="985" d="M436 -25q-133 0 -226 73t-93 204q0 86 36.5 148.5t97 92t119 43t122.5 13.5h311v192q0 250 -297 250q-125 0 -216 -53t-91 -170v-33h-39v33q0 133 100 196.5t256 63.5q145 0 236.5 -63.5t91.5 -202.5v-488q0 -39 6 -150.5t6 -123.5h-39q-8 94 -8 201h-4 q-90 -226 -369 -226zM446 12q158 0 257.5 93.5t99.5 250.5v156h-293q-348 0 -348 -260q0 -117 85.5 -178.5t198.5 -61.5zM489 1163l220 297h55l-232 -297h-43z" />
<glyph unicode="&#xe2;" horiz-adv-x="985" d="M436 -25q-133 0 -226 73t-93 204q0 86 36.5 148.5t97 92t119 43t122.5 13.5h311v192q0 250 -297 250q-125 0 -216 -53t-91 -170v-33h-39v33q0 133 100 196.5t256 63.5q145 0 236.5 -63.5t91.5 -202.5v-488q0 -39 6 -150.5t6 -123.5h-39q-8 94 -8 201h-4 q-90 -226 -369 -226zM446 12q158 0 257.5 93.5t99.5 250.5v156h-293q-348 0 -348 -260q0 -117 85.5 -178.5t198.5 -61.5zM297 1155l176 295h47l168 -295h-45l-145 258l-154 -258h-47z" />
<glyph unicode="&#xe3;" horiz-adv-x="985" d="M436 -25q-133 0 -226 73t-93 204q0 86 36.5 148.5t97 92t119 43t122.5 13.5h311v192q0 250 -297 250q-125 0 -216 -53t-91 -170v-33h-39v33q0 133 100 196.5t256 63.5q145 0 236.5 -63.5t91.5 -202.5v-488q0 -39 6 -150.5t6 -123.5h-39q-8 94 -8 201h-4 q-90 -226 -369 -226zM446 12q158 0 257.5 93.5t99.5 250.5v156h-293q-348 0 -348 -260q0 -117 85.5 -178.5t198.5 -61.5zM233 1180l-34 4q8 57 47 96t98 39q57 0 153.5 -41t143.5 -41t71.5 25.5t41.5 76.5l34 -8q-14 -63 -54 -99t-95 -36q-53 0 -152.5 42t-148.5 42 q-74 0 -105 -100z" />
<glyph unicode="&#xe4;" horiz-adv-x="985" d="M436 -25q-133 0 -226 73t-93 204q0 86 36.5 148.5t97 92t119 43t122.5 13.5h311v192q0 250 -297 250q-125 0 -216 -53t-91 -170v-33h-39v33q0 133 100 196.5t256 63.5q145 0 236.5 -63.5t91.5 -202.5v-488q0 -39 6 -150.5t6 -123.5h-39q-8 94 -8 201h-4 q-90 -226 -369 -226zM446 12q158 0 257.5 93.5t99.5 250.5v156h-293q-348 0 -348 -260q0 -117 85.5 -178.5t198.5 -61.5zM281 1178v151h45v-151h-45zM657 1178v151h45v-151h-45z" />
<glyph unicode="&#xe5;" horiz-adv-x="985" d="M436 -25q-133 0 -226 73t-93 204q0 86 36.5 148.5t97 92t119 43t122.5 13.5h311v192q0 250 -297 250q-125 0 -216 -53t-91 -170v-33h-39v33q0 133 100 196.5t256 63.5q145 0 236.5 -63.5t91.5 -202.5v-488q0 -39 6 -150.5t6 -123.5h-39q-8 94 -8 201h-4 q-90 -226 -369 -226zM446 12q158 0 257.5 93.5t99.5 250.5v156h-293q-348 0 -348 -260q0 -117 85.5 -178.5t198.5 -61.5zM494 1133q-80 0 -120 47t-40 110q0 68 43 117t110 49q80 0 122 -45t42 -113q0 -72 -42.5 -118.5t-114.5 -46.5zM492 1161q53 0 89.5 34t36.5 99 q0 63 -35.5 97t-95.5 34q-53 0 -85.5 -36.5t-32.5 -98.5q0 -66 36 -97.5t87 -31.5z" />
<glyph unicode="&#xe6;" horiz-adv-x="1656" d="M1194 -27q-309 0 -375 254q-90 -252 -383 -252q-133 0 -226 73t-93 204q0 86 36.5 148.5t97 92t119 43t122.5 13.5h311v192q0 250 -297 250q-125 0 -216 -53t-91 -170v-33h-39v33q0 133 100 196.5t256 63.5q131 0 219 -52t105 -167q96 219 356 219q170 0 263 -103.5 t93 -291.5v-119h-708v-160q0 -160 92 -253t264 -93q178 0 299 129l27 -22q-117 -142 -332 -142zM446 12q158 0 256.5 92.5t100.5 249.5v158h-293q-348 0 -348 -260q0 -117 85.5 -178.5t198.5 -61.5zM844 549h669v92q0 147 -78.5 249.5t-254.5 102.5q-160 0 -246 -107.5 t-90 -246.5v-90z" />
<glyph unicode="&#xe7;" horiz-adv-x="917" d="M508 -403q-117 0 -203 41v36q98 -39 205 -39q158 0 158 107q0 100 -179 100h-43l23 131q-354 6 -354 398v258q0 186 94 292.5t268 106.5t260 -83t86 -210v-37h-39v52q0 35 -13 72.5t-44 78.5t-94.5 66.5t-151.5 25.5q-168 0 -246.5 -105.5t-78.5 -266.5v-248 q0 -365 323 -365q88 0 151.5 25.5t95.5 66.5t45 79t13 73v51h39v-37q0 -121 -78.5 -201.5t-240.5 -89.5l-17 -100q221 0 222 -127q0 -68 -50.5 -109.5t-150.5 -41.5z" />
<glyph unicode="&#xe8;" horiz-adv-x="968" d="M506 -27q-391 0 -391 402v231q0 199 107.5 310.5t285.5 111.5q170 0 263 -103.5t93 -291.5v-119h-708v-160q0 -160 92 -253t264 -93q178 0 299 129l27 -22q-117 -142 -332 -142zM156 549h669v92q0 147 -78.5 249.5t-254.5 102.5q-164 0 -250 -111.5t-86 -254.5v-78z M465 1163l-232 297h56l219 -297h-43z" />
<glyph unicode="&#xe9;" horiz-adv-x="968" d="M506 -27q-391 0 -391 402v231q0 199 107.5 310.5t285.5 111.5q170 0 263 -103.5t93 -291.5v-119h-708v-160q0 -160 92 -253t264 -93q178 0 299 129l27 -22q-117 -142 -332 -142zM156 549h669v92q0 147 -78.5 249.5t-254.5 102.5q-164 0 -250 -111.5t-86 -254.5v-78z M494 1163l219 297h55l-231 -297h-43z" />
<glyph unicode="&#xea;" horiz-adv-x="968" d="M506 -27q-391 0 -391 402v231q0 199 107.5 310.5t285.5 111.5q170 0 263 -103.5t93 -291.5v-119h-708v-160q0 -160 92 -253t264 -93q178 0 299 129l27 -22q-117 -142 -332 -142zM156 549h669v92q0 147 -78.5 249.5t-254.5 102.5q-164 0 -250 -111.5t-86 -254.5v-78z M289 1155l176 295h47l168 -295h-45l-146 258l-153 -258h-47z" />
<glyph unicode="&#xeb;" horiz-adv-x="968" d="M506 -27q-391 0 -391 402v231q0 199 107.5 310.5t285.5 111.5q170 0 263 -103.5t93 -291.5v-119h-708v-160q0 -160 92 -253t264 -93q178 0 299 129l27 -22q-117 -142 -332 -142zM156 549h669v92q0 147 -78.5 249.5t-254.5 102.5q-164 0 -250 -111.5t-86 -254.5v-78z M272 1178v151h45v-151h-45zM649 1178v151h45v-151h-45z" />
<glyph unicode="&#xec;" horiz-adv-x="368" d="M164 0v1001h41v-1001h-41zM170 1163l-231 297h55l219 -297h-43z" />
<glyph unicode="&#xed;" horiz-adv-x="368" d="M164 0v1001h41v-1001h-41zM162 1163l219 297h55l-231 -297h-43z" />
<glyph unicode="&#xee;" horiz-adv-x="368" d="M164 0v1001h41v-1001h-41zM-10 1155l176 295h47l168 -295h-45l-146 258l-153 -258h-47z" />
<glyph unicode="&#xef;" horiz-adv-x="368" d="M164 0v1001h41v-1001h-41zM-27 1178v151h45v-151h-45zM350 1178v151h45v-151h-45z" />
<glyph unicode="&#xf0;" horiz-adv-x="980" d="M496 -27q-381 0 -381 379v277q0 186 109.5 292.5t289.5 106.5q113 0 203 -49l-197 317l-219 -61l-12 29l207 61l-103 156l37 14l98 -158l248 72l15 -29l-238 -69l254 -404q59 -96 59 -278v-256q1 -400 -370 -400zM496 8q184 0 256.5 95.5t72.5 277.5v250q0 172 -67.5 267 t-239.5 95q-178 0 -270 -101t-92 -271v-271q0 -342 340 -342z" />
<glyph unicode="&#xf1;" horiz-adv-x="1034" d="M164 0v1001h37v-235h4q51 127 156.5 194.5t230.5 67.5q139 0 213 -81t74 -193v-754h-41v702q0 289 -260 289q-137 0 -255 -109.5t-118 -265.5v-616h-41zM258 1180l-35 4q8 57 47 96t99 39q57 0 153 -41t143.5 -41t72 25.5t40.5 76.5l35 -8q-14 -63 -54 -99t-95 -36 q-53 0 -152.5 42t-149.5 42q-73 0 -104 -100z" />
<glyph unicode="&#xf2;" horiz-adv-x="980" d="M496 -27q-381 0 -381 379v295q0 186 99 283.5t280 97.5q373 0 372 -381v-293q0 -188 -96 -284.5t-274 -96.5zM496 8q176 0 252.5 91t76.5 266v284q0 156 -79.5 250t-254 94t-255 -96t-80.5 -258v-283q0 -348 340 -348zM475 1163l-231 297h55l219 -297h-43z" />
<glyph unicode="&#xf3;" horiz-adv-x="980" d="M496 -27q-381 0 -381 379v295q0 186 99 283.5t280 97.5q373 0 372 -381v-293q0 -188 -96 -284.5t-274 -96.5zM496 8q176 0 252.5 91t76.5 266v284q0 156 -79.5 250t-254 94t-255 -96t-80.5 -258v-283q0 -348 340 -348zM451 1163l219 297h55l-231 -297h-43z" />
<glyph unicode="&#xf4;" horiz-adv-x="980" d="M496 -27q-381 0 -381 379v295q0 186 99 283.5t280 97.5q373 0 372 -381v-293q0 -188 -96 -284.5t-274 -96.5zM496 8q176 0 252.5 91t76.5 266v284q0 156 -79.5 250t-254 94t-255 -96t-80.5 -258v-283q0 -348 340 -348zM295 1155l176 295h47l168 -295h-45l-145 258 l-154 -258h-47z" />
<glyph unicode="&#xf5;" horiz-adv-x="980" d="M496 -27q-381 0 -381 379v295q0 186 99 283.5t280 97.5q373 0 372 -381v-293q0 -188 -96 -284.5t-274 -96.5zM496 8q176 0 252.5 91t76.5 266v284q0 156 -79.5 250t-254 94t-255 -96t-80.5 -258v-283q0 -348 340 -348zM231 1180l-34 4q8 57 47 96t98 39q57 0 153.5 -41 t143.5 -41t71.5 25.5t41.5 76.5l34 -8q-14 -63 -54 -99t-95 -36q-53 0 -152.5 42t-148.5 42q-74 0 -105 -100z" />
<glyph unicode="&#xf6;" horiz-adv-x="980" d="M496 -27q-381 0 -381 379v295q0 186 99 283.5t280 97.5q373 0 372 -381v-293q0 -188 -96 -284.5t-274 -96.5zM496 8q176 0 252.5 91t76.5 266v284q0 156 -79.5 250t-254 94t-255 -96t-80.5 -258v-283q0 -348 340 -348zM279 1178v151h45v-151h-45zM655 1178v151h45v-151 h-45z" />
<glyph unicode="&#xf7;" d="M549 242v164h51v-164h-51zM96 633v33h955v-33h-955zM549 877v163h51v-163h-51z" />
<glyph unicode="&#xf8;" horiz-adv-x="980" d="M195 -86l-35 18l67 119q-113 94 -112 301v295q0 186 99 283.5t280 97.5q162 0 254 -74l69 123l35 -18l-76 -131q90 -96 90 -281v-293q0 -188 -96 -284.5t-274 -96.5q-143 0 -236 56zM156 356q0 -180 94 -268l475 830q-86 76 -233 75q-174 0 -255 -96t-81 -258v-283z M496 8q176 0 252.5 91t76.5 266v284q0 150 -71 240l-473 -826q76 -55 215 -55z" />
<glyph unicode="&#xf9;" horiz-adv-x="1034" d="M442 -27q-141 0 -213.5 81t-72.5 208v739h41v-720q0 -147 68.5 -209t191.5 -62q137 0 254.5 110.5t117.5 266.5v614h41v-1001h-36v236h-5q-51 -127 -156.5 -195t-230.5 -68zM543 1163l-232 297h56l219 -297h-43z" />
<glyph unicode="&#xfa;" horiz-adv-x="1034" d="M442 -27q-141 0 -213.5 81t-72.5 208v739h41v-720q0 -147 68.5 -209t191.5 -62q137 0 254.5 110.5t117.5 266.5v614h41v-1001h-36v236h-5q-51 -127 -156.5 -195t-230.5 -68zM504 1163l219 297h55l-231 -297h-43z" />
<glyph unicode="&#xfb;" horiz-adv-x="1034" d="M442 -27q-141 0 -213.5 81t-72.5 208v739h41v-720q0 -147 68.5 -209t191.5 -62q137 0 254.5 110.5t117.5 266.5v614h41v-1001h-36v236h-5q-51 -127 -156.5 -195t-230.5 -68zM342 1155l176 295h47l168 -295h-45l-145 258l-154 -258h-47z" />
<glyph unicode="&#xfc;" horiz-adv-x="1034" d="M442 -27q-141 0 -213.5 81t-72.5 208v739h41v-720q0 -147 68.5 -209t191.5 -62q137 0 254.5 110.5t117.5 266.5v614h41v-1001h-36v236h-5q-51 -127 -156.5 -195t-230.5 -68zM305 1178v151h45v-151h-45zM682 1178v151h45v-151h-45z" />
<glyph unicode="&#xfd;" horiz-adv-x="931" d="M129 -420q-59 0 -123 17v38q55 -18 133 -18q168 0 234 174l88 229l-387 981h45l358 -923h2l344 923h39l-442 -1187q-78 -234 -291 -234zM446 1163l220 297h55l-232 -297h-43z" />
<glyph unicode="&#xfe;" horiz-adv-x="1005" d="M164 -397v1857h41v-678h6q45 123 144.5 184.5t207.5 61.5q152 0 240 -84t88 -221v-389q0 -184 -102.5 -272.5t-243.5 -88.5q-115 0 -212 68t-124 190h-4v-628h-41zM545 8q123 0 214 81t91 226v394q0 119 -80 200.5t-223 81.5q-133 0 -238.5 -111.5t-105.5 -289.5v-189 q0 -172 101.5 -282.5t240.5 -110.5z" />
<glyph unicode="&#xff;" horiz-adv-x="931" d="M129 -420q-59 0 -123 17v38q55 -18 133 -18q168 0 234 174l88 229l-387 981h45l358 -923h2l344 923h39l-442 -1187q-78 -234 -291 -234zM279 1178v151h45v-151h-45zM655 1178v151h45v-151h-45z" />
<glyph unicode="&#x152;" horiz-adv-x="2111" d="M664 -27q-229 0 -375 122t-146 347v533q0 236 141.5 375t379.5 139q170 0 294.5 -66.5t182.5 -191.5v229h850v-37h-809v-641h643v-37h-643v-708h809v-37h-850v258q-57 -135 -182 -210t-295 -75zM664 10q217 0 347 129t130 336v537q0 203 -129 319.5t-359 116.5 q-217 0 -342 -136t-125 -349v-496q0 -211 128.5 -334t349.5 -123z" />
<glyph unicode="&#x153;" horiz-adv-x="1679" d="M496 -27q-381 0 -381 379v295q0 186 99 283.5t280 97.5q299 0 358 -248q41 119 136 183.5t231 64.5q170 0 263 -103.5t93 -291.5v-119h-709v-176q0 -152 93.5 -241t263.5 -89q178 0 299 129l26 -22q-117 -141 -331 -142q-295 0 -369 244q-35 -117 -125 -180.5t-227 -63.5 zM496 8q330 0 329 365v276q0 156 -79.5 250t-254 94t-255 -96t-80.5 -258v-283q0 -348 340 -348zM866 549h670v92q0 147 -79 249.5t-255 102.5q-164 0 -250 -111.5t-86 -254.5v-78z" />
<glyph unicode="&#x178;" horiz-adv-x="1130" d="M545 0v631l-455 829h51l426 -784l426 784h47l-454 -829v-631h-41zM354 1636v152h45v-152h-45zM731 1636v152h45v-152h-45z" />
<glyph unicode="&#x2c6;" horiz-adv-x="819" d="M215 1155l176 295h47l168 -295h-45l-145 258l-154 -258h-47z" />
<glyph unicode="&#x2dc;" horiz-adv-x="796" d="M160 1180l-35 4q8 57 47 96t98 39q57 0 153.5 -41t143.5 -41t72 25.5t41 76.5l35 -8q-14 -63 -54 -99t-96 -36q-53 0 -152.5 42t-148.5 42q-73 0 -104 -100z" />
<glyph unicode="&#x2000;" horiz-adv-x="958" />
<glyph unicode="&#x2001;" horiz-adv-x="1918" />
<glyph unicode="&#x2002;" horiz-adv-x="958" />
<glyph unicode="&#x2003;" horiz-adv-x="1918" />
<glyph unicode="&#x2004;" horiz-adv-x="638" />
<glyph unicode="&#x2005;" horiz-adv-x="479" />
<glyph unicode="&#x2006;" horiz-adv-x="319" />
<glyph unicode="&#x2007;" horiz-adv-x="319" />
<glyph unicode="&#x2008;" horiz-adv-x="239" />
<glyph unicode="&#x2009;" horiz-adv-x="382" />
<glyph unicode="&#x200a;" horiz-adv-x="106" />
<glyph unicode="&#x2010;" horiz-adv-x="716" d="M115 561v45h487v-45h-487z" />
<glyph unicode="&#x2011;" horiz-adv-x="716" d="M115 561v45h487v-45h-487z" />
<glyph unicode="&#x2012;" horiz-adv-x="716" d="M115 561v45h487v-45h-487z" />
<glyph unicode="&#x2013;" horiz-adv-x="851" d="M0 561v35h852v-35h-852z" />
<glyph unicode="&#x2014;" horiz-adv-x="1503" d="M0 561v35h1503v-35h-1503z" />
<glyph unicode="&#x2018;" horiz-adv-x="364" d="M154 1124v166l28 180h27l-23 -182h19v-164h-51z" />
<glyph unicode="&#x2019;" horiz-adv-x="366" d="M156 1122l22 183h-18v163h51v-165l-29 -181h-26z" />
<glyph unicode="&#x201a;" horiz-adv-x="362" d="M152 -182l22 182h-18v164h51v-166l-29 -180h-26z" />
<glyph unicode="&#x201c;" horiz-adv-x="583" d="M154 1124v166l28 180h27l-23 -182h19v-164h-51zM379 1124v166l29 180h26l-22 -182h18v-164h-51z" />
<glyph unicode="&#x201d;" horiz-adv-x="583" d="M152 1122l22 183h-18v163h51v-165l-29 -181h-26zM377 1122l22 183h-18v163h51v-165l-29 -181h-26z" />
<glyph unicode="&#x201e;" horiz-adv-x="583" d="M152 -182l22 182h-18v164h51v-166l-29 -180h-26zM377 -182l22 182h-18v164h51v-166l-29 -180h-26z" />
<glyph unicode="&#x2022;" horiz-adv-x="753" d="M379 584q-66 0 -112 46t-46 111.5t46 110.5t112 45q63 0 109.5 -45t46.5 -110.5t-46.5 -111.5t-109.5 -46z" />
<glyph unicode="&#x2026;" horiz-adv-x="1374" d="M156 0v164h51v-164h-51zM662 0v164h51v-164h-51zM1167 0v164h52v-164h-52z" />
<glyph unicode="&#x202f;" horiz-adv-x="382" />
<glyph unicode="&#x2039;" horiz-adv-x="651" d="M492 193l-357 358l352 358l31 -28l-309 -330l311 -330z" />
<glyph unicode="&#x203a;" horiz-adv-x="651" d="M168 193l-31 28l309 330l-311 330l29 28l356 -358z" />
<glyph unicode="&#x205f;" horiz-adv-x="479" />
<glyph unicode="&#x20ac;" horiz-adv-x="1435" d="M840 -27q-233 0 -366.5 120t-133.5 349v93h-242v34h242v297h-242v35h242v94q0 211 135 352.5t365 141.5q219 0 350 -114.5t131 -274.5v-103h-41v84q0 162 -114.5 264.5t-336.5 102.5q-213 0 -329.5 -130t-116.5 -333v-84h649v-35h-649v-297h649v-34h-649v-68 q0 -211 119 -334t338 -123t329.5 102.5t110.5 266.5v45h41v-66q0 -168 -129 -276.5t-352 -108.5z" />
<glyph unicode="&#x2122;" horiz-adv-x="1308" d="M659 846v622h31l225 -358l222 358h30v-622h-28l-2 571l-211 -350h-23l-215 350v-571h-29zM328 846v592h-226v30h480v-30h-224v-592h-30z" />
<glyph unicode="&#xe000;" horiz-adv-x="1000" d="M0 1000h1000v-1000h-1000v1000z" />
<glyph unicode="&#xe38c;" horiz-adv-x="1038" d="M303 0v963h-221v36h221v215q0 129 65.5 202t180.5 73q55 0 104 -14v-39q-41 14 -112 14q-88 0 -142.5 -55.5t-54.5 -169.5v-226h291v-36h-291v-963h-41zM834 0v1001h40v-1001h-40zM834 1247v174h40v-174h-40z" />
<glyph unicode="&#xfb01;" horiz-adv-x="1038" d="M303 0v963h-221v36h221v215q0 129 65.5 202t180.5 73q55 0 104 -14v-39q-41 14 -112 14q-88 0 -142.5 -55.5t-54.5 -169.5v-226h291v-36h-291v-963h-41zM834 0v1001h40v-1001h-40zM834 1247v174h40v-174h-40z" />
<glyph unicode="&#xe38d;" horiz-adv-x="1236" d="M303 0v963h-221v36h221v215q0 129 65.5 202t180.5 73q55 0 104 -14v-39q-41 14 -112 14q-88 0 -142.5 -55.5t-54.5 -169.5v-226h291v-36h-291v-963h-41zM1051 -8q-102 0 -157.5 58.5t-55.5 168.5v1241h41v-1255q0 -78 47 -127t135 -49q63 0 113 12v-35q-55 -14 -123 -14z " />
<glyph unicode="&#xfb02;" horiz-adv-x="1236" d="M303 0v963h-221v36h221v215q0 129 65.5 202t180.5 73q55 0 104 -14v-39q-41 14 -112 14q-88 0 -142.5 -55.5t-54.5 -169.5v-226h291v-36h-291v-963h-41zM1051 -8q-102 0 -157.5 58.5t-55.5 168.5v1241h41v-1255q0 -78 47 -127t135 -49q63 0 113 12v-35q-55 -14 -123 -14z " />
<glyph unicode="&#xfb03;" horiz-adv-x="1708" d="M1503 0v1001h41v-1001h-41zM1503 1247v174h41v-174h-41zM973 0v963h-221v36h221v215q0 129 65.5 202t180.5 73q55 0 104 -14v-39q-41 14 -112 14q-88 0 -142.5 -55.5t-54.5 -169.5v-226h291v-36h-291v-963h-41zM303 0v963h-221v36h221v215q0 129 65.5 202t180.5 73 q55 0 104 -14v-39q-41 14 -112 14q-88 0 -142.5 -55.5t-54.5 -169.5v-226h291v-36h-291v-963h-41z" />
<glyph unicode="&#xfb04;" horiz-adv-x="1906" d="M1720 -8q-102 0 -157.5 58.5t-55.5 168.5v1241h41v-1255q0 -78 47 -127t135 -49q63 0 113 12v-35q-55 -14 -123 -14zM973 0v963h-221v36h221v215q0 129 65.5 202t180.5 73q55 0 104 -14v-39q-41 14 -112 14q-88 0 -142.5 -55.5t-54.5 -169.5v-226h291v-36h-291v-963h-41z M303 0v963h-221v36h221v215q0 129 65.5 202t180.5 73q55 0 104 -14v-39q-41 14 -112 14q-88 0 -142.5 -55.5t-54.5 -169.5v-226h291v-36h-291v-963h-41z" />
<glyph horiz-adv-x="0" />
</font>
</defs>
</svg>
