<?xml version="1.0" standalone="no"?>
<!DOCTYPE svg PUBLIC "-//W3C//DTD SVG 1.1//EN" "http://www.w3.org/Graphics/SVG/1.1/DTD/svg11.dtd" >
<svg xmlns="http://www.w3.org/2000/svg">
<metadata>
This is a custom SVG webfont generated by Font Squirrel.
Copyright   : Copyright c 2008 by Mrio Feliciano All rights reserved
Designer    : Mrio Feliciano
Foundry     : Mrio Feliciano  Feliciano Type Foundry
</metadata>
<defs>
<font id="webfonte717LDu8" horiz-adv-x="532" >
<font-face units-per-em="2048" ascent="1638" descent="-410" />
<missing-glyph horiz-adv-x="204" />
<glyph unicode=" "  horiz-adv-x="204" />
<glyph unicode="&#x09;" horiz-adv-x="204" />
<glyph unicode="&#xa0;" horiz-adv-x="204" />
<glyph unicode="!" horiz-adv-x="305" d="M92 389l-24 506v565h170v-565l-21 -506h-125zM72 0v256h161v-256h-161z" />
<glyph unicode="&#x22;" horiz-adv-x="530" d="M84 1004l-27 245v215h158v-215l-22 -245h-109zM332 1004l-27 245v215h158v-215l-23 -245h-108z" />
<glyph unicode="#" horiz-adv-x="624" d="M106 -4l25 403h-90l6 117h92l31 451h-90l6 116h90l29 385h110l-28 -385h100l29 385h110l-28 -385h90l-6 -116h-90l-31 -451h88l-4 -117h-90l-29 -403h-113l29 403h-98l-27 -403h-111zM250 516h102l29 451h-100z" />
<glyph unicode="$" horiz-adv-x="548" d="M205 -70v138q-164 37 -166 315h151q2 -63 7.5 -96t23 -59.5t51.5 -26.5q70 0 70 114q0 102 -90 275l-92 178l-57 113q-19 39 -39.5 114.5t-20.5 145.5q0 88 41 152.5t121 86.5v133h149v-129q154 -39 156 -301h-154q-2 94 -19.5 131t-55.5 37q-68 0 -68 -112 q0 -106 102 -287l64 -125q129 -240 129 -405q0 -92 -38 -159t-116 -89v-144h-149z" />
<glyph unicode="%" horiz-adv-x="925" d="M229 764q-82 0 -129 48t-47 130v354q0 88 46 140.5t130 52.5t130.5 -50t46.5 -136v-361q0 -78 -48.5 -128t-128.5 -50zM229.5 874q55.5 0 55.5 72v361q0 72 -55.5 71.5t-55.5 -71.5v-361q0 -72 55.5 -72zM698 -25q-82 0 -129 48.5t-47 132.5v348q0 90 46 144t130 54 q82 0 128 -51t46 -135v-360q0 -80 -47 -130.5t-127 -50.5zM696.5 86q55.5 0 55.5 74v360q0 70 -55.5 70t-55.5 -70v-360q0 -74 55.5 -74zM205 -2l428 1479h94l-422 -1479h-100z" />
<glyph unicode="&#x26;" horiz-adv-x="661" d="M270 -23q-227 0 -227 414q0 285 139 422q-92 242 -92 377q0 131 57.5 214t163.5 83q209 0 209 -297q0 -254 -153 -414l53 -148q47 -132 55 -149q16 111 23 199l133 -10q-33 -238 -78 -396q88 -244 100 -272h-170l-39 113q-72 -136 -174 -136zM293 143q61 0 98 113 l-72 195l-73 198q-37 -61 -37 -262q0 -244 84 -244zM311 915q61 102 62 277q0 152 -61.5 151.5t-61.5 -137.5q0 -113 61 -291z" />
<glyph unicode="'" horiz-adv-x="282" d="M84 1004l-27 245v215h158v-215l-22 -245h-109z" />
<glyph unicode="(" horiz-adv-x="342" d="M231 -338q-76 174 -117.5 430t-41.5 486q0 240 42 484.5t117 420.5l97 -15q-80 -377 -97 -544q-14 -152 -14 -349q0 -362 111 -897z" />
<glyph unicode=")" horiz-adv-x="342" d="M111 -338l-97 16q111 535 111 897q0 190 -16.5 354.5t-31.5 240.5l-63 298l97 15q76 -176 117.5 -421t41.5 -484q0 -229 -41.5 -485.5t-117.5 -430.5z" />
<glyph unicode="*" horiz-adv-x="546" d="M174 1004l-84 55l96 151l-145 88l49 88l133 -77v155h101v-157l133 79l49 -88l-146 -88l97 -151l-84 -55l-99 153z" />
<glyph unicode="+" horiz-adv-x="573" d="M221 373v215h-178v135h178v217h131v-217h178v-135h-178v-215h-131z" />
<glyph unicode="," horiz-adv-x="280" d="M68 -207l41 219h-50v244h162v-233l-61 -230h-92z" />
<glyph unicode="-" horiz-adv-x="339" d="M35 539v143h270v-143h-270z" />
<glyph unicode="." horiz-adv-x="280" d="M59 0v256h162v-256h-162z" />
<glyph unicode="/" horiz-adv-x="370" d="M-20 -324l251 1784h119l-248 -1784h-122z" />
<glyph unicode="0" horiz-adv-x="563" d="M279 -16q-113 0 -171.5 63.5t-58.5 175.5v1026q0 109 66.5 170.5t169.5 61.5q100 0 164.5 -59.5t64.5 -164.5v-1034q0 -117 -62 -178t-173 -61zM281 135q61 0 61 74v1044q0 72 -61 72q-59 0 -60 -68v-1046q1 -76 60 -76z" />
<glyph unicode="1" horiz-adv-x="403" d="M133 0v1264l-61 -29l-33 133l151 94h113v-1462h-170z" />
<glyph unicode="2" horiz-adv-x="528" d="M47 0v127l160 422q111 303 110 557v59q0 156 -59 156q-53 0 -53 -127v-129h-156v123q0 131 52.5 212t162.5 81q223 0 223 -336q0 -315 -149 -709l-109 -272v-2h263v-162h-445z" />
<glyph unicode="3" horiz-adv-x="540" d="M264 -16q-72 0 -119 28.5t-68.5 83t-28.5 107.5t-7 125v75h164v-102q0 -164 57 -164q35 0 49.5 60.5t14.5 208.5q0 135 -22.5 191t-80.5 56h-71v183h86q51 0 67.5 56t16.5 202q0 92 -8.5 145t-21.5 69.5t-34 16.5q-51 0 -51 -158v-102h-162v98q0 317 229 318 q98 0 156.5 -96.5t58.5 -270.5q0 -305 -133 -358v-8q143 -59 144 -351q0 -217 -65 -315t-171 -98z" />
<glyph unicode="4" horiz-adv-x="559" d="M311 0v375h-280v137l227 948h172l-244 -934h125v287l148 139v-426h71v-151h-71v-375h-148z" />
<glyph unicode="5" horiz-adv-x="538" d="M268 -18q-229 0 -229 282v160h164v-154q0 -133 63 -133q59 0 60 137v390q0 61 -12.5 89.5t-49.5 28.5q-51 0 -71 -82l-140 2l23 758h403v-157h-260q0 -31 -6 -219.5t-6 -221.5q47 66 125 66q166 0 166 -226v-417q0 -143 -59.5 -223t-170.5 -80z" />
<glyph unicode="6" horiz-adv-x="557" d="M281 -16q-117 0 -172.5 70.5t-55.5 187.5v983q0 125 63.5 191.5t172.5 66.5q100 0 158.5 -66.5t58.5 -169.5v-182h-164v168q0 92 -57 92q-61 0 -62 -94v-397q49 53 113 53q174 0 174 -197v-450q0 -115 -59 -185.5t-170 -70.5zM282.5 135q59.5 0 59.5 94v451q0 72 -57 72 q-61 0 -62 -74v-457q0 -86 59.5 -86z" />
<glyph unicode="7" horiz-adv-x="509" d="M111 0q6 741 192 1296h-260v164h432v-141q-186 -537 -196 -1319h-168z" />
<glyph unicode="8" horiz-adv-x="555" d="M274.5 -14q-104.5 0 -167 61.5t-62.5 175.5v350q0 121 78 179q-68 53 -68 172v317q0 113 61.5 177.5t164.5 64.5q98 0 159.5 -59.5t61.5 -172.5v-317q0 -123 -74 -180q82 -57 82 -168v-357q0 -119 -65.5 -181t-170 -62zM278.5 137q61.5 0 61.5 80v389q0 82 -61.5 82 t-61.5 -80v-389q0 -82 61.5 -82zM281 827q59 0 59 84v340q0 74 -59 74q-61 0 -62 -72v-342q1 -84 62 -84z" />
<glyph unicode="9" horiz-adv-x="552" d="M270 -16q-102 0 -159.5 69.5t-57.5 182.5v167h164v-161q0 -98 57 -99q61 0 62 99v391q-51 -51 -115 -51q-174 0 -174 196v453q0 113 59.5 180.5t169.5 67.5q117 0 172.5 -71t55.5 -185v-955q0 -135 -62.5 -209.5t-171.5 -74.5zM274.5 717q57.5 0 61.5 74v452q0 86 -62 86 q-57 0 -57 -96v-445q0 -71 57.5 -71z" />
<glyph unicode=":" horiz-adv-x="280" d="M59 0v256h162v-256h-162zM61 838v256h162v-256h-162z" />
<glyph unicode=";" horiz-adv-x="282" d="M68 -207l43 219h-50v244h162v-233l-63 -230h-92zM61 838v256h162v-256h-162z" />
<glyph unicode="&#x3c;" horiz-adv-x="573" d="M451 389l-388 217v103l388 217l59 -119l-272 -150l272 -149z" />
<glyph unicode="=" horiz-adv-x="573" d="M51 442v136h471v-136h-471zM51 702v136h471v-136h-471z" />
<glyph unicode="&#x3e;" horiz-adv-x="573" d="M123 389l-60 121l273 149l-273 150l60 119l387 -217v-105z" />
<glyph unicode="?" horiz-adv-x="540" d="M182 389v57q0 174 70 361q68 178 67 336v39q0 10 -1 37.5t-5 40.5l-10 29q-6 17 -17.5 24.5t-25.5 7.5q-57 0 -57 -135v-142h-148v134q0 303 217 303q104 0 159.5 -92.5t57.5 -253.5q0 -47 -5 -91.5t-18 -89.5l-21 -68q-7 -24 -26.5 -74t-23.5 -58q-59 -152 -59 -279v-86 h-154zM184 0v256h162v-256h-162z" />
<glyph unicode="@" horiz-adv-x="1093" d="M594 -27q-217 0 -338 109q-203 172 -203 580q0 375 146.5 587.5t396.5 212.5q193 0 318.5 -137t125.5 -446q0 -258 -99 -428t-247 -199h-129l10 92h-8q-53 -111 -155 -111q-68 0 -105 43t-37 115q0 41 4 74l76 534q12 90 65.5 141.5t129.5 51.5q84 0 119 -74h4l8 64h147 l-106 -832q102 23 162.5 182.5t60.5 346.5q0 506 -350 505q-217 0 -330 -195.5t-113 -520.5q0 -383 181 -527q102 -84 270 -84q131 0 281 49l20 -69q-127 -64 -305 -64zM489 387q41 0 67 39t34 98l53 406v22q0 90 -65 90q-61 0 -78 -106l-58 -434q-6 -25 -6 -58 q0 -57 53 -57z" />
<glyph unicode="A" horiz-adv-x="669" d="M29 0l174 1462h264l174 -1462h-182l-43 401h-183l-45 -401h-159zM252 561h145l-67 660h-6z" />
<glyph unicode="B" horiz-adv-x="598" d="M59 0v1460h240q129 0 190.5 -90t61.5 -287q0 -289 -141 -331v-9q145 -45 145 -331q0 -412 -240 -412h-256zM240 158h49q49 0 67.5 61.5t18.5 190.5q0 135 -23.5 190t-81.5 55h-30v-497zM240 823h32q55 0 80 56.5t25 189.5q0 231 -84 231h-53v-477z" />
<glyph unicode="C" horiz-adv-x="598" d="M307 -16q-127 0 -192.5 66.5t-65.5 182.5v990q0 117 69.5 188.5t192.5 71.5q117 0 180.5 -68.5t63.5 -177.5v-262h-168v239q0 96 -78 97q-47 0 -62.5 -24.5t-15.5 -72.5v-960q0 -98 78 -98t78 100v233h168v-239q0 -119 -64.5 -192.5t-183.5 -73.5z" />
<glyph unicode="D" horiz-adv-x="614" d="M59 0v1460h250q111 0 183.5 -63.5t72.5 -175.5v-965q0 -125 -72.5 -190.5t-189.5 -65.5h-244zM240 168h55q90 0 90 102v934q0 90 -90 90h-55v-1126z" />
<glyph unicode="E" horiz-adv-x="505" d="M59 0v1460h404v-166h-225v-448h182v-168h-182v-510h229v-168h-408z" />
<glyph unicode="F" horiz-adv-x="491" d="M59 0v1460h402v-166h-223v-448h180v-168h-180v-678h-179z" />
<glyph unicode="G" horiz-adv-x="604" d="M307 -16q-127 0 -192.5 66.5t-65.5 182.5v990q0 117 68.5 188.5t191.5 71.5q117 0 181.5 -68.5t64.5 -177.5v-250h-168v230q0 94 -78 94q-47 0 -62.5 -25.5t-15.5 -75.5v-958q0 -96 78 -96t78 100v369h-88v157h256v-532q0 -119 -64.5 -192.5t-183.5 -73.5z" />
<glyph unicode="H" horiz-adv-x="632" d="M59 0v1460h181v-633h155v633h178v-1460h-178v653h-155v-653h-181z" />
<glyph unicode="I" horiz-adv-x="299" d="M59 0v1460h181v-1460h-181z" />
<glyph unicode="J" horiz-adv-x="581" d="M276 -18q-121 0 -181 73.5t-60 198.5v244h174v-246q0 -102 72 -102q70 0 69 104v1206h180v-1208q0 -127 -67.5 -198.5t-186.5 -71.5z" />
<glyph unicode="K" horiz-adv-x="618" d="M59 0v1460h181v-659l170 659h178l-160 -549l164 -911h-180l-111 711l-61 -199v-512h-181z" />
<glyph unicode="L" horiz-adv-x="495" d="M59 0v1460h179v-1292h229v-168h-408z" />
<glyph unicode="M" horiz-adv-x="774" d="M59 0v1460h213l117 -559h4l125 559h197v-1460h-164v1096h-4l-109 -533h-104l-109 529h-4v-1092h-162z" />
<glyph unicode="N" horiz-adv-x="665" d="M59 0v1460h201l184 -895h7v895h155v-1460h-180l-205 997h-6v-997h-156z" />
<glyph unicode="O" horiz-adv-x="618" d="M307 -16q-258 0 -258 276v954q0 125 72 196t190.5 71t188 -67.5t69.5 -190.5v-965q0 -131 -70.5 -202.5t-191.5 -71.5zM309 156q78 0 78 94v977q0 82 -78 82q-39 0 -58.5 -23.5t-19.5 -56.5v-981q0 -37 19.5 -64.5t58.5 -27.5z" />
<glyph unicode="P" horiz-adv-x="604" d="M59 0v1460h246q137 0 196.5 -102.5t59.5 -321.5q0 -225 -62.5 -336.5t-197.5 -111.5h-61v-588h-181zM240 752h47q53 0 74.5 67.5t21.5 218.5q0 141 -18.5 198.5t-83.5 57.5h-41v-542z" />
<glyph unicode="Q" horiz-adv-x="618" d="M475 -139l-88 135q-35 -12 -78 -12q-260 0 -260 276v954q0 125 73 196t191.5 71t189 -67.5t70.5 -190.5v-965q0 -88 -36 -156l106 -145zM311 156q80 0 80 94v977q0 82 -80 82q-39 0 -59.5 -24.5t-20.5 -55.5v-981q0 -35 20.5 -63.5t59.5 -28.5z" />
<glyph unicode="R" horiz-adv-x="616" d="M59 0v1460h228q283 0 282 -401q0 -254 -98 -342l109 -717h-181l-90 659h-69v-659h-181zM240 799h57q88 0 88 243q0 123 -21.5 187.5t-80.5 64.5h-43v-495z" />
<glyph unicode="S" horiz-adv-x="575" d="M293 -16q-251 0 -251 361q0 22 1 46h170q0 -133 16.5 -190.5t65.5 -57.5q68 0 67.5 123t-94.5 316l-100 192q-121 250 -121 414q0 129 59.5 210t184.5 81q127 0 181 -87t54 -296h-164q-6 227 -73.5 227t-67.5 -123q0 -98 107 -326l71 -139q137 -274 138 -459 q0 -127 -64.5 -209.5t-179.5 -82.5z" />
<glyph unicode="T" horiz-adv-x="573" d="M199 0v1294h-174v166h524v-166h-172v-1294h-178z" />
<glyph unicode="U" horiz-adv-x="606" d="M299 -18q-121 0 -183.5 66.5t-62.5 193.5v1218h183v-1212q0 -98 73.5 -98t73.5 102v1208h170v-1206q0 -127 -66.5 -199.5t-187.5 -72.5z" />
<glyph unicode="V" horiz-adv-x="598" d="M199 -6l-170 1466h182l100 -1028h6l93 1028h159l-159 -1466h-211z" />
<glyph unicode="W" horiz-adv-x="911" d="M190 -6l-163 1466h180l78 -962h6l84 962h186l88 -958h4l76 958h156l-154 -1466h-166l-96 1020h-8l-92 -1020h-179z" />
<glyph unicode="X" horiz-adv-x="559" d="M8 0l187 721l-189 739h180l103 -446l104 446h158l-184 -706l188 -754h-176l-107 457l-104 -457h-160z" />
<glyph unicode="Y" horiz-adv-x="595" d="M211 0v604l-191 856h191l98 -563l92 563h174l-186 -860v-600h-178z" />
<glyph unicode="Z" horiz-adv-x="497" d="M35 0v137l250 1155h-238v168h418v-139l-244 -1153h238v-168h-424z" />
<glyph unicode="[" horiz-adv-x="333" d="M82 -328v1788h227v-96h-88v-1597h88v-95h-227z" />
<glyph unicode="\" horiz-adv-x="370" d="M256 -324l-248 1784h117l254 -1784h-123z" />
<glyph unicode="]" horiz-adv-x="333" d="M25 -328v97h88v1595h-88v96h227v-1788h-227z" />
<glyph unicode="^" horiz-adv-x="573" d="M78 442l141 600h119l125 -600h-133l-56 285l-59 -285h-137z" />
<glyph unicode="_" horiz-adv-x="632" d="M0 -283v131h633v-131h-633z" />
<glyph unicode="`" horiz-adv-x="372" d="M217 1200l-158 283h181l98 -283h-121z" />
<glyph unicode="a" d="M207 -18q-168 0 -168 346q0 154 63.5 253t196.5 101h12v221q0 57 -51 58q-53 0 -53 -62v-141h-154v137q0 94 55.5 156.5t159.5 62.5q109 0 158 -62.5t49 -156.5v-643q0 -43 3 -141.5t3 -110.5h-143q-4 16 -10 88h-4q-10 -51 -44 -78.5t-73 -27.5zM262 131q25 0 37 27.5 t12 60.5v336h-18q-41 0 -65.5 -56.5t-24.5 -160.5q0 -207 59 -207z" />
<glyph unicode="b" horiz-adv-x="561" d="M346 -12q-98 0 -141 94h-2l-4 -82h-142v1460h168v-444h2q18 49 58.5 73.5t81.5 24.5q145 0 145 -170v-764q0 -192 -166 -192zM291 133q53 0 53 68v688q0 70 -57 69q-61 0 -62 -86v-657q0 -35 17.5 -58.5t48.5 -23.5z" />
<glyph unicode="c" horiz-adv-x="534" d="M270 -16q-106 0 -163.5 63.5t-57.5 169.5v664q0 106 63.5 169.5t166.5 63.5q100 0 156.5 -61.5t56.5 -153.5v-141h-154v129q0 72 -62 71q-57 0 -57 -69v-676q0 -78 57 -78q61 0 62 82v139h154v-147q0 -106 -59 -165.5t-163 -59.5z" />
<glyph unicode="d" horiz-adv-x="561" d="M195 -18q-145 0 -146 186v766q0 74 40 127t120 53t123 -65h2v411h170v-1460h-154l-4 90h-6q-18 -51 -62 -79.5t-83 -28.5zM272 137q63 0 64 90v666q0 74 -64 74q-55 0 -55 -72v-686q0 -72 55 -72z" />
<glyph unicode="e" d="M291 -18q-113 0 -177.5 64.5t-64.5 178.5v647q0 106 61.5 174t164 68t156.5 -65.5t54 -163.5v-398h-266v-208q0 -68 23.5 -103t85.5 -35q51 0 127 23l34 -144q-100 -38 -198 -38zM219 627h109v252q0 78 -54 77q-55 0 -55 -75v-254z" />
<glyph unicode="f" horiz-adv-x="374" d="M98 0v948h-65v144h65v208q0 72 45 122.5t133 50.5q57 0 89 -11v-135q-8 2 -56 2q-43 0 -43 -49v-188h78v-144h-78v-948h-168z" />
<glyph unicode="g" horiz-adv-x="563" d="M246 -354q-102 0 -183 26l33 148q84 -20 135 -21q104 0 105 117v176h-4q-16 -43 -54 -65.5t-73 -22.5q-152 0 -152 180v738q0 193 160 192q41 0 78 -23.5t55 -62.5h2l6 72h152v-1188q0 -129 -68.5 -197.5t-191.5 -68.5zM276 147q27 0 44.5 23t17.5 53v666 q0 37 -17.5 59.5t-48.5 22.5q-53 0 -53 -74v-676q0 -74 57 -74z" />
<glyph unicode="h" horiz-adv-x="561" d="M57 0v1460h168v-436h2q47 90 146 90q66 0 101.5 -41t35.5 -108v-965h-166v897q0 63 -53 64q-66 0 -66 -91v-870h-168z" />
<glyph unicode="i" horiz-adv-x="282" d="M57 0v1094h168v-1094h-168zM57 1223v239h168v-239h-168z" />
<glyph unicode="j" horiz-adv-x="282" d="M66 -336q-43 0 -76 8v146h28q23 0 32 11t9 42v1223h166v-1252q0 -80 -38.5 -129t-120.5 -49zM59 1223v239h166v-239h-166z" />
<glyph unicode="k" horiz-adv-x="555" d="M57 0v1460h166v-815l146 449h166l-136 -381l127 -713h-172l-86 532l-45 -120v-412h-166z" />
<glyph unicode="l" horiz-adv-x="313" d="M195 -12q-80 0 -109 39t-29 106v1327h168v-1276q0 -27 27 -26q14 0 29 2v-156q-43 -16 -86 -16z" />
<glyph unicode="m" horiz-adv-x="845" d="M57 0v1094h162v-78h2q51 98 150 98q100 0 129 -92h2q55 92 153 92q66 0 103 -42t37 -114v-958h-166v897q0 63 -54 64q-66 0 -65 -84v-877h-166v897q0 63 -53 64q-66 0 -66 -91v-870h-168z" />
<glyph unicode="n" horiz-adv-x="561" d="M57 0v1094h162v-78h2q47 98 150 98q66 0 102.5 -40t36.5 -109v-965h-166v897q0 63 -53 64q-66 0 -66 -91v-870h-168z" />
<glyph unicode="o" horiz-adv-x="555" d="M274.5 -16q-108.5 0 -167 63.5t-58.5 173.5v662q0 109 65.5 170t166.5 61q98 0 161.5 -59.5t63.5 -161.5v-672q0 -115 -61.5 -176t-170 -61zM276 135q61 0 62 72v682q0 29 -15.5 49t-46.5 20q-57 0 -57 -67v-682q0 -74 57 -74z" />
<glyph unicode="p" horiz-adv-x="561" d="M57 -328v1422h162v-80h2q47 100 148 100q143 0 143 -182v-768q0 -78 -39 -129t-121 -51q-80 0 -125 63h-2v-375h-168zM287 137q57 0 57 70v682q0 70 -55 69q-63 0 -64 -88v-661q1 -72 62 -72z" />
<glyph unicode="q" horiz-adv-x="561" d="M336 -328v383h-2q-18 -33 -55 -53t-72 -20q-82 0 -120 52t-38 130v762q0 76 45 131t133 55q94 0 133 -76h2l7 60h135v-1424h-168zM274 135q61 0 62 74v670q0 88 -64 88q-55 0 -55 -70v-686q0 -76 57 -76z" />
<glyph unicode="r" horiz-adv-x="403" d="M57 0v1094h164v-84h2q14 39 47 65.5t68 26.5q31 0 43 -6v-178q-14 2 -53 2q-102 0 -103 -89v-831h-168z" />
<glyph unicode="s" horiz-adv-x="499" d="M258 -16q-123 0 -171 79q-46 77 -46 225v13h147q0 -98 14.5 -137t49.5 -39q49 0 49 76q0 61 -68 202l-104 215q-80 147 -80 269q0 96 52.5 160.5t154.5 64.5q199 0 199 -301l-142 -2q-4 94 -19 129t-44 35q-47 0 -47 -74q0 -29 67 -178l88 -184q100 -209 101 -324 q0 -94 -47.5 -161.5t-153.5 -67.5z" />
<glyph unicode="t" horiz-adv-x="382" d="M248 -10q-72 0 -115 38t-43 107v811h-63v144h63v217h168v-217h107v-142h-107v-755q0 -43 37 -43q31 0 55 8v-152q-39 -16 -102 -16z" />
<glyph unicode="u" horiz-adv-x="559" d="M188 -20q-63 0 -100 40.5t-37 112.5v961h166v-897q0 -61 51 -62q68 0 68 90v869h166v-1094h-162v78h-2q-48 -98 -150 -98z" />
<glyph unicode="v" horiz-adv-x="507" d="M168 -4l-154 1098h174l70 -740h4l74 740h158l-154 -1098h-172z" />
<glyph unicode="w" horiz-adv-x="780" d="M162 -2l-146 1096h179l57 -676h6l66 676h153l64 -676h6l57 676h160l-143 -1096h-142l-82 711h-6l-78 -711h-151z" />
<glyph unicode="x" horiz-adv-x="538" d="M20 2l166 551l-153 541h174l74 -330l79 330h150l-154 -525l162 -567h-170l-84 348l-90 -348h-154z" />
<glyph unicode="y" horiz-adv-x="503" d="M121 -342q-27 0 -72 6v133q49 -4 53 -4q57 4 68 68l16 110l-174 1123h170l80 -725h4l70 725h156l-166 -1180q-43 -256 -205 -256z" />
<glyph unicode="z" horiz-adv-x="440" d="M33 0v133l200 809h-196v152h371v-144l-197 -796h195v-154h-373z" />
<glyph unicode="{" horiz-adv-x="348" d="M236 -328q-76 0 -113 34t-37 116v651q0 53 -12.5 79t-46.5 28v102q59 12 59 90v524q0 164 150 164h77v-98h-53q-35 0 -35 -47v-508q0 -137 -84 -172v-8q51 -23 67.5 -61t16.5 -111v-639q0 -47 35 -47h53v-97h-77z" />
<glyph unicode="|" horiz-adv-x="446" d="M162 -322v1782h123v-1782h-123z" />
<glyph unicode="}" horiz-adv-x="348" d="M27 -328v97h53q35 0 35 47v639q0 74 16 111.5t68 60.5v8q-84 35 -84 172v508q0 47 -35 47h-53v98h77q150 0 150 -164v-524q0 -78 59 -90v-102q-35 -2 -47 -28t-12 -79v-651q0 -82 -37 -116t-113 -34h-77z" />
<glyph unicode="~" horiz-adv-x="573" d="M152 543l-89 14q18 193 127 193q33 0 99.5 -22.5t91.5 -22.5q33 0 45 61l86 -14q-16 -193 -123 -193q-33 0 -104.5 24.5t-83.5 24.5q-37 1 -49 -65z" />
<glyph unicode="&#xa1;" horiz-adv-x="305" d="M68 -305v567l22 506h125l23 -506v-567h-170zM74 901v256h159v-256h-159z" />
<glyph unicode="&#xa2;" horiz-adv-x="536" d="M219 -121v137q-82 14 -126 75t-44 155v637q0 92 46 150.5t124 74.5v135h121v-137q74 -18 113 -75.5t39 -135.5v-137h-154v129q0 72 -62 71q-57 0 -57 -69v-647q0 -80 57 -80q61 0 62 82v139h154v-147q0 -180 -152 -216v-141h-121z" />
<glyph unicode="&#xa3;" horiz-adv-x="665" d="M51 0v154h68v512h-66v145h66v406q0 127 70.5 195.5t189.5 68.5q113 0 174 -66.5t61 -169.5v-155h-163v149q0 82 -76 82t-76 -92v-418h188v-145h-188v-512h322l-25 -154h-545z" />
<glyph unicode="&#xa4;" horiz-adv-x="669" d="M139 444l-63 62l67 67q-45 63 -45 140q0 72 41 129l-67 67l59 62l66 -66q63 45 137 45q72 0 131 -41l67 68l62 -62l-68 -65q47 -68 47 -139q0 -70 -43 -133l68 -68l-59 -59l-68 65q-57 -43 -135 -43q-66 0 -131 39zM334 551q72 0 111.5 45t39.5 117q0 68 -43 113.5 t-106 45.5q-72 0 -112 -45t-40 -118q0 -63 42 -110.5t108 -47.5z" />
<glyph unicode="&#xa5;" horiz-adv-x="563" d="M195 0v485h-134v142h127l-184 835h191l98 -565l92 565h174l-180 -835h125v-142h-131v-485h-178z" />
<glyph unicode="&#xa6;" horiz-adv-x="573" d="M180 -84v723h133v-723h-133zM180 791v682h133v-682h-133z" />
<glyph unicode="&#xa7;" horiz-adv-x="606" d="M305 -25q-102 0 -170.5 62.5t-68.5 210.5v80h149v-74q0 -70 23.5 -109t64.5 -39q82 0 82 144q0 127 -92 176l-64 41q-174 94 -174 266q0 100 101 221q-100 96 -101 246q0 121 65.5 194.5t182.5 73.5q104 0 165.5 -65.5t61.5 -190.5v-84h-145v70q0 137 -84 137 q-80 0 -80 -133q0 -117 86 -172l66 -43q172 -106 172 -252q0 -129 -90 -233q100 -94 98 -250q0 -127 -67.5 -202t-180.5 -75zM342 586q51 51 51 125q0 76 -76 120l-55 35q-53 -45 -53 -125q0 -76 76 -120z" />
<glyph unicode="&#xa8;" horiz-adv-x="485" d="M68 1206v267h137v-267h-137zM281 1206v267h137v-267h-137z" />
<glyph unicode="&#xa9;" horiz-adv-x="1167" d="M588 154q-104 0 -162.5 57t-58.5 156v698q0 100 60 161.5t162.5 61.5t155 -60.5t52.5 -156.5v-225h-148v213q0 78 -57 78t-57 -76v-676q0 -78 55 -78q59 0 59 76v209h148v-209q0 -104 -54.5 -166.5t-154.5 -62.5zM586 -45q-139 0 -242.5 60.5t-165 167t-91.5 241.5 t-30 297q0 330 136.5 545t392.5 215q135 0 238.5 -61.5t164 -169t91 -240.5t30.5 -289q0 -334 -132 -550t-392 -216zM586 53q195 0 304 179.5t109 488.5q0 311 -107.5 491.5t-305.5 180.5q-201 0 -307.5 -178.5t-106.5 -493.5q0 -311 110.5 -489.5t303.5 -178.5z" />
<glyph unicode="&#xaa;" horiz-adv-x="438" d="M160 799q-47 0 -77 49t-30 149q0 88 42 144.5t128 58.5h4v119q0 29 -26.5 29t-26.5 -33v-76h-113v74q0 61 37 99t109 38q143 0 143 -139v-361q0 -27 2 -82t2 -59h-112q-6 18 -6 45q-25 -55 -76 -55zM203 899q25 0 24 35v182h-6q-47 0 -47 -110q0 -107 29 -107zM78 633 v115h272v-115h-272z" />
<glyph unicode="&#xab;" horiz-adv-x="587" d="M211 301l-174 266l170 269l98 -62l-100 -207l106 -207zM453 313l-170 254l166 256l98 -61l-98 -195l102 -194z" />
<glyph unicode="&#xac;" horiz-adv-x="688" d="M512 381v197h-467v135h598v-332h-131z" />
<glyph unicode="&#xad;" horiz-adv-x="339" d="M35 539v143h270v-143h-270z" />
<glyph unicode="&#xae;" horiz-adv-x="706" d="M233 813v539h125q59 0 93 -41t34 -117q0 -106 -57 -143l70 -238h-97l-57 219h-22v-219h-89zM350 641q-143 0 -226 125t-83 309q0 188 85 312t228 124q139 0 225.5 -123.5t86.5 -312.5q0 -184 -85.5 -309t-230.5 -125zM352 717q100 0 165 97t65 261q0 166 -68 265.5 t-164 99.5t-160.5 -99.5t-64.5 -265.5q0 -164 65.5 -262t161.5 -96zM322 1106h26q47 0 47 80q0 88 -49 88h-24v-168z" />
<glyph unicode="&#xaf;" horiz-adv-x="499" d="M82 1243v141h336v-141h-336z" />
<glyph unicode="&#xb0;" horiz-adv-x="387" d="M195 1182q-63 0 -107.5 45t-44.5 110.5t44 110.5t108 45q61 0 105 -46t44 -109.5t-44 -109.5t-105 -46zM194.5 1260q28.5 0 48 22.5t19.5 55t-19.5 55t-48 22.5t-48 -22.5t-19.5 -55t19.5 -55t48 -22.5z" />
<glyph unicode="&#xb1;" horiz-adv-x="573" d="M221 416v200h-178v136h178v202h131v-202h178v-136h-178v-200h-131zM51 184v135h471v-135h-471z" />
<glyph unicode="&#xb2;" horiz-adv-x="419" d="M53 780v84l113 240q68 156 67 278v21q0 80 -32 80q-31 0 -31 -68v-65h-121v65q0 84 39 134t117 50q162 0 162 -202q0 -68 -19.5 -143.5t-36.5 -112.5l-53 -121l-59 -125h166v-115h-312z" />
<glyph unicode="&#xb3;" horiz-adv-x="413" d="M207 762q-160 0 -160 205v51h123v-64q0 -80 33 -80q35 0 35 127t-56 127h-51v119h53q27 0 38 28t11 95q0 113 -32 113q-31 0 -31 -80v-53h-121v55q0 195 160 194q70 0 110.5 -55t40.5 -158q0 -154 -73 -194v-2q82 -39 82 -195q0 -123 -45 -178t-117 -55z" />
<glyph unicode="&#xb4;" horiz-adv-x="391" d="M74 1200l98 283h180l-157 -283h-121z" />
<glyph unicode="&#xb5;" horiz-adv-x="579" d="M53 -367v1461h166v-893q0 -66 53 -66q66 0 66 96v863h166v-830q0 -61 39 -74v-194q-111 6 -131 104q-31 -117 -123 -116q-84 0 -103 110l-8 -4l41 -414z" />
<glyph unicode="&#xb6;" horiz-adv-x="649" d="M242 -100v608q-193 70 -193 448q0 248 72 377t250 129h243v-92h-63v-1470h-111v1470h-90v-1470h-108z" />
<glyph unicode="&#xb7;" horiz-adv-x="280" d="M59 569v254h162v-254h-162z" />
<glyph unicode="&#x22c5;" horiz-adv-x="280" d="M59 569v254h162v-254h-162z" />
<glyph unicode="&#xb8;" horiz-adv-x="395" d="M166 -340q-72 0 -127 16v91q70 -16 113 -17q59 0 59 43q0 33 -68 39l-49 4l39 195h78l-25 -123q152 0 152 -113q0 -63 -50 -99t-122 -36z" />
<glyph unicode="&#xb9;" horiz-adv-x="434" d="M190 780v686l-45 -16l-22 94l110 60h84v-824h-127z" />
<glyph unicode="&#xba;" horiz-adv-x="425" d="M211 799q-74 0 -113 37.5t-39 105.5v369q0 63 43 101t113 38q68 0 111 -36t43 -99v-373q0 -68 -42 -105.5t-116 -37.5zM211 899q35 0 35 35v379q0 35 -35 35q-29 0 -29 -33v-381q0 -35 29 -35zM80 633v115h272v-115h-272z" />
<glyph unicode="&#xbb;" horiz-adv-x="587" d="M139 313l-98 62l98 194l-102 195l98 61l170 -256zM381 301l-98 61l100 207l-107 207l101 62l174 -269z" />
<glyph unicode="&#xbc;" horiz-adv-x="931" d="M141 647v686l-45 -16l-22 94l110 59h84v-823h-127zM711 0v195h-193v98l154 528h125l-162 -516h76v146l110 94v-240h47v-110h-47v-195h-110zM195 0l413 1460h92l-409 -1460h-96z" />
<glyph unicode="&#xbd;" horiz-adv-x="931" d="M141 647v686l-45 -16l-22 94l110 59h84v-823h-127zM543 0v84l112 240q68 156 68 278v21q0 80 -33 79q-31 0 -31 -67v-66h-120v66q0 84 38.5 134t116.5 50q162 0 162 -203q0 -68 -19.5 -143.5t-35.5 -112.5l-53 -120l-60 -125h166v-115h-311zM164 0l414 1460h92 l-410 -1460h-96z" />
<glyph unicode="&#xbe;" horiz-adv-x="931" d="M721 0v195h-193v98l154 528h125l-162 -516h76v146l110 94v-240h48v-110h-48v-195h-110zM197 629q-160 0 -160 205v51h123v-64q0 -80 33 -80q35 0 34.5 127t-55.5 127h-51v119h53q27 0 38 27.5t11 95.5q0 113 -33 113q-31 0 -30 -80v-53h-121v55q0 195 160 194 q70 0 110.5 -55t40.5 -158q0 -154 -74 -194v-2q82 -39 82 -195q0 -123 -44.5 -178t-116.5 -55zM217 0l414 1460h92l-410 -1460h-96z" />
<glyph unicode="&#xbf;" horiz-adv-x="540" d="M270 -328q-104 0 -159.5 93.5t-55.5 254.5q0 78 18.5 160t32 117t46.5 111q57 139 57 282v88h151v-59q0 -199 -67.5 -367t-67.5 -340v-39q0 -10 1 -37.5t5 -39.5l11 -30q6 -17 17 -24.5t26 -7.5q35 0 45 34t10 99v144h149v-136q0 -303 -219 -303zM201 899v256h161v-256 h-161z" />
<glyph unicode="&#xc0;" horiz-adv-x="669" d="M29 0l174 1462h264l174 -1462h-182l-43 401h-183l-45 -401h-159zM252 561h145l-67 660h-6zM283 1559l-158 282h180l98 -282h-120z" />
<glyph unicode="&#xc1;" horiz-adv-x="669" d="M29 0l174 1462h264l174 -1462h-182l-43 401h-183l-45 -401h-159zM252 561h145l-67 660h-6zM266 1559l99 282h180l-158 -282h-121z" />
<glyph unicode="&#xc2;" horiz-adv-x="669" d="M29 0l174 1462h264l174 -1462h-182l-43 401h-183l-45 -401h-159zM252 561h145l-67 660h-6zM145 1559l127 282h127l125 -282h-135l-55 147l-55 -147h-134z" />
<glyph unicode="&#xc3;" horiz-adv-x="669" d="M29 0l174 1462h264l174 -1462h-182l-43 401h-183l-45 -401h-159zM252 561h145l-67 660h-6zM211 1579l-90 25q29 174 125 174q31 0 84 -22.5t76 -22.5q20 0 29 11t18 42l90 -23q-8 -74 -43 -124t-88 -50q-27 0 -84.5 22.5t-69.5 22.5q-18 0 -28.5 -10t-18.5 -45z" />
<glyph unicode="&#xc4;" horiz-adv-x="669" d="M29 0l174 1462h264l174 -1462h-182l-43 401h-183l-45 -401h-159zM252 561h145l-67 660h-6zM160 1565v266h137v-266h-137zM373 1565v266h137v-266h-137z" />
<glyph unicode="&#xc5;" horiz-adv-x="669" d="M29 0l174 1462h264l174 -1462h-182l-43 401h-183l-45 -401h-159zM252 561h145l-67 660h-6zM334 1554q-70 0 -113 44t-43 110q0 68 44 115t114 47t111.5 -44t41.5 -111.5t-44.5 -114t-110.5 -46.5zM336 1630q35 0 53.5 23.5t18.5 60.5q0 35 -17.5 58.5t-54.5 23.5 q-70 0 -70 -84q0 -37 19.5 -59.5t50.5 -22.5z" />
<glyph unicode="&#xc6;" horiz-adv-x="851" d="M20 0l259 1460h530v-166h-223v-448h182v-168h-182v-510h227v-168h-405v459h-134l-71 -459h-183zM295 600h113v688h-5z" />
<glyph unicode="&#xc7;" horiz-adv-x="598" d="M293 -340q-72 0 -127 16v91q70 -16 113 -17q59 0 59 43q0 33 -68 39l-49 4l31 152q-203 29 -203 245v990q0 117 69.5 188.5t192.5 71.5q117 0 180.5 -68.5t63.5 -177.5v-262h-168v239q0 96 -78 97q-47 0 -62.5 -24.5t-15.5 -72.5v-960q0 -98 78 -98t78 100v233h168v-239 q0 -113 -59.5 -185.5t-167.5 -78.5l-15 -78q152 0 152 -113q0 -63 -50 -99t-122 -36z" />
<glyph unicode="&#xc8;" horiz-adv-x="505" d="M59 0v1460h404v-166h-225v-448h182v-168h-182v-510h229v-168h-408zM250 1559l-158 282h180l99 -282h-121z" />
<glyph unicode="&#xc9;" horiz-adv-x="505" d="M186 1559l99 282h180l-158 -282h-121zM59 0v1460h404v-166h-225v-448h182v-168h-182v-510h229v-168h-408z" />
<glyph unicode="&#xca;" horiz-adv-x="505" d="M74 1559l127 282h127l125 -282h-136l-55 147l-55 -147h-133zM59 0v1460h404v-166h-225v-448h182v-168h-182v-510h229v-168h-408z" />
<glyph unicode="&#xcb;" horiz-adv-x="505" d="M88 1565v266h137v-266h-137zM301 1565v266h137v-266h-137zM59 0v1460h404v-166h-225v-448h182v-168h-182v-510h229v-168h-408z" />
<glyph unicode="&#xcc;" horiz-adv-x="299" d="M59 0v1460h181v-1460h-181zM90 1559l-158 282h181l98 -282h-121z" />
<glyph unicode="&#xcd;" horiz-adv-x="299" d="M59 0v1460h181v-1460h-181zM84 1559l98 282h180l-157 -282h-121z" />
<glyph unicode="&#xce;" horiz-adv-x="299" d="M59 0v1460h181v-1460h-181zM-39 1559l127 282h127l125 -282h-135l-55 147l-56 -147h-133z" />
<glyph unicode="&#xcf;" horiz-adv-x="299" d="M59 0v1460h181v-1460h-181zM-25 1565v266h138v-266h-138zM188 1565v266h138v-266h-138z" />
<glyph unicode="&#xd0;" horiz-adv-x="632" d="M80 0v688h-49v152h49v620h266q109 0 173.5 -62.5t64.5 -176.5v-965q0 -127 -64.5 -191.5t-179.5 -64.5h-260zM260 168h53q90 0 90 102v934q0 90 -90 90h-53v-454h84v-152h-84v-520z" />
<glyph unicode="&#xd1;" horiz-adv-x="665" d="M59 0v1460h201l184 -895h7v895h155v-1460h-180l-205 997h-6v-997h-156zM211 1579l-90 25q29 174 125 174q31 0 84 -22.5t76 -22.5q20 0 29 11t18 42l90 -23q-8 -74 -43 -124t-88 -50q-27 0 -84.5 22.5t-69.5 22.5q-18 0 -28.5 -10t-18.5 -45z" />
<glyph unicode="&#xd2;" horiz-adv-x="618" d="M307 -16q-258 0 -258 276v954q0 125 72 196t190.5 71t188 -67.5t69.5 -190.5v-965q0 -131 -70.5 -202.5t-191.5 -71.5zM309 156q78 0 78 94v977q0 82 -78 82q-39 0 -58.5 -23.5t-19.5 -56.5v-981q0 -37 19.5 -64.5t58.5 -27.5zM250 1559l-158 282h180l99 -282h-121z" />
<glyph unicode="&#xd3;" horiz-adv-x="618" d="M240 1559l98 282h180l-158 -282h-120zM307 -16q-258 0 -258 276v954q0 125 72 196t190.5 71t188 -67.5t69.5 -190.5v-965q0 -131 -70.5 -202.5t-191.5 -71.5zM309 156q78 0 78 94v977q0 82 -78 82q-39 0 -58.5 -23.5t-19.5 -56.5v-981q0 -37 19.5 -64.5t58.5 -27.5z" />
<glyph unicode="&#xd4;" horiz-adv-x="618" d="M119 1559l127 282h127l125 -282h-136l-55 147l-55 -147h-133zM307 -16q-258 0 -258 276v954q0 125 72 196t190.5 71t188 -67.5t69.5 -190.5v-965q0 -131 -70.5 -202.5t-191.5 -71.5zM309 156q78 0 78 94v977q0 82 -78 82q-39 0 -58.5 -23.5t-19.5 -56.5v-981 q0 -37 19.5 -64.5t58.5 -27.5z" />
<glyph unicode="&#xd5;" horiz-adv-x="618" d="M307 -16q-258 0 -258 276v954q0 125 72 196t190.5 71t188 -67.5t69.5 -190.5v-965q0 -131 -70.5 -202.5t-191.5 -71.5zM309 156q78 0 78 94v977q0 82 -78 82q-39 0 -58.5 -23.5t-19.5 -56.5v-981q0 -37 19.5 -64.5t58.5 -27.5zM186 1579l-90 25q29 174 125 174 q31 0 84 -22.5t76 -22.5q20 0 29.5 11t17.5 42l90 -23q-8 -74 -43 -124t-88 -50q-27 0 -84 22.5t-70 22.5q-18 0 -28.5 -10t-18.5 -45z" />
<glyph unicode="&#xd6;" horiz-adv-x="618" d="M133 1565v266h137v-266h-137zM346 1565v266h137v-266h-137zM307 -16q-258 0 -258 276v954q0 125 72 196t190.5 71t188 -67.5t69.5 -190.5v-965q0 -131 -70.5 -202.5t-191.5 -71.5zM309 156q78 0 78 94v977q0 82 -78 82q-39 0 -58.5 -23.5t-19.5 -56.5v-981 q0 -37 19.5 -64.5t58.5 -27.5z" />
<glyph unicode="&#xd7;" horiz-adv-x="573" d="M119 401l-86 91l164 165l-164 168l86 90l168 -167l166 167l88 -90l-166 -166l166 -167l-90 -91l-164 168z" />
<glyph unicode="&#xd8;" horiz-adv-x="618" d="M188 -82l-88 14l23 113q-74 70 -74 215v954q0 125 72 196t190 71q55 0 111 -21l18 84l86 -12l-26 -121q70 -74 69 -188v-965q0 -131 -70.5 -202.5t-191.5 -71.5q-53 0 -102 14zM231 1229v-676l150 711q-16 45 -72 45q-39 0 -58.5 -23.5t-19.5 -56.5zM309 156q78 0 78 94 v616l-141 -676q20 -34 63 -34z" />
<glyph unicode="&#xd9;" horiz-adv-x="606" d="M299 -18q-121 0 -183.5 66.5t-62.5 193.5v1218h183v-1212q0 -98 73.5 -98t73.5 102v1208h170v-1206q0 -127 -66.5 -199.5t-187.5 -72.5zM246 1559l-158 282h180l99 -282h-121z" />
<glyph unicode="&#xda;" horiz-adv-x="606" d="M238 1559l98 282h180l-158 -282h-120zM299 -18q-121 0 -183.5 66.5t-62.5 193.5v1218h183v-1212q0 -98 73.5 -98t73.5 102v1208h170v-1206q0 -127 -66.5 -199.5t-187.5 -72.5z" />
<glyph unicode="&#xdb;" horiz-adv-x="606" d="M113 1559l127 282h127l125 -282h-136l-55 147l-55 -147h-133zM299 -18q-121 0 -183.5 66.5t-62.5 193.5v1218h183v-1212q0 -98 73.5 -98t73.5 102v1208h170v-1206q0 -127 -66.5 -199.5t-187.5 -72.5z" />
<glyph unicode="&#xdc;" horiz-adv-x="606" d="M127 1565v266h137v-266h-137zM340 1565v266h137v-266h-137zM299 -18q-121 0 -183.5 66.5t-62.5 193.5v1218h183v-1212q0 -98 73.5 -98t73.5 102v1208h170v-1206q0 -127 -66.5 -199.5t-187.5 -72.5z" />
<glyph unicode="&#xdd;" horiz-adv-x="595" d="M211 0v604l-191 856h191l98 -563l92 563h174l-186 -860v-600h-178zM227 1559l99 282h180l-158 -282h-121z" />
<glyph unicode="&#xde;" horiz-adv-x="604" d="M59 0v1460h181v-282h65q137 0 196.5 -100.5t59.5 -319.5q0 -455 -260 -455h-61v-303h-181zM240 469h47q53 0 74.5 67.5t21.5 219.5q0 141 -18.5 197.5t-83.5 56.5h-41v-541z" />
<glyph unicode="&#xdf;" horiz-adv-x="645" d="M416 -10q-45 0 -94 14l8 137l39 -2q66 0 65 146q0 268 -88 393v137h19q61 209 61 336q0 172 -70 172q-66 0 -65 -145v-1178h-166v948h-68v144h68v86q0 141 61.5 219t180.5 78q121 0 173 -85t52 -214q0 -221 -94 -420v-4q104 -211 104 -457q0 -129 -43 -217t-143 -88z" />
<glyph unicode="&#xe0;" d="M207 -18q-168 0 -168 346q0 154 63.5 253t196.5 101h12v221q0 57 -51 58q-53 0 -53 -62v-141h-154v137q0 94 55.5 156.5t159.5 62.5q109 0 158 -62.5t49 -156.5v-643q0 -43 3 -141.5t3 -110.5h-143q-4 16 -10 88h-4q-10 -51 -44 -78.5t-73 -27.5zM262 131q25 0 37 27.5 t12 60.5v336h-18q-41 0 -65.5 -56.5t-24.5 -160.5q0 -207 59 -207zM227 1200l-157 283h180l98 -283h-121z" />
<glyph unicode="&#xe1;" d="M207 -18q-168 0 -168 346q0 154 63.5 253t196.5 101h12v221q0 57 -51 58q-53 0 -53 -62v-141h-154v137q0 94 55.5 156.5t159.5 62.5q109 0 158 -62.5t49 -156.5v-643q0 -43 3 -141.5t3 -110.5h-143q-4 16 -10 88h-4q-10 -51 -44 -78.5t-73 -27.5zM262 131q25 0 37 27.5 t12 60.5v336h-18q-41 0 -65.5 -56.5t-24.5 -160.5q0 -207 59 -207zM188 1200l99 283h180l-158 -283h-121z" />
<glyph unicode="&#xe2;" d="M207 -18q-168 0 -168 346q0 154 63.5 253t196.5 101h12v221q0 57 -51 58q-53 0 -53 -62v-141h-154v137q0 94 55.5 156.5t159.5 62.5q109 0 158 -62.5t49 -156.5v-643q0 -43 3 -141.5t3 -110.5h-143q-4 16 -10 88h-4q-10 -51 -44 -78.5t-73 -27.5zM262 131q25 0 37 27.5 t12 60.5v336h-18q-41 0 -65.5 -56.5t-24.5 -160.5q0 -207 59 -207zM78 1200l127 283h127l125 -283h-135l-56 148l-55 -148h-133z" />
<glyph unicode="&#xe3;" d="M207 -18q-168 0 -168 346q0 154 63.5 253t196.5 101h12v221q0 57 -51 58q-53 0 -53 -62v-141h-154v137q0 94 55.5 156.5t159.5 62.5q109 0 158 -62.5t49 -156.5v-643q0 -43 3 -141.5t3 -110.5h-143q-4 16 -10 88h-4q-10 -51 -44 -78.5t-73 -27.5zM262 131q25 0 37 27.5 t12 60.5v336h-18q-41 0 -65.5 -56.5t-24.5 -160.5q0 -207 59 -207zM143 1221l-90 24q29 174 125 174q31 0 84 -22.5t76 -22.5q20 0 29.5 11.5t17.5 41.5l90 -22q-8 -74 -43 -124t-88 -50q-27 0 -84 22.5t-70 22.5q-18 0 -28.5 -10t-18.5 -45z" />
<glyph unicode="&#xe4;" d="M207 -18q-168 0 -168 346q0 154 63.5 253t196.5 101h12v221q0 57 -51 58q-53 0 -53 -62v-141h-154v137q0 94 55.5 156.5t159.5 62.5q109 0 158 -62.5t49 -156.5v-643q0 -43 3 -141.5t3 -110.5h-143q-4 16 -10 88h-4q-10 -51 -44 -78.5t-73 -27.5zM262 131q25 0 37 27.5 t12 60.5v336h-18q-41 0 -65.5 -56.5t-24.5 -160.5q0 -207 59 -207zM90 1206v267h137v-267h-137zM303 1206v267h137v-267h-137z" />
<glyph unicode="&#xe5;" d="M207 -18q-168 0 -168 346q0 154 63.5 253t196.5 101h12v221q0 57 -51 58q-53 0 -53 -62v-141h-154v137q0 94 55.5 156.5t159.5 62.5q109 0 158 -62.5t49 -156.5v-643q0 -43 3 -141.5t3 -110.5h-143q-4 16 -10 88h-4q-10 -51 -44 -78.5t-73 -27.5zM262 131q25 0 37 27.5 t12 60.5v336h-18q-41 0 -65.5 -56.5t-24.5 -160.5q0 -207 59 -207zM264 1196q-70 0 -112.5 44t-42.5 110q0 68 44 114.5t113.5 46.5t111.5 -44t42 -111.5t-45 -113.5t-111 -46zM266 1272q35 0 53.5 23.5t18.5 60.5q0 35 -17.5 58.5t-54.5 23.5q-70 0 -69 -84q0 -37 19 -59.5 t50 -22.5z" />
<glyph unicode="&#xe6;" horiz-adv-x="794" d="M207 -20q-74 0 -121 86t-47 262q0 154 63.5 253t196.5 101h12v221q0 57 -51 58q-53 0 -53 -62v-141h-154v137q0 94 55.5 156.5t159.5 62.5q80 0 135 -45q55 45 136 45q98 0 153.5 -62.5t55.5 -162.5v-402h-269v-208q0 -137 111 -138q45 0 127 23l35 -144 q-96 -39 -199 -38q-127 0 -191 88q-49 -90 -155 -90zM262 131q49 0 49 80v344h-18q-41 0 -65.5 -56.5t-24.5 -160.5q0 -207 59 -207zM479 627h111v252q0 78 -53 77q-57 0 -58 -75v-254z" />
<glyph unicode="&#xe7;" horiz-adv-x="534" d="M280.5 -340q-71.5 0 -126.5 16v91q70 -16 112 -17q59 0 60 43q0 33 -68 39l-49 4l29 150q-92 10 -140.5 71.5t-48.5 159.5v664q0 106 63.5 169.5t166.5 63.5q100 0 156.5 -61.5t56.5 -153.5v-141h-154v129q0 72 -62 71q-57 0 -57 -69v-676q0 -78 57 -78q61 0 62 82v139 h154v-147q0 -94 -46.5 -152.5t-130.5 -68.5l-14 -80q152 0 152 -113q0 -63 -50.5 -99t-122 -36z" />
<glyph unicode="&#xe8;" d="M291 -18q-113 0 -177.5 64.5t-64.5 178.5v647q0 106 61.5 174t164 68t156.5 -65.5t54 -163.5v-398h-266v-208q0 -68 23.5 -103t85.5 -35q51 0 127 23l34 -144q-100 -38 -198 -38zM219 627h109v252q0 78 -54 77q-55 0 -55 -75v-254zM223 1200l-157 283h180l98 -283h-121z " />
<glyph unicode="&#xe9;" d="M205 1200l98 283h180l-157 -283h-121zM291 -18q-113 0 -177.5 64.5t-64.5 178.5v647q0 106 61.5 174t164 68t156.5 -65.5t54 -163.5v-398h-266v-208q0 -68 23.5 -103t85.5 -35q51 0 127 23l34 -144q-100 -38 -198 -38zM219 627h109v252q0 78 -54 77q-55 0 -55 -75v-254z " />
<glyph unicode="&#xea;" d="M82 1200l127 283h127l125 -283h-135l-56 148l-55 -148h-133zM291 -18q-113 0 -177.5 64.5t-64.5 178.5v647q0 106 61.5 174t164 68t156.5 -65.5t54 -163.5v-398h-266v-208q0 -68 23.5 -103t85.5 -35q51 0 127 23l34 -144q-100 -38 -198 -38zM219 627h109v252q0 78 -54 77 q-55 0 -55 -75v-254z" />
<glyph unicode="&#xeb;" d="M98 1206v267h138v-267h-138zM311 1206v267h138v-267h-138zM291 -18q-113 0 -177.5 64.5t-64.5 178.5v647q0 106 61.5 174t164 68t156.5 -65.5t54 -163.5v-398h-266v-208q0 -68 23.5 -103t85.5 -35q51 0 127 23l34 -144q-100 -38 -198 -38zM219 627h109v252q0 78 -54 77 q-55 0 -55 -75v-254z" />
<glyph unicode="&#xec;" horiz-adv-x="282" d="M57 0v1094h168v-1094h-168zM74 1200l-158 283h180l99 -283h-121z" />
<glyph unicode="&#xed;" horiz-adv-x="282" d="M84 1200l98 283h180l-157 -283h-121zM57 0v1094h168v-1094h-168z" />
<glyph unicode="&#xee;" horiz-adv-x="282" d="M-49 1200l127 283h127l125 -283h-135l-56 148l-55 -148h-133zM57 0v1094h168v-1094h-168z" />
<glyph unicode="&#xef;" horiz-adv-x="282" d="M-33 1206v267h137v-267h-137zM180 1206v267h137v-267h-137zM57 0v1094h168v-1094h-168z" />
<glyph unicode="&#xf0;" horiz-adv-x="550" d="M272.5 -16q-108.5 0 -167 63.5t-58.5 173.5v662q0 96 52.5 156.5t138.5 70.5h8l-49 98l-123 -22l-47 108l118 23l-63 131l178 35l62 -135l112 26l45 -110l-110 -23l116 -258q18 -47 19 -100v-662q0 -115 -61.5 -176t-170 -61zM274 135q61 0 62 72v682q0 29 -15.5 49 t-46.5 20q-57 0 -57 -67v-682q0 -74 57 -74z" />
<glyph unicode="&#xf1;" horiz-adv-x="561" d="M57 0v1094h162v-78h2q47 98 150 98q66 0 102.5 -40t36.5 -109v-965h-166v897q0 63 -53 64q-66 0 -66 -91v-870h-168zM164 1221l-90 24q29 174 125 174q31 0 84 -22.5t75 -22.5q20 0 29.5 11.5t18.5 41.5l90 -22q-8 -74 -43 -124t-88 -50q-27 0 -84.5 22.5t-69.5 22.5 q-18 0 -28.5 -10t-18.5 -45z" />
<glyph unicode="&#xf2;" horiz-adv-x="555" d="M274.5 -16q-108.5 0 -167 63.5t-58.5 173.5v662q0 109 65.5 170t166.5 61q98 0 161.5 -59.5t63.5 -161.5v-672q0 -115 -61.5 -176t-170 -61zM276 135q61 0 62 72v682q0 29 -15.5 49t-46.5 20q-57 0 -57 -67v-682q0 -74 57 -74zM217 1200l-158 283h181l98 -283h-121z" />
<glyph unicode="&#xf3;" horiz-adv-x="555" d="M211 1200l98 283h180l-157 -283h-121zM274.5 -16q-108.5 0 -167 63.5t-58.5 173.5v662q0 109 65.5 170t166.5 61q98 0 161.5 -59.5t63.5 -161.5v-672q0 -115 -61.5 -176t-170 -61zM276 135q61 0 62 72v682q0 29 -15.5 49t-46.5 20q-57 0 -57 -67v-682q0 -74 57 -74z" />
<glyph unicode="&#xf4;" horiz-adv-x="555" d="M88 1200l127 283h127l125 -283h-135l-56 148l-55 -148h-133zM274.5 -16q-108.5 0 -167 63.5t-58.5 173.5v662q0 109 65.5 170t166.5 61q98 0 161.5 -59.5t63.5 -161.5v-672q0 -115 -61.5 -176t-170 -61zM276 135q61 0 62 72v682q0 29 -15.5 49t-46.5 20q-57 0 -57 -67 v-682q0 -74 57 -74z" />
<glyph unicode="&#xf5;" horiz-adv-x="555" d="M274.5 -16q-108.5 0 -167 63.5t-58.5 173.5v662q0 109 65.5 170t166.5 61q98 0 161.5 -59.5t63.5 -161.5v-672q0 -115 -61.5 -176t-170 -61zM276 135q61 0 62 72v682q0 29 -15.5 49t-46.5 20q-57 0 -57 -67v-682q0 -74 57 -74zM154 1221l-91 24q29 174 125 174 q31 0 84.5 -22.5t75.5 -22.5q20 0 29.5 11.5t17.5 41.5l90 -22q-8 -74 -42.5 -124t-88.5 -50q-27 0 -84 22.5t-69 22.5q-18 0 -28.5 -10t-18.5 -45z" />
<glyph unicode="&#xf6;" horiz-adv-x="555" d="M102 1206v267h138v-267h-138zM315 1206v267h138v-267h-138zM274.5 -16q-108.5 0 -167 63.5t-58.5 173.5v662q0 109 65.5 170t166.5 61q98 0 161.5 -59.5t63.5 -161.5v-672q0 -115 -61.5 -176t-170 -61zM276 135q61 0 62 72v682q0 29 -15.5 49t-46.5 20q-57 0 -57 -67 v-682q0 -74 57 -74z" />
<glyph unicode="&#xf7;" horiz-adv-x="573" d="M223 303v201h127v-201h-127zM61 588v135h451v-135h-451zM223 799v200h127v-200h-127z" />
<glyph unicode="&#xf8;" horiz-adv-x="555" d="M182 -74l-76 13l21 90q-78 61 -78 192v662q0 109 65.5 170t166.5 61q41 0 88 -14l16 71l72 -10l-23 -100q72 -61 72 -168v-672q0 -115 -61.5 -176t-170.5 -61q-37 0 -77 10zM219 891v-455l111 490q-18 33 -54 32q-57 1 -57 -67zM276 135q61 0 62 72v420l-105 -471 q14 -21 43 -21z" />
<glyph unicode="&#xf9;" horiz-adv-x="559" d="M188 -20q-63 0 -100 40.5t-37 112.5v961h166v-897q0 -61 51 -62q68 0 68 90v869h166v-1094h-162v78h-2q-48 -98 -150 -98zM217 1200l-158 283h181l98 -283h-121z" />
<glyph unicode="&#xfa;" horiz-adv-x="559" d="M203 1200l98 283h180l-157 -283h-121zM188 -20q-63 0 -100 40.5t-37 112.5v961h166v-897q0 -61 51 -62q68 0 68 90v869h166v-1094h-162v78h-2q-48 -98 -150 -98z" />
<glyph unicode="&#xfb;" horiz-adv-x="559" d="M90 1200l127 283h127l125 -283h-135l-55 148l-56 -148h-133zM188 -20q-63 0 -100 40.5t-37 112.5v961h166v-897q0 -61 51 -62q68 0 68 90v869h166v-1094h-162v78h-2q-48 -98 -150 -98z" />
<glyph unicode="&#xfc;" horiz-adv-x="559" d="M104 1206v267h138v-267h-138zM317 1206v267h138v-267h-138zM188 -20q-63 0 -100 40.5t-37 112.5v961h166v-897q0 -61 51 -62q68 0 68 90v869h166v-1094h-162v78h-2q-48 -98 -150 -98z" />
<glyph unicode="&#xfd;" horiz-adv-x="503" d="M121 -342q-27 0 -72 6v133q49 -4 53 -4q57 4 68 68l16 110l-174 1123h170l80 -725h4l70 725h156l-166 -1180q-43 -256 -205 -256zM203 1200l98 283h180l-157 -283h-121z" />
<glyph unicode="&#xfe;" horiz-adv-x="559" d="M57 -328v1788h166v-434h4q20 41 60.5 63.5t79.5 22.5q145 0 145 -186v-762q0 -76 -41 -128t-123 -52q-74 0 -121 59h-2v-371h-168zM287 137q57 0 57 70v690q0 70 -55 70q-63 0 -64 -101v-657q1 -72 62 -72z" />
<glyph unicode="&#xff;" horiz-adv-x="503" d="M121 -342q-27 0 -72 6v133q49 -4 53 -4q57 4 68 68l16 110l-174 1123h170l80 -725h4l70 725h156l-166 -1180q-43 -256 -205 -256zM84 1206v267h137v-267h-137zM297 1206v267h137v-267h-137z" />
<glyph unicode="&#x152;" horiz-adv-x="841" d="M272 -12q-127 0 -175 68.5t-48 207.5v944q0 266 238 267q66 0 106 -29v14h406v-166h-228v-448h185v-168h-185v-510h232v-168h-410v31q-53 -43 -121 -43zM311 160q80 0 80 94v967q0 82 -80 82q-41 0 -60.5 -24t-19.5 -56v-971q0 -35 20.5 -63.5t59.5 -28.5z" />
<glyph unicode="&#x153;" horiz-adv-x="819" d="M274 -16q-109 0 -167 63.5t-58 173.5v662q0 109 65.5 170t166.5 61q80 0 141 -51q61 51 139 51q102 0 157.5 -65.5t55.5 -163.5v-398h-268v-221q2 -61 26.5 -93t83.5 -32q49 0 125 23l35 -141q-100 -39 -196.5 -39t-155.5 53q-60 -53 -150 -53zM276 135q61 0 62 72v684 q-4 68 -61.5 67.5t-57.5 -67.5v-682q0 -74 57 -74zM506 627h108v252q0 78 -53 77q-51 0 -55 -63v-266z" />
<glyph unicode="&#x178;" horiz-adv-x="595" d="M211 0v604l-191 856h191l98 -563l92 563h174l-186 -860v-600h-178zM123 1565v266h137v-266h-137zM336 1565v266h137v-266h-137z" />
<glyph unicode="&#x2c6;" horiz-adv-x="460" d="M41 1200l127 283h127l125 -283h-135l-56 148l-55 -148h-133z" />
<glyph unicode="&#x2dc;" horiz-adv-x="542" d="M152 1221l-91 24q29 174 125 174q31 0 84.5 -22.5t75.5 -22.5q20 0 29.5 11.5t17.5 41.5l90 -22q-8 -74 -42.5 -124t-88.5 -50q-27 0 -84 22.5t-69 22.5q-18 0 -28.5 -10t-18.5 -45z" />
<glyph unicode="&#x2000;" horiz-adv-x="933" />
<glyph unicode="&#x2001;" horiz-adv-x="1869" />
<glyph unicode="&#x2002;" horiz-adv-x="933" />
<glyph unicode="&#x2003;" horiz-adv-x="1869" />
<glyph unicode="&#x2004;" horiz-adv-x="622" />
<glyph unicode="&#x2005;" horiz-adv-x="466" />
<glyph unicode="&#x2006;" horiz-adv-x="311" />
<glyph unicode="&#x2007;" horiz-adv-x="311" />
<glyph unicode="&#x2008;" horiz-adv-x="233" />
<glyph unicode="&#x2009;" horiz-adv-x="372" />
<glyph unicode="&#x200a;" horiz-adv-x="102" />
<glyph unicode="&#x2010;" horiz-adv-x="339" d="M35 539v143h270v-143h-270z" />
<glyph unicode="&#x2011;" horiz-adv-x="339" d="M35 539v143h270v-143h-270z" />
<glyph unicode="&#x2012;" horiz-adv-x="339" d="M35 539v143h270v-143h-270z" />
<glyph unicode="&#x2013;" horiz-adv-x="546" d="M0 555v133h547v-133h-547z" />
<glyph unicode="&#x2014;" horiz-adv-x="946" d="M0 555v133h946v-133h-946z" />
<glyph unicode="&#x2018;" horiz-adv-x="282" d="M59 1006v233l64 227h92l-43 -217h49v-243h-162z" />
<glyph unicode="&#x2019;" horiz-adv-x="282" d="M68 1004l43 217h-50v243h162v-231l-63 -229h-92z" />
<glyph unicode="&#x201a;" horiz-adv-x="282" d="M68 -207l43 219h-50v244h162v-233l-63 -230h-92z" />
<glyph unicode="&#x201c;" horiz-adv-x="534" d="M59 1006v233l64 227h92l-43 -217h49v-243h-162zM313 1006v233l62 227h92l-43 -217h49v-243h-160z" />
<glyph unicode="&#x201d;" horiz-adv-x="534" d="M68 1004l43 217h-50v243h162v-231l-63 -229h-92zM322 1004l43 217h-50v243h160v-231l-61 -229h-92z" />
<glyph unicode="&#x201e;" horiz-adv-x="534" d="M68 -207l43 219h-50v244h162v-233l-63 -230h-92zM322 -207l43 219h-50v244h160v-233l-61 -230h-92z" />
<glyph unicode="&#x2022;" horiz-adv-x="661" d="M331.5 469q-102.5 0 -175 72.5t-72.5 177.5q0 102 72.5 174t175 72t174.5 -72t72 -174q0 -104 -72 -177t-174.5 -73z" />
<glyph unicode="&#x2026;" horiz-adv-x="837" d="M59 0v256h162v-256h-162zM338 0v256h162v-256h-162zM616 0v256h162v-256h-162z" />
<glyph unicode="&#x202f;" horiz-adv-x="372" />
<glyph unicode="&#x2039;" horiz-adv-x="348" d="M211 301l-174 266l170 269l98 -62l-100 -207l106 -207z" />
<glyph unicode="&#x203a;" horiz-adv-x="348" d="M141 301l-98 61l100 207l-106 207l100 62l174 -269z" />
<glyph unicode="&#x205f;" horiz-adv-x="466" />
<glyph unicode="&#x20ac;" horiz-adv-x="643" d="M360 -18q-127 0 -192.5 67.5t-65.5 183.5v314h-63v121h63v143h-63v121h63v291q0 117 70 188.5t193 71.5q115 0 175 -67.5t60 -178.5v-195h-166v172q0 96 -76 97q-45 0 -60 -24.5t-15 -72.5v-282h184v-121h-184v-143h184v-121h-184v-293q0 -98 77 -98q74 0 74 100v164h166 v-170q0 -121 -61.5 -194.5t-178.5 -73.5z" />
<glyph unicode="&#x2122;" horiz-adv-x="733" d="M330 827v633h135l45 -266l45 266h127v-633h-92v447l-45 -238h-78l-45 236v-445h-92zM111 827v543h-80v90h258v-90h-78v-543h-100z" />
<glyph unicode="&#xe000;" horiz-adv-x="1095" d="M0 1095h1095v-1095h-1095v1095z" />
<glyph unicode="&#xe38c;" horiz-adv-x="647" d="M422 0v1094h168v-1094h-168zM422 1223v239h168v-239h-168zM94 0v948h-65v144h65v208q0 72 45 122.5t133 50.5q57 0 88 -11v-135q-8 2 -55 2q-43 0 -43 -49v-188h78v-144h-78v-948h-168z" />
<glyph unicode="&#xfb01;" horiz-adv-x="647" d="M422 0v1094h168v-1094h-168zM422 1223v239h168v-239h-168zM94 0v948h-65v144h65v208q0 72 45 122.5t133 50.5q57 0 88 -11v-135q-8 2 -55 2q-43 0 -43 -49v-188h78v-144h-78v-948h-168z" />
<glyph unicode="&#xe38d;" horiz-adv-x="677" d="M559 -12q-80 0 -108.5 39t-28.5 106v1327h168v-1276q0 -27 26 -26q14 0 29 2v-156q-43 -16 -86 -16zM94 0v948h-65v144h65v208q0 72 45 122.5t133 50.5q57 0 88 -11v-135q-8 2 -55 2q-43 0 -43 -49v-188h78v-144h-78v-948h-168z" />
<glyph unicode="&#xfb02;" horiz-adv-x="677" d="M559 -12q-80 0 -108.5 39t-28.5 106v1327h168v-1276q0 -27 26 -26q14 0 29 2v-156q-43 -16 -86 -16zM94 0v948h-65v144h65v208q0 72 45 122.5t133 50.5q57 0 88 -11v-135q-8 2 -55 2q-43 0 -43 -49v-188h78v-144h-78v-948h-168z" />
<glyph unicode="&#xfb03;" horiz-adv-x="1032" d="M807 0v1094h168v-1094h-168zM807 1223v239h168v-239h-168zM473 0v948h-65v144h65v208q0 72 45 122.5t133 50.5q57 0 89 -11v-135q-8 2 -56 2q-43 0 -43 -49v-188h78v-144h-78v-948h-168zM98 0v948h-65v144h65v208q0 72 45 122.5t133 50.5q57 0 89 -11v-135q-8 2 -56 2 q-43 0 -43 -49v-188h78v-144h-78v-948h-168z" />
<glyph unicode="&#xfb04;" horiz-adv-x="1062" d="M945 -12q-80 0 -109 39t-29 106v1327h168v-1276q0 -27 27 -26q14 0 29 2v-156q-43 -16 -86 -16zM473 0v948h-65v144h65v208q0 72 45 122.5t133 50.5q57 0 89 -11v-135q-8 2 -56 2q-43 0 -43 -49v-188h78v-144h-78v-948h-168zM98 0v948h-65v144h65v208q0 72 45 122.5 t133 50.5q57 0 89 -11v-135q-8 2 -56 2q-43 0 -43 -49v-188h78v-144h-78v-948h-168z" />
<glyph horiz-adv-x="0" />
</font>
</defs>
</svg>
