<?xml version="1.0" standalone="no"?>
<!DOCTYPE svg PUBLIC "-//W3C//DTD SVG 1.1//EN" "http://www.w3.org/Graphics/SVG/1.1/DTD/svg11.dtd" >
<svg xmlns="http://www.w3.org/2000/svg">
<metadata>
This is a custom SVG webfont generated by Font Squirrel.
Copyright   : Copyright c 2008 by Mrio Feliciano All rights reserved
Designer    : Mrio Feliciano
Foundry     : Mrio Feliciano  Feliciano Type Foundry
</metadata>
<defs>
<font id="webfontCsofNQQo" horiz-adv-x="532" >
<font-face units-per-em="2048" ascent="1638" descent="-410" />
<missing-glyph horiz-adv-x="184" />
<glyph unicode=" "  horiz-adv-x="184" />
<glyph unicode="&#x09;" horiz-adv-x="184" />
<glyph unicode="&#xa0;" horiz-adv-x="184" />
<glyph unicode="!" horiz-adv-x="278" d="M96 377l-18 502v581h125v-581l-19 -502h-88zM80 0v219h119v-219h-119z" />
<glyph unicode="&#x22;" horiz-adv-x="464" d="M88 1061l-20 213v190h114v-190l-18 -213h-76zM299 1061l-20 213v190h112v-190l-16 -213h-76z" />
<glyph unicode="#" horiz-adv-x="608" d="M111 -4l22 410h-88l4 90h92l35 483h-92l4 92h90l33 397h92l-33 -397h117l31 397h92l-29 -397h90l-6 -92h-88l-35 -483h88l-4 -90h-90l-26 -410h-95l29 410h-117l-24 -410h-92zM233 496h119l33 483h-119z" />
<glyph unicode="$" horiz-adv-x="512" d="M203 -72v142q-160 33 -160 303h113q2 -51 6 -82t14 -62.5t29.5 -46t48.5 -14.5q88 0 88 137q0 121 -92 301l-92 180q-37 74 -53.5 111t-36 109.5t-19.5 140.5q0 197 154 231v133h112v-131q78 -16 115 -83.5t39 -209.5h-117q-2 111 -23.5 153t-68.5 42q-84 0 -84 -135 q0 -115 103 -307l59 -115q129 -244 129 -418q0 -92 -39 -156.5t-113 -78.5v-144h-112z" />
<glyph unicode="%" horiz-adv-x="872" d="M221 776q-76 0 -119 47t-43 129v353q0 86 42 135t120 49q76 0 119 -49t43 -133v-355q0 -80 -44 -128t-118 -48zM219 866q68 0 68 86v363q0 86 -68 86q-66 0 -65 -86v-363q-1 -86 65 -86zM653 -23q-76 0 -118.5 47.5t-42.5 129.5v344q0 86 43 139t118.5 53t117.5 -48 t42 -132v-356q0 -80 -43 -128.5t-117 -48.5zM651 66q66 0 66 90v360q0 84 -65.5 84t-65.5 -84v-360q-1 -88 65 -90zM193 -2l411 1481h82l-407 -1481h-86z" />
<glyph unicode="&#x26;" horiz-adv-x="598" d="M258 -23q-209 0 -209 404q0 295 125 428q-88 242 -88 393q0 125 48 205t145 80q180 0 180 -279q0 -258 -146 -426q4 -8 62.5 -180t62.5 -180q18 121 29 233l98 -8q-29 -225 -71 -381q4 -10 25 -70l44 -125l25 -71h-123l-45 131q-25 -70 -69 -112t-93 -42zM270 98 q37 0 67 45t44 103q-6 14 -80 224t-78 220q-25 -37 -37 -95t-13 -95t-1 -117q0 -37 1 -61.5t3 -62.5t9.5 -62.5t17.5 -49t27 -37t40 -12.5zM270 885q76 113 76 321q0 176 -67 176q-72 0 -72 -170q0 -132 63 -327z" />
<glyph unicode="'" horiz-adv-x="253" d="M88 1061l-20 213v190h114v-190l-18 -213h-76z" />
<glyph unicode="(" horiz-adv-x="296" d="M213 -334q-68 176 -105.5 431t-37.5 483q0 231 36.5 478t106.5 425l70 -10q-76 -401 -90 -580q-10 -139 -11 -315q0 -377 101 -900z" />
<glyph unicode=")" horiz-adv-x="296" d="M84 -334l-70 12q100 522 101 900q0 184 -14.5 343.5t-28.5 240.5l-58 311l70 10q70 -178 106.5 -425t36.5 -478q0 -227 -37.5 -482.5t-105.5 -431.5z" />
<glyph unicode="*" horiz-adv-x="516" d="M164 1036l-70 47l92 146l-141 88l43 69l131 -77v155h82v-155l129 77l41 -69l-139 -88l90 -146l-66 -47l-98 152z" />
<glyph unicode="+" d="M219 403v201h-170v105h170v202h96l-2 -202h172v-105h-170v-201h-96z" />
<glyph unicode="," horiz-adv-x="256" d="M74 -184l30 192h-34v211h116v-201l-43 -202h-69z" />
<glyph unicode="-" horiz-adv-x="335" d="M41 559v113h254v-113h-254z" />
<glyph unicode="." horiz-adv-x="256" d="M70 0v219h116v-219h-116z" />
<glyph unicode="/" horiz-adv-x="346" d="M-23 -324l256 1784h95l-250 -1784h-101z" />
<glyph unicode="0" horiz-adv-x="518" d="M254 -14q-98 0 -149.5 59t-51.5 164v1059q0 100 59.5 156.5t149.5 56.5q88 0 145.5 -53.5t57.5 -147.5v-1071q0 -111 -57.5 -167t-153.5 -56zM258 100q78 0 78 95v1081q0 35 -18.5 61.5t-57.5 26.5q-41 0 -59.5 -25.5t-18.5 -60.5v-1081q0 -37 17.5 -67t58.5 -30z" />
<glyph unicode="1" horiz-adv-x="376" d="M135 0v1307l-65 -31l-25 98l131 86h84v-1460h-125z" />
<glyph unicode="2" horiz-adv-x="477" d="M43 0v94l133 365q127 360 127 649v49q0 205 -70 205q-63 0 -63 -160v-117h-121v113q0 283 189 283q197 0 196 -336q0 -209 -40 -381t-115 -381l-97 -262v-2h254v-119h-393z" />
<glyph unicode="3" horiz-adv-x="487" d="M242 -14q-63 0 -106.5 28.5t-62 85t-24.5 111.5t-6 133v49h127v-69q0 -221 70 -222q43 0 58 72t15 234q0 279 -110 278h-62v131h72q55 0 74.5 68.5t19.5 222.5q0 147 -17.5 201.5t-56.5 54.5q-23 0 -36 -16.5t-18 -52t-6 -60.5t-1 -72v-78h-123v91q0 305 197 305 q96 0 143 -101.5t47 -265.5q0 -295 -119 -352v-4q127 -55 127 -365q1 -407 -202 -407z" />
<glyph unicode="4" horiz-adv-x="505" d="M289 0v393h-260v107l225 960h127l-236 -952h144v334l112 112v-446h76v-115h-76v-393h-112z" />
<glyph unicode="5" horiz-adv-x="487" d="M244 -14q-201 0 -201 276v141h125v-129q0 -170 73.5 -170t73.5 177v378q0 78 -14 114t-57 36q-59 0 -82 -90l-105 2l23 739h348v-117h-238q0 -16 -7 -247.5t-7 -247.5q37 72 119 72q66 0 107.5 -51.5t41.5 -161.5v-414q0 -141 -50 -224t-150 -83z" />
<glyph unicode="6" horiz-adv-x="512" d="M256 -14q-98 0 -147.5 65.5t-49.5 171.5v1024q0 115 56.5 174.5t148.5 59.5q90 0 141.5 -60.5t51.5 -150.5v-185h-123v164q0 115 -74 115t-74 -119v-418q45 55 111 56q164 0 164 -187v-475q0 -111 -54.5 -173t-150.5 -62zM260 98q74 0 74 117v475q0 88 -72 88 q-39 0 -57.5 -28.5t-18.5 -63.5v-483q0 -39 17.5 -72t56.5 -33z" />
<glyph unicode="7" horiz-adv-x="462" d="M109 0q10 813 190 1339h-252v121h377v-106q-180 -518 -191 -1354h-124z" />
<glyph unicode="8" horiz-adv-x="509" d="M250 -12q-96 0 -148.5 58t-52.5 165v379q0 115 74 168q-63 51 -64 172v336q0 102 55.5 158.5t145.5 56.5q86 0 139.5 -52.5t53.5 -152.5v-342q0 -123 -68 -174q76 -49 76 -158v-389q0 -113 -57.5 -169t-153.5 -56zM256 104q76 0 76 97v409q0 39 -18.5 69t-57.5 30 q-78 0 -78 -97v-409q0 -39 18.5 -69t59.5 -30zM258 815q72 0 72 103v356q0 90 -72 90q-74 0 -74 -86v-358q0 -105 74 -105z" />
<glyph unicode="9" horiz-adv-x="505" d="M248 -14q-92 0 -142.5 63.5t-50.5 165.5v178h123v-168q0 -121 74 -121t74 123v418q-45 -55 -111 -55q-162 0 -162 186v471q0 109 53.5 170.5t149.5 61.5q100 0 148.5 -64.5t48.5 -173.5v-993q0 -131 -55.5 -196.5t-149.5 -65.5zM250 694q76 0 76 92v476q0 104 -74 104 t-74 -115v-469q0 -88 72 -88z" />
<glyph unicode=":" horiz-adv-x="256" d="M70 0v219h116v-219h-116zM72 866v219h118v-219h-118z" />
<glyph unicode=";" horiz-adv-x="258" d="M74 -184l32 192h-34v211h118v-201l-47 -202h-69zM72 866v219h118v-219h-118z" />
<glyph unicode="&#x3c;" d="M418 422l-352 196l2 80l350 197l47 -92l-266 -146l268 -145z" />
<glyph unicode="=" d="M53 475v105h426v-105h-426zM53 698v105h426v-105h-426z" />
<glyph unicode="&#x3e;" d="M115 422l-47 92l266 145l-268 146l49 90l352 -197l-2 -80z" />
<glyph unicode="?" horiz-adv-x="489" d="M176 377v74q0 172 68 354q66 172 65 319q0 168 -24 209q-18 29 -47 29q-41 0 -54.5 -44t-13.5 -126v-129h-111v115q0 303 189 303q186 0 186 -355q0 -29 -2 -58.5t-5 -52t-10 -50.5l-11 -45q-4 -16 -14.5 -45t-14.5 -39l-16 -40q-11 -30 -13 -36q-59 -158 -59 -268v-115 h-113zM180 0v219h117v-219h-117z" />
<glyph unicode="@" horiz-adv-x="1050" d="M571 -14q-193 0 -313 102q-199 168 -199 569q0 367 134.5 584t379.5 217q180 0 299 -135t119 -446q0 -276 -100 -442.5t-256 -186.5h-92l10 86h-6q-53 -100 -150 -101q-63 0 -96 38t-33 98q0 18 6 55l84 596q10 80 61.5 129t121.5 49q78 0 110 -63h4l9 59h114l-119 -858 q119 12 182.5 176t63.5 360q0 516 -338 517q-143 0 -240.5 -97.5t-140.5 -256t-43 -369.5q0 -385 183 -529q100 -76 260 -76q102 0 245 43l21 -65q-121 -53 -281 -53zM453 344q45 0 74.5 42t37.5 106l68 479q2 8 2 22q0 96 -76 97q-72 0 -86 -115l-74 -514q-4 -20 -4 -55 q1 -62 58 -62z" />
<glyph unicode="A" horiz-adv-x="626" d="M37 0l180 1462h193l180 -1462h-133l-54 455h-192l-55 -455h-119zM225 573h164l-80 715h-4z" />
<glyph unicode="B" horiz-adv-x="542" d="M70 0v1460h188q129 0 181.5 -92t52.5 -278q0 -295 -144 -332v-8q84 -23 115 -108t31 -236q0 -223 -55.5 -314.5t-164.5 -91.5h-204zM201 117h57q59 0 81.5 70.5t22.5 220.5q0 152 -30.5 216t-98.5 64h-32v-571zM201 807h39q125 0 125 274q0 260 -103 260h-61v-534z" />
<glyph unicode="C" horiz-adv-x="546" d="M285 -14q-113 0 -171.5 59t-58.5 162v1038q0 106 59.5 172t170.5 66q106 0 160.5 -62.5t54.5 -156.5v-258h-123v237q0 117 -94 117q-59 0 -78 -32t-19 -91v-1008q0 -121 99 -120q92 0 92 120v232h123v-236q0 -106 -55.5 -172.5t-159.5 -66.5z" />
<glyph unicode="D" horiz-adv-x="563" d="M70 0v1460h211q98 0 162.5 -56t64.5 -159v-1007q0 -119 -65.5 -178.5t-170.5 -59.5h-202zM201 121h69q104 0 105 121v993q0 102 -105 102h-69v-1216z" />
<glyph unicode="E" horiz-adv-x="460" d="M70 0v1460h346v-123h-219v-506h180v-124h-180v-586h223v-121h-350z" />
<glyph unicode="F" horiz-adv-x="446" d="M70 0v1460h344v-123h-217v-508h176v-122h-176v-707h-127z" />
<glyph unicode="G" horiz-adv-x="555" d="M285 -14q-113 0 -171.5 59t-58.5 162v1038q0 106 59.5 172t170.5 66q104 0 159.5 -62.5t55.5 -156.5v-250h-123v231q0 113 -94 113q-59 0 -78 -32t-19 -89v-1010q0 -119 99 -118q92 0 92 120v430h-109v117h232v-551q0 -106 -55.5 -172.5t-159.5 -66.5z" />
<glyph unicode="H" horiz-adv-x="587" d="M70 0v1460h129v-649h190v649h131v-1460h-131v682h-190v-682h-129z" />
<glyph unicode="I" horiz-adv-x="268" d="M70 0v1460h129v-1460h-129z" />
<glyph unicode="J" d="M252 -18q-106 0 -158.5 64.5t-52.5 172.5v256h129v-248q0 -125 86 -125t86 125v1233h131v-1243q0 -109 -58.5 -172t-162.5 -63z" />
<glyph unicode="K" horiz-adv-x="567" d="M70 0v1460h129v-696l198 696h129l-161 -542l167 -918h-135l-125 754l-73 -236v-518h-129z" />
<glyph unicode="L" horiz-adv-x="448" d="M70 0v1460h127v-1339h223v-121h-350z" />
<glyph unicode="M" horiz-adv-x="702" d="M70 0v1460h143l137 -571h6l144 571h135v-1460h-123v1139h-4l-121 -496h-76l-118 492h-5v-1135h-118z" />
<glyph unicode="N" horiz-adv-x="606" d="M70 0v1460h153l193 -1014h6v1014h115v-1460h-138l-213 1126h-4v-1126h-112z" />
<glyph unicode="O" horiz-adv-x="565" d="M279 -14q-223 0 -224 247v1010q0 113 63.5 174.5t168.5 61.5q100 0 161.5 -57.5t61.5 -166.5v-1022q0 -123 -61 -185t-170 -62zM285 109q92 0 92 114v1032q0 100 -94 101q-49 0 -72 -29t-23 -67v-1039q0 -43 24 -77.5t73 -34.5z" />
<glyph unicode="P" horiz-adv-x="552" d="M70 0v1460h186q139 0 192.5 -103.5t53.5 -309.5q0 -432 -246 -433h-57v-614h-129zM199 739h53q70 0 95.5 75t25.5 237q0 59 -2 95t-8.5 77t-19.5 62.5t-37.5 35.5t-59.5 14h-47v-596z" />
<glyph unicode="Q" horiz-adv-x="565" d="M471 -123l-100 127q-37 -18 -90 -18q-225 0 -226 247v1010q0 113 64.5 174.5t169.5 61.5q100 0 161.5 -58.5t61.5 -165.5v-1022q0 -94 -37 -149l109 -127zM285 109q94 0 94 114v1032q0 100 -94 101q-51 0 -74 -29t-23 -67v-1039q0 -43 24 -77.5t73 -34.5z" />
<glyph unicode="R" horiz-adv-x="561" d="M70 0v1460h182q131 0 192.5 -96t61.5 -291q0 -141 -30 -228t-68 -118l110 -727h-133l-98 684h-88v-684h-129zM199 793h77q94 0 95 264q0 59 -3 100t-14.5 86t-36 68.5t-63.5 23.5h-55v-542z" />
<glyph unicode="S" horiz-adv-x="518" d="M264 -14q-113 0 -167 87q-52 84 -52 269v14h127q0 -135 18.5 -194.5t73.5 -59.5q86 0 86 154q0 147 -92 346l-94 197q-115 238 -115 403q0 127 53.5 202t160 75t154.5 -78t48 -277h-119q-4 127 -23.5 182.5t-64.5 55.5q-82 0 -82 -150q0 -115 107 -348l63 -131 q131 -276 131 -475q0 -123 -57.5 -197.5t-155.5 -74.5z" />
<glyph unicode="T" horiz-adv-x="512" d="M193 0v1337h-168v123h462v-123h-165v-1337h-129z" />
<glyph unicode="U" horiz-adv-x="557" d="M276 -18q-106 0 -160.5 60t-54.5 171v1247h132v-1239q0 -121 90 -121t90 129v1231h123v-1229q0 -115 -54.5 -182t-165.5 -67z" />
<glyph unicode="V" horiz-adv-x="546" d="M207 -6l-170 1466h133l111 -1114h6l104 1114h119l-158 -1466h-145z" />
<glyph unicode="W" horiz-adv-x="829" d="M188 -6l-153 1466h131l88 -1050h4l94 1050h142l96 -1048h4l84 1048h117l-144 -1466h-123l-106 1106h-4l-101 -1106h-129z" />
<glyph unicode="X" horiz-adv-x="501" d="M10 0l176 725l-178 735h133l115 -520l117 520h116l-174 -712l179 -748h-129l-119 528l-119 -528h-117z" />
<glyph unicode="Y" horiz-adv-x="538" d="M207 0v635l-176 825h137l111 -604l104 604h125l-170 -829v-631h-131z" />
<glyph unicode="Z" horiz-adv-x="438" d="M39 0v111l227 1226h-217v123h354v-96l-229 -1241h225v-123h-360z" />
<glyph unicode="[" horiz-adv-x="299" d="M78 -328v1788h196v-80h-90v-1630h90v-78h-196z" />
<glyph unicode="\" horiz-adv-x="346" d="M256 -324l-254 1784h96l258 -1784h-100z" />
<glyph unicode="]" horiz-adv-x="299" d="M25 -326v78h90v1628h-90v80h196v-1786h-196z" />
<glyph unicode="^" d="M106 477l111 496h94l101 -496h-101l-49 275l-55 -275h-101z" />
<glyph unicode="_" horiz-adv-x="593" d="M0 -268v106h594v-106h-594z" />
<glyph unicode="`" horiz-adv-x="342" d="M211 1200l-148 277h140l98 -277h-90z" />
<glyph unicode="a" horiz-adv-x="483" d="M201 -16q-158 0 -158 340q0 152 56.5 250t183.5 102h14v250q0 68 -61 67q-63 0 -64 -73v-156h-115v151q0 80 46.5 134.5t142.5 54.5q88 0 130 -53.5t42 -126.5v-666q0 -117 6 -258h-107q0 4 -3 36t-3 46h-4q-8 -47 -38.5 -72.5t-67.5 -25.5zM238 94q29 0 44 36t15 79v369 h-25q-47 0 -77.5 -60.5t-30.5 -183.5q0 -240 74 -240z" />
<glyph unicode="b" horiz-adv-x="518" d="M307 -12q-90 0 -129 82h-2v-70h-108v1460h122v-448h5q35 92 133 92q72 0 103.5 -47t31.5 -111v-782q0 -84 -40 -130t-116 -46zM274 96q66 0 66 86v719q0 88 -70 88q-80 0 -80 -112v-676q0 -43 23.5 -74t60.5 -31z" />
<glyph unicode="c" horiz-adv-x="493" d="M250 -14q-94 0 -144.5 58t-50.5 161v684q0 102 56.5 158.5t146.5 56.5t138 -55.5t48 -135.5v-153h-114v141q0 86 -74 86t-74 -84v-706q0 -98 74 -99q35 0 52.5 19.5t19.5 37t2 48.5v151h114v-166q0 -94 -51 -148t-143 -54z" />
<glyph unicode="d" horiz-adv-x="518" d="M193 -14q-137 0 -138 166v780q0 72 41 122t113 50q74 0 115 -60h2v416h125v-1460h-113l-2 82h-4q-18 -51 -60 -73.5t-79 -22.5zM248 100q80 0 80 117v682q0 94 -78 94q-70 0 -70 -90v-715q0 -88 68 -88z" />
<glyph unicode="e" horiz-adv-x="485" d="M272 -14q-217 0 -217 229v664q0 102 52.5 163.5t144.5 61.5t138 -60.5t46 -152.5v-385h-254v-244q0 -82 24.5 -120t94.5 -38q35 0 109 21l28 -107q-76 -32 -166 -32zM182 612h131v277q0 98 -65.5 98t-65.5 -96v-279z" />
<glyph unicode="f" horiz-adv-x="327" d="M98 0v981h-65v104h65v236q0 63 39 106t113 43q39 0 69 -8v-102q-12 2 -51 2q-47 0 -47 -49v-228h78v-104h-78v-981h-123z" />
<glyph unicode="g" horiz-adv-x="522" d="M221 -354q-88 0 -155 24l24 109q80 -20 125 -21q115 0 115 138v192h-4q-16 -41 -51 -62.5t-70 -21.5q-145 0 -146 180v736q0 90 41 137t115 47q90 0 123 -80h2l2 66h113v-1190q0 -125 -62.5 -189.5t-171.5 -64.5zM254 115q33 0 54.5 27.5t21.5 66.5v686q0 45 -21.5 73.5 t-58.5 28.5q-66 0 -66 -94v-696q0 -92 70 -92z" />
<glyph unicode="h" horiz-adv-x="520" d="M68 0v1460h122v-442h3q45 86 139 86q57 0 93 -36t36 -101v-967h-123v920q0 72 -62 71q-86 0 -86 -114v-877h-122z" />
<glyph unicode="i" horiz-adv-x="258" d="M68 0v1085h122v-1085h-122zM68 1243v219h122v-219h-122z" />
<glyph unicode="j" horiz-adv-x="260" d="M63 -336q-35 0 -65 6v109h31q23 0 32 10t9 41v1255h120v-1278q0 -61 -30.5 -102t-96.5 -41zM68 1243v219h125v-219h-125z" />
<glyph unicode="k" horiz-adv-x="495" d="M68 0v1460h122v-850l158 475h123l-135 -376l125 -709h-125l-94 565l-52 -139v-426h-122z" />
<glyph unicode="l" horiz-adv-x="280" d="M176 -10q-109 0 -108 114v1356h122v-1323q0 -25 27 -24q14 0 31 2v-111q-35 -14 -72 -14z" />
<glyph unicode="m" horiz-adv-x="790" d="M68 0v1085h120v-69h2q47 88 141.5 88t121.5 -88h2q45 88 145 88q57 0 93 -37t36 -104v-963h-123v920q0 72 -61 71q-80 0 -84 -102v-889h-123v920q0 72 -62 71q-86 0 -86 -114v-877h-122z" />
<glyph unicode="n" horiz-adv-x="520" d="M68 0v1085h120v-69h2q43 88 142 88q55 0 92 -36t37 -101v-967h-123v920q0 72 -62 71q-86 0 -86 -114v-877h-122z" />
<glyph unicode="o" horiz-adv-x="512" d="M252 -14q-96 0 -146.5 58t-50.5 163v688q0 98 57.5 153.5t145.5 55.5t143.5 -52.5t55.5 -146.5v-700q0 -109 -54.5 -164t-150.5 -55zM256 98q74 0 74 95v708q0 86 -74 86t-74 -82v-712q0 -37 17.5 -66t56.5 -29z" />
<glyph unicode="p" horiz-adv-x="518" d="M68 -328v1413h118v-75h4q39 94 138 94q74 0 104.5 -48t30.5 -116v-786q0 -72 -40 -120t-114 -48q-76 0 -114 57h-5v-371h-122zM270 100q70 0 70 86v715q0 88 -70 88q-80 0 -80 -112v-687q0 -90 80 -90z" />
<glyph unicode="q" horiz-adv-x="518" d="M328 -328v377h-2q-18 -31 -54 -49t-69 -18q-72 0 -110 49t-38 123v784q0 63 43 114.5t121 51.5q90 0 127 -76h2l4 59h99v-1415h-123zM250 96q78 0 78 94v689q0 115 -78 114q-70 0 -70 -88v-712q0 -97 70 -97z" />
<glyph unicode="r" horiz-adv-x="346" d="M68 0v1085h120v-69h2q14 31 44 54.5t61 23.5q12 0 33 -4v-140q-29 4 -43 4q-94 0 -95 -94v-860h-122z" />
<glyph unicode="s" horiz-adv-x="454" d="M238 -12q-113 0 -154 74q-39 71 -39 213v14h113q2 -109 17 -153t56 -44q59 0 60 94q0 80 -58 209l-110 258q-70 139 -70 246q0 86 46 144.5t130 58.5q90 0 132 -68.5t45 -214.5h-107q-10 180 -72 180q-57 0 -57 -96q0 -43 61 -186l91 -209q86 -195 86 -318 q0 -84 -42 -143t-128 -59z" />
<glyph unicode="t" horiz-adv-x="335" d="M217 -8q-55 0 -91 29.5t-36 91.5v864h-63v106h63v217h123v-217h106v-106h-106v-825q0 -41 37 -41q27 0 51 8v-113q-35 -14 -84 -14z" />
<glyph unicode="u" horiz-adv-x="520" d="M188 -18q-57 0 -93 35.5t-36 103.5v964h123v-917q0 -74 62 -74q84 0 84 115v876h125v-1085h-121v72h-2q-44 -90 -142 -90z" />
<glyph unicode="v" horiz-adv-x="456" d="M166 -4l-143 1089h127l83 -802h3l81 802h119l-143 -1089h-127z" />
<glyph unicode="w" horiz-adv-x="716" d="M156 -2l-131 1087h133l61 -768h6l78 768h123l82 -768h6l59 768h119l-127 -1087h-108l-90 813h-9l-88 -813h-114z" />
<glyph unicode="x" horiz-adv-x="497" d="M31 0l155 549l-143 536h131l82 -385l92 385h111l-142 -524l150 -561h-125l-96 399l-103 -399h-112z" />
<glyph unicode="y" horiz-adv-x="450" d="M98 -342q-29 0 -61 6l2 103q41 -4 47 -5q63 0 74 78l20 148l-162 1097h125l90 -761h5l77 761h117l-156 -1183q-16 -121 -57 -182.5t-121 -61.5z" />
<glyph unicode="z" horiz-adv-x="393" d="M35 0v94l196 883h-192v108h317v-108l-192 -866h194v-111h-323z" />
<glyph unicode="{" horiz-adv-x="319" d="M209 -328q-127 0 -127 125v695q0 90 -53 94v88q53 8 53 84v559q0 143 127 143h70v-80h-54q-35 0 -35 -51v-549q0 -113 -75 -147v-6q76 -35 75 -148v-678q0 -51 35 -51h54v-78h-70z" />
<glyph unicode="|" horiz-adv-x="434" d="M170 -322v1782h94v-1782h-94z" />
<glyph unicode="}" horiz-adv-x="319" d="M29 -328v78h53q35 0 35 51v678q0 113 76 148v6q-76 35 -76 147v549q0 51 -35 51h-53v80h69q127 0 127 -143v-559q0 -76 54 -84v-88q-53 -4 -54 -94v-695q0 -125 -127 -125h-69z" />
<glyph unicode="~" d="M133 563l-72 8q18 162 111 162q31 0 98.5 -21.5t87.5 -21.5q31 0 43 55l70 -10q-4 -68 -30.5 -112.5t-75.5 -44.5q-33 0 -102.5 22.5t-82.5 22.5q-35 -1 -47 -60z" />
<glyph unicode="&#xa1;" horiz-adv-x="278" d="M78 -295v582l16 501h88l21 -501v-582h-125zM80 946v219h119v-219h-119z" />
<glyph unicode="&#xa2;" horiz-adv-x="493" d="M209 -121v133q-76 10 -115 67.5t-39 147.5v668q0 86 42 138t112 65v131h96v-131q68 -14 103.5 -66.5t35.5 -126.5v-145h-114v141q0 86 -74 86t-74 -84v-684q0 -96 74 -96q35 0 52.5 19.5t19.5 37t2 45.5v152h114v-166q0 -166 -139 -197v-135h-96z" />
<glyph unicode="&#xa3;" horiz-adv-x="612" d="M53 0v113h70v573h-68v113h68v446q0 113 65.5 174.5t169.5 61.5q98 0 153.5 -59.5t55.5 -145.5v-166h-125v154q0 98 -92 98q-94 0 -94 -113v-450h170v-113h-170v-573h309l-18 -113h-494z" />
<glyph unicode="&#xa4;" horiz-adv-x="624" d="M123 459l-55 55l61 64q-45 59 -45 135q0 70 43 129l-61 61l55 53l59 -59q57 43 129 43q74 0 131 -39l62 62l55 -56l-61 -59q45 -63 45 -137t-45 -133l61 -60l-51 -55l-62 61q-63 -41 -131 -41q-72 0 -129 37zM311 553q70 0 111 43t41 117q0 70 -44 114.5t-106 44.5 q-70 0 -110.5 -44t-40.5 -121q0 -63 41.5 -108.5t107.5 -45.5z" />
<glyph unicode="&#xa5;" horiz-adv-x="489" d="M182 0v539h-121v110h119l-174 813h137l111 -606l104 606h125l-166 -813h115v-110h-119v-539h-131z" />
<glyph unicode="&#xa6;" d="M180 -78v713h99v-713h-99zM180 788v691h99v-691h-99z" />
<glyph unicode="&#xa7;" horiz-adv-x="561" d="M285 -18q-90 0 -154.5 64.5t-64.5 203.5v74h116v-66q0 -82 28 -128t75 -46q94 0 94 160q0 143 -96 194l-66 45q-162 96 -162 254q0 98 103 232q-96 90 -97 241q0 115 58.5 185.5t161.5 70.5q92 0 145 -64.5t53 -178.5v-82h-108v67q0 156 -97 156q-94 0 -94 -147 q0 -127 88 -187l72 -51q154 -115 154 -250q0 -139 -91 -235q106 -86 103 -254q0 -115 -62.5 -186.5t-158.5 -71.5zM317 557q61 66 61.5 160t-77.5 143l-59 41q-68 -53 -68 -158q0 -92 80 -143z" />
<glyph unicode="&#xa8;" horiz-adv-x="444" d="M76 1208v254h104v-254h-104zM262 1208v254h107v-254h-107z" />
<glyph unicode="&#xa9;" horiz-adv-x="1105" d="M557 176q-92 0 -141 52.5t-49 138.5v708q0 90 50 145.5t140 55.5q88 0 133 -53.5t45 -137.5v-237h-117v223q0 82 -59 82q-29 0 -43 -13.5t-17 -28.5t-3 -40v-686q0 -84 61 -84t61 84v217h117v-219q0 -92 -46 -149.5t-132 -57.5zM555 -16q-174 0 -287.5 103t-160 264 t-46.5 376q0 207 50.5 368.5t165 264t278.5 102.5q168 0 282.5 -107.5t160.5 -267t46 -360.5q0 -213 -48 -375t-160.5 -265t-280.5 -103zM555 70q190 0 293.5 175t103.5 482t-101 483t-296 176q-197 0 -298 -175t-101 -484t104.5 -483t294.5 -174z" />
<glyph unicode="&#xaa;" horiz-adv-x="421" d="M156 817q-41 0 -68 47t-27 142q0 84 37 139t117 55h4v127q0 31 -29 31q-31 0 -30 -35v-78h-90v74q0 53 31.5 87t93.5 34q119 0 118 -117v-360q0 -74 6 -136h-90q-6 12 -6 41q-20 -51 -67 -51zM190 901q29 0 29 39v193h-10q-51 0 -51 -119q-1 -113 32 -113zM80 670v94h235 v-94h-235z" />
<glyph unicode="&#xab;" horiz-adv-x="520" d="M193 319l-152 250l145 250l78 -47l-94 -203l100 -200zM401 326l-149 243l145 244l78 -47l-94 -197l98 -194z" />
<glyph unicode="&#xac;" horiz-adv-x="626" d="M485 395v191h-440v100h537v-291h-97z" />
<glyph unicode="&#xad;" horiz-adv-x="335" d="M41 559v113h254v-113h-254z" />
<glyph unicode="&#xae;" horiz-adv-x="667" d="M227 799v571h103q121 0 121 -166q0 -104 -52 -145l62 -260h-84l-51 243h-21v-243h-78zM332 645q-135 0 -212 124t-77 310q0 190 78 312t217 122q129 0 208 -121.5t79 -312.5q0 -186 -77 -310t-216 -124zM332 713q98 2 157.5 99t59.5 267q0 166 -63.5 267.5t-153.5 101.5 t-151.5 -100.5t-61.5 -268.5t61.5 -268t151.5 -98zM305 1108h23q41 0 41 88q0 100 -43 100h-21v-188z" />
<glyph unicode="&#xaf;" horiz-adv-x="464" d="M84 1253v113h297v-113h-297z" />
<glyph unicode="&#xb0;" horiz-adv-x="376" d="M188 1188q-59 0 -99 43t-40 104.5t40 103.5t99 42q57 0 98.5 -43t41.5 -103q0 -61 -41.5 -104t-98.5 -43zM188 1255q29 0 49.5 24t20.5 56.5t-20.5 56t-49.5 23.5q-31 0 -51 -22.5t-20 -57.5t20 -57.5t51 -22.5z" />
<glyph unicode="&#xb1;" d="M219 444v195h-170v102h170v197h96l-2 -197h172v-102h-170v-195h-96zM53 252v102h426v-102h-426z" />
<glyph unicode="&#xb2;" horiz-adv-x="368" d="M53 778v68l94 221q68 178 68 319v21q0 98 -35 98q-33 0 -33 -78v-65h-94v63q0 172 131 172q135 0 135 -196q0 -74 -16 -150.5t-32.5 -121t-49.5 -123.5l-55 -138h153v-90h-266z" />
<glyph unicode="&#xb3;" horiz-adv-x="370" d="M184 762q-135 0 -135 203v39h98v-52q0 -102 35 -102q37 0 37 151q0 139 -57 140h-43v96h47q31 0 41 33t10 108q0 129 -37 129q-33 0 -33 -98v-47h-94v53q0 182 133 182q61 0 96 -56t35 -152q0 -160 -71 -193v-4q76 -33 76 -199q-1 -231 -138 -231z" />
<glyph unicode="&#xb4;" horiz-adv-x="350" d="M76 1200l98 277h139l-147 -277h-90z" />
<glyph unicode="&#xb5;" horiz-adv-x="526" d="M59 -367v1452h123v-917q0 -74 66 -74q82 0 82 123v868h123v-878q0 -55 28 -68v-143q-92 6 -104 96q-35 -109 -121 -108q-78 0 -96 90l-6 -2l28 -402z" />
<glyph unicode="&#xb6;" horiz-adv-x="628" d="M254 -98v635q-201 76 -201 430q0 240 67.5 366.5t235.5 126.5h232v-80h-64v-1478h-86v1478h-98v-1478h-86z" />
<glyph unicode="&#xb7;" horiz-adv-x="256" d="M70 580v221h116v-221h-116z" />
<glyph unicode="&#x22c5;" horiz-adv-x="256" d="M70 580v221h116v-221h-116z" />
<glyph unicode="&#xb8;" horiz-adv-x="344" d="M139 -324q-59 0 -112 15v76q59 -12 98 -13q61 0 61 47q0 37 -73 43l-39 2l37 183h67l-26 -119q141 -8 141 -109q0 -59 -45.5 -92t-108.5 -33z" />
<glyph unicode="&#xb9;" horiz-adv-x="337" d="M129 778v713l-47 -18l-21 71l99 58h65v-824h-96z" />
<glyph unicode="&#xba;" horiz-adv-x="393" d="M194.5 817q-63.5 0 -97.5 35t-34 96v367q0 57 38 91t98 34q57 0 94 -33t37 -88v-371q0 -63 -36 -97t-99.5 -34zM195 899q39 0 38 41v377q0 39 -38 39q-35 0 -35 -39v-377q0 -41 35 -41zM80 670v92h237v-92h-237z" />
<glyph unicode="&#xbb;" horiz-adv-x="520" d="M125 328l-78 47l94 196l-100 195l80 47l147 -242zM336 322l-78 47l94 202l-102 201l80 47l149 -248z" />
<glyph unicode="&#xbc;" horiz-adv-x="833" d="M139 647v713l-47 -19l-20 72l98 57h66v-823h-97zM639 0v207h-168v80l139 534h99l-146 -526h76v166l88 78v-244h45v-88h-45v-207h-88zM178 0l373 1460h78l-369 -1460h-82z" />
<glyph unicode="&#xbd;" horiz-adv-x="833" d="M139 647v713l-47 -19l-20 72l98 57h66v-823h-97zM492 0v68l94 221q68 178 67 319v21q0 98 -35 98q-33 0 -32 -78v-65h-94v63q0 172 131 172q135 0 135 -196q0 -74 -16.5 -151t-33 -121t-49.5 -124l-55 -137h154v-90h-266zM147 0l373 1460h78l-369 -1460h-82z" />
<glyph unicode="&#xbe;" horiz-adv-x="833" d="M643 0v207h-168v80l139 534h99l-146 -526h76v166l88 78v-244h45v-88h-45v-207h-88zM166 631q-135 0 -135 203v38h98v-51q0 -102 35 -102q37 0 37 151q0 139 -58 140h-43v96h47q29 0 40.5 32.5t11.5 108.5q0 129 -37 129q-33 0 -33 -98v-47h-94v53q0 182 133 182 q61 0 96 -56t35 -153q0 -160 -72 -192v-4q76 -33 76 -199q0 -231 -137 -231zM188 0l373 1460h78l-369 -1460h-82z" />
<glyph unicode="&#xbf;" horiz-adv-x="489" d="M246 -319q-186 0 -187 354q0 78 17.5 157.5t28.5 110.5l42 111q57 135 58 264v113h112v-72q0 -186 -67 -354q-66 -170 -66 -326v-23q0 -49 1 -75.5t7.5 -65.5t21.5 -57.5t42 -18.5q68 0 68 170v131h110v-114q0 -305 -188 -305zM199 942v219h118v-219h-118z" />
<glyph unicode="&#xc0;" horiz-adv-x="626" d="M37 0l180 1462h193l180 -1462h-133l-54 455h-192l-55 -455h-119zM225 573h164l-80 715h-4zM279 1569l-148 276h139l99 -276h-90z" />
<glyph unicode="&#xc1;" horiz-adv-x="626" d="M37 0l180 1462h193l180 -1462h-133l-54 455h-192l-55 -455h-119zM225 573h164l-80 715h-4zM262 1569l98 276h140l-148 -276h-90z" />
<glyph unicode="&#xc2;" horiz-adv-x="626" d="M37 0l180 1462h193l180 -1462h-133l-54 455h-192l-55 -455h-119zM225 573h164l-80 715h-4zM154 1569l114 276h92l111 -276h-104l-56 160l-57 -160h-100z" />
<glyph unicode="&#xc3;" horiz-adv-x="626" d="M37 0l180 1462h193l180 -1462h-133l-54 455h-192l-55 -455h-119zM225 573h164l-80 715h-4zM203 1593l-72 17q18 150 107 149q27 0 74.5 -21.5t66.5 -21.5q29 0 41 51l72 -14q-4 -63 -34 -106t-75 -43q-27 0 -77 21.5t-60 21.5q-18 0 -26.5 -9.5t-16.5 -44.5z" />
<glyph unicode="&#xc4;" horiz-adv-x="626" d="M37 0l180 1462h193l180 -1462h-133l-54 455h-192l-55 -455h-119zM225 573h164l-80 715h-4zM166 1577v254h104v-254h-104zM352 1577v254h107v-254h-107z" />
<glyph unicode="&#xc5;" horiz-adv-x="626" d="M37 0l180 1462h193l180 -1462h-133l-54 455h-192l-55 -455h-119zM225 573h164l-80 715h-4zM313 1565q-70 0 -107.5 42t-37.5 101q0 63 41 107.5t106.5 44.5t103.5 -41t38 -103q0 -66 -41.5 -108.5t-102.5 -42.5zM313 1630q72 0 72 82t-72 82q-70 0 -69 -84 q0 -35 19 -57.5t50 -22.5z" />
<glyph unicode="&#xc6;" horiz-adv-x="774" d="M25 0l260 1460h444v-123h-219v-508h180v-122h-180v-586h223v-121h-352v510h-139l-86 -510h-131zM258 612h123v723h-4z" />
<glyph unicode="&#xc7;" horiz-adv-x="546" d="M260 -324q-59 0 -113 15v76q57 -12 99 -13q61 0 61 47q0 37 -74 43l-38 2l28 146q-84 14 -126 70.5t-42 144.5v1038q0 106 59.5 172t170.5 66q106 0 160.5 -62.5t54.5 -156.5v-258h-123v237q0 117 -94 117q-59 0 -78 -32t-19 -91v-1008q0 -121 99 -120q92 0 92 120v232 h123v-236q0 -104 -54.5 -170.5t-156.5 -68.5l-17 -76q141 -8 142 -109q0 -59 -45.5 -92t-108.5 -33z" />
<glyph unicode="&#xc8;" horiz-adv-x="460" d="M70 0v1460h346v-123h-219v-506h180v-124h-180v-586h223v-121h-350zM256 1569l-147 276h139l98 -276h-90z" />
<glyph unicode="&#xc9;" horiz-adv-x="460" d="M180 1569l99 276h139l-148 -276h-90zM70 0v1460h346v-123h-219v-506h180v-124h-180v-586h223v-121h-350z" />
<glyph unicode="&#xca;" horiz-adv-x="460" d="M86 1569l115 276h92l110 -276h-104l-55 160l-58 -160h-100zM70 0v1460h346v-123h-219v-506h180v-124h-180v-586h223v-121h-350z" />
<glyph unicode="&#xcb;" horiz-adv-x="460" d="M98 1577v254h105v-254h-105zM285 1577v254h106v-254h-106zM70 0v1460h346v-123h-219v-506h180v-124h-180v-586h223v-121h-350z" />
<glyph unicode="&#xcc;" horiz-adv-x="268" d="M70 0v1460h129v-1460h-129zM90 1569l-147 276h139l98 -276h-90z" />
<glyph unicode="&#xcd;" horiz-adv-x="268" d="M70 0v1460h129v-1460h-129zM86 1569l98 276h140l-148 -276h-90z" />
<glyph unicode="&#xce;" horiz-adv-x="268" d="M70 0v1460h129v-1460h-129zM-23 1569l115 276h92l111 -276h-105l-55 160l-57 -160h-101z" />
<glyph unicode="&#xcf;" horiz-adv-x="268" d="M70 0v1460h129v-1460h-129zM-10 1577v254h104v-254h-104zM176 1577v254h107v-254h-107z" />
<glyph unicode="&#xd0;" horiz-adv-x="579" d="M86 0v709h-51v112h51v639h219q98 0 158.5 -55t60.5 -160v-1007q0 -119 -61.5 -178.5t-165.5 -59.5h-211zM217 121h70q104 0 104 121v993q0 102 -104 102h-70v-516h105v-112h-105v-588z" />
<glyph unicode="&#xd1;" horiz-adv-x="606" d="M70 0v1460h153l193 -1014h6v1014h115v-1460h-138l-213 1126h-4v-1126h-112zM193 1593l-72 17q18 150 106 149q27 0 75 -21.5t67 -21.5q29 0 41 51l71 -14q-4 -63 -33.5 -106t-74.5 -43q-27 0 -77 21.5t-60 21.5q-18 0 -26.5 -9.5t-16.5 -44.5z" />
<glyph unicode="&#xd2;" horiz-adv-x="565" d="M279 -14q-223 0 -224 247v1010q0 113 63.5 174.5t168.5 61.5q100 0 161.5 -57.5t61.5 -166.5v-1022q0 -123 -61 -185t-170 -62zM285 109q92 0 92 114v1032q0 100 -94 101q-49 0 -72 -29t-23 -67v-1039q0 -43 24 -77.5t73 -34.5zM238 1569l-148 276h139l99 -276h-90z" />
<glyph unicode="&#xd3;" horiz-adv-x="565" d="M229 1569l99 276h139l-148 -276h-90zM279 -14q-223 0 -224 247v1010q0 113 63.5 174.5t168.5 61.5q100 0 161.5 -57.5t61.5 -166.5v-1022q0 -123 -61 -185t-170 -62zM285 109q92 0 92 114v1032q0 100 -94 101q-49 0 -72 -29t-23 -67v-1039q0 -43 24 -77.5t73 -34.5z" />
<glyph unicode="&#xd4;" horiz-adv-x="565" d="M123 1569l115 276h92l110 -276h-104l-55 160l-58 -160h-100zM279 -14q-223 0 -224 247v1010q0 113 63.5 174.5t168.5 61.5q100 0 161.5 -57.5t61.5 -166.5v-1022q0 -123 -61 -185t-170 -62zM285 109q92 0 92 114v1032q0 100 -94 101q-49 0 -72 -29t-23 -67v-1039 q0 -43 24 -77.5t73 -34.5z" />
<glyph unicode="&#xd5;" horiz-adv-x="565" d="M279 -14q-223 0 -224 247v1010q0 113 63.5 174.5t168.5 61.5q100 0 161.5 -57.5t61.5 -166.5v-1022q0 -123 -61 -185t-170 -62zM285 109q92 0 92 114v1032q0 100 -94 101q-49 0 -72 -29t-23 -67v-1039q0 -43 24 -77.5t73 -34.5zM172 1593l-72 17q18 150 107 149 q27 0 75 -21.5t66 -21.5q29 0 41 51l72 -14q-4 -63 -34 -106t-75 -43q-27 0 -77 21.5t-60 21.5q-18 0 -26.5 -9.5t-16.5 -44.5z" />
<glyph unicode="&#xd6;" horiz-adv-x="565" d="M135 1577v254h105v-254h-105zM322 1577v254h106v-254h-106zM279 -14q-223 0 -224 247v1010q0 113 63.5 174.5t168.5 61.5q100 0 161.5 -57.5t61.5 -166.5v-1022q0 -123 -61 -185t-170 -62zM285 109q92 0 92 114v1032q0 100 -94 101q-49 0 -72 -29t-23 -67v-1039 q0 -43 24 -77.5t73 -34.5z" />
<glyph unicode="&#xd7;" d="M104 430l-65 70l160 159l-160 162l65 70l162 -162l160 162l68 -68l-162 -159l162 -164l-68 -68l-160 162z" />
<glyph unicode="&#xd8;" horiz-adv-x="565" d="M166 -76l-78 15l23 110q-55 66 -56 184v1010q0 113 63.5 174.5t168.5 61.5q59 0 108 -23l19 86l78 -10l-27 -129q45 -57 45 -148v-1022q0 -123 -61.5 -185t-169.5 -62q-49 0 -99 14zM188 1260v-828l179 877q-23 47 -84 47q-49 0 -72 -28.5t-23 -67.5zM285 109 q92 0 92 114v742l-166 -820v-2q25 -34 74 -34z" />
<glyph unicode="&#xd9;" horiz-adv-x="557" d="M276 -18q-106 0 -160.5 60t-54.5 171v1247h132v-1239q0 -121 90 -121t90 129v1231h123v-1229q0 -115 -54.5 -182t-165.5 -67zM238 1569l-148 276h139l99 -276h-90z" />
<glyph unicode="&#xda;" horiz-adv-x="557" d="M231 1569l99 276h139l-147 -276h-91zM276 -18q-106 0 -160.5 60t-54.5 171v1247h132v-1239q0 -121 90 -121t90 129v1231h123v-1229q0 -115 -54.5 -182t-165.5 -67z" />
<glyph unicode="&#xdb;" horiz-adv-x="557" d="M119 1569l114 276h93l110 -276h-104l-56 160l-57 -160h-100zM276 -18q-106 0 -160.5 60t-54.5 171v1247h132v-1239q0 -121 90 -121t90 129v1231h123v-1229q0 -115 -54.5 -182t-165.5 -67z" />
<glyph unicode="&#xdc;" horiz-adv-x="557" d="M131 1577v254h105v-254h-105zM317 1577v254h107v-254h-107zM276 -18q-106 0 -160.5 60t-54.5 171v1247h132v-1239q0 -121 90 -121t90 129v1231h123v-1229q0 -115 -54.5 -182t-165.5 -67z" />
<glyph unicode="&#xdd;" horiz-adv-x="538" d="M207 0v635l-176 825h137l111 -604l104 604h125l-170 -829v-631h-131zM215 1569l98 276h140l-148 -276h-90z" />
<glyph unicode="&#xde;" horiz-adv-x="552" d="M70 0v1460h129v-301h57q139 0 192.5 -102.5t53.5 -308.5q0 -434 -246 -435h-57v-313h-129zM199 436h53q70 0 95.5 75t25.5 237q0 76 -3 117.5t-14.5 85.5t-39 63.5t-70.5 19.5h-47v-598z" />
<glyph unicode="&#xdf;" horiz-adv-x="583" d="M367 -8q-41 0 -76 12l2 96l41 -2q37 0 56.5 36t21.5 67.5t2 87.5q0 264 -95 413v93h17q66 238 65 370q0 190 -69 191q-76 0 -76 -182v-1174h-123v981h-65v104h65v91q0 139 52.5 215.5t152.5 76.5q186 0 186 -284q0 -203 -90 -428v-2q104 -223 103 -451q0 -311 -170 -311z " />
<glyph unicode="&#xe0;" horiz-adv-x="483" d="M201 -16q-158 0 -158 340q0 152 56.5 250t183.5 102h14v250q0 68 -61 67q-63 0 -64 -73v-156h-115v151q0 80 46.5 134.5t142.5 54.5q88 0 130 -53.5t42 -126.5v-666q0 -117 6 -258h-107q0 4 -3 36t-3 46h-4q-8 -47 -38.5 -72.5t-67.5 -25.5zM238 94q29 0 44 36t15 79v369 h-25q-47 0 -77.5 -60.5t-30.5 -183.5q0 -240 74 -240zM215 1200l-147 277h139l98 -277h-90z" />
<glyph unicode="&#xe1;" horiz-adv-x="483" d="M201 -16q-158 0 -158 340q0 152 56.5 250t183.5 102h14v250q0 68 -61 67q-63 0 -64 -73v-156h-115v151q0 80 46.5 134.5t142.5 54.5q88 0 130 -53.5t42 -126.5v-666q0 -117 6 -258h-107q0 4 -3 36t-3 46h-4q-8 -47 -38.5 -72.5t-67.5 -25.5zM238 94q29 0 44 36t15 79v369 h-25q-47 0 -77.5 -60.5t-30.5 -183.5q0 -240 74 -240zM180 1200l99 277h139l-148 -277h-90z" />
<glyph unicode="&#xe2;" horiz-adv-x="483" d="M201 -16q-158 0 -158 340q0 152 56.5 250t183.5 102h14v250q0 68 -61 67q-63 0 -64 -73v-156h-115v151q0 80 46.5 134.5t142.5 54.5q88 0 130 -53.5t42 -126.5v-666q0 -117 6 -258h-107q0 4 -3 36t-3 46h-4q-8 -47 -38.5 -72.5t-67.5 -25.5zM238 94q29 0 44 36t15 79v369 h-25q-47 0 -77.5 -60.5t-30.5 -183.5q0 -240 74 -240zM82 1200l115 277h92l110 -277h-104l-55 160l-58 -160h-100z" />
<glyph unicode="&#xe3;" horiz-adv-x="483" d="M201 -16q-158 0 -158 340q0 152 56.5 250t183.5 102h14v250q0 68 -61 67q-63 0 -64 -73v-156h-115v151q0 80 46.5 134.5t142.5 54.5q88 0 130 -53.5t42 -126.5v-666q0 -117 6 -258h-107q0 4 -3 36t-3 46h-4q-8 -47 -38.5 -72.5t-67.5 -25.5zM238 94q29 0 44 36t15 79v369 h-25q-47 0 -77.5 -60.5t-30.5 -183.5q0 -240 74 -240zM133 1225l-72 16q18 150 107 150q27 0 75 -21.5t66 -21.5q29 0 41 51l72 -15q-4 -63 -34 -106t-75 -43q-27 0 -77 21.5t-60 21.5q-18 0 -26.5 -9t-16.5 -44z" />
<glyph unicode="&#xe4;" horiz-adv-x="483" d="M201 -16q-158 0 -158 340q0 152 56.5 250t183.5 102h14v250q0 68 -61 67q-63 0 -64 -73v-156h-115v151q0 80 46.5 134.5t142.5 54.5q88 0 130 -53.5t42 -126.5v-666q0 -117 6 -258h-107q0 4 -3 36t-3 46h-4q-8 -47 -38.5 -72.5t-67.5 -25.5zM238 94q29 0 44 36t15 79v369 h-25q-47 0 -77.5 -60.5t-30.5 -183.5q0 -240 74 -240zM94 1208v254h105v-254h-105zM281 1208v254h106v-254h-106z" />
<glyph unicode="&#xe5;" horiz-adv-x="483" d="M201 -16q-158 0 -158 340q0 152 56.5 250t183.5 102h14v250q0 68 -61 67q-63 0 -64 -73v-156h-115v151q0 80 46.5 134.5t142.5 54.5q88 0 130 -53.5t42 -126.5v-666q0 -117 6 -258h-107q0 4 -3 36t-3 46h-4q-8 -47 -38.5 -72.5t-67.5 -25.5zM238 94q29 0 44 36t15 79v369 h-25q-47 0 -77.5 -60.5t-30.5 -183.5q0 -240 74 -240zM240 1196q-70 0 -108 42t-38 101q0 63 41 107.5t106.5 44.5t103.5 -41t38 -102q0 -66 -41 -109t-102 -43zM240 1262q72 0 71.5 81.5t-71.5 81.5q-70 0 -70 -84q0 -35 19.5 -57t50.5 -22z" />
<glyph unicode="&#xe6;" horiz-adv-x="727" d="M201 -18q-72 0 -115 85t-43 257q0 152 56.5 250t183.5 102h14v250q0 68 -61 67q-63 0 -64 -73v-156h-115v151q0 80 46.5 134.5t142.5 54.5q74 0 121 -47q51 47 129 47q88 0 135 -59.5t47 -151.5v-387h-256v-244q0 -80 24.5 -119t96.5 -39q35 0 108 21l29 -107 q-74 -33 -166 -32q-121 0 -176 86q-43 -90 -137 -90zM238 94q59 0 59 101v383h-25q-47 0 -77.5 -60.5t-30.5 -183.5q0 -240 74 -240zM422 612h133v277q0 98 -66 98q-68 0 -67 -96v-279z" />
<glyph unicode="&#xe7;" horiz-adv-x="493" d="M258 -324q-59 0 -113 15v76q59 -12 99 -13q61 0 61 47q0 37 -74 43l-38 2l28 142q-166 18 -166 217v684q0 102 56.5 158.5t146.5 56.5t138 -55.5t48 -135.5v-153h-114v141q0 86 -74 86t-74 -84v-706q0 -98 74 -99q35 0 52.5 19.5t19.5 37t2 48.5v151h114v-166 q0 -178 -157 -200l-17 -78q141 -8 142 -109q0 -59 -45.5 -92t-108.5 -33z" />
<glyph unicode="&#xe8;" horiz-adv-x="485" d="M272 -14q-217 0 -217 229v664q0 102 52.5 163.5t144.5 61.5t138 -60.5t46 -152.5v-385h-254v-244q0 -82 24.5 -120t94.5 -38q35 0 109 21l28 -107q-76 -32 -166 -32zM182 612h131v277q0 98 -65.5 98t-65.5 -96v-279zM211 1200l-148 277h140l98 -277h-90z" />
<glyph unicode="&#xe9;" horiz-adv-x="485" d="M199 1200l98 277h139l-147 -277h-90zM272 -14q-217 0 -217 229v664q0 102 52.5 163.5t144.5 61.5t138 -60.5t46 -152.5v-385h-254v-244q0 -82 24.5 -120t94.5 -38q35 0 109 21l28 -107q-76 -32 -166 -32zM182 612h131v277q0 98 -65.5 98t-65.5 -96v-279z" />
<glyph unicode="&#xea;" horiz-adv-x="485" d="M86 1200l115 277h92l110 -277h-104l-55 160l-58 -160h-100zM272 -14q-217 0 -217 229v664q0 102 52.5 163.5t144.5 61.5t138 -60.5t46 -152.5v-385h-254v-244q0 -82 24.5 -120t94.5 -38q35 0 109 21l28 -107q-76 -32 -166 -32zM182 612h131v277q0 98 -65.5 98t-65.5 -96 v-279z" />
<glyph unicode="&#xeb;" horiz-adv-x="485" d="M106 1208v254h105v-254h-105zM293 1208v254h106v-254h-106zM272 -14q-217 0 -217 229v664q0 102 52.5 163.5t144.5 61.5t138 -60.5t46 -152.5v-385h-254v-244q0 -82 24.5 -120t94.5 -38q35 0 109 21l28 -107q-76 -32 -166 -32zM182 612h131v277q0 98 -65.5 98t-65.5 -96 v-279z" />
<glyph unicode="&#xec;" horiz-adv-x="258" d="M68 0v1085h122v-1085h-122zM76 1200l-148 277h140l98 -277h-90z" />
<glyph unicode="&#xed;" horiz-adv-x="258" d="M88 1200l98 277h140l-148 -277h-90zM68 0v1085h122v-1085h-122z" />
<glyph unicode="&#xee;" horiz-adv-x="258" d="M-29 1200l115 277h92l111 -277h-105l-55 160l-57 -160h-101zM68 0v1085h122v-1085h-122z" />
<glyph unicode="&#xef;" horiz-adv-x="258" d="M-16 1208v254h104v-254h-104zM170 1208v254h106v-254h-106zM68 0v1085h122v-1085h-122z" />
<glyph unicode="&#xf0;" horiz-adv-x="509" d="M250 -14q-96 0 -145.5 58t-49.5 163v688q0 94 50.5 147.5t132.5 59.5h12l-66 123l-104 -23l-37 84l102 21l-71 141l131 27l67 -142l119 29l35 -86l-115 -27l119 -245q25 -53 25 -113v-686q0 -109 -54.5 -164t-150.5 -55zM254 98q74 0 74 95v708q0 86 -74 86 q-39 0 -56.5 -24.5t-17.5 -57.5v-712q0 -35 18.5 -65t55.5 -30z" />
<glyph unicode="&#xf1;" horiz-adv-x="520" d="M68 0v1085h120v-69h2q43 88 142 88q55 0 92 -36t37 -101v-967h-123v920q0 72 -62 71q-86 0 -86 -114v-877h-122zM154 1225l-72 16q18 150 106 150q27 0 75 -21.5t67 -21.5q29 0 41 51l71 -15q-4 -63 -33.5 -106t-74.5 -43q-27 0 -77 21.5t-60 21.5q-18 0 -26.5 -9 t-16.5 -44z" />
<glyph unicode="&#xf2;" horiz-adv-x="512" d="M252 -14q-96 0 -146.5 58t-50.5 163v688q0 98 57.5 153.5t145.5 55.5t143.5 -52.5t55.5 -146.5v-700q0 -109 -54.5 -164t-150.5 -55zM256 98q74 0 74 95v708q0 86 -74 86t-74 -82v-712q0 -37 17.5 -66t56.5 -29zM209 1200l-148 277h140l98 -277h-90z" />
<glyph unicode="&#xf3;" horiz-adv-x="512" d="M203 1200l98 277h139l-147 -277h-90zM252 -14q-96 0 -146.5 58t-50.5 163v688q0 98 57.5 153.5t145.5 55.5t143.5 -52.5t55.5 -146.5v-700q0 -109 -54.5 -164t-150.5 -55zM256 98q74 0 74 95v708q0 86 -74 86t-74 -82v-712q0 -37 17.5 -66t56.5 -29z" />
<glyph unicode="&#xf4;" horiz-adv-x="512" d="M96 1200l115 277h92l111 -277h-105l-55 160l-57 -160h-101zM252 -14q-96 0 -146.5 58t-50.5 163v688q0 98 57.5 153.5t145.5 55.5t143.5 -52.5t55.5 -146.5v-700q0 -109 -54.5 -164t-150.5 -55zM256 98q74 0 74 95v708q0 86 -74 86t-74 -82v-712q0 -37 17.5 -66t56.5 -29 z" />
<glyph unicode="&#xf5;" horiz-adv-x="512" d="M252 -14q-96 0 -146.5 58t-50.5 163v688q0 98 57.5 153.5t145.5 55.5t143.5 -52.5t55.5 -146.5v-700q0 -109 -54.5 -164t-150.5 -55zM256 98q74 0 74 95v708q0 86 -74 86t-74 -82v-712q0 -37 17.5 -66t56.5 -29zM147 1225l-71 16q18 150 106 150q27 0 75 -21.5t67 -21.5 q29 0 41 51l71 -15q-4 -63 -33.5 -106t-74.5 -43q-27 0 -77 21.5t-61 21.5q-18 0 -26.5 -9t-16.5 -44z" />
<glyph unicode="&#xf6;" horiz-adv-x="512" d="M109 1208v254h104v-254h-104zM295 1208v254h106v-254h-106zM252 -14q-96 0 -146.5 58t-50.5 163v688q0 98 57.5 153.5t145.5 55.5t143.5 -52.5t55.5 -146.5v-700q0 -109 -54.5 -164t-150.5 -55zM256 98q74 0 74 95v708q0 86 -74 86t-74 -82v-712q0 -37 17.5 -66t56.5 -29 z" />
<glyph unicode="&#xf7;" d="M217 330v184h98v-184h-98zM57 604v105h418v-105h-418zM217 791v182h98v-182h-98z" />
<glyph unicode="&#xf8;" horiz-adv-x="512" d="M160 -70l-66 13l21 90q-59 57 -60 174v688q0 98 57.5 153.5t145.5 55.5q53 0 92 -19l17 66l63 -10l-22 -97q49 -53 49 -139v-700q0 -109 -54.5 -164t-150.5 -55q-43 0 -78 12zM182 905v-571l137 612q-16 41 -63 41q-74 0 -74 -82zM256 98q74 0 74 95v497l-127 -567 q18 -25 53 -25z" />
<glyph unicode="&#xf9;" horiz-adv-x="520" d="M188 -18q-57 0 -93 35.5t-36 103.5v964h123v-917q0 -74 62 -74q84 0 84 115v876h125v-1085h-121v72h-2q-44 -90 -142 -90zM211 1200l-148 277h140l98 -277h-90z" />
<glyph unicode="&#xfa;" horiz-adv-x="520" d="M199 1200l98 277h139l-147 -277h-90zM188 -18q-57 0 -93 35.5t-36 103.5v964h123v-917q0 -74 62 -74q84 0 84 115v876h125v-1085h-121v72h-2q-44 -90 -142 -90z" />
<glyph unicode="&#xfb;" horiz-adv-x="520" d="M100 1200l115 277h92l111 -277h-105l-55 160l-57 -160h-101zM188 -18q-57 0 -93 35.5t-36 103.5v964h123v-917q0 -74 62 -74q84 0 84 115v876h125v-1085h-121v72h-2q-44 -90 -142 -90z" />
<glyph unicode="&#xfc;" horiz-adv-x="520" d="M113 1208v254h104v-254h-104zM299 1208v254h107v-254h-107zM188 -18q-57 0 -93 35.5t-36 103.5v964h123v-917q0 -74 62 -74q84 0 84 115v876h125v-1085h-121v72h-2q-44 -90 -142 -90z" />
<glyph unicode="&#xfd;" horiz-adv-x="450" d="M98 -342q-29 0 -61 6l2 103q41 -4 47 -5q63 0 74 78l20 148l-162 1097h125l90 -761h5l77 761h117l-156 -1183q-16 -121 -57 -182.5t-121 -61.5zM184 1200l99 277h139l-148 -277h-90z" />
<glyph unicode="&#xfe;" horiz-adv-x="518" d="M68 -328v1788h122v-444h3q39 88 133 88q74 0 105.5 -49t31.5 -117v-784q0 -72 -41 -120t-115 -48q-70 0 -112 55h-5v-369h-122zM270 100q68 0 68 86v719q0 88 -68 88q-39 0 -59.5 -40t-20.5 -93v-670q0 -90 80 -90z" />
<glyph unicode="&#xff;" horiz-adv-x="450" d="M98 -342q-29 0 -61 6l2 103q41 -4 47 -5q63 0 74 78l20 148l-162 1097h125l90 -761h5l77 761h117l-156 -1183q-16 -121 -57 -182.5t-121 -61.5zM82 1208v254h104v-254h-104zM268 1208v254h107v-254h-107z" />
<glyph unicode="&#x152;" horiz-adv-x="776" d="M256 -12q-111 0 -156 62.5t-45 187.5v1003q0 115 58.5 175.5t160.5 60.5q68 0 109 -35v18h348v-123h-219v-506h180v-124h-180v-586h223v-121h-352v37q-49 -49 -127 -49zM285 111q94 0 94 116v1026q0 100 -94 101q-51 0 -74 -29t-23 -68v-1034q0 -43 24 -77.5t73 -34.5z " />
<glyph unicode="&#x153;" horiz-adv-x="759" d="M252 -14q-96 0 -146.5 58t-50.5 163v688q0 98 57.5 153.5t145.5 55.5q76 0 137 -57q53 57 131 57q90 0 136.5 -60.5t46.5 -152.5v-385h-252v-262q0 -72 25.5 -106t92.5 -34q35 0 109 21l29 -107q-76 -33 -166 -32.5t-154 59.5q-55 -59 -141 -59zM256 98q74 0 74 95v708 q0 86 -74 86t-74 -82v-712q0 -37 17.5 -66t56.5 -29zM457 612h131v277q0 98 -66 98q-61 0 -65 -82v-293z" />
<glyph unicode="&#x178;" horiz-adv-x="538" d="M207 0v635l-176 825h137l111 -604l104 604h125l-170 -829v-631h-131zM123 1577v254h104v-254h-104zM309 1577v254h107v-254h-107z" />
<glyph unicode="&#x2c6;" horiz-adv-x="419" d="M51 1200l115 277h92l111 -277h-105l-55 160l-57 -160h-101z" />
<glyph unicode="&#x2dc;" horiz-adv-x="514" d="M150 1225l-72 16q18 150 106 150q27 0 75 -21.5t67 -21.5q29 0 41 51l71 -15q-4 -63 -33.5 -106t-74.5 -43q-27 0 -77 21.5t-60 21.5q-18 0 -26.5 -9t-16.5 -44z" />
<glyph unicode="&#x2000;" horiz-adv-x="929" />
<glyph unicode="&#x2001;" horiz-adv-x="1859" />
<glyph unicode="&#x2002;" horiz-adv-x="929" />
<glyph unicode="&#x2003;" horiz-adv-x="1859" />
<glyph unicode="&#x2004;" horiz-adv-x="618" />
<glyph unicode="&#x2005;" horiz-adv-x="464" />
<glyph unicode="&#x2006;" horiz-adv-x="309" />
<glyph unicode="&#x2007;" horiz-adv-x="309" />
<glyph unicode="&#x2008;" horiz-adv-x="231" />
<glyph unicode="&#x2009;" horiz-adv-x="370" />
<glyph unicode="&#x200a;" horiz-adv-x="102" />
<glyph unicode="&#x2010;" horiz-adv-x="335" d="M41 559v113h254v-113h-254z" />
<glyph unicode="&#x2011;" horiz-adv-x="335" d="M41 559v113h254v-113h-254z" />
<glyph unicode="&#x2012;" horiz-adv-x="335" d="M41 559v113h254v-113h-254z" />
<glyph unicode="&#x2013;" horiz-adv-x="530" d="M0 569v105h530v-105h-530z" />
<glyph unicode="&#x2014;" horiz-adv-x="890" d="M0 569v105h891v-105h-891z" />
<glyph unicode="&#x2018;" horiz-adv-x="258" d="M70 1063v201l47 202h69l-34 -190h34v-213h-116z" />
<glyph unicode="&#x2019;" horiz-adv-x="258" d="M74 1061l32 192h-34v211h118v-200l-47 -203h-69z" />
<glyph unicode="&#x201a;" horiz-adv-x="258" d="M74 -184l32 192h-34v211h118v-201l-47 -202h-69z" />
<glyph unicode="&#x201c;" horiz-adv-x="481" d="M70 1063v201l47 202h69l-34 -190h34v-213h-116zM291 1063v201l47 202h70l-33 -190h35v-213h-119z" />
<glyph unicode="&#x201d;" horiz-adv-x="481" d="M74 1061l32 192h-34v211h118v-200l-47 -203h-69zM295 1061l33 192h-35v211h119v-200l-47 -203h-70z" />
<glyph unicode="&#x201e;" horiz-adv-x="481" d="M74 -184l32 192h-34v211h118v-201l-47 -202h-69zM295 -184l33 192h-35v211h119v-201l-47 -202h-70z" />
<glyph unicode="&#x2022;" horiz-adv-x="651" d="M328 461q-102 0 -174 72.5t-72 175.5q0 100 71.5 170.5t174.5 70.5q100 0 170.5 -70.5t70.5 -170.5q0 -102 -70.5 -175t-170.5 -73z" />
<glyph unicode="&#x2026;" horiz-adv-x="763" d="M70 0v219h116v-219h-116zM324 0v219h116v-219h-116zM578 0v219h116v-219h-116z" />
<glyph unicode="&#x202f;" horiz-adv-x="370" />
<glyph unicode="&#x2039;" horiz-adv-x="311" d="M193 319l-152 250l145 250l78 -47l-94 -203l100 -200z" />
<glyph unicode="&#x203a;" horiz-adv-x="311" d="M127 322l-78 47l94 202l-102 201l80 47l149 -248z" />
<glyph unicode="&#x205f;" horiz-adv-x="464" />
<glyph unicode="&#x20ac;" horiz-adv-x="589" d="M330 -14q-113 0 -170.5 59t-57.5 162v360h-61v97h61v151h-61v98h61v332q0 106 59.5 172t170.5 66q104 0 157.5 -62.5t53.5 -156.5v-240h-121v219q0 117 -92 117q-43 0 -65.5 -19.5t-27 -42t-4.5 -61.5v-324h177v-98h-177v-151h177v-97h-177v-338q0 -121 97 -120 q92 0 92 120v215h121v-219q0 -106 -54.5 -172.5t-158.5 -66.5z" />
<glyph unicode="&#x2122;" horiz-adv-x="653" d="M297 807v653h104l48 -270l49 270h100v-653h-76v483l-43 -235h-63l-45 235v-483h-74zM102 807v582h-71v71h223v-71h-70v-582h-82z" />
<glyph unicode="&#xe000;" horiz-adv-x="1085" d="M0 1085h1085v-1085h-1085v1085z" />
<glyph unicode="&#xe38c;" horiz-adv-x="581" d="M389 0v1085h123v-1085h-123zM389 1243v219h123v-219h-123zM96 0v981h-65v104h65v236q0 63 39 106t113 43q39 0 69 -8v-102q-12 2 -51 2q-47 0 -47 -49v-228h78v-104h-78v-981h-123z" />
<glyph unicode="&#xfb01;" horiz-adv-x="581" d="M389 0v1085h123v-1085h-123zM389 1243v219h123v-219h-123zM96 0v981h-65v104h65v236q0 63 39 106t113 43q39 0 69 -8v-102q-12 2 -51 2q-47 0 -47 -49v-228h78v-104h-78v-981h-123z" />
<glyph unicode="&#xe38d;" horiz-adv-x="602" d="M498 -10q-109 0 -109 114v1356h123v-1323q0 -25 27 -24q14 0 30 2v-111q-34 -14 -71 -14zM96 0v981h-65v104h65v236q0 63 39 106t113 43q39 0 69 -8v-102q-12 2 -51 2q-47 0 -47 -49v-228h78v-104h-78v-981h-123z" />
<glyph unicode="&#xfb02;" horiz-adv-x="602" d="M498 -10q-109 0 -109 114v1356h123v-1323q0 -25 27 -24q14 0 30 2v-111q-34 -14 -71 -14zM96 0v981h-65v104h65v236q0 63 39 106t113 43q39 0 69 -8v-102q-12 2 -51 2q-47 0 -47 -49v-228h78v-104h-78v-981h-123z" />
<glyph unicode="&#xfb03;" horiz-adv-x="913" d="M723 0v1085h122v-1085h-122zM723 1243v219h122v-219h-122zM426 0v981h-65v104h65v236q0 63 39 106t113 43q39 0 69 -8v-102q-12 2 -51 2q-47 0 -47 -49v-228h78v-104h-78v-981h-123zM98 0v981h-65v104h65v236q0 63 39 106t113 43q39 0 69 -8v-102q-12 2 -51 2 q-47 0 -47 -49v-228h78v-104h-78v-981h-123z" />
<glyph unicode="&#xfb04;" horiz-adv-x="935" d="M831 -10q-109 0 -108 114v1356h122v-1323q0 -25 27 -24q14 0 31 2v-111q-35 -14 -72 -14zM426 0v981h-65v104h65v236q0 63 39 106t113 43q39 0 69 -8v-102q-12 2 -51 2q-47 0 -47 -49v-228h78v-104h-78v-981h-123zM98 0v981h-65v104h65v236q0 63 39 106t113 43 q39 0 69 -8v-102q-12 2 -51 2q-47 0 -47 -49v-228h78v-104h-78v-981h-123z" />
<glyph horiz-adv-x="0" />
</font>
</defs>
</svg>
