<?xml version="1.0" standalone="no"?>
<!DOCTYPE svg PUBLIC "-//W3C//DTD SVG 1.1//EN" "http://www.w3.org/Graphics/SVG/1.1/DTD/svg11.dtd" >
<svg xmlns="http://www.w3.org/2000/svg">
<metadata>
This is a custom SVG webfont generated by Font Squirrel.
Copyright   : Copyright c 2008 by Mrio Feliciano All rights reserved
Designer    : Mrio Feliciano
Foundry     : Mrio Feliciano  Feliciano Type Foundry
Foundry URL : wwwfelicianotypefoundrycom
</metadata>
<defs>
<font id="webfontnGcRvjtY" horiz-adv-x="868" >
<font-face units-per-em="2048" ascent="1638" descent="-410" />
<missing-glyph horiz-adv-x="286" />
<glyph unicode=" "  horiz-adv-x="286" />
<glyph unicode="&#x09;" horiz-adv-x="286" />
<glyph unicode="&#xa0;" horiz-adv-x="286" />
<glyph unicode="!" horiz-adv-x="350" d="M143 379l-18 528v555h102v-555l-14 -528h-70zM123 0v205h108v-205h-108z" />
<glyph unicode="&#x22;" horiz-adv-x="528" d="M115 1073l-19 205v184h103v-184l-17 -205h-67zM346 1073l-16 205v184h102v-184l-16 -205h-70z" />
<glyph unicode="#" horiz-adv-x="815" d="M150 -4l38 412h-133l6 81h136l57 506h-141l8 80h137l47 391h78l-43 -391h213l41 391h80l-41 -391h135l-6 -80h-135l-56 -506h138l-4 -81h-140l-41 -412h-84l43 412h-211l-41 -412h-81zM281 489h211l55 506h-211z" />
<glyph unicode="$" horiz-adv-x="698" d="M324 -70v123q-111 12 -179.5 89t-78.5 212l98 4q23 -225 201 -225q90 0 133 61.5t43 149.5q0 143 -117 272l-178 201q-152 178 -152 305q0 106 60.5 180t169.5 87v141h86v-139q205 -25 221 -273l-90 -2q-14 197 -181 197q-78 0 -124 -46t-46 -137q0 -100 136 -258 l159 -174q78 -96 115 -174t37 -170q0 -125 -59.5 -204.5t-167.5 -94.5v-125h-86z" />
<glyph unicode="%" horiz-adv-x="1087" d="M270 766q-88 0 -138 53t-50 148v309q0 96 51 149.5t137 53.5t139.5 -53.5t53.5 -149.5v-313q0 -92 -53.5 -144.5t-139.5 -52.5zM270 842q53 0 81 35.5t28 80.5v328q0 45 -27.5 81t-81.5 36q-55 0 -80.5 -35t-25.5 -82v-328q0 -116 106 -116zM227 -6l559 1472h80 l-553 -1472h-86zM811 -20q-86 0 -137 51t-51 145v301q0 96 53 156.5t137 60.5q86 0 139.5 -54t53.5 -151v-313q0 -92 -54.5 -144t-140.5 -52zM811 55q55 0 82 35t27 82v330q0 45 -28 79.5t-81 34.5t-78.5 -34.5t-25.5 -79.5v-330q0 -51 25.5 -84t78.5 -33z" />
<glyph unicode="&#x26;" horiz-adv-x="937" d="M393 -25q-152 0 -228.5 112t-76.5 282q0 301 229 430q-135 217 -135 381q0 125 65.5 216t207.5 91q123 0 188.5 -84t65.5 -203q0 -279 -254 -428q2 -4 118 -207l117 -203q45 150 68 279l92 -12q-29 -178 -107 -373l72 -125q74 -127 76 -131h-121l-94 158 q-47 -84 -121 -133.5t-162 -49.5zM406 74q131 0 225 168q-4 6 -135 236.5t-134 234.5q-164 -98 -163 -340q0 -119 53.5 -209t153.5 -90zM412 848q193 119 192 346q0 88 -42 147.5t-116 59.5q-80 0 -118.5 -61.5t-38.5 -151.5q0 -113 123 -340z" />
<glyph unicode="'" horiz-adv-x="294" d="M115 1073l-19 205v184h103v-184l-17 -205h-67z" />
<glyph unicode="(" horiz-adv-x="362" d="M274 -352q-88 178 -135 435t-47 484q0 236 46 479.5t136 432.5l68 -6q-57 -199 -83 -299.5t-47.5 -261t-21.5 -347.5q0 -434 152 -909z" />
<glyph unicode=")" horiz-adv-x="362" d="M86 -352l-68 8q152 465 152 909q0 186 -21.5 347t-46 260.5t-82.5 300.5l66 6q90 -188 137 -433t47 -479q0 -229 -47 -485t-137 -434z" />
<glyph unicode="*" horiz-adv-x="608" d="M174 958l-63 43l118 181l-182 112l39 64l182 -109v213h76v-213l178 109l41 -64l-184 -112l121 -181l-64 -43l-131 191z" />
<glyph unicode="+" horiz-adv-x="808" d="M365 336v274h-256v88h256v275h81l-2 -275h254v-88h-252v-274h-81z" />
<glyph unicode="," horiz-adv-x="315" d="M104 -193l37 199h-37v199h109v-193l-49 -205h-60z" />
<glyph unicode="-" horiz-adv-x="448" d="M57 561v98h332v-98h-332z" />
<glyph unicode="." horiz-adv-x="315" d="M104 0v205h109v-205h-109z" />
<glyph unicode="/" horiz-adv-x="471" d="M-12 -346l356 1812h86l-350 -1812h-92z" />
<glyph unicode="0" horiz-adv-x="778" d="M387 -18q-129 0 -207 74.5t-78 209.5v944q0 129 84 201t207 72t203 -68.5t80 -195.5v-955q0 -137 -81 -209.5t-208 -72.5zM393 78q88 0 131 52t43 130v957q0 72 -47 123t-129 51q-86 0 -132 -51.5t-46 -122.5v-959q0 -74 47 -127t133 -53z" />
<glyph unicode="1" horiz-adv-x="487" d="M207 0v1343l-121 -40l-12 79l172 78h67v-1460h-106z" />
<glyph unicode="2" horiz-adv-x="673" d="M84 0v72l182 340q209 395 209 698v29q-8 250 -151 250q-72 0 -109 -52.5t-37 -128.5v-88h-100v68q0 135 67.5 215t186.5 80q252 0 252 -348q0 -211 -58.5 -388.5t-173.5 -390.5l-139 -260v-2h389v-94h-518z" />
<glyph unicode="3" horiz-adv-x="696" d="M340 -18q-270 0 -270 319v51h104v-57q0 -96 43 -156.5t121 -60.5q88 0 128 74.5t40 253.5q0 164 -59.5 233.5t-135.5 69.5h-90v98h90q174 0 174 307q0 276 -157 277q-147 0 -148 -201v-66h-100v62q0 297 258 297q135 0 195.5 -104.5t60.5 -256.5q0 -131 -39 -228 t-123 -126v-4q90 -29 137 -137.5t47 -233.5q0 -201 -75.5 -306t-200.5 -105z" />
<glyph unicode="4" horiz-adv-x="751" d="M451 0v399h-385v93l354 968h108l-362 -964h285v340l100 86v-426h123v-97h-123v-399h-100z" />
<glyph unicode="5" horiz-adv-x="739" d="M362 -18q-133 0 -198.5 80.5t-65.5 205.5v84h103v-67q0 -88 44 -146.5t119.5 -58.5t124 63.5t48.5 186.5v274q0 227 -162 227q-94 0 -162 -102l-92 4l29 727h454v-94h-366q0 -199 -19 -520q76 80 189 80q102 0 167.5 -71t65.5 -210v-317q0 -158 -75 -252t-204 -94z" />
<glyph unicode="6" horiz-adv-x="749" d="M369 -18q-125 0 -196 79.5t-71 210.5v930q0 135 78 208t201 73q119 0 187.5 -67.5t68.5 -172.5v-119h-100v101q0 70 -41 118t-119 48q-84 0 -125 -55.5t-41 -131.5v-413q70 106 205 106q102 0 166.5 -61.5t64.5 -169.5v-408q0 -131 -76.5 -203.5t-201.5 -72.5zM377 76 q84 0 124 53t40 123v399q0 76 -40 115t-110 39q-80 0 -130 -58.5t-50 -132.5v-358q0 -70 43 -125t123 -55z" />
<glyph unicode="7" horiz-adv-x="657" d="M201 0q2 416 84 778.5t202 585.5h-413v96h526v-82q-147 -250 -219 -622.5t-76 -755.5h-104z" />
<glyph unicode="8" horiz-adv-x="735" d="M362 -16q-125 0 -198.5 71.5t-73.5 196.5v285q0 158 139 221q-59 27 -92 85t-33 130v252q0 123 77 190.5t192 67.5q113 0 187.5 -62.5t74.5 -183.5v-258q0 -160 -129 -219q61 -25 100 -81t39 -134v-291q0 -131 -78 -200.5t-205 -69.5zM369 76q82 0 125 48t43 122v301 q0 74 -49.5 122t-118.5 48q-74 0 -122 -48t-48 -120v-305q0 -70 46 -119t124 -49zM371 799q72 0 116.5 52t44.5 120v268q0 68 -47 111t-116.5 43t-115.5 -45t-46 -111v-266q0 -72 48 -122t116 -50z" />
<glyph unicode="9" horiz-adv-x="747" d="M369 -18q-121 0 -189.5 69.5t-68.5 184.5v116h100v-98q0 -80 42 -128t118 -48q78 0 122 55t44 137v418q-68 -113 -203 -113q-104 0 -168 61.5t-64 170.5v397q0 131 76 205t201 74t195.5 -79t70.5 -208v-905q0 -145 -76.5 -227t-199.5 -82zM356 664q70 0 125.5 56 t55.5 128v366q0 68 -43 124.5t-123 56.5q-84 0 -124 -57.5t-40 -127.5v-387q0 -76 40.5 -117.5t108.5 -41.5z" />
<glyph unicode=":" horiz-adv-x="315" d="M104 0v205h109v-205h-109zM106 838v204h107v-204h-107z" />
<glyph unicode=";" horiz-adv-x="317" d="M104 -193l37 199h-35v199h107v-193l-49 -205h-60zM106 838v204h107v-204h-107z" />
<glyph unicode="&#x3c;" horiz-adv-x="808" d="M635 360l-508 258l2 72l510 254l41 -80l-428 -209l426 -217z" />
<glyph unicode="=" horiz-adv-x="808" d="M109 471v92h589v-92h-589zM109 727v92h589v-92h-589z" />
<glyph unicode="&#x3e;" horiz-adv-x="808" d="M172 360l-41 80l424 215l-428 211l43 78l510 -252v-74z" />
<glyph unicode="?" horiz-adv-x="663" d="M264 381v82q6 170 109 338q35 55 54 93t35.5 98.5t16.5 127.5q0 113 -34.5 192t-116.5 79q-68 0 -108 -57.5t-40 -155.5v-95h-92v80q0 154 63.5 237t184.5 83q123 0 184.5 -96.5t61.5 -258.5q0 -78 -21.5 -153.5t-43 -114.5t-62.5 -104q-92 -152 -95 -260v-115h-96z M262 0v205h109v-205h-109z" />
<glyph unicode="@" horiz-adv-x="1368" d="M713 -160q-213 0 -357 101q-133 84 -203.5 239.5t-68.5 368.5q0 362 181 592.5t480 230.5q233 0 388 -158.5t155 -463.5q0 -276 -129 -438t-309 -175h-82l18 129h-4q-84 -145 -225 -145q-84 0 -128 45t-44 119q0 16 4 45q0 6 80 528q18 106 90 167.5t162 61.5 q59 0 105 -28.5t59 -83.5h2l20 106h97l-136 -868q147 6 244.5 164t97.5 366q0 276 -131 420t-338 144q-270 0 -424.5 -213t-154.5 -539q0 -414 252 -567q131 -80 309 -80q150 0 307 45l10 -59q-143 -54 -327 -54zM604 205q70 0 129.5 65.5t75.5 157.5l57 381q4 29 4 39 q0 76 -37.5 117t-99.5 41q-70 0 -114 -45.5t-58 -124.5l-69 -476q-4 -25 -5 -47q0 -108 117 -108z" />
<glyph unicode="A" d="M66 0l299 1464h141l297 -1464h-109l-96 489h-336l-94 -489h-102zM281 582h299l-146 755h-6z" />
<glyph unicode="B" horiz-adv-x="821" d="M135 0v1460h291q281 0 281 -360q0 -137 -52.5 -230.5t-144.5 -107.5v-8q209 -41 209 -353q0 -401 -283 -401h-301zM242 92h178q190 0 190 316q0 154 -60.5 227.5t-160.5 73.5h-147v-617zM242 795h145q96 0 155.5 73.5t59.5 221.5q0 141 -50 209.5t-136 68.5h-174v-573z " />
<glyph unicode="C" horiz-adv-x="833" d="M436 -18q-152 0 -238.5 79.5t-86.5 221.5v886q0 141 86 227.5t237 86.5q141 0 221 -78t80 -193v-168h-96v144q0 92 -52 147.5t-155 55.5q-111 0 -162 -63.5t-51 -164.5v-860q0 -111 57.5 -168t159.5 -57q98 0 150.5 56t52.5 142v148h96v-154q0 -129 -80 -208.5 t-219 -79.5z" />
<glyph unicode="D" horiz-adv-x="862" d="M135 0v1460h307q139 0 224.5 -72.5t85.5 -211.5v-865q0 -152 -87 -231.5t-229 -79.5h-301zM242 96h188q109 0 160 63.5t51 147.5v856q0 88 -52 145.5t-157 57.5h-190v-1270z" />
<glyph unicode="E" horiz-adv-x="735" d="M135 0v1460h516v-92h-409v-551h329v-94h-329v-627h411v-96h-518z" />
<glyph unicode="F" horiz-adv-x="710" d="M135 0v1460h514v-92h-407v-553h325v-96h-325v-719h-107z" />
<glyph unicode="G" horiz-adv-x="847" d="M436 -18q-152 0 -238.5 79.5t-86.5 221.5v884q0 141 86 229.5t237 88.5q141 0 221 -79t80 -194v-163h-98v145q0 90 -53.5 144.5t-151.5 54.5q-111 0 -162 -65.5t-51 -170.5v-858q0 -104 56.5 -162.5t158.5 -58.5q207 0 207 203v391h-213v92h313v-494q0 -127 -81 -207.5 t-224 -80.5z" />
<glyph unicode="H" horiz-adv-x="903" d="M135 0v1460h109v-655h418v655h106v-1460h-106v702h-418v-702h-109z" />
<glyph unicode="I" horiz-adv-x="378" d="M135 0v1460h109v-1460h-109z" />
<glyph unicode="J" horiz-adv-x="800" d="M379 -20q-139 0 -214 77.5t-75 212.5v262h105v-249q0 -207 188 -207q184 0 184 205v1179h107v-1173q0 -139 -76 -223t-219 -84z" />
<glyph unicode="K" horiz-adv-x="827" d="M135 0v1460h109v-755l403 755h113l-295 -551l299 -909h-117l-260 795l-143 -265v-530h-109z" />
<glyph unicode="L" horiz-adv-x="704" d="M135 0v1460h107v-1364h411v-96h-518z" />
<glyph unicode="M" horiz-adv-x="1021" d="M135 0v1460h121l254 -655h4l254 655h119v-1460h-101v1225h-4l-237 -598h-74l-233 596h-5v-1223h-98z" />
<glyph unicode="N" horiz-adv-x="901" d="M135 0v1460h125l408 -1157h4v1157h94v-1460h-104l-426 1243h-5v-1243h-96z" />
<glyph unicode="O" d="M430.5 -18q-147.5 0 -233.5 82.5t-86 238.5v858q0 152 91 237t236 85q141 0 230.5 -77t89.5 -222v-871q0 -162 -90 -246.5t-237.5 -84.5zM436 80q106 0 159.5 63.5t53.5 159.5v877q0 94 -56 151.5t-161 57.5q-102 0 -156.5 -61.5t-54.5 -156.5v-870q0 -94 55.5 -157.5 t159.5 -63.5z" />
<glyph unicode="P" horiz-adv-x="817" d="M135 0v1460h268q315 0 316 -411q0 -201 -84 -316t-248 -115h-143v-618h-109zM244 713h137q231 0 231 336q0 313 -217 313h-151v-649z" />
<glyph unicode="Q" d="M741 -143l-200 143q-45 -18 -111 -18q-147 0 -233 82.5t-86 238.5v858q0 152 91 237t236 85q141 0 230.5 -77t89.5 -222v-871q0 -178 -119 -254l170 -114zM436 80q106 0 159.5 63.5t53.5 159.5v877q0 94 -56 151.5t-161 57.5q-102 0 -156.5 -61.5t-54.5 -156.5v-870 q0 -94 55.5 -157.5t159.5 -63.5z" />
<glyph unicode="R" horiz-adv-x="835" d="M135 0v1460h271q164 0 242.5 -103.5t78.5 -287.5q0 -154 -55.5 -254t-151.5 -123l221 -692h-110l-215 666h-172v-666h-109zM244 754h168q205 0 204 301q0 131 -48 220t-165 89h-159v-610z" />
<glyph unicode="S" horiz-adv-x="749" d="M383 -18q-135 0 -213 86t-90 249l104 5q23 -252 199 -252q98 0 142 69.5t44 167.5q0 164 -123 305l-188 226q-154 178 -154 342q0 135 73 219t208 84q252 0 272 -307l-100 -2q-14 117 -57 168t-121 51q-174 0 -174 -205q0 -115 141 -285l162 -192q162 -193 162 -394 q0 -154 -75 -244.5t-212 -90.5z" />
<glyph unicode="T" horiz-adv-x="763" d="M330 0v1366h-281v94h666v-94h-279v-1366h-106z" />
<glyph unicode="U" horiz-adv-x="878" d="M436 -20q-137 0 -223 78.5t-86 228.5v1173h109v-1153q0 -115 58 -172t150 -57q104 0 156 62q47 58 47 148v15v1157h103v-1159q2 -147 -83.5 -234t-230.5 -87z" />
<glyph unicode="V" horiz-adv-x="768" d="M332 -12l-281 1472h111l223 -1235h4l227 1235h101l-275 -1472h-110z" />
<glyph unicode="W" horiz-adv-x="1110" d="M270 -12l-200 1472h108l146 -1165h4l176 1165h114l177 -1163h4l141 1163h100l-192 -1472h-103l-186 1210h-4l-182 -1210h-103z" />
<glyph unicode="X" horiz-adv-x="751" d="M51 0l264 741l-249 719h114l201 -590l201 590h100l-250 -710l268 -750h-112l-217 618l-215 -618h-105z" />
<glyph unicode="Y" horiz-adv-x="729" d="M313 0v645l-268 817h111l217 -674l209 674h102l-264 -821v-641h-107z" />
<glyph unicode="Z" horiz-adv-x="667" d="M68 0v86l413 1280h-399v94h520v-71l-416 -1293h412v-96h-530z" />
<glyph unicode="[" horiz-adv-x="399" d="M106 -344v1804h259v-76h-160v-1652h160v-76h-259z" />
<glyph unicode="\" horiz-adv-x="471" d="M383 -346l-354 1812h86l358 -1812h-90z" />
<glyph unicode="]" horiz-adv-x="399" d="M35 -344v78h160v1650h-160v76h260v-1804h-260z" />
<glyph unicode="^" horiz-adv-x="669" d="M160 451l135 577h90l121 -577h-86l-82 423q-90 -420 -90 -423h-88z" />
<glyph unicode="_" horiz-adv-x="757" d="M0 -213v90h758v-90h-758z" />
<glyph unicode="`" horiz-adv-x="421" d="M238 1184l-179 284h123l142 -284h-86z" />
<glyph unicode="a" horiz-adv-x="700" d="M293 -18q-92 0 -151.5 80.5t-59.5 236.5q0 152 80 244t211 96h102v233q0 59 -34.5 92t-100.5 33q-61 0 -99 -31.5t-38 -88.5v-121h-99v118q0 92 67 149.5t181 57.5q102 0 164 -56t62 -146v-615q0 -92 6 -264h-92q0 10 -2.5 54t-2.5 65h-6q-25 -68 -79 -102.5t-109 -34.5z M315 68q66 0 113 63.5t47 144.5v285h-98q-80 0 -135.5 -58.5t-55.5 -193.5q0 -123 35 -182t94 -59z" />
<glyph unicode="b" horiz-adv-x="747" d="M420 -18q-63 0 -115.5 34.5t-73.5 94.5h-2l-4 -111h-90v1460h103v-512h4q31 68 87 100.5t113 32.5q98 0 150.5 -62.5t52.5 -148.5v-655q0 -113 -64.5 -173t-160.5 -60zM410 74q131 0 131 151v617q0 147 -135 147q-68 0 -118 -71.5t-50 -167.5v-451q0 -88 50 -156.5 t122 -68.5z" />
<glyph unicode="c" horiz-adv-x="688" d="M356 -18q-123 0 -188.5 72.5t-65.5 205.5v545q0 133 72 204.5t188.5 71.5t178 -63.5t61.5 -157.5v-115h-94v107q0 57 -34 99t-112 42q-82 0 -118.5 -50t-36.5 -126v-565q0 -180 153 -180q147 0 148 151v99h94v-109q0 -104 -63.5 -167.5t-182.5 -63.5z" />
<glyph unicode="d" horiz-adv-x="749" d="M307 -16q-100 0 -152.5 61t-52.5 150v653q0 106 64.5 169.5t159.5 63.5q133 0 182 -114h2v493h104v-1460h-84l-6 129h-6q-33 -78 -92.5 -111.5t-118.5 -33.5zM340 76q74 0 123 74.5t49 171.5v440q0 88 -52 158.5t-120 70.5q-133 0 -133 -160v-604q0 -151 133 -151z" />
<glyph unicode="e" horiz-adv-x="696" d="M379 -18q-276 0 -277 290v516q0 137 72 215t193 78q117 0 177 -73.5t60 -198.5v-299h-397v-219q0 -111 41 -164t145 -53q78 0 172 45l31 -78q-92 -59 -217 -59zM207 596h299v219q0 74 -35 125t-115 51q-76 0 -112.5 -53t-36.5 -127v-215z" />
<glyph unicode="f" horiz-adv-x="485" d="M184 0v975h-110v84h110v233q0 82 49.5 134.5t133.5 52.5q53 0 82 -11v-82q-35 6 -72 7q-39 0 -64.5 -26t-25.5 -75v-233h141v-84h-141v-975h-103z" />
<glyph unicode="g" horiz-adv-x="747" d="M322 -348q-123 0 -220 47l37 86q98 -43 185 -43q186 0 186 201v211h-4q-27 -66 -82 -102t-113 -36q-102 0 -155.5 67t-53.5 167v592q0 115 64.5 177t159.5 62q59 0 115.5 -31.5t76.5 -93.5h2v107h92v-1112q0 -145 -78.5 -222t-211.5 -77zM340 109q68 0 119 67.5t51 157.5 v438q0 90 -54.5 157.5t-119.5 67.5q-61 0 -96 -43t-35 -120v-570q0 -155 135 -155z" />
<glyph unicode="h" horiz-adv-x="761" d="M135 0v1460h103v-516h2q66 137 215 137q82 0 133 -50t51 -132v-899h-102v850q0 143 -125 143q-74 0 -124 -73.5t-50 -161.5v-758h-103z" />
<glyph unicode="i" horiz-adv-x="372" d="M135 0v1061h103v-1061h-103zM135 1268v200h103v-200h-103z" />
<glyph unicode="j" horiz-adv-x="372" d="M72 -348q-39 0 -72 6v84h47q88 0 88 108v1211h103v-1227q0 -82 -42 -132t-124 -50zM135 1268v200h103v-200h-103z" />
<glyph unicode="k" horiz-adv-x="681" d="M135 0v1460h103v-917l280 518h111l-209 -367l207 -694h-107l-172 592l-110 -193v-399h-103z" />
<glyph unicode="l" horiz-adv-x="407" d="M274 -10q-143 0 -143 145v1325h102v-1304q0 -72 74 -72q29 0 55 6v-86q-43 -14 -88 -14z" />
<glyph unicode="m" horiz-adv-x="1165" d="M135 0v1061h94v-121h2q31 68 91.5 104.5t132.5 36.5q70 0 118 -37.5t60 -99.5h2q68 137 223 137q80 0 132 -50t52 -132v-899h-102v850q0 143 -127 143q-72 0 -121 -64.5t-53 -146.5v-782h-102v854q-4 139 -125 139q-74 0 -124 -71.5t-50 -159.5v-762h-103z" />
<glyph unicode="n" horiz-adv-x="761" d="M135 0v1061h94v-121h2q31 68 91.5 104.5t132.5 36.5q82 0 133 -50t51 -132v-899h-102v850q0 143 -125 143q-74 0 -124 -71.5t-50 -159.5v-762h-103z" />
<glyph unicode="o" horiz-adv-x="729" d="M362 -18q-125 0 -192.5 73.5t-67.5 206.5v543q0 129 74 202.5t191 73.5q119 0 189.5 -69.5t70.5 -196.5v-549q0 -139 -72 -211.5t-193 -72.5zM367 72q156 0 155 186v557q0 78 -40 128t-119.5 50t-117.5 -51t-38 -129v-555q0 -80 39 -133t121 -53z" />
<glyph unicode="p" horiz-adv-x="747" d="M135 -332v1393h94v-115h4q29 68 88.5 101.5t116.5 33.5q100 0 153.5 -61.5t53.5 -149.5v-651q0 -109 -60.5 -173t-160.5 -64q-59 0 -110.5 29.5t-73.5 84.5h-2v-428h-103zM412 76q129 0 129 153v611q0 145 -135 145q-74 0 -121 -65.5t-47 -161.5v-473q0 -90 48 -149.5 t126 -59.5z" />
<glyph unicode="q" horiz-adv-x="747" d="M510 -332v434h-2q-70 -123 -199 -122q-96 0 -151.5 61t-55.5 158v657q0 98 62.5 161.5t159.5 63.5q61 0 116.5 -31.5t77.5 -99.5h4l2 111h88v-1393h-102zM344 70q66 0 116 68.5t50 158.5v469q0 92 -52 161.5t-122 69.5q-63 0 -97 -44t-34 -119v-603q0 -72 34.5 -116.5 t104.5 -44.5z" />
<glyph unicode="r" horiz-adv-x="512" d="M135 0v1061h101v-117h2q55 125 188 125q31 0 43 -4v-104q-45 4 -59 4q-78 0 -124 -47.5t-48 -135.5v-782h-103z" />
<glyph unicode="s" horiz-adv-x="622" d="M322 -16q-113 0 -176.5 69.5t-71.5 188.5h102q12 -86 45 -128t103 -42q131 0 131 145q0 41 -24.5 92t-43 77t-61.5 79l-101 123q-123 158 -123 270q0 94 59.5 157.5t172.5 63.5q96 0 156.5 -62.5t66.5 -185.5l-98 -4q-8 90 -39 128t-92 38q-59 0 -93 -35.5t-34 -91.5 q0 -88 92 -196l123 -148q137 -176 137 -301q0 -96 -60 -166.5t-171 -70.5z" />
<glyph unicode="t" horiz-adv-x="501" d="M324 -12q-145 0 -146 139v842h-112v90h112v241h101v-241h176v-90h-176v-813q0 -78 65 -78q41 0 90 16v-84q-61 -22 -110 -22z" />
<glyph unicode="u" horiz-adv-x="761" d="M305 -20q-80 0 -131 50t-51 134v897h102v-854q0 -137 125 -137q74 0 124 71.5t50 159.5v760h103v-1061h-95v123h-2q-33 -70 -93 -106.5t-132 -36.5z" />
<glyph unicode="v" horiz-adv-x="632" d="M262 -4l-217 1065h107l165 -871h5l167 871h99l-219 -1065h-107z" />
<glyph unicode="w" horiz-adv-x="970" d="M227 -2l-176 1063h109l123 -832h6l147 832h111l149 -832h6l121 832h97l-175 -1063h-98l-155 876h-7l-159 -876h-99z" />
<glyph unicode="x" horiz-adv-x="630" d="M37 0l221 543l-207 518h111l160 -426l159 426h94l-200 -512l219 -549h-109l-174 449l-176 -449h-98z" />
<glyph unicode="y" horiz-adv-x="634" d="M141 -354q-51 0 -96 12l14 88q45 -10 76 -10q80 0 107 106l41 187l-236 1032h105l178 -817h4l160 817h96l-248 -1157q-25 -131 -72 -194.5t-129 -63.5z" />
<glyph unicode="z" horiz-adv-x="567" d="M63 0v70l334 905h-325v86h436v-82l-328 -893h332v-86h-449z" />
<glyph unicode="{" horiz-adv-x="419" d="M236 -344q-113 0 -113 113v706q0 86 -66 92v82q66 10 66 86v600q0 57 30.5 91t84.5 34h145v-74h-129q-33 0 -33 -49v-592q0 -100 -74 -131v-6q74 -31 74 -131v-698q0 -49 33 -49h129v-74h-147z" />
<glyph unicode="|" horiz-adv-x="460" d="M190 -213v1675h80v-1675h-80z" />
<glyph unicode="}" horiz-adv-x="419" d="M29 -344v74h129q35 0 35 49v698q0 100 73 131v6q-74 31 -73 131v594q0 49 -35 50h-129v73h147q53 0 83 -33.5t30 -91.5v-602q0 -76 65 -86v-82q-66 -6 -65 -92v-706q0 -113 -113 -113h-147z" />
<glyph unicode="~" horiz-adv-x="808" d="M176 557l-65 10q18 156 129 156q39 0 167 -27.5t160 -27.5q47 0 64 71l67 -12q-8 -70 -40.5 -113t-86.5 -43q-39 0 -170 29t-161 29q-48 0 -64 -72z" />
<glyph unicode="&#xa1;" horiz-adv-x="350" d="M211 766l18 -528v-555h-102v555l14 528h70zM231 1145v-205h-108v205h108z" />
<glyph unicode="&#xa2;" horiz-adv-x="677" d="M305 -111v162q-104 8 -159.5 79t-55.5 194v505q0 121 57.5 189.5t157.5 79.5v168h92v-168q96 -12 145.5 -74.5t49.5 -151.5v-114h-96v116q0 55 -34 97.5t-112 42.5q-154 0 -153 -174v-523q0 -184 153 -184q145 0 146 154v123h96v-134q0 -92 -50 -152.5t-145 -70.5v-164 h-92z" />
<glyph unicode="&#xa3;" horiz-adv-x="790" d="M78 0v92h106v613h-96v86h96v417q0 137 80 205t201 68q117 0 182.5 -62.5t65.5 -165.5v-135h-99v125q0 150 -157 150q-164 0 -164 -181v-421h262v-86h-262v-613h430l-21 -92h-624z" />
<glyph unicode="&#xa4;" horiz-adv-x="624" d="M121 457l-55 55l61 61q-47 61 -47 140q0 72 45 133q-16 14 -62 59l56 56l59 -60q59 43 131 43q76 0 135 -41l62 62l55 -56l-61 -59q47 -72 47 -139q0 -72 -47 -138l61 -59l-53 -53l-62 59q-63 -41 -133 -41q-68 0 -133 39zM311 547q72 0 114 44t42 122q0 74 -45 119 t-109 45q-72 0 -114.5 -44.5t-42.5 -125.5q0 -66 43.5 -113t111.5 -47z" />
<glyph unicode="&#xa5;" horiz-adv-x="698" d="M297 0v580h-215v82h209l-260 800h112l213 -671l207 671h105l-254 -800h204v-82h-215v-580h-106z" />
<glyph unicode="&#xa6;" horiz-adv-x="503" d="M193 -88v723h83v-723h-83zM193 780v693h83v-693h-83z" />
<glyph unicode="&#xa7;" horiz-adv-x="731" d="M365 -82q-115 0 -200 66.5t-85 203.5v62h90v-45q0 -96 55.5 -150.5t145.5 -54.5t138 54.5t48 138.5q0 80 -40 127t-109 77q-45 27 -121 52q-195 88 -195 258q0 147 146 249q-141 88 -142 246q0 115 71 189.5t202 74.5q123 0 192.5 -68.5t69.5 -187.5v-63h-86v55 q0 84 -47 133t-131 49q-80 0 -129.5 -45t-49.5 -131q0 -127 131 -196l130 -64q197 -100 196 -256q0 -160 -141 -248q76 -37 115.5 -103.5t35.5 -145.5q0 -123 -80.5 -200t-209.5 -77zM424 489q127 61 127 197q0 106 -127 170q-109 51 -113 53q-49 -27 -87 -80t-38 -118.5 t38 -108.5t87 -61z" />
<glyph unicode="&#xa8;" horiz-adv-x="567" d="M117 1221v223h98v-223h-98zM354 1221v223h99v-223h-99z" />
<glyph unicode="&#xa9;" horiz-adv-x="1392" d="M696 170q-125 0 -192.5 70.5t-67.5 197.5v551q0 127 69.5 201t192.5 74q119 0 182.5 -64.5t63.5 -165.5v-172h-98v166q0 55 -35 96t-111 41q-156 0 -155 -182v-534q0 -178 153 -179q80 0 114 43t34 99v159h98v-161q0 -106 -64.5 -173t-183.5 -67zM696 -49 q-299 0 -452.5 214t-153.5 558q0 328 162 546t444 218q197 0 337.5 -108.5t205 -278.5t64.5 -377q0 -334 -157 -553t-450 -219zM700 23q236 0 378.5 190t142.5 510q0 322 -143.5 509t-381 187t-380 -188.5t-142.5 -507.5q0 -328 142 -514t384 -186z" />
<glyph unicode="&#xaa;" horiz-adv-x="516" d="M203 811q-55 0 -93 47t-38 139q0 90 52 143.5t136 53.5h57v127q0 68 -73 68q-35 0 -56.5 -18.5t-21.5 -47.5v-63h-80v59q0 63 44 100t120 37q74 0 113.5 -36t39.5 -99v-352q0 -92 5 -146h-80l-6 66q-37 -78 -119 -78zM231 883q37 0 61.5 29.5t24.5 66.5v156h-57 q-104 0 -104 -127q-1 -125 75 -125zM90 655v84h316v-84h-316z" />
<glyph unicode="&#xab;" horiz-adv-x="643" d="M225 291l-180 274l176 279l68 -43l-125 -234l131 -235zM481 291l-178 274l176 277l68 -43l-125 -232l131 -233z" />
<glyph unicode="&#xac;" horiz-adv-x="802" d="M639 377v217h-573v82h661v-299h-88z" />
<glyph unicode="&#xad;" horiz-adv-x="448" d="M57 561v98h332v-98h-332z" />
<glyph unicode="&#xae;" horiz-adv-x="792" d="M401 647q-154 0 -241.5 124t-87.5 310q0 193 90 315t246 122q147 0 239 -122t92 -315q0 -184 -90 -309t-248 -125zM401 707q117 0 193 101t76 273t-78 275.5t-191 103.5q-111 0 -187.5 -103.5t-76.5 -275.5t76.5 -274t187.5 -100zM281 801v571h122q139 0 140 -164 q0 -121 -78 -151l92 -256h-76l-84 241h-47v-241h-69zM350 1102h49q72 0 72 100q0 106 -74 107h-47v-207z" />
<glyph unicode="&#xaf;" horiz-adv-x="606" d="M123 1223v94h360v-94h-360z" />
<glyph unicode="&#xb0;" horiz-adv-x="464" d="M231 1143q-70 0 -115.5 48t-45.5 117.5t47 120t114 50.5q70 0 117 -50.5t47 -119.5q0 -68 -48 -117t-116 -49zM231 1202q43 0 72 32t29 75q0 47 -29 77.5t-72 30.5t-71.5 -30.5t-28.5 -77.5q0 -43 28.5 -75t71.5 -32z" />
<glyph unicode="&#xb1;" horiz-adv-x="808" d="M365 422v264h-256v88h256v268h81l-2 -268h254v-88h-252v-264h-81zM111 215v86h587v-86h-587z" />
<glyph unicode="&#xb2;" horiz-adv-x="473" d="M78 778v58l123 208q115 209 114 338v17q0 123 -82 123q-41 0 -60 -30t-19 -75v-47h-82v49q0 82 44 131t122 49q82 0 125 -53t43 -151q0 -106 -34 -192.5t-106 -205.5l-82 -143h230v-76h-336z" />
<glyph unicode="&#xb3;" horiz-adv-x="493" d="M244 758q-90 0 -132 55t-42 141v35h84v-37q0 -51 24.5 -84.5t65.5 -33.5q88 0 88 163q0 80 -32 118t-71 38h-55v76h53q96 0 97 153q0 139 -84 139.5t-84 -114.5v-35h-82v43q0 88 45 135t127 47t124 -57t42 -147q0 -164 -99 -197v-4q55 -16 83 -73.5t28 -127.5 q0 -115 -49 -174t-131 -59z" />
<glyph unicode="&#xb4;" horiz-adv-x="423" d="M113 1184l141 284h123l-178 -284h-86z" />
<glyph unicode="&#xb5;" horiz-adv-x="757" d="M111 -365v1424h108v-844q0 -72 38 -106.5t101 -34.5q70 0 122 56t52 157v772h109v-830q0 -100 64 -125v-108q-123 33 -142 141q-59 -158 -209 -157q-119 0 -157 100h-4l28 -424z" />
<glyph unicode="&#xb6;" horiz-adv-x="862" d="M362 -131v653q-135 29 -203.5 149t-68.5 298q0 221 84 356t250 135h371v-78h-111v-1513h-76v1513h-170v-1513h-76z" />
<glyph unicode="&#xb7;" horiz-adv-x="315" d="M104 584v202h109v-202h-109z" />
<glyph unicode="&#x22c5;" horiz-adv-x="315" d="M104 584v202h109v-202h-109z" />
<glyph unicode="&#xb8;" horiz-adv-x="503" d="M221 -367q-72 0 -133 19v80q72 -16 127 -17q86 0 86 56q0 53 -100 59l-49 4l43 186h65l-31 -131q166 -8 166 -118q0 -59 -50 -98.5t-124 -39.5z" />
<glyph unicode="&#xb9;" horiz-adv-x="397" d="M166 778v723l-74 -24l-14 67l123 53h53v-819h-88z" />
<glyph unicode="&#xba;" horiz-adv-x="501" d="M248 813q-170 0 -170 170v303q0 80 48 123t126 43q76 0 123 -42t47 -122v-307q0 -84 -47 -126t-127 -42zM250 883q86 0 86 94v311q0 92 -86 92t-86 -92v-311q0 -94 86 -94zM94 655v82h316v-82h-316z" />
<glyph unicode="&#xbb;" horiz-adv-x="643" d="M119 293l-70 41l125 233l-129 234l70 41l180 -273zM377 291l-70 43l125 233l-131 234l72 43l180 -275z" />
<glyph unicode="&#xbc;" horiz-adv-x="1107" d="M207 647v723l-74 -24l-14 67l123 53h53v-819h-88zM866 0v215h-233v70l211 534h92l-219 -530h149v166l84 69v-235h72v-74h-72v-215h-84zM215 -4l563 1470h76l-561 -1470h-78z" />
<glyph unicode="&#xbd;" horiz-adv-x="1107" d="M205 647v723l-74 -24l-14 67l123 53h53v-819h-88zM680 0v57l123 209q115 209 115 338v17q0 123 -82 122q-41 0 -60.5 -29.5t-19.5 -74.5v-47h-82v49q0 82 44 131t122 49q82 0 125 -53t43 -152q0 -106 -34 -192t-106 -205l-82 -143h230v-76h-336zM199 -4l563 1470h76 l-562 -1470h-77z" />
<glyph unicode="&#xbe;" horiz-adv-x="1107" d="M872 0v215h-233v70l211 534h92l-219 -530h149v166l84 69v-235h72v-74h-72v-215h-84zM248 627q-90 0 -132 55t-42 141v35h84v-37q0 -51 24.5 -85t65.5 -34q88 0 88 164q0 80 -32 118t-71 38h-55v76h53q96 0 97 153q0 139 -84 139.5t-84 -114.5v-35h-82v43q0 88 45 135 t127 47t124 -57t42 -147q0 -164 -99 -197v-4q55 -16 83 -73.5t28 -127.5q0 -115 -49 -174t-131 -59zM252 -4l563 1470h76l-561 -1470h-78z" />
<glyph unicode="&#xbf;" horiz-adv-x="665" d="M408 764v-82q-6 -170 -109 -338q-35 -55 -54.5 -93t-35.5 -98.5t-16 -127.5q0 -113 34.5 -192t116.5 -79q68 0 108 57.5t40 155.5v94h92v-79q0 -154 -63.5 -237t-184.5 -83q-123 0 -184.5 96.5t-61.5 257.5q0 78 21.5 154t43 115t62.5 104q92 152 94 260v115h97z M410 1145v-205h-109v205h109z" />
<glyph unicode="&#xc0;" d="M66 0l299 1464h141l297 -1464h-109l-96 489h-336l-94 -489h-102zM281 582h299l-146 755h-6zM397 1583l-178 285h123l141 -285h-86z" />
<glyph unicode="&#xc1;" d="M66 0l299 1464h141l297 -1464h-109l-96 489h-336l-94 -489h-102zM281 582h299l-146 755h-6zM401 1583l142 285h123l-179 -285h-86z" />
<glyph unicode="&#xc2;" d="M66 0l299 1464h141l297 -1464h-109l-96 489h-336l-94 -489h-102zM281 582h299l-146 755h-6zM252 1585l143 285h82l139 -285h-96l-88 191l-88 -191h-92z" />
<glyph unicode="&#xc3;" d="M66 0l299 1464h141l297 -1464h-109l-96 489h-336l-94 -489h-102zM281 582h299l-146 755h-6zM264 1606l-71 10q8 66 43.5 109.5t91.5 43.5q37 0 107.5 -28.5t105.5 -28.5q27 0 41 17.5t24 54.5l70 -15q-8 -66 -45 -108.5t-90 -42.5q-41 0 -114 29.5t-99 29.5 q-29 0 -42.5 -16t-21.5 -55z" />
<glyph unicode="&#xc4;" d="M66 0l299 1464h141l297 -1464h-109l-96 489h-336l-94 -489h-102zM281 582h299l-146 755h-6zM266 1620v223h99v-223h-99zM504 1620v223h98v-223h-98z" />
<glyph unicode="&#xc5;" d="M66 0l299 1464h141l297 -1464h-109l-96 489h-336l-94 -489h-102zM281 582h299l-146 755h-6zM434 1542q-74 0 -113.5 44t-39.5 108q0 68 43 114.5t110 46.5q72 0 113 -43t41 -108q0 -70 -43 -116t-111 -46zM434 1602q41 0 64.5 25.5t23.5 70.5q0 43 -22.5 70.5t-67.5 27.5 q-82 0 -82 -100q0 -45 22.5 -69.5t61.5 -24.5z" />
<glyph unicode="&#xc6;" horiz-adv-x="1155" d="M45 0l442 1462h584v-94h-409v-553h329v-94h-329v-625h411v-96h-516v502h-260l-143 -502h-109zM326 592h231v774h-4z" />
<glyph unicode="&#xc7;" horiz-adv-x="833" d="M426 -367q-72 0 -133 19v80q72 -16 127 -17q86 0 86 56q0 53 -100 59l-50 4l35 150q-131 12 -205.5 90t-74.5 209v886q0 141 86 227.5t237 86.5q141 0 221 -78t80 -193v-168h-96v144q0 92 -52 147.5t-155 55.5q-111 0 -162 -63.5t-51 -164.5v-860q0 -111 57.5 -168 t159.5 -57q98 0 150.5 56t52.5 142v148h96v-154q0 -123 -74.5 -202.5t-205.5 -85.5l-21 -93q166 -8 166 -118q0 -59 -50 -98.5t-124 -39.5z" />
<glyph unicode="&#xc8;" horiz-adv-x="735" d="M135 0v1460h516v-92h-409v-551h329v-94h-329v-627h411v-96h-518zM379 1583l-178 285h123l141 -285h-86z" />
<glyph unicode="&#xc9;" horiz-adv-x="735" d="M135 0v1460h516v-92h-409v-551h329v-94h-329v-627h411v-96h-518zM350 1583l142 285h122l-178 -285h-86z" />
<glyph unicode="&#xca;" horiz-adv-x="735" d="M135 0v1460h516v-92h-409v-551h329v-94h-329v-627h411v-96h-518zM184 1585l144 285h82l139 -285h-96l-88 191l-89 -191h-92z" />
<glyph unicode="&#xcb;" horiz-adv-x="735" d="M135 0v1460h516v-92h-409v-551h329v-94h-329v-627h411v-96h-518zM236 1620v223h98v-223h-98zM473 1620v223h98v-223h-98z" />
<glyph unicode="&#xcc;" horiz-adv-x="378" d="M135 0v1460h109v-1460h-109zM152 1583l-179 285h123l142 -285h-86z" />
<glyph unicode="&#xcd;" horiz-adv-x="378" d="M135 0v1460h109v-1460h-109zM147 1583l142 285h123l-179 -285h-86z" />
<glyph unicode="&#xce;" horiz-adv-x="378" d="M135 0v1460h109v-1460h-109zM8 1585l144 285h81l140 -285h-97l-88 191l-88 -191h-92z" />
<glyph unicode="&#xcf;" horiz-adv-x="378" d="M135 0v1460h109v-1460h-109zM23 1620v223h98v-223h-98zM260 1620v223h98v-223h-98z" />
<glyph unicode="&#xd0;" horiz-adv-x="872" d="M47 723v90h98v647h308q139 0 224 -72.5t85 -211.5v-865q0 -152 -87 -231.5t-229 -79.5h-301v723h-98zM252 96h188q109 0 160 63.5t51 147.5v856q0 88 -52 145.5t-157 57.5h-190v-553h268v-90h-268v-627z" />
<glyph unicode="&#xd1;" horiz-adv-x="901" d="M135 0v1460h125l408 -1157h4v1157h94v-1460h-104l-426 1243h-5v-1243h-96zM281 1606l-72 10q8 66 44 109.5t91 43.5q37 0 107.5 -28.5t105.5 -28.5q27 0 41 17.5t25 54.5l69 -15q-8 -66 -45 -108.5t-90 -42.5q-41 0 -113.5 29.5t-99.5 29.5q-29 0 -42 -16t-21 -55z" />
<glyph unicode="&#xd2;" d="M430.5 -18q-147.5 0 -233.5 82.5t-86 238.5v858q0 152 91 237t236 85q141 0 230.5 -77t89.5 -222v-871q0 -162 -90 -246.5t-237.5 -84.5zM436 80q106 0 159.5 63.5t53.5 159.5v877q0 94 -56 151.5t-161 57.5q-102 0 -156.5 -61.5t-54.5 -156.5v-870q0 -94 55.5 -157.5 t159.5 -63.5zM395 1583l-178 285h123l141 -285h-86z" />
<glyph unicode="&#xd3;" d="M430.5 -18q-147.5 0 -233.5 82.5t-86 238.5v858q0 152 91 237t236 85q141 0 230.5 -77t89.5 -222v-871q0 -162 -90 -246.5t-237.5 -84.5zM436 80q106 0 159.5 63.5t53.5 159.5v877q0 94 -56 151.5t-161 57.5q-102 0 -156.5 -61.5t-54.5 -156.5v-870q0 -94 55.5 -157.5 t159.5 -63.5zM403 1583l142 285h123l-179 -285h-86z" />
<glyph unicode="&#xd4;" d="M430.5 -18q-147.5 0 -233.5 82.5t-86 238.5v858q0 152 91 237t236 85q141 0 230.5 -77t89.5 -222v-871q0 -162 -90 -246.5t-237.5 -84.5zM436 80q106 0 159.5 63.5t53.5 159.5v877q0 94 -56 151.5t-161 57.5q-102 0 -156.5 -61.5t-54.5 -156.5v-870q0 -94 55.5 -157.5 t159.5 -63.5zM252 1585l143 285h82l139 -285h-96l-88 191l-88 -191h-92z" />
<glyph unicode="&#xd5;" d="M430.5 -18q-147.5 0 -233.5 82.5t-86 238.5v858q0 152 91 237t236 85q141 0 230.5 -77t89.5 -222v-871q0 -162 -90 -246.5t-237.5 -84.5zM436 80q106 0 159.5 63.5t53.5 159.5v877q0 94 -56 151.5t-161 57.5q-102 0 -156.5 -61.5t-54.5 -156.5v-870q0 -94 55.5 -157.5 t159.5 -63.5zM264 1606l-71 10q8 66 43.5 109.5t91.5 43.5q37 0 107.5 -28.5t105.5 -28.5q27 0 41 17.5t24 54.5l70 -15q-8 -66 -45 -108.5t-90 -42.5q-41 0 -114 29.5t-99 29.5q-29 0 -42.5 -16t-21.5 -55z" />
<glyph unicode="&#xd6;" d="M430.5 -18q-147.5 0 -233.5 82.5t-86 238.5v858q0 152 91 237t236 85q141 0 230.5 -77t89.5 -222v-871q0 -162 -90 -246.5t-237.5 -84.5zM436 80q106 0 159.5 63.5t53.5 159.5v877q0 94 -56 151.5t-161 57.5q-102 0 -156.5 -61.5t-54.5 -156.5v-870q0 -94 55.5 -157.5 t159.5 -63.5zM266 1620v223h99v-223h-99zM504 1620v223h98v-223h-98z" />
<glyph unicode="&#xd7;" horiz-adv-x="808" d="M178 369l-55 61l223 227l-62 63l-101 100l-62 63l59 59l226 -225l225 225l57 -59l-225 -224l225 -227l-57 -59l-225 225q-18 -16 -65 -63l-97 -100z" />
<glyph unicode="&#xd8;" d="M211 -84l-82 21l49 147q-68 84 -67 219v858q0 152 91 237t236 85q115 0 195 -49l37 110l82 -18l-52 -154q57 -74 58 -188v-871q0 -162 -90 -246.5t-238 -84.5q-102 0 -182 43zM221 301q0 -35 6 -68l369 1094q-57 61 -164 62q-102 0 -156.5 -61.5t-54.5 -156.5v-870z M436 80q106 0 159.5 63.5t53.5 159.5v877q0 6 -1 17t-1 17l-362 -1079q55 -55 151 -55z" />
<glyph unicode="&#xd9;" horiz-adv-x="878" d="M436 -20q-137 0 -223 78.5t-86 228.5v1173h109v-1153q0 -115 58 -172t150 -57q104 0 155.5 62.5t47.5 162.5v1157h103v-1159q2 -147 -83.5 -234t-230.5 -87zM412 1583l-179 285h123l142 -285h-86z" />
<glyph unicode="&#xda;" horiz-adv-x="878" d="M436 -20q-137 0 -223 78.5t-86 228.5v1173h109v-1153q0 -115 58 -172t150 -57q104 0 155.5 62.5t47.5 162.5v1157h103v-1159q2 -147 -83.5 -234t-230.5 -87zM410 1583l141 285h123l-178 -285h-86z" />
<glyph unicode="&#xdb;" horiz-adv-x="878" d="M436 -20q-137 0 -223 78.5t-86 228.5v1173h109v-1153q0 -115 58 -172t150 -57q104 0 155.5 62.5t47.5 162.5v1157h103v-1159q2 -147 -83.5 -234t-230.5 -87zM256 1585l143 285h82l140 -285h-97l-88 191l-88 -191h-92z" />
<glyph unicode="&#xdc;" horiz-adv-x="878" d="M436 -20q-137 0 -223 78.5t-86 228.5v1173h109v-1153q0 -115 58 -172t150 -57q104 0 155.5 62.5t47.5 162.5v1157h103v-1159q2 -147 -83.5 -234t-230.5 -87zM270 1620v223h99v-223h-99zM508 1620v223h98v-223h-98z" />
<glyph unicode="&#xdd;" horiz-adv-x="729" d="M313 0v645l-268 817h111l217 -674l209 674h102l-264 -821v-641h-107zM336 1583l141 285h123l-178 -285h-86z" />
<glyph unicode="&#xde;" horiz-adv-x="780" d="M115 0v1460h108v-301h164q315 0 315 -409q0 -199 -83.5 -313.5t-247.5 -114.5h-148v-322h-108zM223 416h137q233 0 234 334q0 313 -215 313h-156v-647z" />
<glyph unicode="&#xdf;" horiz-adv-x="788" d="M489 -10q-98 0 -155 33l26 81q68 -29 125 -28q139 0 140 243q0 143 -68 240.5t-158 136.5v76h15q74 59 123 176t49 207q0 98 -41 164.5t-117 66.5q-84 0 -124 -69.5t-40 -167.5v-1149h-102v975h-111v84h111v84q0 154 71.5 243t200.5 89q119 0 186.5 -85t67.5 -216 q0 -121 -48 -234t-136 -186v-4q102 -59 161.5 -173t59.5 -249q0 -145 -57.5 -241.5t-178.5 -96.5z" />
<glyph unicode="&#xe0;" horiz-adv-x="700" d="M293 -18q-92 0 -151.5 80.5t-59.5 236.5q0 152 80 244t211 96h102v233q0 59 -34.5 92t-100.5 33q-61 0 -99 -31.5t-38 -88.5v-121h-99v118q0 92 67 149.5t181 57.5q102 0 164 -56t62 -146v-615q0 -92 6 -264h-92q0 10 -2.5 54t-2.5 65h-6q-25 -68 -79 -102.5t-109 -34.5z M315 68q66 0 113 63.5t47 144.5v285h-98q-80 0 -135.5 -58.5t-55.5 -193.5q0 -123 35 -182t94 -59zM319 1184l-178 284h123l142 -284h-87z" />
<glyph unicode="&#xe1;" horiz-adv-x="700" d="M293 -18q-92 0 -151.5 80.5t-59.5 236.5q0 152 80 244t211 96h102v233q0 59 -34.5 92t-100.5 33q-61 0 -99 -31.5t-38 -88.5v-121h-99v118q0 92 67 149.5t181 57.5q102 0 164 -56t62 -146v-615q0 -92 6 -264h-92q0 10 -2.5 54t-2.5 65h-6q-25 -68 -79 -102.5t-109 -34.5z M315 68q66 0 113 63.5t47 144.5v285h-98q-80 0 -135.5 -58.5t-55.5 -193.5q0 -123 35 -182t94 -59zM289 1184l141 284h123l-178 -284h-86z" />
<glyph unicode="&#xe2;" horiz-adv-x="700" d="M293 -18q-92 0 -151.5 80.5t-59.5 236.5q0 152 80 244t211 96h102v233q0 59 -34.5 92t-100.5 33q-61 0 -99 -31.5t-38 -88.5v-121h-99v118q0 92 67 149.5t181 57.5q102 0 164 -56t62 -146v-615q0 -92 6 -264h-92q0 10 -2.5 54t-2.5 65h-6q-25 -68 -79 -102.5t-109 -34.5z M315 68q66 0 113 63.5t47 144.5v285h-98q-80 0 -135.5 -58.5t-55.5 -193.5q0 -123 35 -182t94 -59zM168 1186l143 284h82l139 -284h-96l-88 190l-88 -190h-92z" />
<glyph unicode="&#xe3;" horiz-adv-x="700" d="M293 -18q-92 0 -151.5 80.5t-59.5 236.5q0 152 80 244t211 96h102v233q0 59 -34.5 92t-100.5 33q-61 0 -99 -31.5t-38 -88.5v-121h-99v118q0 92 67 149.5t181 57.5q102 0 164 -56t62 -146v-615q0 -92 6 -264h-92q0 10 -2.5 54t-2.5 65h-6q-25 -68 -79 -102.5t-109 -34.5z M315 68q66 0 113 63.5t47 144.5v285h-98q-80 0 -135.5 -58.5t-55.5 -193.5q0 -123 35 -182t94 -59zM184 1206l-71 11q8 66 44 109.5t91 43.5q37 0 107.5 -28.5t105.5 -28.5q27 0 41 17.5t24 53.5l70 -14q-8 -66 -45 -108.5t-90 -42.5q-41 0 -114 29.5t-99 29.5 q-29 0 -42.5 -16.5t-21.5 -55.5z" />
<glyph unicode="&#xe4;" horiz-adv-x="700" d="M293 -18q-92 0 -151.5 80.5t-59.5 236.5q0 152 80 244t211 96h102v233q0 59 -34.5 92t-100.5 33q-61 0 -99 -31.5t-38 -88.5v-121h-99v118q0 92 67 149.5t181 57.5q102 0 164 -56t62 -146v-615q0 -92 6 -264h-92q0 10 -2.5 54t-2.5 65h-6q-25 -68 -79 -102.5t-109 -34.5z M315 68q66 0 113 63.5t47 144.5v285h-98q-80 0 -135.5 -58.5t-55.5 -193.5q0 -123 35 -182t94 -59zM184 1221v223h99v-223h-99zM422 1221v223h98v-223h-98z" />
<glyph unicode="&#xe5;" horiz-adv-x="700" d="M293 -18q-92 0 -151.5 80.5t-59.5 236.5q0 152 80 244t211 96h102v233q0 59 -34.5 92t-100.5 33q-61 0 -99 -31.5t-38 -88.5v-121h-99v118q0 92 67 149.5t181 57.5q102 0 164 -56t62 -146v-615q0 -92 6 -264h-92q0 10 -2.5 54t-2.5 65h-6q-25 -68 -79 -102.5t-109 -34.5z M315 68q66 0 113 63.5t47 144.5v285h-98q-80 0 -135.5 -58.5t-55.5 -193.5q0 -123 35 -182t94 -59zM342 1174q-74 0 -114 44t-40 107q0 68 43 115t111 47q72 0 113 -43t41 -109q0 -70 -43 -115.5t-111 -45.5zM342 1233q41 0 64.5 25.5t23.5 70.5q0 43 -22.5 70.5t-67.5 27.5 q-82 0 -82 -100q0 -45 22.5 -69.5t61.5 -24.5z" />
<glyph unicode="&#xe6;" horiz-adv-x="1069" d="M295 -20q-94 0 -153.5 81.5t-59.5 237.5q0 152 81 244t210 96h102v233q0 59 -34.5 92t-100.5 33q-61 0 -99 -31.5t-38 -88.5v-121h-99v118q0 92 67 149.5t181 57.5q141 0 187 -94q63 94 198 94q117 0 178.5 -73.5t61.5 -198.5v-299h-397v-219q0 -109 39.5 -163t144.5 -54 q96 0 174 45l31 -78q-78 -59 -217 -59q-186 0 -242 139q-63 -141 -215 -141zM326 68q66 0 107.5 53t41.5 135v305h-98q-80 0 -135.5 -58.5t-55.5 -193.5q0 -121 40.5 -181t99.5 -60zM580 596h297v219q0 176 -148 176q-76 0 -112.5 -52t-36.5 -124v-219z" />
<glyph unicode="&#xe7;" horiz-adv-x="688" d="M369 -367q-72 0 -133 19v80q72 -16 126 -17q86 0 87 56q0 53 -101 59l-49 4l33 150q-111 6 -170.5 77.5t-59.5 198.5v545q0 133 72 204.5t188.5 71.5t178 -63.5t61.5 -157.5v-115h-94v107q0 57 -34 99t-112 42q-82 0 -118.5 -50t-36.5 -126v-565q0 -180 153 -180 q147 0 148 151v99h94v-109q0 -94 -52 -155.5t-151 -71.5l-22 -97q166 -8 166 -118q0 -59 -50 -98.5t-124 -39.5z" />
<glyph unicode="&#xe8;" horiz-adv-x="696" d="M379 -18q-276 0 -277 290v516q0 137 72 215t193 78q117 0 177 -73.5t60 -198.5v-299h-397v-219q0 -111 41 -164t145 -53q78 0 172 45l31 -78q-92 -59 -217 -59zM207 596h299v219q0 74 -35 125t-115 51q-76 0 -112.5 -53t-36.5 -127v-215zM344 1184l-178 284h123l141 -284 h-86z" />
<glyph unicode="&#xe9;" horiz-adv-x="696" d="M313 1184l142 284h123l-179 -284h-86zM379 -18q-276 0 -277 290v516q0 137 72 215t193 78q117 0 177 -73.5t60 -198.5v-299h-397v-219q0 -111 41 -164t145 -53q78 0 172 45l31 -78q-92 -59 -217 -59zM207 596h299v219q0 74 -35 125t-115 51q-76 0 -112.5 -53t-36.5 -127 v-215z" />
<glyph unicode="&#xea;" horiz-adv-x="696" d="M199 1186l143 284h82l139 -284h-96l-88 190l-88 -190h-92zM379 -18q-276 0 -277 290v516q0 137 72 215t193 78q117 0 177 -73.5t60 -198.5v-299h-397v-219q0 -111 41 -164t145 -53q78 0 172 45l31 -78q-92 -59 -217 -59zM207 596h299v219q0 74 -35 125t-115 51 q-76 0 -112.5 -53t-36.5 -127v-215z" />
<glyph unicode="&#xeb;" horiz-adv-x="696" d="M209 1221v223h98v-223h-98zM446 1221v223h99v-223h-99zM379 -18q-276 0 -277 290v516q0 137 72 215t193 78q117 0 177 -73.5t60 -198.5v-299h-397v-219q0 -111 41 -164t145 -53q78 0 172 45l31 -78q-92 -59 -217 -59zM207 596h299v219q0 74 -35 125t-115 51 q-76 0 -112.5 -53t-36.5 -127v-215z" />
<glyph unicode="&#xec;" horiz-adv-x="372" d="M135 0v1061h103v-1061h-103zM147 1184l-178 284h123l141 -284h-86z" />
<glyph unicode="&#xed;" horiz-adv-x="372" d="M145 1184l142 284h123l-179 -284h-86zM135 0v1061h103v-1061h-103z" />
<glyph unicode="&#xee;" horiz-adv-x="372" d="M14 1186l144 284h82l139 -284h-96l-88 190l-89 -190h-92zM135 0v1061h103v-1061h-103z" />
<glyph unicode="&#xef;" horiz-adv-x="372" d="M27 1221v223h98v-223h-98zM264 1221v223h98v-223h-98zM135 0v1061h103v-1061h-103z" />
<glyph unicode="&#xf0;" horiz-adv-x="708" d="M131 1204l-29 68l170 43l-71 125l98 35l76 -136l151 39l27 -67l-139 -37l170 -293q41 -68 41 -168v-551q0 -139 -70 -209.5t-194.5 -70.5t-191.5 70.5t-67 203.5v549q0 125 71 196.5t185 73.5q35 0 64 -14l-111 188zM365 72q156 0 155 180v561q0 174 -149 174 q-82 0 -123 -50t-41 -126v-567q0 -74 39 -123t119 -49z" />
<glyph unicode="&#xf1;" horiz-adv-x="761" d="M135 0v1061h94v-121h2q31 68 91.5 104.5t132.5 36.5q82 0 133 -50t51 -132v-899h-102v850q0 143 -125 143q-74 0 -124 -71.5t-50 -159.5v-762h-103zM233 1206l-71 11q8 66 44 109.5t91 43.5q37 0 107.5 -28.5t105.5 -28.5q27 0 41 17.5t24 53.5l70 -14q-8 -66 -45 -108.5 t-90 -42.5q-41 0 -113.5 29.5t-99.5 29.5q-29 0 -42.5 -16.5t-21.5 -55.5z" />
<glyph unicode="&#xf2;" horiz-adv-x="729" d="M362 -18q-125 0 -192.5 73.5t-67.5 206.5v543q0 129 74 202.5t191 73.5q119 0 189.5 -69.5t70.5 -196.5v-549q0 -139 -72 -211.5t-193 -72.5zM367 72q156 0 155 186v557q0 78 -40 128t-119.5 50t-117.5 -51t-38 -129v-555q0 -80 39 -133t121 -53zM326 1184l-179 284h123 l142 -284h-86z" />
<glyph unicode="&#xf3;" horiz-adv-x="729" d="M319 1184l142 284h123l-178 -284h-87zM362 -18q-125 0 -192.5 73.5t-67.5 206.5v543q0 129 74 202.5t191 73.5q119 0 189.5 -69.5t70.5 -196.5v-549q0 -139 -72 -211.5t-193 -72.5zM367 72q156 0 155 186v557q0 78 -40 128t-119.5 50t-117.5 -51t-38 -129v-555 q0 -80 39 -133t121 -53z" />
<glyph unicode="&#xf4;" horiz-adv-x="729" d="M193 1186l143 284h82l139 -284h-96l-88 190l-88 -190h-92zM362 -18q-125 0 -192.5 73.5t-67.5 206.5v543q0 129 74 202.5t191 73.5q119 0 189.5 -69.5t70.5 -196.5v-549q0 -139 -72 -211.5t-193 -72.5zM367 72q156 0 155 186v557q0 78 -40 128t-119.5 50t-117.5 -51 t-38 -129v-555q0 -80 39 -133t121 -53z" />
<glyph unicode="&#xf5;" horiz-adv-x="729" d="M362 -18q-125 0 -192.5 73.5t-67.5 206.5v543q0 129 74 202.5t191 73.5q119 0 189.5 -69.5t70.5 -196.5v-549q0 -139 -72 -211.5t-193 -72.5zM367 72q156 0 155 186v557q0 78 -40 128t-119.5 50t-117.5 -51t-38 -129v-555q0 -80 39 -133t121 -53zM205 1206l-72 11 q8 66 44 109.5t91 43.5q37 0 107.5 -28.5t105.5 -28.5q27 0 41.5 17.5t24.5 53.5l69 -14q-8 -66 -44.5 -108.5t-90.5 -42.5q-41 0 -113.5 29.5t-99.5 29.5q-29 0 -42 -16.5t-21 -55.5z" />
<glyph unicode="&#xf6;" horiz-adv-x="729" d="M205 1221v223h98v-223h-98zM442 1221v223h99v-223h-99zM362 -18q-125 0 -192.5 73.5t-67.5 206.5v543q0 129 74 202.5t191 73.5q119 0 189.5 -69.5t70.5 -196.5v-549q0 -139 -72 -211.5t-193 -72.5zM367 72q156 0 155 186v557q0 78 -40 128t-119.5 50t-117.5 -51 t-38 -129v-555q0 -80 39 -133t121 -53z" />
<glyph unicode="&#xf7;" horiz-adv-x="808" d="M356 293v182h101v-182h-101zM113 610v88h583v-88h-583zM356 817v180h101v-180h-101z" />
<glyph unicode="&#xf8;" horiz-adv-x="729" d="M201 -82l-72 23l39 114q-66 76 -66 207v543q0 129 74 202.5t191 73.5q86 0 147 -37l33 91l69 -23l-43 -121q53 -66 54 -176v-549q0 -139 -72 -211.5t-193 -72.5q-72 0 -131 26zM207 258q0 -39 8 -70l264 756q-39 49 -117 49q-80 0 -117.5 -51t-37.5 -129v-555zM367 72 q156 0 155 186v557q0 16 -2 25l-256 -736q40 -32 103 -32z" />
<glyph unicode="&#xf9;" horiz-adv-x="761" d="M305 -20q-80 0 -131 50t-51 134v897h102v-854q0 -137 125 -137q74 0 124 71.5t50 159.5v760h103v-1061h-95v123h-2q-33 -70 -93 -106.5t-132 -36.5zM346 1184l-178 284h123l141 -284h-86z" />
<glyph unicode="&#xfa;" horiz-adv-x="761" d="M336 1184l141 284h123l-178 -284h-86zM305 -20q-80 0 -131 50t-51 134v897h102v-854q0 -137 125 -137q74 0 124 71.5t50 159.5v760h103v-1061h-95v123h-2q-33 -70 -93 -106.5t-132 -36.5z" />
<glyph unicode="&#xfb;" horiz-adv-x="761" d="M211 1186l143 284h82l139 -284h-96l-88 190l-88 -190h-92zM305 -20q-80 0 -131 50t-51 134v897h102v-854q0 -137 125 -137q74 0 124 71.5t50 159.5v760h103v-1061h-95v123h-2q-33 -70 -93 -106.5t-132 -36.5z" />
<glyph unicode="&#xfc;" horiz-adv-x="761" d="M213 1221v223h98v-223h-98zM451 1221v223h98v-223h-98zM305 -20q-80 0 -131 50t-51 134v897h102v-854q0 -137 125 -137q74 0 124 71.5t50 159.5v760h103v-1061h-95v123h-2q-33 -70 -93 -106.5t-132 -36.5z" />
<glyph unicode="&#xfd;" horiz-adv-x="634" d="M141 -354q-51 0 -96 12l14 88q45 -10 76 -10q80 0 107 106l41 187l-236 1032h105l178 -817h4l160 817h96l-248 -1157q-25 -131 -72 -194.5t-129 -63.5zM301 1184l141 284h123l-178 -284h-86z" />
<glyph unicode="&#xfe;" horiz-adv-x="708" d="M115 -332v1792h100v-514h4q29 70 87.5 102.5t115.5 32.5q100 0 151.5 -61.5t51.5 -149.5v-655q0 -106 -63.5 -169.5t-158.5 -63.5q-59 0 -110 29.5t-74 84.5h-2v-428h-102zM379 72q66 0 103.5 41t37.5 116v611q0 68 -34.5 110.5t-106.5 42.5q-70 0 -116 -60.5t-46 -154.5 v-512q0 -86 46 -140t116 -54z" />
<glyph unicode="&#xff;" horiz-adv-x="634" d="M141 -354q-51 0 -96 12l14 88q45 -10 76 -10q80 0 107 106l41 187l-236 1032h105l178 -817h4l160 817h96l-248 -1157q-25 -131 -72 -194.5t-129 -63.5zM162 1221v223h98v-223h-98zM399 1221v223h99v-223h-99z" />
<glyph unicode="&#x152;" horiz-adv-x="1251" d="M418 -16q-147 0 -227 80.5t-80 238.5v860q0 154 88 238t231 84q154 0 221 -103v78h514v-92h-407v-551h329v-96h-329v-625h411v-96h-518v100q-29 -49 -92 -82.5t-141 -33.5zM436 78q106 0 159.5 65.5t53.5 161.5v879q0 94 -56 149.5t-161 55.5q-102 0 -156.5 -61.5 t-54.5 -156.5v-870q0 -94 55.5 -158.5t159.5 -64.5z" />
<glyph unicode="&#x153;" horiz-adv-x="1116" d="M362 -18q-125 0 -192.5 73.5t-67.5 206.5v543q0 129 74 202.5t191 73.5q143 0 211 -96q74 96 208 96q117 0 177.5 -73.5t60.5 -198.5v-299h-397v-219q0 -111 41 -164t145 -53q78 0 172 45l31 -78q-92 -59 -217 -59q-158 0 -226 94q-70 -94 -211 -94zM367 72 q156 0 155 186v557q0 78 -40 128t-119.5 50t-117.5 -51t-38 -129v-555q0 -80 39 -133t121 -53zM627 596h299v219q0 74 -35 125t-115 51q-76 0 -112.5 -52t-36.5 -124v-219z" />
<glyph unicode="&#x178;" horiz-adv-x="729" d="M313 0v645l-268 817h111l217 -674l209 674h102l-264 -821v-641h-107zM197 1620v223h98v-223h-98zM434 1620v223h98v-223h-98z" />
<glyph unicode="&#x2c6;" horiz-adv-x="563" d="M102 1186l144 284h82l139 -284h-96l-88 190l-88 -190h-93z" />
<glyph unicode="&#x2dc;" horiz-adv-x="630" d="M154 1206l-72 11q8 66 44 109.5t91 43.5q37 0 107.5 -28.5t105.5 -28.5q27 0 41 17.5t25 53.5l69 -14q-8 -66 -45 -108.5t-90 -42.5q-41 0 -113.5 29.5t-99.5 29.5q-29 0 -42 -16.5t-21 -55.5z" />
<glyph unicode="&#x2000;" horiz-adv-x="933" />
<glyph unicode="&#x2001;" horiz-adv-x="1869" />
<glyph unicode="&#x2002;" horiz-adv-x="933" />
<glyph unicode="&#x2003;" horiz-adv-x="1869" />
<glyph unicode="&#x2004;" horiz-adv-x="622" />
<glyph unicode="&#x2005;" horiz-adv-x="466" />
<glyph unicode="&#x2006;" horiz-adv-x="311" />
<glyph unicode="&#x2007;" horiz-adv-x="311" />
<glyph unicode="&#x2008;" horiz-adv-x="233" />
<glyph unicode="&#x2009;" horiz-adv-x="372" />
<glyph unicode="&#x200a;" horiz-adv-x="102" />
<glyph unicode="&#x2010;" horiz-adv-x="448" d="M57 561v98h332v-98h-332z" />
<glyph unicode="&#x2011;" horiz-adv-x="448" d="M57 561v98h332v-98h-332z" />
<glyph unicode="&#x2012;" horiz-adv-x="448" d="M57 561v98h332v-98h-332z" />
<glyph unicode="&#x2013;" horiz-adv-x="733" d="M0 569v86h733v-86h-733z" />
<glyph unicode="&#x2014;" horiz-adv-x="1228" d="M0 569v86h1229v-86h-1229z" />
<glyph unicode="&#x2018;" horiz-adv-x="309" d="M100 1075v191l41 198h62l-33 -190h35v-199h-105z" />
<glyph unicode="&#x2019;" horiz-adv-x="311" d="M106 1073l31 189h-33v200h105v-192l-43 -197h-60z" />
<glyph unicode="&#x201a;" horiz-adv-x="309" d="M117 -109l10 115l-25 74l29 127l78 -74l-14 -199l-45 -120z" />
<glyph unicode="&#x201c;" horiz-adv-x="544" d="M100 1075v191l41 198h62l-33 -190h35v-199h-105zM336 1075v191l45 198h57l-30 -190h34v-199h-106z" />
<glyph unicode="&#x201d;" horiz-adv-x="544" d="M106 1073l31 189h-35v200h107v-192l-43 -197h-60zM342 1073l31 189h-35v200h106v-192l-43 -197h-59z" />
<glyph unicode="&#x201e;" horiz-adv-x="544" d="M106 -186l31 192h-35v201h107v-195l-43 -198h-60zM342 -186l31 192h-35v201h106v-195l-43 -198h-59z" />
<glyph unicode="&#x2022;" horiz-adv-x="706" d="M354.5 481q-94.5 0 -162 66.5t-67.5 161t67.5 161t161.5 66.5q92 0 159 -66.5t67 -161t-65.5 -161t-160 -66.5z" />
<glyph unicode="&#x2026;" horiz-adv-x="905" d="M104 0v205h105v-205h-105zM399 0v205h107v-205h-107zM696 0v205h107v-205h-107z" />
<glyph unicode="&#x202f;" horiz-adv-x="372" />
<glyph unicode="&#x2039;" horiz-adv-x="391" d="M240 291l-181 274l174 279l70 -43l-125 -234l131 -235z" />
<glyph unicode="&#x203a;" horiz-adv-x="391" d="M133 291l-70 43l125 233l-129 234l70 43l180 -275z" />
<glyph unicode="&#x205f;" horiz-adv-x="466" />
<glyph unicode="&#x20ac;" horiz-adv-x="866" d="M494 -18q-147 0 -232.5 78.5t-85.5 218.5v282h-108v84h108v184h-108v82h108v260q0 137 85 225.5t233 88.5q141 0 220 -79t79 -194v-204h-97v190q0 90 -52 142.5t-155 52.5q-205 0 -204 -228v-254h313v-82h-313v-184h313v-84h-313v-260q0 -106 54 -166.5t155 -60.5 q102 0 152 57t50 145v173h97v-181q0 -129 -80 -207.5t-219 -78.5z" />
<glyph unicode="&#x2122;" horiz-adv-x="903" d="M436 803v659h88l105 -293l102 293h86v-659h-69v512l-93 -262h-55l-94 264v-514h-70zM172 803v594h-123v65h320v-65h-123v-594h-74z" />
<glyph unicode="&#xe000;" horiz-adv-x="1060" d="M0 1060h1060v-1060h-1060v1060z" />
<glyph unicode="&#xe38c;" horiz-adv-x="776" d="M561 0v1061h103v-1061h-103zM561 1268v200h103v-200h-103zM174 0v975h-111v84h111v233q0 82 49 134.5t133 52.5q53 0 82 -11v-82q-33 6 -71.5 6.5t-64.5 -25.5t-26 -75v-233h142v-84h-142v-975h-102z" />
<glyph unicode="&#xfb01;" horiz-adv-x="776" d="M561 0v1061h103v-1061h-103zM561 1268v200h103v-200h-103zM174 0v975h-111v84h111v233q0 82 49 134.5t133 52.5q53 0 82 -11v-82q-33 6 -71.5 6.5t-64.5 -25.5t-26 -75v-233h142v-84h-142v-975h-102z" />
<glyph unicode="&#xe38d;" horiz-adv-x="843" d="M702 -10q-143 0 -143 145v1325h103v-1304q0 -72 73 -72q27 0 56 6v-86q-44 -14 -89 -14zM174 0v975h-111v84h111v233q0 82 49 134.5t133 52.5q53 0 82 -11v-82q-33 6 -71.5 6.5t-64.5 -25.5t-26 -75v-233h142v-84h-142v-975h-102z" />
<glyph unicode="&#xfb02;" horiz-adv-x="843" d="M702 -10q-143 0 -143 145v1325h103v-1304q0 -72 73 -72q27 0 56 6v-86q-44 -14 -89 -14zM174 0v975h-111v84h111v233q0 82 49 134.5t133 52.5q53 0 82 -11v-82q-33 6 -71.5 6.5t-64.5 -25.5t-26 -75v-233h142v-84h-142v-975h-102z" />
<glyph unicode="&#xfb03;" horiz-adv-x="1343" d="M1106 0v1061h103v-1061h-103zM1106 1268v200h103v-200h-103zM669 0v975h-110v84h110v233q0 82 49.5 134.5t133.5 52.5q53 0 82 -11v-82q-35 6 -72 7q-39 0 -64.5 -26t-25.5 -75v-233h141v-84h-141v-975h-103zM184 0v975h-110v84h110v233q0 82 49.5 134.5t133.5 52.5 q53 0 82 -11v-82q-35 6 -72 7q-39 0 -64.5 -26t-25.5 -75v-233h141v-84h-141v-975h-103z" />
<glyph unicode="&#xfb04;" horiz-adv-x="1378" d="M1245 -10q-143 0 -143 145v1325h102v-1304q0 -72 74 -72q29 0 55 6v-86q-43 -14 -88 -14zM669 0v975h-110v84h110v233q0 82 49.5 134.5t133.5 52.5q53 0 82 -11v-82q-35 6 -72 7q-39 0 -64.5 -26t-25.5 -75v-233h141v-84h-141v-975h-103zM184 0v975h-110v84h110v233 q0 82 49.5 134.5t133.5 52.5q53 0 82 -11v-82q-35 6 -72 7q-39 0 -64.5 -26t-25.5 -75v-233h141v-84h-141v-975h-103z" />
<glyph horiz-adv-x="200" />
</font>
</defs>
</svg>
