<?xml version="1.0" standalone="no"?>
<!DOCTYPE svg PUBLIC "-//W3C//DTD SVG 1.1//EN" "http://www.w3.org/Graphics/SVG/1.1/DTD/svg11.dtd" >
<svg xmlns="http://www.w3.org/2000/svg">
<metadata>
This is a custom SVG webfont generated by Font Squirrel.
Copyright   : Copyright c 2008 by Mrio Feliciano All rights reserved
Designer    : Mrio Feliciano
Foundry     : Mrio Feliciano  Feliciano Type Foundry
Foundry URL : wwwfelicianotypefoundrycom
</metadata>
<defs>
<font id="webfontiXOGc0WR" horiz-adv-x="909" >
<font-face units-per-em="2048" ascent="1638" descent="-410" />
<missing-glyph horiz-adv-x="292" />
<glyph unicode=" "  horiz-adv-x="292" />
<glyph unicode="&#x09;" horiz-adv-x="292" />
<glyph unicode="&#xa0;" horiz-adv-x="292" />
<glyph unicode="!" horiz-adv-x="380" d="M141 395l-28 518v549h157v-549l-24 -518h-105zM113 0v242h157v-242h-157z" />
<glyph unicode="&#x22;" horiz-adv-x="600" d="M117 1016l-25 237v209h148v-209l-25 -237h-98zM385 1016l-23 237v209h148v-209l-23 -237h-102z" />
<glyph unicode="#" horiz-adv-x="839" d="M152 -4l36 401h-137l8 111h140l53 473h-146l11 106h141l43 379h102l-41 -379h193l39 379h102l-37 -379h138l-9 -106h-139l-49 -473h139l-6 -111h-143l-39 -401h-107l41 401h-190l-41 -401h-102zM305 508h191l51 473h-193z" />
<glyph unicode="$" horiz-adv-x="749" d="M342 -70v125q-119 12 -195.5 92t-85.5 224l152 6q20 -199 176 -199q76 0 113 51.5t37 124.5q0 121 -121 252l-160 172q-170 184 -170 326q0 115 67.5 193.5t186.5 93.5v137h115v-137q215 -29 231 -291l-139 -2q-14 178 -158 178q-70 0 -109.5 -41t-39.5 -117 q0 -90 133 -235l147 -158q84 -98 127 -180t43 -174q0 -125 -62.5 -207t-172.5 -103v-131h-115z" />
<glyph unicode="%" horiz-adv-x="1150" d="M283 748q-92 0 -149.5 55t-57.5 153v314q0 98 57 154.5t150 56.5q94 0 151.5 -55.5t57.5 -155.5v-318q0 -94 -59.5 -149t-149.5 -55zM283 848q47 0 70.5 30.5t23.5 69.5v332q0 39 -24.5 69.5t-69.5 30.5q-92 0 -93 -100v-332q1 -100 93 -100zM246 -4l567 1470h100 l-563 -1470h-104zM866 -23q-92 0 -149.5 54.5t-57.5 152.5v305q0 100 57.5 162t149.5 62t150.5 -56.5t58.5 -156.5v-316q0 -92 -60.5 -149.5t-148.5 -57.5zM864 80q47 0 70.5 29.5t23.5 70.5v334q0 37 -23.5 67.5t-70.5 30.5q-45 0 -67.5 -29.5t-22.5 -68.5v-334 q0 -100 90 -100z" />
<glyph unicode="&#x26;" horiz-adv-x="987" d="M395 -25q-156 0 -235.5 111t-79.5 289q0 293 229 428q-127 211 -127 364q0 131 74 225.5t221 94.5q131 0 204 -85t73 -216q0 -270 -244 -418q2 -4 102.5 -175t102.5 -177q37 123 57 246l133 -15q-29 -188 -110 -381q2 -4 75.5 -130t75.5 -136h-180l-84 141 q-113 -166 -287 -166zM424 121q115 0 192 137q-4 6 -120.5 210t-120.5 214q-133 -88 -133 -297q0 -106 47 -185t135 -79zM449 879q160 104 159 303q0 78 -35.5 129t-99.5 51q-68 0 -101.5 -52.5t-33.5 -129.5q0 -100 111 -301z" />
<glyph unicode="'" horiz-adv-x="331" d="M117 1016l-25 237v209h148v-209l-25 -237h-98z" />
<glyph unicode="(" horiz-adv-x="407" d="M291 -352q-94 176 -146.5 433t-52.5 488q0 240 51.5 483.5t147.5 426.5l96 -9q-84 -279 -117.5 -456.5t-33.5 -446.5q0 -438 151 -909z" />
<glyph unicode=")" horiz-adv-x="407" d="M115 -352l-97 10q152 461 152 909q0 268 -33 445.5t-117 457.5l95 9q96 -184 148 -427t52 -483q0 -231 -53 -488t-147 -433z" />
<glyph unicode="*" horiz-adv-x="649" d="M193 920l-84 55l122 184l-186 115l49 84l182 -107v211h101v-211l178 107l51 -84l-188 -115l125 -184l-84 -55l-133 192z" />
<glyph unicode="+" horiz-adv-x="837" d="M362 313v281h-264v119h264v280h115l-2 -280h262v-119h-260v-281h-115z" />
<glyph unicode="," horiz-adv-x="344" d="M104 -215l48 225h-58v232h158v-224l-64 -233h-84z" />
<glyph unicode="-" horiz-adv-x="462" d="M55 545v135h353v-135h-353z" />
<glyph unicode="." horiz-adv-x="344" d="M94 0v242h158v-242h-158z" />
<glyph unicode="/" horiz-adv-x="491" d="M-12 -342l344 1810h117l-340 -1810h-121z" />
<glyph unicode="0" horiz-adv-x="821" d="M410 -20q-141 0 -228.5 78.5t-87.5 224.5v907q0 139 92.5 216t227.5 77q133 0 222 -75t89 -212v-915q0 -145 -89 -223t-226 -78zM414 123q76 0 112.5 44t36.5 109v920q0 61 -41 104t-110 43q-72 0 -112 -43t-40 -102v-924q0 -63 40 -107t114 -44z" />
<glyph unicode="1" horiz-adv-x="526" d="M201 0v1290l-115 -35l-20 121l200 86h96v-1462h-161z" />
<glyph unicode="2" horiz-adv-x="724" d="M82 0v106l209 375q190 352 190 617v35q-8 211 -131 210q-66 0 -96.5 -46t-30.5 -115v-88h-147v75q0 143 74.5 228.5t209.5 85.5q283 0 283 -357q0 -195 -60.5 -364.5t-174.5 -374.5l-134 -242v-2h381v-143h-573z" />
<glyph unicode="3" horiz-adv-x="747" d="M367 -20q-299 0 -299 331v64h153v-70q0 -84 37 -134t104 -50q76 0 111 64.5t35 222.5q0 147 -52.5 207.5t-123.5 60.5h-94v149h94q158 0 157 273q0 246 -135 245q-129 0 -129 -174v-73h-149v69q0 156 76.5 237t216.5 81q141 0 211.5 -102.5t70.5 -266.5q0 -293 -168 -352 v-6q94 -29 142.5 -130.5t48.5 -226.5q0 -205 -86 -312t-221 -107z" />
<glyph unicode="4" horiz-adv-x="792" d="M457 0v375h-398v133l349 952h167l-366 -944h248v299l149 113v-412h117v-141h-117v-375h-149z" />
<glyph unicode="5" horiz-adv-x="782" d="M383 -20q-145 0 -219 81.5t-74 214.5v105h152v-86q0 -76 37.5 -124t105.5 -48q66 0 105.5 54t39.5 155v276q0 190 -141 191q-84 0 -141 -92l-139 8l28 745h512v-141h-379q0 -162 -16 -463q80 76 192 76q106 0 176 -70.5t70 -212.5v-321q0 -160 -85 -254t-224 -94z" />
<glyph unicode="6" horiz-adv-x="794" d="M395 -20q-141 0 -221 85t-80 224v891q0 145 87 224t225 79q133 0 209.5 -73t76.5 -191v-117h-153v100q0 61 -35 102.5t-103 41.5q-72 0 -107.5 -47.5t-35.5 -112.5v-385q74 98 205 98q111 0 176.5 -63.5t65.5 -176.5v-385q0 -137 -85.5 -215.5t-224.5 -78.5zM401 119 q72 0 107 45t35 106v371q0 66 -35 99.5t-94 33.5q-68 0 -111 -49t-45 -115v-336q0 -61 36.5 -108t106.5 -47z" />
<glyph unicode="7" horiz-adv-x="710" d="M197 0q2 387 85 737t203 578h-417v145h587v-123q-145 -254 -220 -611t-77 -726h-161z" />
<glyph unicode="8" horiz-adv-x="782" d="M387 -18q-137 0 -221 74.5t-84 207.5v264q0 156 135 226q-57 27 -89 84t-32 127v239q0 131 85 205t214 74q127 0 210 -68.5t83 -200.5v-241q0 -154 -123 -219q59 -27 97 -83.5t38 -131.5v-273q0 -137 -87 -210.5t-226 -73.5zM391 117q70 0 108 41t38 104v285 q0 63 -42 104t-104 41q-63 0 -104 -41t-41 -100v-291q0 -59 39.5 -101t105.5 -42zM393 815q63 0 102.5 43t39.5 103v253q0 59 -41 96.5t-103 37.5q-59 0 -99 -38t-40 -93v-256q0 -61 41 -103.5t100 -42.5z" />
<glyph unicode="9" horiz-adv-x="792" d="M391 -20q-133 0 -211 75.5t-78 200.5v115h152v-99q0 -68 36 -108.5t101 -40.5q68 0 106 46t38 118v389q-72 -104 -203 -105q-111 0 -175.5 63.5t-64.5 176.5v377q0 137 84 216t223.5 79t219 -84t79.5 -221v-867q0 -154 -85 -242.5t-222 -88.5zM381 692q59 0 106.5 48 t47.5 112v344q0 59 -38 106.5t-106 47.5q-72 0 -106.5 -48.5t-34.5 -109.5v-363q0 -63 37 -100t94 -37z" />
<glyph unicode=":" horiz-adv-x="344" d="M94 0v242h158v-242h-158zM96 817v244h156v-244h-156z" />
<glyph unicode=";" horiz-adv-x="346" d="M104 -215l48 225h-56v232h156v-224l-64 -233h-84zM96 817v244h156v-244h-156z" />
<glyph unicode="&#x3c;" horiz-adv-x="833" d="M662 334l-549 272l2 96l549 269l53 -109l-434 -207l434 -215z" />
<glyph unicode="=" horiz-adv-x="833" d="M98 440v123h635v-123h-635zM98 725v123h635v-123h-635z" />
<glyph unicode="&#x3e;" horiz-adv-x="833" d="M172 336l-55 106l432 213l-434 209l55 107l549 -269v-94z" />
<glyph unicode="?" horiz-adv-x="706" d="M260 397v70q4 174 105 336q37 57 56 93t36.5 97.5t17.5 126.5q0 223 -131 223q-59 0 -93 -49t-34 -131v-100h-139v90q0 156 73.5 243t204.5 87q135 0 206 -96.5t73 -262.5q0 -78 -23.5 -154.5t-45 -115.5t-62.5 -102q-98 -158 -101 -258v-97h-143zM258 0v242h156v-242 h-156z" />
<glyph unicode="@" horiz-adv-x="1400" d="M737 -158q-233 0 -379 105q-281 178 -280 620q0 369 189.5 599.5t496.5 230.5q240 0 400.5 -159t160.5 -466q0 -262 -126 -429t-302 -187h-127l18 123h-6q-84 -141 -223 -142q-86 0 -133 48t-47 130q0 25 4 58l74 489q18 111 92 173.5t168 62.5q57 0 104 -27t64 -80h2 l18 99h139l-126 -842q133 16 223 168.5t90 351.5q0 274 -133 412.5t-340 138.5q-274 0 -429 -211t-155 -537q0 -410 254 -565q137 -82 315 -82q158 0 340 53l17 -71q-160 -64 -363 -64zM633 260q63 0 113.5 57.5t64.5 141.5l51 346q4 25 4 37q0 66 -33.5 102.5t-87.5 36.5 q-125 0 -151 -156l-62 -417q-4 -25 -4 -48q1 -100 105 -100z" />
<glyph unicode="A" horiz-adv-x="931" d="M57 0l299 1464h226l292 -1464h-169l-84 436h-324l-82 -436h-158zM326 575h266l-129 695h-6z" />
<glyph unicode="B" horiz-adv-x="870" d="M119 0v1460h350q299 0 299 -364q0 -139 -52 -229.5t-143 -108.5v-8q207 -45 207 -344q0 -209 -81 -307.5t-220 -98.5h-360zM287 139h157q166 0 166 277q0 262 -190 262h-133v-539zM287 815h131q84 0 135 64.5t51 197.5q0 244 -162 244h-155v-506z" />
<glyph unicode="C" horiz-adv-x="872" d="M455 -20q-162 0 -259.5 86t-97.5 241v842q0 152 97.5 243t259.5 91q152 0 241.5 -83t89.5 -214v-166h-151v141q0 80 -47 128t-135 48q-94 0 -139.5 -53t-45.5 -141v-817q0 -96 49.5 -146.5t139.5 -50.5q84 0 131 49t47 125v143h151v-151q0 -141 -90.5 -228t-240.5 -87z " />
<glyph unicode="D" horiz-adv-x="903" d="M119 0v1460h346q152 0 246 -77.5t94 -229.5v-821q0 -162 -95.5 -247t-248.5 -85h-342zM287 147h162q96 0 140 55.5t44 131.5v803q0 78 -47 128t-137 50h-162v-1168z" />
<glyph unicode="E" horiz-adv-x="776" d="M119 0v1460h579v-143h-411v-481h329v-146h-329v-543h413v-147h-581z" />
<glyph unicode="F" horiz-adv-x="753" d="M119 0v1460h577v-143h-409v-486h325v-147h-325v-684h-168z" />
<glyph unicode="G" horiz-adv-x="890" d="M457 -20q-164 0 -261.5 87t-97.5 242v838q0 152 97.5 245t259.5 93q152 0 244 -83t92 -214v-162h-154v141q0 80 -48 127t-134 47q-96 0 -141.5 -56t-45.5 -146v-817q0 -92 49.5 -143.5t137.5 -51.5q180 0 180 178v328h-193v135h353v-475q0 -141 -91 -227t-247 -86z" />
<glyph unicode="H" horiz-adv-x="937" d="M119 0v1460h170v-635h362v635h168v-1460h-168v670h-362v-670h-170z" />
<glyph unicode="I" horiz-adv-x="407" d="M119 0v1460h170v-1460h-170z" />
<glyph unicode="J" horiz-adv-x="841" d="M401 -20q-156 0 -239.5 82.5t-83.5 236.5v238h162v-232q0 -180 163 -180q160 0 160 180v1155h168v-1145q0 -154 -86 -244.5t-244 -90.5z" />
<glyph unicode="K" horiz-adv-x="878" d="M119 0v1460h170v-719l362 719h170l-284 -557l288 -903h-180l-231 745l-125 -233v-512h-170z" />
<glyph unicode="L" horiz-adv-x="749" d="M119 0v1460h168v-1313h413v-147h-581z" />
<glyph unicode="M" horiz-adv-x="1089" d="M119 0v1460h205l221 -631h4l225 631h197v-1460h-154v1159h-4l-213 -606h-115l-211 604h-4v-1157h-151z" />
<glyph unicode="N" horiz-adv-x="948" d="M119 0v1460h182l375 -1032h4v1032h147v-1460h-155l-398 1120h-6v-1120h-149z" />
<glyph unicode="O" d="M453 -20q-164 0 -259.5 89t-95.5 259v809q0 164 100.5 255t260.5 91q158 0 255 -84t97 -246v-817q0 -172 -99 -264t-259 -92zM457 131q92 0 139 55.5t47 139.5v827q0 82 -50 132t-140 50q-88 0 -135.5 -53t-47.5 -135v-821q0 -84 48.5 -139.5t138.5 -55.5z" />
<glyph unicode="P" horiz-adv-x="862" d="M119 0v1460h327q170 0 250 -112.5t80 -311.5q0 -209 -86 -327.5t-258 -118.5h-143v-590h-170zM289 731h125q197 0 196 303q0 281 -186 281h-135v-584z" />
<glyph unicode="Q" d="M760 -156l-209 152q-45 -16 -98 -16q-164 0 -259.5 89t-95.5 259v809q0 164 100.5 255t260.5 91q158 0 256 -84t98 -246v-817q0 -170 -108 -252l159 -109zM457 131q92 0 139 55.5t47 139.5v827q0 84 -49 133t-139 49t-137.5 -53t-47.5 -135v-821q0 -84 48.5 -139.5 t138.5 -55.5z" />
<glyph unicode="R" horiz-adv-x="882" d="M119 0v1460h321q172 0 259 -104.5t87 -300.5q0 -152 -52 -250t-142 -129l209 -676h-172l-195 637h-145v-637h-170zM289 768h147q180 0 180 272q0 276 -186 277h-141v-549z" />
<glyph unicode="S" horiz-adv-x="798" d="M406 -20q-150 0 -237 95t-97 269l159 6q23 -233 177 -233q84 0 121.5 59.5t37.5 145.5q0 137 -127 276l-172 195q-174 184 -174 362q0 143 83 235.5t235 92.5q285 0 303 -342l-152 -4q-12 109 -50 159t-112 50q-150 0 -149 -177q0 -100 143 -262l152 -172 q180 -197 180 -403q0 -158 -84.5 -255t-236.5 -97z" />
<glyph unicode="T" horiz-adv-x="815" d="M324 0v1317h-279v143h725v-143h-278v-1317h-168z" />
<glyph unicode="U" horiz-adv-x="915" d="M453 -20q-156 0 -248 85t-92 248v1147h168v-1130q0 -98 52 -149.5t132 -51.5q90 0 135 54q41 50 41 130v15v1132h160v-1134q2 -160 -94 -253t-254 -93z" />
<glyph unicode="V" horiz-adv-x="811" d="M319 -10l-280 1470h168l203 -1136h4l204 1136h154l-276 -1470h-177z" />
<glyph unicode="W" horiz-adv-x="1191" d="M268 -10l-215 1470h168l135 -1067h6l160 1067h168l160 -1065h4l133 1065h152l-207 -1470h-158l-172 1116h-6l-170 -1116h-158z" />
<glyph unicode="X" horiz-adv-x="808" d="M39 0l272 739l-258 721h176l183 -528l182 528h158l-256 -708l274 -752h-176l-197 557l-196 -557h-162z" />
<glyph unicode="Y" horiz-adv-x="794" d="M315 0v623l-280 839h176l199 -633l190 633h160l-277 -844v-618h-168z" />
<glyph unicode="Z" horiz-adv-x="727" d="M66 0v121l413 1196h-401v143h590v-119l-414 -1194h408v-147h-596z" />
<glyph unicode="[" horiz-adv-x="430" d="M109 -344v1804h284v-98h-145v-1608h145v-98h-284z" />
<glyph unicode="\" horiz-adv-x="491" d="M377 -346l-348 1812h114l355 -1812h-121z" />
<glyph unicode="]" horiz-adv-x="430" d="M39 -344v100h145v1606h-145v98h285v-1804h-285z" />
<glyph unicode="^" horiz-adv-x="722" d="M145 418l158 657h121l141 -657h-119l-86 438q-94 -434 -94 -438h-121z" />
<glyph unicode="_" horiz-adv-x="776" d="M0 -238v119h776v-119h-776z" />
<glyph unicode="`" horiz-adv-x="450" d="M246 1190l-189 293h170l140 -293h-121z" />
<glyph unicode="a" horiz-adv-x="747" d="M295 -18q-96 0 -158.5 80.5t-62.5 240.5q0 156 90 249t231 97h86v207q0 51 -30.5 81t-88.5 30q-121 0 -120 -109v-108h-146v110q0 104 76 169t205 65q121 0 191.5 -64.5t70.5 -173.5v-596q0 -80 8 -260h-143q0 4 -3 47t-3 70h-6q-27 -68 -83.5 -101.5t-113.5 -33.5z M344 109q55 0 96 52t41 122v262h-82q-70 0 -118 -53.5t-48 -169.5q0 -213 111 -213z" />
<glyph unicode="b" horiz-adv-x="790" d="M455 -18q-61 0 -113.5 32.5t-75.5 87.5h-2l-4 -102h-141v1460h157v-489h5q33 63 88 94t112 31q106 0 161.5 -66.5t55.5 -161.5v-639q0 -115 -68.5 -181t-174.5 -66zM424 113q117 0 117 133v583q0 131 -119 132q-59 0 -102.5 -58.5t-43.5 -142.5v-459q0 -76 44.5 -132 t103.5 -56z" />
<glyph unicode="c" horiz-adv-x="731" d="M379 -20q-133 0 -210 76.5t-77 217.5v525q0 139 82 217t209 78q129 0 199.5 -69t70.5 -175v-109h-141v99q0 51 -30.5 87t-96.5 36q-70 0 -101.5 -43t-31.5 -109v-543q0 -156 133 -155q127 0 127 131v92h141v-105q0 -115 -72.5 -183t-201.5 -68z" />
<glyph unicode="d" horiz-adv-x="792" d="M313 -18q-109 0 -165 65.5t-56 165.5v639q0 109 66.5 175.5t169.5 66.5q129 0 184 -105h2v471h160v-1460h-139l-7 121h-6q-33 -72 -91.5 -105.5t-117.5 -33.5zM369 117q61 0 104 61.5t43 143.5v452q0 76 -45 133.5t-102 57.5q-117 0 -117 -142v-571q0 -135 117 -135z" />
<glyph unicode="e" horiz-adv-x="739" d="M397 -20q-143 0 -224 76.5t-81 228.5v497q0 145 82 228.5t213 83.5q129 0 198.5 -78t69.5 -211v-316h-403v-182q0 -98 40 -145t132 -47q80 0 184 43l37 -115q-111 -63 -248 -63zM252 610h258v203q0 63 -30.5 106.5t-98.5 43.5q-66 0 -97.5 -45.5t-31.5 -108.5v-199z" />
<glyph unicode="f" horiz-adv-x="524" d="M176 0v942h-106v127h106v203q0 94 57.5 150.5t151.5 56.5q66 0 104 -13v-120q-35 6 -73 6q-37 0 -60.5 -23.5t-23.5 -68.5v-191h135v-127h-135v-942h-156z" />
<glyph unicode="g" horiz-adv-x="790" d="M348 -348q-139 0 -246 49l48 127q104 -43 194 -43q170 0 170 178v195h-4q-29 -63 -84 -98t-113 -35q-109 0 -165 67.5t-56 171.5v578q0 117 67.5 184.5t170.5 67.5q59 0 114.5 -30t77.5 -89h4v100h146v-1102q0 -158 -86 -239.5t-238 -81.5zM369 156q59 0 102 55t43 135 v434q0 78 -46 133.5t-103 55.5q-53 0 -84 -39t-31 -107v-530q0 -137 119 -137z" />
<glyph unicode="h" horiz-adv-x="802" d="M119 0v1460h157v-497h3q68 131 219 131q86 0 141 -53.5t55 -143.5v-897h-157v831q0 129 -113 130q-61 0 -104.5 -61.5t-43.5 -139.5v-760h-157z" />
<glyph unicode="i" horiz-adv-x="395" d="M119 0v1073h157v-1073h-157zM119 1253v228h157v-228h-157z" />
<glyph unicode="j" horiz-adv-x="397" d="M82 -348q-27 0 -84 8v125h45q80 0 80 98v1190h158v-1212q0 -96 -52.5 -152.5t-146.5 -56.5zM123 1253v228h158v-228h-158z" />
<glyph unicode="k" horiz-adv-x="739" d="M119 0v1460h157v-880l256 493h162l-202 -368l202 -705h-166l-153 561l-99 -174v-387h-157z" />
<glyph unicode="l" horiz-adv-x="436" d="M287 -12q-172 0 -172 170v1302h157v-1261q0 -66 68 -66q25 0 53 6v-133q-53 -18 -106 -18z" />
<glyph unicode="m" horiz-adv-x="1222" d="M119 0v1073h151v-115h2q68 135 226 136q70 0 121 -36t65 -97h2q76 133 232 133q84 0 140 -54.5t56 -142.5v-897h-158v831q0 129 -112 130q-61 0 -103.5 -55.5t-46.5 -127.5v-778h-157v834q-4 127 -113 127q-61 0 -104.5 -60.5t-43.5 -138.5v-762h-157z" />
<glyph unicode="n" horiz-adv-x="802" d="M119 0v1073h151v-112h2q68 133 226 133q86 0 141 -53.5t55 -143.5v-897h-157v831q0 129 -113 130q-61 0 -104.5 -60.5t-43.5 -138.5v-762h-157z" />
<glyph unicode="o" horiz-adv-x="774" d="M385 -20q-135 0 -214 77.5t-79 221.5v520q0 139 84 217t213 78t211 -75t82 -212v-526q0 -145 -83 -223t-214 -78zM389 113q133 0 133 157v539q0 66 -34.5 110t-102.5 44t-100.5 -44.5t-32.5 -111.5v-537q0 -68 33.5 -112.5t103.5 -44.5z" />
<glyph unicode="p" horiz-adv-x="790" d="M119 -332v1405h151v-110h4q31 63 90.5 97t116.5 34q106 0 161.5 -65.5t55.5 -166.5v-635q0 -111 -63.5 -179t-171.5 -68q-55 0 -106.5 28.5t-77.5 79.5h-3v-420h-157zM426 115q115 0 115 135v579q0 129 -119 129q-63 0 -104.5 -54t-41.5 -138v-475q0 -78 42 -127t108 -49 z" />
<glyph unicode="q" horiz-adv-x="790" d="M514 -332v428h-2q-74 -117 -199 -116q-106 0 -163.5 65.5t-57.5 167.5v639q0 106 66.5 174t173.5 68q143 0 194 -121h4l2 100h140v-1405h-158zM373 113q57 0 99 57t42 133v473q0 80 -44 136.5t-103 56.5q-55 0 -86 -39t-31 -105v-571q0 -63 32 -102t91 -39z" />
<glyph unicode="r" horiz-adv-x="557" d="M119 0v1073h155v-121h2q57 129 187 129q41 0 55 -4v-153q-10 0 -26.5 2t-27.5 3t-20 1q-74 0 -119.5 -42t-48.5 -124v-764h-157z" />
<glyph unicode="s" horiz-adv-x="667" d="M342 -18q-121 0 -194.5 71.5t-81.5 206.5l151 2q16 -154 127 -153.5t111 122.5q0 84 -127 224l-95 104q-72 78 -106.5 142.5t-34.5 142.5q0 104 66.5 177t195.5 73q111 0 178.5 -68t73.5 -205l-141 -6q-8 84 -35 120t-82 36q-51 0 -79.5 -31t-28.5 -80q0 -74 96 -178 l117 -129q154 -172 153 -311q0 -109 -67.5 -184.5t-196.5 -75.5z" />
<glyph unicode="t" horiz-adv-x="538" d="M346 -14q-78 0 -128 40t-50 128v784h-107v131h107v244h156v-244h170v-131h-170v-739q0 -74 65 -74q49 0 88 14v-129q-74 -24 -131 -24z" />
<glyph unicode="u" horiz-adv-x="802" d="M305 -23q-86 0 -141 55.5t-55 145.5v895h157v-833q0 -125 113 -125q61 0 104 60.5t43 135.5v762h158v-1073h-152v117h-2q-73 -140 -225 -140z" />
<glyph unicode="v" horiz-adv-x="686" d="M262 -4l-227 1077h166l147 -809h4l154 809h147l-227 -1077h-164z" />
<glyph unicode="w" horiz-adv-x="1042" d="M233 -2l-188 1075h166l108 -751h7l129 751h155l131 -751h7l108 751h148l-189 -1075h-143l-142 797h-6l-143 -797h-148z" />
<glyph unicode="x" horiz-adv-x="684" d="M29 0l227 547l-213 526h166l145 -381l142 381h143l-209 -516l227 -557h-165l-158 406l-160 -406h-145z" />
<glyph unicode="y" horiz-adv-x="688" d="M170 -352q-59 0 -115 14l19 129q45 -12 80 -12q76 0 98 92l35 152l-252 1050h164l161 -766h7l143 766h145l-254 -1159q-31 -137 -85 -201.5t-146 -64.5z" />
<glyph unicode="z" horiz-adv-x="622" d="M61 0v109l328 833h-321v131h497v-121l-323 -819h325v-133h-506z" />
<glyph unicode="{" horiz-adv-x="448" d="M262 -344q-137 0 -137 139v658q0 51 -14.5 75.5t-53.5 28.5v105q39 8 53.5 28.5t14.5 61.5v557q0 74 37 112.5t100 38.5h148v-98h-111q-37 0 -37 -47v-543q0 -125 -80 -156v-8q45 -18 62.5 -54t17.5 -99v-654q0 -47 37 -47h111v-98h-148z" />
<glyph unicode="|" horiz-adv-x="483" d="M186 -213v1677h111v-1677h-111z" />
<glyph unicode="}" horiz-adv-x="448" d="M33 -344v98h110q37 0 37 47v654q0 63 17.5 99t64.5 54v8q-82 31 -82 156v543q0 49 -37 49h-110v98h147q137 0 137 -151v-559q0 -41 14.5 -61.5t53.5 -28.5v-105q-39 -4 -53.5 -28.5t-14.5 -75.5v-658q0 -139 -137 -139h-147z" />
<glyph unicode="~" horiz-adv-x="821" d="M178 539l-84 14q23 188 150 188q43 0 170 -27.5t161 -27.5q49 0 68 74l84 -17q-10 -82 -47 -135t-100 -53q-41 0 -172.5 29.5t-161.5 29.5q-50 1 -68 -75z" />
<glyph unicode="&#xa1;" horiz-adv-x="380" d="M242 752l28 -519v-548h-157v548l24 519h105zM270 1147v-242h-157v242h157z" />
<glyph unicode="&#xa2;" horiz-adv-x="724" d="M307 -113v160q-109 14 -167 88t-58 197v491q0 123 60.5 195t164.5 90v162h135v-162q98 -18 151.5 -84t53.5 -158v-114h-145v110q0 51 -30 88t-97 37q-133 0 -133 -151v-510q0 -160 133 -160q127 0 127 133v117h145v-127q0 -98 -53 -162t-152 -78v-162h-135z" />
<glyph unicode="&#xa3;" horiz-adv-x="845" d="M76 0v139h104v541h-92v121h92v381q0 150 88 225.5t224 75.5q127 0 200.5 -70t73.5 -186v-135h-145v127q0 63 -37 97t-99 34q-59 0 -99 -36t-40 -118v-395h262v-121h-262v-541h436l-28 -139h-678z" />
<glyph unicode="&#xa4;" horiz-adv-x="690" d="M137 430l-63 64l69 69q-49 68 -49 150q0 76 45 139q-39 31 -69 70l63 61l68 -68q63 47 143 48q78 0 141 -43l70 71l63 -63l-69 -70q49 -70 49 -147.5t-47 -143.5l70 -67l-62 -64l-70 68q-63 -43 -143 -43q-76 0 -139 41zM344 539q76 0 119 48t43 126q0 74 -46 122 t-114 48q-76 0 -119 -47.5t-43 -128.5q0 -68 45 -118t115 -50z" />
<glyph unicode="&#xa5;" horiz-adv-x="772" d="M303 0v541h-221v114h207l-266 807h176l196 -628l191 628h162l-261 -807h205v-114h-221v-541h-168z" />
<glyph unicode="&#xa6;" horiz-adv-x="542" d="M193 -90v729h118v-729h-118zM193 784v686h118v-686h-118z" />
<glyph unicode="&#xa7;" horiz-adv-x="763" d="M379 -84q-121 0 -210 66.5t-89 212.5v67h133v-47q0 -86 46 -136t128 -50q80 0 120 50t40 122q0 125 -137 186q-57 31 -115 49q-207 86 -207 269q0 139 135 241q-131 88 -131 246q0 121 77 199.5t216 78.5q131 0 207 -71.5t76 -198.5v-65h-127v57q0 74 -41 119t-115 45 q-72 0 -114 -42t-42 -116q0 -117 123 -178l125 -57q207 -98 207 -263q0 -154 -131 -245q145 -82 139 -246q0 -131 -87 -212t-226 -81zM440 520q106 53 107 164q0 90 -113 150q-98 43 -106 47q-104 -61 -105 -170q0 -100 115 -148z" />
<glyph unicode="&#xa8;" horiz-adv-x="602" d="M102 1217v245h136v-245h-136zM367 1217v245h135v-245h-135z" />
<glyph unicode="&#xa9;" horiz-adv-x="1427" d="M717 160q-131 0 -207 72.5t-76 203.5v551q0 131 77 207t206 76q125 0 196.5 -67.5t71.5 -176.5v-172h-137v162q0 51 -31 87t-96 36q-135 0 -135 -156v-537q0 -154 133 -153q68 0 98.5 38t30.5 87v157h137v-161q0 -115 -71.5 -184.5t-196.5 -69.5zM715 -66 q-307 0 -468 219.5t-161 567.5q0 332 169 554t460 222q201 0 346 -109.5t212.5 -282.5t67.5 -384q0 -340 -163.5 -563.5t-462.5 -223.5zM717 25q231 0 375.5 190.5t144.5 505.5q0 319 -143.5 505.5t-378.5 186.5q-238 0 -380 -187.5t-142 -504.5q0 -324 143 -510t381 -186z " />
<glyph unicode="&#xaa;" horiz-adv-x="534" d="M203 807q-59 0 -98 47t-39 141.5t57 147.5t147 53h49v113q0 61 -67 61q-31 0 -49.5 -17.5t-18.5 -41.5v-60h-104v58q0 70 49 109.5t131 39.5t128 -39t46 -110v-344q0 -104 4 -146h-106v6q-2 6 -3 22.5t-3 35.5q-39 -76 -123 -76zM244 897q31 0 53 24.5t22 57.5v145h-49 q-41 0 -66.5 -28.5t-25.5 -87.5q0 -111 66 -111zM90 635v102h344v-102h-344z" />
<glyph unicode="&#xab;" horiz-adv-x="708" d="M246 270l-203 293l201 297l90 -57l-121 -238l127 -241zM537 274l-199 289l199 291l90 -55l-121 -234l127 -235z" />
<glyph unicode="&#xac;" horiz-adv-x="866" d="M664 358v224h-596v116h718v-340h-122z" />
<glyph unicode="&#xad;" horiz-adv-x="462" d="M55 545v135h353v-135h-353z" />
<glyph unicode="&#xae;" horiz-adv-x="823" d="M416 641q-162 0 -255 126t-93 312q0 190 96 314.5t256 124.5q156 0 253 -124t97 -315q0 -184 -96 -311t-258 -127zM416 709q117 0 195.5 101t78.5 269t-80 270.5t-194 102.5q-113 0 -192 -101.5t-79 -271.5t79 -270t192 -100zM283 811v549h141q70 0 107.5 -43t37.5 -117 q0 -117 -80 -149l93 -240h-90l-82 223h-43v-223h-84zM367 1102h49q68 0 67 90q0 41 -17 68.5t-52 27.5h-47v-186z" />
<glyph unicode="&#xaf;" horiz-adv-x="636" d="M119 1223v127h399v-127h-399z" />
<glyph unicode="&#xb0;" horiz-adv-x="481" d="M239.5 1133q-73.5 0 -122.5 51t-49 121q0 72 50 124t122 52q74 0 124 -51.5t50 -123t-50.5 -122.5t-124 -51zM240 1206q41 0 67.5 29t26.5 70q0 43 -26.5 72.5t-67.5 29.5q-39 0 -66 -29.5t-27 -72.5q0 -41 27 -70t66 -29z" />
<glyph unicode="&#xb1;" horiz-adv-x="837" d="M362 408v260h-264v118h264v267h115v-267h260v-118h-260v-260h-115zM102 168v119h633v-119h-633z" />
<glyph unicode="&#xb2;" horiz-adv-x="507" d="M74 778v80l143 219q106 186 107 297v15q0 106 -72 106t-72 -94v-47h-114v51q0 90 50 142t140 52q94 0 143.5 -55t49.5 -158q0 -70 -24 -141t-48.5 -116.5t-73.5 -118.5l-76 -127h226v-105h-379z" />
<glyph unicode="&#xb3;" horiz-adv-x="524" d="M260 756q-100 0 -148.5 57t-48.5 150v38h117v-43q0 -43 21.5 -70.5t56.5 -27.5q78 0 78 141q0 72 -28.5 105t-63.5 33h-60v98h56q88 0 88 135q0 123 -74 123t-74 -100v-37h-112v45q0 92 50 143t142 51t140.5 -57t48.5 -154q0 -158 -101 -194v-4q57 -18 86 -71.5 t29 -123.5q0 -119 -55.5 -178t-147.5 -59z" />
<glyph unicode="&#xb4;" horiz-adv-x="456" d="M100 1190l140 293h172l-189 -293h-123z" />
<glyph unicode="&#xb5;" horiz-adv-x="808" d="M98 -365v1436h162v-825q0 -61 33 -95t90 -34q61 0 106.5 49t45.5 137v768h161v-795q0 -96 66 -120v-160q-150 25 -174 141q-55 -158 -201 -157q-131 0 -170 108h-6l47 -432z" />
<glyph unicode="&#xb6;" horiz-adv-x="876" d="M352 -133v635q-270 57 -270 459q0 225 87 362t261 137h383v-100h-102v-1493h-107v1493h-147v-1493h-105z" />
<glyph unicode="&#xb7;" horiz-adv-x="344" d="M94 582v239h158v-239h-158z" />
<glyph unicode="&#x22c5;" horiz-adv-x="344" d="M94 582v239h158v-239h-158z" />
<glyph unicode="&#xb8;" horiz-adv-x="526" d="M233 -377q-80 0 -147 19v94q74 -18 139 -19q80 0 80 52q0 47 -92 53l-57 4l45 197h80l-31 -129q178 -8 178 -123q0 -66 -56.5 -107t-138.5 -41z" />
<glyph unicode="&#xb9;" horiz-adv-x="411" d="M158 778v695l-74 -21l-16 90l139 55h72v-819h-121z" />
<glyph unicode="&#xba;" horiz-adv-x="526" d="M260 809q-88 0 -138 45t-50 133v293q0 84 54 131t138 47q82 0 135.5 -45t53.5 -129v-299q0 -88 -53.5 -132t-139.5 -44zM262 899q74 0 74 80v305q0 80 -74 80t-74 -80v-305q0 -80 74 -80zM92 635v100h344v-100h-344z" />
<glyph unicode="&#xbb;" horiz-adv-x="708" d="M139 276l-92 54l121 235l-125 236l94 53l201 -287zM432 270l-92 58l123 237l-129 240l96 55l203 -293z" />
<glyph unicode="&#xbc;" horiz-adv-x="1181" d="M205 647v694l-74 -20l-16 90l139 55h72v-819h-121zM907 0v201h-248v92l218 526h127l-228 -518h131v145l117 91v-236h70v-100h-70v-201h-117zM225 -4l586 1470h94l-583 -1470h-97z" />
<glyph unicode="&#xbd;" horiz-adv-x="1181" d="M203 647v694l-74 -20l-16 90l139 55h72v-819h-121zM709 0v80l143 219q106 186 106 297v14q0 106 -71.5 106.5t-71.5 -93.5v-48h-115v52q0 90 50.5 142t140.5 52q94 0 143 -55t49 -158q0 -70 -23.5 -141.5t-48 -116.5t-73.5 -119l-76 -127h225v-104h-378zM209 -4l586 1470 h94l-584 -1470h-96z" />
<glyph unicode="&#xbe;" horiz-adv-x="1181" d="M922 0v201h-248v92l217 526h127l-227 -518h131v145l116 91v-236h70v-100h-70v-201h-116zM264 625q-100 0 -148 57t-48 149v39h116v-43q0 -43 21.5 -70.5t56.5 -27.5q78 0 78 141q0 72 -28.5 105t-63.5 33h-60v98h56q88 0 88 135q0 123 -74 123t-74 -100v-37h-112v45 q0 92 50 143t142 51t140.5 -57t48.5 -154q0 -158 -101 -194v-4q57 -18 86 -71.5t29 -123.5q0 -119 -55.5 -178t-147.5 -59zM270 -4l586 1470h94l-583 -1470h-97z" />
<glyph unicode="&#xbf;" horiz-adv-x="708" d="M455 750v-70q-4 -174 -105 -336q-37 -57 -56.5 -93t-36.5 -97.5t-17 -126.5q0 -223 131 -224q59 0 93 49.5t34 131.5v100h139v-90q0 -156 -74 -243t-205 -87q-135 0 -205.5 96.5t-72.5 262.5q0 78 23.5 154.5t45 115.5t62.5 102q98 158 100 258v97h144zM457 1147v-242 h-156v242h156z" />
<glyph unicode="&#xc0;" horiz-adv-x="931" d="M57 0l299 1464h226l292 -1464h-169l-84 436h-324l-82 -436h-158zM326 575h266l-129 695h-6zM410 1573l-189 293h170l139 -293h-120z" />
<glyph unicode="&#xc1;" horiz-adv-x="931" d="M57 0l299 1464h226l292 -1464h-169l-84 436h-324l-82 -436h-158zM326 575h266l-129 695h-6zM410 1573l139 293h172l-189 -293h-122z" />
<glyph unicode="&#xc2;" horiz-adv-x="931" d="M57 0l299 1464h226l292 -1464h-169l-84 436h-324l-82 -436h-158zM326 575h266l-129 695h-6zM250 1575l160 295h118l156 -295h-135l-84 178l-86 -178h-129z" />
<glyph unicode="&#xc3;" horiz-adv-x="931" d="M57 0l299 1464h226l292 -1464h-169l-84 436h-324l-82 -436h-158zM326 575h266l-129 695h-6zM289 1589l-94 19q12 78 52 130t103 52q39 0 114 -29.5t111 -29.5q29 0 43.5 17t26.5 56l88 -20q-10 -76 -51 -128t-104 -52q-41 0 -119 29.5t-105 29.5q-29 0 -42 -16.5 t-23 -57.5z" />
<glyph unicode="&#xc4;" horiz-adv-x="931" d="M57 0l299 1464h226l292 -1464h-169l-84 436h-324l-82 -436h-158zM326 575h266l-129 695h-6zM264 1599v246h135v-246h-135zM528 1599v246h136v-246h-136z" />
<glyph unicode="&#xc5;" horiz-adv-x="931" d="M57 0l299 1464h226l292 -1464h-169l-84 436h-324l-82 -436h-158zM326 575h266l-129 695h-6zM469 1538q-78 0 -123 47t-45 117q0 74 47 124t121 50q78 0 123 -46t45 -118q0 -76 -48 -125t-120 -49zM469 1610q39 0 63.5 26.5t24.5 69.5t-23.5 70.5t-66.5 27.5 q-39 0 -60.5 -27.5t-21.5 -72.5q0 -43 23.5 -68.5t60.5 -25.5z" />
<glyph unicode="&#xc6;" horiz-adv-x="1249" d="M41 0l455 1462h675v-145h-409v-483h330v-146h-330v-541h412v-147h-578v455h-260l-127 -455h-168zM381 588h215v710h-6z" />
<glyph unicode="&#xc7;" horiz-adv-x="872" d="M449 -377q-80 0 -148 19v94q74 -18 139 -19q80 0 80 52q0 47 -92 53l-57 4l35 156q-141 12 -224.5 97t-83.5 228v842q0 152 97.5 243t259.5 91q152 0 241.5 -83t89.5 -214v-166h-151v141q0 80 -47 128t-135 48q-94 0 -139.5 -53t-45.5 -141v-817q0 -96 49.5 -146.5 t139.5 -50.5q84 0 131 49t47 125v143h151v-151q0 -133 -81.5 -218t-219.5 -95l-20 -88q178 -8 178 -123q0 -66 -56 -107t-138 -41z" />
<glyph unicode="&#xc8;" horiz-adv-x="776" d="M119 0v1460h579v-143h-411v-481h329v-146h-329v-543h413v-147h-581zM379 1573l-189 293h170l140 -293h-121z" />
<glyph unicode="&#xc9;" horiz-adv-x="776" d="M342 1573l139 293h172l-188 -293h-123zM119 0v1460h579v-143h-411v-481h329v-146h-329v-543h413v-147h-581z" />
<glyph unicode="&#xca;" horiz-adv-x="776" d="M170 1575l160 295h119l155 -295h-135l-84 178l-86 -178h-129zM119 0v1460h579v-143h-411v-481h329v-146h-329v-543h413v-147h-581z" />
<glyph unicode="&#xcb;" horiz-adv-x="776" d="M221 1599v246h135v-246h-135zM485 1599v246h136v-246h-136zM119 0v1460h579v-143h-411v-481h329v-146h-329v-543h413v-147h-581z" />
<glyph unicode="&#xcc;" horiz-adv-x="407" d="M119 0v1460h170v-1460h-170zM145 1573l-188 293h170l139 -293h-121z" />
<glyph unicode="&#xcd;" horiz-adv-x="407" d="M119 0v1460h170v-1460h-170zM141 1573l140 293h172l-189 -293h-123z" />
<glyph unicode="&#xce;" horiz-adv-x="407" d="M119 0v1460h170v-1460h-170zM-12 1575l159 295h119l156 -295h-135l-84 178l-86 -178h-129z" />
<glyph unicode="&#xcf;" horiz-adv-x="407" d="M119 0v1460h170v-1460h-170zM6 1599v246h135v-246h-135zM270 1599v246h136v-246h-136z" />
<glyph unicode="&#xd0;" horiz-adv-x="921" d="M45 705v120h92v635h346q152 0 246 -77.5t94 -229.5v-821q0 -162 -95 -247t-249 -85h-342v705h-92zM305 147h162q96 0 140 55.5t44 131.5v803q0 78 -47 128t-137 50h-162v-490h238v-120h-238v-558z" />
<glyph unicode="&#xd1;" horiz-adv-x="948" d="M119 0v1460h182l375 -1032h4v1032h147v-1460h-155l-398 1120h-6v-1120h-149zM305 1589l-94 19q12 78 52 130t104 52q39 0 113.5 -29.5t111.5 -29.5q29 0 43 17t27 56l88 -20q-10 -76 -51.5 -128t-104.5 -52q-41 0 -119 29.5t-104 29.5q-29 0 -42.5 -16.5t-23.5 -57.5z " />
<glyph unicode="&#xd2;" d="M453 -20q-164 0 -259.5 89t-95.5 259v809q0 164 100.5 255t260.5 91q158 0 255 -84t97 -246v-817q0 -172 -99 -264t-259 -92zM457 131q92 0 139 55.5t47 139.5v827q0 82 -50 132t-140 50q-88 0 -135.5 -53t-47.5 -135v-821q0 -84 48.5 -139.5t138.5 -55.5zM401 1573 l-188 293h170l139 -293h-121z" />
<glyph unicode="&#xd3;" d="M401 1573l140 293h172l-189 -293h-123zM453 -20q-164 0 -259.5 89t-95.5 259v809q0 164 100.5 255t260.5 91q158 0 255 -84t97 -246v-817q0 -172 -99 -264t-259 -92zM457 131q92 0 139 55.5t47 139.5v827q0 82 -50 132t-140 50q-88 0 -135.5 -53t-47.5 -135v-821 q0 -84 48.5 -139.5t138.5 -55.5z" />
<glyph unicode="&#xd4;" d="M236 1575l159 295h119l156 -295h-135l-84 178l-86 -178h-129zM453 -20q-164 0 -259.5 89t-95.5 259v809q0 164 100.5 255t260.5 91q158 0 255 -84t97 -246v-817q0 -172 -99 -264t-259 -92zM457 131q92 0 139 55.5t47 139.5v827q0 82 -50 132t-140 50q-88 0 -135.5 -53 t-47.5 -135v-821q0 -84 48.5 -139.5t138.5 -55.5z" />
<glyph unicode="&#xd5;" d="M453 -20q-164 0 -259.5 89t-95.5 259v809q0 164 100.5 255t260.5 91q158 0 255 -84t97 -246v-817q0 -172 -99 -264t-259 -92zM457 131q92 0 139 55.5t47 139.5v827q0 82 -50 132t-140 50q-88 0 -135.5 -53t-47.5 -135v-821q0 -84 48.5 -139.5t138.5 -55.5zM276 1589 l-94 19q12 78 52 130t104 52q39 0 113.5 -29.5t111.5 -29.5q29 0 43.5 17t26.5 56l88 -20q-10 -76 -51 -128t-105 -52q-41 0 -118.5 29.5t-104.5 29.5q-29 0 -42.5 -16.5t-23.5 -57.5z" />
<glyph unicode="&#xd6;" d="M254 1599v246h135v-246h-135zM518 1599v246h135v-246h-135zM453 -20q-164 0 -259.5 89t-95.5 259v809q0 164 100.5 255t260.5 91q158 0 255 -84t97 -246v-817q0 -172 -99 -264t-259 -92zM457 131q92 0 139 55.5t47 139.5v827q0 82 -50 132t-140 50q-88 0 -135.5 -53 t-47.5 -135v-821q0 -84 48.5 -139.5t138.5 -55.5z" />
<glyph unicode="&#xd7;" horiz-adv-x="837" d="M190 340l-81 84l229 233l-232 230l84 84l230 -230l229 230l82 -84l-229 -228l229 -233l-82 -82l-229 229l-121 -122z" />
<glyph unicode="&#xd8;" d="M227 -90l-92 24l49 142q-86 90 -86 252v809q0 164 100.5 255t260.5 91q111 0 194 -43l39 110l92 -22l-51 -150q78 -84 78 -225v-817q0 -172 -99.5 -264t-258.5 -92q-104 0 -189 38zM270 1147v-821l328 952q-51 57 -145 57q-88 0 -135.5 -53t-47.5 -135zM457 131 q92 0 139 55.5t47 139.5v790l-321 -934q47 -51 135 -51z" />
<glyph unicode="&#xd9;" horiz-adv-x="915" d="M453 -20q-156 0 -248 85t-92 248v1147h168v-1130q0 -98 52 -149.5t132 -51.5q90 0 135 54.5t41 144.5v1132h160v-1134q2 -160 -94 -253t-254 -93zM416 1573l-189 293h170l140 -293h-121z" />
<glyph unicode="&#xda;" horiz-adv-x="915" d="M408 1573l139 293h172l-189 -293h-122zM453 -20q-156 0 -248 85t-92 248v1147h168v-1130q0 -98 52 -149.5t132 -51.5q90 0 135 54.5t41 144.5v1132h160v-1134q2 -160 -94 -253t-254 -93z" />
<glyph unicode="&#xdb;" horiz-adv-x="915" d="M242 1575l159 295h119l156 -295h-135l-84 178l-86 -178h-129zM453 -20q-156 0 -248 85t-92 248v1147h168v-1130q0 -98 52 -149.5t132 -51.5q90 0 135 54.5t41 144.5v1132h160v-1134q2 -160 -94 -253t-254 -93z" />
<glyph unicode="&#xdc;" horiz-adv-x="915" d="M260 1599v246h135v-246h-135zM524 1599v246h135v-246h-135zM453 -20q-156 0 -248 85t-92 248v1147h168v-1130q0 -98 52 -149.5t132 -51.5q90 0 135 54.5t41 144.5v1132h160v-1134q2 -160 -94 -253t-254 -93z" />
<glyph unicode="&#xdd;" horiz-adv-x="794" d="M315 0v623l-280 839h176l199 -633l190 633h160l-277 -844v-618h-168zM350 1573l139 293h173l-189 -293h-123z" />
<glyph unicode="&#xde;" horiz-adv-x="837" d="M104 0v1460h168v-289h164q330 0 330 -415q0 -207 -86 -325t-258 -118h-150v-313h-168zM272 451h127q199 0 199 301q0 279 -184 278h-142v-579z" />
<glyph unicode="&#xdf;" horiz-adv-x="856" d="M545 -12q-98 0 -164 30l27 125q63 -23 112 -22q123 0 123 209q0 127 -60.5 217t-146.5 127v121h17q63 55 105 157.5t42 184.5q0 88 -37 147t-104 59q-74 0 -109 -58t-35 -146v-1139h-157v944h-107v125h107v66q0 156 80.5 248t232.5 92q137 0 213 -88.5t76 -225.5 q0 -115 -44 -224.5t-128 -176.5v-6q98 -68 155.5 -181.5t57.5 -240.5q0 -147 -63.5 -245.5t-192.5 -98.5z" />
<glyph unicode="&#xe0;" horiz-adv-x="747" d="M295 -18q-96 0 -158.5 80.5t-62.5 240.5q0 156 90 249t231 97h86v207q0 51 -30.5 81t-88.5 30q-121 0 -120 -109v-108h-146v110q0 104 76 169t205 65q121 0 191.5 -64.5t70.5 -173.5v-596q0 -80 8 -260h-143q0 4 -3 47t-3 70h-6q-27 -68 -83.5 -101.5t-113.5 -33.5z M344 109q55 0 96 52t41 122v262h-82q-70 0 -118 -53.5t-48 -169.5q0 -213 111 -213zM326 1190l-189 293h170l139 -293h-120z" />
<glyph unicode="&#xe1;" horiz-adv-x="747" d="M295 -18q-96 0 -158.5 80.5t-62.5 240.5q0 156 90 249t231 97h86v207q0 51 -30.5 81t-88.5 30q-121 0 -120 -109v-108h-146v110q0 104 76 169t205 65q121 0 191.5 -64.5t70.5 -173.5v-596q0 -80 8 -260h-143q0 4 -3 47t-3 70h-6q-27 -68 -83.5 -101.5t-113.5 -33.5z M344 109q55 0 96 52t41 122v262h-82q-70 0 -118 -53.5t-48 -169.5q0 -213 111 -213zM293 1190l139 293h172l-188 -293h-123z" />
<glyph unicode="&#xe2;" horiz-adv-x="747" d="M295 -18q-96 0 -158.5 80.5t-62.5 240.5q0 156 90 249t231 97h86v207q0 51 -30.5 81t-88.5 30q-121 0 -120 -109v-108h-146v110q0 104 76 169t205 65q121 0 191.5 -64.5t70.5 -173.5v-596q0 -80 8 -260h-143q0 4 -3 47t-3 70h-6q-27 -68 -83.5 -101.5t-113.5 -33.5z M344 109q55 0 96 52t41 122v262h-82q-70 0 -118 -53.5t-48 -169.5q0 -213 111 -213zM154 1192l159 295h119l156 -295h-135l-84 178l-86 -178h-129z" />
<glyph unicode="&#xe3;" horiz-adv-x="747" d="M295 -18q-96 0 -158.5 80.5t-62.5 240.5q0 156 90 249t231 97h86v207q0 51 -30.5 81t-88.5 30q-121 0 -120 -109v-108h-146v110q0 104 76 169t205 65q121 0 191.5 -64.5t70.5 -173.5v-596q0 -80 8 -260h-143q0 4 -3 47t-3 70h-6q-27 -68 -83.5 -101.5t-113.5 -33.5z M344 109q55 0 96 52t41 122v262h-82q-70 0 -118 -53.5t-48 -169.5q0 -213 111 -213zM199 1206l-95 19q12 78 52.5 130t103.5 52q39 0 114 -29.5t111 -29.5q29 0 43.5 17t26.5 56l88 -20q-10 -76 -51 -128t-105 -52q-41 0 -118.5 29.5t-104.5 29.5q-29 0 -42 -16.5t-23 -57.5 z" />
<glyph unicode="&#xe4;" horiz-adv-x="747" d="M295 -18q-96 0 -158.5 80.5t-62.5 240.5q0 156 90 249t231 97h86v207q0 51 -30.5 81t-88.5 30q-121 0 -120 -109v-108h-146v110q0 104 76 169t205 65q121 0 191.5 -64.5t70.5 -173.5v-596q0 -80 8 -260h-143q0 4 -3 47t-3 70h-6q-27 -68 -83.5 -101.5t-113.5 -33.5z M344 109q55 0 96 52t41 122v262h-82q-70 0 -118 -53.5t-48 -169.5q0 -213 111 -213zM174 1217v245h135v-245h-135zM438 1217v245h135v-245h-135z" />
<glyph unicode="&#xe5;" horiz-adv-x="747" d="M295 -18q-96 0 -158.5 80.5t-62.5 240.5q0 156 90 249t231 97h86v207q0 51 -30.5 81t-88.5 30q-121 0 -120 -109v-108h-146v110q0 104 76 169t205 65q121 0 191.5 -64.5t70.5 -173.5v-596q0 -80 8 -260h-143q0 4 -3 47t-3 70h-6q-27 -68 -83.5 -101.5t-113.5 -33.5z M344 109q55 0 96 52t41 122v262h-82q-70 0 -118 -53.5t-48 -169.5q0 -213 111 -213zM369 1178q-78 0 -123 47t-45 116q0 74 47 124.5t121 50.5q78 0 123 -46.5t45 -117.5q0 -76 -48 -125t-120 -49zM369 1249q39 0 63.5 27t24.5 70t-23.5 70.5t-66.5 27.5q-39 0 -60.5 -27.5 t-21.5 -73.5q0 -43 23.5 -68.5t60.5 -25.5z" />
<glyph unicode="&#xe6;" horiz-adv-x="1128" d="M297 -23q-98 0 -160.5 83t-62.5 243q0 156 91 250t230 96h86v207q0 51 -30.5 81t-88.5 30q-121 0 -120 -109v-108h-146v110q0 104 76 169t205 65q139 0 196 -84q68 84 203 84q129 0 198.5 -77t69.5 -212v-316h-403v-182q0 -96 39 -144t133 -48q96 0 186 43l37 -115 q-100 -63 -248 -63q-195 0 -262 139q-71 -142 -229 -142zM352 109q55 0 92 45t37 114v277h-82q-70 0 -118 -53.5t-48 -169.5q0 -109 33 -161t86 -52zM641 610h258v203q0 63 -30.5 106.5t-98.5 43.5q-63 0 -96 -44.5t-33 -105.5v-203z" />
<glyph unicode="&#xe7;" horiz-adv-x="731" d="M387 -377q-80 0 -147 19v94q74 -18 139 -19q80 0 80 52q0 47 -92 53l-58 4l35 156q-119 10 -185.5 85.5t-66.5 206.5v525q0 139 82 217t209 78q129 0 199.5 -69t70.5 -175v-109h-141v99q0 51 -30.5 87t-96.5 36q-70 0 -101.5 -43t-31.5 -109v-543q0 -156 133 -155 q127 0 127 131v92h141v-105q0 -104 -60.5 -169.5t-168.5 -77.5l-21 -90q178 -8 179 -123q0 -66 -56.5 -107t-138.5 -41z" />
<glyph unicode="&#xe8;" horiz-adv-x="739" d="M397 -20q-143 0 -224 76.5t-81 228.5v497q0 145 82 228.5t213 83.5q129 0 198.5 -78t69.5 -211v-316h-403v-182q0 -98 40 -145t132 -47q80 0 184 43l37 -115q-111 -63 -248 -63zM252 610h258v203q0 63 -30.5 106.5t-98.5 43.5q-66 0 -97.5 -45.5t-31.5 -108.5v-199z M348 1190l-188 293h170l139 -293h-121z" />
<glyph unicode="&#xe9;" horiz-adv-x="739" d="M315 1190l140 293h172l-189 -293h-123zM397 -20q-143 0 -224 76.5t-81 228.5v497q0 145 82 228.5t213 83.5q129 0 198.5 -78t69.5 -211v-316h-403v-182q0 -98 40 -145t132 -47q80 0 184 43l37 -115q-111 -63 -248 -63zM252 610h258v203q0 63 -30.5 106.5t-98.5 43.5 q-66 0 -97.5 -45.5t-31.5 -108.5v-199z" />
<glyph unicode="&#xea;" horiz-adv-x="739" d="M182 1192l160 295h119l155 -295h-135l-84 178l-86 -178h-129zM397 -20q-143 0 -224 76.5t-81 228.5v497q0 145 82 228.5t213 83.5q129 0 198.5 -78t69.5 -211v-316h-403v-182q0 -98 40 -145t132 -47q80 0 184 43l37 -115q-111 -63 -248 -63zM252 610h258v203 q0 63 -30.5 106.5t-98.5 43.5q-66 0 -97.5 -45.5t-31.5 -108.5v-199z" />
<glyph unicode="&#xeb;" horiz-adv-x="739" d="M193 1217v245h135v-245h-135zM457 1217v245h135v-245h-135zM397 -20q-143 0 -224 76.5t-81 228.5v497q0 145 82 228.5t213 83.5q129 0 198.5 -78t69.5 -211v-316h-403v-182q0 -98 40 -145t132 -47q80 0 184 43l37 -115q-111 -63 -248 -63zM252 610h258v203 q0 63 -30.5 106.5t-98.5 43.5q-66 0 -97.5 -45.5t-31.5 -108.5v-199z" />
<glyph unicode="&#xec;" horiz-adv-x="395" d="M119 0v1073h157v-1073h-157zM139 1190l-188 293h170l139 -293h-121z" />
<glyph unicode="&#xed;" horiz-adv-x="395" d="M135 1190l139 293h172l-188 -293h-123zM119 0v1073h157v-1073h-157z" />
<glyph unicode="&#xee;" horiz-adv-x="395" d="M-12 1192l159 295h119l156 -295h-135l-84 178l-86 -178h-129zM119 0v1073h157v-1073h-157z" />
<glyph unicode="&#xef;" horiz-adv-x="395" d="M4 1217v245h135v-245h-135zM268 1217v245h135v-245h-135zM119 0v1073h157v-1073h-157z" />
<glyph unicode="&#xf0;" horiz-adv-x="757" d="M133 1190l-41 94l162 37l-70 121l156 43l72 -127l149 35l41 -95l-137 -32l172 -301q43 -72 43 -166v-520q0 -147 -80 -223t-215 -76q-137 0 -215 74.5t-78 217.5v519q0 129 72 205.5t188 82.5q29 0 51 -10l-96 162zM387 113q133 0 133 153v535q0 150 -129 149 q-68 0 -103.5 -43t-35.5 -108v-539q0 -63 33.5 -105t101.5 -42z" />
<glyph unicode="&#xf1;" horiz-adv-x="802" d="M119 0v1073h151v-112h2q68 133 226 133q86 0 141 -53.5t55 -143.5v-897h-157v831q0 129 -113 130q-61 0 -104.5 -60.5t-43.5 -138.5v-762h-157zM252 1206l-94 19q12 78 52 130t103 52q39 0 114 -29.5t112 -29.5q29 0 43 17t26 56l88 -20q-10 -76 -51 -128t-104 -52 q-41 0 -119 29.5t-105 29.5q-29 0 -42 -16.5t-23 -57.5z" />
<glyph unicode="&#xf2;" horiz-adv-x="774" d="M385 -20q-135 0 -214 77.5t-79 221.5v520q0 139 84 217t213 78t211 -75t82 -212v-526q0 -145 -83 -223t-214 -78zM389 113q133 0 133 157v539q0 66 -34.5 110t-102.5 44t-100.5 -44.5t-32.5 -111.5v-537q0 -68 33.5 -112.5t103.5 -44.5zM332 1190l-189 293h170l140 -293 h-121z" />
<glyph unicode="&#xf3;" horiz-adv-x="774" d="M319 1190l140 293h172l-189 -293h-123zM385 -20q-135 0 -214 77.5t-79 221.5v520q0 139 84 217t213 78t211 -75t82 -212v-526q0 -145 -83 -223t-214 -78zM389 113q133 0 133 157v539q0 66 -34.5 110t-102.5 44t-100.5 -44.5t-32.5 -111.5v-537q0 -68 33.5 -112.5 t103.5 -44.5z" />
<glyph unicode="&#xf4;" horiz-adv-x="774" d="M178 1192l160 295h119l155 -295h-135l-84 178l-86 -178h-129zM385 -20q-135 0 -214 77.5t-79 221.5v520q0 139 84 217t213 78t211 -75t82 -212v-526q0 -145 -83 -223t-214 -78zM389 113q133 0 133 157v539q0 66 -34.5 110t-102.5 44t-100.5 -44.5t-32.5 -111.5v-537 q0 -68 33.5 -112.5t103.5 -44.5z" />
<glyph unicode="&#xf5;" horiz-adv-x="774" d="M385 -20q-135 0 -214 77.5t-79 221.5v520q0 139 84 217t213 78t211 -75t82 -212v-526q0 -145 -83 -223t-214 -78zM389 113q133 0 133 157v539q0 66 -34.5 110t-102.5 44t-100.5 -44.5t-32.5 -111.5v-537q0 -68 33.5 -112.5t103.5 -44.5zM217 1206l-94 19q12 78 52 130 t104 52q39 0 113.5 -29.5t111.5 -29.5q29 0 43 17t26 56l89 -20q-10 -76 -51.5 -128t-104.5 -52q-39 0 -117 29.5t-106.5 29.5t-42 -16.5t-23.5 -57.5z" />
<glyph unicode="&#xf6;" horiz-adv-x="774" d="M193 1217v245h135v-245h-135zM457 1217v245h135v-245h-135zM385 -20q-135 0 -214 77.5t-79 221.5v520q0 139 84 217t213 78t211 -75t82 -212v-526q0 -145 -83 -223t-214 -78zM389 113q133 0 133 157v539q0 66 -34.5 110t-102.5 44t-100.5 -44.5t-32.5 -111.5v-537 q0 -68 33.5 -112.5t103.5 -44.5z" />
<glyph unicode="&#xf7;" horiz-adv-x="837" d="M352 266v205h137v-205h-137zM106 594v121h625v-121h-625zM352 825v201h137v-201h-137z" />
<glyph unicode="&#xf8;" horiz-adv-x="774" d="M215 -92l-80 26l41 117q-84 78 -84 228v520q0 139 84 217t213 78q82 0 148 -31l34 96l78 -24l-43 -121q76 -80 76 -207v-526q0 -145 -83 -223t-214 -78q-70 0 -137 24zM252 260l233 660q-37 43 -100 43q-68 0 -100.5 -44.5t-32.5 -111.5v-547zM389 113q133 0 133 157v506 l-225 -633q37 -30 92 -30z" />
<glyph unicode="&#xf9;" horiz-adv-x="802" d="M305 -23q-86 0 -141 55.5t-55 145.5v895h157v-833q0 -125 113 -125q61 0 104 60.5t43 135.5v762h158v-1073h-152v117h-2q-73 -140 -225 -140zM344 1190l-188 293h170l139 -293h-121z" />
<glyph unicode="&#xfa;" horiz-adv-x="802" d="M336 1190l139 293h172l-188 -293h-123zM305 -23q-86 0 -141 55.5t-55 145.5v895h157v-833q0 -125 113 -125q61 0 104 60.5t43 135.5v762h158v-1073h-152v117h-2q-73 -140 -225 -140z" />
<glyph unicode="&#xfb;" horiz-adv-x="802" d="M193 1192l159 295h119l156 -295h-135l-84 178l-86 -178h-129zM305 -23q-86 0 -141 55.5t-55 145.5v895h157v-833q0 -125 113 -125q61 0 104 60.5t43 135.5v762h158v-1073h-152v117h-2q-73 -140 -225 -140z" />
<glyph unicode="&#xfc;" horiz-adv-x="802" d="M201 1217v245h135v-245h-135zM465 1217v245h135v-245h-135zM305 -23q-86 0 -141 55.5t-55 145.5v895h157v-833q0 -125 113 -125q61 0 104 60.5t43 135.5v762h158v-1073h-152v117h-2q-73 -140 -225 -140z" />
<glyph unicode="&#xfd;" horiz-adv-x="688" d="M170 -352q-59 0 -115 14l19 129q45 -12 80 -12q76 0 98 92l35 152l-252 1050h164l161 -766h7l143 766h145l-254 -1159q-31 -137 -85 -201.5t-146 -64.5zM305 1190l139 293h172l-188 -293h-123z" />
<glyph unicode="&#xfe;" horiz-adv-x="761" d="M104 -332v1792h156v-497h4q31 66 89.5 98.5t117.5 32.5q106 0 159.5 -65.5t53.5 -166.5v-639q0 -106 -66.5 -174.5t-168.5 -68.5q-55 0 -106.5 28.5t-78.5 79.5h-2v-420h-158zM401 111q55 0 89 35.5t34 103.5v579q0 59 -31.5 97.5t-91.5 38.5q-61 0 -100 -50.5 t-39 -134.5v-504q0 -76 40 -120.5t99 -44.5z" />
<glyph unicode="&#xff;" horiz-adv-x="688" d="M170 -352q-59 0 -115 14l19 129q45 -12 80 -12q76 0 98 92l35 152l-252 1050h164l161 -766h7l143 766h145l-254 -1159q-31 -137 -85 -201.5t-146 -64.5zM158 1217v245h135v-245h-135zM422 1217v245h135v-245h-135z" />
<glyph unicode="&#x152;" horiz-adv-x="1300" d="M430 -16q-332 0 -332 346v807q0 166 92.5 256t249.5 90q137 0 205 -86v63h578v-143h-412v-481h332v-148h-332v-541h414v-147h-580v82q-29 -41 -88 -69.5t-127 -28.5zM457 131q92 0 139 56.5t47 142.5v825q0 82 -49 131t-139 49t-137.5 -53t-47.5 -137v-819 q0 -84 48.5 -139.5t138.5 -55.5z" />
<glyph unicode="&#x153;" horiz-adv-x="1169" d="M385 -20q-135 0 -214 77.5t-79 221.5v520q0 139 84 217t213 78q139 0 217 -86q80 86 213 86q129 0 197.5 -78t68.5 -211v-316h-403v-182q0 -98 41 -145t133 -47q74 0 184 43l37 -115q-111 -63 -248 -63q-154 0 -227 86q-80 -86 -217 -86zM389 113q133 0 133 157v539 q0 66 -34.5 110t-102.5 44t-100.5 -44.5t-32.5 -111.5v-537q0 -68 33.5 -112.5t103.5 -44.5zM682 610h260v203q0 63 -31.5 106.5t-99.5 43.5q-63 0 -96 -44.5t-33 -105.5v-203z" />
<glyph unicode="&#x178;" horiz-adv-x="794" d="M315 0v623l-280 839h176l199 -633l190 633h160l-277 -844v-618h-168zM201 1599v246h135v-246h-135zM465 1599v246h135v-246h-135z" />
<glyph unicode="&#x2c6;" horiz-adv-x="589" d="M80 1192l160 295h118l156 -295h-135l-84 178l-86 -178h-129z" />
<glyph unicode="&#x2dc;" horiz-adv-x="667" d="M166 1206l-94 19q12 78 52 130t103 52q39 0 114 -29.5t112 -29.5q29 0 43 17t26 56l88 -20q-10 -76 -51 -128t-104 -52q-41 0 -119 29.5t-105 29.5q-29 0 -42 -16.5t-23 -57.5z" />
<glyph unicode="&#x2000;" horiz-adv-x="937" />
<glyph unicode="&#x2001;" horiz-adv-x="1875" />
<glyph unicode="&#x2002;" horiz-adv-x="937" />
<glyph unicode="&#x2003;" horiz-adv-x="1875" />
<glyph unicode="&#x2004;" horiz-adv-x="624" />
<glyph unicode="&#x2005;" horiz-adv-x="468" />
<glyph unicode="&#x2006;" horiz-adv-x="311" />
<glyph unicode="&#x2007;" horiz-adv-x="311" />
<glyph unicode="&#x2008;" horiz-adv-x="233" />
<glyph unicode="&#x2009;" horiz-adv-x="374" />
<glyph unicode="&#x200a;" horiz-adv-x="102" />
<glyph unicode="&#x2010;" horiz-adv-x="462" d="M55 545v135h353v-135h-353z" />
<glyph unicode="&#x2011;" horiz-adv-x="462" d="M55 545v135h353v-135h-353z" />
<glyph unicode="&#x2012;" horiz-adv-x="462" d="M55 545v135h353v-135h-353z" />
<glyph unicode="&#x2013;" horiz-adv-x="741" d="M0 559v117h741v-117h-741z" />
<glyph unicode="&#x2014;" horiz-adv-x="1253" d="M0 559v117h1253v-117h-1253z" />
<glyph unicode="&#x2018;" horiz-adv-x="339" d="M92 1018v221l60 225h84l-43 -215h53v-231h-154z" />
<glyph unicode="&#x2019;" horiz-adv-x="342" d="M106 1016l39 213h-51v233h154v-223l-60 -223h-82z" />
<glyph unicode="&#x201a;" horiz-adv-x="339" d="M113 -147l24 157l-45 56l23 178l133 -56l-10 -227l-62 -168z" />
<glyph unicode="&#x201c;" horiz-adv-x="616" d="M92 1018v221l60 225h84l-43 -215h53v-231h-154zM367 1018v221l63 225h80l-39 -215h51v-231h-155z" />
<glyph unicode="&#x201d;" horiz-adv-x="616" d="M106 1016l39 213h-53v233h156v-223l-60 -223h-82zM381 1016l41 213h-53v233h155v-223l-61 -223h-82z" />
<glyph unicode="&#x201e;" horiz-adv-x="616" d="M106 -207l39 217h-53v234h156v-226l-60 -225h-82zM381 -207l41 217h-53v234h155v-226l-61 -225h-82z" />
<glyph unicode="&#x2022;" horiz-adv-x="731" d="M366.5 469q-102.5 0 -175 72.5t-72.5 175t72.5 174.5t175.5 72q100 0 172.5 -72t72.5 -174.5t-71.5 -175t-174 -72.5z" />
<glyph unicode="&#x2026;" horiz-adv-x="989" d="M94 0v242h154v-242h-154zM418 0v242h155v-242h-155zM741 0v242h156v-242h-156z" />
<glyph unicode="&#x202f;" horiz-adv-x="374" />
<glyph unicode="&#x2039;" horiz-adv-x="421" d="M256 270l-203 293l199 297l92 -57l-121 -238l127 -241z" />
<glyph unicode="&#x203a;" horiz-adv-x="421" d="M152 270l-95 58l123 237l-127 240l94 55l203 -293z" />
<glyph unicode="&#x205f;" horiz-adv-x="468" />
<glyph unicode="&#x20ac;" horiz-adv-x="913" d="M516 -20q-160 0 -253 85t-93 236v244h-107v108h107v164h-107v109h107v227q0 147 95 239.5t253 92.5q150 0 239 -83t89 -214v-172h-152v158q0 80 -46 126t-134 46q-90 0 -133 -54.5t-43 -140.5v-225h297v-109h-297v-164h297v-108h-297v-228q0 -92 47 -144t135 -52t131 49 t43 129v139h152v-147q0 -141 -90 -226t-240 -85z" />
<glyph unicode="&#x2122;" horiz-adv-x="960" d="M457 815v649h121l92 -282l88 282h119v-649h-93v471l-82 -254h-71l-84 256v-473h-90zM174 815v563h-123v86h344v-86h-123v-563h-98z" />
<glyph unicode="&#xe000;" horiz-adv-x="1075" d="M0 1075h1075v-1075h-1075v1075z" />
<glyph unicode="&#xe38c;" horiz-adv-x="854" d="M594 0v1073h158v-1073h-158zM594 1253v228h158v-228h-158zM170 0v942h-107v127h107v203q0 94 57.5 150.5t151.5 56.5q66 0 104 -13v-120q-33 6 -73 6q-37 0 -60.5 -23.5t-23.5 -68.5v-191h135v-127h-135v-942h-156z" />
<glyph unicode="&#xfb01;" horiz-adv-x="854" d="M594 0v1073h158v-1073h-158zM594 1253v228h158v-228h-158zM170 0v942h-107v127h107v203q0 94 57.5 150.5t151.5 56.5q66 0 104 -13v-120q-33 6 -73 6q-37 0 -60.5 -23.5t-23.5 -68.5v-191h135v-127h-135v-942h-156z" />
<glyph unicode="&#xe38d;" horiz-adv-x="919" d="M764 -12q-172 0 -172 170v1302h158v-1261q0 -66 67 -66q27 0 53 6v-133q-51 -18 -106 -18zM170 0v942h-107v127h107v203q0 94 57.5 150.5t151.5 56.5q66 0 104 -13v-120q-33 6 -73 6q-37 0 -60.5 -23.5t-23.5 -68.5v-191h135v-127h-135v-942h-156z" />
<glyph unicode="&#xfb02;" horiz-adv-x="919" d="M764 -12q-172 0 -172 170v1302h158v-1261q0 -66 67 -66q27 0 53 6v-133q-51 -18 -106 -18zM170 0v942h-107v127h107v203q0 94 57.5 150.5t151.5 56.5q66 0 104 -13v-120q-33 6 -73 6q-37 0 -60.5 -23.5t-23.5 -68.5v-191h135v-127h-135v-942h-156z" />
<glyph unicode="&#xfb03;" horiz-adv-x="1443" d="M1168 0v1073h157v-1073h-157zM1168 1253v228h157v-228h-157zM700 0v942h-106v127h106v203q0 94 57.5 150.5t151.5 56.5q66 0 104 -13v-120q-35 6 -73 6q-37 0 -60.5 -23.5t-23.5 -68.5v-191h135v-127h-135v-942h-156zM176 0v942h-106v127h106v203q0 94 57.5 150.5 t151.5 56.5q66 0 104 -13v-120q-35 6 -73 6q-37 0 -60.5 -23.5t-23.5 -68.5v-191h135v-127h-135v-942h-156z" />
<glyph unicode="&#xfb04;" horiz-adv-x="1484" d="M1336 -12q-172 0 -172 170v1302h157v-1261q0 -66 68 -66q25 0 53 6v-133q-53 -18 -106 -18zM700 0v942h-106v127h106v203q0 94 57.5 150.5t151.5 56.5q66 0 104 -13v-120q-35 6 -73 6q-37 0 -60.5 -23.5t-23.5 -68.5v-191h135v-127h-135v-942h-156zM176 0v942h-106v127 h106v203q0 94 57.5 150.5t151.5 56.5q66 0 104 -13v-120q-35 6 -73 6q-37 0 -60.5 -23.5t-23.5 -68.5v-191h135v-127h-135v-942h-156z" />
<glyph horiz-adv-x="253" />
</font>
</defs>
</svg>
