<?xml version="1.0" standalone="no"?>
<!DOCTYPE svg PUBLIC "-//W3C//DTD SVG 1.1//EN" "http://www.w3.org/Graphics/SVG/1.1/DTD/svg11.dtd" >
<svg xmlns="http://www.w3.org/2000/svg">
<metadata>
This is a custom SVG webfont generated by Font Squirrel.
Copyright   : Copyright c 2008 by Mrio Feliciano All rights reserved
Designer    : Mrio Feliciano
Foundry     : Mrio Feliciano  Feliciano Type Foundry
Foundry URL : wwwfelicianotypefoundrycom
</metadata>
<defs>
<font id="webfontmat4VBPI" horiz-adv-x="874" >
<font-face units-per-em="2048" ascent="1638" descent="-410" />
<missing-glyph horiz-adv-x="305" />
<glyph unicode=" "  horiz-adv-x="305" />
<glyph unicode="&#x09;" horiz-adv-x="305" />
<glyph unicode="&#xa0;" horiz-adv-x="305" />
<glyph unicode="!" horiz-adv-x="458" d="M133 436l-49 492v534h293v-534l-47 -492h-197zM92 0v336h277v-336h-277z" />
<glyph unicode="&#x22;" horiz-adv-x="780" d="M119 872l-41 320v270h260v-270l-39 -320h-180zM481 872l-41 320v270h260v-270l-36 -320h-183z" />
<glyph unicode="#" horiz-adv-x="899" d="M154 -4l32 377h-147l16 178h148l41 393h-152l17 176h147l35 346h160l-31 -346h141l35 346h158l-31 -346h145l-14 -176h-147l-39 -393h149l-16 -178h-150l-35 -377h-161l34 377h-141l-37 -377h-157zM365 551h143l39 393h-146z" />
<glyph unicode="$" d="M385 -72v131q-135 16 -231.5 102.5t-102.5 250.5l287 10q12 -133 111 -133q39 0 61 23.5t22 64.5q0 76 -131 201l-114 104q-106 100 -159.5 184t-53.5 189q0 133 81 228t230 114v123h190v-127q242 -45 254 -340l-258 -4q-14 137 -106 137q-47 0 -70.5 -30t-23.5 -71 q0 -31 21.5 -65.5t41.5 -54.5l62 -60l118 -117q213 -213 213 -380q0 -117 -68.5 -207t-183.5 -123v-150h-190z" />
<glyph unicode="%" horiz-adv-x="1310" d="M313 702q-106 0 -179 60.5t-73 165.5v323q0 109 71 172.5t179.5 63.5t180 -62.5t71.5 -171.5v-325q0 -100 -74 -163t-176 -63zM313 864q57 0 58 60v342q0 59 -60 59q-57 0 -57 -59v-342q0 -60 59 -60zM293 0l588 1466h149l-588 -1466h-149zM1001 -25q-106 0 -179.5 60.5 t-73.5 165.5v317q0 111 71.5 176.5t180 65.5t180 -62.5t71.5 -171.5v-321q0 -98 -75 -164t-175 -66zM999 137q57 0 58 62v342q0 57 -58 57q-55 0 -55 -57v-344q0 -60 55 -60z" />
<glyph unicode="&#x26;" horiz-adv-x="1107" d="M401 -27q-166 0 -255 111t-89 307q0 276 234 420q-111 205 -111 324q0 152 91 251t261 99q158 0 247 -88t89 -246q0 -119 -57 -221.5t-162 -169.5l65 -105q58 -94 64 -110q14 53 31 170l233 -25q-31 -219 -122 -401q8 -18 82.5 -143.5t82.5 -145.5h-329l-60 102 q-127 -129 -295 -129zM469 236q66 0 113 63q-8 20 -86 150.5t-88 152.5q-57 -57 -58 -184q0 -78 30 -130t89 -52zM537 956q80 68 79 195q0 51 -20.5 82t-54.5 31q-39 0 -58.5 -31t-19.5 -72q0 -70 74 -205z" />
<glyph unicode="'" horiz-adv-x="423" d="M119 872l-41 320v270h260v-270l-39 -320h-180z" />
<glyph unicode="(" horiz-adv-x="516" d="M328 -352q-106 172 -173 427t-67 498q0 248 64.5 491t175.5 417l168 -15q-84 -274 -118 -449t-34 -446q0 -416 152 -909z" />
<glyph unicode=")" horiz-adv-x="516" d="M188 -352l-168 14q152 494 152 909q0 272 -34 449.5t-118 445.5l168 15q111 -174 175.5 -417t64.5 -491q0 -244 -65.5 -499.5t-174.5 -425.5z" />
<glyph unicode="*" horiz-adv-x="751" d="M240 823l-136 86l134 195l-201 117l80 133l178 -99v205h162v-207l176 101l82 -133l-203 -117l135 -195l-135 -86l-135 197z" />
<glyph unicode="+" horiz-adv-x="907" d="M354 258v293h-280v199h280v297h201l-2 -297h283v-199h-281v-293h-201z" />
<glyph unicode="," horiz-adv-x="415" d="M102 -270l74 288h-106v318h278v-301l-98 -305h-148z" />
<glyph unicode="-" horiz-adv-x="499" d="M47 502v225h408v-225h-408z" />
<glyph unicode="." horiz-adv-x="415" d="M70 0v336h278v-336h-278z" />
<glyph unicode="/" horiz-adv-x="540" d="M-12 -330l315 1800h191l-312 -1800h-194z" />
<glyph unicode="0" horiz-adv-x="925" d="M465 -23q-168 0 -278.5 88.5t-110.5 256.5v819q0 164 111.5 253t275.5 89q162 0 274.5 -88t112.5 -254v-819q0 -166 -109.5 -255.5t-275.5 -89.5zM463 231q43 0 64.5 25t21.5 59v832q0 35 -23.5 56.5t-62.5 21.5t-61.5 -21.5t-22.5 -54.5v-836q0 -35 22.5 -58.5 t61.5 -23.5z" />
<glyph unicode="1" horiz-adv-x="624" d="M186 0v1153l-104 -18l-41 227l272 102h172v-1464h-299z" />
<glyph unicode="2" horiz-adv-x="851" d="M76 0v195l272 456q147 248 148 418v47q-4 111 -80 111q-80 0 -80 -111v-90h-268v98q0 166 95 263.5t269 97.5q178 0 267 -101.5t89 -275.5q0 -260 -243 -645l-119 -193v-6h362v-264h-712z" />
<glyph unicode="3" horiz-adv-x="876" d="M434 -23q-195 0 -285 98.5t-90 260.5v96h279v-104q0 -100 84 -101q43 0 66.5 39t23.5 148q0 106 -37 144t-96 38h-105v274h111q63 0 90 36t27 149q0 170 -84 170q-78 0 -78 -111v-92h-277v88q0 174 98.5 273.5t280.5 99.5q160 0 256.5 -96.5t96.5 -290.5 q0 -287 -183 -348v-11q203 -68 203 -325q0 -219 -111.5 -327t-269.5 -108z" />
<glyph unicode="4" horiz-adv-x="894" d="M473 0v315h-428v234l328 911h319l-375 -891h156v195l272 180v-375h97v-254h-97v-315h-272z" />
<glyph unicode="5" horiz-adv-x="886" d="M432 -25q-174 0 -270 85t-96 239v150h276v-127q0 -90 90 -91q84 0 84 107v283q0 45 -23.5 71.5t-66.5 26.5q-53 0 -90 -68l-258 19l26 790h660v-262h-412q0 -131 -12 -315q90 63 203 63q121 0 197.5 -69.5t76.5 -221.5v-329q0 -168 -109.5 -259.5t-275.5 -91.5z" />
<glyph unicode="6" horiz-adv-x="907" d="M459 -23q-178 0 -283.5 95.5t-105.5 253.5v794q0 172 112.5 268.5t286.5 96.5q166 0 262 -88t96 -238v-117h-284v105q0 37 -20.5 59.5t-57.5 22.5q-88 0 -88 -88v-316q88 78 205 78q127 0 194.5 -69.5t67.5 -190.5v-328q0 -150 -106.5 -244t-278.5 -94zM463 227 q41 0 62.5 27t21.5 63v299q0 41 -22.5 60.5t-55.5 19.5q-39 0 -64.5 -25.5t-27.5 -68.5v-285q0 -41 22.5 -65.5t63.5 -24.5z" />
<glyph unicode="7" horiz-adv-x="841" d="M182 0q2 315 87 638t208 556h-424v266h740v-229q-303 -557 -304 -1231h-307z" />
<glyph unicode="8" horiz-adv-x="897" d="M449 -23q-172 0 -280 80t-108 240v213q0 156 121 229q-49 29 -77.5 86.5t-28.5 116.5v211q0 154 104.5 243t268.5 89q162 0 266 -85t104 -241v-201q0 -150 -108 -219q125 -70 125 -217v-223q0 -152 -109.5 -237t-277.5 -85zM449 219q88 0 88 82v244q0 41 -25 64.5 t-63 23.5q-37 0 -60.5 -21.5t-23.5 -58.5v-252q0 -82 84 -82zM451 852q41 0 63.5 23.5t22.5 60.5v219q0 39 -25 60.5t-63 21.5q-37 0 -60.5 -19.5t-23.5 -56.5v-225q0 -39 23.5 -61.5t62.5 -22.5z" />
<glyph unicode="9" horiz-adv-x="903" d="M449 -23q-168 0 -269.5 89.5t-101.5 236.5v115h284v-99q0 -84 78 -83q86 0 86 88v323q-84 -90 -198 -90q-127 0 -196 70.5t-69 191.5v328q0 152 104.5 244t278.5 92q178 0 283 -95.5t105 -254.5v-775q0 -172 -106.5 -276.5t-278.5 -104.5zM438 766q37 0 62.5 25.5 t25.5 70.5v289q0 39 -21.5 62.5t-62.5 23.5t-62.5 -25.5t-21.5 -64.5v-301q0 -41 23.5 -60.5t56.5 -19.5z" />
<glyph unicode=":" horiz-adv-x="415" d="M70 0v336h278v-336h-278zM70 768v336h278v-336h-278z" />
<glyph unicode=";" horiz-adv-x="415" d="M102 -270l74 288h-106v318h278v-301l-98 -305h-148zM70 768v336h278v-336h-278z" />
<glyph unicode="&#x3c;" horiz-adv-x="892" d="M725 268l-647 310l2 151l645 309l86 -180l-451 -205l453 -207z" />
<glyph unicode="=" horiz-adv-x="892" d="M74 362v201h747v-201h-747zM74 717v201h747v-201h-747z" />
<glyph unicode="&#x3e;" horiz-adv-x="892" d="M168 270l-86 179l450 206q-10 4 -227 103.5t-223 101.5l88 178l645 -309v-149z" />
<glyph unicode="?" horiz-adv-x="813" d="M246 436v43q2 186 96 328l29 44q25 38 31 48t23 44t23.5 55.5t12.5 55t6 68.5q0 102 -80 103q-78 0 -78 -101v-110h-256v114q0 158 97.5 255.5t257.5 97.5q166 0 260 -96.5t96 -270.5q0 -180 -141 -375l-53 -80q-15 -25 -36.5 -77t-21.5 -95v-51h-266zM240 0v336h292 v-336h-292z" />
<glyph unicode="@" horiz-adv-x="1482" d="M799 -154q-268 0 -439 115q-297 190 -297 649q0 391 211 618.5t537 227.5q119 0 225.5 -37t193.5 -110.5t138 -197.5t51 -282q0 -229 -119.5 -408t-283.5 -220h-240l17 110h-9q-88 -133 -219 -133q-92 0 -147.5 55.5t-55.5 157.5q0 51 7 88q2 10 14 93l25 170 q12 87 20 128q18 119 96 186.5t185 67.5q127 0 176 -94h4l10 76h246l-107 -774q100 43 170 184t70 311q0 270 -136 394.5t-347 124.5q-283 0 -436.5 -205t-153.5 -533q0 -399 260 -555q135 -84 328 -84q184 0 421 70l31 -100q-188 -93 -446 -93zM700 399q47 0 78 39t39 99 l35 258v28q0 92 -78 92q-82 0 -100 -118l-37 -275q-4 -16 -4 -47q-1 -76 67 -76z" />
<glyph unicode="A" horiz-adv-x="1087" d="M37 0l295 1462h438l281 -1462h-322l-55 299h-289l-53 -299h-295zM434 557h189l-88 545h-7z" />
<glyph unicode="B" horiz-adv-x="995" d="M80 0v1460h498q164 0 255 -92t91 -283q0 -281 -191 -342v-8q199 -55 199 -323q0 -201 -93.5 -306.5t-250.5 -105.5h-508zM397 258h109q104 0 104 174q0 170 -112 170h-101v-344zM397 864h99q113 0 112 178q0 162 -100 162h-111v-340z" />
<glyph unicode="C" horiz-adv-x="968" d="M502 -23q-195 0 -314.5 100.5t-119.5 293.5v725q0 182 124.5 284.5t313.5 102.5q174 0 289.5 -97.5t115.5 -269.5v-160h-290v136q0 53 -32 83.5t-83 30.5q-115 0 -115 -119v-704q0 -125 117 -125q49 0 81 30.5t32 82.5v133h290v-150q0 -174 -115.5 -275.5t-293.5 -101.5z " />
<glyph unicode="D" horiz-adv-x="1001" d="M80 0v1460h442q180 0 296 -93t116 -269v-719q0 -186 -114.5 -282.5t-299.5 -96.5h-440zM397 272h95q61 0 90.5 37t29.5 92v666q0 55 -31.5 88t-93.5 33h-90v-916z" />
<glyph unicode="E" d="M80 0v1460h733v-270h-416v-307h330v-273h-330v-338h418v-272h-735z" />
<glyph unicode="F" horiz-adv-x="862" d="M80 0v1460h733v-270h-416v-318h330v-274h-330v-598h-317z" />
<glyph unicode="G" horiz-adv-x="995" d="M508 -23q-197 0 -318.5 103.5t-121.5 296.5v719q0 180 123.5 283.5t312.5 103.5q178 0 301 -94.5t123 -266.5v-151h-293v131q0 51 -37 80.5t-88 29.5q-57 0 -88 -32.5t-31 -89.5v-711q0 -57 31 -92t86 -35q111 0 110 113v172h-139v237h449v-424q0 -178 -113.5 -275.5 t-306.5 -97.5z" />
<glyph unicode="H" horiz-adv-x="1024" d="M80 0v1460h319v-581h228v581h317v-1460h-317v590h-228v-590h-319z" />
<glyph unicode="I" horiz-adv-x="479" d="M80 0v1460h319v-1460h-319z" />
<glyph unicode="J" horiz-adv-x="946" d="M459 -23q-199 0 -304.5 98.5t-105.5 295.5v172h303v-181q0 -113 100.5 -112.5t100.5 117.5v1093h319v-1075q0 -193 -109 -300.5t-304 -107.5z" />
<glyph unicode="K" horiz-adv-x="1007" d="M80 0v1460h319v-626l260 626h314l-256 -573l260 -887h-340l-156 625l-82 -158v-467h-319z" />
<glyph unicode="L" horiz-adv-x="862" d="M80 0v1460h317v-1188h418v-272h-735z" />
<glyph unicode="M" horiz-adv-x="1257" d="M80 0v1460h409l144 -569h4l151 569h390v-1460h-283v991h-4l-152 -624h-217l-157 624h-5v-991h-280z" />
<glyph unicode="N" horiz-adv-x="1062" d="M80 0v1460h323l291 -719h6v719h283v-1460h-285l-329 813h-7v-813h-282z" />
<glyph unicode="O" horiz-adv-x="1013" d="M508 -23q-205 0 -322.5 103.5t-117.5 308.5v682q0 197 122.5 304.5t315.5 107.5q195 0 317.5 -103.5t122.5 -304.5v-682q0 -201 -124 -308.5t-314 -107.5zM508 258q55 0 86 35t31 90v702q0 55 -33 87t-86 32q-115 0 -115 -121v-700q0 -57 30 -91t87 -34z" />
<glyph unicode="P" horiz-adv-x="974" d="M80 0v1460h471q180 0 273.5 -114.5t93.5 -337.5q0 -489 -377 -490h-142v-518h-319zM399 778h93q115 0 114 221q0 199 -112 199h-95v-420z" />
<glyph unicode="Q" horiz-adv-x="1013" d="M805 -188l-227 172q-33 -6 -68 -7q-205 0 -323.5 103.5t-118.5 308.5v682q0 197 122.5 304.5t317 107.5t318.5 -103.5t124 -304.5v-682q0 -156 -80 -252l134 -86zM510 258q55 0 87 35t32 90v702q0 55 -34 87t-87 32q-117 0 -117 -121v-700q0 -57 31 -91t88 -34z" />
<glyph unicode="R" horiz-adv-x="999" d="M80 0v1460h446q193 0 300.5 -107.5t107.5 -332.5q0 -287 -166 -385l182 -635h-329l-140 565h-82v-565h-319zM399 801h97q119 0 118 200q0 195 -118 195h-97v-395z" />
<glyph unicode="S" horiz-adv-x="921" d="M462.5 -23q-186.5 0 -295 117t-118.5 318l297 10q14 -186 121 -186q94 0 94 120q0 51 -31.5 93.5t-107.5 111.5l-129 121q-113 102 -168 198.5t-55 215.5q0 166 106.5 277.5t298.5 111.5q160 0 266.5 -99.5t114.5 -330.5l-278 -11q-6 57 -15.5 93.5t-36 64t-67.5 27.5 q-45 0 -68.5 -32t-23.5 -77q0 -14 4 -28.5t9 -25.5t17 -28l20 -25q7 -9 24.5 -26.5t24.5 -24l27 -24.5l25 -25l125 -114q117 -106 173 -208t56 -222q0 -166 -111.5 -279t-298 -113z" />
<glyph unicode="T" horiz-adv-x="940" d="M309 0v1190h-274v270h870v-270h-274v-1190h-322z" />
<glyph unicode="U" horiz-adv-x="1003" d="M494 -23q-203 0 -311.5 99.5t-108.5 302.5v1081h321v-1073q0 -63 32 -97t85 -34t84 35t31 94v1075h303v-1075q2 -193 -120.5 -300.5t-315.5 -107.5z" />
<glyph unicode="V" horiz-adv-x="917" d="M291 -6l-285 1466h316l147 -895h8l148 895h286l-282 -1466h-338z" />
<glyph unicode="W" horiz-adv-x="1396" d="M260 -6l-246 1466h316l110 -823h6l123 823h301l117 -819h4l111 819h280l-241 -1466h-297l-133 883h-11l-139 -883h-301z" />
<glyph unicode="X" horiz-adv-x="948" d="M6 0l293 733l-279 727h334l135 -377l138 377h301l-277 -702l291 -758h-332l-149 401l-150 -401h-305z" />
<glyph unicode="Y" horiz-adv-x="956" d="M319 0v563l-313 897h340l152 -526l149 526h303l-311 -897v-563h-320z" />
<glyph unicode="Z" horiz-adv-x="876" d="M59 0v205l416 985h-412v270h766v-235l-405 -953h395v-272h-760z" />
<glyph unicode="[" horiz-adv-x="507" d="M115 -344v1804h346v-157h-109v-1493h109v-154h-346z" />
<glyph unicode="\" horiz-adv-x="540" d="M362 -346l-333 1812h188l340 -1812h-195z" />
<glyph unicode="]" horiz-adv-x="507" d="M45 -344v156h111v1491h-111v157h348v-1804h-348z" />
<glyph unicode="^" horiz-adv-x="854" d="M111 338l213 852h198l193 -852h-201l-96 473l-105 -473h-202z" />
<glyph unicode="_" horiz-adv-x="821" d="M0 -299v195h821v-195h-821z" />
<glyph unicode="`" horiz-adv-x="522" d="M264 1206l-215 310h291l135 -310h-211z" />
<glyph unicode="a" horiz-adv-x="866" d="M301 -20q-111 0 -180.5 82.5t-69.5 250.5q0 170 116 265.5t284 97.5h47v139q0 76 -80 76q-78 0 -78 -78v-80h-266v88q0 137 100 221t262 84q164 0 260.5 -86t96.5 -239v-553q0 -43 3 -101.5t6 -100.5t3 -46h-273v4q-2 6 -3 15.5t-3 21.5t-3 29.5t-3 38.5h-6 q-31 -66 -93.5 -97.5t-119.5 -31.5zM418 207q31 0 55.5 26.5t24.5 65.5v201h-41q-49 0 -79 -40t-30 -112q0 -141 70 -141z" />
<glyph unicode="b" horiz-adv-x="899" d="M541 -18q-121 0 -187 98h-4l-4 -80h-268v1460h297v-434h4q74 104 199 104q129 0 191 -75.5t62 -192.5v-600q0 -121 -78.5 -200.5t-211.5 -79.5zM461 211q33 0 54.5 22.5t21.5 63.5v504q0 88 -78 88q-37 0 -60.5 -26.5t-23.5 -80.5v-475q0 -47 25.5 -71.5t60.5 -24.5z" />
<glyph unicode="c" horiz-adv-x="839" d="M434 -23q-160 0 -263 87.5t-103 246.5v469q0 162 106.5 254t262 92t250.5 -82.5t95 -218.5v-98h-262v80q0 80 -77.5 80t-77.5 -90v-492q0 -41 20.5 -67.5t56.5 -26.5q39 0 58.5 22.5t19.5 59.5v80h262v-94q0 -143 -94 -222.5t-254 -79.5z" />
<glyph unicode="d" horiz-adv-x="897" d="M326 -20q-131 0 -194.5 76.5t-63.5 201.5v604q0 111 70.5 187.5t195.5 76.5q115 0 190 -84h2v418h295v-1460h-278l-4 98h-7q-37 -55 -93 -86.5t-113 -31.5zM438 217q37 0 63.5 28.5t26.5 78.5v479q0 45 -26.5 70.5t-61.5 25.5q-78 0 -78 -94v-496q0 -41 20.5 -66.5 t55.5 -25.5z" />
<glyph unicode="e" horiz-adv-x="843" d="M442 -25q-168 0 -271 88.5t-103 249.5v455q0 168 105.5 263t265 95t251.5 -90t92 -243v-353h-420v-96q0 -61 39 -95t101 -34q92 0 215 41l51 -211q-146 -70 -326 -70zM362 647h158v160q0 86 -78 86q-39 0 -59.5 -24.5t-20.5 -63.5v-158z" />
<glyph unicode="f" horiz-adv-x="622" d="M152 0v862h-97v230h97v129q0 121 77.5 189.5t202.5 68.5q84 0 162 -17v-221q-33 8 -84 8q-63 0 -64 -75v-82h119v-230h-119v-862h-294z" />
<glyph unicode="g" horiz-adv-x="897" d="M414 -348q-172 0 -312 57l70 228q121 -45 219 -46q135 0 135 123v156h-4q-35 -61 -90 -94t-113 -33q-125 0 -188 71.5t-63 186.5v541q0 121 74.5 201.5t197.5 80.5q55 0 109.5 -27.5t85.5 -74.5h4l2 86h280v-1075q0 -186 -105 -283.5t-302 -97.5zM440 274q35 0 59.5 26 t24.5 73v424q0 45 -26.5 70.5t-61.5 25.5q-33 0 -53.5 -24.5t-20.5 -69.5v-439q0 -86 78 -86z" />
<glyph unicode="h" horiz-adv-x="903" d="M78 0v1460h297v-454h2q80 121 225 120q98 0 163.5 -63.5t65.5 -169.5v-893h-294v782q0 96 -80 97q-37 0 -59.5 -33t-22.5 -82v-764h-297z" />
<glyph unicode="i" horiz-adv-x="450" d="M78 0v1102h297v-1102h-297zM78 1219v288h297v-288h-297z" />
<glyph unicode="j" horiz-adv-x="458" d="M109 -344q-49 0 -117 10v230q4 -2 39 -2t48 17t13 58v1133h295v-1172q0 -131 -75.5 -202.5t-202.5 -71.5zM90 1219v288h297v-288h-297z" />
<glyph unicode="k" horiz-adv-x="878" d="M78 0v1460h297v-786l194 428h291l-188 -375l190 -727h-313l-107 485l-67 -127v-358h-297z" />
<glyph unicode="l" horiz-adv-x="505" d="M317 -18q-244 0 -243 229v1249h297v-1153q0 -53 51 -53q12 0 49 4v-248q-70 -28 -154 -28z" />
<glyph unicode="m" horiz-adv-x="1363" d="M78 0v1102h291v-96h4q80 121 229 120q160 0 211 -129h2q98 129 248 129q96 0 162.5 -63.5t66.5 -169.5v-893h-295v782q0 96 -79 97q-39 0 -61.5 -32t-22.5 -81v-766h-297v782q0 96 -80 97q-37 0 -59.5 -33t-22.5 -82v-764h-297z" />
<glyph unicode="n" horiz-adv-x="903" d="M78 0v1102h291v-94h4q82 119 229 118q98 0 163.5 -63.5t65.5 -169.5v-893h-294v782q0 96 -80 97q-37 0 -59.5 -33t-22.5 -82v-764h-297z" />
<glyph unicode="o" horiz-adv-x="884" d="M442 -23q-166 0 -270 85t-104 253v467q0 162 107.5 253t267 91t268 -87t108.5 -251v-471q0 -166 -107.5 -253t-269.5 -87zM444 213q78 0 78 88v494q0 39 -21.5 65.5t-58.5 26.5q-39 0 -58 -26.5t-19 -67.5v-494q-1 -86 79 -86z" />
<glyph unicode="p" horiz-adv-x="899" d="M78 -328v1430h291v-98h4q37 53 96 86.5t119 33.5q125 0 184 -76.5t59 -203.5v-600q0 -113 -71.5 -190t-198.5 -77q-113 0 -184 89h-2v-394h-297zM459 211q35 0 56.5 22.5t21.5 63.5v506q0 41 -21.5 64.5t-54.5 23.5q-86 0 -86 -109v-477q0 -47 24.5 -70.5t59.5 -23.5z " />
<glyph unicode="q" horiz-adv-x="899" d="M526 -328v410h-4q-82 -104 -198 -105q-131 0 -193.5 75t-62.5 194v598q0 123 76.5 201.5t209.5 78.5q125 0 195 -98h2l2 80h268v-1434h-295zM440.5 219q34.5 0 60 27.5t25.5 72.5v484q0 45 -25.5 70.5t-60 25.5t-56.5 -25.5t-22 -70.5v-492q0 -43 22 -67.5t56.5 -24.5z " />
<glyph unicode="r" horiz-adv-x="671" d="M78 0v1102h293v-127h2q61 139 184 139q55 0 84 -10v-275q-61 10 -111 11q-63 0 -109 -29t-46 -92v-719h-297z" />
<glyph unicode="s" horiz-adv-x="780" d="M391 -23q-139 0 -236.5 79t-109.5 251l270 8q6 -117 82 -116q59 0 60 69q0 61 -123 158l-82 63q-184 141 -184 318q0 129 84 224t254 95q143 0 230 -79.5t95 -251.5l-250 -9q-10 125 -80 125q-66 0 -65 -69q0 -29 24.5 -56.5t83.5 -74.5l97 -80q100 -82 147 -159t47 -177 q0 -133 -86 -225.5t-258 -92.5z" />
<glyph unicode="t" horiz-adv-x="632" d="M403 -16q-117 0 -188.5 58t-71.5 175v645h-96v230h96v247h295v-247h150v-230h-150v-557q0 -63 62 -63q53 0 86 6v-236q-83 -28 -183 -28z" />
<glyph unicode="u" horiz-adv-x="901" d="M301 -25q-96 0 -161.5 64.5t-65.5 173.5v889h293v-783q0 -96 79 -96q39 0 62.5 33t23.5 82v764h293v-1102h-290v102h-3q-84 -127 -231 -127z" />
<glyph unicode="v" horiz-adv-x="821" d="M260 -4l-254 1106h313l107 -653h4l117 653h268l-250 -1106h-305z" />
<glyph unicode="w" horiz-adv-x="1222" d="M250 -2l-221 1104h307l74 -549h8l84 549h268l80 -549h8l82 549h272l-227 -1104h-254l-104 598h-6l-105 -598h-266z" />
<glyph unicode="x" horiz-adv-x="819" d="M4 2l246 557l-232 543h310l104 -271l100 271h267l-230 -529l246 -571h-309l-115 297l-119 -297h-268z" />
<glyph unicode="y" horiz-adv-x="823" d="M238 -348q-78 0 -156 18l29 232q66 -14 90 -15q61 0 78 54l14 63l-287 1098h309l123 -635h6l105 635h268l-268 -1161q-78 -289 -311 -289z" />
<glyph unicode="z" horiz-adv-x="757" d="M53 0v207l318 651h-312v244h648l-2 -215l-312 -639h312v-248h-652z" />
<glyph unicode="{" horiz-adv-x="516" d="M326 -344q-197 0 -197 209v532q0 72 -14.5 98.5t-61.5 32.5v164q49 12 62.5 31.5t13.5 71.5v448q0 217 197 217h151v-162h-69q-41 0 -41 -43v-419q0 -94 -19.5 -143.5t-81.5 -71.5v-13q68 -27 84.5 -68.5t16.5 -144.5v-536q0 -45 41 -45h69v-158h-151z" />
<glyph unicode="|" horiz-adv-x="540" d="M178 -215v1685h187v-1685h-187z" />
<glyph unicode="}" horiz-adv-x="516" d="M41 -344v158h68q41 0 41 45v536q0 102 17 143.5t83 69.5v13q-59 23 -79.5 71.5t-20.5 143.5v419q0 45 -41 45h-68v162h152q195 0 194 -217v-450q0 -51 13.5 -70.5t62.5 -32.5v-164q-45 -6 -60.5 -33.5t-15.5 -97.5v-532q0 -209 -194 -209h-152z" />
<glyph unicode="~" horiz-adv-x="847" d="M184 494l-131 24q35 266 201 266q47 0 173 -27.5t169 -27.5q29 0 45 19.5t31 62.5l123 -27q-31 -268 -193 -268q-45 0 -175 31t-165 31q-31 0 -48.5 -19.5t-29.5 -64.5z" />
<glyph unicode="&#xa1;" horiz-adv-x="458" d="M84 -309v536l47 490h197l49 -490v-536h-293zM92 819v334h277v-334h-277z" />
<glyph unicode="&#xa2;" horiz-adv-x="841" d="M311 -119v152q-117 29 -184.5 108.5t-67.5 206.5v459q0 127 70 210t182 116v149h244v-149q106 -29 166.5 -103t60.5 -180v-113h-264v97q0 86 -82 86q-41 0 -62.5 -27t-21.5 -70v-477q0 -45 21.5 -72.5t62.5 -27.5q39 0 60.5 23.5t21.5 62.5v100h264v-115 q0 -111 -60 -183.5t-167 -98.5v-154h-244z" />
<glyph unicode="&#xa3;" horiz-adv-x="985" d="M70 0v254h100v364h-84v205h84v293q0 180 110.5 274.5t276.5 94.5q154 0 248 -86t94 -242v-131h-262v129q0 84 -80 84q-37 0 -58.5 -24.5t-21.5 -63.5v-328h264v-205h-264v-364h451l-45 -254h-813z" />
<glyph unicode="&#xa4;" horiz-adv-x="854" d="M180 365l-84 84l90 90q-55 78 -55 170q0 84 45 157l-92 92l82 82l90 -88q78 57 172 58q82 0 156 -47l92 92l84 -84l-90 -90q57 -82 57 -172q0 -84 -47 -158l90 -90l-82 -84l-90 88q-72 -53 -170 -53q-88 0 -156 45zM428 520q84 0 130 54.5t46 134t-47 135t-129 55.5 q-84 0 -130 -54t-46 -136q0 -76 48 -132.5t128 -56.5z" />
<glyph unicode="&#xa5;" horiz-adv-x="952" d="M317 0v444h-237v197h203l-279 819h334l156 -520l147 520h307l-276 -819h202v-197h-237v-444h-320z" />
<glyph unicode="&#xa6;" horiz-adv-x="636" d="M193 -96v741h206v-741h-206zM193 791v673h206v-673h-206z" />
<glyph unicode="&#xa7;" horiz-adv-x="847" d="M414 -90q-139 0 -238.5 67.5t-99.5 233.5v80h241v-53q0 -135 113 -136q51 0 71.5 37t20.5 84q0 92 -106 139q-92 37 -103 39q-240 88 -239 299q0 111 110 222q-106 90 -106 241q0 141 92 227.5t256 86.5q150 0 241 -76t91 -225v-76h-232v65q0 49 -24.5 82t-73.5 33 t-73.5 -30.5t-24.5 -75.5q0 -47 29.5 -81t70.5 -51l115 -43q238 -98 237 -282q0 -131 -108 -236q111 -102 110 -235q0 -152 -102 -244t-268 -92zM479 596q57 31 58 84q0 59 -80 94q-70 27 -90 33q-51 -43 -51.5 -96.5t90.5 -89.5z" />
<glyph unicode="&#xa8;" horiz-adv-x="690" d="M68 1206v303h227v-303h-227zM397 1206v303h228v-303h-228z" />
<glyph unicode="&#xa9;" horiz-adv-x="1515" d="M764 135q-145 0 -240.5 76t-95.5 219v553q0 141 95 222t241 81q141 0 232 -76.5t91 -208.5v-165h-235v151q0 37 -21.5 60.5t-60.5 23.5q-84 0 -84 -92v-537q0 -92 82 -92q41 0 62.5 22.5t21.5 57.5v158h235v-168q0 -133 -91 -209t-232 -76zM758 -106q-219 0 -377 112.5 t-232.5 294.5t-74.5 412q0 344 186 577.5t498 233.5q215 0 372.5 -112t233.5 -293t76 -406q0 -350 -182.5 -584.5t-499.5 -234.5zM757.5 31q225.5 0 372 186t146.5 496q0 311 -144.5 498.5t-373.5 187.5q-233 0 -375.5 -186.5t-142.5 -500t146 -497.5t371.5 -184z" />
<glyph unicode="&#xaa;" horiz-adv-x="579" d="M203 793q-68 0 -111 49t-43 149.5t72 155.5t174 55h27v78q0 45 -48 45q-43 0 -43 -45v-49h-168v53q0 82 61.5 131t162.5 49q104 0 162.5 -49t58.5 -141v-324q0 -111 8 -143h-174q-2 8 -8 61q-41 -75 -131 -75zM276 932q18 0 32 13t14 36v115h-25q-61 0 -61 -86 q-1 -78 40 -78zM88 580v153h418v-153h-418z" />
<glyph unicode="&#xab;" d="M297 221l-258 338l258 338l149 -88l-114 -250l119 -254zM676 231l-254 328l254 328l151 -88l-112 -240l116 -244z" />
<glyph unicode="&#xac;" horiz-adv-x="1021" d="M727 311v242h-657v199h864v-441h-207z" />
<glyph unicode="&#xad;" horiz-adv-x="499" d="M47 502v225h408v-225h-408z" />
<glyph unicode="&#xae;" horiz-adv-x="897" d="M449 625q-178 0 -286 130t-108 318q0 186 112 316.5t282 130.5q176 0 285.5 -129t109.5 -317.5t-110.5 -318.5t-284.5 -130zM448.5 715q118.5 0 204.5 99t86 259t-84 259.5t-206 99.5q-121 0 -204 -98.5t-83 -260.5t84 -260t202.5 -98zM289 834v497h188q72 0 114 -42 t42 -113q0 -106 -80 -144l92 -198h-129l-76 178h-30v-178h-121zM410 1102h43q27 0 43 18.5t16 47t-15.5 47t-41.5 18.5h-45v-131z" />
<glyph unicode="&#xaf;" horiz-adv-x="714" d="M106 1225v205h500v-205h-500z" />
<glyph unicode="&#xb0;" horiz-adv-x="524" d="M262 1108q-86 0 -142.5 55.5t-56.5 132.5q0 76 57.5 132.5t141.5 56.5t141.5 -55.5t57.5 -131.5q0 -78 -58.5 -134t-140.5 -56zM262 1212q33 0 55.5 25t22.5 59.5t-21.5 58t-56.5 23.5q-33 0 -54.5 -23.5t-21.5 -58t21.5 -59.5t54.5 -25z" />
<glyph unicode="&#xb1;" horiz-adv-x="907" d="M354 371v247h-280v201h280v260h201v-260h281v-201h-281v-247h-201zM80 49v201h745v-201h-745z" />
<glyph unicode="&#xb2;" horiz-adv-x="595" d="M66 778v133l188 246q90 123 90 199v8q0 61 -45 61q-51 0 -51 -65v-47h-197v57q0 109 66.5 169t183.5 60q121 0 186.5 -62t65.5 -173q0 -57 -27.5 -121.5t-53.5 -101.5t-77 -103l-63 -88h219v-172h-485z" />
<glyph unicode="&#xb3;" horiz-adv-x="602" d="M299 754q-127 0 -190.5 60t-63.5 165v53h199v-57q0 -51 51 -51q47 0 47 86q0 90 -61 90h-70v155h61q68 0 68 91q0 80 -49 79q-47 0 -47 -61v-41h-195v47q0 106 64.5 167.5t183.5 61.5q113 0 179.5 -58t66.5 -169q0 -143 -107 -188v-4q59 -18 91 -67.5t32 -115.5 q0 -129 -71.5 -186t-188.5 -57z" />
<glyph unicode="&#xb4;" horiz-adv-x="540" d="M70 1206l135 310h293l-217 -310h-211z" />
<glyph unicode="&#xb5;" horiz-adv-x="937" d="M70 -367v1469h295v-778q0 -98 81 -99q39 0 66 31t27 84v762h297v-711q0 -53 16 -76.5t53 -29.5l-2 -291q-211 8 -252 145q-47 -162 -186 -162q-63 0 -121.5 35t-73.5 99l-12 -5l94 -452z" />
<glyph unicode="&#xb6;" horiz-adv-x="911" d="M324 -135v581q-266 61 -267 492q0 233 98.5 378.5t290.5 145.5h410v-157h-80v-1440h-180v1440h-92v-1440h-180z" />
<glyph unicode="&#xb7;" horiz-adv-x="415" d="M70 573v336h278v-336h-278z" />
<glyph unicode="&#x22c5;" horiz-adv-x="415" d="M70 573v336h278v-336h-278z" />
<glyph unicode="&#xb8;" horiz-adv-x="583" d="M262.5 -403q-102.5 0 -180.5 22v127q90 -25 168 -25q63 0 63 41q0 35 -67 39l-84 6l53 222h113l-29 -127q82 2 145.5 -27t63.5 -104q0 -80 -71.5 -127t-174 -47z" />
<glyph unicode="&#xb9;" horiz-adv-x="448" d="M139 778v625l-73 -17l-25 152l182 59h117v-819h-201z" />
<glyph unicode="&#xba;" horiz-adv-x="587" d="M293 795q-104 0 -170 50t-66 148v273q0 96 68 150t166 54q100 0 168.5 -51t68.5 -149v-275q0 -96 -67.5 -148t-167.5 -52zM291 938q47 0 47 47v289q0 49 -47 49q-45 0 -45 -49v-289q0 -47 45 -47zM88 580v151h416v-151h-416z" />
<glyph unicode="&#xbb;" d="M193 231l-150 91l111 239l-115 242l154 84l253 -324zM571 221l-149 90l115 250l-119 252l153 84l260 -334z" />
<glyph unicode="&#xbc;" horiz-adv-x="1368" d="M205 647v625l-74 -17l-25 152l183 59h117v-819h-201zM1012 0v166h-287v149l236 500h213l-250 -485h88v96l198 143v-239h62v-164h-62v-166h-198zM254 -2l643 1468h141l-643 -1468h-141z" />
<glyph unicode="&#xbd;" horiz-adv-x="1368" d="M201 647v625l-74 -17l-25 152l183 59h116v-819h-200zM786 0v133l189 246q90 123 90 199v8q0 61 -45 61q-51 0 -51 -65v-47h-197v57q0 109 66.5 169t183.5 60q121 0 186.5 -62.5t65.5 -172.5q0 -57 -27.5 -122t-53.5 -101.5t-77 -102.5l-63 -88h219v-172h-486zM236 -2 l643 1468h141l-643 -1468h-141z" />
<glyph unicode="&#xbe;" horiz-adv-x="1368" d="M1047 0v166h-287v149l235 500h213l-250 -485h89v96l198 143v-239h62v-164h-62v-166h-198zM307 623q-127 0 -190.5 60t-63.5 165v53h199v-57q0 -51 51 -51q47 0 47 86q0 90 -61 90h-70v155h62q68 0 67 90q0 80 -49 80q-47 0 -47 -61v-41h-195v47q0 106 64.5 167.5 t183.5 61.5q113 0 179.5 -58t66.5 -169q0 -143 -107 -188v-4q59 -18 91 -67.5t32 -115.5q0 -129 -71.5 -186t-188.5 -57zM315 -2l643 1468h142l-643 -1468h-142z" />
<glyph unicode="&#xbf;" horiz-adv-x="817" d="M414 -330q-168 0 -262.5 96.5t-96.5 272.5q0 186 142 377q111 150 110 262v49h266v-43q0 -197 -94 -336q-86 -127 -106 -192q-18 -59 -19 -125q0 -104 80 -105q78 0 78 103v110h254v-112q0 -162 -96 -259.5t-256 -97.5zM291 819v334h291v-334h-291z" />
<glyph unicode="&#xc0;" horiz-adv-x="1087" d="M37 0l295 1462h438l281 -1462h-322l-55 299h-289l-53 -299h-295zM434 557h189l-88 545h-7zM442 1550l-215 310h291l135 -310h-211z" />
<glyph unicode="&#xc1;" horiz-adv-x="1087" d="M37 0l295 1462h438l281 -1462h-322l-55 299h-289l-53 -299h-295zM434 557h189l-88 545h-7zM434 1550l135 310h293l-217 -310h-211z" />
<glyph unicode="&#xc2;" horiz-adv-x="1087" d="M37 0l295 1462h438l281 -1462h-322l-55 299h-289l-53 -299h-295zM434 557h189l-88 545h-7zM248 1550l196 318h213l195 -318h-227l-80 148l-78 -148h-219z" />
<glyph unicode="&#xc3;" horiz-adv-x="1087" d="M37 0l295 1462h438l281 -1462h-322l-55 299h-289l-53 -299h-295zM434 557h189l-88 545h-7zM346 1550l-145 35q20 113 72.5 183.5t134.5 70.5q45 0 130 -29.5t126 -29.5q29 0 46 17.5t33 60.5l134 -35q-14 -106 -67.5 -180t-139.5 -74q-41 0 -129 29.5t-119 29.5 t-46.5 -15.5t-29.5 -62.5z" />
<glyph unicode="&#xc4;" horiz-adv-x="1087" d="M37 0l295 1462h438l281 -1462h-322l-55 299h-289l-53 -299h-295zM434 557h189l-88 545h-7zM264 1550v303h228v-303h-228zM594 1550v303h227v-303h-227z" />
<glyph unicode="&#xc5;" horiz-adv-x="1087" d="M37 0l295 1462h438l281 -1462h-322l-55 299h-289l-53 -299h-295zM434 557h189l-88 545h-7zM555 1526q-86 0 -144.5 55t-58.5 141q0 88 58.5 145.5t146.5 57.5t144.5 -53t56.5 -143q0 -86 -59.5 -144.5t-143.5 -58.5zM557 1632q39 0 63.5 27t24.5 67q0 43 -23.5 69 t-64.5 26q-39 0 -62.5 -26t-23.5 -69q0 -41 24.5 -67.5t61.5 -26.5z" />
<glyph unicode="&#xc6;" horiz-adv-x="1486" d="M27 0l485 1460h911v-270h-411v-309h327v-273h-327v-336h413v-272h-733v336h-258l-90 -336h-317zM520 575h172v555h-10z" />
<glyph unicode="&#xc7;" horiz-adv-x="968" d="M508 -403q-102 0 -180 22v127q90 -25 168 -25q63 0 63 41q0 35 -67 39l-84 6l41 173q-174 14 -277.5 113.5t-103.5 277.5v725q0 182 124.5 284.5t313.5 102.5q174 0 289.5 -97.5t115.5 -269.5v-160h-290v136q0 53 -32 83.5t-83 30.5q-115 0 -115 -119v-704 q0 -125 117 -125q49 0 81 30.5t32 82.5v133h290v-150q0 -160 -97 -258t-253 -114l-16 -80q82 2 145.5 -27t63.5 -104q0 -80 -72 -127t-174 -47z" />
<glyph unicode="&#xc8;" d="M80 0v1460h733v-270h-416v-307h330v-273h-330v-338h418v-272h-735zM379 1550l-215 310h291l135 -310h-211z" />
<glyph unicode="&#xc9;" d="M324 1550l135 310h293l-217 -310h-211zM80 0v1460h733v-270h-416v-307h330v-273h-330v-338h418v-272h-735z" />
<glyph unicode="&#xca;" d="M139 1550l197 318h213l194 -318h-227l-80 148l-78 -148h-219zM80 0v1460h733v-270h-416v-307h330v-273h-330v-338h418v-272h-735z" />
<glyph unicode="&#xcb;" d="M186 1550v303h228v-303h-228zM516 1550v303h227v-303h-227zM80 0v1460h733v-270h-416v-307h330v-273h-330v-338h418v-272h-735z" />
<glyph unicode="&#xcc;" horiz-adv-x="479" d="M80 0v1460h319v-1460h-319zM129 1550l-215 310h291l135 -310h-211z" />
<glyph unicode="&#xcd;" horiz-adv-x="479" d="M80 0v1460h319v-1460h-319zM125 1550l135 310h293l-217 -310h-211z" />
<glyph unicode="&#xce;" horiz-adv-x="479" d="M80 0v1460h319v-1460h-319zM-61 1550l196 318h213l195 -318h-228l-79 148l-78 -148h-219z" />
<glyph unicode="&#xcf;" horiz-adv-x="479" d="M80 0v1460h319v-1460h-319zM-39 1550v303h227v-303h-227zM291 1550v303h227v-303h-227z" />
<glyph unicode="&#xd0;" horiz-adv-x="1040" d="M41 659v193h78v608h442q180 0 296 -93t116 -269v-719q0 -186 -115 -282.5t-299 -96.5h-440v659h-78zM436 272h94q61 0 91 37t30 92v666q0 55 -31.5 88t-93.5 33h-90v-336h162v-193h-162v-387z" />
<glyph unicode="&#xd1;" horiz-adv-x="1062" d="M80 0v1460h323l291 -719h6v719h283v-1460h-285l-329 813h-7v-813h-282zM367 1550l-146 35q20 113 72.5 183.5t134.5 70.5q45 0 130 -29.5t126 -29.5q29 0 46.5 17.5t33.5 60.5l133 -35q-14 -106 -67.5 -180t-139.5 -74q-41 0 -129 29.5t-118.5 29.5t-46 -15.5 t-29.5 -62.5z" />
<glyph unicode="&#xd2;" horiz-adv-x="1013" d="M508 -23q-205 0 -322.5 103.5t-117.5 308.5v682q0 197 122.5 304.5t315.5 107.5q195 0 317.5 -103.5t122.5 -304.5v-682q0 -201 -124 -308.5t-314 -107.5zM508 258q55 0 86 35t31 90v702q0 55 -33 87t-86 32q-115 0 -115 -121v-700q0 -57 30 -91t87 -34zM414 1550 l-215 310h290l136 -310h-211z" />
<glyph unicode="&#xd3;" horiz-adv-x="1013" d="M397 1550l135 310h293l-217 -310h-211zM508 -23q-205 0 -322.5 103.5t-117.5 308.5v682q0 197 122.5 304.5t315.5 107.5q195 0 317.5 -103.5t122.5 -304.5v-682q0 -201 -124 -308.5t-314 -107.5zM508 258q55 0 86 35t31 90v702q0 55 -33 87t-86 32q-115 0 -115 -121v-700 q0 -57 30 -91t87 -34z" />
<glyph unicode="&#xd4;" horiz-adv-x="1013" d="M201 1550l196 318h213l195 -318h-227l-80 148l-78 -148h-219zM508 -23q-205 0 -322.5 103.5t-117.5 308.5v682q0 197 122.5 304.5t315.5 107.5q195 0 317.5 -103.5t122.5 -304.5v-682q0 -201 -124 -308.5t-314 -107.5zM508 258q55 0 86 35t31 90v702q0 55 -33 87t-86 32 q-115 0 -115 -121v-700q0 -57 30 -91t87 -34z" />
<glyph unicode="&#xd5;" horiz-adv-x="1013" d="M508 -23q-205 0 -322.5 103.5t-117.5 308.5v682q0 197 122.5 304.5t315.5 107.5q195 0 317.5 -103.5t122.5 -304.5v-682q0 -201 -124 -308.5t-314 -107.5zM508 258q55 0 86 35t31 90v702q0 55 -33 87t-86 32q-115 0 -115 -121v-700q0 -57 30 -91t87 -34zM303 1550 l-145 35q20 113 72.5 183.5t134.5 70.5q45 0 130 -29.5t126 -29.5q29 0 46 17.5t33 60.5l134 -35q-14 -106 -67.5 -180t-139.5 -74q-41 0 -129 29.5t-119 29.5t-46.5 -15.5t-29.5 -62.5z" />
<glyph unicode="&#xd6;" horiz-adv-x="1013" d="M225 1550v303h228v-303h-228zM555 1550v303h227v-303h-227zM508 -23q-205 0 -322.5 103.5t-117.5 308.5v682q0 197 122.5 304.5t315.5 107.5q195 0 317.5 -103.5t122.5 -304.5v-682q0 -201 -124 -308.5t-314 -107.5zM508 258q55 0 86 35t31 90v702q0 55 -33 87t-86 32 q-115 0 -115 -121v-700q0 -57 30 -91t87 -34z" />
<glyph unicode="&#xd7;" horiz-adv-x="907" d="M217 268l-143 142l239 243l-241 244l143 143l242 -241l237 241l144 -145l-238 -240l124 -128l114 -115l-144 -144l-237 242z" />
<glyph unicode="&#xd8;" horiz-adv-x="1013" d="M268 -106l-116 34l49 140q-133 106 -133 321v682q0 197 122.5 304.5t315.5 107.5q106 0 201 -35l43 119l116 -35l-53 -146q133 -106 133 -311v-682q0 -201 -124 -308.5t-314 -107.5q-111 0 -199 31zM391 1083v-497l211 575q-31 43 -96 43q-115 0 -115 -121zM508 258 q55 0 86 35t31 90v487l-209 -573q29 -39 92 -39z" />
<glyph unicode="&#xd9;" horiz-adv-x="1003" d="M494 -23q-203 0 -311.5 99.5t-108.5 302.5v1081h321v-1073q0 -63 32 -97t85 -34t84 35t31 94v1075h303v-1075q2 -193 -120.5 -300.5t-315.5 -107.5zM426 1550l-215 310h291l135 -310h-211z" />
<glyph unicode="&#xda;" horiz-adv-x="1003" d="M401 1550l136 310h292l-217 -310h-211zM494 -23q-203 0 -311.5 99.5t-108.5 302.5v1081h321v-1073q0 -63 32 -97t85 -34t84 35t31 94v1075h303v-1075q2 -193 -120.5 -300.5t-315.5 -107.5z" />
<glyph unicode="&#xdb;" horiz-adv-x="1003" d="M209 1550l197 318h212l195 -318h-227l-80 148l-78 -148h-219zM494 -23q-203 0 -311.5 99.5t-108.5 302.5v1081h321v-1073q0 -63 32 -97t85 -34t84 35t31 94v1075h303v-1075q2 -193 -120.5 -300.5t-315.5 -107.5z" />
<glyph unicode="&#xdc;" horiz-adv-x="1003" d="M236 1550v303h227v-303h-227zM565 1550v303h228v-303h-228zM494 -23q-203 0 -311.5 99.5t-108.5 302.5v1081h321v-1073q0 -63 32 -97t85 -34t84 35t31 94v1075h303v-1075q2 -193 -120.5 -300.5t-315.5 -107.5z" />
<glyph unicode="&#xdd;" horiz-adv-x="956" d="M319 0v563l-313 897h340l152 -526l149 526h303l-311 -897v-563h-320zM389 1550l135 310h293l-217 -310h-211z" />
<glyph unicode="&#xde;" horiz-adv-x="976" d="M78 0v1460h319v-258h158q369 0 369 -434q0 -477 -377 -477h-150v-291h-319zM397 539h101q113 0 112 219q0 102 -26.5 146t-83.5 44h-103v-409z" />
<glyph unicode="&#xdf;" horiz-adv-x="1026" d="M682 -14q-109 0 -182 20l24 236q53 -12 80 -13q45 0 65.5 37t20.5 86q0 82 -44 155t-122 111v234h27q86 106 86 240q0 63 -25.5 104t-74.5 41q-94 0 -95 -123v-1114h-295v864h-94v228h94v18q0 164 103.5 265.5t312.5 101.5q184 0 280.5 -97.5t96.5 -246.5 q0 -104 -37 -204t-108 -157v-6q90 -90 141 -203.5t51 -220.5q0 -154 -80 -255t-225 -101z" />
<glyph unicode="&#xe0;" horiz-adv-x="866" d="M301 -20q-111 0 -180.5 82.5t-69.5 250.5q0 170 116 265.5t284 97.5h47v139q0 76 -80 76q-78 0 -78 -78v-80h-266v88q0 137 100 221t262 84q164 0 260.5 -86t96.5 -239v-553q0 -43 3 -101.5t6 -100.5t3 -46h-273v4q-2 6 -3 15.5t-3 21.5t-3 29.5t-3 38.5h-6 q-31 -66 -93.5 -97.5t-119.5 -31.5zM418 207q31 0 55.5 26.5t24.5 65.5v201h-41q-49 0 -79 -40t-30 -112q0 -141 70 -141zM344 1206l-215 310h291l135 -310h-211z" />
<glyph unicode="&#xe1;" horiz-adv-x="866" d="M301 -20q-111 0 -180.5 82.5t-69.5 250.5q0 170 116 265.5t284 97.5h47v139q0 76 -80 76q-78 0 -78 -78v-80h-266v88q0 137 100 221t262 84q164 0 260.5 -86t96.5 -239v-553q0 -43 3 -101.5t6 -100.5t3 -46h-273v4q-2 6 -3 15.5t-3 21.5t-3 29.5t-3 38.5h-6 q-31 -66 -93.5 -97.5t-119.5 -31.5zM418 207q31 0 55.5 26.5t24.5 65.5v201h-41q-49 0 -79 -40t-30 -112q0 -141 70 -141zM307 1206l135 310h293l-217 -310h-211z" />
<glyph unicode="&#xe2;" horiz-adv-x="866" d="M301 -20q-111 0 -180.5 82.5t-69.5 250.5q0 170 116 265.5t284 97.5h47v139q0 76 -80 76q-78 0 -78 -78v-80h-266v88q0 137 100 221t262 84q164 0 260.5 -86t96.5 -239v-553q0 -43 3 -101.5t6 -100.5t3 -46h-273v4q-2 6 -3 15.5t-3 21.5t-3 29.5t-3 38.5h-6 q-31 -66 -93.5 -97.5t-119.5 -31.5zM418 207q31 0 55.5 26.5t24.5 65.5v201h-41q-49 0 -79 -40t-30 -112q0 -141 70 -141zM123 1206l196 318h213l195 -318h-227l-80 148l-78 -148h-219z" />
<glyph unicode="&#xe3;" horiz-adv-x="866" d="M301 -20q-111 0 -180.5 82.5t-69.5 250.5q0 170 116 265.5t284 97.5h47v139q0 76 -80 76q-78 0 -78 -78v-80h-266v88q0 137 100 221t262 84q164 0 260.5 -86t96.5 -239v-553q0 -43 3 -101.5t6 -100.5t3 -46h-273v4q-2 6 -3 15.5t-3 21.5t-3 29.5t-3 38.5h-6 q-31 -66 -93.5 -97.5t-119.5 -31.5zM418 207q31 0 55.5 26.5t24.5 65.5v201h-41q-49 0 -79 -40t-30 -112q0 -141 70 -141zM236 1206l-146 35q20 113 72.5 183.5t134.5 70.5q45 0 130 -29.5t126 -29.5q29 0 46 17t34 60l133 -34q-14 -106 -67.5 -180t-139.5 -74 q-41 0 -129 29.5t-118.5 29.5t-46 -15.5t-29.5 -62.5z" />
<glyph unicode="&#xe4;" horiz-adv-x="866" d="M301 -20q-111 0 -180.5 82.5t-69.5 250.5q0 170 116 265.5t284 97.5h47v139q0 76 -80 76q-78 0 -78 -78v-80h-266v88q0 137 100 221t262 84q164 0 260.5 -86t96.5 -239v-553q0 -43 3 -101.5t6 -100.5t3 -46h-273v4q-2 6 -3 15.5t-3 21.5t-3 29.5t-3 38.5h-6 q-31 -66 -93.5 -97.5t-119.5 -31.5zM418 207q31 0 55.5 26.5t24.5 65.5v201h-41q-49 0 -79 -40t-30 -112q0 -141 70 -141zM150 1206v303h227v-303h-227zM479 1206v303h228v-303h-228z" />
<glyph unicode="&#xe5;" horiz-adv-x="866" d="M301 -20q-111 0 -180.5 82.5t-69.5 250.5q0 170 116 265.5t284 97.5h47v139q0 76 -80 76q-78 0 -78 -78v-80h-266v88q0 137 100 221t262 84q164 0 260.5 -86t96.5 -239v-553q0 -43 3 -101.5t6 -100.5t3 -46h-273v4q-2 6 -3 15.5t-3 21.5t-3 29.5t-3 38.5h-6 q-31 -66 -93.5 -97.5t-119.5 -31.5zM418 207q31 0 55.5 26.5t24.5 65.5v201h-41q-49 0 -79 -40t-30 -112q0 -141 70 -141zM436 1186q-86 0 -144.5 55t-58.5 141q0 88 58.5 145.5t146.5 57.5t144.5 -53t56.5 -143q0 -86 -59.5 -144.5t-143.5 -58.5zM438 1292q39 0 63.5 27 t24.5 67q0 43 -23.5 69t-64.5 26q-39 0 -62.5 -25.5t-23.5 -69.5q0 -41 24.5 -67.5t61.5 -26.5z" />
<glyph unicode="&#xe6;" horiz-adv-x="1275" d="M301 -25q-109 0 -179.5 85t-70.5 253q0 170 116 265.5t284 97.5h47v139q0 76 -80 76q-78 0 -78 -78v-80h-266v88q0 137 100 221t262 84q137 0 221 -59q96 59 217 59q156 0 248 -88t92 -241v-357h-417v-96q0 -63 37.5 -96t99.5 -33q88 0 215 41l53 -211q-147 -70 -323 -70 q-217 0 -314 136q-82 -136 -264 -136zM420 207q31 0 54.5 25.5t23.5 64.5v203h-41q-49 0 -79 -40t-30 -112q0 -141 72 -141zM797 647h157v160q0 39 -21.5 62.5t-58 23.5t-57 -24.5t-20.5 -61.5v-160z" />
<glyph unicode="&#xe7;" horiz-adv-x="839" d="M432.5 -403q-102.5 0 -180.5 22v127q88 -25 168 -25q63 0 63 41q0 35 -67 39l-84 6l41 175q-135 14 -220 100t-85 229v469q0 162 106.5 254t262 92t250.5 -82.5t95 -218.5v-98h-262v80q0 80 -77.5 80t-77.5 -90v-492q0 -41 20.5 -67.5t56.5 -26.5q39 0 58.5 22.5 t19.5 59.5v80h262v-94q0 -131 -79.5 -209t-217.5 -90l-16 -78q82 2 145.5 -27t63.5 -104q0 -80 -71.5 -127t-174 -47z" />
<glyph unicode="&#xe8;" horiz-adv-x="843" d="M442 -25q-168 0 -271 88.5t-103 249.5v455q0 168 105.5 263t265 95t251.5 -90t92 -243v-353h-420v-96q0 -61 39 -95t101 -34q92 0 215 41l51 -211q-146 -70 -326 -70zM362 647h158v160q0 86 -78 86q-39 0 -59.5 -24.5t-20.5 -63.5v-158zM358 1206l-215 310h291l135 -310 h-211z" />
<glyph unicode="&#xe9;" horiz-adv-x="843" d="M324 1206l135 310h293l-217 -310h-211zM442 -25q-168 0 -271 88.5t-103 249.5v455q0 168 105.5 263t265 95t251.5 -90t92 -243v-353h-420v-96q0 -61 39 -95t101 -34q92 0 215 41l51 -211q-146 -70 -326 -70zM362 647h158v160q0 86 -78 86q-39 0 -59.5 -24.5t-20.5 -63.5 v-158z" />
<glyph unicode="&#xea;" horiz-adv-x="843" d="M147 1206l197 318h213l195 -318h-228l-80 148l-77 -148h-220zM442 -25q-168 0 -271 88.5t-103 249.5v455q0 168 105.5 263t265 95t251.5 -90t92 -243v-353h-420v-96q0 -61 39 -95t101 -34q92 0 215 41l51 -211q-146 -70 -326 -70zM362 647h158v160q0 86 -78 86 q-39 0 -59.5 -24.5t-20.5 -63.5v-158z" />
<glyph unicode="&#xeb;" horiz-adv-x="843" d="M156 1206v303h227v-303h-227zM485 1206v303h228v-303h-228zM442 -25q-168 0 -271 88.5t-103 249.5v455q0 168 105.5 263t265 95t251.5 -90t92 -243v-353h-420v-96q0 -61 39 -95t101 -34q92 0 215 41l51 -211q-146 -70 -326 -70zM362 647h158v160q0 86 -78 86 q-39 0 -59.5 -24.5t-20.5 -63.5v-158z" />
<glyph unicode="&#xec;" horiz-adv-x="450" d="M78 0v1102h295v-1102h-295zM117 1206l-215 310h291l135 -310h-211z" />
<glyph unicode="&#xed;" horiz-adv-x="450" d="M115 1206l135 310h293l-217 -310h-211zM78 0v1102h295v-1102h-295z" />
<glyph unicode="&#xee;" horiz-adv-x="450" d="M-78 1206l197 318h213l194 -318h-227l-80 148l-78 -148h-219zM78 0v1102h295v-1102h-295z" />
<glyph unicode="&#xef;" horiz-adv-x="450" d="M-51 1206v303h227v-303h-227zM279 1206v303h227v-303h-227zM78 0v1102h295v-1102h-295z" />
<glyph unicode="&#xf0;" horiz-adv-x="882" d="M139 1155l-71 158l137 26l-66 109l303 59l62 -110l143 28l76 -155l-131 -27l180 -317q47 -78 47 -162v-447q0 -166 -107.5 -253t-269.5 -87q-166 0 -270 85t-104 253v441q0 137 71.5 226t198.5 105q14 2 18 0l-59 99zM444 213q78 0 78 88v467q0 41 -21.5 65.5t-58 24.5 t-57 -25.5t-20.5 -64.5v-471q-1 -84 79 -84z" />
<glyph unicode="&#xf1;" horiz-adv-x="903" d="M78 0v1102h291v-94h4q82 119 229 118q98 0 163.5 -63.5t65.5 -169.5v-893h-294v782q0 96 -80 97q-37 0 -59.5 -33t-22.5 -82v-764h-297zM293 1206l-146 35q20 113 72.5 183.5t134.5 70.5q45 0 130 -29.5t126 -29.5q29 0 46.5 17t33.5 60l133 -34q-14 -106 -67.5 -180 t-139.5 -74q-41 0 -129 29.5t-118.5 29.5t-46 -15.5t-29.5 -62.5z" />
<glyph unicode="&#xf2;" horiz-adv-x="884" d="M442 -23q-166 0 -270 85t-104 253v467q0 162 107.5 253t267 91t268 -87t108.5 -251v-471q0 -166 -107.5 -253t-269.5 -87zM444 213q78 0 78 88v494q0 39 -21.5 65.5t-58.5 26.5q-39 0 -58 -26.5t-19 -67.5v-494q-1 -86 79 -86zM346 1206l-215 310h291l135 -310h-211z" />
<glyph unicode="&#xf3;" horiz-adv-x="884" d="M322 1206l135 310h293l-218 -310h-210zM442 -23q-166 0 -270 85t-104 253v467q0 162 107.5 253t267 91t268 -87t108.5 -251v-471q0 -166 -107.5 -253t-269.5 -87zM444 213q78 0 78 88v494q0 39 -21.5 65.5t-58.5 26.5q-39 0 -58 -26.5t-19 -67.5v-494q-1 -86 79 -86z" />
<glyph unicode="&#xf4;" horiz-adv-x="884" d="M147 1206l197 318h213l195 -318h-228l-80 148l-77 -148h-220zM442 -23q-166 0 -270 85t-104 253v467q0 162 107.5 253t267 91t268 -87t108.5 -251v-471q0 -166 -107.5 -253t-269.5 -87zM444 213q78 0 78 88v494q0 39 -21.5 65.5t-58.5 26.5q-39 0 -58 -26.5t-19 -67.5 v-494q-1 -86 79 -86z" />
<glyph unicode="&#xf5;" horiz-adv-x="884" d="M442 -23q-166 0 -270 85t-104 253v467q0 162 107.5 253t267 91t268 -87t108.5 -251v-471q0 -166 -107.5 -253t-269.5 -87zM444 213q78 0 78 88v494q0 39 -21.5 65.5t-58.5 26.5q-39 0 -58 -26.5t-19 -67.5v-494q-1 -86 79 -86zM248 1206l-146 35q20 113 72.5 183.5 t134.5 70.5q45 0 130 -29.5t126 -29.5q29 0 46.5 17t33.5 60l133 -34q-14 -106 -67.5 -180t-139.5 -74q-41 0 -129 29.5t-118.5 29.5t-46 -15.5t-29.5 -62.5z" />
<glyph unicode="&#xf6;" horiz-adv-x="884" d="M164 1206v303h227v-303h-227zM494 1206v303h227v-303h-227zM442 -23q-166 0 -270 85t-104 253v467q0 162 107.5 253t267 91t268 -87t108.5 -251v-471q0 -166 -107.5 -253t-269.5 -87zM444 213q78 0 78 88v494q0 39 -21.5 65.5t-58.5 26.5q-39 0 -58 -26.5t-19 -67.5v-494 q-1 -86 79 -86z" />
<glyph unicode="&#xf7;" horiz-adv-x="907" d="M338 201v258h231v-258h-231zM92 553v201h725v-201h-725zM338 842v258h231v-258h-231z" />
<glyph unicode="&#xf8;" horiz-adv-x="884" d="M252 -115l-100 35l45 123q-129 86 -129 272v467q0 162 107.5 253t266.5 91q74 0 148 -22l43 117l100 -33l-49 -129q135 -92 135 -271v-471q0 -166 -107.5 -253t-269.5 -87q-74 0 -149 21zM444 213q78 0 78 88v315l-139 -378q18 -25 61 -25zM365 793v-297l135 364 q-23 27 -58 27q-39 0 -58 -26.5t-19 -67.5z" />
<glyph unicode="&#xf9;" horiz-adv-x="901" d="M301 -25q-96 0 -161.5 64.5t-65.5 173.5v889h293v-783q0 -96 79 -96q39 0 62.5 33t23.5 82v764h293v-1102h-290v102h-3q-84 -127 -231 -127zM342 1206l-215 310h291l135 -310h-211z" />
<glyph unicode="&#xfa;" horiz-adv-x="901" d="M340 1206l135 310h293l-217 -310h-211zM301 -25q-96 0 -161.5 64.5t-65.5 173.5v889h293v-783q0 -96 79 -96q39 0 62.5 33t23.5 82v764h293v-1102h-290v102h-3q-84 -127 -231 -127z" />
<glyph unicode="&#xfb;" horiz-adv-x="901" d="M150 1206l196 318h213l195 -318h-228l-80 148l-77 -148h-219zM301 -25q-96 0 -161.5 64.5t-65.5 173.5v889h293v-783q0 -96 79 -96q39 0 62.5 33t23.5 82v764h293v-1102h-290v102h-3q-84 -127 -231 -127z" />
<glyph unicode="&#xfc;" horiz-adv-x="901" d="M172 1206v303h227v-303h-227zM502 1206v303h227v-303h-227zM301 -25q-96 0 -161.5 64.5t-65.5 173.5v889h293v-783q0 -96 79 -96q39 0 62.5 33t23.5 82v764h293v-1102h-290v102h-3q-84 -127 -231 -127z" />
<glyph unicode="&#xfd;" horiz-adv-x="823" d="M238 -348q-78 0 -156 18l29 232q66 -14 90 -15q61 0 78 54l14 63l-287 1098h309l123 -635h6l105 635h268l-268 -1161q-78 -289 -311 -289zM317 1206l136 310h292l-217 -310h-211z" />
<glyph unicode="&#xfe;" horiz-adv-x="892" d="M76 -328v1788h295v-456h2q37 53 97 86.5t120 33.5q240 0 239 -280v-600q0 -113 -72.5 -190t-199.5 -77q-113 0 -182 89h-4v-394h-295zM454.5 209q34.5 0 57.5 23.5t23 64.5v506q0 41 -21.5 64.5t-54.5 23.5q-88 0 -88 -105v-483q0 -45 24.5 -69.5t59 -24.5z" />
<glyph unicode="&#xff;" horiz-adv-x="823" d="M238 -348q-78 0 -156 18l29 232q66 -14 90 -15q61 0 78 54l14 63l-287 1098h309l123 -635h6l105 635h268l-268 -1161q-78 -289 -311 -289zM154 1206v303h227v-303h-227zM483 1206v303h228v-303h-228z" />
<glyph unicode="&#x152;" horiz-adv-x="1425" d="M459 -16q-197 0 -294 100t-97 311v672q0 201 103 306.5t292 105.5q96 0 166 -49v30h733v-270h-416v-309h332v-273h-332v-336h418v-272h-735v37q-64 -53 -170 -53zM510 262q55 0 87 35t32 90v692q0 57 -34 88t-87 31q-55 0 -86 -31.5t-31 -87.5v-690q0 -57 31 -92t88 -35z " />
<glyph unicode="&#x153;" horiz-adv-x="1300" d="M442 -25q-166 0 -270 86t-104 254v467q0 162 107.5 253t266.5 91q137 0 232 -63q96 63 223 63q162 0 252 -90t90 -243v-353h-418v-96q0 -63 38 -96t102 -33q88 0 215 41l51 -211q-145 -70 -322 -70q-139 0 -233 64q-97 -64 -230 -64zM444 213q78 0 78 88v494 q0 39 -21.5 65.5t-58.5 26.5q-39 0 -58 -26.5t-19 -67.5v-494q-1 -86 79 -86zM821 647h158v160q0 86 -80 86q-37 0 -57.5 -24.5t-20.5 -61.5v-160z" />
<glyph unicode="&#x178;" horiz-adv-x="956" d="M319 0v563l-313 897h340l152 -526l149 526h303l-311 -897v-563h-320zM217 1550v303h227v-303h-227zM547 1550v303h227v-303h-227z" />
<glyph unicode="&#x2c6;" horiz-adv-x="653" d="M25 1206l196 318h213l195 -318h-228l-79 148l-78 -148h-219z" />
<glyph unicode="&#x2dc;" horiz-adv-x="759" d="M193 1206l-146 35q20 113 72.5 183.5t134.5 70.5q45 0 130 -29.5t126 -29.5q29 0 46 17t34 60l133 -34q-14 -106 -67.5 -180t-139.5 -74q-41 0 -129 29.5t-118.5 29.5t-46 -15.5t-29.5 -62.5z" />
<glyph unicode="&#x2000;" horiz-adv-x="962" />
<glyph unicode="&#x2001;" horiz-adv-x="1925" />
<glyph unicode="&#x2002;" horiz-adv-x="962" />
<glyph unicode="&#x2003;" horiz-adv-x="1925" />
<glyph unicode="&#x2004;" horiz-adv-x="641" />
<glyph unicode="&#x2005;" horiz-adv-x="481" />
<glyph unicode="&#x2006;" horiz-adv-x="319" />
<glyph unicode="&#x2007;" horiz-adv-x="319" />
<glyph unicode="&#x2008;" horiz-adv-x="239" />
<glyph unicode="&#x2009;" horiz-adv-x="385" />
<glyph unicode="&#x200a;" horiz-adv-x="106" />
<glyph unicode="&#x2010;" horiz-adv-x="499" d="M47 502v225h408v-225h-408z" />
<glyph unicode="&#x2011;" horiz-adv-x="499" d="M47 502v225h408v-225h-408z" />
<glyph unicode="&#x2012;" horiz-adv-x="499" d="M47 502v225h408v-225h-408z" />
<glyph unicode="&#x2013;" horiz-adv-x="757" d="M0 535v188h758v-188h-758z" />
<glyph unicode="&#x2014;" horiz-adv-x="1314" d="M0 535v188h1315v-188h-1315z" />
<glyph unicode="&#x2018;" horiz-adv-x="415" d="M68 870v304l108 288h137l-63 -274h96v-318h-278z" />
<glyph unicode="&#x2019;" horiz-adv-x="415" d="M102 870l62 273h-94v317h276v-299l-104 -291h-140z" />
<glyph unicode="&#x201a;" horiz-adv-x="415" d="M104 -246l60 264l-96 11l4 307l274 -8v-301l-106 -283z" />
<glyph unicode="&#x201c;" horiz-adv-x="792" d="M68 870v304l108 288h137l-63 -274h96v-318h-278zM444 870v304l107 288h139l-61 -274h94v-318h-279z" />
<glyph unicode="&#x201d;" horiz-adv-x="792" d="M102 870l62 273h-96v317h278v-299l-104 -291h-140zM479 870l62 273h-95v317h279v-299l-109 -291h-137z" />
<glyph unicode="&#x201e;" horiz-adv-x="792" d="M102 -256l62 274h-96v318h278v-301l-104 -291h-140zM479 -256l62 274h-95v318h279v-301l-109 -291h-137z" />
<glyph unicode="&#x2022;" horiz-adv-x="794" d="M399 438q-123 0 -209 87t-86 210t86 209t209 86q121 0 206 -86t85 -209t-85 -210t-206 -87z" />
<glyph unicode="&#x2026;" horiz-adv-x="1200" d="M70 0v336h276v-336h-276zM463 0v336h278v-336h-278zM854 0v336h279v-336h-279z" />
<glyph unicode="&#x202f;" horiz-adv-x="385" />
<glyph unicode="&#x2039;" horiz-adv-x="495" d="M299 221l-260 338l260 338l150 -88l-115 -250l119 -254z" />
<glyph unicode="&#x203a;" horiz-adv-x="497" d="M197 221l-154 90l115 250l-119 252l156 84l260 -334z" />
<glyph unicode="&#x205f;" horiz-adv-x="481" />
<glyph unicode="&#x20ac;" horiz-adv-x="1030" d="M573 -25q-186 0 -303.5 98.5t-117.5 280.5v150h-101v172h101v112h-101v170h101v150q0 170 122.5 273.5t303.5 103.5q174 0 287.5 -94.5t113.5 -268.5v-84h-289v72q0 53 -31.5 84t-83.5 31q-47 0 -74.5 -31t-27.5 -78v-158h250v-170h-250v-112h250v-172h-250v-148 q0 -53 31 -84.5t82 -31.5q49 0 76.5 30.5t27.5 83.5v60h289v-66q0 -174 -114 -273.5t-292 -99.5z" />
<glyph unicode="&#x2122;" horiz-adv-x="1101" d="M508 846v622h201l59 -256l57 256h197v-622h-143v371l-58 -238h-112l-60 238v-371h-141zM178 846v487h-125v135h408v-135h-125v-487h-158z" />
<glyph unicode="&#xe000;" horiz-adv-x="1100" d="M0 1100h1100v-1100h-1100v1100z" />
<glyph unicode="&#xe38c;" horiz-adv-x="1046" d="M676 0v1102h297v-1102h-297zM676 1219v288h297v-288h-297zM152 0v862h-97v230h97v129q0 121 77.5 189.5t202.5 68.5q84 0 162 -17v-221q-33 8 -84 8q-63 0 -64 -75v-82h119v-230h-119v-862h-294z" />
<glyph unicode="&#xfb01;" horiz-adv-x="1046" d="M676 0v1102h297v-1102h-297zM676 1219v288h297v-288h-297zM152 0v862h-97v230h97v129q0 121 77.5 189.5t202.5 68.5q84 0 162 -17v-221q-33 8 -84 8q-63 0 -64 -75v-82h119v-230h-119v-862h-294z" />
<glyph unicode="&#xe38d;" horiz-adv-x="1107" d="M918 -18q-244 0 -244 229v1249h297v-1153q0 -53 51 -53q12 0 49 4v-248q-69 -28 -153 -28zM152 0v862h-97v230h97v129q0 121 77.5 189.5t202.5 68.5q84 0 162 -17v-221q-33 8 -84 8q-63 0 -64 -75v-82h119v-230h-119v-862h-294z" />
<glyph unicode="&#xfb02;" horiz-adv-x="1107" d="M918 -18q-244 0 -244 229v1249h297v-1153q0 -53 51 -53q12 0 49 4v-248q-69 -28 -153 -28zM152 0v862h-97v230h97v129q0 121 77.5 189.5t202.5 68.5q84 0 162 -17v-221q-33 8 -84 8q-63 0 -64 -75v-82h119v-230h-119v-862h-294z" />
<glyph unicode="&#xfb03;" horiz-adv-x="1695" d="M1323 0v1102h297v-1102h-297zM1323 1219v288h297v-288h-297zM775 0v862h-97v230h97v129q0 121 77.5 189.5t202.5 68.5q84 0 162 -17v-221q-33 8 -84 8q-63 0 -64 -75v-82h119v-230h-119v-862h-294zM152 0v862h-97v230h97v129q0 121 77.5 189.5t202.5 68.5q84 0 162 -17 v-221q-33 8 -84 8q-63 0 -64 -75v-82h119v-230h-119v-862h-294z" />
<glyph unicode="&#xfb04;" horiz-adv-x="1751" d="M1562 -18q-244 0 -243 229v1249h297v-1153q0 -53 51 -53q12 0 49 4v-248q-70 -28 -154 -28zM775 0v862h-97v230h97v129q0 121 77.5 189.5t202.5 68.5q84 0 162 -17v-221q-33 8 -84 8q-63 0 -64 -75v-82h119v-230h-119v-862h-294zM152 0v862h-97v230h97v129 q0 121 77.5 189.5t202.5 68.5q84 0 162 -17v-221q-33 8 -84 8q-63 0 -64 -75v-82h119v-230h-119v-862h-294z" />
<glyph horiz-adv-x="382" />
</font>
</defs>
</svg>
