<?xml version="1.0" standalone="no"?>
<!DOCTYPE svg PUBLIC "-//W3C//DTD SVG 1.1//EN" "http://www.w3.org/Graphics/SVG/1.1/DTD/svg11.dtd" >
<svg xmlns="http://www.w3.org/2000/svg">
<metadata>
This is a custom SVG webfont generated by Font Squirrel.
Copyright   : Copyright c 2008 by Mrio Feliciano All rights reserved
Designer    : Mrio Feliciano
Foundry     : Mrio Feliciano  Feliciano Type Foundry
Foundry URL : wwwfelicianotypefoundrycom
</metadata>
<defs>
<font id="webfontJd7SiQDr" horiz-adv-x="1105" >
<font-face units-per-em="2048" ascent="1638" descent="-410" />
<missing-glyph horiz-adv-x="368" />
<glyph unicode=" "  horiz-adv-x="368" />
<glyph unicode="&#x09;" horiz-adv-x="368" />
<glyph unicode="&#xa0;" horiz-adv-x="368" />
<glyph unicode="!" horiz-adv-x="432" d="M195 375l-11 588v497h64v-497l-6 -588h-47zM182 0v178h68v-178h-68z" />
<glyph unicode="&#x22;" horiz-adv-x="536" d="M127 1102l-12 188v170h65v-170l-12 -188h-41zM373 1102l-13 188v170h66v-170l-12 -188h-41z" />
<glyph unicode="#" horiz-adv-x="1005" d="M182 -6l60 426h-174l6 59h174l82 539h-183l9 55h180l61 391h54l-58 -391h318l57 391h55l-55 -391h176l-8 -55h-174l-80 -539h180l-4 -59h-182l-58 -426h-61l59 426h-315l-57 -426h-62zM309 479h314l84 539h-318z" />
<glyph unicode="$" horiz-adv-x="919" d="M440 -51v168q-225 12 -346 155l41 39q80 -78 155 -108.5t183 -30.5q131 0 210 72.5t79 189.5q0 104 -47 168t-152 107q-8 2 -106.5 44t-100.5 44q-111 51 -157.5 119.5t-46.5 170.5q0 115 81.5 200t206.5 91v152h56v-152q201 -12 307 -133l-37 -39q-74 66 -141.5 92.5 t-159.5 26.5q-102 0 -175 -61.5t-73 -165.5q0 -90 40 -151.5t146 -102.5q2 0 51 -22l95 -44l49 -20q115 -49 170 -124t55 -198t-89 -216t-238 -101v-170h-56z" />
<glyph unicode="%" horiz-adv-x="1333" d="M328 756q-106 0 -164 60.5t-58 166.5v279q0 111 62.5 168t163 57t164 -57.5t63.5 -167.5v-287q0 -104 -65.5 -161.5t-165.5 -57.5zM332 813q74 0 119 47t45 111v305q0 61 -44 107.5t-120 46.5q-78 0 -120 -45.5t-42 -108.5v-307q0 -70 42 -113t120 -43zM266 -8l760 1489 h66l-756 -1489h-70zM997 -23q-104 0 -162.5 56.5t-58.5 163.5v274q0 111 62.5 174.5t163 63.5t163 -57.5t62.5 -166.5v-290q0 -102 -65 -160t-165 -58zM999.5 39q77.5 0 121.5 45t44 109v305q0 63 -44 109t-122 46q-76 0 -117.5 -45t-41.5 -110v-305q0 -70 41 -112 t118.5 -42z" />
<glyph unicode="&#x26;" horiz-adv-x="1267" d="M532 -27q-186 0 -291.5 110t-105.5 269q0 82 30 158t110.5 151.5t205.5 120.5q-203 240 -202 377q0 51 18 104.5t56 104.5t110 84t166 33q152 0 237.5 -93.5t85.5 -203.5q0 -303 -385 -434l371 -467q76 137 121 323l55 -8q-39 -178 -139 -364l190 -238h-73l-150 188 q-164 -215 -410 -215zM537 29q229 0 368 202l-395 502q-158 -51 -232.5 -154.5t-74.5 -230.5q0 -141 94.5 -230t239.5 -89zM537 799q195 72 273.5 156.5t78.5 226.5q0 113 -80 184.5t-193 71.5q-131 0 -203.5 -81t-72.5 -192q0 -70 43 -145.5t131 -192.5z" />
<glyph unicode="'" horiz-adv-x="292" d="M127 1102l-12 188v170h65v-170l-12 -188h-41z" />
<glyph unicode="(" horiz-adv-x="411" d="M338 -375q-113 182 -168 441.5t-55 486.5q0 524 223 922l45 -5q-109 -260 -159 -452.5t-50 -466.5q0 -489 211 -918z" />
<glyph unicode=")" horiz-adv-x="411" d="M72 -375l-47 8q211 428 211 918q0 274 -50.5 466.5t-158.5 452.5l45 5q223 -397 223 -922q0 -227 -55 -486.5t-168 -441.5z" />
<glyph unicode="*" horiz-adv-x="673" d="M170 897l-47 35l149 213l-227 139l29 45l237 -143v274h54v-274l233 143l31 -45l-230 -139l154 -213l-47 -35l-168 236z" />
<glyph unicode="+" d="M524 268v355h-344v57h344v354h58v-354h342v-57h-342v-355h-58z" />
<glyph unicode="," horiz-adv-x="337" d="M133 -182l27 184h-23v176h66v-176l-33 -184h-37z" />
<glyph unicode="-" horiz-adv-x="526" d="M66 569v60h395v-60h-395z" />
<glyph unicode="." horiz-adv-x="337" d="M137 0v178h66v-178h-66z" />
<glyph unicode="/" horiz-adv-x="595" d="M4 -367l461 1837h59l-454 -1837h-66z" />
<glyph unicode="0" horiz-adv-x="1011" d="M508 -23q-172 0 -278.5 94.5t-106.5 260.5v803q0 164 111.5 258t275.5 94q168 0 273.5 -92t105.5 -256v-807q0 -168 -107.5 -261.5t-273.5 -93.5zM510 35q152 0 232.5 82t80.5 219v803q0 127 -84 210t-231 83q-150 0 -235 -82t-85 -217v-801q0 -131 86 -214t236 -83z" />
<glyph unicode="1" horiz-adv-x="622" d="M287 0v1391l-181 -64l-6 55l203 80h49v-1462h-65z" />
<glyph unicode="2" horiz-adv-x="870" d="M104 0v45l256 346q311 391 312 725v23q-2 131 -67.5 209.5t-196.5 78.5q-117 0 -190 -68.5t-73 -176.5v-82h-59v76q0 145 93 228t237 83q156 0 238.5 -95.5t82.5 -261.5q0 -211 -81 -388t-244 -388l-219 -291v-4h589v-59h-678z" />
<glyph unicode="3" horiz-adv-x="968" d="M485 -23q-178 0 -268 89.5t-90 212.5v81h66v-86q0 -115 86 -177t206 -62q145 0 228.5 95t83.5 259q0 98 -31 169t-81 106.5t-101.5 52t-106.5 16.5h-137v60h137q127 0 207 87t80 242q0 164 -86 237t-207 73q-117 0 -191.5 -61.5t-74.5 -190.5v-72h-62v70q0 145 89.5 227 t246.5 82q176 0 262 -100.5t86 -245.5q0 -129 -59 -234.5t-180 -134.5v-6q129 -20 201.5 -125.5t72.5 -255.5q0 -180 -104.5 -294t-272.5 -114z" />
<glyph unicode="4" horiz-adv-x="983" d="M647 0v422h-557v55l533 983h69l-534 -981h489v336l64 55v-391h192v-57h-192v-422h-64z" />
<glyph unicode="5" horiz-adv-x="950" d="M459 -23q-174 0 -261 86.5t-87 204.5v92h65v-86q0 -117 83 -178t204 -61q129 0 220 73.5t91 249.5v185q0 315 -291 315q-147 0 -270 -115l-68 5l39 712h592v-57h-536l-33 -598q121 111 301 110q143 0 236.5 -88t93.5 -264v-207q0 -182 -103.5 -280.5t-275.5 -98.5z" />
<glyph unicode="6" horiz-adv-x="972" d="M489 -23q-164 0 -265 100.5t-101 256.5l2 805q0 164 100.5 257t261.5 93q158 0 257.5 -77t99.5 -204v-88h-60v76q0 106 -86 172t-213 66q-139 0 -218 -82t-79 -203v-438q47 94 143.5 147t194.5 53q135 0 234.5 -79.5t99.5 -221.5v-303q0 -158 -102.5 -244t-268.5 -86z M502 35q137 0 215 75.5t78 182.5v299q0 135 -82 196.5t-199 61.5q-127 0 -226.5 -88t-99.5 -211v-229q0 -123 85.5 -205t228.5 -82z" />
<glyph unicode="7" horiz-adv-x="894" d="M324 0q0 467 125.5 851t283.5 552h-624v57h704v-43q-150 -154 -251 -422t-140 -518t-37 -477h-61z" />
<glyph unicode="8" horiz-adv-x="946" d="M469 -23q-158 0 -256 90.5t-98 235.5v152q0 104 64.5 185t164.5 114q-98 27 -156.5 104.5t-58.5 169.5v137q0 154 100.5 237t245.5 83q150 0 248 -78t98 -229v-138q0 -92 -59.5 -173t-163.5 -109q102 -29 169 -108t67 -193v-150q0 -156 -100.5 -243t-264.5 -87zM473 35 q135 0 216 71.5t81 196.5v156q0 127 -91 198.5t-206 71.5q-119 0 -207 -73.5t-88 -198.5v-162q0 -115 85 -187.5t210 -72.5zM477 778q109 0 195 75t86 185v154q0 113 -86 175.5t-205 62.5q-109 0 -193 -71t-84 -181v-142q0 -119 91.5 -188.5t195.5 -69.5z" />
<glyph unicode="9" horiz-adv-x="972" d="M485 -23q-158 0 -257 77t-99 204v88h59v-76q0 -106 86 -171.5t213 -65.5q139 0 217 82t78 202v439q-51 -96 -143 -148.5t-193 -52.5q-137 0 -234 75t-97 216v313q0 158 101 244t267 86q164 0 264.5 -100.5t100.5 -255.5l-2 -805q0 -164 -99.5 -257.5t-261.5 -93.5z M459 616q127 0 225 88.5t98 210.5v230q0 113 -86 200t-225 87q-137 0 -214 -75t-77 -183v-308q0 -135 80 -192.5t199 -57.5z" />
<glyph unicode=":" horiz-adv-x="337" d="M137 0v178h66v-178h-66zM137 811v176h66v-176h-66z" />
<glyph unicode=";" horiz-adv-x="337" d="M133 -182l27 184h-23v176h66v-176l-33 -184h-37zM137 811v176h66v-176h-66z" />
<glyph unicode="&#x3c;" d="M864 303l-659 324v49l669 309l25 -49l-614 -285l604 -299z" />
<glyph unicode="=" d="M180 479v60h744v-60h-744zM180 770v57h744v-57h-744z" />
<glyph unicode="&#x3e;" d="M240 303l-27 51l604 297l-612 285l26 49l668 -309v-49z" />
<glyph unicode="?" horiz-adv-x="897" d="M393 375v92q4 72 32 135.5t51.5 95t76.5 97.5q80 92 119 166.5t39 179.5q0 135 -69 212t-193 77q-113 0 -184.5 -57.5t-71.5 -190.5v-70h-64v45q0 162 87 245t237 83q143 0 232 -89t89 -249q2 -84 -29.5 -165t-63.5 -123t-93 -114q-43 -53 -63.5 -80.5t-43 -81 t-26.5 -108.5v-100h-62zM389 0v178h70v-178h-70z" />
<glyph unicode="@" horiz-adv-x="1822" d="M936 -219q-233 0 -422 96q-178 94 -277.5 268t-95.5 418q0 381 233.5 629t606.5 248q311 0 512 -191.5t201 -500.5q0 -147 -52.5 -267.5t-134.5 -194t-176 -113.5t-186 -44h-51l32 207h-4q-129 -229 -336 -230q-115 0 -177 56.5t-62 152.5q0 33 6 62q72 428 72 432 q27 154 127 231.5t223 77.5q94 0 163.5 -52t78.5 -151h2l32 197h64l-158 -928q197 6 340 163t143 409q0 283 -190 460t-465 177q-348 0 -566 -235.5t-218 -588.5q0 -231 93 -397t255 -252q170 -90 389 -90q199 0 362 49l15 -45q-170 -53 -379 -53zM805 162 q111 0 219.5 106.5t132.5 253.5l33 211q6 33 6 68q0 125 -62.5 194.5t-158.5 69.5q-111 0 -190.5 -70.5t-100.5 -195.5l-66 -404q-6 -49 -6 -69q0 -164 193 -164z" />
<glyph unicode="A" horiz-adv-x="1085" d="M66 0l442 1466h80l434 -1466h-68l-155 530h-512l-158 -530h-63zM301 586h481l-237 805h-2z" />
<glyph unicode="B" horiz-adv-x="1071" d="M170 0v1460h399q164 0 259.5 -93t95.5 -257q0 -135 -75 -236.5t-194 -115.5v-6q147 -18 230.5 -119t83.5 -238q0 -199 -113 -297t-274 -98h-412zM233 59h340q156 0 242 84t86 256q0 160 -107.5 242t-258.5 82h-302v-664zM233 780h287q139 0 239.5 81t100.5 241 q0 152 -83 226.5t-216 74.5h-328v-623z" />
<glyph unicode="C" horiz-adv-x="1097" d="M571 -23q-205 0 -322.5 103.5t-117.5 300.5v688q0 182 119 299t321 117q188 0 295 -98.5t107 -241.5v-131h-60v100q0 139 -88 226t-262 87q-176 0 -272 -101t-96 -265v-655q0 -190 101 -280.5t275 -90.5q166 0 254 82t88 215v117h60v-125q0 -154 -106 -250.5t-296 -96.5z " />
<glyph unicode="D" horiz-adv-x="1140" d="M170 0v1460h434q186 0 296 -97t110 -286v-671q0 -190 -111 -298t-297 -108h-432zM233 59h357q180 0 267 93.5t87 244.5v666q0 150 -87 244t-261 94h-363v-1342z" />
<glyph unicode="E" horiz-adv-x="993" d="M170 0v1460h721v-59h-658v-606h525v-58h-525v-678h658v-59h-721z" />
<glyph unicode="F" horiz-adv-x="956" d="M170 0v1460h721v-59h-658v-606h523v-58h-523v-737h-63z" />
<glyph unicode="G" horiz-adv-x="1146" d="M573 -23q-203 0 -322.5 104.5t-119.5 299.5v678q0 182 121 304t321 122q190 0 301 -100.5t111 -243.5v-115h-61v96q0 133 -95.5 217t-263.5 84q-176 0 -273 -107.5t-97 -268.5v-656q0 -168 100 -261t278 -93q188 0 273.5 91t85.5 234v306h-348v61h411v-385 q0 -158 -111.5 -262.5t-310.5 -104.5z" />
<glyph unicode="H" horiz-adv-x="1200" d="M170 0v1460h63v-669h734v669h63v-1460h-63v731h-734v-731h-63z" />
<glyph unicode="I" horiz-adv-x="403" d="M170 0v1460h63v-1460h-63z" />
<glyph unicode="J" horiz-adv-x="1019" d="M467 -25q-174 0 -276.5 97.5t-102.5 269.5v166h62v-152q0 -141 73.5 -230t249.5 -89q166 0 243 91t77 220v1112h63v-1077q0 -182 -96 -295t-293 -113z" />
<glyph unicode="K" horiz-adv-x="1071" d="M170 0v1460h63v-823l682 823h74l-463 -559l480 -901h-76l-451 848l-246 -291v-557h-63z" />
<glyph unicode="L" horiz-adv-x="956" d="M170 0v1460h63v-1401h658v-59h-721z" />
<glyph unicode="M" horiz-adv-x="1325" d="M170 0v1460h86l406 -784h4l401 784h88v-1460h-65v1362h-5l-397 -772h-55l-395 770h-7v-1360h-61z" />
<glyph unicode="N" horiz-adv-x="1187" d="M170 0v1460h72l716 -1333h5v1333h55v-1460h-62l-725 1364h-4v-1364h-57z" />
<glyph unicode="O" horiz-adv-x="1148" d="M573 -23q-199 0 -320.5 106.5t-121.5 305.5v653q0 205 121 324t323 119q199 0 321 -106.5t122 -301.5v-655q0 -207 -121 -326t-324 -119zM575 41q176 0 276.5 100.5t100.5 268.5v663q0 162 -101 255t-284 93q-178 0 -274 -99t-96 -284v-635q0 -166 100 -264t278 -98z" />
<glyph unicode="P" horiz-adv-x="1062" d="M170 0v1460h377q190 0 291.5 -115.5t101.5 -295.5q0 -199 -115.5 -316t-320.5 -117h-271v-616h-63zM233 674h254q184 0 284.5 95t100.5 275q0 156 -85 256.5t-240 100.5h-314v-727z" />
<glyph unicode="Q" horiz-adv-x="1148" d="M1006 -174l-306 168q-61 -16 -127 -17q-199 0 -320.5 106.5t-121.5 305.5v653q0 205 121 324t323 119q199 0 321 -106.5t122 -301.5v-655q0 -147 -62.5 -249.5t-175.5 -152.5l260 -126zM575 41q176 0 276.5 100.5t100.5 268.5v663q0 162 -101 255t-284 93 q-178 0 -274 -99t-96 -284v-635q0 -166 100 -264t278 -98z" />
<glyph unicode="R" horiz-adv-x="1093" d="M170 0v1460h381q193 0 298 -108.5t105 -292.5q0 -172 -89 -281.5t-261 -124.5l397 -653h-75l-389 645h-304v-645h-63zM233 700h289q367 0 367 353q0 160 -85 255t-263 95h-308v-703z" />
<glyph unicode="S" horiz-adv-x="989" d="M481 -23q-246 0 -409 154l41 49q90 -76 173 -108.5t199 -32.5q143 0 230.5 89t87.5 220q0 135 -69.5 210t-192.5 138l-168 86q-260 127 -260 348q0 156 107.5 256.5t273.5 100.5q229 0 360 -125l-37 -45q-154 113 -338 113q-125 0 -213 -79t-88 -210q0 -193 234 -303 l161 -82q143 -74 219 -168t76 -234q0 -164 -104.5 -270.5t-282.5 -106.5z" />
<glyph unicode="T" horiz-adv-x="1009" d="M475 0v1401h-432v59h924v-59h-428v-1401h-64z" />
<glyph unicode="U" horiz-adv-x="1183" d="M590 -25q-176 0 -302 100.5t-126 307.5v1077h63v-1052q0 -197 106.5 -285t264.5 -88q172 0 271 98q94 93 94 243v19v1065h59v-1071q2 -190 -115.5 -302t-314.5 -112z" />
<glyph unicode="V" horiz-adv-x="1024" d="M477 -4l-420 1464h66l387 -1382h2l393 1382h64l-424 -1464h-68z" />
<glyph unicode="W" horiz-adv-x="1499" d="M391 -4l-317 1464h65l281 -1360h4l291 1360h76l284 -1356h4l283 1356h63l-317 -1464h-68l-288 1374h-4l-291 -1374h-66z" />
<glyph unicode="X" horiz-adv-x="927" d="M49 0l377 758l-342 702h70l311 -649l319 649h64l-348 -702l381 -758h-72l-346 705l-348 -705h-66z" />
<glyph unicode="Y" horiz-adv-x="964" d="M451 0v637l-381 823h63l354 -753l344 753h66l-383 -825v-635h-63z" />
<glyph unicode="Z" horiz-adv-x="954" d="M100 0v49l680 1358h-657v55h729v-45l-680 -1358h674v-59h-746z" />
<glyph unicode="[" horiz-adv-x="485" d="M121 -360v1820h319v-51h-260v-1716h260v-53h-319z" />
<glyph unicode="\" horiz-adv-x="595" d="M516 -367l-455 1837h60l461 -1837h-66z" />
<glyph unicode="]" horiz-adv-x="485" d="M45 -360v53h260v1716h-260v51h322v-1820h-322z" />
<glyph unicode="^" horiz-adv-x="774" d="M203 432l162 662h63l141 -662h-59l-115 563q-127 -557 -129 -563h-63z" />
<glyph unicode="_" horiz-adv-x="944" d="M0 -135v55h944v-55h-944z" />
<glyph unicode="`" horiz-adv-x="493" d="M264 1171l-209 289h80l187 -289h-58z" />
<glyph unicode="a" horiz-adv-x="901" d="M379 -23q-115 0 -194 76t-79 215q0 160 100.5 236t237.5 78h242v213q0 201 -235 200q-100 0 -176 -46t-76 -138v-68h-58v66q0 117 91.5 178.5t230.5 61.5q129 0 208 -60.5t79 -181.5v-539q0 -41 5 -151.5t5 -116.5h-60q-6 117 -6 180h-4q-43 -106 -130 -154.5t-181 -48.5 zM389 31q123 0 210 85t87 214v198h-219q-293 0 -293 -254q0 -119 63.5 -181t151.5 -62z" />
<glyph unicode="b" horiz-adv-x="935" d="M512 -23q-96 0 -179 55.5t-106 151.5h-4v-184h-53v1460h61v-616h7q39 100 121.5 152.5t170.5 52.5q133 0 208 -78t75 -197v-487q0 -156 -88 -233t-213 -77zM514 31q106 0 171 64.5t65 185.5v485q0 98 -59.5 162.5t-174.5 64.5q-109 0 -197 -100t-88 -248v-272 q0 -143 81 -242.5t202 -99.5z" />
<glyph unicode="c" horiz-adv-x="862" d="M446 -23q-162 0 -242.5 90.5t-80.5 262.5v366q0 166 85 259.5t234 93.5q152 0 229 -75t77 -190v-47h-58v51q0 76 -59.5 141.5t-192.5 65.5t-193.5 -85t-60.5 -216v-366q0 -299 265 -299q242 0 241 211v57h58v-51q-1 -269 -302 -269z" />
<glyph unicode="d" horiz-adv-x="931" d="M399 -23q-129 0 -202.5 76t-73.5 193v491q0 154 87 233t208 79q94 0 174 -52.5t104 -150.5h4v614h64v-1460h-53l-2 205h-7q-47 -123 -130 -175.5t-173 -52.5zM410 33q119 0 205.5 101.5t86.5 266.5v248q0 143 -83.5 245.5t-196.5 102.5q-102 0 -170 -60t-68 -196v-475 q0 -109 54.5 -171t171.5 -62z" />
<glyph unicode="e" horiz-adv-x="884" d="M475 -23q-168 0 -260 89.5t-92 271.5v338q0 176 92 274.5t248 98.5q150 0 230.5 -93.5t80.5 -257.5v-184h-588v-182q0 -299 293 -299q135 0 262 82l25 -43q-119 -95 -291 -95zM186 567h529v140q0 121 -62.5 203.5t-203.5 82.5q-131 0 -197 -89t-66 -206v-131z" />
<glyph unicode="f" horiz-adv-x="600" d="M252 0v969h-178v55h178v223q0 113 59.5 177.5t161.5 64.5q47 0 96 -12v-60q-37 12 -100 13q-70 0 -112 -43.5t-42 -133.5v-229h230v-55h-230v-969h-63z" />
<glyph unicode="g" horiz-adv-x="931" d="M414 -385q-176 0 -287 84l33 49q117 -76 256 -76q131 0 208.5 75t77.5 212v250h-2q-41 -104 -122.5 -152.5t-176.5 -48.5q-131 0 -204.5 79t-73.5 202v454q0 147 90 226.5t207 79.5q86 0 171 -47.5t114 -149.5h2l4 174h53v-1067q0 -166 -95 -255t-255 -89zM422 66 q117 0 198.5 95t81.5 253v266q0 137 -85 226t-195 89q-98 0 -168 -67.5t-70 -186.5v-442q0 -233 238 -233z" />
<glyph unicode="h" horiz-adv-x="962" d="M170 0v1462h61v-628h5q45 106 129 160.5t188 54.5q117 0 183.5 -70t66.5 -172v-807h-64v772q0 221 -209 221q-113 0 -206 -101t-93 -230v-662h-61z" />
<glyph unicode="i" horiz-adv-x="399" d="M170 0v1024h61v-1024h-61zM170 1237v184h61v-184h-61z" />
<glyph unicode="j" horiz-adv-x="430" d="M41 -387q-27 0 -72 4v59q33 -4 62 -4q92 0 129 49.5t37 141.5v1161h63v-1176q0 -235 -219 -235zM197 1237v184h63v-184h-63z" />
<glyph unicode="k" horiz-adv-x="827" d="M170 0v1462h61v-999l447 561h76l-289 -356l313 -668h-65l-291 618l-191 -229v-389h-61z" />
<glyph unicode="l" horiz-adv-x="530" d="M354 -8q-88 0 -136 50t-48 146v1272h63v-1276q0 -131 134 -131q61 0 98 10v-57q-48 -14 -111 -14z" />
<glyph unicode="m" horiz-adv-x="1533" d="M170 0v1024h55v-193h2q45 106 133.5 162t192.5 56q109 0 172 -62.5t74 -155.5h2q45 106 133 162t192 56q117 0 181.5 -70t64.5 -172v-807h-63v772q0 221 -209 221q-109 0 -202 -92t-95 -213v-688h-64v782q-6 211 -209 211q-113 0 -206 -97t-93 -224v-672h-61z" />
<glyph unicode="n" horiz-adv-x="962" d="M170 0v1024h55v-188h2q45 104 133.5 158.5t192.5 54.5q117 0 183.5 -70t66.5 -172v-807h-64v772q0 221 -209 221q-113 0 -206 -97t-93 -224v-672h-61z" />
<glyph unicode="o" horiz-adv-x="907" d="M455 -23q-160 0 -246 94.5t-86 264.5v350q0 168 89 265.5t241 97.5q158 0 244.5 -95.5t86.5 -263.5v-346q0 -178 -86.5 -272.5t-242.5 -94.5zM459 33q262 0 262 315v348q0 133 -65.5 216t-205 83t-203 -86t-63.5 -223v-340q1 -313 275 -313z" />
<glyph unicode="p" horiz-adv-x="935" d="M170 -360v1384h55v-180h4q39 100 122 152.5t171 52.5q133 0 212 -77t79 -192v-481q0 -160 -81 -241t-220 -81q-92 0 -172 53.5t-104 149.5h-5v-540h-61zM528 31q96 0 159 64.5t63 185.5v477q0 100 -59.5 167.5t-174.5 67.5q-121 0 -203 -100t-82 -252v-260 q0 -150 80 -250t217 -100z" />
<glyph unicode="q" horiz-adv-x="931" d="M700 -360v546h-4q-98 -211 -295 -211q-129 0 -203.5 76t-74.5 199v487q0 152 87 232t208 80q96 0 181 -54.5t110 -154.5h4l4 184h47v-1384h-64zM410 33q109 0 200.5 98t91.5 242v280q0 143 -86 242.5t-198 99.5q-98 0 -166 -66.5t-68 -185.5v-473q0 -102 56.5 -169.5 t169.5 -67.5z" />
<glyph unicode="r" horiz-adv-x="651" d="M170 0v1024h55v-186h2q57 119 136 157.5t186 38.5q27 0 55 -4v-61q-31 4 -78 4q-127 0 -210 -81t-85 -230v-662h-61z" />
<glyph unicode="s" horiz-adv-x="792" d="M397 -23q-199 0 -319 144l41 39q115 -129 280 -129q100 0 174 60.5t74 152.5q0 94 -45 149.5t-147 95.5l-111 46q-113 45 -163 108.5t-50 155.5t74 171t209 79q80 0 154.5 -26t113.5 -67l-35 -45q-104 84 -235 84q-94 0 -156.5 -54t-62.5 -136q0 -84 41.5 -131t148.5 -92 l113 -47q213 -88 213 -279q0 -127 -92.5 -203t-219.5 -76z" />
<glyph unicode="t" horiz-adv-x="665" d="M449 -16q-201 0 -201 172v815h-180v53h180v322h61v-322h281v-53h-281v-795q0 -72 37 -102.5t117 -30.5q47 0 135 27v-58q-75 -28 -149 -28z" />
<glyph unicode="u" horiz-adv-x="964" d="M410 -25q-117 0 -182.5 70t-65.5 170v809h63v-780q0 -117 54.5 -164t154.5 -47q115 0 207 94t92 223v674h64v-1024h-52l-4 188h-4q-45 -102 -134 -157.5t-193 -55.5z" />
<glyph unicode="v" horiz-adv-x="761" d="M342 -4l-293 1028h68l260 -942h2l274 942h60l-305 -1028h-66z" />
<glyph unicode="w" horiz-adv-x="1296" d="M330 -4l-264 1028h67l227 -934h5l249 934h76l238 -934h4l237 934h62l-273 -1028h-65l-240 956h-6l-254 -956h-63z" />
<glyph unicode="x" horiz-adv-x="749" d="M35 0l303 530l-277 494h74l246 -453l248 453h65l-276 -492l297 -532h-70l-270 492l-275 -492h-65z" />
<glyph unicode="y" horiz-adv-x="782" d="M125 -393q-61 0 -115 18l21 56q61 -14 98 -15q63 0 100 40t72 140l61 197l-309 981h68l274 -895h2l275 895h61l-362 -1161q-72 -256 -246 -256z" />
<glyph unicode="z" horiz-adv-x="765" d="M82 0v41l526 930h-514v53h582v-47l-518 -926h520v-51h-596z" />
<glyph unicode="{" horiz-adv-x="512" d="M256 -360q-41 0 -65.5 22.5t-24.5 63.5v747q0 80 -80 88v55q80 14 80 86v666q0 43 25.5 66.5t68.5 23.5h225v-49h-225q-33 0 -33 -47v-664q0 -74 -69 -102v-6q70 -31 69 -109v-743q0 -47 33 -47h225v-51h-229z" />
<glyph unicode="|" horiz-adv-x="464" d="M205 -104v1564h55v-1564h-55z" />
<glyph unicode="}" horiz-adv-x="512" d="M25 -360v51h227q33 0 33 47v743q0 78 67 109v6q-68 29 -67 102v668q0 47 -33 47h-227v49h227q92 0 92 -90v-670q0 -72 80 -86v-55q-80 -8 -80 -88v-747q0 -86 -92 -86h-227z" />
<glyph unicode="~" d="M231 557l-51 8q8 59 43 99.5t90 40.5q47 0 237.5 -35t235.5 -35q59 0 84 90l56 -12q-14 -66 -50 -105t-90 -39q-43 0 -236.5 36t-240.5 36q-25 0 -41 -15.5t-22.5 -27.5t-14.5 -41z" />
<glyph unicode="&#xa1;" horiz-adv-x="432" d="M182 -360v501l6 586h50l6 -586v-501h-62zM182 926v174h68v-174h-68z" />
<glyph unicode="&#xa2;" horiz-adv-x="899" d="M436 -137v168q-299 8 -299 348v369q0 158 79 248.5t220 97.5v151h60v-151q135 -8 203.5 -83t68.5 -182v-65h-61v72q0 76 -55.5 140t-188.5 64q-137 0 -198.5 -84t-61.5 -213v-360q0 -299 258 -299q135 0 190.5 66.5t55.5 144.5v74h61v-70q0 -111 -68.5 -184.5 t-203.5 -81.5v-170h-60z" />
<glyph unicode="&#xa3;" horiz-adv-x="1026" d="M115 0v59h149v666h-143v51h143v377q0 170 91 251t237 81q143 0 221 -71t78 -200v-77h-62v86q0 106 -65.5 156.5t-178 50.5t-185 -62.5t-72.5 -206.5v-385h409v-51h-409v-666h592l-19 -59h-786z" />
<glyph unicode="&#xa4;" horiz-adv-x="579" d="M109 475l-50 49l56 58q-45 59 -45 133q0 70 45 127l-56 53l50 49l53 -53q59 41 123 41q76 0 131 -41l55 55l49 -49l-55 -53q45 -63 45 -133q0 -68 -47 -131l55 -56l-47 -47l-55 55q-57 -39 -125 -38.5t-129 36.5zM287 553q70 0 111.5 42t41.5 120q0 70 -45 113.5 t-104 43.5q-70 0 -112 -43t-42 -122q0 -63 43.5 -108.5t106.5 -45.5z" />
<glyph unicode="&#xa5;" horiz-adv-x="964" d="M451 0v596h-338v53h331l-374 811h71l346 -749l344 749h66l-375 -811h336v-53h-344v-596h-63z" />
<glyph unicode="&#xa6;" horiz-adv-x="466" d="M205 -104v739h57v-739h-57zM205 774v688h57v-688h-57z" />
<glyph unicode="&#xa7;" horiz-adv-x="905" d="M451 -143q-143 0 -250 65.5t-107 198.5v49h43v-35q0 -113 88 -172t230 -59q135 0 219 63.5t84 173.5q0 23 -4 42.5t-8.5 33.5t-16.5 29.5t-18 25t-24.5 20.5t-26 16t-30 15.5t-28.5 12.5t-30.5 11t-28.5 11l-183 62q-225 78 -225 256q0 76 49 150.5t152 121.5 q-113 51 -157 107.5t-44 144.5q0 106 82 184t244 78q158 0 241.5 -70.5t83.5 -191.5v-41h-45v39q0 102 -73.5 161.5t-202.5 59.5q-125 0 -203 -57t-78 -164q0 -137 187 -215l184 -76q109 -43 175.5 -101t66.5 -151q0 -182 -205 -264q223 -70 217 -246q0 -129 -97 -208.5 t-261 -79.5zM535 412q98 29 155.5 91t57.5 152q0 121 -193 203l-172 68q-78 -29 -137.5 -96.5t-59.5 -149.5q0 -80 54.5 -134t126.5 -77z" />
<glyph unicode="&#xa8;" horiz-adv-x="686" d="M176 1237v174h64v-174h-64zM451 1237v174h63v-174h-63z" />
<glyph unicode="&#xa9;" horiz-adv-x="1705" d="M850 152q-168 0 -251 93t-83 265v383q0 170 86 266t248 96q160 0 239.5 -76.5t79.5 -197.5v-94h-59v102q0 76 -59.5 141.5t-196.5 65.5q-141 0 -206.5 -88t-65.5 -221v-371q0 -303 270 -303q137 0 197.5 67.5t60.5 145.5v96h59v-92q0 -121 -79.5 -199.5t-239.5 -78.5z M848 -94q-346 0 -536.5 222t-190.5 589q0 340 200.5 571.5t526.5 231.5q340 0 538.5 -232.5t198.5 -570.5q0 -346 -196.5 -578.5t-540.5 -232.5zM858 -45q293 0 478.5 210t185.5 552q0 350 -190.5 550.5t-483.5 200.5q-289 0 -477.5 -205.5t-188.5 -545.5q0 -358 185.5 -560 t490.5 -202z" />
<glyph unicode="&#xaa;" horiz-adv-x="610" d="M256 795q-74 0 -127 49t-53 139q0 100 69.5 150.5t159.5 50.5h135v123q0 129 -137 129q-61 0 -102 -29t-41 -84v-41h-60v37q0 80 58.5 121t152.5 41q88 0 139.5 -40t51.5 -122v-348q0 -63 6 -162h-59l-7 96q-53 -110 -186 -110zM274 846q72 0 119 51t47 127v113h-131 q-170 0 -170 -150q0 -70 40 -105.5t95 -35.5zM102 639v61h410v-61h-410z" />
<glyph unicode="&#xab;" horiz-adv-x="704" d="M225 279l-192 286l190 295l45 -26l-153 -265l155 -264zM492 279l-193 286l190 295l46 -26l-154 -265l156 -264z" />
<glyph unicode="&#xac;" horiz-adv-x="952" d="M786 371v237h-702v56h766v-293h-64z" />
<glyph unicode="&#xad;" horiz-adv-x="526" d="M66 569v60h395v-60h-395z" />
<glyph unicode="&#xae;" horiz-adv-x="1050" d="M522.5 604q-198.5 0 -316.5 132t-118 329q0 205 121 336t315 131q197 0 318 -130t121 -337q0 -195 -121 -328t-319.5 -133zM522 655q158 0 271.5 113t113.5 297q0 190 -112.5 304t-272.5 114t-268.5 -113t-108.5 -305q0 -184 111.5 -297t265.5 -113zM352 780v592h180 q86 0 136.5 -47t50.5 -125q0 -66 -38 -112t-101 -62l165 -246h-65l-162 242h-106v-242h-60zM412 1073h108q139 0 139 125q0 55 -37.5 89t-105.5 34h-104v-248z" />
<glyph unicode="&#xaf;" horiz-adv-x="739" d="M121 1237v59h500v-59h-500z" />
<glyph unicode="&#xb0;" horiz-adv-x="565" d="M279 1092q-80 0 -134.5 55t-54.5 135t54.5 137.5t134.5 57.5q84 0 140 -57.5t56 -137.5t-56 -135t-140 -55zM279 1139q61 0 102 42t41 101q0 61 -41 104.5t-102 43.5q-57 0 -96.5 -43.5t-39.5 -104.5q0 -59 39.5 -101t96.5 -42z" />
<glyph unicode="&#xb1;" d="M524 387v350h-344v58h344v352h58v-352h342v-58h-342v-350h-58zM180 170v59h744v-59h-744z" />
<glyph unicode="&#xb2;" horiz-adv-x="573" d="M106 778v33l148 201q84 115 127 201.5t43 172.5v11q-2 70 -37 111.5t-104 41.5q-63 0 -100.5 -36.5t-37.5 -96.5v-33h-51v31q0 86 53.5 135t141.5 49q92 0 142 -55t50 -149q0 -106 -44 -194.5t-140 -215.5l-119 -158h324v-49h-396z" />
<glyph unicode="&#xb3;" horiz-adv-x="618" d="M307 754q-104 0 -156.5 53t-52.5 129v33h54v-29q0 -63 45 -100t108 -37q76 0 116 48t40 136q0 96 -53.5 138t-108.5 42h-74v50h68q68 0 109.5 44t41.5 128q0 82 -42 120.5t-103 38.5q-63 0 -103 -33.5t-40 -101.5v-24h-52v30q0 84 53.5 131t147.5 47q98 0 146.5 -58 t48.5 -138q0 -172 -123 -203v-4q68 -16 105.5 -74.5t37.5 -134.5q0 -104 -59.5 -167.5t-153.5 -63.5z" />
<glyph unicode="&#xb4;" horiz-adv-x="493" d="M168 1171l184 289h80l-207 -289h-57z" />
<glyph unicode="&#xb5;" horiz-adv-x="972" d="M170 -365v1389h63v-774q0 -217 228 -217q113 0 196.5 93t83.5 224v674h64v-774q0 -59 27.5 -108.5t76.5 -71.5v-74q-137 68 -153 192q-45 -104 -127 -158.5t-187 -54.5q-158 0 -225 123h-2l29 -458z" />
<glyph unicode="&#xb6;" d="M475 -164v672q-174 18 -259 146t-85 319q0 205 100.5 346t268.5 141h508v-57h-170v-1567h-54v1567h-258v-1567h-51z" />
<glyph unicode="&#xb7;" horiz-adv-x="337" d="M137 592v172h66v-172h-66z" />
<glyph unicode="&#x22c5;" horiz-adv-x="337" d="M137 592v172h66v-172h-66z" />
<glyph unicode="&#xb8;" horiz-adv-x="688" d="M315 -387q-74 0 -145 22v56q82 -23 152 -23q115 0 114 76q0 74 -131 82l-57 4l47 180h53l-35 -135q186 -10 187 -131q0 -55 -49.5 -93t-135.5 -38z" />
<glyph unicode="&#xb9;" horiz-adv-x="440" d="M203 778v746l-101 -33l-8 53l133 49h33v-815h-57z" />
<glyph unicode="&#xba;" horiz-adv-x="636" d="M315 797q-215 0 -215 217v237q0 106 57.5 161.5t157.5 55.5q104 0 159.5 -55t55.5 -160v-241q0 -104 -57.5 -159.5t-157.5 -55.5zM315.5 846q153.5 0 153.5 170v237q0 164 -154 164q-78 0 -115.5 -46t-37.5 -120v-237q0 -168 153.5 -168zM111 639v61h409v-61h-409z" />
<glyph unicode="&#xbb;" horiz-adv-x="704" d="M80 279l-45 26l153 264l-155 265l45 26l192 -287zM346 279l-45 26l154 264l-156 265l45 26l193 -287z" />
<glyph unicode="&#xbc;" horiz-adv-x="1388" d="M281 651v746l-101 -33l-8 53l133 49h33v-815h-57zM260 -8l764 1478h61l-763 -1478h-62zM1118 0v227h-305v49l289 541h63l-293 -538h246v172l58 43v-215h106v-52h-106v-227h-58z" />
<glyph unicode="&#xbd;" horiz-adv-x="1388" d="M281 651v746l-101 -33l-8 53l133 49h33v-815h-57zM260 -8l764 1478h61l-763 -1478h-62zM881 0v33l147 200q84 115 127 202t43 173v10q-2 70 -37 112t-104 42q-63 0 -100 -37t-37 -96v-33h-52v31q0 86 53.5 135t141.5 49q92 0 142 -55t50 -150q0 -106 -44 -194t-140 -215 l-119 -158h324v-49h-395z" />
<glyph unicode="&#xbe;" horiz-adv-x="1388" d="M348 627q-104 0 -156.5 53t-52.5 129v33h54v-29q0 -63 45 -100t108 -37q76 0 116 48t40 136q0 96 -53.5 138t-108.5 42h-74v50h68q68 0 109.5 44t41.5 128q0 82 -42 120.5t-103 38.5q-63 0 -103 -33.5t-40 -101.5v-24h-52v30q0 84 53.5 131t147.5 47q98 0 146.5 -58 t48.5 -138q0 -172 -123 -203v-4q68 -16 105.5 -74.5t37.5 -134.5q0 -104 -59.5 -167.5t-153.5 -63.5zM326 -8l764 1478h61l-764 -1478h-61zM1118 0v227h-305v49l289 541h63l-293 -538h246v172l58 43v-215h106v-52h-106v-227h-58z" />
<glyph unicode="&#xbf;" horiz-adv-x="897" d="M457 -387q-150 0 -235 90t-85 250q-2 88 30 170t62.5 123t92.5 112q41 49 63.5 79t46 81t27.5 107v102h59v-92q-6 -72 -32.5 -135.5t-51 -97t-76.5 -95.5q-82 -94 -119.5 -167.5t-37.5 -180.5q0 -135 69.5 -212t194.5 -77q100 0 179 64.5t79 193.5v62h59v-49 q0 -158 -90 -243t-235 -85zM453 924v176h69v-176h-69z" />
<glyph unicode="&#xc0;" horiz-adv-x="1085" d="M66 0l442 1466h80l434 -1466h-68l-155 530h-512l-158 -530h-63zM301 586h481l-237 805h-2zM516 1577l-209 289h80l186 -289h-57z" />
<glyph unicode="&#xc1;" horiz-adv-x="1085" d="M66 0l442 1466h80l434 -1466h-68l-155 530h-512l-158 -530h-63zM301 586h481l-237 805h-2zM518 1577l184 289h80l-207 -289h-57z" />
<glyph unicode="&#xc2;" horiz-adv-x="1085" d="M66 0l442 1466h80l434 -1466h-68l-155 530h-512l-158 -530h-63zM301 586h481l-237 805h-2zM348 1567l166 288h51l160 -288h-68l-120 225l-123 -225h-66z" />
<glyph unicode="&#xc3;" horiz-adv-x="1085" d="M66 0l442 1466h80l434 -1466h-68l-155 530h-512l-158 -530h-63zM301 586h481l-237 805h-2zM307 1587l-47 4q6 61 43 102.5t96 41.5q47 0 142.5 -38t144.5 -38q66 0 94 92l45 -8q-10 -63 -49 -103.5t-92 -40.5t-151.5 39t-137.5 39q-43 0 -59.5 -22.5t-28.5 -67.5z" />
<glyph unicode="&#xc4;" horiz-adv-x="1085" d="M66 0l442 1466h80l434 -1466h-68l-155 530h-512l-158 -530h-63zM301 586h481l-237 805h-2zM369 1649v174h63v-174h-63zM643 1649v174h64v-174h-64z" />
<glyph unicode="&#xc5;" horiz-adv-x="1085" d="M66 0l442 1466h80l434 -1466h-68l-155 530h-512l-158 -530h-63zM301 586h481l-237 805h-2zM551 1532q-78 0 -118 47t-40 109q0 70 44 117.5t110 47.5q78 0 119 -44t41 -111q0 -70 -43 -118t-113 -48zM549 1577q45 0 75.5 29.5t30.5 85.5q0 53 -28.5 83.5t-79.5 30.5 q-45 0 -71.5 -32.5t-26.5 -86t28.5 -82t71.5 -28.5z" />
<glyph unicode="&#xc6;" horiz-adv-x="1583" d="M47 0l727 1460h754v-59h-658v-606h525v-58h-525v-678h658v-59h-721v504h-442l-248 -504h-70zM393 561h414v828h-4z" />
<glyph unicode="&#xc7;" horiz-adv-x="1097" d="M592 -387q-74 0 -146 22v56q82 -23 152 -23q115 0 115 76q0 74 -131 82l-58 4l39 147q-201 4 -316.5 106.5t-115.5 297.5v688q0 182 119 299t321 117q188 0 295 -98.5t107 -241.5v-131h-60v100q0 139 -88 226t-262 87q-176 0 -272 -101t-96 -265v-655q0 -190 101 -280.5 t275 -90.5q166 0 254 82t88 215v117h60v-125q0 -143 -93.5 -237.5t-263.5 -106.5l-26 -105q186 -10 186 -131q0 -55 -49 -93t-135 -38z" />
<glyph unicode="&#xc8;" horiz-adv-x="993" d="M170 0v1460h721v-59h-658v-606h525v-58h-525v-678h658v-59h-721zM543 1577l-209 289h80l186 -289h-57z" />
<glyph unicode="&#xc9;" horiz-adv-x="993" d="M487 1577l185 289h80l-207 -289h-58zM170 0v1460h721v-59h-658v-606h525v-58h-525v-678h658v-59h-721z" />
<glyph unicode="&#xca;" horiz-adv-x="993" d="M344 1567l166 288h51l160 -288h-68l-121 225l-122 -225h-66zM170 0v1460h721v-59h-658v-606h525v-58h-525v-678h658v-59h-721z" />
<glyph unicode="&#xcb;" horiz-adv-x="993" d="M377 1642v175h63v-175h-63zM651 1642v175h64v-175h-64zM170 0v1460h721v-59h-658v-606h525v-58h-525v-678h658v-59h-721z" />
<glyph unicode="&#xcc;" horiz-adv-x="362" d="M154 0v1460h63v-1460h-63zM154 1577l-209 289h80l186 -289h-57z" />
<glyph unicode="&#xcd;" horiz-adv-x="362" d="M154 0v1460h63v-1460h-63zM156 1577l184 289h80l-207 -289h-57z" />
<glyph unicode="&#xce;" horiz-adv-x="362" d="M154 0v1460h63v-1460h-63zM-4 1567l166 288h51l160 -288h-68l-121 225l-123 -225h-65z" />
<glyph unicode="&#xcf;" horiz-adv-x="362" d="M154 0v1460h63v-1460h-63zM14 1642v175h64v-175h-64zM289 1642v175h63v-175h-63z" />
<glyph unicode="&#xd0;" horiz-adv-x="1179" d="M66 745v54h143v661h434q186 0 296 -97t110 -286v-671q0 -190 -111 -298t-297 -108h-432v745h-143zM272 59h357q180 0 267 93.5t87 244.5v666q0 150 -87 244t-261 94h-363v-602h381v-54h-381v-686z" />
<glyph unicode="&#xd1;" horiz-adv-x="1187" d="M170 0v1460h72l716 -1333h5v1333h55v-1460h-62l-725 1364h-4v-1364h-57zM375 1587l-47 4q6 61 43 102.5t96 41.5q47 0 142.5 -38t144.5 -38q66 0 94 92l45 -8q-10 -63 -49 -103.5t-92.5 -40.5t-151.5 39t-137 39q-43 0 -59.5 -22.5t-28.5 -67.5z" />
<glyph unicode="&#xd2;" horiz-adv-x="1148" d="M573 -23q-199 0 -320.5 106.5t-121.5 305.5v653q0 205 121 324t323 119q199 0 321 -106.5t122 -301.5v-655q0 -207 -121 -326t-324 -119zM575 41q176 0 276.5 100.5t100.5 268.5v663q0 162 -101 255t-284 93q-178 0 -274 -99t-96 -284v-635q0 -166 100 -264t278 -98z M569 1577l-209 289h80l187 -289h-58z" />
<glyph unicode="&#xd3;" horiz-adv-x="1148" d="M532 1577l185 289h80l-207 -289h-58zM573 -23q-199 0 -320.5 106.5t-121.5 305.5v653q0 205 121 324t323 119q199 0 321 -106.5t122 -301.5v-655q0 -207 -121 -326t-324 -119zM575 41q176 0 276.5 100.5t100.5 268.5v663q0 162 -101 255t-284 93q-178 0 -274 -99 t-96 -284v-635q0 -166 100 -264t278 -98z" />
<glyph unicode="&#xd4;" horiz-adv-x="1148" d="M385 1567l166 288h51l160 -288h-68l-121 225l-122 -225h-66zM573 -23q-199 0 -320.5 106.5t-121.5 305.5v653q0 205 121 324t323 119q199 0 321 -106.5t122 -301.5v-655q0 -207 -121 -326t-324 -119zM575 41q176 0 276.5 100.5t100.5 268.5v663q0 162 -101 255t-284 93 q-178 0 -274 -99t-96 -284v-635q0 -166 100 -264t278 -98z" />
<glyph unicode="&#xd5;" horiz-adv-x="1148" d="M573 -23q-199 0 -320.5 106.5t-121.5 305.5v653q0 205 121 324t323 119q199 0 321 -106.5t122 -301.5v-655q0 -207 -121 -326t-324 -119zM575 41q176 0 276.5 100.5t100.5 268.5v663q0 162 -101 255t-284 93q-178 0 -274 -99t-96 -284v-635q0 -166 100 -264t278 -98z M334 1587l-47 4q6 61 43 102.5t96 41.5q47 0 142.5 -38t144.5 -38q66 0 94 92l45 -8q-10 -63 -49 -103.5t-92.5 -40.5t-151.5 39t-137 39q-43 0 -59.5 -22.5t-28.5 -67.5z" />
<glyph unicode="&#xd6;" horiz-adv-x="1148" d="M401 1642v175h64v-175h-64zM676 1642v175h63v-175h-63zM573 -23q-199 0 -320.5 106.5t-121.5 305.5v653q0 205 121 324t323 119q199 0 321 -106.5t122 -301.5v-655q0 -207 -121 -326t-324 -119zM575 41q176 0 276.5 100.5t100.5 268.5v663q0 162 -101 255t-284 93 q-178 0 -274 -99t-96 -284v-635q0 -166 100 -264t278 -98z" />
<glyph unicode="&#xd7;" d="M258 315l-37 43l295 295l-295 293l41 41l293 -293l291 291l39 -41l-291 -291l291 -293l-39 -38l-291 290l-157 -156q-109 -112 -140 -141z" />
<glyph unicode="&#xd8;" horiz-adv-x="1148" d="M233 -82l-53 21l68 147q-117 111 -117 303v653q0 205 121 324t323 119q166 0 281 -76l62 131l53 -20l-68 -148q115 -111 115 -295v-655q0 -207 -121 -326t-324 -119q-168 0 -278 74zM197 403q0 -154 84 -247l546 1190q-98 76 -260 75q-178 0 -274 -99t-96 -284v-635z M575 41q176 0 276.5 100.5t100.5 268.5v663q0 141 -80 234l-548 -1192q99 -74 251 -74z" />
<glyph unicode="&#xd9;" horiz-adv-x="1183" d="M590 -25q-176 0 -302 100.5t-126 307.5v1077h63v-1052q0 -197 106.5 -285t264.5 -88q172 0 271.5 98t93.5 262v1065h59v-1071q2 -190 -115.5 -302t-314.5 -112zM604 1577l-209 289h80l187 -289h-58z" />
<glyph unicode="&#xda;" horiz-adv-x="1183" d="M551 1577l184 289h80l-207 -289h-57zM590 -25q-176 0 -302 100.5t-126 307.5v1077h63v-1052q0 -197 106.5 -285t264.5 -88q172 0 271.5 98t93.5 262v1065h59v-1071q2 -190 -115.5 -302t-314.5 -112z" />
<glyph unicode="&#xdb;" horiz-adv-x="1183" d="M420 1567l166 288h51l160 -288h-68l-121 225l-123 -225h-65zM590 -25q-176 0 -302 100.5t-126 307.5v1077h63v-1052q0 -197 106.5 -285t264.5 -88q172 0 271.5 98t93.5 262v1065h59v-1071q2 -190 -115.5 -302t-314.5 -112z" />
<glyph unicode="&#xdc;" horiz-adv-x="1183" d="M442 1642v175h64v-175h-64zM717 1642v175h63v-175h-63zM590 -25q-176 0 -302 100.5t-126 307.5v1077h63v-1052q0 -197 106.5 -285t264.5 -88q172 0 271.5 98t93.5 262v1065h59v-1071q2 -190 -115.5 -302t-314.5 -112z" />
<glyph unicode="&#xdd;" horiz-adv-x="964" d="M451 0v637l-381 823h63l354 -753l344 753h66l-383 -825v-635h-63zM453 1577l184 289h80l-207 -289h-57z" />
<glyph unicode="&#xde;" horiz-adv-x="1054" d="M172 0v1460h64v-291h311q193 0 294 -115.5t101 -297.5q0 -197 -116.5 -311.5t-319.5 -114.5h-270v-330h-64zM236 387h251q188 0 287.5 93t99.5 278q0 152 -89 253t-242 101h-307v-725z" />
<glyph unicode="&#xdf;" horiz-adv-x="1120" d="M745 -23q-199 0 -319 144l41 39q117 -131 283 -131q131 0 193.5 87t62.5 226q0 170 -116 275.5t-290 123.5v50l57 2q256 113 256 331q0 139 -88 222.5t-231 83.5q-141 0 -216 -84t-75 -218v-1128h-61v971h-172v53h172v96q0 166 100 264.5t258 98.5q168 0 271.5 -99.5 t103.5 -240.5q0 -236 -258 -375v-2q172 -43 262 -164t90 -256q0 -170 -87 -269.5t-237 -99.5z" />
<glyph unicode="&#xe0;" horiz-adv-x="901" d="M379 -23q-115 0 -194 76t-79 215q0 160 100.5 236t237.5 78h242v213q0 201 -235 200q-100 0 -176 -46t-76 -138v-68h-58v66q0 117 91.5 178.5t230.5 61.5q129 0 208 -60.5t79 -181.5v-539q0 -41 5 -151.5t5 -116.5h-60q-6 117 -6 180h-4q-43 -106 -130 -154.5t-181 -48.5 zM389 31q123 0 210 85t87 214v198h-219q-293 0 -293 -254q0 -119 63.5 -181t151.5 -62zM442 1171l-209 289h80l187 -289h-58z" />
<glyph unicode="&#xe1;" horiz-adv-x="901" d="M379 -23q-115 0 -194 76t-79 215q0 160 100.5 236t237.5 78h242v213q0 201 -235 200q-100 0 -176 -46t-76 -138v-68h-58v66q0 117 91.5 178.5t230.5 61.5q129 0 208 -60.5t79 -181.5v-539q0 -41 5 -151.5t5 -116.5h-60q-6 117 -6 180h-4q-43 -106 -130 -154.5t-181 -48.5 zM389 31q123 0 210 85t87 214v198h-219q-293 0 -293 -254q0 -119 63.5 -181t151.5 -62zM395 1171l185 289h79l-206 -289h-58z" />
<glyph unicode="&#xe2;" horiz-adv-x="901" d="M379 -23q-115 0 -194 76t-79 215q0 160 100.5 236t237.5 78h242v213q0 201 -235 200q-100 0 -176 -46t-76 -138v-68h-58v66q0 117 91.5 178.5t230.5 61.5q129 0 208 -60.5t79 -181.5v-539q0 -41 5 -151.5t5 -116.5h-60q-6 117 -6 180h-4q-43 -106 -130 -154.5t-181 -48.5 zM389 31q123 0 210 85t87 214v198h-219q-293 0 -293 -254q0 -119 63.5 -181t151.5 -62zM252 1161l166 289h51l160 -289h-68l-121 225l-123 -225h-65z" />
<glyph unicode="&#xe3;" horiz-adv-x="901" d="M379 -23q-115 0 -194 76t-79 215q0 160 100.5 236t237.5 78h242v213q0 201 -235 200q-100 0 -176 -46t-76 -138v-68h-58v66q0 117 91.5 178.5t230.5 61.5q129 0 208 -60.5t79 -181.5v-539q0 -41 5 -151.5t5 -116.5h-60q-6 117 -6 180h-4q-43 -106 -130 -154.5t-181 -48.5 zM389 31q123 0 210 85t87 214v198h-219q-293 0 -293 -254q0 -119 63.5 -181t151.5 -62zM219 1182l-47 4q6 61 43 102t96 41q47 0 142.5 -38t144.5 -38q66 0 94 93l45 -9q-10 -63 -49 -103t-92 -40t-151.5 39t-137.5 39q-43 0 -59.5 -22.5t-28.5 -67.5z" />
<glyph unicode="&#xe4;" horiz-adv-x="901" d="M379 -23q-115 0 -194 76t-79 215q0 160 100.5 236t237.5 78h242v213q0 201 -235 200q-100 0 -176 -46t-76 -138v-68h-58v66q0 117 91.5 178.5t230.5 61.5q129 0 208 -60.5t79 -181.5v-539q0 -41 5 -151.5t5 -116.5h-60q-6 117 -6 180h-4q-43 -106 -130 -154.5t-181 -48.5 zM389 31q123 0 210 85t87 214v198h-219q-293 0 -293 -254q0 -119 63.5 -181t151.5 -62zM272 1237v174h64v-174h-64zM547 1237v174h63v-174h-63z" />
<glyph unicode="&#xe5;" horiz-adv-x="901" d="M379 -23q-115 0 -194 76t-79 215q0 160 100.5 236t237.5 78h242v213q0 201 -235 200q-100 0 -176 -46t-76 -138v-68h-58v66q0 117 91.5 178.5t230.5 61.5q129 0 208 -60.5t79 -181.5v-539q0 -41 5 -151.5t5 -116.5h-60q-6 117 -6 180h-4q-43 -106 -130 -154.5t-181 -48.5 zM389 31q123 0 210 85t87 214v198h-219q-293 0 -293 -254q0 -119 63.5 -181t151.5 -62zM451 1145q-78 0 -118 47t-40 108q0 70 44 118t109 48q78 0 119 -44t41 -111q0 -70 -42.5 -118t-112.5 -48zM449 1190q45 0 75.5 29.5t30.5 85.5q0 53 -28.5 83.5t-80.5 30.5 q-45 0 -71.5 -32.5t-26.5 -86t29 -82t72 -28.5z" />
<glyph unicode="&#xe6;" horiz-adv-x="1439" d="M385 -23q-121 0 -200 76t-79 215q0 160 101.5 237t236.5 77h242v213q0 102 -67.5 151t-178.5 49q-98 0 -169.5 -46t-71.5 -138v-68h-58v66q0 117 86 178.5t226 61.5q109 0 186.5 -42t93.5 -130q86 172 295 172q150 0 229.5 -92.5t79.5 -258.5v-170h-589v-196 q0 -299 296 -299q135 0 263 82l24 -43q-119 -94 -291 -95q-129 0 -218 55.5t-113 168.5q-31 -86 -93.5 -139.5t-118 -69t-112.5 -15.5zM397 31q119 0 204 90t85 219v188h-215q-297 0 -297 -254q0 -121 62.5 -182t160.5 -61zM748 582h530v125q0 121 -62.5 203.5t-201.5 82.5 q-129 0 -197.5 -87t-68.5 -201v-123z" />
<glyph unicode="&#xe7;" horiz-adv-x="862" d="M471 -387q-74 0 -145 22v56q82 -23 151 -23q115 0 115 76q0 74 -131 82l-58 4l39 147q-319 2 -319 353v366q0 166 85 259.5t234 93.5q152 0 229 -75t77 -190v-47h-58v51q0 76 -59.5 141.5t-192.5 65.5t-193.5 -85t-60.5 -216v-366q0 -299 265 -299q242 0 241 211v57h58 v-51q0 -244 -252 -266l-27 -105q186 -10 186 -131q0 -55 -49 -93t-135 -38z" />
<glyph unicode="&#xe8;" horiz-adv-x="884" d="M475 -23q-168 0 -260 89.5t-92 271.5v338q0 176 92 274.5t248 98.5q150 0 230.5 -93.5t80.5 -257.5v-184h-588v-182q0 -299 293 -299q135 0 262 82l25 -43q-119 -95 -291 -95zM186 567h529v140q0 121 -62.5 203.5t-203.5 82.5q-131 0 -197 -89t-66 -206v-131zM451 1171 l-209 289h80l186 -289h-57z" />
<glyph unicode="&#xe9;" horiz-adv-x="884" d="M418 1171l184 289h80l-207 -289h-57zM475 -23q-168 0 -260 89.5t-92 271.5v338q0 176 92 274.5t248 98.5q150 0 230.5 -93.5t80.5 -257.5v-184h-588v-182q0 -299 293 -299q135 0 262 82l25 -43q-119 -95 -291 -95zM186 567h529v140q0 121 -62.5 203.5t-203.5 82.5 q-131 0 -197 -89t-66 -206v-131z" />
<glyph unicode="&#xea;" horiz-adv-x="884" d="M262 1161l166 289h51l160 -289h-68l-120 225l-123 -225h-66zM475 -23q-168 0 -260 89.5t-92 271.5v338q0 176 92 274.5t248 98.5q150 0 230.5 -93.5t80.5 -257.5v-184h-588v-182q0 -299 293 -299q135 0 262 82l25 -43q-119 -95 -291 -95zM186 567h529v140 q0 121 -62.5 203.5t-203.5 82.5q-131 0 -197 -89t-66 -206v-131z" />
<glyph unicode="&#xeb;" horiz-adv-x="884" d="M276 1237v174h64v-174h-64zM551 1237v174h63v-174h-63zM475 -23q-168 0 -260 89.5t-92 271.5v338q0 176 92 274.5t248 98.5q150 0 230.5 -93.5t80.5 -257.5v-184h-588v-182q0 -299 293 -299q135 0 262 82l25 -43q-119 -95 -291 -95zM186 567h529v140q0 121 -62.5 203.5 t-203.5 82.5q-131 0 -197 -89t-66 -206v-131z" />
<glyph unicode="&#xec;" horiz-adv-x="399" d="M170 0v1024h61v-1024h-61zM168 1171l-209 289h80l186 -289h-57z" />
<glyph unicode="&#xed;" horiz-adv-x="399" d="M180 1171l185 289h79l-206 -289h-58zM170 0v1024h61v-1024h-61z" />
<glyph unicode="&#xee;" horiz-adv-x="399" d="M8 1161l166 289h51l160 -289h-68l-120 225l-123 -225h-66zM170 0v1024h61v-1024h-61z" />
<glyph unicode="&#xef;" horiz-adv-x="399" d="M29 1237v174h63v-174h-63zM303 1237v174h64v-174h-64zM170 0v1024h61v-1024h-61z" />
<glyph unicode="&#xf0;" horiz-adv-x="903" d="M452.5 -23q-329.5 0 -329.5 338v381q0 164 94 256t248 92q78 0 151 -34l-161 266l-199 -53l-18 43l184 53l-92 145l61 21l90 -148l217 60l19 -43l-205 -60l219 -356q51 -86 51 -238v-368q0 -355 -329.5 -355zM455 31q150 0 208 78.5t58 220.5v372q0 289 -250 289 q-141 0 -214 -81t-73 -216v-383q1 -280 271 -280z" />
<glyph unicode="&#xf1;" horiz-adv-x="962" d="M170 0v1024h55v-188h2q45 104 133.5 158.5t192.5 54.5q117 0 183.5 -70t66.5 -172v-807h-64v772q0 221 -209 221q-113 0 -206 -97t-93 -224v-672h-61zM258 1182l-47 4q6 61 43 102t96 41q47 0 142.5 -38t144.5 -38q66 0 94 93l45 -9q-10 -63 -49 -103t-92 -40t-151.5 39 t-137.5 39q-43 0 -59.5 -22.5t-28.5 -67.5z" />
<glyph unicode="&#xf2;" horiz-adv-x="907" d="M455 -23q-160 0 -246 94.5t-86 264.5v350q0 168 89 265.5t241 97.5q158 0 244.5 -95.5t86.5 -263.5v-346q0 -178 -86.5 -272.5t-242.5 -94.5zM459 33q262 0 262 315v348q0 133 -65.5 216t-205 83t-203 -86t-63.5 -223v-340q1 -313 275 -313zM420 1171l-209 289h80 l186 -289h-57z" />
<glyph unicode="&#xf3;" horiz-adv-x="907" d="M410 1171l184 289h80l-207 -289h-57zM455 -23q-160 0 -246 94.5t-86 264.5v350q0 168 89 265.5t241 97.5q158 0 244.5 -95.5t86.5 -263.5v-346q0 -178 -86.5 -272.5t-242.5 -94.5zM459 33q262 0 262 315v348q0 133 -65.5 216t-205 83t-203 -86t-63.5 -223v-340 q1 -313 275 -313z" />
<glyph unicode="&#xf4;" horiz-adv-x="907" d="M260 1161l166 289h51l160 -289h-68l-120 225l-123 -225h-66zM455 -23q-160 0 -246 94.5t-86 264.5v350q0 168 89 265.5t241 97.5q158 0 244.5 -95.5t86.5 -263.5v-346q0 -178 -86.5 -272.5t-242.5 -94.5zM459 33q262 0 262 315v348q0 133 -65.5 216t-205 83t-203 -86 t-63.5 -223v-340q1 -313 275 -313z" />
<glyph unicode="&#xf5;" horiz-adv-x="907" d="M455 -23q-160 0 -246 94.5t-86 264.5v350q0 168 89 265.5t241 97.5q158 0 244.5 -95.5t86.5 -263.5v-346q0 -178 -86.5 -272.5t-242.5 -94.5zM459 33q262 0 262 315v348q0 133 -65.5 216t-205 83t-203 -86t-63.5 -223v-340q1 -313 275 -313zM213 1182l-47 4q6 61 43 102 t96 41q47 0 142.5 -38t144.5 -38q66 0 94 93l45 -9q-10 -63 -49 -103t-92 -40t-151.5 39t-137.5 39q-43 0 -59.5 -22.5t-28.5 -67.5z" />
<glyph unicode="&#xf6;" horiz-adv-x="907" d="M279 1237v174h63v-174h-63zM553 1237v174h63v-174h-63zM455 -23q-160 0 -246 94.5t-86 264.5v350q0 168 89 265.5t241 97.5q158 0 244.5 -95.5t86.5 -263.5v-346q0 -178 -86.5 -272.5t-242.5 -94.5zM459 33q262 0 262 315v348q0 133 -65.5 216t-205 83t-203 -86 t-63.5 -223v-340q1 -313 275 -313z" />
<glyph unicode="&#xf7;" d="M518 264v166h82v-166h-82zM180 621v59h744v-59h-744zM518 844v166h82v-166h-82z" />
<glyph unicode="&#xf8;" horiz-adv-x="907" d="M211 -80l-51 23l55 120q-92 92 -92 273v350q0 168 89 265.5t241 97.5q115 0 196 -54l47 101l52 -23l-56 -117q92 -96 92 -266v-346q0 -178 -87 -272.5t-242 -94.5q-113 0 -195 50zM184 346q0 -145 60 -223l381 819q-70 53 -174 53q-139 0 -203 -86t-64 -223v-340zM459 33 q262 0 262 315v348q0 125 -55 201l-381 -817q65 -47 174 -47z" />
<glyph unicode="&#xf9;" horiz-adv-x="964" d="M410 -25q-117 0 -182.5 70t-65.5 170v809h63v-780q0 -117 54.5 -164t154.5 -47q115 0 207 94t92 223v674h64v-1024h-52l-4 188h-4q-45 -102 -134 -157.5t-193 -55.5zM467 1171l-209 289h80l186 -289h-57z" />
<glyph unicode="&#xfa;" horiz-adv-x="964" d="M451 1171l184 289h80l-207 -289h-57zM410 -25q-117 0 -182.5 70t-65.5 170v809h63v-780q0 -117 54.5 -164t154.5 -47q115 0 207 94t92 223v674h64v-1024h-52l-4 188h-4q-45 -102 -134 -157.5t-193 -55.5z" />
<glyph unicode="&#xfb;" horiz-adv-x="964" d="M311 1161l166 289h51l160 -289h-67l-121 225l-123 -225h-66zM410 -25q-117 0 -182.5 70t-65.5 170v809h63v-780q0 -117 54.5 -164t154.5 -47q115 0 207 94t92 223v674h64v-1024h-52l-4 188h-4q-45 -102 -134 -157.5t-193 -55.5z" />
<glyph unicode="&#xfc;" horiz-adv-x="964" d="M315 1237v174h64v-174h-64zM590 1237v174h63v-174h-63zM410 -25q-117 0 -182.5 70t-65.5 170v809h63v-780q0 -117 54.5 -164t154.5 -47q115 0 207 94t92 223v674h64v-1024h-52l-4 188h-4q-45 -102 -134 -157.5t-193 -55.5z" />
<glyph unicode="&#xfd;" horiz-adv-x="782" d="M125 -393q-61 0 -115 18l21 56q61 -14 98 -15q63 0 100 40t72 140l61 197l-309 981h68l274 -895h2l275 895h61l-362 -1161q-72 -256 -246 -256zM406 1171l184 289h80l-207 -289h-57z" />
<glyph unicode="&#xfe;" horiz-adv-x="931" d="M170 -373v1835h61v-618h7q39 104 120.5 154.5t171.5 50.5q133 0 208 -76t75 -193v-493q0 -152 -88 -231t-213 -79q-92 0 -172 53.5t-104 149.5h-5v-553h-61zM510 31q100 0 170 65.5t70 186.5v477q0 96 -64.5 164.5t-179.5 68.5q-109 0 -192 -98t-83 -248v-285 q0 -139 84 -235t195 -96z" />
<glyph unicode="&#xff;" horiz-adv-x="782" d="M125 -393q-61 0 -115 18l21 56q61 -14 98 -15q63 0 100 40t72 140l61 197l-309 981h68l274 -895h2l275 895h61l-362 -1161q-72 -256 -246 -256zM246 1237v174h63v-174h-63zM520 1237v174h64v-174h-64z" />
<glyph unicode="&#x152;" horiz-adv-x="1777" d="M565 -23q-197 0 -315.5 106.5t-118.5 305.5v660q0 205 120 322.5t320 117.5q281 0 381 -201v174h721v-59h-657v-608h524v-58h-524v-678h659v-59h-723v199q-47 -102 -148.5 -162t-238.5 -60zM575 35q176 0 276.5 105.5t100.5 269.5v669q0 162 -101 255t-284 93 q-178 0 -274 -101t-96 -284v-639q0 -168 100 -268t278 -100z" />
<glyph unicode="&#x153;" horiz-adv-x="1482" d="M455 -23q-160 0 -246 94.5t-86 264.5v350q0 168 89 265.5t241 97.5q109 0 186.5 -53.5t114.5 -145.5q41 94 120.5 146.5t186.5 52.5q150 0 230.5 -93.5t80.5 -257.5v-184h-588v-188q0 -293 293 -293q135 0 262 82l25 -43q-119 -94 -291 -95q-244 0 -321 191 q-37 -90 -114 -140.5t-183 -50.5zM459 33q262 0 262 315v348q0 133 -65.5 216t-205 83t-203 -86t-63.5 -223v-340q1 -313 275 -313zM784 567h529v140q0 121 -62.5 203.5t-203.5 82.5q-131 0 -197 -89t-66 -206v-131z" />
<glyph unicode="&#x178;" horiz-adv-x="964" d="M451 0v637l-381 823h63l354 -753l344 753h66l-383 -825v-635h-63zM315 1642v175h64v-175h-64zM590 1642v175h63v-175h-63z" />
<glyph unicode="&#x2c6;" horiz-adv-x="714" d="M172 1161l166 289h51l160 -289h-68l-121 225l-122 -225h-66z" />
<glyph unicode="&#x2dc;" horiz-adv-x="727" d="M143 1182l-47 4q6 61 43 102t97 41q47 0 142 -38t144 -38q66 0 94 93l46 -9q-10 -63 -49.5 -103t-92.5 -40t-151.5 39t-137.5 39q-43 0 -59.5 -22.5t-28.5 -67.5z" />
<glyph unicode="&#x2000;" horiz-adv-x="931" />
<glyph unicode="&#x2001;" horiz-adv-x="1865" />
<glyph unicode="&#x2002;" horiz-adv-x="931" />
<glyph unicode="&#x2003;" horiz-adv-x="1865" />
<glyph unicode="&#x2004;" horiz-adv-x="620" />
<glyph unicode="&#x2005;" horiz-adv-x="464" />
<glyph unicode="&#x2006;" horiz-adv-x="309" />
<glyph unicode="&#x2007;" horiz-adv-x="309" />
<glyph unicode="&#x2008;" horiz-adv-x="231" />
<glyph unicode="&#x2009;" horiz-adv-x="372" />
<glyph unicode="&#x200a;" horiz-adv-x="102" />
<glyph unicode="&#x2010;" horiz-adv-x="526" d="M66 569v60h395v-60h-395z" />
<glyph unicode="&#x2011;" horiz-adv-x="526" d="M66 569v60h395v-60h-395z" />
<glyph unicode="&#x2012;" horiz-adv-x="526" d="M66 569v60h395v-60h-395z" />
<glyph unicode="&#x2013;" horiz-adv-x="942" d="M0 569v52h942v-52h-942z" />
<glyph unicode="&#x2014;" horiz-adv-x="1595" d="M0 569v52h1595v-52h-1595z" />
<glyph unicode="&#x2018;" horiz-adv-x="339" d="M133 1106v172l31 184h39l-27 -182h23v-174h-66z" />
<glyph unicode="&#x2019;" horiz-adv-x="342" d="M135 1104l27 182h-23v174h66v-172l-31 -184h-39z" />
<glyph unicode="&#x201a;" horiz-adv-x="337" d="M160 2h-23v176h66v-176l-33 -184h-37z" />
<glyph unicode="&#x201c;" horiz-adv-x="561" d="M133 1106v172l31 184h39l-27 -182h23v-174h-66zM358 1106v172l35 184h35l-25 -182h23v-174h-68z" />
<glyph unicode="&#x201d;" horiz-adv-x="561" d="M133 1104l27 182h-23v174h66v-172l-33 -184h-37zM358 1104l27 182h-25v174h68v-172l-31 -184h-39z" />
<glyph unicode="&#x201e;" horiz-adv-x="561" d="M133 -182l27 184h-23v176h66v-176l-33 -184h-37zM358 -182l27 184h-25v176h68v-176l-31 -184h-39z" />
<glyph unicode="&#x2022;" horiz-adv-x="735" d="M369 526q-78 0 -132.5 54.5t-54.5 130t54.5 130t132.5 54.5q76 0 129 -54.5t53 -130t-53 -130t-129 -54.5z" />
<glyph unicode="&#x2026;" horiz-adv-x="985" d="M137 0v178h66v-178h-66zM459 0v178h67v-178h-67zM782 0v178h70v-178h-70z" />
<glyph unicode="&#x202f;" horiz-adv-x="372" />
<glyph unicode="&#x2039;" horiz-adv-x="456" d="M266 279l-192 286l190 295l45 -26l-153 -265l155 -264z" />
<glyph unicode="&#x203a;" horiz-adv-x="456" d="M121 279l-45 26l153 264l-155 265l45 26l192 -287z" />
<glyph unicode="&#x205f;" horiz-adv-x="464" />
<glyph unicode="&#x20ac;" horiz-adv-x="1218" d="M709 -23q-199 0 -313.5 103.5t-114.5 300.5v172h-179v53h179v254h-179v55h179v150q0 182 115.5 303t312.5 121q190 0 300.5 -100.5t110.5 -243.5v-139h-61v120q0 137 -90 221.5t-269 84.5q-174 0 -264 -105.5t-90 -269.5v-142h528v-55h-528v-254h528v-53h-528v-152 q0 -172 94.5 -271t268.5 -99q176 0 263 86t87 223v94h61v-110q0 -154 -110.5 -250.5t-300.5 -96.5z" />
<glyph unicode="&#x2122;" horiz-adv-x="1159" d="M586 811v655h57l176 -329l172 329h56v-655h-52l-2 551l-157 -297h-39l-160 307v-561h-51zM250 811v604h-184v51h419v-51h-182v-604h-53z" />
<glyph unicode="&#xe000;" horiz-adv-x="1025" d="M0 1025h1025v-1025h-1025v1025z" />
<glyph unicode="&#xe38c;" horiz-adv-x="980" d="M748 0v1024h61v-1024h-61zM748 1237v184h61v-184h-61zM252 0v969h-178v55h178v223q0 113 59.5 177.5t161.5 64.5q47 0 96 -12v-60q-37 12 -100 13q-70 0 -112 -43.5t-42 -133.5v-229h230v-55h-230v-969h-63z" />
<glyph unicode="&#xfb01;" horiz-adv-x="980" d="M748 0v1024h61v-1024h-61zM748 1237v184h61v-184h-61zM252 0v969h-178v55h178v223q0 113 59.5 177.5t161.5 64.5q47 0 96 -12v-60q-37 12 -100 13q-70 0 -112 -43.5t-42 -133.5v-229h230v-55h-230v-969h-63z" />
<glyph unicode="&#xe38d;" horiz-adv-x="1120" d="M932 -8q-88 0 -136 50t-48 146v1272h63v-1276q0 -131 133 -131q61 0 98 10v-57q-47 -14 -110 -14zM252 0v969h-178v55h178v223q0 113 59.5 177.5t161.5 64.5q47 0 96 -12v-60q-37 12 -100 13q-70 0 -112 -43.5t-42 -133.5v-229h230v-55h-230v-969h-63z" />
<glyph unicode="&#xfb02;" horiz-adv-x="1120" d="M932 -8q-88 0 -136 50t-48 146v1272h63v-1276q0 -131 133 -131q61 0 98 10v-57q-47 -14 -110 -14zM252 0v969h-178v55h178v223q0 113 59.5 177.5t161.5 64.5q47 0 96 -12v-60q-37 12 -100 13q-70 0 -112 -43.5t-42 -133.5v-229h230v-55h-230v-969h-63z" />
<glyph unicode="&#xfb03;" horiz-adv-x="1599" d="M1370 0v1024h61v-1024h-61zM1370 1237v184h61v-184h-61zM852 0v969h-178v55h178v223q0 113 59.5 177.5t161.5 64.5q47 0 96 -12v-60q-37 12 -100 13q-70 0 -112 -43.5t-42 -133.5v-229h230v-55h-230v-969h-63zM252 0v969h-178v55h178v223q0 113 59.5 177.5t161.5 64.5 q47 0 96 -12v-60q-37 12 -100 13q-70 0 -112 -43.5t-42 -133.5v-229h230v-55h-230v-969h-63z" />
<glyph unicode="&#xfb04;" horiz-adv-x="1730" d="M1554 -8q-88 0 -136 50t-48 146v1272h63v-1276q0 -131 134 -131q61 0 98 10v-57q-48 -14 -111 -14zM852 0v969h-178v55h178v223q0 113 59.5 177.5t161.5 64.5q47 0 96 -12v-60q-37 12 -100 13q-70 0 -112 -43.5t-42 -133.5v-229h230v-55h-230v-969h-63zM252 0v969h-178 v55h178v223q0 113 59.5 177.5t161.5 64.5q47 0 96 -12v-60q-37 12 -100 13q-70 0 -112 -43.5t-42 -133.5v-229h230v-55h-230v-969h-63z" />
<glyph horiz-adv-x="364" />
</font>
</defs>
</svg>
