<?xml version="1.0" standalone="no"?>
<!DOCTYPE svg PUBLIC "-//W3C//DTD SVG 1.1//EN" "http://www.w3.org/Graphics/SVG/1.1/DTD/svg11.dtd" >
<svg xmlns="http://www.w3.org/2000/svg">
<metadata>
This is a custom SVG webfont generated by Font Squirrel.
Copyright   : Copyright c 2008 by Mrio Feliciano All rights reserved
Designer    : Mrio Feliciano
Foundry     : Mrio Feliciano  Feliciano Type Foundry
Foundry URL : wwwsecretonixpt
</metadata>
<defs>
<font id="webfontaYjTIq2J" horiz-adv-x="1294" >
<font-face units-per-em="2048" ascent="1638" descent="-410" />
<missing-glyph horiz-adv-x="409" />
<glyph unicode=" "  horiz-adv-x="409" />
<glyph unicode="&#x09;" horiz-adv-x="409" />
<glyph unicode="&#xa0;" horiz-adv-x="409" />
<glyph unicode="!" horiz-adv-x="659" d="M47 0l70 391h413l-69 -391h-414zM221 496l-18 440l92 524h434l-92 -524l-176 -440h-240z" />
<glyph unicode="&#x22;" horiz-adv-x="1060" d="M262 776l19 375l53 311h325l-53 -311l-117 -375h-227zM727 776l18 375l54 311h325l-53 -311l-117 -375h-227z" />
<glyph unicode="#" horiz-adv-x="1304" d="M166 -2l98 336h-239l71 231h234l114 363h-249l65 227h240l94 309h205l-86 -309h233l90 309h207l-92 -309h233l-59 -227h-233l-111 -363h242l-66 -231h-248l-92 -336h-207l92 336h-233l-98 -336h-205zM539 565h231l115 363h-236z" />
<glyph unicode="$" horiz-adv-x="1316" d="M451 -74l24 146q-252 29 -426 161l232 269q158 -131 323 -131q158 0 158 78q0 39 -60 59q-162 51 -200 67q-141 55 -222 133t-81 214q0 215 147.5 332.5t370.5 129.5l22 127h279l-27 -149q154 -39 287 -139l-234 -256q-51 43 -124.5 73.5t-131.5 30.5q-152 0 -151 -70 q0 -14 9 -25t37 -23.5t43 -17.5l62 -20l138 -43q305 -102 305 -350q0 -199 -134 -310.5t-341 -137.5l-27 -148h-278z" />
<glyph unicode="%" horiz-adv-x="1810" d="M1329 -20q-121 0 -210 51t-89 164q0 18 4 51l58 321q25 133 132 200t251 67q121 0 209 -53.5t88 -166.5q0 -25 -7 -53l-57 -315q-23 -127 -132.5 -196.5t-246.5 -69.5zM442 629q-121 0 -209 50t-88 163q0 18 5 51l57 321q25 133 132 202t249 69q121 0 209 -55.5 t88 -167.5q0 -25 -6 -54l-56 -315q-23 -127 -133.5 -195.5t-247.5 -68.5zM293 -16l1116 1486h211l-1114 -1486h-213zM1362 180q33 0 57.5 19.5t30.5 50.5l57 325q0 2 1 5.5t1 5.5q0 51 -67 51q-76 0 -88 -62l-60 -329v-10q0 -56 68 -56zM477 827q33 0 57.5 19.5t30.5 50.5 l58 326v2q2 4 2 6q0 27 -21.5 40t-48.5 13q-74 0 -86 -61l-59 -330v-10q-1 -56 67 -56z" />
<glyph unicode="&#x26;" horiz-adv-x="1554" d="M627 -37q-92 0 -181.5 20.5t-169 62.5t-129 120t-49.5 180q0 143 87 247.5t229 137.5l2 12q-68 31 -106 104t-38 152q0 133 57.5 230.5t157 150t209 77t234.5 24.5q106 0 212.5 -31t190.5 -107.5t84 -185.5q0 -23 -14 -108h-375q6 25 6 49q0 102 -147 102 q-78 0 -139.5 -53t-61.5 -131q0 -115 180 -115h727l-57 -321h-162l-33 -177q-23 -123 -93 -212t-174.5 -137t-214 -69.5t-232.5 -21.5zM696 262q100 0 150.5 40t66.5 140l25 138h-229q-68 0 -117 -54.5t-49 -124.5q0 -61 45 -100t108 -39z" />
<glyph unicode="'" horiz-adv-x="595" d="M264 776l19 375l53 311h326l-54 -311l-116 -375h-228z" />
<glyph unicode="(" horiz-adv-x="737" d="M367 -371q-166 250 -166 654q0 319 138 644.5t368 545.5h165q-197 -338 -292 -667t-95 -700q0 -242 47 -471z" />
<glyph unicode=")" horiz-adv-x="737" d="M63 -373l-165 2q197 338 292 667t95 699q0 242 -47 471l165 7q166 -250 166 -654q0 -322 -138.5 -647.5t-367.5 -544.5z" />
<glyph unicode="*" horiz-adv-x="1021" d="M350 604l-166 119l224 254l-246 149l143 183l217 -129l49 280h228l-49 -280l258 129l86 -183l-303 -149l137 -254l-209 -119l-139 256z" />
<glyph unicode="+" horiz-adv-x="1269" d="M457 63l82 465h-467l43 238h467l82 465h239l-82 -465h465l-43 -238h-465l-82 -465h-239z" />
<glyph unicode="," horiz-adv-x="626" d="M59 -289l125 293h-147l69 391h414l-65 -370l-211 -314h-185z" />
<glyph unicode="-" horiz-adv-x="741" d="M63 449l68 337h623l-68 -337h-623z" />
<glyph unicode="." horiz-adv-x="626" d="M35 0l69 397h414l-69 -397h-414z" />
<glyph unicode="/" horiz-adv-x="757" d="M-92 -365l663 1835h293l-657 -1835h-299z" />
<glyph unicode="0" horiz-adv-x="1314" d="M588 -25q-96 0 -180 19.5t-158 60.5t-117 118t-43 179q0 33 8 90l101 570q43 233 221 353t426 120q207 0 350 -95.5t143 -295.5q0 -51 -8 -93l-98 -559q-41 -225 -223 -346t-422 -121zM647 322q59 0 104.5 34.5t55.5 92.5l98 561q4 12 4 34q0 47 -35.5 71t-85.5 24 q-55 0 -102 -30t-57 -83l-103 -584q-2 -6 -2 -20q0 -49 36 -74.5t87 -25.5z" />
<glyph unicode="1" horiz-adv-x="1101" d="M49 0l51 293h250l144 807l-248 -8l53 297l463 90h215l-209 -1186h225l-51 -293h-893z" />
<glyph unicode="2" horiz-adv-x="1253" d="M37 0l41 238l448 424q12 12 59 55l69 65q24 23 63 67t59.5 73.5t36.5 67.5t16 69q0 96 -106 96q-43 0 -72.5 -16.5t-46 -51t-24 -61.5t-15.5 -74h-405l14 84q41 225 218 335t419 110q195 0 320.5 -86t125.5 -271q0 -51 -14 -103t-33.5 -94t-58.5 -94.5t-65.5 -85 t-81.5 -84.5l-79 -74q-24 -22 -84 -73l-75 -63l-107 -95l-2 -10h486l-62 -348h-1044z" />
<glyph unicode="3" horiz-adv-x="1265" d="M561 -25q-483 8 -483 342q0 68 16 140h398q0 -6 -4.5 -25.5t-4.5 -32.5q0 -92 146 -92q63 0 106 45t43 108.5t-52 92.5t-122 29h-59l51 284h76q78 -6 136 36t58 132q0 49 -29.5 76t-78.5 27q-80 0 -117 -33t-49 -109h-391l8 47q39 219 206 331t398 112q86 0 166 -20.5 t149.5 -61.5t110.5 -112.5t41 -166.5q0 -139 -68.5 -240.5t-199.5 -140.5l-2 -12q96 -25 152.5 -92.5t56.5 -167.5q0 -125 -62.5 -224.5t-162 -157.5t-212 -87t-221.5 -27z" />
<glyph unicode="4" horiz-adv-x="1296" d="M623 0l47 268h-635l53 320l684 872h494l-719 -854h182l23 129l462 301l-75 -430h131l-60 -338h-131l-47 -268h-409z" />
<glyph unicode="5" horiz-adv-x="1255" d="M545 -25q-82 0 -161 15.5t-153.5 49.5t-121 99.5t-46.5 153.5q0 84 29 162h402q-6 -49 -7 -52q0 -90 125 -90q135 0 160 133q18 117 19 123q0 51 -35 76t-86 25q-68 0 -133 -62l-375 45l180 807h936l-61 -348h-603l-53 -256q150 88 330 88q145 0 241.5 -69.5t96.5 -210.5 q0 -55 -39 -261q-18 -96 -66.5 -170.5t-111 -122t-143.5 -79t-159.5 -44t-164.5 -12.5z" />
<glyph unicode="6" horiz-adv-x="1286" d="M571 -25q-123 0 -232.5 36t-189 123t-79.5 214q0 37 6 74l108 610q27 147 135.5 253t248 153t288.5 47q121 0 220.5 -26.5t175 -104.5t75.5 -201q0 -51 -20 -149h-412q10 51 10 61q0 86 -112 86q-59 0 -103.5 -30.5t-54.5 -88.5l-37 -209q182 98 348 99q139 0 229.5 -69 t90.5 -202q0 -57 -39 -252q-25 -141 -133.5 -241.5t-243 -141.5t-279.5 -41zM643 311q57 0 105.5 30t56.5 83q25 129 24 141q0 47 -39.5 72t-89.5 25q-129 0 -157 -148q-16 -92 -17 -108q0 -47 33 -71t84 -24z" />
<glyph unicode="7" horiz-adv-x="1234" d="M203 0q51 272 237.5 587.5t409.5 520.5h-645l61 352h1110l-53 -301q-217 -170 -412.5 -488.5t-255.5 -670.5h-452z" />
<glyph unicode="8" horiz-adv-x="1284" d="M569 -25q-512 0 -512 326q0 29 21 152q16 92 75.5 165.5t145.5 114.5q-53 29 -81 86.5t-28 120.5q0 35 19 127q25 139 125 236.5t227 139.5t268 42q121 0 224.5 -29t183.5 -109.5t80 -203.5q0 -55 -21 -150q-33 -174 -190 -260q57 -33 92 -93t35 -128q0 -39 -23 -143 q-18 -104 -84.5 -183.5t-160 -123.5t-194 -65.5t-202.5 -21.5zM621 287q141 0 161 110q14 72 15 92q0 49 -36 73t-89.5 24t-99.5 -25.5t-54 -75.5q-18 -78 -18 -112q0 -45 36 -65.5t85 -20.5zM725 870q139 0 160 113q14 68 14 92q0 49 -37 71.5t-88 22.5q-55 0 -100 -24.5 t-53 -73.5q-18 -111 -19 -113q0 -88 123 -88z" />
<glyph unicode="9" horiz-adv-x="1286" d="M551 -27q-86 0 -164 16.5t-150.5 51.5t-114.5 103.5t-42 160.5q0 51 20 150h412q-10 -51 -10 -62q0 -86 112 -86q59 0 103.5 31t54.5 88q31 168 41 231q-131 -121 -352 -120q-139 0 -229.5 68.5t-90.5 201.5q0 57 39 252q25 143 133.5 242.5t243.5 141.5t281 42 q123 0 232.5 -36t188 -124t78.5 -215q0 -37 -6 -74l-108 -610q-27 -147 -135.5 -252.5t-247.5 -153t-289 -47.5zM698 803q68 0 112 43t56 110q16 92 17 109q0 47 -33 70.5t-82 23.5q-59 0 -107.5 -29.5t-56.5 -82.5q-25 -135 -24 -150q0 -45 34.5 -69.5t83.5 -24.5z" />
<glyph unicode=":" horiz-adv-x="626" d="M31 0l69 391h414l-70 -391h-413zM156 715l69 391h414l-70 -391h-413z" />
<glyph unicode=";" horiz-adv-x="626" d="M53 -289l125 293h-147l69 391h414l-65 -370l-211 -314h-185zM156 715l69 391h414l-70 -391h-413z" />
<glyph unicode="&#x3c;" horiz-adv-x="1269" d="M987 102l-870 455l30 182l1008 455l94 -231l-755 -328l639 -328z" />
<glyph unicode="=" horiz-adv-x="1269" d="M23 287l38 237h1172l-41 -237h-1169zM100 739l41 240h1172l-41 -240h-1172z" />
<glyph unicode="&#x3e;" horiz-adv-x="1269" d="M180 104l-94 232l756 328l-639 327l145 205l871 -455l-31 -182z" />
<glyph unicode="?" horiz-adv-x="1173" d="M387 496l8 45q16 88 56.5 146t117.5 116q18 14 74.5 49t92.5 60.5t68 67.5t32 83q0 45 -36 69.5t-91 24.5q-133 0 -156 -117l-6 -36h-367q2 10 5 30.5t5 30.5q37 201 214.5 308.5t396.5 107.5q186 0 316 -81t130 -259q0 -254 -258 -412q-6 -4 -77.5 -41t-103.5 -68.5 t-42 -76.5q-4 -18 -8 -47h-371zM276 0l68 391h414l-68 -391h-414z" />
<glyph unicode="@" horiz-adv-x="1959" d="M1034 -301q-199 0 -329 39q-262 80 -424 292t-162 509q0 403 283.5 666t699.5 263q207 0 386 -78.5t294.5 -238.5t115.5 -371q0 -225 -150.5 -413.5t-358.5 -233.5h-342l22 109h-8q-125 -131 -283 -131q-125 0 -196.5 59t-71.5 178q0 39 6 76l62 326q25 135 132 219 t248 84q166 0 232 -90h2l12 71h346l-131 -731q125 51 208 175t83 286q0 139 -53 247.5t-144.5 172t-203 96.5t-238.5 33q-182 0 -328.5 -64.5t-236.5 -175t-138.5 -249t-48.5 -292.5q0 -195 98.5 -349t264.5 -238q152 -74 344 -74q174 0 299 21.5t313 78.5l45 -149 q-289 -123 -649 -123zM963 360q59 0 96 37t47 95l39 213q2 8 2 28q0 41 -27.5 65.5t-72.5 24.5q-53 0 -88 -41t-46 -96l-34 -201q-4 -16 -5 -30q0 -41 23 -68t66 -27z" />
<glyph unicode="A" horiz-adv-x="1536" d="M-53 0l749 1462h523l221 -1462h-443l-28 236h-486l-110 -236h-426zM639 567h291l-60 504h-6z" />
<glyph unicode="B" horiz-adv-x="1458" d="M35 0l258 1460h842q152 0 256 -83t104 -234q0 -141 -74.5 -249t-212.5 -142l-2 -9q92 -27 144.5 -99.5t52.5 -170.5q0 -203 -151.5 -338t-354.5 -135h-862zM543 338h243q63 0 111.5 43t48.5 106q0 49 -37 73t-88 24h-235zM641 893h254q61 0 104 42t43 105q0 92 -110 93 h-248z" />
<glyph unicode="C" horiz-adv-x="1394" d="M633 -25q-111 0 -207 22.5t-177 71t-128 135.5t-47 204q0 49 10 114l76 428q45 256 253 395.5t480 139.5q135 0 253 -35t206 -128t88 -232q0 -47 -23 -175h-422q10 61 11 78q0 68 -46.5 105t-115.5 37q-92 0 -153.5 -49.5t-78.5 -141.5l-73 -420q-4 -33 -4 -51 q0 -147 165 -147q82 0 143.5 47t78.5 127l8 45h422l-17 -94q-29 -160 -140.5 -270.5t-254.5 -158t-307 -47.5z" />
<glyph unicode="D" horiz-adv-x="1433" d="M35 0l258 1460h645q137 0 253 -40t197.5 -138t81.5 -244q0 -49 -10 -104q-6 -41 -82 -451q-88 -483 -694 -483h-649zM547 350h164q84 0 145.5 52.5t75.5 136.5l67 385q4 25 5 37q0 72 -48.5 109.5t-121.5 37.5h-154z" />
<glyph unicode="E" horiz-adv-x="1333" d="M35 0l258 1460h1128l-61 -348h-678l-37 -211h537l-62 -344h-536l-37 -207h678l-62 -350h-1128z" />
<glyph unicode="F" horiz-adv-x="1288" d="M35 0l258 1460h1128l-61 -348h-678l-41 -231h537l-62 -351h-536l-95 -530h-450z" />
<glyph unicode="G" horiz-adv-x="1394" d="M625 -25q-111 0 -207 24t-177 72t-128 134t-47 203q0 53 10 114l76 428q31 172 142.5 296t264 181.5t326.5 57.5q98 0 192 -21.5t178 -65.5t135.5 -124t51.5 -187q0 -51 -17 -141h-421q0 6 4 28.5t4 35.5q0 68 -47 104.5t-117 36.5q-92 0 -157.5 -50t-82.5 -140l-78 -437 q-4 -33 -4 -53q0 -76 43 -117t121 -41q111 0 161 45t67 152l2 14h-215l51 291h647q-41 -242 -64 -364q-29 -158 -144.5 -269.5t-261.5 -159t-308 -47.5z" />
<glyph unicode="H" horiz-adv-x="1490" d="M35 0l258 1460h450l-94 -528h377l94 528h451l-258 -1460h-451l96 541h-376l-97 -541h-450z" />
<glyph unicode="I" horiz-adv-x="663" d="M35 0l258 1460h450l-258 -1460h-450z" />
<glyph unicode="J" horiz-adv-x="1329" d="M563 -25q-106 0 -194 19.5t-165 61.5t-121 122t-44 191q0 53 22 170h410q-12 -61 -12 -99q0 -119 139 -118q164 0 193 167l172 971h450l-166 -940q-47 -262 -230.5 -403.5t-453.5 -141.5z" />
<glyph unicode="K" horiz-adv-x="1447" d="M35 0l258 1460h450l-118 -659h2l549 659h434l-531 -614l303 -846h-469l-194 565l-164 -174l-70 -391h-450z" />
<glyph unicode="L" horiz-adv-x="1280" d="M35 0l258 1460h450l-196 -1110h678l-62 -350h-1128z" />
<glyph unicode="M" horiz-adv-x="1781" d="M35 0l258 1460h565l105 -614h6l329 614h564l-258 -1460h-406l158 891h-13l-339 -664h-285l-117 664h-6l-158 -891h-403z" />
<glyph unicode="N" horiz-adv-x="1531" d="M35 0l258 1460h395l397 -694h2l119 694h406l-258 -1460h-371l-403 766h-7l-133 -766h-405z" />
<glyph unicode="O" horiz-adv-x="1437" d="M637 -25q-115 0 -211 21.5t-177 70t-127 135.5t-46 208q0 66 12 129l66 376q49 272 253.5 421t489.5 149q244 0 405.5 -105.5t161.5 -337.5q0 -66 -12 -127l-66 -372q-51 -276 -255.5 -422t-493.5 -146zM702 328q92 0 151.5 55t76.5 147l71 402q4 29 5 45q0 74 -46.5 115 t-119.5 41q-193 0 -228 -201l-69 -393q-6 -27 -6 -58q-1 -153 165 -153z" />
<glyph unicode="P" horiz-adv-x="1419" d="M35 0l258 1460h723q195 0 319.5 -112.5t124.5 -317.5q0 -256 -176 -410.5t-444 -154.5h-273l-82 -465h-450zM625 793h186q82 0 141.5 58t59.5 140q0 63 -38 97t-102 34h-188z" />
<glyph unicode="Q" horiz-adv-x="1437" d="M1049 -270l-367 247q-14 -2 -45 -2q-115 0 -211 21.5t-177 70t-127 135.5t-46 208q0 66 12 129l66 376q49 272 253.5 421t489.5 149q244 0 405.5 -105.5t161.5 -337.5q0 -66 -12 -127l-66 -372q-49 -258 -231 -404l176 -73zM702 328q92 0 151.5 55t76.5 147l71 402 q4 29 5 45q0 74 -46.5 115t-119.5 41q-193 0 -228 -201l-69 -393q-6 -27 -6 -58q-1 -153 165 -153z" />
<glyph unicode="R" horiz-adv-x="1439" d="M35 0l258 1460h696q203 0 337 -110.5t134 -309.5q0 -174 -94 -305t-256 -176l209 -559h-471l-156 485h-121l-86 -485h-450zM625 793h184q84 0 142.5 58t58.5 140q0 63 -38 97t-102 34h-186z" />
<glyph unicode="S" horiz-adv-x="1308" d="M600 -25q-385 0 -623 187l244 289q170 -147 361 -148q193 0 192 109q0 51 -78 77q-221 76 -290 113q-223 123 -224 356q0 236 162 380.5t410 144.5q336 0 565 -178l-244 -275q-51 47 -134 81t-150 34q-174 0 -175 -94q0 -20 13.5 -38t40 -31t44 -20.5t51.5 -17.5t36 -10 q96 -31 159.5 -58.5t137 -77.5t111.5 -126t38 -176q0 -262 -186.5 -391.5t-460.5 -129.5z" />
<glyph unicode="T" horiz-adv-x="1368" d="M377 0l196 1112h-407l61 348h1270l-61 -348h-408l-197 -1112h-454z" />
<glyph unicode="U" horiz-adv-x="1484" d="M649 -27q-231 0 -387 112t-156 329q0 47 13 114l164 932h450l-160 -913q-6 -31 -6 -70q0 -154 170 -153q188 0 230 223l159 913h433l-158 -919q-49 -289 -255 -428.5t-497 -139.5z" />
<glyph unicode="V" horiz-adv-x="1417" d="M385 -2l-188 1462h442l70 -991h10l432 991h426l-721 -1462h-471z" />
<glyph unicode="W" horiz-adv-x="2017" d="M289 -2l-101 1462h435l41 -764h6l315 764h395l33 -764h4l305 764h422l-610 -1462h-424l-61 819h-7l-354 -819h-399z" />
<glyph unicode="X" horiz-adv-x="1409" d="M-61 0l559 756l-271 704h451l147 -428l291 428h443l-533 -715l295 -745h-447l-169 465l-318 -465h-448z" />
<glyph unicode="Y" horiz-adv-x="1370" d="M383 0l100 569l-311 891h449l167 -545l334 545h441l-627 -893l-100 -567h-453z" />
<glyph unicode="Z" horiz-adv-x="1345" d="M4 0l45 260l770 852h-598l62 348h1165l-53 -301l-725 -809h573l-61 -350h-1178z" />
<glyph unicode="[" horiz-adv-x="724" d="M35 -377l323 1837h519l-33 -184h-197l-260 -1473h195l-33 -180h-514z" />
<glyph unicode="\" horiz-adv-x="757" d="M614 -365l-532 1835h272l539 -1835h-279z" />
<glyph unicode="]" horiz-adv-x="724" d="M-84 -377l33 180h192l260 1473h-196l33 184h518l-326 -1837h-514z" />
<glyph unicode="^" horiz-adv-x="1171" d="M147 246l441 1018h295l65 -1018h-256l-18 710l-273 -710h-254z" />
<glyph unicode="_" horiz-adv-x="1024" d="M-129 -338l57 281h1024l-59 -281h-1022z" />
<glyph unicode="`" horiz-adv-x="686" d="M489 1214l-335 377h383l221 -377h-269z" />
<glyph unicode="a" horiz-adv-x="1271" d="M369 -25q-150 0 -236 73t-86 218q0 51 8 92l72 400q31 166 160 268t299 102q80 0 157.5 -27.5t116.5 -82.5h4l17 88h415l-196 -1106h-408l25 135h-8q-150 -160 -340 -160zM590 279q70 0 115 47t57 116l47 260q2 10 2 35q0 53 -33 82t-86 29q-66 0 -107.5 -50t-54.5 -118 l-43 -246q-4 -25 -4 -37q0 -51 28 -84.5t79 -33.5z" />
<glyph unicode="b" horiz-adv-x="1273" d="M698 -27q-166 0 -247 123h-7l-16 -98h-412l258 1462h418l-86 -485h4q147 154 334 153q150 0 236 -72.5t86 -217.5q0 -53 -9 -95l-69 -399q-29 -164 -173.5 -267.5t-316.5 -103.5zM623 254q63 0 104 44t53 110l47 268q4 25 4 37q0 51 -28.5 81.5t-77.5 30.5 q-145 0 -176 -172l-45 -254q-2 -10 -2 -32q0 -53 34 -83t87 -30z" />
<glyph unicode="c" horiz-adv-x="1159" d="M569 -27q-94 0 -181 18.5t-165 58.5t-124 114t-46 172q0 70 49 315q41 225 213 352t406 127q176 0 309 -80.5t133 -246.5q0 -43 -16 -129h-367q8 49 8 71q0 92 -98 93q-135 0 -158 -140q-53 -274 -53 -299q0 -66 59.5 -95.5t133.5 -29.5q96 0 295 54l61 -273 q-205 -82 -459 -82z" />
<glyph unicode="d" horiz-adv-x="1271" d="M369 -25q-147 0 -234.5 72t-87.5 217q0 53 8 94l72 400q31 164 168 267t307 103q78 0 149.5 -27.5t110.5 -82.5h2l78 442h416l-258 -1460h-408l25 135h-10q-135 -160 -338 -160zM590 279q70 0 115 47t57 116l47 260q4 25 4 35q0 51 -34 81t-87 30q-66 0 -107.5 -50 t-54.5 -118l-43 -246q-2 -12 -2 -37q0 -51 28 -84.5t77 -33.5z" />
<glyph unicode="e" horiz-adv-x="1191" d="M545 -25q-94 0 -177 18.5t-156 57.5t-116 113t-43 174q0 55 43 287q43 238 225.5 371.5t428.5 133.5q182 0 303 -95t121 -273q0 -55 -46 -303h-641q-8 -41 -8 -60q0 -66 59.5 -95.5t133.5 -29.5q131 0 313 50l51 -261q-221 -88 -491 -88zM524 670h258q10 68 11 80 q0 100 -111 100q-59 0 -99 -37t-51 -94z" />
<glyph unicode="f" horiz-adv-x="839" d="M20 -410l216 1198h-152l51 289h152l18 97q20 115 93 191.5t158 104t179 27.5q164 0 232 -27l-43 -243q-92 6 -111 6q-37 0 -63.5 -20.5t-32.5 -55.5l-15 -80h183l-51 -289h-183l-209 -1165z" />
<glyph unicode="g" horiz-adv-x="1284" d="M453 -393q-264 0 -484 84l166 299q160 -57 336 -58q213 0 246 181q4 14 8 45l6 45h-10q-131 -129 -315 -129q-150 0 -239 72.5t-89 218.5q0 49 8 88l53 299q31 174 151 276t308 102q76 0 163 -29.5t126 -80.5h6l14 86h402l-172 -975q-45 -258 -230.5 -391t-453.5 -133z M623 375q70 0 112.5 43t55.5 114q2 16 11 58.5t14 76t5 56.5q0 53 -34.5 83t-90.5 30q-63 0 -102 -49.5t-51 -116.5q-31 -166 -31 -185q0 -51 29 -80.5t82 -29.5z" />
<glyph unicode="h" d="M16 0l256 1460h420l-88 -512h4q86 92 171 137t196 45q123 0 210 -67.5t87 -185.5q0 -45 -8 -86l-138 -791h-417l114 649q0 2 4 25.5t4 34.5q0 47 -31.5 77.5t-86.5 30.5q-66 0 -111 -59.5t-57 -130.5l-111 -627h-418z" />
<glyph unicode="i" horiz-adv-x="614" d="M16 0l195 1104h418l-195 -1104h-418zM229 1204l56 334h417l-55 -334h-418z" />
<glyph unicode="j" horiz-adv-x="647" d="M31 -393q-76 0 -170 16l51 287q12 -2 51 -2q78 0 92 82l197 1114h418l-203 -1149q-31 -172 -156.5 -260t-279.5 -88zM270 1204l56 334h417l-55 -334h-418z" />
<glyph unicode="k" horiz-adv-x="1214" d="M16 0l258 1460h418l-139 -782l365 424l405 2l-350 -399l149 -705h-424l-90 446l-116 -122l-58 -324h-418z" />
<glyph unicode="l" horiz-adv-x="718" d="M356 -25q-129 0 -217 55.5t-88 178.5q0 29 6 59l209 1192h420l-186 -1059q-2 -10 -2 -28q0 -51 71 -51q29 0 78 8l-55 -316q-121 -39 -236 -39z" />
<glyph unicode="m" horiz-adv-x="1986" d="M16 0l195 1106h410l-25 -145h4q160 170 375 169q106 0 189 -52t102 -148q84 102 176 151t225 49q123 0 210 -67.5t87 -185.5q0 -45 -8 -86l-137 -791h-418l115 649q6 49 6 60q0 47 -31 77.5t-86 30.5q-66 0 -111 -59.5t-57 -130.5l-111 -627h-417l120 692q2 8 2 27 q0 98 -118 98q-66 0 -111 -59.5t-57 -130.5l-111 -627h-418z" />
<glyph unicode="n" d="M16 0l195 1106h410l-25 -145h4q160 170 375 169q123 0 210 -67.5t87 -185.5q0 -45 -8 -86l-138 -791h-417l114 649q0 2 4 25.5t4 34.5q0 47 -31.5 77.5t-86.5 30.5q-68 0 -111 -56t-57 -134l-111 -627h-418z" />
<glyph unicode="o" horiz-adv-x="1228" d="M532 -25q-129 0 -230 29t-175 112t-74 214q0 55 8 98l41 225q41 225 216.5 351t410.5 126q129 0 232.5 -32.5t176 -119.5t72.5 -218q0 -55 -8 -98l-41 -232q-41 -223 -217 -339t-412 -116zM586 270q61 0 99 39t50 103l49 274q2 10 2 35q0 49 -27.5 81t-76.5 32 q-63 0 -102 -43t-52 -111l-47 -274q-4 -25 -4 -39q0 -97 109 -97z" />
<glyph unicode="p" horiz-adv-x="1273" d="M-49 -377l262 1483h410l-25 -139h6q150 164 342 163q147 0 234.5 -73.5t87.5 -216.5q0 -33 -8 -95l-31 -178t-41 -221q-39 -178 -176.5 -274.5t-313.5 -96.5q-68 0 -136 31t-105 84h-6l-82 -467h-418zM621 256q63 0 106 41t53 104l49 275q2 12 2 37q0 51 -27.5 82.5 t-76.5 31.5q-145 0 -176 -172l-45 -254q-2 -12 -2 -34q0 -51 32 -81t85 -30z" />
<glyph unicode="q" horiz-adv-x="1273" d="M618 -377l91 512h-11q-158 -158 -327 -158q-150 0 -237 72t-87 217q0 51 8 92l70 392q31 172 165 276t312 104q80 0 153.5 -32.5t116.5 -93.5h7l18 102h401l-262 -1483h-418zM590 281q70 0 116 47t58 116l45 261q2 12 2 34q0 53 -33 82t-84 29q-66 0 -108.5 -50 t-55.5 -118l-43 -246q-4 -25 -4 -37q0 -51 28 -84.5t79 -33.5z" />
<glyph unicode="r" horiz-adv-x="970" d="M16 0l195 1106h410l-33 -184h10q59 82 152.5 140t191.5 58q80 0 121 -12l-59 -346q-109 16 -187 16q-246 0 -280 -192l-103 -586h-418z" />
<glyph unicode="s" horiz-adv-x="1128" d="M487 -25q-264 0 -493 121l180 271q150 -119 307 -119q141 0 142 65q0 14 -9.5 24.5t-32 20t-41.5 15.5l-58 17q-38 11 -60 18q-129 41 -206 110.5t-77 206.5q0 193 143.5 299t350.5 106q139 0 234.5 -22.5t203.5 -77.5l-160 -264q-47 35 -126.5 62.5t-137.5 27.5 q-139 0 -139 -72q0 -25 29 -34q39 -16 118.5 -37t139 -41.5t122 -56t96.5 -97t34 -149.5q0 -109 -51.5 -189t-135.5 -122t-177.5 -62.5t-195.5 -20.5z" />
<glyph unicode="t" horiz-adv-x="841" d="M397 -23q-131 0 -217 57.5t-86 186.5q0 43 8 78l86 489h-122l51 289h123l51 293h418l-52 -293h213l-51 -289h-213l-67 -378q0 -4 -1 -12.5t-1 -10.5q0 -63 79 -63q72 0 129 8l-57 -314q-148 -41 -291 -41z" />
<glyph unicode="u" d="M356 -25q-123 0 -210 68t-87 186q0 45 9 86l137 789h418l-115 -647q0 -2 -4 -25.5t-4 -34.5q0 -47 31.5 -77.5t86.5 -30.5q66 0 111 59.5t57 130.5l111 625h418l-195 -1104h-409l24 145h-4q-160 -170 -375 -170z" />
<glyph unicode="v" horiz-adv-x="1222" d="M305 -2l-192 1106h432l63 -639h8l297 639h385l-567 -1106h-426z" />
<glyph unicode="w" horiz-adv-x="1810" d="M260 -2l-145 1106h415l35 -574h10l250 574h396l45 -574h8l244 574h378l-536 -1106h-369l-57 647h-8l-293 -647h-373z" />
<glyph unicode="x" horiz-adv-x="1198" d="M-53 2l438 580l-238 522h431l112 -295l215 295h365l-416 -537l244 -565h-424l-125 317l-234 -317h-368z" />
<glyph unicode="y" d="M219 -389q-88 0 -196 22l55 310q59 -16 141 -17q98 0 123 51l14 31l-206 1096h436l69 -637h9l299 637h399l-606 -1155q-177 -338 -537 -338z" />
<glyph unicode="z" horiz-adv-x="1155" d="M2 0l45 252l557 549h-448l55 303h969l-47 -260l-555 -539h462l-55 -305h-983z" />
<glyph unicode="{" horiz-adv-x="720" d="M260 -377q-86 0 -135 48t-49 141q0 33 6 73l84 482q8 53 8 67q0 37 -16.5 53.5t-57.5 20.5l33 194q68 12 85.5 32t27.5 77l67 387q23 129 95.5 195.5t177.5 66.5h288l-32 -184h-148q-45 0 -53 -47l-66 -365q-18 -102 -56 -157.5t-111 -81.5l-2 -13q53 -23 74.5 -52.5 t21.5 -80.5q0 -20 -13 -102l-92 -524q0 -2 -1 -6.5t-1 -6.5q0 -35 39 -35h148l-33 -182h-289z" />
<glyph unicode="|" horiz-adv-x="645" d="M88 -109l281 1594h284l-280 -1594h-285z" />
<glyph unicode="}" horiz-adv-x="720" d="M-100 -377l32 182h146q45 0 53 48l92 524q18 109 52 156t118 79l2 13q-94 37 -94 151q0 45 8 88l66 365v12q0 35 -37 35h-148l33 184h289q86 0 135 -48t49 -142q0 -33 -6 -72l-67 -387q-6 -31 -7 -51q0 -25 16.5 -37t61.5 -21l-32 -194q-57 -6 -82 -36t-37 -105l-84 -482 q-23 -129 -95.5 -195.5t-177.5 -66.5h-286z" />
<glyph unicode="~" horiz-adv-x="1232" d="M231 451l-161 34q111 330 346 330q66 0 271.5 -37t273.5 -37q43 0 71.5 26t63.5 81l151 -39q-100 -326 -332 -326q-68 0 -276.5 36t-276.5 36q-49 0 -75.5 -22.5t-55.5 -81.5z" />
<glyph unicode="&#xa1;" horiz-adv-x="659" d="M-18 -330l92 525l176 440h237l21 -440l-92 -525h-434zM180 739l70 391h414l-70 -391h-414z" />
<glyph unicode="&#xa2;" horiz-adv-x="1220" d="M387 -127l35 184q-154 27 -247 113t-93 236q0 66 43 290q33 186 166 306t325 159l29 164h293l-29 -164q137 -27 230.5 -105.5t93.5 -207.5q0 -41 -16 -119h-396q8 41 8 66q0 100 -110 100q-143 0 -170 -152q-8 -43 -22.5 -131t-22.5 -131q-4 -29 -4 -41q0 -115 118 -114 q74 0 110 38.5t44 127.5h395q-16 -102 -50 -178t-72.5 -119t-101 -73t-109 -41t-119.5 -24l-35 -184h-293z" />
<glyph unicode="&#xa3;" horiz-adv-x="1333" d="M14 0l60 332h162l45 256h-113l39 227h112l41 225q45 219 210 332t397 113q170 0 290.5 -80t120.5 -242q0 -37 -24 -180h-355q10 72 11 86q0 88 -99 88q-119 0 -141 -119q-12 -61 -39 -223h328l-39 -227h-328l-45 -256h610l-127 -332h-1116z" />
<glyph unicode="&#xa4;" horiz-adv-x="1177" d="M233 233l-127 129l125 127q-63 106 -63 224q0 106 61 219q-55 61 -123 129l127 125l121 -117q109 70 238 70q133 0 233 -70l117 117l129 -125l-119 -121q63 -102 63.5 -227t-65.5 -230l121 -121l-129 -126l-121 118q-102 -63 -229 -63q-125 0 -232 67zM592 471 q109 0 166 69.5t57 172.5q0 104 -59.5 176t-163.5 72q-109 0 -166 -71t-57 -177q0 -100 60.5 -171t162.5 -71z" />
<glyph unicode="&#xa5;" horiz-adv-x="1396" d="M397 0l88 502h-354l37 215h278l-260 743h449l164 -532l327 532h451l-522 -743h268l-37 -215h-348l-88 -502h-453z" />
<glyph unicode="&#xa6;" horiz-adv-x="770" d="M172 -96l129 729h254l-129 -729h-254zM328 784l121 676h253l-120 -676h-254z" />
<glyph unicode="&#xa7;" horiz-adv-x="1130" d="M444 -178q-96 0 -178 22.5t-147.5 88t-65.5 167.5q0 63 19 133h274q-8 -29 -8 -63q0 -109 164 -109q104 0 154.5 44.5t50.5 84.5q0 25 -21.5 44.5t-38 26.5t-53.5 20q-23 8 -81 26.5t-80.5 26.5t-70 27.5t-67 33t-50 38t-44 49t-23.5 59t-10 75.5q0 168 147 285 q-70 61 -69 162q0 188 143 305t371 117q174 0 278.5 -71t104.5 -204q0 -57 -19 -131h-268q10 41 10 68q0 41 -36.5 70.5t-120.5 29.5q-82 0 -128 -32.5t-46 -73.5q0 -14 4 -24.5t17 -21t25.5 -17.5t40 -18l50.5 -20l65 -24l78 -29q145 -57 195 -100q66 -59 65.5 -145.5 t-40.5 -167t-109 -136.5q70 -74 69 -176q0 -186 -159 -313t-392 -127zM692 557q94 35 94 102q0 33 -36.5 50.5t-194.5 64.5q-102 -39 -102 -108q0 -8 4 -16.5t13 -14.5t16.5 -10t20.5 -10l21 -8q8 -3 21.5 -7t15.5 -4t25 -7l53 -17q31 -9 49 -15z" />
<glyph unicode="&#xa8;" horiz-adv-x="983" d="M217 1206l62 350h333l-61 -350h-334zM713 1206l61 350h334l-61 -350h-334z" />
<glyph unicode="&#xa9;" horiz-adv-x="1894" d="M922 156q-166 0 -278 71.5t-112 223.5q0 37 72 444q20 121 101 205t185.5 120.5t221.5 36.5q154 0 268.5 -66.5t114.5 -205.5q0 -25 -29 -172h-321q18 94 18 107q0 35 -25.5 54t-64.5 19q-111 0 -129 -102q-66 -375 -65 -393q0 -80 92 -80q43 0 78.5 25.5t44.5 68.5 l16 102h322l-23 -135q-20 -113 -103 -188.5t-181.5 -105t-202.5 -29.5zM856 -129q-332 0 -518 196.5t-186 493.5q0 420 290.5 701.5t708.5 281.5q332 0 523.5 -190.5t191.5 -485.5q0 -197 -73 -377t-201 -318t-320.5 -220t-415.5 -82zM887 41q338 0 551 229.5t213 577.5 q0 242 -149.5 388t-377.5 146q-141 0 -274 -51t-241.5 -148.5t-174 -257t-65.5 -356.5q0 -242 148.5 -385t369.5 -143z" />
<glyph unicode="&#xaa;" horiz-adv-x="862" d="M332 750q-82 0 -137.5 38.5t-55.5 118.5q0 100 70 167t159 90.5t187 23.5h59q0 6 4.5 26.5t4.5 30.5q0 57 -72 58q-80 0 -96 -76q0 -2 -1 -6t-1 -7h-242l6 31q20 119 136 178.5t251 59.5q119 0 207 -50.5t88 -160.5q0 -14 -4 -47l-21 -111q-14 -76 -21 -120l-16.5 -108.5 t-11.5 -119.5h-254l9 98q-94 -114 -248 -114zM489 934q33 0 61 25.5t34 58.5l8 43h-47q-117 0 -117 -82q0 -45 61 -45zM102 428l39 213h641l-39 -213h-641z" />
<glyph unicode="&#xab;" horiz-adv-x="1339" d="M436 86l-395 442l553 447l149 -160l-297 -287l199 -288zM1049 86l-396 442l553 447l150 -160l-297 -287l198 -288z" />
<glyph unicode="&#xac;" horiz-adv-x="1411" d="M961 236l51 286l-865 6l43 246l1139 -6l-94 -532h-274z" />
<glyph unicode="&#xad;" horiz-adv-x="741" d="M63 449l68 337h623l-68 -337h-623z" />
<glyph unicode="&#xae;" horiz-adv-x="1105" d="M573 602q-186 0 -291.5 106.5t-105.5 270.5q0 223 166 391t397 168q188 0 296 -107.5t108 -273.5q0 -221 -169.5 -388t-400.5 -167zM592 709q160 0 289 127t129 309q0 131 -81 210t-208 79q-160 0 -286 -124t-126 -315q0 -131 81 -208.5t202 -77.5zM420 827l88 510h235 q80 0 119 -34.5t39 -92.5q0 -59 -30.5 -110t-88.5 -78l72 -195h-170l-51 170h-31l-29 -170h-153zM621 1106h59q29 0 48.5 21.5t19.5 48.5q0 43 -46 43h-61z" />
<glyph unicode="&#xaf;" horiz-adv-x="970" d="M268 1223l51 286h756l-51 -286h-756z" />
<glyph unicode="&#xb0;" horiz-adv-x="716" d="M449 1008q-109 0 -168.5 60t-59.5 149q0 137 93.5 221t226.5 84q106 0 168.5 -64.5t62.5 -157.5q0 -133 -97 -212.5t-226 -79.5zM475 1157q49 0 85 38t36 91q0 37 -21.5 61.5t-60.5 24.5q-45 0 -82 -39t-37 -92q0 -37 22.5 -60.5t57.5 -23.5z" />
<glyph unicode="&#xb1;" horiz-adv-x="1269" d="M-25 0l41 238h1170l-41 -238h-1170zM506 381l67 375h-467l41 237h467l66 375h240l-66 -375h465l-41 -237h-465l-68 -375h-239z" />
<glyph unicode="&#xb2;" horiz-adv-x="798" d="M145 778l25 150l268 239q4 4 29 24.5t35 30t29.5 31t28.5 37t17.5 38t8.5 42.5q0 39 -45 39q-53 0 -66 -76l-4 -24h-258l10 49q20 121 125 187.5t246 66.5q129 0 198.5 -54.5t69.5 -150.5q0 -72 -43 -144.5t-84 -110.5t-121 -103l-71 -60h262l-37 -211h-623z" />
<glyph unicode="&#xb3;" horiz-adv-x="798" d="M440 754q-289 0 -288 198q0 31 6 56l4 20h272l-2 -12l-2 -8v-15q0 -49 59 -49q33 0 52.5 26.5t19.5 69.5q0 53 -84 54h-47l29 163h51q51 0 76.5 19.5t25.5 77.5q0 51 -51 51q-29 0 -45 -14.5t-18 -23.5t-6 -30l-3 -14h-270l4 29q14 113 118.5 181.5t256.5 68.5 q139 0 215 -51.5t76 -145.5q0 -80 -47 -138.5t-123 -78.5v-6q127 -33 127 -150q0 -78 -41 -135t-105.5 -87t-130.5 -43t-129 -13z" />
<glyph unicode="&#xb4;" horiz-adv-x="686" d="M260 1214l260 377h383l-375 -377h-268z" />
<glyph unicode="&#xb5;" horiz-adv-x="1349" d="M-33 -365l258 1469h426l-119 -672q-4 -20 -4 -33q0 -106 115 -106q49 0 98.5 48t61.5 120l115 643h425l-116 -658q-2 -10 -2 -26q0 -66 75 -72l-67 -358q-317 4 -361 174q-96 -188 -282 -189q-176 0 -201 117l-18 -2l45 -420z" />
<glyph unicode="&#xb6;" horiz-adv-x="1271" d="M379 -184l106 602q-100 12 -168.5 60t-99.5 119t-40 159t11 178q35 207 184.5 366.5t340.5 159.5h633l-31 -180h-88l-258 -1464h-226l258 1464h-141l-258 -1464h-223z" />
<glyph unicode="&#xb7;" horiz-adv-x="626" d="M147 623l70 397h414l-70 -397h-414z" />
<glyph unicode="&#x22c5;" horiz-adv-x="626" d="M147 623l70 397h414l-70 -397h-414z" />
<glyph unicode="&#xb8;" horiz-adv-x="745" d="M199 -475q-115 0 -244 31l35 165q139 -33 225 -32q90 0 90 57q0 29 -76 33l-112 6l125 272h159l-67 -151q98 0 175 -33t77 -111q0 -117 -116.5 -177t-270.5 -60z" />
<glyph unicode="&#xb9;" horiz-adv-x="798" d="M80 778l35 195h139l68 385l-138 -4l19 190l276 55h156l-111 -626h127l-35 -195h-536z" />
<glyph unicode="&#xba;" horiz-adv-x="890" d="M498 752q-61 0 -113.5 11t-99.5 35.5t-74 72t-27 112.5q0 41 31 209q27 145 142.5 226t269.5 81q131 0 222 -58.5t91 -180.5q0 -39 -31 -213q-27 -143 -142 -219t-269 -76zM532 948q76 0 95 86q33 188 32 199q0 29 -17 48t-46 19q-82 0 -96 -92q-35 -197 -35 -198 q-1 -62 67 -62zM127 428l39 213h641l-39 -213h-641z" />
<glyph unicode="&#xbb;" horiz-adv-x="1339" d="M158 86l-150 160l297 286l-199 289l209 154l396 -443zM770 86l-149 160l297 286l-199 289l209 154l395 -443z" />
<glyph unicode="&#xbc;" horiz-adv-x="1923" d="M201 647l35 195h139l67 385l-137 -4l19 190l276 55h156l-111 -626h127l-35 -195h-536zM465 -4l950 1474h211l-950 -1474h-211zM1417 0l27 150h-375l33 180l397 487h291l-420 -477h109l12 72l276 168l-41 -240h76l-35 -190h-75l-27 -150h-248z" />
<glyph unicode="&#xbd;" horiz-adv-x="1923" d="M201 647l35 195h139l67 385l-137 -4l19 190l276 55h156l-111 -626h127l-35 -195h-536zM446 -4l951 1474h211l-951 -1474h-211zM1118 0l25 150l268 239q4 4 28.5 24.5t35 30t30 31t28.5 36.5t17.5 37.5t8.5 43.5q0 39 -46 39q-53 0 -65 -76l-4 -25h-258l10 50 q20 121 124.5 187.5t246.5 66.5q129 0 198.5 -54.5t69.5 -150.5q0 -72 -43 -144.5t-84 -110.5t-121 -104l-71 -59h262l-37 -211h-623z" />
<glyph unicode="&#xbe;" horiz-adv-x="1923" d="M442 623q-289 0 -288 198q0 31 6 56l4 20h272l-2 -12v-8q-2 -10 -2 -15q0 -49 60 -49q33 0 52 26.5t19 69.5q0 53 -84 54h-47l29 163h51q51 0 76.5 19.5t25.5 77.5q0 51 -51 51q-29 0 -45 -14.5t-18 -23.5t-6 -30l-2 -14h-271l4 29q14 113 119 181t256 68q139 0 215 -51 t76 -145q0 -80 -47 -138.5t-123 -78.5v-6q127 -33 127 -150q0 -78 -41 -135t-105.5 -87t-130.5 -43t-129 -13zM465 -4l950 1474h211l-950 -1474h-211zM1417 0l27 150h-375l33 180l397 487h291l-420 -477h109l12 72l276 168l-41 -240h76l-35 -190h-75l-27 -150h-248z" />
<glyph unicode="&#xbf;" horiz-adv-x="1173" d="M446 -350q-88 0 -162.5 16.5t-141 51t-104.5 102t-38 160.5q0 268 258 421q6 4 49 29t61 37l48 35q31 23 46 43t19 43q0 6 3 22.5t5 24.5h371l-8 -45q-16 -88 -56 -146.5t-118 -115.5q-16 -12 -72.5 -49t-92.5 -63t-68.5 -68t-32.5 -80q0 -43 30.5 -67t75.5 -24 q61 0 112.5 29t63.5 84l6 37h367l-10 -61q-37 -203 -213.5 -309.5t-397.5 -106.5zM489 739l70 391h414l-70 -391h-414z" />
<glyph unicode="&#xc0;" horiz-adv-x="1536" d="M-53 0l749 1462h523l221 -1462h-443l-28 236h-486l-110 -236h-426zM639 567h291l-60 504h-6zM825 1583l-336 377h383l222 -377h-269z" />
<glyph unicode="&#xc1;" horiz-adv-x="1536" d="M-53 0l749 1462h523l221 -1462h-443l-28 236h-486l-110 -236h-426zM639 567h291l-60 504h-6zM850 1583l260 377h383l-375 -377h-268z" />
<glyph unicode="&#xc2;" horiz-adv-x="1536" d="M-53 0l749 1462h523l221 -1462h-443l-28 236h-486l-110 -236h-426zM639 567h291l-60 504h-6zM565 1585l334 404h268l199 -404h-287l-80 191l-149 -191h-285z" />
<glyph unicode="&#xc3;" horiz-adv-x="1536" d="M-53 0l749 1462h523l221 -1462h-443l-28 236h-486l-110 -236h-426zM639 567h291l-60 504h-6zM649 1556l-211 43q90 344 348 345q68 0 188 -38t187 -38q12 0 22.5 3t18.5 6t15.5 11t11.5 13.5t9 18.5t7 19.5t8.5 22.5t8.5 23l194 -48q-37 -150 -119 -245t-217 -95 q-74 0 -197.5 40t-164.5 40q-68 0 -109 -121z" />
<glyph unicode="&#xc4;" horiz-adv-x="1536" d="M-53 0l749 1462h523l221 -1462h-443l-28 236h-486l-110 -236h-426zM639 567h291l-60 504h-6zM545 1575l61 350h334l-61 -350h-334zM1040 1575l62 350h334l-62 -350h-334z" />
<glyph unicode="&#xc5;" horiz-adv-x="1536" d="M-53 0l749 1462h523l221 -1462h-443l-28 236h-486l-110 -236h-426zM639 567h291l-60 504h-6zM983 1583q-94 0 -155.5 45t-61.5 123q0 113 96 192.5t213 79.5q98 0 159.5 -43t61.5 -122q0 -111 -96 -193t-217 -82zM1008 1704q53 0 95 36t42 87q0 80 -94 80q-53 0 -92 -36 t-39 -87q0 -35 24.5 -57.5t63.5 -22.5z" />
<glyph unicode="&#xc6;" horiz-adv-x="2193" d="M-59 0l933 1460h1407l-61 -348h-678l-37 -211h537l-62 -344h-536l-37 -207h678l-62 -350h-1128l41 238h-399l-144 -238h-452zM737 567h258l105 594z" />
<glyph unicode="&#xc7;" horiz-adv-x="1394" d="M573 -475q-115 0 -243 31l35 165q139 -33 225 -32q90 0 90 57q0 29 -76 33l-112 6l88 192q-221 12 -363.5 116t-142.5 315q0 49 10 114l76 428q45 256 253 395.5t480 139.5q135 0 253 -35t206 -128t88 -232q0 -47 -23 -175h-422q10 61 11 78q0 68 -46.5 105t-115.5 37 q-92 0 -153.5 -49.5t-78.5 -141.5l-73 -420q-4 -33 -4 -51q0 -147 165 -147q82 0 143.5 47t78.5 127l8 45h422l-17 -94q-39 -209 -204.5 -328t-389.5 -141l-32 -76q98 0 175 -33t77 -111q0 -117 -117 -177t-271 -60z" />
<glyph unicode="&#xc8;" horiz-adv-x="1333" d="M35 0l258 1460h1128l-61 -348h-678l-37 -211h537l-62 -344h-536l-37 -207h678l-62 -350h-1128zM797 1583l-336 377h383l221 -377h-268z" />
<glyph unicode="&#xc9;" horiz-adv-x="1333" d="M35 0l258 1460h1128l-61 -348h-678l-37 -211h537l-62 -344h-536l-37 -207h678l-62 -350h-1128zM743 1583l261 377h382l-374 -377h-269z" />
<glyph unicode="&#xca;" horiz-adv-x="1333" d="M35 0l258 1460h1128l-61 -348h-678l-37 -211h537l-62 -344h-536l-37 -207h678l-62 -350h-1128zM481 1585l334 404h268l199 -404h-287l-80 191l-149 -191h-285z" />
<glyph unicode="&#xcb;" horiz-adv-x="1333" d="M35 0l258 1460h1128l-61 -348h-678l-37 -211h537l-62 -344h-536l-37 -207h678l-62 -350h-1128zM483 1575l62 350h334l-62 -350h-334zM979 1575l61 350h334l-61 -350h-334z" />
<glyph unicode="&#xcc;" horiz-adv-x="663" d="M35 0l258 1460h450l-258 -1460h-450zM399 1583l-336 377h383l222 -377h-269z" />
<glyph unicode="&#xcd;" horiz-adv-x="663" d="M35 0l258 1460h450l-258 -1460h-450zM406 1583l260 377h383l-375 -377h-268z" />
<glyph unicode="&#xce;" horiz-adv-x="663" d="M35 0l258 1460h450l-258 -1460h-450zM115 1585l334 404h268l198 -404h-286l-80 191l-150 -191h-284z" />
<glyph unicode="&#xcf;" horiz-adv-x="663" d="M35 0l258 1460h450l-258 -1460h-450zM98 1575l62 350h334l-62 -350h-334zM594 1575l61 350h334l-61 -350h-334z" />
<glyph unicode="&#xd0;" horiz-adv-x="1458" d="M45 639l47 225h119l106 596h646q137 0 252.5 -40t197.5 -138t82 -244q0 -49 -10 -104q-6 -41 -82 -451q-88 -483 -694 -483h-650l113 639h-127zM571 350h164q84 0 145.5 52.5t75.5 136.5l68 385q4 25 4 37q0 72 -48 109.5t-122 37.5h-153l-43 -244h210l-47 -225h-202z " />
<glyph unicode="&#xd1;" horiz-adv-x="1531" d="M35 0l258 1460h395l397 -694h2l119 694h406l-258 -1460h-371l-403 766h-7l-133 -766h-405zM725 1556l-211 43q90 344 348 345q68 0 187.5 -38t187.5 -38q12 0 22.5 3t18.5 6t15 11l11.5 13.5t9.5 18.5t7 19.5t8 22.5t8 23l195 -48q-37 -150 -119 -245t-217 -95 q-74 0 -198 40t-164 40q-68 0 -109 -121z" />
<glyph unicode="&#xd2;" horiz-adv-x="1437" d="M637 -25q-115 0 -211 21.5t-177 70t-127 135.5t-46 208q0 66 12 129l66 376q49 272 253.5 421t489.5 149q244 0 405.5 -105.5t161.5 -337.5q0 -66 -12 -127l-66 -372q-51 -276 -255.5 -422t-493.5 -146zM702 328q92 0 151.5 55t76.5 147l71 402q4 29 5 45q0 74 -46.5 115 t-119.5 41q-193 0 -228 -201l-69 -393q-6 -27 -6 -58q-1 -153 165 -153zM807 1583l-336 377h383l221 -377h-268z" />
<glyph unicode="&#xd3;" horiz-adv-x="1437" d="M637 -25q-115 0 -211 21.5t-177 70t-127 135.5t-46 208q0 66 12 129l66 376q49 272 253.5 421t489.5 149q244 0 405.5 -105.5t161.5 -337.5q0 -66 -12 -127l-66 -372q-51 -276 -255.5 -422t-493.5 -146zM702 328q92 0 151.5 55t76.5 147l71 402q4 29 5 45q0 74 -46.5 115 t-119.5 41q-193 0 -228 -201l-69 -393q-6 -27 -6 -58q-1 -153 165 -153zM774 1583l260 377h383l-375 -377h-268z" />
<glyph unicode="&#xd4;" horiz-adv-x="1437" d="M637 -25q-115 0 -211 21.5t-177 70t-127 135.5t-46 208q0 66 12 129l66 376q49 272 253.5 421t489.5 149q244 0 405.5 -105.5t161.5 -337.5q0 -66 -12 -127l-66 -372q-51 -276 -255.5 -422t-493.5 -146zM702 328q92 0 151.5 55t76.5 147l71 402q4 29 5 45q0 74 -46.5 115 t-119.5 41q-193 0 -228 -201l-69 -393q-6 -27 -6 -58q-1 -153 165 -153zM512 1585l334 404h268l199 -404h-287l-80 191l-149 -191h-285z" />
<glyph unicode="&#xd5;" horiz-adv-x="1437" d="M637 -25q-115 0 -211 21.5t-177 70t-127 135.5t-46 208q0 66 12 129l66 376q49 272 253.5 421t489.5 149q244 0 405.5 -105.5t161.5 -337.5q0 -66 -12 -127l-66 -372q-51 -276 -255.5 -422t-493.5 -146zM702 328q92 0 151.5 55t76.5 147l71 402q4 29 5 45q0 74 -46.5 115 t-119.5 41q-193 0 -228 -201l-69 -393q-6 -27 -6 -58q-1 -153 165 -153zM616 1556l-210 43q90 344 348 345q68 0 187.5 -38t186.5 -38q12 0 22.5 3t19 6t15.5 11t11 13.5t9 18.5t7 19.5t8.5 22.5t8.5 23l194 -48q-37 -150 -118.5 -245t-217.5 -95q-74 0 -197.5 40t-164.5 40 q-68 0 -109 -121z" />
<glyph unicode="&#xd6;" horiz-adv-x="1437" d="M637 -25q-115 0 -211 21.5t-177 70t-127 135.5t-46 208q0 66 12 129l66 376q49 272 253.5 421t489.5 149q244 0 405.5 -105.5t161.5 -337.5q0 -66 -12 -127l-66 -372q-51 -276 -255.5 -422t-493.5 -146zM702 328q92 0 151.5 55t76.5 147l71 402q4 29 5 45q0 74 -46.5 115 t-119.5 41q-193 0 -228 -201l-69 -393q-6 -27 -6 -58q-1 -153 165 -153zM487 1575l62 350h334l-62 -350h-334zM983 1575l61 350h334l-61 -350h-334z" />
<glyph unicode="&#xd7;" horiz-adv-x="1269" d="M975 98l-295 373l-416 -362l-149 178l409 362l-293 377l179 162l295 -375l415 363l154 -175l-414 -366l293 -375z" />
<glyph unicode="&#xd8;" horiz-adv-x="1437" d="M250 -111l-127 86l90 117q-137 111 -137 318q0 66 12 129l66 376q49 272 253.5 421t489.5 149q190 0 328 -62l96 125l127 -86l-96 -125q113 -113 112 -295q0 -66 -12 -127l-66 -372q-51 -276 -255.5 -422t-493.5 -146q-160 0 -289 43zM543 539q-4 -12 -4 -19l428 563 q-43 49 -127 50q-193 0 -228 -201zM702 328q92 0 151.5 55t76.5 147l57 328l-387 -508q41 -22 102 -22z" />
<glyph unicode="&#xd9;" horiz-adv-x="1484" d="M649 -27q-231 0 -387 112t-156 329q0 47 13 114l164 932h450l-160 -913q-6 -31 -6 -70q0 -154 170 -153q188 0 230 223l159 913h433l-158 -919q-49 -289 -255 -428.5t-497 -139.5zM776 1583l-336 377h383l221 -377h-268z" />
<glyph unicode="&#xda;" horiz-adv-x="1484" d="M649 -27q-231 0 -387 112t-156 329q0 47 13 114l164 932h450l-160 -913q-6 -31 -6 -70q0 -154 170 -153q188 0 230 223l159 913h433l-158 -919q-49 -289 -255 -428.5t-497 -139.5zM821 1583l260 377h383l-374 -377h-269z" />
<glyph unicode="&#xdb;" horiz-adv-x="1484" d="M649 -27q-231 0 -387 112t-156 329q0 47 13 114l164 932h450l-160 -913q-6 -31 -6 -70q0 -154 170 -153q188 0 230 223l159 913h433l-158 -919q-49 -289 -255 -428.5t-497 -139.5zM528 1585l334 404h268l199 -404h-287l-79 191l-150 -191h-285z" />
<glyph unicode="&#xdc;" horiz-adv-x="1484" d="M649 -27q-231 0 -387 112t-156 329q0 47 13 114l164 932h450l-160 -913q-6 -31 -6 -70q0 -154 170 -153q188 0 230 223l159 913h433l-158 -919q-49 -289 -255 -428.5t-497 -139.5zM551 1575l61 350h334l-61 -350h-334zM1047 1575l61 350h334l-62 -350h-333z" />
<glyph unicode="&#xdd;" horiz-adv-x="1370" d="M383 0l100 569l-311 891h449l167 -545l334 545h441l-627 -893l-100 -567h-453zM760 1583l260 377h383l-375 -377h-268z" />
<glyph unicode="&#xde;" horiz-adv-x="1419" d="M33 0l256 1460h450l-45 -260h269q227 0 340.5 -112.5t113.5 -286.5q0 -215 -162.5 -362.5t-451.5 -147.5h-268l-52 -291h-450zM588 596h190q88 0 140.5 49t52.5 125q0 51 -35 84t-105 33h-192z" />
<glyph unicode="&#xdf;" horiz-adv-x="1458" d="M29 -410l211 1194h-156l51 293h166q68 203 231.5 310.5t389.5 107.5q92 0 178 -20.5t161.5 -60.5t122 -111.5t46.5 -163.5q0 -125 -65 -212t-183 -118l-4 -16q100 -39 155.5 -133.5t55.5 -213.5q0 -190 -151 -330.5t-353 -140.5q-162 0 -256 33l55 314q61 -14 109 -15 q72 0 124 40t52 112q0 68 -64.5 94.5t-144.5 26.5l51 290h45q154 68 154 201q0 121 -140 121q-143 0 -172 -174l-247 -1395z" />
<glyph unicode="&#xe0;" horiz-adv-x="1271" d="M369 -25q-150 0 -236 73t-86 218q0 51 8 92l72 400q31 166 160 268t299 102q80 0 157.5 -27.5t116.5 -82.5h4l17 88h415l-196 -1106h-408l25 135h-8q-150 -160 -340 -160zM590 279q70 0 115 47t57 116l47 260q2 10 2 35q0 53 -33 82t-86 29q-66 0 -107.5 -50t-54.5 -118 l-43 -246q-4 -25 -4 -37q0 -51 28 -84.5t79 -33.5zM670 1214l-336 377h383l221 -377h-268z" />
<glyph unicode="&#xe1;" horiz-adv-x="1271" d="M369 -25q-150 0 -236 73t-86 218q0 51 8 92l72 400q31 166 160 268t299 102q80 0 157.5 -27.5t116.5 -82.5h4l17 88h415l-196 -1106h-408l25 135h-8q-150 -160 -340 -160zM590 279q70 0 115 47t57 116l47 260q2 10 2 35q0 53 -33 82t-86 29q-66 0 -107.5 -50t-54.5 -118 l-43 -246q-4 -25 -4 -37q0 -51 28 -84.5t79 -33.5zM582 1214l260 377h383l-375 -377h-268z" />
<glyph unicode="&#xe2;" horiz-adv-x="1271" d="M369 -25q-150 0 -236 73t-86 218q0 51 8 92l72 400q31 166 160 268t299 102q80 0 157.5 -27.5t116.5 -82.5h4l17 88h415l-196 -1106h-408l25 135h-8q-150 -160 -340 -160zM590 279q70 0 115 47t57 116l47 260q2 10 2 35q0 53 -33 82t-86 29q-66 0 -107.5 -50t-54.5 -118 l-43 -246q-4 -25 -4 -37q0 -51 28 -84.5t79 -33.5zM236 1217l333 403h269l198 -403h-286l-80 190l-150 -190h-284z" />
<glyph unicode="&#xe3;" horiz-adv-x="1271" d="M369 -25q-150 0 -236 73t-86 218q0 51 8 92l72 400q31 166 160 268t299 102q80 0 157.5 -27.5t116.5 -82.5h4l17 88h415l-196 -1106h-408l25 135h-8q-150 -160 -340 -160zM590 279q70 0 115 47t57 116l47 260q2 10 2 35q0 53 -33 82t-86 29q-66 0 -107.5 -50t-54.5 -118 l-43 -246q-4 -25 -4 -37q0 -51 28 -84.5t79 -33.5zM465 1188l-211 43q90 344 348 344q68 0 187.5 -38t187.5 -38q12 0 22.5 3t18.5 6t15 11.5t11.5 13.5t9.5 18.5t7 19.5t8 22.5t8 22.5l195 -47q-37 -150 -119 -245t-217 -95q-74 0 -198 40t-165 40q-67 0 -108 -121z" />
<glyph unicode="&#xe4;" horiz-adv-x="1271" d="M369 -25q-150 0 -236 73t-86 218q0 51 8 92l72 400q31 166 160 268t299 102q80 0 157.5 -27.5t116.5 -82.5h4l17 88h415l-196 -1106h-408l25 135h-8q-150 -160 -340 -160zM590 279q70 0 115 47t57 116l47 260q2 10 2 35q0 53 -33 82t-86 29q-66 0 -107.5 -50t-54.5 -118 l-43 -246q-4 -25 -4 -37q0 -51 28 -84.5t79 -33.5zM322 1206l61 350h334l-62 -350h-333zM817 1206l62 350h333l-61 -350h-334z" />
<glyph unicode="&#xe5;" horiz-adv-x="1271" d="M369 -25q-150 0 -236 73t-86 218q0 51 8 92l72 400q31 166 160 268t299 102q80 0 157.5 -27.5t116.5 -82.5h4l17 88h415l-196 -1106h-408l25 135h-8q-150 -160 -340 -160zM590 279q70 0 115 47t57 116l47 260q2 10 2 35q0 53 -33 82t-86 29q-66 0 -107.5 -50t-54.5 -118 l-43 -246q-4 -25 -4 -37q0 -51 28 -84.5t79 -33.5zM752 1214q-94 0 -155.5 45.5t-61.5 122.5q0 113 97 193t212 80q98 0 159.5 -43t61.5 -123q0 -111 -96 -193t-217 -82zM776 1335q53 0 95 36t42 87q0 80 -94 80q-53 0 -92 -36t-39 -87q0 -35 24.5 -57.5t63.5 -22.5z" />
<glyph unicode="&#xe6;" horiz-adv-x="1863" d="M311 -25q-127 0 -211 60.5t-84 183.5q0 121 60.5 210t161 136t206 69.5t218.5 22.5h98q16 88 16 101q0 94 -121 94q-135 0 -157 -139h-369q20 113 83.5 196.5t154 129.5t184.5 67.5t190 21.5q197 0 320 -81q162 84 344 83.5t303 -95.5t121 -273q0 -55 -45 -303h-641 q-8 -41 -8 -60q0 -66 59 -95.5t133 -29.5q113 0 340 62l53 -262q-252 -100 -520 -101q-342 0 -450 201q-163 -199 -439 -199zM555 256q55 0 101 41t57 96l14 76h-80q-190 0 -190 -137q0 -76 98 -76zM1180 670h258l12 80q0 100 -111 100q-59 0 -100 -37t-51 -94z" />
<glyph unicode="&#xe7;" horiz-adv-x="1159" d="M463 -475q-115 0 -244 31l35 165q139 -33 225 -32q90 0 90 57q0 29 -75 33l-113 6l88 195q-178 18 -297 104t-119 252q0 70 49 315q41 225 213 352t406 127q176 0 309 -80.5t133 -246.5q0 -43 -16 -129h-367q8 49 8 71q0 92 -98 93q-135 0 -158 -140q-53 -274 -53 -299 q0 -66 59.5 -95.5t133.5 -29.5q96 0 295 54l61 -273q-180 -74 -399 -80l-31 -69q98 0 175 -33t77 -111q0 -117 -116.5 -177t-270.5 -60z" />
<glyph unicode="&#xe8;" horiz-adv-x="1191" d="M545 -25q-94 0 -177 18.5t-156 57.5t-116 113t-43 174q0 55 43 287q43 238 225.5 371.5t428.5 133.5q182 0 303 -95t121 -273q0 -55 -46 -303h-641q-8 -41 -8 -60q0 -66 59.5 -95.5t133.5 -29.5q131 0 313 50l51 -261q-221 -88 -491 -88zM524 670h258q10 68 11 80 q0 100 -111 100q-59 0 -99 -37t-51 -94zM647 1214l-336 377h383l221 -377h-268z" />
<glyph unicode="&#xe9;" horiz-adv-x="1191" d="M545 -25q-94 0 -177 18.5t-156 57.5t-116 113t-43 174q0 55 43 287q43 238 225.5 371.5t428.5 133.5q182 0 303 -95t121 -273q0 -55 -46 -303h-641q-8 -41 -8 -60q0 -66 59.5 -95.5t133.5 -29.5q131 0 313 50l51 -261q-221 -88 -491 -88zM524 670h258q10 68 11 80 q0 100 -111 100q-59 0 -99 -37t-51 -94zM596 1214l260 377h383l-375 -377h-268z" />
<glyph unicode="&#xea;" horiz-adv-x="1191" d="M545 -25q-94 0 -177 18.5t-156 57.5t-116 113t-43 174q0 55 43 287q43 238 225.5 371.5t428.5 133.5q182 0 303 -95t121 -273q0 -55 -46 -303h-641q-8 -41 -8 -60q0 -66 59.5 -95.5t133.5 -29.5q131 0 313 50l51 -261q-221 -88 -491 -88zM524 670h258q10 68 11 80 q0 100 -111 100q-59 0 -99 -37t-51 -94zM356 1217l334 403h268l199 -403h-287l-79 190l-150 -190h-285z" />
<glyph unicode="&#xeb;" horiz-adv-x="1191" d="M545 -25q-94 0 -177 18.5t-156 57.5t-116 113t-43 174q0 55 43 287q43 238 225.5 371.5t428.5 133.5q182 0 303 -95t121 -273q0 -55 -46 -303h-641q-8 -41 -8 -60q0 -66 59.5 -95.5t133.5 -29.5q131 0 313 50l51 -261q-221 -88 -491 -88zM524 670h258q10 68 11 80 q0 100 -111 100q-59 0 -99 -37t-51 -94zM324 1206l61 350h334l-62 -350h-333zM819 1206l62 350h333l-61 -350h-334z" />
<glyph unicode="&#xec;" horiz-adv-x="614" d="M16 0l195 1104h418l-195 -1104h-418zM342 1214l-336 377h383l221 -377h-268z" />
<glyph unicode="&#xed;" horiz-adv-x="614" d="M16 0l195 1104h418l-195 -1104h-418zM299 1214l260 377h383l-375 -377h-268z" />
<glyph unicode="&#xee;" horiz-adv-x="614" d="M16 0l195 1104h418l-195 -1104h-418zM47 1217l334 403h268l199 -403h-287l-80 190l-149 -190h-285z" />
<glyph unicode="&#xef;" horiz-adv-x="614" d="M16 0l195 1104h418l-195 -1104h-418zM23 1206l61 350h334l-62 -350h-333zM518 1206l62 350h333l-61 -350h-334z" />
<glyph unicode="&#xf0;" horiz-adv-x="1228" d="M530 -25q-129 0 -231 30t-176 113t-74 214q0 49 8 96l27 152q33 180 142.5 291.5t271.5 156.5l19 5q11 3 25.5 5t20.5 4l-45 76l-233 -59l-74 184l201 51l-99 166l455 70l72 -123l227 59l74 -184l-199 -53l199 -342q59 -100 59 -217q0 -57 -12 -115l-23 -125 q-23 -121 -88 -213t-157.5 -142t-191 -75t-198.5 -25zM586 276q123 0 145 136l35 200q4 25 4 33q0 49 -27.5 79t-74.5 30q-121 0 -148 -148l-35 -198q-4 -25 -4 -37q1 -95 105 -95z" />
<glyph unicode="&#xf1;" d="M16 0l195 1106h410l-25 -145h4q160 170 375 169q123 0 210 -67.5t87 -185.5q0 -45 -8 -86l-138 -791h-417l114 649q0 2 4 25.5t4 34.5q0 47 -31.5 77.5t-86.5 30.5q-68 0 -111 -56t-57 -134l-111 -627h-418zM496 1188l-211 43q90 344 348 344q68 0 187.5 -38t187.5 -38 q12 0 22 3t18.5 6t15.5 11.5l11 13.5t9.5 18.5t7.5 19.5t8 22.5t8 22.5l195 -47q-37 -150 -119 -245t-217 -95q-74 0 -198 40t-165 40q-67 0 -108 -121z" />
<glyph unicode="&#xf2;" horiz-adv-x="1228" d="M532 -25q-129 0 -230 29t-175 112t-74 214q0 55 8 98l41 225q41 225 216.5 351t410.5 126q129 0 232.5 -32.5t176 -119.5t72.5 -218q0 -55 -8 -98l-41 -232q-41 -223 -217 -339t-412 -116zM586 270q61 0 99 39t50 103l49 274q2 10 2 35q0 49 -27.5 81t-76.5 32 q-63 0 -102 -43t-52 -111l-47 -274q-4 -25 -4 -39q0 -97 109 -97zM635 1214l-336 377h383l221 -377h-268z" />
<glyph unicode="&#xf3;" horiz-adv-x="1228" d="M532 -25q-129 0 -230 29t-175 112t-74 214q0 55 8 98l41 225q41 225 216.5 351t410.5 126q129 0 232.5 -32.5t176 -119.5t72.5 -218q0 -55 -8 -98l-41 -232q-41 -223 -217 -339t-412 -116zM586 270q61 0 99 39t50 103l49 274q2 10 2 35q0 49 -27.5 81t-76.5 32 q-63 0 -102 -43t-52 -111l-47 -274q-4 -25 -4 -39q0 -97 109 -97zM551 1214l260 377h383l-375 -377h-268z" />
<glyph unicode="&#xf4;" horiz-adv-x="1228" d="M532 -25q-129 0 -230 29t-175 112t-74 214q0 55 8 98l41 225q41 225 216.5 351t410.5 126q129 0 232.5 -32.5t176 -119.5t72.5 -218q0 -55 -8 -98l-41 -232q-41 -223 -217 -339t-412 -116zM586 270q61 0 99 39t50 103l49 274q2 10 2 35q0 49 -27.5 81t-76.5 32 q-63 0 -102 -43t-52 -111l-47 -274q-4 -25 -4 -39q0 -97 109 -97zM371 1217l334 403h268l198 -403h-286l-80 190l-150 -190h-284z" />
<glyph unicode="&#xf5;" horiz-adv-x="1228" d="M532 -25q-129 0 -230 29t-175 112t-74 214q0 55 8 98l41 225q41 225 216.5 351t410.5 126q129 0 232.5 -32.5t176 -119.5t72.5 -218q0 -55 -8 -98l-41 -232q-41 -223 -217 -339t-412 -116zM586 270q61 0 99 39t50 103l49 274q2 10 2 35q0 49 -27.5 81t-76.5 32 q-63 0 -102 -43t-52 -111l-47 -274q-4 -25 -4 -39q0 -97 109 -97zM440 1188l-211 43q90 344 349 344q68 0 187.5 -38t186.5 -38q12 0 22.5 3t18.5 6t15.5 11.5t11.5 13.5t9 18.5t7 19.5t8.5 22.5t8.5 22.5l194 -47q-37 -150 -118.5 -245t-217.5 -95q-74 0 -197.5 40 t-164.5 40q-68 0 -109 -121z" />
<glyph unicode="&#xf6;" horiz-adv-x="1228" d="M532 -25q-129 0 -230 29t-175 112t-74 214q0 55 8 98l41 225q41 225 216.5 351t410.5 126q129 0 232.5 -32.5t176 -119.5t72.5 -218q0 -55 -8 -98l-41 -232q-41 -223 -217 -339t-412 -116zM586 270q61 0 99 39t50 103l49 274q2 10 2 35q0 49 -27.5 81t-76.5 32 q-63 0 -102 -43t-52 -111l-47 -274q-4 -25 -4 -39q0 -97 109 -97zM324 1206l61 350h334l-62 -350h-333zM819 1206l62 350h333l-61 -350h-334z" />
<glyph unicode="&#xf7;" horiz-adv-x="1269" d="M438 49l60 328h352l-59 -328h-353zM121 528l43 238h1130l-43 -238h-1130zM575 901l60 328h352l-59 -328h-353z" />
<glyph unicode="&#xf8;" horiz-adv-x="1228" d="M221 -154l-112 68l94 137q-150 88 -150 279q0 55 8 98l41 225q41 225 216.5 351t410.5 126q102 0 199 -24l108 158l113 -68l-98 -143q160 -96 159 -293q0 -55 -8 -98l-41 -232q-41 -223 -217 -339t-412 -116q-109 0 -206 25zM586 270q61 0 99 39t50 103l43 245l-258 -374 q29 -13 66 -13zM528 680l-36 -207l241 348q-20 12 -51 13q-63 0 -102.5 -43t-51.5 -111z" />
<glyph unicode="&#xf9;" d="M356 -25q-123 0 -210 68t-87 186q0 45 9 86l137 789h418l-115 -647q0 -2 -4 -25.5t-4 -34.5q0 -47 31.5 -77.5t86.5 -30.5q66 0 111 59.5t57 130.5l111 625h418l-195 -1104h-409l24 145h-4q-160 -170 -375 -170zM668 1214l-336 377h383l221 -377h-268z" />
<glyph unicode="&#xfa;" d="M356 -25q-123 0 -210 68t-87 186q0 45 9 86l137 789h418l-115 -647q0 -2 -4 -25.5t-4 -34.5q0 -47 31.5 -77.5t86.5 -30.5q66 0 111 59.5t57 130.5l111 625h418l-195 -1104h-409l24 145h-4q-160 -170 -375 -170zM645 1214l260 377h383l-375 -377h-268z" />
<glyph unicode="&#xfb;" d="M356 -25q-123 0 -210 68t-87 186q0 45 9 86l137 789h418l-115 -647q0 -2 -4 -25.5t-4 -34.5q0 -47 31.5 -77.5t86.5 -30.5q66 0 111 59.5t57 130.5l111 625h418l-195 -1104h-409l24 145h-4q-160 -170 -375 -170zM401 1217l334 403h269l198 -403h-287l-79 190l-150 -190 h-285z" />
<glyph unicode="&#xfc;" d="M356 -25q-123 0 -210 68t-87 186q0 45 9 86l137 789h418l-115 -647q0 -2 -4 -25.5t-4 -34.5q0 -47 31.5 -77.5t86.5 -30.5q66 0 111 59.5t57 130.5l111 625h418l-195 -1104h-409l24 145h-4q-160 -170 -375 -170zM360 1206l62 350h334l-62 -350h-334zM856 1206l62 350h333 l-61 -350h-334z" />
<glyph unicode="&#xfd;" d="M219 -389q-88 0 -196 22l55 310q59 -16 141 -17q98 0 123 51l14 31l-206 1096h436l69 -637h9l299 637h399l-606 -1155q-177 -338 -537 -338zM639 1214l260 377h383l-375 -377h-268z" />
<glyph unicode="&#xfe;" horiz-adv-x="1273" d="M-49 -377l321 1837h420l-84 -493h6q150 164 332 163q147 0 234.5 -73.5t87.5 -216.5q0 -33 -8 -95l-31 -178t-41 -221q-39 -178 -176.5 -274.5t-313.5 -96.5q-68 0 -136 31t-105 84h-6l-82 -467h-418zM621 256q63 0 106 41t53 104l49 275q2 12 2 37q0 51 -27.5 82.5 t-76.5 31.5q-145 0 -176 -172l-45 -254q-2 -12 -2 -34q0 -51 32 -81t85 -30z" />
<glyph unicode="&#xff;" d="M219 -389q-88 0 -196 22l55 310q59 -16 141 -17q98 0 123 51l14 31l-206 1096h436l69 -637h9l299 637h399l-606 -1155q-177 -338 -537 -338zM367 1206l61 350h334l-62 -350h-333zM862 1206l62 350h333l-61 -350h-334z" />
<glyph unicode="&#x152;" horiz-adv-x="2140" d="M588 -25q-512 0 -512 416q0 61 14 148l66 376q49 272 231 421t461 149q143 0 239 -74l9 49h1128l-61 -348h-678l-37 -211h537l-62 -344h-537l-34 -207h678l-64 -350h-1128l8 43q-121 -68 -258 -68zM705 328q92 0 151 55t76 147l72 402q4 29 4 45q0 74 -46.5 115 t-119.5 41q-193 0 -228 -201l-69 -393q-6 -27 -6 -58q0 -153 166 -153z" />
<glyph unicode="&#x153;" horiz-adv-x="1878" d="M532 -25q-129 0 -230 29t-175 112t-74 214q0 55 49 323q41 225 216.5 351t410.5 126q215 0 344 -92q156 92 363 92q182 0 303 -95t121 -273q0 -55 -45 -303h-641q-8 -41 -9 -60q0 -66 59.5 -95.5t133.5 -29.5q131 0 313 50l51 -261q-219 -88 -491 -88q-215 0 -344 82 q-156 -82 -355 -82zM586 270q61 0 99 39t50 103l49 274q2 10 2 35q0 49 -27.5 81t-76.5 32q-63 0 -102 -43t-52 -111l-47 -274q-4 -25 -4 -39q0 -97 109 -97zM1210 670h258q10 68 11 80q0 100 -111 100q-125 0 -158 -180z" />
<glyph unicode="&#x178;" horiz-adv-x="1370" d="M383 0l100 569l-311 891h449l167 -545l334 545h441l-627 -893l-100 -567h-453zM520 1575l62 350h333l-61 -350h-334zM1016 1575l61 350h334l-61 -350h-334z" />
<glyph unicode="&#x2c6;" horiz-adv-x="874" d="M170 1217l334 403h268l199 -403h-287l-80 190l-149 -190h-285z" />
<glyph unicode="&#x2dc;" horiz-adv-x="1067" d="M412 1188l-211 43q90 344 348 344q68 0 187.5 -38t187.5 -38q12 0 22 3t18.5 6t15.5 11.5l11 13.5t9.5 18.5t7.5 19.5t8 22.5t8 22.5l195 -47q-37 -150 -119 -245t-217 -95q-74 0 -198 40t-165 40q-67 0 -108 -121z" />
<glyph unicode="&#x2000;" horiz-adv-x="1011" />
<glyph unicode="&#x2001;" horiz-adv-x="2023" />
<glyph unicode="&#x2002;" horiz-adv-x="1011" />
<glyph unicode="&#x2003;" horiz-adv-x="2023" />
<glyph unicode="&#x2004;" horiz-adv-x="673" />
<glyph unicode="&#x2005;" horiz-adv-x="505" />
<glyph unicode="&#x2006;" horiz-adv-x="335" />
<glyph unicode="&#x2007;" horiz-adv-x="335" />
<glyph unicode="&#x2008;" horiz-adv-x="251" />
<glyph unicode="&#x2009;" horiz-adv-x="403" />
<glyph unicode="&#x200a;" horiz-adv-x="110" />
<glyph unicode="&#x2010;" horiz-adv-x="741" d="M63 449l68 337h623l-68 -337h-623z" />
<glyph unicode="&#x2011;" horiz-adv-x="741" d="M63 449l68 337h623l-68 -337h-623z" />
<glyph unicode="&#x2012;" horiz-adv-x="741" d="M63 449l68 337h623l-68 -337h-623z" />
<glyph unicode="&#x2013;" horiz-adv-x="1105" d="M12 541l41 245h1106l-43 -245h-1104z" />
<glyph unicode="&#x2014;" horiz-adv-x="1998" d="M18 541l41 245h1999l-43 -245h-1997z" />
<glyph unicode="&#x2018;" horiz-adv-x="659" d="M195 776l65 371l211 313h184l-125 -293h148l-70 -391h-413z" />
<glyph unicode="&#x2019;" horiz-adv-x="659" d="M317 776l127 293h-147l70 391h413l-65 -370l-211 -314h-187z" />
<glyph unicode="&#x201a;" horiz-adv-x="659" d="M86 -289l127 293h-147l69 391h414l-66 -370l-211 -314h-186z" />
<glyph unicode="&#x201c;" horiz-adv-x="1185" d="M184 776l66 371l211 313h184l-125 -293h148l-70 -391h-414zM711 776l65 371l211 313h184l-124 -293h147l-70 -391h-413z" />
<glyph unicode="&#x201d;" horiz-adv-x="1185" d="M252 776l127 293h-148l70 391h414l-66 -370l-211 -314h-186zM778 776l127 293h-147l69 391h414l-65 -370l-211 -314h-187z" />
<glyph unicode="&#x201e;" horiz-adv-x="1185" d="M84 -289l127 293h-148l70 391h414l-66 -370l-211 -314h-186zM610 -289l127 293h-147l69 391h414l-65 -370l-211 -314h-187z" />
<glyph unicode="&#x2022;" horiz-adv-x="991" d="M496 358q-158 0 -251 113t-67 268q29 160 161 271.5t289.5 111.5t249 -111.5t62.5 -271.5q-27 -156 -157.5 -268.5t-286.5 -112.5z" />
<glyph unicode="&#x2026;" horiz-adv-x="1708" d="M35 0l69 397h414l-69 -397h-414zM575 0l70 397h414l-70 -397h-414zM1116 0l70 397h413l-69 -397h-414z" />
<glyph unicode="&#x202f;" horiz-adv-x="403" />
<glyph unicode="&#x2039;" horiz-adv-x="727" d="M436 86l-395 442l553 447l149 -160l-297 -287l199 -288z" />
<glyph unicode="&#x203a;" horiz-adv-x="727" d="M158 86l-150 160l297 286l-199 289l209 154l396 -443z" />
<glyph unicode="&#x205f;" horiz-adv-x="505" />
<glyph unicode="&#x20ac;" horiz-adv-x="1550" d="M784 -25q-111 0 -203 22.5t-167.5 71t-118.5 133.5t-43 199q0 53 4 78h-172l35 195h170l22 129h-170l35 194h170q59 236 252 362t446 126q135 0 253 -35t206 -128t88 -232q0 -47 -22 -175h-422q10 68 10 78q0 68 -47 105t-117 37q-145 0 -190 -138h264l-35 -194h-266 l-23 -129h267l-35 -195h-264q0 -4 -1 -10t-1 -10q0 -133 143 -133q94 0 159.5 62.5t67.5 156.5h422q-2 -18 -7 -49t-7 -45q-31 -158 -142.5 -268.5t-255 -159t-305.5 -48.5z" />
<glyph unicode="&#x2122;" horiz-adv-x="1439" d="M754 805l116 655h248l33 -243l115 243h250l-117 -655h-185l64 352l-119 -252h-131l-27 250l-63 -350h-184zM313 805l86 483h-168l31 172h541l-31 -172h-168l-86 -483h-205z" />
<glyph unicode="&#xe000;" horiz-adv-x="1105" d="M0 1105h1105v-1105h-1105v1105z" />
<glyph unicode="&#xe38c;" horiz-adv-x="1454" d="M20 -410l216 1198h-152l51 289h152l18 97q20 115 93 191.5t158 104t179 27.5q164 0 232 -27l-43 -243q-92 6 -111 6q-37 0 -63.5 -20.5t-32.5 -55.5l-15 -80h183l-51 -289h-183l-209 -1165zM856 0l195 1104h417l-194 -1104h-418zM1069 1204l55 334h418l-55 -334h-418z " />
<glyph unicode="&#xfb01;" horiz-adv-x="1454" d="M20 -410l216 1198h-152l51 289h152l18 97q20 115 93 191.5t158 104t179 27.5q164 0 232 -27l-43 -243q-92 6 -111 6q-37 0 -63.5 -20.5t-32.5 -55.5l-15 -80h183l-51 -289h-183l-209 -1165zM856 0l195 1104h417l-194 -1104h-418zM1069 1204l55 334h418l-55 -334h-418z " />
<glyph unicode="&#xe38d;" horiz-adv-x="1558" d="M20 -410l216 1198h-152l51 289h152l18 97q20 115 93 191.5t158 104t179 27.5q164 0 232 -27l-43 -243q-92 6 -111 6q-37 0 -63.5 -20.5t-32.5 -55.5l-15 -80h183l-51 -289h-183l-209 -1165zM1196 -25q-129 0 -217 55.5t-88 178.5q0 29 6 59l209 1192h420l-187 -1059 q-2 -10 -2 -28q0 -51 72 -51q29 0 78 8l-55 -316q-121 -39 -236 -39z" />
<glyph unicode="&#xfb02;" horiz-adv-x="1558" d="M20 -410l216 1198h-152l51 289h152l18 97q20 115 93 191.5t158 104t179 27.5q164 0 232 -27l-43 -243q-92 6 -111 6q-37 0 -63.5 -20.5t-32.5 -55.5l-15 -80h183l-51 -289h-183l-209 -1165zM1196 -25q-129 0 -217 55.5t-88 178.5q0 29 6 59l209 1192h420l-187 -1059 q-2 -10 -2 -28q0 -51 72 -51q29 0 78 8l-55 -316q-121 -39 -236 -39z" />
<glyph unicode="&#xfb03;" horiz-adv-x="2293" d="M1695 0l195 1104h418l-195 -1104h-418zM1908 1204l56 334h417l-55 -334h-418zM860 -410l216 1198h-152l51 289h152l18 97q20 115 93 191.5t158 104t179 27.5q164 0 232 -27l-43 -243q-92 6 -111 6q-37 0 -63.5 -20.5t-32.5 -55.5l-15 -80h183l-51 -289h-183l-209 -1165z M20 -410l216 1198h-152l51 289h152l18 97q20 115 93 191.5t158 104t179 27.5q164 0 232 -27l-43 -243q-92 6 -111 6q-37 0 -63.5 -20.5t-32.5 -55.5l-15 -80h183l-51 -289h-183l-209 -1165z" />
<glyph unicode="&#xfb04;" horiz-adv-x="2398" d="M2035 -25q-129 0 -217 55.5t-88 178.5q0 29 6 59l209 1192h420l-186 -1059q-2 -10 -2 -28q0 -51 71 -51q29 0 78 8l-55 -316q-121 -39 -236 -39zM860 -410l216 1198h-152l51 289h152l18 97q20 115 93 191.5t158 104t179 27.5q164 0 232 -27l-43 -243q-92 6 -111 6 q-37 0 -63.5 -20.5t-32.5 -55.5l-15 -80h183l-51 -289h-183l-209 -1165zM20 -410l216 1198h-152l51 289h152l18 97q20 115 93 191.5t158 104t179 27.5q164 0 232 -27l-43 -243q-92 6 -111 6q-37 0 -63.5 -20.5t-32.5 -55.5l-15 -80h183l-51 -289h-183l-209 -1165z" />
</font>
</defs>
</svg>
