<?xml version="1.0" standalone="no"?>
<!DOCTYPE svg PUBLIC "-//W3C//DTD SVG 1.1//EN" "http://www.w3.org/Graphics/SVG/1.1/DTD/svg11.dtd" >
<svg xmlns="http://www.w3.org/2000/svg">
<metadata>
This is a custom SVG webfont generated by Font Squirrel.
Copyright   : Copyright c 2008 by Mrio Feliciano All rights reserved
Designer    : Mrio Feliciano
Foundry     : Mrio Feliciano  Feliciano Type Foundry
Foundry URL : wwwfelicianotypefoundrycom
</metadata>
<defs>
<font id="webfontb4LLib49" horiz-adv-x="1335" >
<font-face units-per-em="2048" ascent="1638" descent="-410" />
<missing-glyph horiz-adv-x="368" />
<glyph unicode=" "  horiz-adv-x="368" />
<glyph unicode="&#x09;" horiz-adv-x="368" />
<glyph unicode="&#xa0;" horiz-adv-x="368" />
<glyph unicode="!" horiz-adv-x="557" d="M182 455l-57 485v520h307v-520l-57 -485h-193zM131 0v334h293v-334h-293z" />
<glyph unicode="&#x22;" horiz-adv-x="905" d="M160 870l-39 322v268h270v-268l-39 -322h-192zM553 870l-39 322v268h272v-268l-38 -322h-195z" />
<glyph unicode="#" horiz-adv-x="1130" d="M201 -2l47 364h-203l25 183h196l58 405h-209l24 178h203l45 336h162l-41 -336h227l43 336h162l-43 -336h199l-21 -178h-198l-54 -405h205l-20 -183h-207l-45 -364h-164l43 364h-225l-48 -364h-161zM432 545h225l58 405h-230z" />
<glyph unicode="$" horiz-adv-x="1081" d="M424 -90v145q-236 29 -387 185l178 196q164 -147 332 -147q78 0 121 30.5t43 88.5q0 55 -41 87.5t-117 61.5q-190 80 -193 80q-121 53 -191.5 144t-70.5 216q0 141 88 242.5t238 136.5v148h248v-138q190 -25 323 -139l-161 -203q-158 111 -273 111q-70 0 -109.5 -29.5 t-39.5 -83.5q0 -49 40 -81.5t117 -63.5l170 -72q279 -113 279 -368q0 -158 -97.5 -261.5t-248.5 -134.5v-151h-248z" />
<glyph unicode="%" horiz-adv-x="1591" d="M381 672q-121 0 -209 68.5t-88 193.5v291q0 125 86 192.5t207 67.5t208 -68.5t87 -197.5v-287q0 -119 -89 -189.5t-202 -70.5zM379 838q43 0 65.5 23.5t22.5 58.5v325q0 31 -24.5 54.5t-63.5 23.5q-43 0 -65.5 -22.5t-22.5 -55.5v-327q0 -35 22.5 -57.5t65.5 -22.5z M352 -4l735 1477h164l-733 -1477h-166zM1208 -23q-119 0 -207 69t-88 192v280q0 125 87 199t206 74q121 0 208 -70t87 -197v-280q0 -119 -90 -193t-203 -74zM1208 143q43 0 64.5 25t21.5 57v326q0 31 -23.5 54.5t-62.5 23.5q-41 0 -64.5 -22.5t-23.5 -55.5v-328 q0 -35 22.5 -57.5t65.5 -22.5z" />
<glyph unicode="&#x26;" horiz-adv-x="1441" d="M522 -33q-195 0 -313.5 109.5t-118.5 304.5q0 143 86 257t223 171q-127 152 -127 305q0 156 104.5 263.5t319.5 107.5q182 0 296 -91t114 -243q0 -133 -79 -234.5t-210 -158.5l203 -264q27 61 57 219l256 -35q-16 -111 -64 -220.5t-93 -166.5l227 -291h-381l-96 129 q-166 -162 -404 -162zM602 229q106 0 182 76l-256 332q-129 -68 -129 -207q0 -86 54.5 -143.5t148.5 -57.5zM686 930q68 29 105.5 83t37.5 126q0 57 -34.5 93t-92.5 36q-63 0 -95 -40t-32 -91q0 -66 111 -207z" />
<glyph unicode="'" horiz-adv-x="512" d="M160 870l-39 322v268h270v-268l-39 -322h-192z" />
<glyph unicode="(" horiz-adv-x="591" d="M385 -365q-127 172 -204 427t-77 503t75 489.5t206 422.5l180 -4q-100 -266 -141 -454t-41 -454q0 -465 184 -923z" />
<glyph unicode=")" horiz-adv-x="591" d="M207 -365l-182 7q184 459 184 923q0 266 -41 454.5t-143 453.5l182 4q129 -180 203.5 -422t74.5 -490t-76.5 -503t-201.5 -427z" />
<glyph unicode="*" horiz-adv-x="878" d="M270 723l-143 92l160 232l-246 139l88 139l223 -123v258h174v-260l219 125l91 -139l-248 -139l164 -232l-146 -92l-168 235z" />
<glyph unicode="+" horiz-adv-x="1105" d="M457 199v354h-336v192h336v355h192v-355h336v-192h-336v-354h-192z" />
<glyph unicode="," horiz-adv-x="520" d="M145 -276l76 294h-112v316h301v-299l-115 -311h-150z" />
<glyph unicode="-" horiz-adv-x="661" d="M82 508v229h500v-229h-500z" />
<glyph unicode="." horiz-adv-x="520" d="M109 0v334h301v-334h-301z" />
<glyph unicode="/" horiz-adv-x="663" d="M-20 -367l436 1837h202l-434 -1837h-204z" />
<glyph unicode="0" horiz-adv-x="1169" d="M588 -25q-207 0 -350.5 102.5t-143.5 309.5v682q0 205 143.5 310.5t346.5 105.5q131 0 238.5 -41t179 -138.5t71.5 -240.5v-676q0 -203 -143 -308.5t-342 -105.5zM588 242q80 0 118.5 43t38.5 106v688q0 59 -43 99.5t-116.5 40.5t-118.5 -41t-45 -101v-686 q0 -68 43 -108.5t123 -40.5z" />
<glyph unicode="1" horiz-adv-x="765" d="M252 0v1163l-150 -33l-24 246l323 88h170v-1464h-319z" />
<glyph unicode="2" horiz-adv-x="1079" d="M94 0v186l320 406q236 317 235 452v27q0 66 -33.5 106t-103.5 40q-137 0 -137 -144v-37h-309v56q0 190 131 292.5t346 102.5q221 0 330.5 -113.5t109.5 -298.5q0 -258 -336 -645l-115 -143v-6h461v-281h-899z" />
<glyph unicode="3" horiz-adv-x="1126" d="M569 -25q-227 0 -353 101.5t-126 279.5v64h309v-39q0 -70 44 -112t120 -42q82 0 119 46t37 147q0 104 -65.5 145t-135.5 41h-125v258h111q90 0 139 40t49 145q0 82 -40 125t-105 43q-72 0 -109 -38t-37 -106v-39h-303v58q0 180 128 286.5t345 106.5q211 0 328 -104.5 t117 -293.5q0 -121 -60.5 -212t-164.5 -123v-9q119 -31 188.5 -123t69.5 -206q0 -211 -139.5 -325t-340.5 -114z" />
<glyph unicode="4" horiz-adv-x="1196" d="M678 0v305h-586v246l467 909h367l-514 -893h266v189l303 182v-371h129v-262h-129v-305h-303z" />
<glyph unicode="5" horiz-adv-x="1130" d="M561 -25q-209 0 -338 95.5t-129 255.5v94h314v-51q0 -61 43 -101.5t116 -40.5q158 0 158 170v158q0 147 -156 147q-80 0 -147 -71l-299 37l43 792h805v-282h-543l-16 -332q100 100 282 100q147 0 246.5 -83t99.5 -257v-225q0 -195 -137 -300.5t-342 -105.5z" />
<glyph unicode="6" horiz-adv-x="1163" d="M575.5 -25q-206.5 0 -342 111t-135.5 311v656q0 209 140.5 320.5t353.5 111.5q207 0 336 -99.5t129 -267.5v-74h-328v56q0 63 -39 98t-108 35q-72 0 -112 -42t-40 -108v-299q102 141 301 142q152 0 243 -95.5t91 -234.5v-234q0 -178 -141.5 -282.5t-348 -104.5zM586 236 q74 0 116.5 41.5t42.5 99.5v188q0 74 -44 105.5t-103 31.5q-66 0 -117 -47t-51 -127v-143q0 -63 42 -106t114 -43z" />
<glyph unicode="7" horiz-adv-x="1075" d="M252 0q4 346 130 681t271 497h-598v282h938v-237q-193 -248 -291 -563.5t-96 -659.5h-354z" />
<glyph unicode="8" horiz-adv-x="1167" d="M584 -25q-221 0 -355.5 92.5t-134.5 278.5v121q0 90 50.5 161.5t125.5 110.5q-70 29 -113.5 99.5t-43.5 142.5v129q0 176 134 275.5t335 99.5q203 0 337 -95.5t134 -273.5v-123q0 -84 -43 -151.5t-115 -102.5q74 -33 126 -103.5t52 -156.5v-141q0 -170 -139 -266.5 t-350 -96.5zM584 227q74 0 117.5 36t43.5 99v130q0 70 -48 105.5t-115 35.5q-63 0 -110.5 -35t-47.5 -94v-146q0 -59 45 -95t115 -36zM584 846q68 0 113.5 37t45.5 96v121q0 66 -48 99.5t-115 33.5q-61 0 -106.5 -34t-45.5 -91v-131q0 -63 45 -97t111 -34z" />
<glyph unicode="9" horiz-adv-x="1157" d="M571 -23q-209 0 -337 95.5t-128 261.5v86h322v-58q0 -61 41 -96t106 -35q72 0 112 40t40 106v301q-102 -141 -289 -141q-158 0 -249 94t-91 248v208q0 186 135.5 292t341.5 106q213 0 348.5 -108.5t135.5 -295.5v-675q0 -197 -137.5 -313t-350.5 -116zM563 762 q66 0 115 47t49 131v143q0 61 -41 103.5t-113 42.5q-74 0 -115.5 -40t-41.5 -97v-193q0 -72 44 -104.5t103 -32.5z" />
<glyph unicode=":" horiz-adv-x="520" d="M109 0v334h301v-334h-301zM109 745v334h301v-334h-301z" />
<glyph unicode=";" horiz-adv-x="520" d="M145 -276l76 294h-112v316h301v-299l-115 -311h-150zM109 745v334h301v-334h-301z" />
<glyph unicode="&#x3c;" horiz-adv-x="1105" d="M887 211l-762 364v154l764 363l88 -185l-543 -256l545 -258z" />
<glyph unicode="=" horiz-adv-x="1105" d="M117 348v207h870v-207h-870zM117 727v207h870v-207h-870z" />
<glyph unicode="&#x3e;" horiz-adv-x="1105" d="M217 213l-90 182l545 258l-545 254l92 185l760 -363v-154z" />
<glyph unicode="?" horiz-adv-x="1030" d="M336 455v53q2 160 127 295q10 12 46 48t51 54.5t38 50t32 62.5t9 65q0 68 -37 105t-106 37q-61 0 -99.5 -37t-38.5 -105v-43h-268v45q0 184 122 290t306 106q207 0 320.5 -103.5t113.5 -287.5q0 -199 -178 -357q-2 -2 -47 -42t-58.5 -55t-33 -51t-19.5 -73v-57h-280z M322 0v334h317v-334h-317z" />
<glyph unicode="@" horiz-adv-x="1814" d="M973 -276q-295 0 -502 110q-383 197 -381 692q2 397 257 649t640 252q317 0 528 -179t211 -492q0 -250 -148 -426t-349 -213h-260l22 133h-6q-117 -156 -276 -156q-115 0 -180.5 59.5t-65.5 172.5q0 39 6 71q27 170 61 365q25 139 124.5 219t228.5 80q70 0 130 -30 t87 -87h2l14 100h268l-127 -770q131 41 216.5 172.5t85.5 309.5q0 139 -51.5 244.5t-137.5 165t-187.5 89t-213.5 29.5q-324 0 -512.5 -215t-188.5 -543q0 -416 322 -569q158 -76 379 -76q92 0 183 11.5t139 22.5l155 38l37 -137q-102 -43 -246.5 -67.5t-263.5 -24.5z M842 299q68 0 119 53.5t63 132.5l37 217q4 20 4 37q0 61 -33 96t-86 35q-63 0 -103 -45t-52 -116l-41 -260q-4 -20 -5 -43q1 -107 97 -107z" />
<glyph unicode="A" d="M35 0l426 1462h422l420 -1462h-347l-84 313h-442l-82 -313h-313zM502 571h301l-148 562h-6z" />
<glyph unicode="B" horiz-adv-x="1275" d="M123 0v1460h649q188 0 295 -99t107 -265q0 -125 -68 -221.5t-178 -126.5v-5q119 -27 189.5 -123t70.5 -219q0 -182 -110.5 -291.5t-297.5 -109.5h-657zM461 262h213q78 0 124 49t46 133q0 82 -51.5 124t-133.5 42h-198v-348zM461 864h196q80 0 129.5 47t49.5 133 q0 76 -45.5 117t-120.5 41h-209v-338z" />
<glyph unicode="C" horiz-adv-x="1251" d="M647 -25q-238 0 -393.5 120t-155.5 360v546q0 225 158 354.5t389 129.5q227 0 372.5 -114t145.5 -322v-103h-309v78q0 86 -57.5 136t-147.5 50q-100 0 -154.5 -54t-54.5 -150v-541q0 -106 55.5 -160.5t155.5 -54.5q88 0 145.5 49t57.5 133v82h309v-102 q0 -209 -144.5 -323t-371.5 -114z" />
<glyph unicode="D" horiz-adv-x="1290" d="M123 0v1460h555q227 0 370.5 -110.5t143.5 -327.5v-557q0 -231 -142.5 -348t-369.5 -117h-557zM463 272h182q102 0 153.5 60.5t51.5 142.5v512q0 90 -54.5 145.5t-154.5 55.5h-178v-916z" />
<glyph unicode="E" horiz-adv-x="1161" d="M123 0v1460h944v-274h-604v-307h479v-275h-479v-328h606v-276h-946z" />
<glyph unicode="F" horiz-adv-x="1132" d="M123 0v1460h944v-270h-604v-328h479v-270h-479v-592h-340z" />
<glyph unicode="G" horiz-adv-x="1267" d="M647 -25q-238 0 -393.5 120t-155.5 360v555q0 223 158 349t389 126q219 0 369.5 -104.5t150.5 -307.5v-100h-311v57q0 84 -55.5 134t-143.5 50q-100 0 -158.5 -57t-58.5 -153v-543q0 -100 56.5 -158.5t156.5 -58.5q199 0 199 182v133h-227v242h544v-402 q0 -205 -150.5 -314.5t-369.5 -109.5z" />
<glyph unicode="H" horiz-adv-x="1333" d="M123 0v1460h340v-569h407v569h340v-1460h-340v594h-407v-594h-340z" />
<glyph unicode="I" horiz-adv-x="585" d="M123 0v1460h340v-1460h-340z" />
<glyph unicode="J" horiz-adv-x="1187" d="M569 -25q-516 0 -516 449v111h330v-101q0 -188 178 -188q92 0 133 53t41 133v1028h338v-1001q0 -225 -133 -354.5t-371 -129.5z" />
<glyph unicode="K" horiz-adv-x="1284" d="M123 0v1460h340v-672l438 672h338l-381 -573l379 -887h-369l-262 631l-143 -199v-432h-340z" />
<glyph unicode="L" horiz-adv-x="1140" d="M123 0v1460h340v-1184h606v-276h-946z" />
<glyph unicode="M" horiz-adv-x="1558" d="M123 0v1460h436l232 -629h6l231 629h408v-1460h-297v1018h-4l-242 -682h-223l-244 680h-6v-1016h-297z" />
<glyph unicode="N" horiz-adv-x="1347" d="M123 0v1460h334l461 -794h4v794h303v-1460h-283l-512 874h-4v-874h-303z" />
<glyph unicode="O" horiz-adv-x="1302" d="M651 -25q-244 0 -398.5 120t-154.5 374v514q0 242 157 372t394 130q242 0 399.5 -122t157.5 -374v-512q0 -250 -158.5 -376t-396.5 -126zM653 254q98 0 154.5 58.5t56.5 156.5v530q0 98 -60.5 153.5t-154.5 55.5q-102 0 -155.5 -56t-53.5 -161v-520q0 -102 55.5 -159.5 t157.5 -57.5z" />
<glyph unicode="P" horiz-adv-x="1241" d="M123 0v1460h577q223 0 339 -128t116 -331q0 -217 -117.5 -354t-349.5 -137h-225v-510h-340zM463 766h164q94 0 146 59.5t52 161.5q0 94 -48 151.5t-136 57.5h-178v-430z" />
<glyph unicode="Q" horiz-adv-x="1302" d="M1069 -231l-332 213q-41 -6 -86 -7q-244 0 -398.5 120t-154.5 374v514q0 242 157 372t394 130q242 0 399.5 -122t157.5 -374v-512q0 -225 -137 -344l199 -98zM653 254q98 0 154.5 58.5t56.5 156.5v530q0 98 -60.5 153.5t-154.5 55.5q-102 0 -155.5 -56t-53.5 -161v-520 q0 -102 55.5 -159.5t157.5 -57.5z" />
<glyph unicode="R" horiz-adv-x="1286" d="M123 0v1460h575q236 0 360 -120.5t124 -325.5q0 -152 -63.5 -260.5t-190.5 -155.5l295 -598h-369l-236 539h-155v-539h-340zM463 784h188q197 0 197 207q0 94 -48 149.5t-143 55.5h-194v-412z" />
<glyph unicode="S" horiz-adv-x="1210" d="M575 -25q-332 0 -520 181l174 235q180 -143 351 -143q86 0 140 34.5t54 98t-39 100.5t-131 76l-190 82q-297 127 -297 397q0 188 138 318.5t366 130.5q270 0 454 -160l-176 -231q-162 133 -293 133q-162 0 -162 -137q0 -41 31 -74t63.5 -50.5t102.5 -47.5l145 -64 q332 -143 332 -416q0 -219 -160 -341t-383 -122z" />
<glyph unicode="T" horiz-adv-x="1187" d="M424 0v1190h-379v270h1098v-270h-377v-1190h-342z" />
<glyph unicode="U" horiz-adv-x="1314" d="M655 -25q-252 0 -397 120t-145 366v999h340v-985q0 -115 60 -171t154.5 -56t150.5 60.5t54 164.5v987h328v-981q0 -240 -148.5 -372t-396.5 -132z" />
<glyph unicode="V" horiz-adv-x="1230" d="M434 -4l-397 1464h346l250 -1020h6l244 1020h311l-399 -1464h-361z" />
<glyph unicode="W" horiz-adv-x="1759" d="M352 -4l-313 1464h332l172 -893h6l188 893h322l178 -891h2l170 891h311l-315 -1464h-322l-200 944h-9l-204 -944h-318z" />
<glyph unicode="X" horiz-adv-x="1230" d="M29 0l381 750l-355 710h367l211 -454l207 454h334l-357 -708l383 -752h-360l-242 494l-236 -494h-333z" />
<glyph unicode="Y" horiz-adv-x="1222" d="M440 0v582l-411 878h358l246 -577l244 577h317l-414 -880v-580h-340z" />
<glyph unicode="Z" horiz-adv-x="1150" d="M90 0v203l580 989h-574v268h971v-233l-561 -955h555v-272h-971z" />
<glyph unicode="[" horiz-adv-x="616" d="M154 -360v1820h403v-180h-139v-1464h139v-176h-403z" />
<glyph unicode="\" horiz-adv-x="663" d="M477 -367l-432 1837h201l436 -1837h-205z" />
<glyph unicode="]" horiz-adv-x="616" d="M57 -360v176h140v1464h-140v180h406v-1820h-406z" />
<glyph unicode="^" horiz-adv-x="1030" d="M188 309l230 901h215l207 -901h-193l-127 635q-137 -633 -137 -635h-195z" />
<glyph unicode="_" horiz-adv-x="944" d="M0 -272v198h944v-198h-944z" />
<glyph unicode="`" horiz-adv-x="608" d="M295 1202l-250 324h307l174 -324h-231z" />
<glyph unicode="a" horiz-adv-x="1093" d="M385 -23q-133 0 -220 81t-87 233q0 127 79 212t182 116.5t218 31.5h113v119q0 57 -37 90t-107 33q-68 0 -103.5 -36t-35.5 -89v-43h-281v57q0 152 128 240t321 88q184 0 307 -89t123 -263v-506q0 -61 6 -154.5t6 -97.5h-290q0 4 -2.5 21.5t-5.5 55.5t-5 83h-10 q-31 -72 -90 -115t-109.5 -55.5t-99.5 -12.5zM520 203q59 0 104.5 44t45.5 120v112h-97q-180 0 -180 -141q0 -63 35 -99t92 -36z" />
<glyph unicode="b" horiz-adv-x="1128" d="M696 -25q-86 0 -169 48.5t-113 130.5h-4l-11 -154h-284v1460h315v-526h4q45 80 128 129t161 49q158 0 235.5 -97t77.5 -253v-426q0 -154 -95 -257.5t-245 -103.5zM594 203q59 0 94 36.5t35 108.5v381q0 139 -135 139q-61 0 -109.5 -53t-48.5 -151v-279q0 -84 50.5 -133 t113.5 -49z" />
<glyph unicode="c" horiz-adv-x="1042" d="M543 -25q-193 0 -322 100.5t-129 299.5v317q0 201 132 309.5t319 108.5q188 0 306 -92t118 -252v-80h-281v59q0 57 -34 93t-99 36q-143 0 -143 -153v-354q0 -158 147 -158q66 0 97.5 39t31.5 96v55h281v-86q0 -160 -118 -249t-306 -89z" />
<glyph unicode="d" horiz-adv-x="1128" d="M408 -25q-158 0 -237 100.5t-79 258.5v424q0 150 95.5 251t244.5 101q172 0 264 -139h2v489h316v-1460h-297l-4 164h-8q-49 -86 -128 -137.5t-169 -51.5zM539 217q63 0 112 56.5t49 142.5v289q0 82 -52 130t-111 48q-131 0 -131 -150v-375q0 -70 36 -105.5t97 -35.5z" />
<glyph unicode="e" horiz-adv-x="1077" d="M559 -25q-203 0 -335 105.5t-132 312.5v275q0 213 132 327.5t327 114.5q197 0 318.5 -107.5t121.5 -297.5v-246h-583v-80q0 -160 202 -160q123 0 291 62l66 -207q-170 -99 -408 -99zM408 645h284v90q0 68 -37 110t-106 42q-68 0 -104.5 -43t-36.5 -107v-92z" />
<glyph unicode="f" horiz-adv-x="753" d="M199 0v819h-133v254h133v121q0 150 92 225.5t231 75.5q123 0 193 -22v-230q-41 10 -111 10q-92 0 -92 -75v-105h170v-254h-170v-819h-313z" />
<glyph unicode="g" horiz-adv-x="1128" d="M518 -385q-227 0 -401 76l82 235q168 -66 301 -65q201 0 200 168v198h-2q-37 -88 -114.5 -139t-165.5 -51q-158 0 -242 94t-84 246v393q0 150 99.5 246t248.5 96q82 0 163 -45t118 -117h2l10 137h283v-1007q0 -225 -130 -345t-368 -120zM539 270q63 0 111 53.5t48 143.5 v244q0 80 -50 127t-107 47q-135 0 -135 -160v-307q0 -148 133 -148z" />
<glyph unicode="h" horiz-adv-x="1140" d="M115 0v1460h315v-528h4q106 178 309 178q119 0 205 -83t86 -218v-809h-313v715q0 152 -133 151q-61 0 -109.5 -54t-48.5 -140v-672h-315z" />
<glyph unicode="i" horiz-adv-x="542" d="M115 0v1085h315v-1085h-315zM115 1208v295h315v-295h-315z" />
<glyph unicode="j" horiz-adv-x="563" d="M141 -385q-78 0 -137 10v260q20 -4 55 -4q49 0 64.5 25.5t15.5 77.5v1101h314v-1159q0 -152 -87.5 -231.5t-224.5 -79.5zM139 1208v295h314v-295h-314z" />
<glyph unicode="k" horiz-adv-x="1083" d="M115 0v1460h315v-829l291 454h326l-256 -368l264 -717h-334l-170 492l-121 -177v-315h-315z" />
<glyph unicode="l" horiz-adv-x="634" d="M397 -20q-137 0 -214 67.5t-77 192.5v1220h318v-1130q0 -39 18.5 -60.5t67.5 -21.5q37 0 74 6v-242q-95 -32 -187 -32z" />
<glyph unicode="m" horiz-adv-x="1744" d="M115 0v1085h301v-163h4q111 188 323 188q92 0 168 -49t105 -133h6q117 182 326 182q117 0 204.5 -82t87.5 -217v-811h-313v719q0 147 -131 147q-63 0 -111.5 -53t-50.5 -137v-676h-313v723q-4 143 -133 143q-61 0 -109.5 -54t-48.5 -140v-672h-315z" />
<glyph unicode="n" horiz-adv-x="1138" d="M115 0v1085h303v-157h4q117 182 321 182q117 0 204 -83t87 -218v-809h-313v717q0 150 -133 149q-61 0 -109.5 -54t-48.5 -140v-672h-315z" />
<glyph unicode="o" horiz-adv-x="1103" d="M553 -25q-199 0 -330 98.5t-131 307.5v311q0 203 132 310.5t325 107.5q197 0 330 -101.5t133 -308.5v-317q0 -104 -39 -185t-104.5 -128t-145.5 -71t-170 -24zM555 211q141 0 141 158v346q0 72 -37.5 115.5t-107.5 43.5q-72 0 -106.5 -46t-34.5 -119v-342 q0 -156 145 -156z" />
<glyph unicode="p" horiz-adv-x="1128" d="M115 -362v1447h305v-161h4q47 86 132 137t165 51q158 0 236.5 -96t78.5 -252v-424q0 -152 -95 -258.5t-251 -106.5q-74 0 -148.5 40t-107.5 110h-4v-487h-315zM592 203q131 0 131 145v379q0 141 -135 141q-66 0 -112 -55t-46 -154v-270q0 -86 50.5 -136t111.5 -50z" />
<glyph unicode="q" horiz-adv-x="1122" d="M700 -362v522h-4q-41 -82 -125 -133.5t-161 -51.5q-156 0 -237 100.5t-81 254.5v418q0 160 94.5 261t245.5 101q84 0 164 -41t123 -119h4l10 137h283v-1449h-316zM535 217q61 0 113 56.5t52 144.5v282q0 84 -49 133.5t-114 49.5q-131 0 -131 -150v-379q0 -137 129 -137z " />
<glyph unicode="r" horiz-adv-x="815" d="M115 0v1085h307v-167h2q92 182 252 182q61 0 100 -10v-287q-53 6 -108 6q-51 0 -98.5 -11.5t-93.5 -55.5t-46 -117v-625h-315z" />
<glyph unicode="s" horiz-adv-x="989" d="M479 -25q-276 0 -440 162l156 199q174 -129 276 -129q133 0 133 88q0 25 -9 41t-38 30.5t-41 18.5l-61 21l-95 30q-127 39 -193.5 122t-66.5 200q0 145 106.5 249.5t299.5 104.5q219 0 379 -125l-158 -201q-123 96 -229 97q-111 0 -111 -80q0 -29 15.5 -47.5t33 -26.5 t58.5 -24l131 -46q287 -90 286 -325q0 -162 -123 -260.5t-309 -98.5z" />
<glyph unicode="t" horiz-adv-x="813" d="M504 -20q-127 0 -213 61t-86 207v571h-144v252h144v287h317v-287h234v-252h-234v-477q0 -90 94 -90q55 0 109 12v-250q-110 -34 -221 -34z" />
<glyph unicode="u" horiz-adv-x="1138" d="M406 -25q-119 0 -208 80t-89 221v809h313v-710q0 -156 129 -156q66 0 114 56.5t48 142.5v667h315v-1085h-293l-10 168h-4q-45 -84 -131 -138.5t-184 -54.5z" />
<glyph unicode="v" horiz-adv-x="1024" d="M365 -2l-340 1087h335l170 -657h5l174 657h288l-335 -1087h-297z" />
<glyph unicode="w" horiz-adv-x="1515" d="M305 -2l-270 1087h323l115 -602h10l142 602h299l139 -602h8l123 602h283l-275 -1087h-278l-160 694h-6l-166 -694h-287z" />
<glyph unicode="x" horiz-adv-x="1019" d="M12 0l316 555l-293 530h340l164 -309l151 309h303l-295 -524l310 -561h-342l-179 342l-178 -342h-297z" />
<glyph unicode="y" horiz-adv-x="1032" d="M283 -385q-100 0 -185 23l29 253q74 -18 143 -18q72 0 101 80l20 74l-373 1058h332l199 -645h4l178 645h285l-359 -1144q-53 -170 -143 -248t-231 -78z" />
<glyph unicode="z" horiz-adv-x="976" d="M78 0v199l430 643h-416v243h805v-204l-420 -635h420v-246h-819z" />
<glyph unicode="{" horiz-adv-x="624" d="M356 -360q-86 0 -137 53t-51 160v516q0 68 -17.5 94t-68.5 33v184q55 10 70.5 30.5t15.5 71.5v463q0 106 51 160.5t139 54.5h215v-176h-108q-43 0 -43 -45v-432q0 -88 -19.5 -135t-78.5 -70v-10q63 -27 80.5 -67t17.5 -136v-530q0 -45 43 -45h108v-174h-217z" />
<glyph unicode="|" horiz-adv-x="600" d="M207 -109v1588h186v-1588h-186z" />
<glyph unicode="}" horiz-adv-x="624" d="M51 -360v174h109q41 0 41 45v530q0 96 17.5 136t82.5 67v10q-59 23 -79.5 70t-20.5 135v434q0 45 -41 45h-109v176h215q88 0 139.5 -54t51.5 -161v-465q0 -51 14 -71.5t70 -30.5v-184q-49 -6 -66.5 -33t-17.5 -94v-516q0 -106 -51.5 -159.5t-139.5 -53.5h-215z" />
<glyph unicode="~" horiz-adv-x="1105" d="M215 483l-135 27q16 121 72.5 197.5t158.5 76.5q57 0 243.5 -33.5t244.5 -33.5q59 0 96 96l131 -31q-37 -272 -227 -272q-57 0 -245.5 34t-244.5 34q-41 0 -60.5 -22t-33.5 -73z" />
<glyph unicode="&#xa1;" horiz-adv-x="557" d="M125 -324v521l57 487h191l59 -487v-521h-307zM131 803v334h295v-334h-295z" />
<glyph unicode="&#xa2;" horiz-adv-x="1067" d="M440 -127v147q-156 23 -251 121.5t-95 266.5v305q0 166 96.5 269t249.5 132v152h232v-152q143 -25 225 -112t82 -216v-79h-279v63q0 61 -36.5 99t-106.5 38q-76 0 -113.5 -45t-37.5 -123v-338q0 -172 151 -172q70 0 106.5 39t36.5 99v63h279v-90q0 -129 -82 -213 t-225 -107v-147h-232z" />
<glyph unicode="&#xa3;" horiz-adv-x="1171" d="M80 0v258h143v365h-112v188h112v260q0 207 134.5 310.5t316.5 103.5q172 0 283.5 -91t111.5 -266v-112h-262v108q0 59 -35 92t-98 33q-61 0 -98 -39t-37 -100v-299h331v-188h-331v-365h571l-51 -258h-979z" />
<glyph unicode="&#xa4;" horiz-adv-x="913" d="M186 334l-90 90l97 96q-59 90 -60 189q0 94 49 172l-98 102l88 88l96 -96q92 61 189 61q94 0 174 -51l98 98l90 -88l-96 -98q61 -88 61 -190q0 -90 -53 -175l98 -98l-88 -90l-96 96q-82 -57 -186 -57q-96 0 -174 49zM457 498q94 0 144 60t50 150.5t-52 151t-140 60.5 q-94 0 -144.5 -60.5t-50.5 -152.5q0 -84 53.5 -146.5t139.5 -62.5z" />
<glyph unicode="&#xa5;" horiz-adv-x="1198" d="M428 0v479h-328v205h275l-359 776h353l247 -569l240 569h328l-361 -776h277v-205h-330v-479h-342z" />
<glyph unicode="&#xa6;" horiz-adv-x="610" d="M205 -98v745h201v-745h-201zM205 784v678h201v-678h-201z" />
<glyph unicode="&#xa7;" horiz-adv-x="1001" d="M479 -168q-70 0 -135 16.5t-126.5 50t-99.5 100.5t-38 155v65h246v-22q0 -74 44 -124t140 -50q76 0 114 41.5t38 99.5q0 96 -142 145q-109 33 -149 47q-279 88 -279 306q0 143 135 247q-121 78 -121 238q0 147 103.5 239.5t288.5 92.5q176 0 282.5 -83t106.5 -241v-59 h-230v57q0 55 -41 95t-114 40q-76 0 -116 -33.5t-40 -89.5q0 -86 121 -129l176 -61q123 -39 200 -107.5t77 -191.5q0 -147 -142 -248q141 -92 140 -235q0 -156 -122 -258.5t-317 -102.5zM567 530q45 14 72 48t27 71q0 76 -107 117q-98 33 -135 41q-88 -51 -88 -133 q0 -68 117 -109z" />
<glyph unicode="&#xa8;" horiz-adv-x="815" d="M78 1214v297h260v-297h-260zM475 1214v297h260v-297h-260z" />
<glyph unicode="&#xa9;" horiz-adv-x="1728" d="M872 158q-170 0 -280.5 87t-110.5 257v411q0 164 112 254t277 90q156 0 264.5 -78.5t108.5 -222.5v-122h-237v104q0 49 -34 82t-95 33q-137 0 -138 -144v-403q0 -143 138 -144q61 0 95 33t34 82v113h237v-131q0 -143 -107.5 -222t-263.5 -79zM862 -104q-354 0 -558 232 t-204 585q0 340 213 575.5t549 235.5q348 0 557 -233.5t209 -577.5t-210 -580.5t-556 -236.5zM864 29q250 0 425 190.5t175 493.5q0 309 -173 496.5t-429 187.5t-425 -187.5t-169 -496.5q0 -311 171 -497.5t425 -186.5z" />
<glyph unicode="&#xaa;" horiz-adv-x="724" d="M262 791q-84 0 -138 49t-54 141q0 113 92 166t207 53h63v68q0 70 -80 69.5t-80 -67.5v-31h-182v37q0 94 80 148.5t199 54.5q115 0 190.5 -55.5t75.5 -161.5v-306q0 -70 10 -151h-190q0 27 -6 82q-58 -96 -187 -96zM348 932q31 0 57.5 25.5t26.5 64.5v74h-55 q-100 0 -101 -84q0 -80 72 -80zM113 545v160h520v-160h-520z" />
<glyph unicode="&#xab;" horiz-adv-x="1048" d="M362 174l-303 375l301 379l158 -92l-139 -287l145 -289zM827 174l-303 375l303 379l156 -92l-137 -287l143 -289z" />
<glyph unicode="&#xac;" horiz-adv-x="1216" d="M883 279v272h-793v186h1002v-458h-209z" />
<glyph unicode="&#xad;" horiz-adv-x="661" d="M82 508v229h500v-229h-500z" />
<glyph unicode="&#xae;" horiz-adv-x="1042" d="M518 608q-201 0 -322.5 134.5t-121.5 328.5q0 193 126 327t320 134q201 0 325 -133t124 -327.5t-126 -329t-325 -134.5zM518 698q139 0 241.5 103.5t102.5 269.5t-100 269.5t-244 103.5q-141 0 -238.5 -102.5t-97.5 -270.5q0 -166 100.5 -269.5t235.5 -103.5zM338 819 v524h213q86 0 132 -46t46 -117q0 -111 -98 -156l114 -205h-135l-98 187h-47v-187h-127zM465 1098h65q35 0 55.5 19.5t20.5 53.5q0 33 -20.5 53.5t-55.5 20.5h-65v-147z" />
<glyph unicode="&#xaf;" horiz-adv-x="856" d="M96 1231v213h664v-213h-664z" />
<glyph unicode="&#xb0;" horiz-adv-x="634" d="M315 1051q-104 0 -169.5 67.5t-65.5 159.5q0 94 68.5 163.5t166.5 69.5q106 0 173 -66.5t67 -160.5q0 -96 -71 -164.5t-169 -68.5zM315 1169q45 0 75 32t30 77q0 47 -29 81t-76 34q-43 0 -71.5 -33t-28.5 -82q0 -45 29.5 -77t70.5 -32z" />
<glyph unicode="&#xb1;" horiz-adv-x="1105" d="M457 371v297h-336v194h336v312h194v-312h334v-194h-334v-297h-194zM121 39v197h862v-197h-862z" />
<glyph unicode="&#xb2;" horiz-adv-x="700" d="M84 778v140l219 223q125 133 125 202v7q0 78 -78 77.5t-78 -86.5v-30h-211v49q0 115 80 177t211 62q135 0 211 -68.5t76 -176.5q0 -61 -30.5 -124t-61.5 -97.5l-94 -100.5l-74 -82h264v-172h-559z" />
<glyph unicode="&#xb3;" horiz-adv-x="710" d="M352 754q-145 0 -222 60t-77 173v33h207v-27q0 -72 84 -71.5t84 94.5q0 47 -28.5 68.5t-61.5 21.5h-74v145h60q98 0 98 92q0 41 -23.5 62.5t-56.5 21.5q-80 0 -80 -73v-23h-203v35q0 109 77 172.5t210 63.5t211 -62.5t78 -167.5q0 -63 -35 -115.5t-98 -70.5v-4 q72 -16 112.5 -66.5t40.5 -118.5q0 -127 -83 -185t-220 -58z" />
<glyph unicode="&#xb4;" horiz-adv-x="608" d="M82 1202l174 324h305l-248 -324h-231z" />
<glyph unicode="&#xb5;" horiz-adv-x="1181" d="M109 -365v1452h315v-708q0 -158 141 -158q61 0 112.5 54.5t51.5 138.5v673h315v-686q0 -102 95 -116l-4 -295q-256 23 -314 180q-66 -195 -250 -195q-160 0 -209 119l-12 -2l56 -430z" />
<glyph unicode="&#xb6;" horiz-adv-x="1112" d="M430 -168v610q-162 25 -249 165.5t-87 330.5q0 209 112.5 365.5t282.5 156.5h543v-188h-94v-1440h-176v1440h-158v-1440h-174z" />
<glyph unicode="&#xb7;" horiz-adv-x="520" d="M109 547v334h301v-334h-301z" />
<glyph unicode="&#x22c5;" horiz-adv-x="520" d="M109 547v334h301v-334h-301z" />
<glyph unicode="&#xb8;" horiz-adv-x="694" d="M317 -434q-111 0 -206 24v129q111 -27 194 -26q82 0 82 51q0 47 -88 51l-94 6l61 224h123l-35 -131q96 0 168 -32t72 -110q0 -84 -81 -135t-196 -51z" />
<glyph unicode="&#xb9;" horiz-adv-x="591" d="M213 778v623l-102 -21l-21 158l223 55h121v-815h-221z" />
<glyph unicode="&#xba;" horiz-adv-x="749" d="M371 793q-125 0 -207 58t-82 185v195q0 125 82 189.5t203 64.5q125 0 207.5 -61.5t82.5 -188.5v-197q0 -123 -83.5 -184t-202.5 -61zM371 940q82 0 82 90v215q0 39 -21.5 63.5t-60.5 24.5q-82 0 -82 -90v-213q0 -90 82 -90zM115 545v160h520v-160h-520z" />
<glyph unicode="&#xbb;" horiz-adv-x="1050" d="M223 174l-160 92l140 287l-144 287l164 88l301 -375zM690 174l-162 92l142 287l-146 287l164 88l303 -375z" />
<glyph unicode="&#xbc;" horiz-adv-x="1611" d="M264 647v623l-102 -21l-21 158l224 55h120v-815h-221zM1192 0v166h-338v153l295 492h227l-307 -479h123v92l219 149v-241h80v-166h-80v-166h-219zM283 -4l802 1474h152l-805 -1474h-149z" />
<glyph unicode="&#xbd;" horiz-adv-x="1611" d="M256 647v623l-102 -21l-21 158l223 55h121v-815h-221zM944 0v139l219 223q125 133 125 203v6q0 78 -77.5 78t-77.5 -86v-31h-211v50q0 115 79.5 177t210.5 62q135 0 211 -68.5t76 -177.5q0 -61 -30.5 -123.5t-61.5 -97.5t-94 -100l-74 -82h264v-172h-559zM274 -4 l803 1474h152l-805 -1474h-150z" />
<glyph unicode="&#xbe;" horiz-adv-x="1611" d="M1235 0v166h-338v153l295 492h227l-307 -479h123v92l219 149v-241h80v-166h-80v-166h-219zM371 623q-145 0 -222 60t-77 173v33h207v-27q0 -72 83.5 -71.5t83.5 94.5q0 47 -28.5 68.5t-61.5 21.5h-73v145h59q98 0 98 92q0 41 -23.5 62.5t-56.5 21.5q-80 0 -79 -73v-23 h-203v35q0 109 76.5 172t210 63t211 -62t77.5 -167q0 -63 -34.5 -115.5t-98.5 -70.5v-4q72 -16 113 -66.5t41 -118.5q0 -127 -83 -185t-220 -58zM362 -4l803 1474h152l-805 -1474h-150z" />
<glyph unicode="&#xbf;" horiz-adv-x="1030" d="M514 -344q-207 0 -320.5 103.5t-113.5 287.5q-2 195 178 359q6 6 47 42.5t56.5 53t34 52.5t18.5 71v59h282v-55q-6 -164 -127 -293l-40 -41l-43 -44q-13 -13 -35.5 -42t-32.5 -49.5t-18.5 -49t-8.5 -57.5q0 -66 38 -103.5t106 -37.5q61 0 99 37t38 106v41h268v-45 q0 -182 -122 -288.5t-304 -106.5zM393 803v334h318v-334h-318z" />
<glyph unicode="&#xc0;" d="M35 0l426 1462h422l420 -1462h-347l-84 313h-442l-82 -313h-313zM502 571h301l-148 562h-6zM551 1556l-250 324h307l174 -324h-231z" />
<glyph unicode="&#xc1;" d="M35 0l426 1462h422l420 -1462h-347l-84 313h-442l-82 -313h-313zM502 571h301l-148 562h-6zM565 1559l174 323h305l-247 -323h-232z" />
<glyph unicode="&#xc2;" d="M35 0l426 1462h422l420 -1462h-347l-84 313h-442l-82 -313h-313zM502 571h301l-148 562h-6zM324 1561l229 337h223l228 -337h-240l-107 176l-106 -176h-227z" />
<glyph unicode="&#xc3;" d="M35 0l426 1462h422l420 -1462h-347l-84 313h-442l-82 -313h-313zM502 571h301l-148 562h-6zM422 1550l-150 29q14 119 76 197.5t160 78.5q55 0 162.5 -36.5t160.5 -36.5q35 0 56.5 24.5t40.5 75.5l133 -35q-14 -115 -71.5 -191.5t-158.5 -76.5q-55 0 -159.5 36t-155.5 36 q-41 0 -59.5 -23t-34.5 -78z" />
<glyph unicode="&#xc4;" d="M35 0l426 1462h422l420 -1462h-347l-84 313h-442l-82 -313h-313zM502 571h301l-148 562h-6zM346 1571v297h260v-297h-260zM743 1571v297h261v-297h-261z" />
<glyph unicode="&#xc5;" d="M35 0l426 1462h422l420 -1462h-347l-84 313h-442l-82 -313h-313zM502 571h301l-148 562h-6zM668 1526q-92 0 -150.5 57t-58.5 150q0 90 60.5 151.5t146.5 61.5q94 0 153.5 -54.5t59.5 -148.5q0 -90 -61.5 -153.5t-149.5 -63.5zM666 1630q43 0 67.5 29t24.5 78 q0 104 -94 104q-86 0 -86 -106q0 -47 22.5 -76t65.5 -29z" />
<glyph unicode="&#xc6;" horiz-adv-x="1867" d="M29 0l579 1460h1166v-272h-605v-314h480v-272h-480v-328h607v-274h-945v313l-339 2l-123 -315h-340zM578 565h253v664h-4z" />
<glyph unicode="&#xc7;" horiz-adv-x="1251" d="M645 -434q-111 0 -207 24v129q111 -27 195 -26q82 0 82 51q0 47 -88 51l-95 6l48 176q-213 16 -347.5 135t-134.5 343v546q0 225 158 354.5t389 129.5q227 0 372.5 -114t145.5 -322v-103h-309v78q0 86 -57.5 136t-147.5 50q-100 0 -154.5 -54t-54.5 -150v-541 q0 -106 55.5 -160.5t155.5 -54.5q88 0 145.5 49t57.5 133v82h309v-102q0 -197 -127 -308.5t-331 -126.5l-23 -83q96 0 168 -32t72 -110q0 -84 -81 -135t-196 -51z" />
<glyph unicode="&#xc8;" horiz-adv-x="1161" d="M123 0v1460h944v-274h-604v-307h479v-275h-479v-328h606v-276h-946zM524 1559l-250 323h308l174 -323h-232z" />
<glyph unicode="&#xc9;" horiz-adv-x="1161" d="M453 1559l174 323h305l-248 -323h-231zM123 0v1460h944v-274h-604v-307h479v-275h-479v-328h606v-276h-946z" />
<glyph unicode="&#xca;" horiz-adv-x="1161" d="M264 1561l230 337h223l227 -337h-239l-107 176l-106 -176h-228zM123 0v1460h944v-274h-604v-307h479v-275h-479v-328h606v-276h-946z" />
<glyph unicode="&#xcb;" horiz-adv-x="1161" d="M283 1571v297h260v-297h-260zM680 1571v297h260v-297h-260zM123 0v1460h944v-274h-604v-307h479v-275h-479v-328h606v-276h-946z" />
<glyph unicode="&#xcc;" horiz-adv-x="579" d="M121 0v1460h340v-1460h-340zM170 1559l-250 323h307l174 -323h-231z" />
<glyph unicode="&#xcd;" horiz-adv-x="579" d="M121 0v1460h340v-1460h-340zM186 1559l174 323h306l-248 -323h-232z" />
<glyph unicode="&#xce;" horiz-adv-x="579" d="M121 0v1460h340v-1460h-340zM-45 1561l229 337h224l227 -337h-240l-106 176l-107 -176h-227z" />
<glyph unicode="&#xcf;" horiz-adv-x="579" d="M121 0v1460h340v-1460h-340zM-29 1571v297h260v-297h-260zM369 1571v297h260v-297h-260z" />
<glyph unicode="&#xd0;" horiz-adv-x="1331" d="M66 625v221h98v614h555q227 0 370.5 -110.5t143.5 -327.5v-557q0 -231 -142.5 -348t-369.5 -117h-557v625h-98zM504 272h182q102 0 153.5 60.5t51.5 142.5v512q0 90 -54.5 145.5t-154.5 55.5h-178v-342h239v-221h-239v-353z" />
<glyph unicode="&#xd1;" horiz-adv-x="1347" d="M123 0v1460h334l461 -794h4v794h303v-1460h-283l-512 874h-4v-874h-303zM453 1550l-150 29q14 119 75.5 197.5t160.5 78.5q55 0 162.5 -36.5t160.5 -36.5q35 0 56.5 24.5t39.5 75.5l134 -35q-14 -115 -71.5 -191.5t-158.5 -76.5q-55 0 -159.5 36t-155.5 36 q-41 0 -59.5 -23t-34.5 -78z" />
<glyph unicode="&#xd2;" horiz-adv-x="1302" d="M651 -25q-244 0 -398.5 120t-154.5 374v514q0 242 157 372t394 130q242 0 399.5 -122t157.5 -374v-512q0 -250 -158.5 -376t-396.5 -126zM653 254q98 0 154.5 58.5t56.5 156.5v530q0 98 -60.5 153.5t-154.5 55.5q-102 0 -155.5 -56t-53.5 -161v-520q0 -102 55.5 -159.5 t157.5 -57.5zM543 1559l-250 323h307l174 -323h-231z" />
<glyph unicode="&#xd3;" horiz-adv-x="1302" d="M518 1559l174 323h305l-247 -323h-232zM651 -25q-244 0 -398.5 120t-154.5 374v514q0 242 157 372t394 130q242 0 399.5 -122t157.5 -374v-512q0 -250 -158.5 -376t-396.5 -126zM653 254q98 0 154.5 58.5t56.5 156.5v530q0 98 -60.5 153.5t-154.5 55.5q-102 0 -155.5 -56 t-53.5 -161v-520q0 -102 55.5 -159.5t157.5 -57.5z" />
<glyph unicode="&#xd4;" horiz-adv-x="1302" d="M309 1561l230 337h223l227 -337h-239l-107 176l-106 -176h-228zM651 -25q-244 0 -398.5 120t-154.5 374v514q0 242 157 372t394 130q242 0 399.5 -122t157.5 -374v-512q0 -250 -158.5 -376t-396.5 -126zM653 254q98 0 154.5 58.5t56.5 156.5v530q0 98 -60.5 153.5 t-154.5 55.5q-102 0 -155.5 -56t-53.5 -161v-520q0 -102 55.5 -159.5t157.5 -57.5z" />
<glyph unicode="&#xd5;" horiz-adv-x="1302" d="M651 -25q-244 0 -398.5 120t-154.5 374v514q0 242 157 372t394 130q242 0 399.5 -122t157.5 -374v-512q0 -250 -158.5 -376t-396.5 -126zM653 254q98 0 154.5 58.5t56.5 156.5v530q0 98 -60.5 153.5t-154.5 55.5q-102 0 -155.5 -56t-53.5 -161v-520q0 -102 55.5 -159.5 t157.5 -57.5zM401 1550l-149 29q14 119 75.5 197.5t159.5 78.5q55 0 163 -36.5t161 -36.5q35 0 56.5 24.5t39.5 75.5l133 -35q-14 -115 -71.5 -191.5t-157.5 -76.5q-55 0 -159.5 36t-155.5 36q-41 0 -60 -23t-35 -78z" />
<glyph unicode="&#xd6;" horiz-adv-x="1302" d="M328 1571v297h260v-297h-260zM725 1571v297h260v-297h-260zM651 -25q-244 0 -398.5 120t-154.5 374v514q0 242 157 372t394 130q242 0 399.5 -122t157.5 -374v-512q0 -250 -158.5 -376t-396.5 -126zM653 254q98 0 154.5 58.5t56.5 156.5v530q0 98 -60.5 153.5 t-154.5 55.5q-102 0 -155.5 -56t-53.5 -161v-520q0 -102 55.5 -159.5t157.5 -57.5z" />
<glyph unicode="&#xd7;" horiz-adv-x="1105" d="M266 217l-137 137l289 299l-295 297l137 140l297 -295l289 295l139 -140l-291 -295l291 -299l-139 -139l-289 297z" />
<glyph unicode="&#xd8;" horiz-adv-x="1300" d="M305 -129l-129 55l82 164q-160 129 -160 379v514q0 242 157 372t394 130q164 0 285 -53l74 143l129 -55l-82 -162q152 -131 151 -369v-512q0 -250 -158.5 -376t-396.5 -126q-154 0 -270 45zM440 451l357 708q-55 49 -148 49q-102 0 -155.5 -56t-53.5 -161v-540zM653 254 q98 0 154.5 58.5t56.5 156.5v510l-348 -688q53 -37 137 -37z" />
<glyph unicode="&#xd9;" horiz-adv-x="1314" d="M655 -25q-252 0 -397 120t-145 366v999h340v-985q0 -115 60 -171t154.5 -56t150.5 60.5t54 164.5v987h328v-981q0 -240 -148.5 -372t-396.5 -132zM567 1554l-250 324h308l174 -324h-232z" />
<glyph unicode="&#xda;" horiz-adv-x="1314" d="M553 1556l174 324h305l-248 -324h-231zM655 -25q-252 0 -397 120t-145 366v999h340v-985q0 -115 60 -171t154.5 -56t150.5 60.5t54 164.5v987h328v-981q0 -240 -148.5 -372t-396.5 -132z" />
<glyph unicode="&#xdb;" horiz-adv-x="1314" d="M326 1559l229 337h223l228 -337h-240l-107 176l-106 -176h-227zM655 -25q-252 0 -397 120t-145 366v999h340v-985q0 -115 60 -171t154.5 -56t150.5 60.5t54 164.5v987h328v-981q0 -240 -148.5 -372t-396.5 -132z" />
<glyph unicode="&#xdc;" horiz-adv-x="1314" d="M344 1571v297h260v-297h-260zM741 1571v297h260v-297h-260zM655 -25q-252 0 -397 120t-145 366v999h340v-985q0 -115 60 -171t154.5 -56t150.5 60.5t54 164.5v987h328v-981q0 -240 -148.5 -372t-396.5 -132z" />
<glyph unicode="&#xdd;" horiz-adv-x="1222" d="M440 0v582l-411 878h358l246 -577l244 577h317l-414 -880v-580h-340zM518 1552l174 324h305l-247 -324h-232z" />
<glyph unicode="&#xde;" horiz-adv-x="1243" d="M123 0v1460h338v-266h239q223 0 339 -120t116 -312q0 -205 -116.5 -334t-350.5 -129h-227v-299h-338zM461 539h166q94 0 146 56t52 155q0 90 -48 145t-136 55h-180v-411z" />
<glyph unicode="&#xdf;" d="M879 -20q-170 0 -291 81l69 224q98 -59 172 -60q63 0 98.5 36t35.5 99q0 92 -85 155t-212 85v240l51 2q63 31 103 90t40 127q0 178 -176 178q-170 0 -170 -184v-1053h-313v827h-129v244h129v12q0 154 127 280t374 126q209 0 339 -108.5t130 -276.5q0 -104 -54 -197.5 t-152 -136.5v-6q152 -61 226.5 -171t74.5 -231q0 -178 -113.5 -280t-273.5 -102z" />
<glyph unicode="&#xe0;" horiz-adv-x="1093" d="M385 -23q-133 0 -220 81t-87 233q0 127 79 212t182 116.5t218 31.5h113v119q0 57 -37 90t-107 33q-68 0 -103.5 -36t-35.5 -89v-43h-281v57q0 152 128 240t321 88q184 0 307 -89t123 -263v-506q0 -61 6 -154.5t6 -97.5h-290q0 4 -2.5 21.5t-5.5 55.5t-5 83h-10 q-31 -72 -90 -115t-109.5 -55.5t-99.5 -12.5zM520 203q59 0 104.5 44t45.5 120v112h-97q-180 0 -180 -141q0 -63 35 -99t92 -36zM461 1202l-250 324h307l174 -324h-231z" />
<glyph unicode="&#xe1;" horiz-adv-x="1093" d="M385 -23q-133 0 -220 81t-87 233q0 127 79 212t182 116.5t218 31.5h113v119q0 57 -37 90t-107 33q-68 0 -103.5 -36t-35.5 -89v-43h-281v57q0 152 128 240t321 88q184 0 307 -89t123 -263v-506q0 -61 6 -154.5t6 -97.5h-290q0 4 -2.5 21.5t-5.5 55.5t-5 83h-10 q-31 -72 -90 -115t-109.5 -55.5t-99.5 -12.5zM520 203q59 0 104.5 44t45.5 120v112h-97q-180 0 -180 -141q0 -63 35 -99t92 -36zM416 1202l174 324h305l-248 -324h-231z" />
<glyph unicode="&#xe2;" horiz-adv-x="1093" d="M385 -23q-133 0 -220 81t-87 233q0 127 79 212t182 116.5t218 31.5h113v119q0 57 -37 90t-107 33q-68 0 -103.5 -36t-35.5 -89v-43h-281v57q0 152 128 240t321 88q184 0 307 -89t123 -263v-506q0 -61 6 -154.5t6 -97.5h-290q0 4 -2.5 21.5t-5.5 55.5t-5 83h-10 q-31 -72 -90 -115t-109.5 -55.5t-99.5 -12.5zM520 203q59 0 104.5 44t45.5 120v112h-97q-180 0 -180 -141q0 -63 35 -99t92 -36zM188 1204l230 338h223l227 -338h-239l-107 176l-106 -176h-228z" />
<glyph unicode="&#xe3;" horiz-adv-x="1093" d="M385 -23q-133 0 -220 81t-87 233q0 127 79 212t182 116.5t218 31.5h113v119q0 57 -37 90t-107 33q-68 0 -103.5 -36t-35.5 -89v-43h-281v57q0 152 128 240t321 88q184 0 307 -89t123 -263v-506q0 -61 6 -154.5t6 -97.5h-290q0 4 -2.5 21.5t-5.5 55.5t-5 83h-10 q-31 -72 -90 -115t-109.5 -55.5t-99.5 -12.5zM520 203q59 0 104.5 44t45.5 120v112h-97q-180 0 -180 -141q0 -63 35 -99t92 -36zM287 1194l-150 29q14 119 75.5 197.5t160.5 78.5q55 0 162.5 -37t160.5 -37q35 0 56.5 25t40.5 76l133 -35q-14 -115 -71.5 -191.5 t-158.5 -76.5q-55 0 -159.5 35.5t-155.5 35.5q-41 0 -59.5 -22.5t-34.5 -77.5z" />
<glyph unicode="&#xe4;" horiz-adv-x="1093" d="M385 -23q-133 0 -220 81t-87 233q0 127 79 212t182 116.5t218 31.5h113v119q0 57 -37 90t-107 33q-68 0 -103.5 -36t-35.5 -89v-43h-281v57q0 152 128 240t321 88q184 0 307 -89t123 -263v-506q0 -61 6 -154.5t6 -97.5h-290q0 4 -2.5 21.5t-5.5 55.5t-5 83h-10 q-31 -72 -90 -115t-109.5 -55.5t-99.5 -12.5zM520 203q59 0 104.5 44t45.5 120v112h-97q-180 0 -180 -141q0 -63 35 -99t92 -36zM213 1214v297h260v-297h-260zM610 1214v297h260v-297h-260z" />
<glyph unicode="&#xe5;" horiz-adv-x="1093" d="M385 -23q-133 0 -220 81t-87 233q0 127 79 212t182 116.5t218 31.5h113v119q0 57 -37 90t-107 33q-68 0 -103.5 -36t-35.5 -89v-43h-281v57q0 152 128 240t321 88q184 0 307 -89t123 -263v-506q0 -61 6 -154.5t6 -97.5h-290q0 4 -2.5 21.5t-5.5 55.5t-5 83h-10 q-31 -72 -90 -115t-109.5 -55.5t-99.5 -12.5zM520 203q59 0 104.5 44t45.5 120v112h-97q-180 0 -180 -141q0 -63 35 -99t92 -36zM543 1176q-92 0 -150.5 57t-58.5 149q0 90 60.5 151.5t146.5 61.5q94 0 153.5 -54t59.5 -148q0 -90 -61.5 -153.5t-149.5 -63.5zM541 1280 q43 0 67.5 28.5t24.5 77.5q0 104 -94 105q-86 0 -86 -107q0 -47 22.5 -75.5t65.5 -28.5z" />
<glyph unicode="&#xe6;" horiz-adv-x="1652" d="M391 -25q-135 0 -224 82t-89 234q0 127 79 212t182 116.5t218 31.5h113v119q0 57 -37 90t-107 33q-68 0 -103.5 -36t-35.5 -89v-43h-281v57q0 152 128 240t321 88q190 0 285 -94q113 94 290 94q197 0 318 -106.5t121 -296.5v-248h-584v-82q0 -158 209 -158q131 0 285 62 l65 -207q-168 -98 -401 -99q-289 0 -395 185q-33 -55 -83.5 -95t-103.5 -57.5t-94 -25t-76 -7.5zM520.5 203q57.5 0 103.5 43t46 114v119h-86q-190 0 -191 -141q0 -63 35 -99t92.5 -36zM985 645h285v90q0 68 -37 110t-107 42q-68 0 -104.5 -43t-36.5 -107v-92z" />
<glyph unicode="&#xe7;" horiz-adv-x="1042" d="M549 -434q-111 0 -207 24v129q111 -27 195 -26q82 0 81 51q0 47 -88 51l-94 6l47 176q-172 14 -281.5 113.5t-109.5 284.5v317q0 201 132 309.5t319 108.5q188 0 306 -92t118 -252v-80h-281v59q0 57 -34 93t-99 36q-143 0 -143 -153v-354q0 -158 147 -158q66 0 97.5 39 t31.5 96v55h281v-86q0 -145 -98.5 -232t-260.5 -101l-22 -86q96 0 167.5 -32t71.5 -110q0 -84 -80.5 -135t-195.5 -51z" />
<glyph unicode="&#xe8;" horiz-adv-x="1077" d="M559 -25q-203 0 -335 105.5t-132 312.5v275q0 213 132 327.5t327 114.5q197 0 318.5 -107.5t121.5 -297.5v-246h-583v-80q0 -160 202 -160q123 0 291 62l66 -207q-170 -99 -408 -99zM408 645h284v90q0 68 -37 110t-106 42q-68 0 -104.5 -43t-36.5 -107v-92zM473 1202 l-250 324h307l175 -324h-232z" />
<glyph unicode="&#xe9;" horiz-adv-x="1077" d="M430 1202l174 324h305l-247 -324h-232zM559 -25q-203 0 -335 105.5t-132 312.5v275q0 213 132 327.5t327 114.5q197 0 318.5 -107.5t121.5 -297.5v-246h-583v-80q0 -160 202 -160q123 0 291 62l66 -207q-170 -99 -408 -99zM408 645h284v90q0 68 -37 110t-106 42 q-68 0 -104.5 -43t-36.5 -107v-92z" />
<glyph unicode="&#xea;" horiz-adv-x="1077" d="M213 1204l229 338h224l227 -338h-240l-106 176l-107 -176h-227zM559 -25q-203 0 -335 105.5t-132 312.5v275q0 213 132 327.5t327 114.5q197 0 318.5 -107.5t121.5 -297.5v-246h-583v-80q0 -160 202 -160q123 0 291 62l66 -207q-170 -99 -408 -99zM408 645h284v90 q0 68 -37 110t-106 42q-68 0 -104.5 -43t-36.5 -107v-92z" />
<glyph unicode="&#xeb;" horiz-adv-x="1077" d="M227 1214v297h260v-297h-260zM625 1214v297h260v-297h-260zM559 -25q-203 0 -335 105.5t-132 312.5v275q0 213 132 327.5t327 114.5q197 0 318.5 -107.5t121.5 -297.5v-246h-583v-80q0 -160 202 -160q123 0 291 62l66 -207q-170 -99 -408 -99zM408 645h284v90 q0 68 -37 110t-106 42q-68 0 -104.5 -43t-36.5 -107v-92z" />
<glyph unicode="&#xec;" horiz-adv-x="542" d="M115 0v1085h315v-1085h-315zM147 1202l-249 324h307l174 -324h-232z" />
<glyph unicode="&#xed;" horiz-adv-x="542" d="M145 1202l174 324h306l-248 -324h-232zM115 0v1085h315v-1085h-315z" />
<glyph unicode="&#xee;" horiz-adv-x="542" d="M-78 1204l230 338h223l227 -338h-240l-106 176l-106 -176h-228zM115 0v1085h315v-1085h-315z" />
<glyph unicode="&#xef;" horiz-adv-x="542" d="M-55 1214v297h260v-297h-260zM342 1214v297h260v-297h-260zM115 0v1085h315v-1085h-315z" />
<glyph unicode="&#xf0;" horiz-adv-x="1103" d="M553 -25q-201 0 -331 96.5t-130 303.5v260q0 174 97.5 283.5t254.5 113.5q41 0 50 -4l-86 131l-211 -59l-80 155l186 52l-86 131l313 75q4 -4 40 -57t42 -65l203 59l80 -156l-180 -53q219 -319 219 -321q78 -111 78 -252v-287q0 -205 -132 -305.5t-327 -100.5zM555 211 q139 0 139 158v303q0 70 -36.5 114.5t-104.5 44.5q-72 0 -107.5 -45t-35.5 -120v-301q0 -154 145 -154z" />
<glyph unicode="&#xf1;" horiz-adv-x="1138" d="M115 0v1085h303v-157h4q117 182 321 182q117 0 204 -83t87 -218v-809h-313v717q0 150 -133 149q-61 0 -109.5 -54t-48.5 -140v-672h-315zM360 1194l-149 29q14 119 75.5 197.5t159.5 78.5q55 0 163 -37t161 -37q35 0 56.5 25t39.5 76l133 -35q-14 -115 -71.5 -191.5 t-157.5 -76.5q-55 0 -159.5 35.5t-155.5 35.5q-41 0 -60 -22.5t-35 -77.5z" />
<glyph unicode="&#xf2;" horiz-adv-x="1103" d="M553 -25q-199 0 -330 98.5t-131 307.5v311q0 203 132 310.5t325 107.5q197 0 330 -101.5t133 -308.5v-317q0 -104 -39 -185t-104.5 -128t-145.5 -71t-170 -24zM555 211q141 0 141 158v346q0 72 -37.5 115.5t-107.5 43.5q-72 0 -106.5 -46t-34.5 -119v-342 q0 -156 145 -156zM459 1202l-250 324h307l174 -324h-231z" />
<glyph unicode="&#xf3;" horiz-adv-x="1103" d="M424 1202l174 324h305l-248 -324h-231zM553 -25q-199 0 -330 98.5t-131 307.5v311q0 203 132 310.5t325 107.5q197 0 330 -101.5t133 -308.5v-317q0 -104 -39 -185t-104.5 -128t-145.5 -71t-170 -24zM555 211q141 0 141 158v346q0 72 -37.5 115.5t-107.5 43.5 q-72 0 -106.5 -46t-34.5 -119v-342q0 -156 145 -156z" />
<glyph unicode="&#xf4;" horiz-adv-x="1103" d="M215 1204l229 338h224l227 -338h-240l-106 176l-107 -176h-227zM553 -25q-199 0 -330 98.5t-131 307.5v311q0 203 132 310.5t325 107.5q197 0 330 -101.5t133 -308.5v-317q0 -104 -39 -185t-104.5 -128t-145.5 -71t-170 -24zM555 211q141 0 141 158v346q0 72 -37.5 115.5 t-107.5 43.5q-72 0 -106.5 -46t-34.5 -119v-342q0 -156 145 -156z" />
<glyph unicode="&#xf5;" horiz-adv-x="1103" d="M553 -25q-199 0 -330 98.5t-131 307.5v311q0 203 132 310.5t325 107.5q197 0 330 -101.5t133 -308.5v-317q0 -104 -39 -185t-104.5 -128t-145.5 -71t-170 -24zM555 211q141 0 141 158v346q0 72 -37.5 115.5t-107.5 43.5q-72 0 -106.5 -46t-34.5 -119v-342 q0 -156 145 -156zM303 1194l-149 29q14 119 75.5 197.5t159.5 78.5q55 0 162.5 -37t161.5 -37q35 0 56.5 25t39.5 76l133 -35q-14 -115 -71.5 -191.5t-157.5 -76.5q-55 0 -159.5 35.5t-156.5 35.5q-41 0 -59.5 -22.5t-34.5 -77.5z" />
<glyph unicode="&#xf6;" horiz-adv-x="1103" d="M227 1214v297h260v-297h-260zM625 1214v297h260v-297h-260zM553 -25q-199 0 -330 98.5t-131 307.5v311q0 203 132 310.5t325 107.5q197 0 330 -101.5t133 -308.5v-317q0 -104 -39 -185t-104.5 -128t-145.5 -71t-170 -24zM555 211q141 0 141 158v346q0 72 -37.5 115.5 t-107.5 43.5q-72 0 -106.5 -46t-34.5 -119v-342q0 -156 145 -156z" />
<glyph unicode="&#xf7;" horiz-adv-x="1105" d="M426 158v272h258v-272h-258zM123 557v195h860v-195h-860zM426 866v271h258v-271h-258z" />
<glyph unicode="&#xf8;" horiz-adv-x="1103" d="M289 -152l-113 56l74 149q-158 106 -158 328v311q0 203 132 310.5t325 107.5q113 0 211 -37l74 146l114 -58l-76 -149q139 -109 140 -312v-317q0 -104 -39 -185t-104.5 -128t-145.5 -71t-170 -24q-98 0 -188 25zM410 709v-338l235 471q-39 33 -94 32q-72 0 -106.5 -45.5 t-34.5 -119.5zM555 211q141 0 141 158v290l-219 -434q29 -14 78 -14z" />
<glyph unicode="&#xf9;" horiz-adv-x="1138" d="M406 -25q-119 0 -208 80t-89 221v809h313v-710q0 -156 129 -156q66 0 114 56.5t48 142.5v667h315v-1085h-293l-10 168h-4q-45 -84 -131 -138.5t-184 -54.5zM459 1202l-250 324h307l174 -324h-231z" />
<glyph unicode="&#xfa;" horiz-adv-x="1138" d="M467 1202l174 324h305l-248 -324h-231zM406 -25q-119 0 -208 80t-89 221v809h313v-710q0 -156 129 -156q66 0 114 56.5t48 142.5v667h315v-1085h-293l-10 168h-4q-45 -84 -131 -138.5t-184 -54.5z" />
<glyph unicode="&#xfb;" horiz-adv-x="1138" d="M233 1204l230 338h223l227 -338h-239l-107 176l-106 -176h-228zM406 -25q-119 0 -208 80t-89 221v809h313v-710q0 -156 129 -156q66 0 114 56.5t48 142.5v667h315v-1085h-293l-10 168h-4q-45 -84 -131 -138.5t-184 -54.5z" />
<glyph unicode="&#xfc;" horiz-adv-x="1138" d="M248 1214v297h260v-297h-260zM645 1214v297h260v-297h-260zM406 -25q-119 0 -208 80t-89 221v809h313v-710q0 -156 129 -156q66 0 114 56.5t48 142.5v667h315v-1085h-293l-10 168h-4q-45 -84 -131 -138.5t-184 -54.5z" />
<glyph unicode="&#xfd;" horiz-adv-x="1032" d="M283 -385q-100 0 -185 23l29 253q74 -18 143 -18q72 0 101 80l20 74l-373 1058h332l199 -645h4l178 645h285l-359 -1144q-53 -170 -143 -248t-231 -78zM434 1202l174 324h305l-247 -324h-232z" />
<glyph unicode="&#xfe;" horiz-adv-x="1128" d="M115 -362v1822h315v-518h4q49 76 130 123t159 47q156 0 234.5 -91t78.5 -245v-454q0 -150 -96 -248.5t-248 -98.5q-74 0 -152.5 40t-105.5 106h-4v-483h-315zM592 203q131 0 131 145v379q0 141 -135 141q-66 0 -112 -55t-46 -154v-270q0 -86 50.5 -136t111.5 -50z" />
<glyph unicode="&#xff;" horiz-adv-x="1032" d="M283 -385q-100 0 -185 23l29 253q74 -18 143 -18q72 0 101 80l20 74l-373 1058h332l199 -645h4l178 645h285l-359 -1144q-53 -170 -143 -248t-231 -78zM225 1214v297h260v-297h-260zM623 1214v297h260v-297h-260z" />
<glyph unicode="&#x152;" horiz-adv-x="1900" d="M614 -23q-240 0 -378 119t-138 375v510q0 244 140.5 373t373.5 129q164 0 252 -92v69h946v-274h-608v-312h481v-272h-481v-326h608v-276h-946v72q-90 -95 -250 -95zM653 254q98 0 154.5 58.5t56.5 156.5v537q0 98 -59.5 150t-155.5 52q-102 0 -155.5 -57t-53.5 -162v-516 q0 -102 55.5 -160.5t157.5 -58.5z" />
<glyph unicode="&#x153;" horiz-adv-x="1679" d="M547 -25q-199 0 -327 98.5t-128 307.5v311q0 203 132 310.5t325 107.5q184 0 307 -98q117 98 297 98q199 0 320.5 -109.5t121.5 -300.5v-241h-585v-80q0 -160 215 -160q127 0 280 62l66 -207q-172 -98 -414 -99q-190 0 -303 97q-125 -97 -307 -97zM555 211q141 0 141 158 v346q0 72 -37.5 115.5t-107.5 43.5q-72 0 -106.5 -46t-34.5 -119v-338q0 -160 145 -160zM1010 645h284v90q0 68 -36.5 110t-106.5 42q-68 0 -104.5 -43t-36.5 -107v-92z" />
<glyph unicode="&#x178;" horiz-adv-x="1222" d="M440 0v582l-411 878h358l246 -577l244 577h317l-414 -880v-580h-340zM295 1569v297h260v-297h-260zM692 1569v297h260v-297h-260z" />
<glyph unicode="&#x2c6;" horiz-adv-x="784" d="M59 1204l230 338h223l227 -338h-239l-107 176l-106 -176h-228z" />
<glyph unicode="&#x2dc;" horiz-adv-x="901" d="M217 1194l-149 29q14 119 75.5 197.5t159.5 78.5q55 0 162.5 -37t161.5 -37q35 0 56.5 25t39.5 76l133 -35q-14 -115 -71.5 -191.5t-157.5 -76.5q-55 0 -160 35.5t-156 35.5q-41 0 -59.5 -22.5t-34.5 -77.5z" />
<glyph unicode="&#x2000;" horiz-adv-x="972" />
<glyph unicode="&#x2001;" horiz-adv-x="1945" />
<glyph unicode="&#x2002;" horiz-adv-x="972" />
<glyph unicode="&#x2003;" horiz-adv-x="1945" />
<glyph unicode="&#x2004;" horiz-adv-x="647" />
<glyph unicode="&#x2005;" horiz-adv-x="485" />
<glyph unicode="&#x2006;" horiz-adv-x="323" />
<glyph unicode="&#x2007;" horiz-adv-x="323" />
<glyph unicode="&#x2008;" horiz-adv-x="241" />
<glyph unicode="&#x2009;" horiz-adv-x="389" />
<glyph unicode="&#x200a;" horiz-adv-x="106" />
<glyph unicode="&#x2010;" horiz-adv-x="661" d="M82 508v229h500v-229h-500z" />
<glyph unicode="&#x2011;" horiz-adv-x="661" d="M82 508v229h500v-229h-500z" />
<glyph unicode="&#x2012;" horiz-adv-x="661" d="M82 508v229h500v-229h-500z" />
<glyph unicode="&#x2013;" horiz-adv-x="944" d="M0 539v188h944v-188h-944z" />
<glyph unicode="&#x2014;" horiz-adv-x="1595" d="M0 539v188h1595v-188h-1595z" />
<glyph unicode="&#x2018;" horiz-adv-x="493" d="M100 868v299l99 293h149l-61 -274h106v-318h-293z" />
<glyph unicode="&#x2019;" horiz-adv-x="495" d="M147 868l62 275h-107v317h291v-299l-96 -293h-150z" />
<glyph unicode="&#x201a;" horiz-adv-x="493" d="M152 -215l51 233l-101 39l15 279l276 -41l-6 -303l-100 -250z" />
<glyph unicode="&#x201c;" horiz-adv-x="917" d="M100 868v299l99 293h149l-61 -274h106v-318h-293zM524 868v299l99 293h149l-61 -274h106v-318h-293z" />
<glyph unicode="&#x201d;" horiz-adv-x="917" d="M145 868l62 275h-105v317h291v-299l-98 -293h-150zM569 868l62 275h-107v317h293v-299l-98 -293h-150z" />
<glyph unicode="&#x201e;" horiz-adv-x="917" d="M145 -258l62 276h-105v318h291v-301l-98 -293h-150zM569 -258l62 276h-107v318h293v-301l-98 -293h-150z" />
<glyph unicode="&#x2022;" horiz-adv-x="884" d="M444 416q-131 0 -224 93t-93 224t93 223.5t224 92.5q129 0 221.5 -92.5t92.5 -223.5t-91.5 -224t-222.5 -93z" />
<glyph unicode="&#x2026;" horiz-adv-x="1413" d="M109 0v334h294v-334h-294zM561 0v334h293v-334h-293zM1012 0v334h293v-334h-293z" />
<glyph unicode="&#x202f;" horiz-adv-x="389" />
<glyph unicode="&#x2039;" horiz-adv-x="583" d="M362 174l-303 375l301 379l158 -92l-139 -287l145 -289z" />
<glyph unicode="&#x203a;" horiz-adv-x="583" d="M223 174l-160 92l140 287l-144 287l164 88l301 -375z" />
<glyph unicode="&#x205f;" horiz-adv-x="485" />
<glyph unicode="&#x20ac;" horiz-adv-x="1353" d="M758 -25q-225 0 -377 116t-152 337v76h-143v164h143v123h-143v161h143v76q0 205 155 331t374 126q213 0 362.5 -109.5t149.5 -312.5v-49h-307v45q0 84 -55.5 133t-147.5 49q-84 0 -136.5 -55.5t-52.5 -134.5v-99h340v-161h-340v-123h340v-164h-340v-86q0 -92 55.5 -145.5 t147.5 -53.5q88 0 138.5 49t50.5 135v31h307v-35q0 -205 -147.5 -314.5t-364.5 -109.5z" />
<glyph unicode="&#x2122;" horiz-adv-x="1323" d="M627 817v645h198l93 -260l88 260h198v-645h-149l-2 383l-82 -246h-111l-84 246v-383h-149zM236 817v504h-160v141h485v-141h-160v-504h-165z" />
<glyph unicode="&#xe000;" horiz-adv-x="1085" d="M0 1085h1085v-1085h-1085v1085z" />
<glyph unicode="&#xe38c;" horiz-adv-x="1296" d="M866 0v1085h316v-1085h-316zM866 1208v295h316v-295h-316zM199 0v819h-133v254h133v121q0 150 92 225.5t231 75.5q123 0 193 -22v-230q-41 10 -111 10q-92 0 -92 -75v-105h170v-254h-170v-819h-313z" />
<glyph unicode="&#xfb01;" horiz-adv-x="1296" d="M866 0v1085h316v-1085h-316zM866 1208v295h316v-295h-316zM199 0v819h-133v254h133v121q0 150 92 225.5t231 75.5q123 0 193 -22v-230q-41 10 -111 10q-92 0 -92 -75v-105h170v-254h-170v-819h-313z" />
<glyph unicode="&#xe38d;" horiz-adv-x="1386" d="M1149 -20q-137 0 -214 67.5t-77 192.5v1220h318v-1130q0 -39 18 -60.5t68 -21.5q37 0 73 6v-242q-94 -32 -186 -32zM199 0v819h-133v254h133v121q0 150 92 225.5t231 75.5q123 0 193 -22v-230q-41 10 -111 10q-92 0 -92 -75v-105h170v-254h-170v-819h-313z" />
<glyph unicode="&#xfb02;" horiz-adv-x="1386" d="M1149 -20q-137 0 -214 67.5t-77 192.5v1220h318v-1130q0 -39 18 -60.5t68 -21.5q37 0 73 6v-242q-94 -32 -186 -32zM199 0v819h-133v254h133v121q0 150 92 225.5t231 75.5q123 0 193 -22v-230q-41 10 -111 10q-92 0 -92 -75v-105h170v-254h-170v-819h-313z" />
<glyph unicode="&#xfb03;" horiz-adv-x="2050" d="M1622 0v1085h315v-1085h-315zM1622 1208v295h315v-295h-315zM953 0v819h-133v254h133v121q0 150 92 225.5t231 75.5q123 0 193 -22v-230q-41 10 -111 10q-92 0 -92 -75v-105h170v-254h-170v-819h-313zM199 0v819h-133v254h133v121q0 150 92 225.5t231 75.5q123 0 193 -22 v-230q-41 10 -111 10q-92 0 -92 -75v-105h170v-254h-170v-819h-313z" />
<glyph unicode="&#xfb04;" horiz-adv-x="2142" d="M1904 -20q-137 0 -214 67.5t-77 192.5v1220h318v-1130q0 -39 18.5 -60.5t67.5 -21.5q37 0 74 6v-242q-95 -32 -187 -32zM953 0v819h-133v254h133v121q0 150 92 225.5t231 75.5q123 0 193 -22v-230q-41 10 -111 10q-92 0 -92 -75v-105h170v-254h-170v-819h-313zM199 0v819 h-133v254h133v121q0 150 92 225.5t231 75.5q123 0 193 -22v-230q-41 10 -111 10q-92 0 -92 -75v-105h170v-254h-170v-819h-313z" />
<glyph horiz-adv-x="169" />
</font>
</defs>
</svg>
