<?xml version="1.0" standalone="no"?>
<!DOCTYPE svg PUBLIC "-//W3C//DTD SVG 1.1//EN" "http://www.w3.org/Graphics/SVG/1.1/DTD/svg11.dtd" >
<svg xmlns="http://www.w3.org/2000/svg">
<metadata>
This is a custom SVG webfont generated by Font Squirrel.
Copyright   : Copyright c 2008 by Mrio Feliciano All rights reserved
Designer    : Mrio Feliciano
Foundry     : Mrio Feliciano  Feliciano Type Foundry
Foundry URL : wwwfelicianotypefoundrycom
</metadata>
<defs>
<font id="webfontBoRoSAAg" horiz-adv-x="1105" >
<font-face units-per-em="2048" ascent="1638" descent="-410" />
<missing-glyph horiz-adv-x="368" />
<glyph unicode=" "  horiz-adv-x="368" />
<glyph unicode="&#x09;" horiz-adv-x="368" />
<glyph unicode="&#xa0;" horiz-adv-x="368" />
<glyph unicode="!" horiz-adv-x="514" d="M186 426l-39 522v512h220v-512l-41 -522h-140zM150 0v276h212v-276h-212z" />
<glyph unicode="&#x22;" horiz-adv-x="813" d="M160 956l-31 273v233h215v-233l-29 -273h-155zM498 956l-29 273v233h215v-233l-29 -273h-157z" />
<glyph unicode="#" horiz-adv-x="1087" d="M195 -4l51 387h-193l19 139h188l66 453h-199l18 135h195l51 354h123l-45 -354h258l47 354h125l-47 -354h190l-16 -135h-188l-64 -453h197l-15 -139h-198l-49 -387h-129l49 387h-256l-51 -387h-127zM389 522h256l68 453h-260z" />
<glyph unicode="$" horiz-adv-x="1046" d="M434 -98v161q-217 18 -381 166l137 150q84 -66 156 -97.5t182 -31.5q96 0 150.5 43t54.5 119q0 72 -43 115.5t-127 76.5q0 2 -87 40t-89 38q-252 119 -252 348q0 129 80 227.5t219 128.5v156h197v-143q180 -18 315 -121l-117 -162q-158 100 -282 101q-86 0 -140.5 -41 t-54.5 -115q0 -111 168 -182l168 -76q276 -125 277 -357q0 -154 -91.5 -252t-242.5 -124v-168h-197z" />
<glyph unicode="%" horiz-adv-x="1509" d="M362 702q-117 0 -193.5 66t-76.5 184v285q0 119 78 184.5t190 65.5q115 0 194 -64.5t79 -187.5v-287q0 -113 -81 -179.5t-190 -66.5zM362 829q53 0 84 32t31 77v317q0 43 -30.5 74t-84.5 31q-55 0 -84.5 -31t-29.5 -74v-319q0 -47 29.5 -77t84.5 -30zM326 -6l743 1483 h129l-741 -1483h-131zM1135 -23q-113 0 -191 64.5t-78 181.5v279q0 119 79 189.5t190 70.5q115 0 192.5 -64.5t77.5 -185.5v-285q0 -115 -80.5 -182.5t-189.5 -67.5zM1134.5 106q55.5 0 85 33t29.5 76v317q0 43 -30.5 74t-84 31t-83 -31t-29.5 -74v-319q0 -47 28.5 -77 t84 -30z" />
<glyph unicode="&#x26;" horiz-adv-x="1402" d="M535 -31q-195 0 -313 114t-118 296q0 137 85 254t233 174q-141 172 -141 328q0 63 21.5 122.5t65.5 112.5t123.5 85t186.5 32q168 0 276.5 -90t108.5 -226q0 -139 -86 -242.5t-236 -164.5l265 -338q39 80 77 266l203 -30q-41 -211 -162 -383l228 -279h-287l-117 150 q-167 -181 -413 -181zM586 164q147 0 256 108l-320 408q-98 -39 -146 -113.5t-48 -160.5q0 -106 71.5 -174t186.5 -68zM647 883q201 90 201 272q0 78 -47 122t-129 44q-80 0 -124 -49t-44 -121q0 -35 21.5 -81t42.5 -77z" />
<glyph unicode="'" horiz-adv-x="473" d="M160 956l-31 273v233h215v-233l-29 -273h-155z" />
<glyph unicode="(" horiz-adv-x="528" d="M369 -369q-121 176 -190.5 434.5t-69.5 495.5q0 244 67.5 485.5t192.5 430.5l133 -4q-104 -266 -148.5 -455t-44.5 -457q0 -475 195 -923z" />
<glyph unicode=")" horiz-adv-x="528" d="M160 -369l-135 7q195 449 194 923q0 268 -44 456.5t-148 455.5l133 4q125 -188 192.5 -430t67.5 -486q0 -238 -69.5 -496t-190.5 -434z" />
<glyph unicode="*" horiz-adv-x="806" d="M236 784l-111 72l158 225l-240 140l68 106l227 -131v264h131v-264l225 131l70 -106l-242 -140l160 -225l-111 -72l-168 236z" />
<glyph unicode="+" d="M481 223v355h-340v145h340v354h146v-354h338v-145h-338v-355h-146z" />
<glyph unicode="," horiz-adv-x="495" d="M139 -272l84 284h-92v264h231v-253l-112 -295h-111z" />
<glyph unicode="-" horiz-adv-x="636" d="M90 528v172h457v-172h-457z" />
<glyph unicode="." horiz-adv-x="495" d="M131 0v276h231v-276h-231z" />
<glyph unicode="/" horiz-adv-x="641" d="M-12 -367l446 1837h152l-441 -1837h-157z" />
<glyph unicode="0" horiz-adv-x="1134" d="M569 -25q-195 0 -327.5 100.5t-132.5 291.5v723q0 190 134 292.5t322 102.5q201 0 329 -99.5t128 -293.5v-723q0 -188 -133.5 -291t-319.5 -103zM569 168q109 0 161 56.5t52 148.5v727q0 80 -58 137t-157 57q-100 0 -159.5 -57t-59.5 -141v-721q0 -98 57.5 -152.5 t163.5 -54.5z" />
<glyph unicode="1" horiz-adv-x="716" d="M264 0v1243l-160 -43l-18 178l281 86h129v-1464h-232z" />
<glyph unicode="2" horiz-adv-x="1005" d="M115 0v133l291 393q125 180 188 308.5t63 238.5v31q0 188 -188 188q-180 0 -180 -168v-57h-215v51q0 178 117.5 272.5t306.5 94.5q197 0 295 -105.5t98 -281.5q0 -170 -83 -335t-237 -362l-145 -192v-4h494v-205h-805z" />
<glyph unicode="3" horiz-adv-x="1067" d="M541 -25q-211 0 -325 94.5t-114 254.5v71h220v-49q0 -86 60 -135t153 -49q115 0 158.5 60.5t43.5 189.5q0 70 -24.5 121t-64.5 74.5t-74.5 33.5t-67.5 10h-131v189h117q223 0 223 235q0 109 -55.5 163t-141.5 54q-190 0 -190 -172v-55h-215v57q0 168 115.5 265.5 t310 97.5t297 -106.5t102.5 -272.5q0 -125 -55.5 -221.5t-163.5 -126.5v-6q115 -27 185.5 -126.5t70.5 -222.5q0 -197 -127 -312.5t-307 -115.5z" />
<glyph unicode="4" d="M659 0v346h-575v180l477 934h248l-498 -923h348v243l222 127v-370h155v-191h-155v-346h-222z" />
<glyph unicode="5" horiz-adv-x="1071" d="M532 -25q-193 0 -304 94.5t-111 239.5v86h221v-55q0 -80 58.5 -130t148.5 -50q205 0 205 221v172q0 199 -203 199q-100 0 -193 -88l-207 20l39 778h721v-207h-538l-19 -421q115 102 285 102q145 0 244.5 -88t99.5 -262v-234q0 -176 -128.5 -276.5t-318.5 -100.5z" />
<glyph unicode="6" horiz-adv-x="1095" d="M543 -25q-188 0 -310 105.5t-122 281.5v728q0 188 128 292.5t320 104.5q188 0 302 -91t114 -245v-82h-234v66q0 78 -53 121.5t-141 43.5q-96 0 -146.5 -54t-50.5 -140v-354q43 78 126 123t183 45q143 0 234.5 -97.5t91.5 -234.5v-236q0 -172 -126 -274.5t-316 -102.5z M555 162q96 0 149.5 53t53.5 129v223q0 98 -54.5 140.5t-134.5 42.5q-90 0 -154.5 -69t-64.5 -169v-154q0 -80 54.5 -138t150.5 -58z" />
<glyph unicode="7" horiz-adv-x="991" d="M238 0q2 383 134 736.5t277 520.5h-606v205h848v-168q-201 -238 -304.5 -591t-101.5 -703h-247z" />
<glyph unicode="8" horiz-adv-x="1120" d="M559 -25q-203 0 -325.5 91.5t-122.5 263.5v133q0 96 54 171t140 109q-82 29 -130 102t-48 152v133q0 168 125 261.5t307 93.5q186 0 309 -89t123 -257v-129q0 -86 -48 -160t-132 -105q86 -31 142.5 -104.5t56.5 -169.5v-143q0 -166 -127 -259.5t-324 -93.5zM559 160 q98 0 156.5 48t58.5 134v133q0 90 -64.5 139.5t-150.5 49.5t-149.5 -49.5t-63.5 -131.5v-147q0 -80 60.5 -128t152.5 -48zM561 825q84 0 145.5 50.5t61.5 128.5v126q0 82 -63.5 126t-149.5 44q-78 0 -139.5 -47t-61.5 -123v-129q0 -84 62.5 -130t144.5 -46z" />
<glyph unicode="9" horiz-adv-x="1093" d="M537 -25q-188 0 -303 91.5t-115 242.5v86h233v-65q0 -78 53.5 -122t141.5 -44q96 0 147 53t51 139v344q-102 -160 -309 -159q-150 0 -237.5 101t-87.5 243v235q0 172 123.5 269.5t316.5 97.5q188 0 310 -105.5t122 -281.5v-723q0 -188 -126.5 -295t-319.5 -107zM524 713 q90 0 155.5 68.5t65.5 168.5v156q0 80 -55 138.5t-149 58.5q-96 0 -150.5 -54.5t-54.5 -130.5v-221q0 -100 55 -142t133 -42z" />
<glyph unicode=":" horiz-adv-x="495" d="M131 0v276h231v-276h-231zM131 766v276h231v-276h-231z" />
<glyph unicode=";" horiz-adv-x="495" d="M139 -272l84 284h-92v264h231v-253l-112 -295h-111zM131 766v276h231v-276h-231z" />
<glyph unicode="&#x3c;" d="M881 236l-731 352v129l735 344l71 -152l-546 -256l546 -266z" />
<glyph unicode="=" d="M135 389v174h834v-174h-834zM135 731v172h834v-172h-834z" />
<glyph unicode="&#x3e;" d="M225 238l-75 151l548 266l-551 254l76 152l733 -344v-129z" />
<glyph unicode="?" horiz-adv-x="995" d="M360 426v66q6 96 40 164.5t100 142.5q4 6 30.5 33.5t32.5 34.5l28 33q22 26 28 38t20 35.5t18 41.5l10 41q5 24 5 48q0 90 -50.5 141t-138.5 51q-76 0 -127 -47t-51 -135v-27h-196v23q0 176 110.5 273.5t282.5 97.5q186 0 288.5 -97.5t102.5 -273.5q2 -199 -180 -373 q-8 -10 -32 -34l-35 -34q-11 -11 -28.5 -35t-26.5 -42.5t-17.5 -43t-10.5 -50.5v-72h-203zM350 0v276h230v-276h-230z" />
<glyph unicode="@" horiz-adv-x="1810" d="M956 -307q-285 0 -489 108q-373 199 -367 678q2 393 248 646t627 253q334 0 535.5 -181t201.5 -497q0 -281 -156.5 -443.5t-365.5 -188.5h-197l29 159h-6q-119 -182 -289 -182q-115 0 -179.5 58.5t-64.5 164.5q0 39 6 66q18 131 66 403q25 143 124 222t226 79 q78 0 138.5 -36.5t78.5 -110.5h2l23 135h203l-133 -803q150 29 242.5 162t92.5 328q0 137 -52 242.5t-140 164t-187.5 87t-207.5 28.5q-307 0 -499 -209t-192 -539q0 -393 285 -550q162 -88 399 -89q45 0 88 4l69 5q28 2 72 10t57 11l65.5 14.5t60.5 13.5l29 -139 q-191 -74 -443 -74zM811 203q82 0 153.5 72.5t90.5 177.5l32 206q4 33 5 50q0 86 -40 133t-108 47q-80 0 -129 -54.5t-63 -146.5l-47 -305q-6 -37 -7 -53q0 -66 22.5 -96.5t90.5 -30.5z" />
<glyph unicode="A" horiz-adv-x="1243" d="M47 0l434 1464h287l430 -1464h-242l-108 391h-469l-109 -391h-223zM430 578h365l-179 647h-4z" />
<glyph unicode="B" horiz-adv-x="1212" d="M147 0v1460h562q178 0 278 -96t100 -264q0 -129 -69.5 -226.5t-181.5 -121.5v-4q127 -25 199.5 -122.5t72.5 -226.5q0 -188 -108.5 -293.5t-284.5 -105.5h-568zM387 190h254q102 0 161.5 61.5t59.5 176.5q0 111 -66.5 164t-174.5 53h-234v-455zM387 840h225q102 0 169 57 t67 170q0 102 -58.5 154.5t-154.5 52.5h-248v-434z" />
<glyph unicode="C" horiz-adv-x="1202" d="M625 -25q-225 0 -368.5 115t-143.5 338v606q0 209 144 330t366 121q205 0 339 -109.5t134 -292.5v-96h-215v68q0 104 -69 168.5t-191 64.5q-125 0 -196 -70.5t-71 -191.5v-582q0 -135 73 -202.5t200 -67.5q117 0 185.5 61.5t68.5 161.5v78h215v-94q0 -188 -133 -297 t-338 -109z" />
<glyph unicode="D" horiz-adv-x="1245" d="M147 0v1460h512q213 0 344.5 -105.5t131.5 -312.5v-600q0 -217 -131.5 -329.5t-344.5 -112.5h-512zM389 197h244q127 0 192.5 75.5t65.5 176.5v565q0 111 -65.5 180.5t-192.5 69.5h-244v-1067z" />
<glyph unicode="E" horiz-adv-x="1116" d="M147 0v1460h865v-203h-623v-409h496v-201h-496v-442h625v-205h-867z" />
<glyph unicode="F" horiz-adv-x="1083" d="M147 0v1460h865v-196h-623v-424h494v-197h-494v-643h-242z" />
<glyph unicode="G" horiz-adv-x="1220" d="M623 -25q-223 0 -366.5 115t-143.5 338v600q0 211 144 335t366 124q207 0 344 -106.5t137 -288.5v-95h-219v70q0 102 -72 164.5t-188 62.5q-127 0 -200 -74.5t-73 -195.5v-586q0 -125 73 -196.5t202 -71.5q254 0 254 229v205h-263v180h490v-401q-2 -188 -138 -298 t-347 -110z" />
<glyph unicode="H" horiz-adv-x="1300" d="M147 0v1460h242v-602h524v602h240v-1460h-240v643h-524v-643h-242z" />
<glyph unicode="I" horiz-adv-x="536" d="M147 0v1460h242v-1460h-242z" />
<glyph unicode="J" horiz-adv-x="1116" d="M520 -25q-223 0 -345 103.5t-122 316.5v129h230v-121q0 -233 231 -233q121 0 175 67.5t54 165.5v1057h240v-1028q0 -209 -120 -333t-343 -124z" />
<glyph unicode="K" horiz-adv-x="1230" d="M147 0v1460h242v-717l524 717h256l-424 -567l416 -893h-266l-324 702l-182 -249v-453h-242z" />
<glyph unicode="L" horiz-adv-x="1093" d="M147 0v1460h242v-1255h625v-205h-867z" />
<glyph unicode="M" horiz-adv-x="1490" d="M147 0v1460h312l295 -696h6l295 696h288v-1460h-215v1141h-4l-297 -715h-161l-299 713h-7v-1139h-213z" />
<glyph unicode="N" horiz-adv-x="1302" d="M147 0v1460h240l553 -977h4v977h215v-1460h-205l-587 1047h-5v-1047h-215z" />
<glyph unicode="O" horiz-adv-x="1251" d="M627 -25q-229 0 -371.5 116t-142.5 349v566q0 227 143 354t369 127q227 0 371.5 -117t144.5 -348v-565q0 -233 -144.5 -357.5t-369.5 -124.5zM629 178q125 0 196.5 75t71.5 196v577q0 121 -74.5 190.5t-201.5 69.5t-197 -75.5t-70 -202.5v-559q0 -125 72 -198t203 -73z " />
<glyph unicode="P" horiz-adv-x="1181" d="M147 0v1460h506q211 0 321.5 -124t110.5 -318q0 -211 -116.5 -341t-337.5 -130h-242v-547h-242zM389 733h195q127 0 196.5 72t69.5 205q0 115 -62.5 186.5t-175.5 71.5h-223v-535z" />
<glyph unicode="Q" horiz-adv-x="1251" d="M1063 -209l-336 195q-55 -10 -100 -11q-229 0 -371.5 116t-142.5 349v566q0 227 143 354t369 127q227 0 371.5 -117t144.5 -348v-565q0 -252 -166 -359l209 -104zM629 178q125 0 196.5 75t71.5 196v577q0 121 -74.5 190.5t-201.5 69.5t-197 -75.5t-70 -202.5v-559 q0 -125 72 -198t203 -73z" />
<glyph unicode="R" horiz-adv-x="1230" d="M147 0v1460h502q221 0 338 -116.5t117 -313.5q0 -158 -74 -267.5t-215 -144.5l332 -618h-260l-299 578h-199v-578h-242zM389 764h219q258 0 258 254q0 119 -61.5 184.5t-186.5 65.5h-229v-504z" />
<glyph unicode="S" horiz-adv-x="1150" d="M563 -25q-311 0 -497 170l122 172q92 -68 179.5 -103.5t216.5 -35.5q102 0 170.5 55.5t68.5 141.5t-54 139t-153 92l-204 82q-276 111 -277 385q0 174 125 293t336 119q258 0 422 -139l-125 -172q-166 119 -309 118q-100 0 -162 -48t-62 -138q0 -74 45.5 -122t141.5 -89 l192 -82q324 -137 324 -397q0 -199 -144.5 -320t-355.5 -121z" />
<glyph unicode="T" horiz-adv-x="1134" d="M449 0v1264h-400v196h1036v-196h-395v-1264h-241z" />
<glyph unicode="U" horiz-adv-x="1280" d="M633 -25q-223 0 -360.5 113t-137.5 344v1028h242v-1009q0 -143 76.5 -211t193.5 -68q123 0 195 74q68 70 68 185q0 7 -1 13v1016h232v-1020q2 -219 -141.5 -342t-366.5 -123z" />
<glyph unicode="V" horiz-adv-x="1159" d="M451 -6l-406 1466h246l299 -1163h4l297 1163h223l-407 -1466h-256z" />
<glyph unicode="W" horiz-adv-x="1654" d="M360 -6l-305 1466h236l198 -1042h7l219 1042h252l211 -1038h4l194 1038h223l-307 -1466h-233l-225 1087h-9l-229 -1087h-236z" />
<glyph unicode="X" horiz-adv-x="1118" d="M35 0l377 752l-349 708h261l247 -524l246 524h238l-353 -706l381 -754h-252l-284 569l-277 -569h-235z" />
<glyph unicode="Y" horiz-adv-x="1130" d="M444 0v602l-401 858h254l283 -637l280 637h227l-401 -860v-600h-242z" />
<glyph unicode="Z" horiz-adv-x="1075" d="M92 0v147l615 1121h-603v192h885v-166l-608 -1097h600v-197h-889z" />
<glyph unicode="[" horiz-adv-x="591" d="M176 -360v1820h369v-145h-164v-1532h164v-143h-369z" />
<glyph unicode="\" horiz-adv-x="641" d="M492 -367l-441 1837h152l444 -1837h-155z" />
<glyph unicode="]" horiz-adv-x="591" d="M45 -360v143h164v1532h-164v145h371v-1820h-371z" />
<glyph unicode="^" horiz-adv-x="940" d="M195 352l204 817h162l184 -817h-145l-123 611q-133 -606 -135 -611h-147z" />
<glyph unicode="_" horiz-adv-x="944" d="M0 -225v149h944v-149h-944z" />
<glyph unicode="`" horiz-adv-x="569" d="M285 1188l-236 311h227l179 -311h-170z" />
<glyph unicode="a" horiz-adv-x="1019" d="M381 -23q-127 0 -213 79t-86 227q0 121 70.5 202.5t164 113.5t195.5 32h154v145q0 74 -46.5 113t-127.5 39q-80 0 -128.5 -39t-48.5 -107v-53h-202v64q0 137 113.5 215.5t285.5 78.5q166 0 273.5 -78.5t107.5 -234.5v-516q0 -43 10 -258h-207q0 8 -1 28l-3 56 q-2 37 -4 68h-8q-47 -96 -131 -135.5t-168 -39.5zM471 145q80 0 137.5 62.5t57.5 154.5v123h-136q-221 0 -221 -170q0 -84 45 -127t117 -43z" />
<glyph unicode="b" horiz-adv-x="1060" d="M629 -25q-82 0 -168 51.5t-119 133.5h-4l-6 -160h-197v1460h223v-551h7q43 84 126.5 132.5t165.5 48.5q147 0 223 -98.5t76 -241.5v-418q0 -156 -93 -256.5t-234 -100.5zM578 137q74 0 114.5 48t40.5 141v413q0 172 -168 172q-78 0 -142.5 -71.5t-64.5 -186.5v-260 q0 -106 68 -181t152 -75z" />
<glyph unicode="c" horiz-adv-x="978" d="M508 -25q-180 0 -292 97.5t-112 285.5v336q0 186 115 289.5t289 103.5q176 0 281.5 -88t105.5 -235v-62h-207v48q0 66 -42 113.5t-130 47.5q-186 0 -186 -200v-359q0 -203 192 -202q90 0 128 53t38 119v40h207v-67q0 -143 -106.5 -231.5t-280.5 -88.5z" />
<glyph unicode="d" horiz-adv-x="1060" d="M403 -25q-147 0 -223 96.5t-76 241.5v426q0 152 95.5 250t234.5 98q76 0 147.5 -39.5t116.5 -105.5h2v518h226v-1460h-205l-10 170h-6q-51 -94 -130.5 -144.5t-171.5 -50.5zM489 152q84 0 148.5 73.5t64.5 182.5v272q0 102 -69.5 174t-149.5 72q-156 0 -155 -195v-405 q-1 -174 161 -174z" />
<glyph unicode="e" horiz-adv-x="1009" d="M524 -25q-190 0 -305 96.5t-115 295.5v295q0 201 119 313t297 112q180 0 286.5 -104t106.5 -285v-227h-583v-102q0 -209 233 -209q109 0 264 69l60 -151q-138 -103 -363 -103zM330 629h368v88q0 86 -44 144.5t-140 58.5q-88 0 -136 -57.5t-48 -139.5v-94z" />
<glyph unicode="f" horiz-adv-x="681" d="M201 0v874h-142v181h142v135q0 141 78.5 215t216.5 74q80 0 143 -15v-176q-31 10 -107 10q-109 0 -108 -108v-135h192v-181h-192v-874h-223z" />
<glyph unicode="g" horiz-adv-x="1054" d="M494 -385q-233 0 -381 78l67 178q158 -74 295 -74q227 0 227 199v225h-2q-43 -92 -120.5 -139t-163.5 -47q-150 0 -231 86t-81 225v416q0 147 99.5 237.5t238.5 90.5q84 0 165 -46.5t118 -125.5h2l8 147h191v-1024q0 -205 -112.5 -315.5t-319.5 -110.5zM487 203 q82 0 147.5 81t65.5 193v215q0 100 -66.5 168t-141.5 68q-164 0 -164 -201v-344q-1 -180 159 -180z" />
<glyph unicode="h" horiz-adv-x="1077" d="M135 0v1460h223v-553h4q45 88 130.5 134t183.5 46q121 0 197.5 -82.5t76.5 -209.5v-795h-223v743q0 86 -35 127t-116.5 41t-149.5 -69.5t-68 -169.5v-672h-223z" />
<glyph unicode="i" horiz-adv-x="491" d="M135 0v1063h223v-1063h-223zM135 1206v254h223v-254h-223z" />
<glyph unicode="j" horiz-adv-x="505" d="M109 -385q-66 0 -113 8v182q20 -4 53 -4q63 0 83 33t20 100v1129h223v-1169q0 -139 -70.5 -209t-195.5 -70zM152 1206v254h223v-254h-223z" />
<glyph unicode="k" horiz-adv-x="995" d="M135 0v1460h223v-868l340 471h250l-272 -356l274 -707h-237l-201 539l-154 -207v-332h-223z" />
<glyph unicode="l" horiz-adv-x="589" d="M379 -16q-119 0 -185.5 61t-66.5 176v1239h225v-1188q0 -100 107 -100q31 0 80 8v-170q-78 -26 -160 -26z" />
<glyph unicode="m" horiz-adv-x="1665" d="M135 0v1063h213v-170h4q94 195 324 194q94 0 164.5 -55t95.5 -135h4q104 190 324 190q117 0 197.5 -79.5t80.5 -206.5v-801h-223v754q0 158 -152 157q-80 0 -147.5 -66.5t-69.5 -164.5v-680h-223v760q-2 152 -152 151q-82 0 -149.5 -69.5t-67.5 -169.5v-672h-223z" />
<glyph unicode="n" horiz-adv-x="1073" d="M135 0v1063h213v-168h4q98 193 324 192q115 0 194.5 -83.5t79.5 -208.5v-795h-223v750q0 84 -37 122.5t-115 38.5q-82 0 -149.5 -69.5t-67.5 -169.5v-672h-223z" />
<glyph unicode="o" horiz-adv-x="1036" d="M518 -25q-182 0 -298 98.5t-116 291.5v325q0 188 116 292.5t294 104.5q184 0 301 -99t117 -292v-327q0 -195 -117 -294.5t-297 -99.5zM520 152q186 0 187 208v349q0 92 -48.5 148t-142.5 56t-140 -58t-46 -155v-342q0 -96 47 -151t143 -55z" />
<glyph unicode="p" horiz-adv-x="1060" d="M135 -367v1430h213v-168h4q49 96 133 145.5t170 49.5q145 0 223 -96.5t78 -239.5v-416q0 -158 -90 -260.5t-237 -102.5q-80 0 -157 44t-110 118h-4v-504h-223zM578 137q156 0 155 187v413q0 174 -168 174q-86 0 -146.5 -74.5t-60.5 -193.5v-242q0 -113 68 -188.5 t152 -75.5z" />
<glyph unicode="q" horiz-adv-x="1054" d="M702 -367v529h-4q-53 -90 -134 -138.5t-161 -48.5q-145 0 -222 96.5t-77 241.5v426q0 156 96.5 252t237.5 96q82 0 164 -46t119 -123h4l10 147h191v-1432h-224zM479 152q80 0 151.5 73.5t71.5 186.5v258q0 109 -66.5 182.5t-152.5 73.5q-156 0 -155 -195v-416 q-1 -163 151 -163z" />
<glyph unicode="r" horiz-adv-x="743" d="M135 0v1063h213v-176h2q51 100 113.5 144t154.5 44q51 0 84 -8v-197q-45 6 -96 7q-98 0 -172 -54.5t-76 -175.5v-647h-223z" />
<glyph unicode="s" horiz-adv-x="925" d="M459 -25q-262 0 -404 154l119 150q147 -127 289 -127q84 0 131 34.5t47 94.5q0 63 -43 96t-129 59l-102 33q-250 78 -250 303q0 125 94 220t262 95q217 0 344 -120l-106 -152q-127 94 -240 94q-70 0 -111 -27.5t-41 -78.5q0 -53 30 -82t100 -53l137 -47 q127 -45 196.5 -128t69.5 -192q0 -147 -114.5 -236.5t-278.5 -89.5z" />
<glyph unicode="t" horiz-adv-x="751" d="M483 -18q-260 0 -260 233v659h-157v179h157v284h226v-284h256v-179h-256v-589q0 -106 116 -107q51 0 117 19v-181q-99 -34 -199 -34z" />
<glyph unicode="u" horiz-adv-x="1071" d="M418 -25q-121 0 -205 77t-84 214v797h223v-737q0 -88 33 -131t115 -43q90 0 155.5 72.5t65.5 176.5v662h223v-1063h-209l-6 170h-4q-35 -84 -121 -139.5t-186 -55.5z" />
<glyph unicode="v" horiz-adv-x="958" d="M369 -2l-328 1065h240l204 -754h4l213 754h213l-333 -1065h-213z" />
<glyph unicode="w" horiz-adv-x="1425" d="M309 -2l-256 1065h232l143 -692h8l180 692h220l174 -692h6l153 692h205l-264 -1065h-203l-188 788h-6l-197 -788h-207z" />
<glyph unicode="x" horiz-adv-x="935" d="M25 0l321 547l-289 516h240l197 -365l190 365h217l-295 -512l305 -551h-237l-215 399l-215 -399h-219z" />
<glyph unicode="y" horiz-adv-x="962" d="M236 -387q-74 0 -144 16v185q68 -14 119 -15q104 0 139 103l35 121l-346 1040h235l228 -756h2l219 756h203l-367 -1169q-85 -281 -323 -281z" />
<glyph unicode="z" horiz-adv-x="911" d="M86 0v141l475 750h-463v172h727l-2 -148l-465 -741h467v-174h-739z" />
<glyph unicode="{" horiz-adv-x="585" d="M322 -360q-70 0 -112 42t-42 125v599q0 57 -18.5 82.5t-65.5 29.5v139q51 10 67.5 31t16.5 66v534q0 84 42 128t114 44h219v-131h-150q-39 0 -39 -47v-512q0 -135 -88 -170v-8q53 -23 70.5 -58.5t17.5 -111.5v-606q0 -45 39 -45h150v-131h-221z" />
<glyph unicode="|" horiz-adv-x="552" d="M207 -106v1579h139v-1579h-139z" />
<glyph unicode="}" horiz-adv-x="585" d="M43 -360v131h150q39 0 38 45v606q0 76 17.5 111.5t70.5 58.5v8q-88 35 -88 170v516q0 45 -38 45h-150v131h219q72 0 114 -43t42 -127v-538q0 -45 15.5 -65.5t66.5 -31.5v-139q-47 -4 -64.5 -29.5t-17.5 -82.5v-599q0 -84 -42 -125.5t-114 -41.5h-219z" />
<glyph unicode="~" d="M221 510l-106 20q16 98 64 162t134 64q53 0 240.5 -34t241.5 -34q59 0 92 94l104 -24q-37 -227 -196 -228q-51 0 -242 35t-244 35q-39 0 -56.5 -21.5t-31.5 -68.5z" />
<glyph unicode="&#xa1;" horiz-adv-x="514" d="M147 -328v514l39 523h140l41 -523v-514h-220zM150 858v275h215v-275h-215z" />
<glyph unicode="&#xa2;" horiz-adv-x="1007" d="M438 -131v156q-154 16 -240.5 111t-86.5 261v328q0 164 90 263t237 120v152h172v-152q141 -20 218 -102t77 -203v-76h-203v66q0 68 -43 114.5t-135 46.5q-96 0 -143 -59t-47 -154v-346q0 -217 190 -217q92 0 135 48t43 116v68h203v-84q0 -123 -76.5 -203t-218.5 -98v-156 h-172z" />
<glyph unicode="&#xa3;" horiz-adv-x="1120" d="M92 0v188h146v471h-123v140h123v301q0 195 118.5 290t288.5 95q162 0 262.5 -84t100.5 -242v-100h-193v100q0 154 -172 154q-80 0 -129 -47t-49 -138v-329h358v-140h-358v-471h579l-40 -188h-912z" />
<glyph unicode="&#xa4;" horiz-adv-x="796" d="M160 383l-76 76l82 84q-55 78 -55 168q0 86 49 157l-84 84l74 74l81 -80q80 53 166 53t158 -47l84 84l76 -75l-82 -82q55 -78 55 -170q0 -86 -51 -160l84 -82l-74 -76l-82 82q-78 -51 -166 -51q-84 0 -157 45zM397 518q86 0 133.5 54.5t47.5 138.5q0 82 -50.5 137 t-128.5 55q-86 0 -133 -54t-47 -142q0 -76 50 -132.5t128 -56.5z" />
<glyph unicode="&#xa5;" horiz-adv-x="1116" d="M436 0v520h-332v152h295l-364 788h254l282 -633l277 633h235l-364 -788h297v-152h-336v-520h-244z" />
<glyph unicode="&#xa6;" horiz-adv-x="561" d="M205 -100v743h151v-743h-151zM205 780v682h151v-682h-151z" />
<glyph unicode="&#xa7;" horiz-adv-x="968" d="M469 -160q-94 0 -175 25.5t-144.5 97.5t-63.5 180v60h174v-27q0 -88 60.5 -142t171.5 -54q96 0 150 51t54 125q0 51 -29.5 88t-57 50t-81.5 34q-70 20 -161 51q-258 84 -258 289q0 72 40.5 140.5t116.5 115.5q-82 45 -115.5 101t-33.5 140q0 133 96 220.5t272 87.5 q168 0 267.5 -79t99.5 -223v-53h-164v51q0 72 -53 119t-145.5 47t-146.5 -42t-54 -115q0 -104 145 -160l178 -66q119 -41 192 -105.5t73 -176.5q0 -162 -164 -254q170 -84 168 -240q0 -147 -115 -241.5t-297 -94.5zM557 489q63 20 100 63.5t37 98.5q0 94 -137 148 q-123 45 -147 51q-51 -25 -88 -71t-37 -103q0 -55 43 -91t94 -53z" />
<glyph unicode="&#xa8;" horiz-adv-x="770" d="M113 1223v254h190v-254h-190zM467 1223v254h190v-254h-190z" />
<glyph unicode="&#xa9;" horiz-adv-x="1720" d="M864 156q-168 0 -269 90t-101 260v401q0 166 103 258t267 92q158 0 256.5 -78.5t98.5 -213.5v-113h-177v104q0 57 -43 102.5t-131 45.5q-94 0 -139 -56.5t-45 -146.5v-391q0 -199 184 -199q88 0 131 45t43 103v108h177v-118q0 -135 -99.5 -214t-255.5 -79zM858 -100 q-352 0 -550.5 228t-198.5 587q0 340 208.5 573.5t540.5 233.5q231 0 405.5 -111t262.5 -293t88 -403q0 -225 -88 -408.5t-262.5 -295t-405.5 -111.5zM862 4q266 0 444.5 196.5t178.5 514.5q0 324 -180.5 515t-446.5 191q-268 0 -444 -193.5t-176 -512.5q0 -328 176 -519.5 t448 -191.5z" />
<glyph unicode="&#xaa;" horiz-adv-x="718" d="M270 770q-84 0 -140 51t-56 146q0 115 88 169t200 54h91v88q0 92 -105 92q-47 0 -75.5 -23.5t-28.5 -60.5v-37h-148v39q0 92 76 144.5t190 52.5q111 0 181.5 -52.5t70.5 -154.5v-332q0 -63 9 -162h-152q0 35 -6 93q-60 -107 -195 -107zM338 887q45 0 80 34.5t35 88.5v90 h-84q-127 0 -127 -109q0 -104 96 -104zM115 530v148h501v-148h-501z" />
<glyph unicode="&#xab;" horiz-adv-x="997" d="M358 188l-282 361l280 362l123 -80l-170 -282l176 -285zM795 188l-283 361l281 362l122 -80l-170 -282l177 -285z" />
<glyph unicode="&#xac;" horiz-adv-x="1124" d="M850 311v260h-762v142h920v-402h-158z" />
<glyph unicode="&#xad;" horiz-adv-x="636" d="M90 528v172h457v-172h-457z" />
<glyph unicode="&#xae;" horiz-adv-x="1046" d="M520 606q-201 0 -320.5 133t-119.5 330t124 330t318 133q199 0 322 -131t123 -332q0 -195 -124 -329t-323 -134zM520 684q145 0 252 106.5t107 278.5q0 174 -105.5 281.5t-253 107.5t-249 -106.5t-101.5 -282.5q0 -172 104.5 -278.5t245.5 -106.5zM344 807v547h201 q86 0 133 -46t47 -120q0 -123 -113 -162l133 -219h-110l-121 205h-68v-205h-102zM446 1090h80q98 0 99 92q0 39 -26 64.5t-73 25.5h-80v-182z" />
<glyph unicode="&#xaf;" horiz-adv-x="815" d="M104 1233v160h607v-160h-607z" />
<glyph unicode="&#xb0;" horiz-adv-x="610" d="M303 1065q-96 0 -157.5 63.5t-61.5 151.5q0 90 63.5 154.5t155.5 64.5q98 0 160.5 -63.5t62.5 -151.5q0 -90 -64.5 -154.5t-158.5 -64.5zM303 1159q49 0 84 36t35 85q0 51 -34 88t-85 37q-49 0 -81 -36t-32 -89q0 -49 33 -85t80 -36z" />
<glyph unicode="&#xb1;" d="M481 377v315h-340v148h340v325h146v-325h338v-148h-338v-315h-146zM141 86v147h822v-147h-822z" />
<glyph unicode="&#xb2;" horiz-adv-x="655" d="M92 778v103l195 215q139 170 139 264v6q0 104 -98 104q-100 0 -101 -102v-31h-153v43q0 104 70.5 161.5t185.5 57.5q121 0 187.5 -63t66.5 -168q0 -66 -30 -133.5t-60.5 -106t-94.5 -112.5l-90 -109h285v-129h-502z" />
<glyph unicode="&#xb3;" horiz-adv-x="677" d="M336 754q-129 0 -197.5 58t-68.5 157v32h153v-26q0 -45 31 -69.5t78 -24.5q109 0 108 125q0 66 -36.5 94t-77.5 28h-74v111h61q117 0 117 121q0 55 -29.5 82.5t-72.5 27.5q-47 0 -75 -25.5t-28 -70.5v-22h-149v32q0 100 68.5 157.5t187.5 57.5q123 0 189.5 -60t66.5 -157 q0 -66 -33 -120t-96 -72v-4q70 -16 109.5 -69.5t39.5 -123.5q0 -119 -74.5 -179t-197.5 -60z" />
<glyph unicode="&#xb4;" horiz-adv-x="569" d="M113 1188l178 311h225l-233 -311h-170z" />
<glyph unicode="&#xb5;" horiz-adv-x="1107" d="M131 -365v1430h227v-731q0 -84 44 -131t126 -47t143.5 67.5t61.5 167.5v674h228v-717q0 -111 98 -139l-2 -217q-215 39 -258 184q-35 -90 -103.5 -145.5t-169.5 -55.5q-158 0 -215 121l-8 -2l45 -440z" />
<glyph unicode="&#xb6;" horiz-adv-x="1110" d="M446 -166v631q-166 23 -253 159t-87 326q0 207 110 358.5t278 151.5h530v-141h-121v-1485h-133v1485h-192v-1485h-132z" />
<glyph unicode="&#xb7;" horiz-adv-x="495" d="M131 559v277h231v-277h-231z" />
<glyph unicode="&#x22c5;" horiz-adv-x="495" d="M131 559v277h231v-277h-231z" />
<glyph unicode="&#xb8;" horiz-adv-x="692" d="M317 -418q-102 0 -186 25v102q102 -25 180 -24q94 0 95 59q0 53 -105 61l-80 7l55 208h99l-35 -133q221 -4 221 -139q0 -74 -70 -120t-174 -46z" />
<glyph unicode="&#xb9;" horiz-adv-x="538" d="M209 778v666l-100 -25l-17 121l191 53h90v-815h-164z" />
<glyph unicode="&#xba;" horiz-adv-x="743" d="M373 772q-123 0 -199 60.5t-76 185.5v215q0 123 77 187.5t194 64.5q123 0 199.5 -61.5t76.5 -188.5v-217q0 -123 -76.5 -184.5t-195.5 -61.5zM373 893q106 0 106 119v231q0 119 -106 119q-111 0 -111 -121v-229q0 -119 111 -119zM123 530v148h504v-148h-504z" />
<glyph unicode="&#xbb;" horiz-adv-x="997" d="M205 190l-125 80l172 283l-176 283l127 77l282 -360zM641 190l-125 80l172 283l-176 283l127 77l283 -360z" />
<glyph unicode="&#xbc;" horiz-adv-x="1533" d="M270 649v666l-100 -25l-16 121l190 53h90v-815h-164zM1165 0v188h-325v117l293 508h170l-304 -500h166v121l164 111v-232h88v-125h-88v-188h-164zM274 -6l791 1476h119l-791 -1476h-119z" />
<glyph unicode="&#xbd;" horiz-adv-x="1533" d="M264 649v666l-100 -25l-17 121l191 53h90v-815h-164zM922 0v102l194 215q139 170 139 265v6q0 104 -98 104q-100 0 -100 -102v-31h-154v43q0 104 70.5 161.5t185.5 57.5q121 0 187.5 -63.5t66.5 -167.5q0 -66 -29.5 -133.5t-60.5 -106.5t-94 -112l-90 -109h284v-129h-501 zM270 -6l791 1476h119l-791 -1476h-119z" />
<glyph unicode="&#xbe;" horiz-adv-x="1533" d="M1194 0v188h-326v117l293 508h170l-303 -500h166v121l164 111v-232h88v-125h-88v-188h-164zM362 625q-129 0 -197.5 58t-68.5 157v32h154v-26q0 -45 30.5 -69.5t77.5 -24.5q109 0 109 125q0 66 -37 94t-78 28h-73v111h61q117 0 117 121q0 55 -30 82.5t-73 27.5 q-47 0 -74.5 -25.5t-27.5 -70.5v-22h-150v32q0 100 69 157.5t187 57.5q123 0 189.5 -60t66.5 -157q0 -66 -32.5 -120t-96.5 -72v-4q70 -16 110 -69.5t40 -123.5q0 -119 -75 -179t-198 -60zM350 -6l791 1476h119l-791 -1476h-119z" />
<glyph unicode="&#xbf;" horiz-adv-x="995" d="M496 -346q-186 0 -290 98t-104 273q-2 119 46.5 203.5t134.5 170.5l38 38q32 32 41 46l31 42q20 28 28.5 54.5t10.5 57.5v74h203v-68q-6 -162 -137 -305q-109 -115 -138 -168q-35 -66 -34 -139q0 -90 49 -141.5t137 -51.5q76 0 128 47t52 138v24h195v-22 q0 -174 -110.5 -272.5t-280.5 -98.5zM418 858v277h229v-277h-229z" />
<glyph unicode="&#xc0;" horiz-adv-x="1243" d="M47 0l434 1464h287l430 -1464h-242l-108 391h-469l-109 -391h-223zM430 578h365l-179 647h-4zM518 1563l-235 311h227l178 -311h-170z" />
<glyph unicode="&#xc1;" horiz-adv-x="1243" d="M47 0l434 1464h287l430 -1464h-242l-108 391h-469l-109 -391h-223zM430 578h365l-179 647h-4zM573 1565l179 311h225l-234 -311h-170z" />
<glyph unicode="&#xc2;" horiz-adv-x="1243" d="M47 0l434 1464h287l430 -1464h-242l-108 391h-469l-109 -391h-223zM430 578h365l-179 647h-4zM326 1567l209 319h161l205 -319h-180l-111 192l-112 -192h-172z" />
<glyph unicode="&#xc3;" horiz-adv-x="1243" d="M47 0l434 1464h287l430 -1464h-242l-108 391h-469l-109 -391h-223zM430 578h365l-179 647h-4zM379 1567l-115 20q12 98 64.5 164t138.5 66q53 0 155.5 -37t153.5 -37q37 0 58.5 23.5t37.5 72.5l103 -24q-14 -96 -64.5 -161t-134.5 -65q-55 0 -157.5 37t-149.5 37 q-41 0 -58.5 -22.5t-31.5 -73.5z" />
<glyph unicode="&#xc4;" horiz-adv-x="1243" d="M47 0l434 1464h287l430 -1464h-242l-108 391h-469l-109 -391h-223zM430 578h365l-179 647h-4zM365 1602v253h190v-253h-190zM719 1602v253h190v-253h-190z" />
<glyph unicode="&#xc5;" horiz-adv-x="1243" d="M47 0l434 1464h287l430 -1464h-242l-108 391h-469l-109 -391h-223zM430 578h365l-179 647h-4zM625 1528q-86 0 -138.5 53t-52.5 135q0 84 54.5 140.5t134.5 56.5q88 0 140 -51.5t52 -135.5t-54 -141t-136 -57zM623 1612q45 0 70.5 28.5t25.5 79.5q0 109 -98 109 q-43 0 -67 -31t-24 -80t25 -77.5t68 -28.5z" />
<glyph unicode="&#xc6;" horiz-adv-x="1822" d="M43 0l670 1460h1007v-200h-624v-414h495v-201h-495v-442h624v-203h-864v377l-401 2l-170 -379h-242zM530 559h326v709h-4z" />
<glyph unicode="&#xc7;" horiz-adv-x="1202" d="M616 -418q-102 0 -186 25v102q102 -25 180 -24q94 0 95 59q0 53 -105 61l-80 7l43 165q-203 16 -326.5 130t-123.5 321v606q0 209 144 330t366 121q205 0 339 -109.5t134 -292.5v-96h-215v68q0 104 -69 168.5t-191 64.5q-125 0 -196 -70.5t-71 -191.5v-582 q0 -135 73 -202.5t200 -67.5q117 0 185.5 61.5t68.5 161.5v78h215v-94q0 -178 -122 -285.5t-312 -118.5l-23 -90q221 -4 221 -139q0 -74 -70 -120t-174 -46z" />
<glyph unicode="&#xc8;" horiz-adv-x="1116" d="M147 0v1460h865v-203h-623v-409h496v-201h-496v-442h625v-205h-867zM541 1565l-236 311h227l179 -311h-170z" />
<glyph unicode="&#xc9;" horiz-adv-x="1116" d="M496 1565l178 311h225l-233 -311h-170zM147 0v1460h865v-203h-623v-409h496v-201h-496v-442h625v-205h-867z" />
<glyph unicode="&#xca;" horiz-adv-x="1116" d="M311 1567l209 319h162l205 -319h-180l-111 192l-113 -192h-172zM147 0v1460h865v-203h-623v-409h496v-201h-496v-442h625v-205h-867z" />
<glyph unicode="&#xcb;" horiz-adv-x="1116" d="M342 1599v254h190v-254h-190zM696 1599v254h191v-254h-191zM147 0v1460h865v-203h-623v-409h496v-201h-496v-442h625v-205h-867z" />
<glyph unicode="&#xcc;" horiz-adv-x="522" d="M141 0v1460h242v-1460h-242zM154 1565l-236 311h227l179 -311h-170z" />
<glyph unicode="&#xcd;" horiz-adv-x="522" d="M141 0v1460h242v-1460h-242zM205 1565l178 311h225l-233 -311h-170z" />
<glyph unicode="&#xce;" horiz-adv-x="522" d="M141 0v1460h242v-1460h-242zM-18 1567l208 319h162l205 -319h-180l-111 192l-112 -192h-172z" />
<glyph unicode="&#xcf;" horiz-adv-x="522" d="M141 0v1460h242v-1460h-242zM10 1599v254h191v-254h-191zM365 1599v254h190v-254h-190z" />
<glyph unicode="&#xd0;" horiz-adv-x="1277" d="M66 668v161h114v631h512q213 0 344 -105.5t131 -312.5v-600q0 -217 -131 -329.5t-344 -112.5h-512v668h-114zM422 197h244q127 0 192.5 75.5t65.5 176.5v565q0 111 -65.5 180.5t-192.5 69.5h-244v-435h291v-161h-291v-471z" />
<glyph unicode="&#xd1;" horiz-adv-x="1302" d="M147 0v1460h240l553 -977h4v977h215v-1460h-205l-587 1047h-5v-1047h-215zM440 1567l-114 20q12 98 64 164t138 66q53 0 155.5 -37t154.5 -37q37 0 58.5 23.5t37.5 72.5l102 -24q-14 -96 -64 -161t-134 -65q-55 0 -157.5 37t-150.5 37q-41 0 -58.5 -22.5t-31.5 -73.5z " />
<glyph unicode="&#xd2;" horiz-adv-x="1251" d="M627 -25q-229 0 -371.5 116t-142.5 349v566q0 227 143 354t369 127q227 0 371.5 -117t144.5 -348v-565q0 -233 -144.5 -357.5t-369.5 -124.5zM629 178q125 0 196.5 75t71.5 196v577q0 121 -74.5 190.5t-201.5 69.5t-197 -75.5t-70 -202.5v-559q0 -125 72 -198t203 -73z M543 1565l-236 311h228l178 -311h-170z" />
<glyph unicode="&#xd3;" horiz-adv-x="1251" d="M524 1565l178 311h226l-234 -311h-170zM627 -25q-229 0 -371.5 116t-142.5 349v566q0 227 143 354t369 127q227 0 371.5 -117t144.5 -348v-565q0 -233 -144.5 -357.5t-369.5 -124.5zM629 178q125 0 196.5 75t71.5 196v577q0 121 -74.5 190.5t-201.5 69.5t-197 -75.5 t-70 -202.5v-559q0 -125 72 -198t203 -73z" />
<glyph unicode="&#xd4;" horiz-adv-x="1251" d="M334 1567l209 319h162l204 -319h-180l-111 192l-112 -192h-172zM627 -25q-229 0 -371.5 116t-142.5 349v566q0 227 143 354t369 127q227 0 371.5 -117t144.5 -348v-565q0 -233 -144.5 -357.5t-369.5 -124.5zM629 178q125 0 196.5 75t71.5 196v577q0 121 -74.5 190.5 t-201.5 69.5t-197 -75.5t-70 -202.5v-559q0 -125 72 -198t203 -73z" />
<glyph unicode="&#xd5;" horiz-adv-x="1251" d="M627 -25q-229 0 -371.5 116t-142.5 349v566q0 227 143 354t369 127q227 0 371.5 -117t144.5 -348v-565q0 -233 -144.5 -357.5t-369.5 -124.5zM629 178q125 0 196.5 75t71.5 196v577q0 121 -74.5 190.5t-201.5 69.5t-197 -75.5t-70 -202.5v-559q0 -125 72 -198t203 -73z M373 1567l-115 20q12 98 64.5 164t138.5 66q51 0 153.5 -37t155.5 -37q37 0 58.5 23.5t37.5 72.5l103 -24q-14 -96 -64.5 -161t-134.5 -65q-55 0 -157.5 37t-149.5 37q-41 0 -58.5 -22.5t-31.5 -73.5z" />
<glyph unicode="&#xd6;" horiz-adv-x="1251" d="M365 1599v254h190v-254h-190zM719 1599v254h190v-254h-190zM627 -25q-229 0 -371.5 116t-142.5 349v566q0 227 143 354t369 127q227 0 371.5 -117t144.5 -348v-565q0 -233 -144.5 -357.5t-369.5 -124.5zM629 178q125 0 196.5 75t71.5 196v577q0 121 -74.5 190.5 t-201.5 69.5t-197 -75.5t-70 -202.5v-559q0 -125 72 -198t203 -73z" />
<glyph unicode="&#xd7;" d="M264 252l-102 104l291 297l-295 295l104 107l295 -295l289 293l104 -105l-291 -293l291 -297l-104 -104l-289 295z" />
<glyph unicode="&#xd8;" horiz-adv-x="1243" d="M289 -141l-119 53l86 174q-147 121 -147 354v566q0 227 143 354t369 127q170 0 292 -66l70 140l119 -54l-82 -164q117 -121 117 -321v-565q0 -233 -144.5 -357.5t-369.5 -124.5q-145 0 -254 45zM350 449q0 -78 23 -125l442 895q-78 68 -199 67q-127 0 -196.5 -75.5 t-69.5 -202.5v-559zM625 178q125 0 196.5 75t71.5 196v577q0 16 -4 49l-424 -858q68 -39 160 -39z" />
<glyph unicode="&#xd9;" horiz-adv-x="1280" d="M633 -25q-223 0 -360.5 113t-137.5 344v1028h242v-1009q0 -143 76.5 -211t193.5 -68q123 0 194.5 73.5t67.5 198.5v1016h232v-1020q2 -219 -141.5 -342t-366.5 -123zM573 1556l-235 312h227l178 -312h-170z" />
<glyph unicode="&#xda;" horiz-adv-x="1280" d="M586 1561l178 311h225l-233 -311h-170zM633 -25q-223 0 -360.5 113t-137.5 344v1028h242v-1009q0 -143 76.5 -211t193.5 -68q123 0 194.5 73.5t67.5 198.5v1016h232v-1020q2 -219 -141.5 -342t-366.5 -123z" />
<glyph unicode="&#xdb;" horiz-adv-x="1280" d="M371 1563l209 319h161l205 -319h-180l-111 192l-112 -192h-172zM633 -25q-223 0 -360.5 113t-137.5 344v1028h242v-1009q0 -143 76.5 -211t193.5 -68q123 0 194.5 73.5t67.5 198.5v1016h232v-1020q2 -219 -141.5 -342t-366.5 -123z" />
<glyph unicode="&#xdc;" horiz-adv-x="1280" d="M401 1599v254h191v-254h-191zM756 1599v254h190v-254h-190zM633 -25q-223 0 -360.5 113t-137.5 344v1028h242v-1009q0 -143 76.5 -211t193.5 -68q123 0 194.5 73.5t67.5 198.5v1016h232v-1020q2 -219 -141.5 -342t-366.5 -123z" />
<glyph unicode="&#xdd;" horiz-adv-x="1130" d="M444 0v602l-401 858h254l283 -637l280 637h227l-401 -860v-600h-242zM518 1554l178 312h226l-234 -312h-170z" />
<glyph unicode="&#xde;" horiz-adv-x="1183" d="M147 0v1460h240v-274h266q213 0 322.5 -119t109.5 -307q0 -203 -116.5 -327t-337.5 -124h-244v-309h-240zM387 485h197q129 0 197.5 69t68.5 198q0 113 -61.5 184.5t-174.5 71.5h-227v-523z" />
<glyph unicode="&#xdf;" horiz-adv-x="1298" d="M854 -25q-215 0 -346 138l115 147q51 -41 75.5 -58.5t69.5 -37t90 -19.5q76 0 116 43t40 111q0 131 -111.5 215t-265.5 117v186l49 2q84 41 131 117t47 162q0 209 -213 209q-104 0 -157.5 -59.5t-53.5 -157.5v-1090h-223v874h-141v181h141v22q0 166 116 286t331 120 q201 0 313.5 -104.5t112.5 -264.5q0 -111 -56.5 -211t-163.5 -151v-2q180 -72 264.5 -188t84.5 -224q0 -172 -103.5 -267.5t-261.5 -95.5z" />
<glyph unicode="&#xe0;" horiz-adv-x="1019" d="M381 -23q-127 0 -213 79t-86 227q0 121 70.5 202.5t164 113.5t195.5 32h154v145q0 74 -46.5 113t-127.5 39q-80 0 -128.5 -39t-48.5 -107v-53h-202v64q0 137 113.5 215.5t285.5 78.5q166 0 273.5 -78.5t107.5 -234.5v-516q0 -43 10 -258h-207q0 8 -1 28l-3 56 q-2 37 -4 68h-8q-47 -96 -131 -135.5t-168 -39.5zM471 145q80 0 137.5 62.5t57.5 154.5v123h-136q-221 0 -221 -170q0 -84 45 -127t117 -43zM434 1188l-235 311h227l178 -311h-170z" />
<glyph unicode="&#xe1;" horiz-adv-x="1019" d="M381 -23q-127 0 -213 79t-86 227q0 121 70.5 202.5t164 113.5t195.5 32h154v145q0 74 -46.5 113t-127.5 39q-80 0 -128.5 -39t-48.5 -107v-53h-202v64q0 137 113.5 215.5t285.5 78.5q166 0 273.5 -78.5t107.5 -234.5v-516q0 -43 10 -258h-207q0 8 -1 28l-3 56 q-2 37 -4 68h-8q-47 -96 -131 -135.5t-168 -39.5zM471 145q80 0 137.5 62.5t57.5 154.5v123h-136q-221 0 -221 -170q0 -84 45 -127t117 -43zM395 1188l178 311h226l-234 -311h-170z" />
<glyph unicode="&#xe2;" horiz-adv-x="1019" d="M381 -23q-127 0 -213 79t-86 227q0 121 70.5 202.5t164 113.5t195.5 32h154v145q0 74 -46.5 113t-127.5 39q-80 0 -128.5 -39t-48.5 -107v-53h-202v64q0 137 113.5 215.5t285.5 78.5q166 0 273.5 -78.5t107.5 -234.5v-516q0 -43 10 -258h-207q0 8 -1 28l-3 56 q-2 37 -4 68h-8q-47 -96 -131 -135.5t-168 -39.5zM471 145q80 0 137.5 62.5t57.5 154.5v123h-136q-221 0 -221 -170q0 -84 45 -127t117 -43zM203 1190l209 319h161l205 -319h-180l-111 192l-112 -192h-172z" />
<glyph unicode="&#xe3;" horiz-adv-x="1019" d="M381 -23q-127 0 -213 79t-86 227q0 121 70.5 202.5t164 113.5t195.5 32h154v145q0 74 -46.5 113t-127.5 39q-80 0 -128.5 -39t-48.5 -107v-53h-202v64q0 137 113.5 215.5t285.5 78.5q166 0 273.5 -78.5t107.5 -234.5v-516q0 -43 10 -258h-207q0 8 -1 28l-3 56 q-2 37 -4 68h-8q-47 -96 -131 -135.5t-168 -39.5zM471 145q80 0 137.5 62.5t57.5 154.5v123h-136q-221 0 -221 -170q0 -84 45 -127t117 -43zM254 1190l-115 20q12 98 64.5 164t138.5 66q51 0 153.5 -37t155.5 -37q37 0 58.5 23.5t38.5 72.5l102 -24q-14 -96 -64.5 -161 t-134.5 -65q-55 0 -157.5 37t-149.5 37q-41 0 -58.5 -22.5t-31.5 -73.5z" />
<glyph unicode="&#xe4;" horiz-adv-x="1019" d="M381 -23q-127 0 -213 79t-86 227q0 121 70.5 202.5t164 113.5t195.5 32h154v145q0 74 -46.5 113t-127.5 39q-80 0 -128.5 -39t-48.5 -107v-53h-202v64q0 137 113.5 215.5t285.5 78.5q166 0 273.5 -78.5t107.5 -234.5v-516q0 -43 10 -258h-207q0 8 -1 28l-3 56 q-2 37 -4 68h-8q-47 -96 -131 -135.5t-168 -39.5zM471 145q80 0 137.5 62.5t57.5 154.5v123h-136q-221 0 -221 -170q0 -84 45 -127t117 -43zM240 1223v254h190v-254h-190zM594 1223v254h190v-254h-190z" />
<glyph unicode="&#xe5;" horiz-adv-x="1019" d="M381 -23q-127 0 -213 79t-86 227q0 121 70.5 202.5t164 113.5t195.5 32h154v145q0 74 -46.5 113t-127.5 39q-80 0 -128.5 -39t-48.5 -107v-53h-202v64q0 137 113.5 215.5t285.5 78.5q166 0 273.5 -78.5t107.5 -234.5v-516q0 -43 10 -258h-207q0 8 -1 28l-3 56 q-2 37 -4 68h-8q-47 -96 -131 -135.5t-168 -39.5zM471 145q80 0 137.5 62.5t57.5 154.5v123h-136q-221 0 -221 -170q0 -84 45 -127t117 -43zM504 1165q-86 0 -138.5 53.5t-52.5 135.5q0 84 54.5 140t134.5 56q88 0 140 -51t52 -135t-54 -141.5t-136 -57.5zM502 1249 q45 0 70.5 29t25.5 80q0 109 -98 108q-43 0 -66.5 -30.5t-23.5 -79.5t24.5 -78t67.5 -29z" />
<glyph unicode="&#xe6;" horiz-adv-x="1568" d="M393 -25q-129 0 -220 80t-91 228q0 121 70.5 202.5t164 113.5t195.5 32h154v145q0 74 -46.5 113t-127.5 39q-78 0 -127.5 -39t-49.5 -107v-53h-202v64q0 139 112.5 216.5t286.5 77.5q211 0 283 -120q102 121 292 120q176 0 283 -101t107 -281v-234h-584v-106 q0 -205 237 -205q131 0 261 69l59 -151q-127 -102 -360 -103q-262 0 -353 193q-55 -109 -154.5 -151t-189.5 -42zM471 145q80 0 137.5 58.5t57.5 150.5v131h-113q-244 0 -244 -170q0 -84 45 -127t117 -43zM893 629h369v88q0 86 -44 144.5t-141 58.5q-90 0 -137 -56.5 t-47 -140.5v-94z" />
<glyph unicode="&#xe7;" horiz-adv-x="978" d="M520 -418q-102 0 -186 25v102q102 -25 180 -24q94 0 94 59q0 53 -104 61l-80 7l43 165q-164 10 -263.5 106.5t-99.5 274.5v336q0 186 115 289.5t289 103.5q176 0 281.5 -88t105.5 -235v-62h-207v48q0 66 -42 113.5t-130 47.5q-186 0 -186 -200v-359q0 -203 192 -202 q90 0 128 53t38 119v40h207v-67q0 -131 -89 -216t-241 -99l-22 -93q221 -4 221 -139q0 -74 -70 -120t-174 -46z" />
<glyph unicode="&#xe8;" horiz-adv-x="1009" d="M524 -25q-190 0 -305 96.5t-115 295.5v295q0 201 119 313t297 112q180 0 286.5 -104t106.5 -285v-227h-583v-102q0 -209 233 -209q109 0 264 69l60 -151q-138 -103 -363 -103zM330 629h368v88q0 86 -44 144.5t-140 58.5q-88 0 -136 -57.5t-48 -139.5v-94zM459 1188 l-236 311h228l178 -311h-170z" />
<glyph unicode="&#xe9;" horiz-adv-x="1009" d="M444 1188l179 311h225l-234 -311h-170zM524 -25q-190 0 -305 96.5t-115 295.5v295q0 201 119 313t297 112q180 0 286.5 -104t106.5 -285v-227h-583v-102q0 -209 233 -209q109 0 264 69l60 -151q-138 -103 -363 -103zM330 629h368v88q0 86 -44 144.5t-140 58.5 q-88 0 -136 -57.5t-48 -139.5v-94z" />
<glyph unicode="&#xea;" horiz-adv-x="1009" d="M231 1190l209 319h162l205 -319h-180l-111 192l-113 -192h-172zM524 -25q-190 0 -305 96.5t-115 295.5v295q0 201 119 313t297 112q180 0 286.5 -104t106.5 -285v-227h-583v-102q0 -209 233 -209q109 0 264 69l60 -151q-138 -103 -363 -103zM330 629h368v88 q0 86 -44 144.5t-140 58.5q-88 0 -136 -57.5t-48 -139.5v-94z" />
<glyph unicode="&#xeb;" horiz-adv-x="1009" d="M250 1223v254h190v-254h-190zM604 1223v254h191v-254h-191zM524 -25q-190 0 -305 96.5t-115 295.5v295q0 201 119 313t297 112q180 0 286.5 -104t106.5 -285v-227h-583v-102q0 -209 233 -209q109 0 264 69l60 -151q-138 -103 -363 -103zM330 629h368v88q0 86 -44 144.5 t-140 58.5q-88 0 -136 -57.5t-48 -139.5v-94z" />
<glyph unicode="&#xec;" horiz-adv-x="491" d="M135 0v1063h223v-1063h-223zM143 1188l-235 311h227l178 -311h-170z" />
<glyph unicode="&#xed;" horiz-adv-x="491" d="M156 1188l178 311h225l-233 -311h-170zM135 0v1063h223v-1063h-223z" />
<glyph unicode="&#xee;" horiz-adv-x="491" d="M-43 1190l209 319h162l204 -319h-180l-110 192l-113 -192h-172zM135 0v1063h223v-1063h-223z" />
<glyph unicode="&#xef;" horiz-adv-x="491" d="M-8 1223v254h190v-254h-190zM346 1223v254h191v-254h-191zM135 0v1063h223v-1063h-223z" />
<glyph unicode="&#xf0;" horiz-adv-x="1036" d="M518 -25q-186 0 -300 92.5t-114 284.5v328q0 170 100.5 270.5t248.5 102.5q51 0 77 -13l-102 152l-244 -72l-59 127l221 66l-86 131l234 59l79 -123l213 66l60 -127l-191 -59l205 -314q72 -111 72 -252v-332q0 -193 -115 -290t-299 -97zM520 150q184 0 185 208v324 q0 92 -46.5 149.5t-138.5 57.5q-96 0 -143 -58.5t-47 -154.5v-322q0 -92 47 -148t143 -56z" />
<glyph unicode="&#xf1;" horiz-adv-x="1073" d="M135 0v1063h213v-168h4q98 193 324 192q115 0 194.5 -83.5t79.5 -208.5v-795h-223v750q0 84 -37 122.5t-115 38.5q-82 0 -149.5 -69.5t-67.5 -169.5v-672h-223zM334 1190l-115 20q12 98 64.5 164t138.5 66q53 0 155.5 -37t153.5 -37q37 0 58.5 23.5t37.5 72.5l103 -24 q-14 -96 -64.5 -161t-134.5 -65q-55 0 -157.5 37t-149.5 37q-41 0 -58.5 -22.5t-31.5 -73.5z" />
<glyph unicode="&#xf2;" horiz-adv-x="1036" d="M518 -25q-182 0 -298 98.5t-116 291.5v325q0 188 116 292.5t294 104.5q184 0 301 -99t117 -292v-327q0 -195 -117 -294.5t-297 -99.5zM520 152q186 0 187 208v349q0 92 -48.5 148t-142.5 56t-140 -58t-46 -155v-342q0 -96 47 -151t143 -55zM442 1188l-235 311h227 l178 -311h-170z" />
<glyph unicode="&#xf3;" horiz-adv-x="1036" d="M418 1188l178 311h225l-233 -311h-170zM518 -25q-182 0 -298 98.5t-116 291.5v325q0 188 116 292.5t294 104.5q184 0 301 -99t117 -292v-327q0 -195 -117 -294.5t-297 -99.5zM520 152q186 0 187 208v349q0 92 -48.5 148t-142.5 56t-140 -58t-46 -155v-342q0 -96 47 -151 t143 -55z" />
<glyph unicode="&#xf4;" horiz-adv-x="1036" d="M238 1190l208 319h162l205 -319h-180l-111 192l-112 -192h-172zM518 -25q-182 0 -298 98.5t-116 291.5v325q0 188 116 292.5t294 104.5q184 0 301 -99t117 -292v-327q0 -195 -117 -294.5t-297 -99.5zM520 152q186 0 187 208v349q0 92 -48.5 148t-142.5 56t-140 -58 t-46 -155v-342q0 -96 47 -151t143 -55z" />
<glyph unicode="&#xf5;" horiz-adv-x="1036" d="M518 -25q-182 0 -298 98.5t-116 291.5v325q0 188 116 292.5t294 104.5q184 0 301 -99t117 -292v-327q0 -195 -117 -294.5t-297 -99.5zM520 152q186 0 187 208v349q0 92 -48.5 148t-142.5 56t-140 -58t-46 -155v-342q0 -96 47 -151t143 -55zM272 1190l-114 20 q12 98 64 164t138 66q53 0 155.5 -37t154.5 -37q37 0 58.5 23.5t37.5 72.5l102 -24q-14 -96 -64 -161t-134 -65q-55 0 -157.5 37t-150.5 37q-41 0 -58.5 -22.5t-31.5 -73.5z" />
<glyph unicode="&#xf6;" horiz-adv-x="1036" d="M258 1223v254h191v-254h-191zM612 1223v254h191v-254h-191zM518 -25q-182 0 -298 98.5t-116 291.5v325q0 188 116 292.5t294 104.5q184 0 301 -99t117 -292v-327q0 -195 -117 -294.5t-297 -99.5zM520 152q186 0 187 208v349q0 92 -48.5 148t-142.5 56t-140 -58t-46 -155 v-342q0 -96 47 -151t143 -55z" />
<glyph unicode="&#xf7;" d="M459 195v235h196v-235h-196zM143 580v147h820v-147h-820zM459 858v234h196v-234h-196z" />
<glyph unicode="&#xf8;" horiz-adv-x="1036" d="M279 -147l-107 53l72 147q-139 100 -140 312v325q0 188 116 292.5t294 104.5q123 0 215 -45l66 134l108 -54l-74 -149q102 -102 103 -277v-327q0 -195 -117 -294.5t-297 -99.5q-92 0 -168 25zM330 358q0 -61 16 -100l299 612q-49 43 -129 43q-94 0 -140 -58t-46 -155 v-342zM520 152q186 0 187 208v363l-275 -557q35 -14 88 -14z" />
<glyph unicode="&#xf9;" horiz-adv-x="1071" d="M418 -25q-121 0 -205 77t-84 214v797h223v-737q0 -88 33 -131t115 -43q90 0 155.5 72.5t65.5 176.5v662h223v-1063h-209l-6 170h-4q-35 -84 -121 -139.5t-186 -55.5zM459 1188l-236 311h228l178 -311h-170z" />
<glyph unicode="&#xfa;" horiz-adv-x="1071" d="M459 1188l178 311h225l-233 -311h-170zM418 -25q-121 0 -205 77t-84 214v797h223v-737q0 -88 33 -131t115 -43q90 0 155.5 72.5t65.5 176.5v662h223v-1063h-209l-6 170h-4q-35 -84 -121 -139.5t-186 -55.5z" />
<glyph unicode="&#xfb;" horiz-adv-x="1071" d="M260 1190l209 319h162l205 -319h-181l-110 192l-113 -192h-172zM418 -25q-121 0 -205 77t-84 214v797h223v-737q0 -88 33 -131t115 -43q90 0 155.5 72.5t65.5 176.5v662h223v-1063h-209l-6 170h-4q-35 -84 -121 -139.5t-186 -55.5z" />
<glyph unicode="&#xfc;" horiz-adv-x="1071" d="M285 1223v254h190v-254h-190zM639 1223v254h190v-254h-190zM418 -25q-121 0 -205 77t-84 214v797h223v-737q0 -88 33 -131t115 -43q90 0 155.5 72.5t65.5 176.5v662h223v-1063h-209l-6 170h-4q-35 -84 -121 -139.5t-186 -55.5z" />
<glyph unicode="&#xfd;" horiz-adv-x="962" d="M236 -387q-74 0 -144 16v185q68 -14 119 -15q104 0 139 103l35 121l-346 1040h235l228 -756h2l219 756h203l-367 -1169q-85 -281 -323 -281zM420 1188l178 311h225l-233 -311h-170z" />
<glyph unicode="&#xfe;" horiz-adv-x="1060" d="M135 -367v1827h223v-549h7q43 86 125.5 132.5t168.5 46.5q143 0 220 -96.5t77 -239.5v-424q0 -154 -92 -254.5t-231 -100.5q-80 0 -159 42t-112 114h-4v-498h-223zM578 137q156 0 155 187v413q0 174 -168 174q-86 0 -146.5 -74.5t-60.5 -193.5v-242q0 -113 68 -188.5 t152 -75.5z" />
<glyph unicode="&#xff;" horiz-adv-x="962" d="M236 -387q-74 0 -144 16v185q68 -14 119 -15q104 0 139 103l35 121l-346 1040h235l228 -756h2l219 756h203l-367 -1169q-85 -281 -323 -281zM258 1223v254h191v-254h-191zM612 1223v254h191v-254h-191z" />
<glyph unicode="&#x152;" horiz-adv-x="1865" d="M598 -23q-223 0 -354 114t-131 351v564q0 229 133 354t354 125q207 0 297 -131v106h866v-203h-624v-411h495v-201h-495v-440h624v-205h-866v117q-43 -66 -122 -103t-177 -37zM629 176q125 0 196.5 75t71.5 195v582q0 121 -74.5 189.5t-201.5 68.5t-197 -75.5t-70 -202.5 v-559q0 -125 72 -199t203 -74z" />
<glyph unicode="&#x153;" horiz-adv-x="1611" d="M518 -25q-182 0 -298 98.5t-116 291.5v325q0 188 116 292.5t294 104.5q195 0 307 -122q109 123 301 122q178 0 286 -106.5t108 -288.5v-221h-584v-102q0 -209 239 -209q131 0 259 67l59 -149q-137 -102 -363 -103q-209 0 -311 117q-107 -117 -297 -117zM520 152 q186 0 187 208v349q0 92 -48.5 148t-142.5 56t-140 -58t-46 -155v-333q0 -98 47 -156.5t143 -58.5zM932 629h368v88q0 86 -44 144.5t-140 58.5q-88 0 -136 -57.5t-48 -139.5v-94z" />
<glyph unicode="&#x178;" horiz-adv-x="1130" d="M444 0v602l-401 858h254l283 -637l280 637h227l-401 -860v-600h-242zM324 1597v254h190v-254h-190zM678 1597v254h190v-254h-190z" />
<glyph unicode="&#x2c6;" horiz-adv-x="759" d="M98 1190l209 319h162l205 -319h-180l-111 192l-113 -192h-172z" />
<glyph unicode="&#x2dc;" horiz-adv-x="839" d="M193 1190l-115 20q12 98 64.5 164t138.5 66q51 0 153.5 -37t155.5 -37q37 0 58.5 23.5t37.5 72.5l102 -24q-14 -96 -64 -161t-134 -65q-55 0 -157.5 37t-149.5 37q-41 0 -58.5 -22.5t-31.5 -73.5z" />
<glyph unicode="&#x2000;" horiz-adv-x="956" />
<glyph unicode="&#x2001;" horiz-adv-x="1912" />
<glyph unicode="&#x2002;" horiz-adv-x="956" />
<glyph unicode="&#x2003;" horiz-adv-x="1912" />
<glyph unicode="&#x2004;" horiz-adv-x="636" />
<glyph unicode="&#x2005;" horiz-adv-x="477" />
<glyph unicode="&#x2006;" horiz-adv-x="317" />
<glyph unicode="&#x2007;" horiz-adv-x="317" />
<glyph unicode="&#x2008;" horiz-adv-x="237" />
<glyph unicode="&#x2009;" horiz-adv-x="380" />
<glyph unicode="&#x200a;" horiz-adv-x="104" />
<glyph unicode="&#x2010;" horiz-adv-x="636" d="M90 528v172h457v-172h-457z" />
<glyph unicode="&#x2011;" horiz-adv-x="636" d="M90 528v172h457v-172h-457z" />
<glyph unicode="&#x2012;" horiz-adv-x="636" d="M90 528v172h457v-172h-457z" />
<glyph unicode="&#x2013;" horiz-adv-x="944" d="M0 549v145h944v-145h-944z" />
<glyph unicode="&#x2014;" horiz-adv-x="1595" d="M0 549v145h1595v-145h-1595z" />
<glyph unicode="&#x2018;" horiz-adv-x="440" d="M113 952v254l73 256h111l-49 -243h78v-267h-213z" />
<glyph unicode="&#x2019;" horiz-adv-x="442" d="M143 950l50 244h-78v266h213v-254l-74 -256h-111z" />
<glyph unicode="&#x201a;" horiz-adv-x="440" d="M156 -139l24 151l-65 88l32 181l181 -88l-17 -263l-78 -161z" />
<glyph unicode="&#x201c;" horiz-adv-x="792" d="M113 952v254l73 256h111l-49 -243h78v-267h-213zM467 952v254l76 256h108l-47 -243h76v-267h-213z" />
<glyph unicode="&#x201d;" horiz-adv-x="792" d="M141 950l49 244h-75v266h213v-254l-76 -256h-111zM496 950l49 244h-78v266h215v-254l-76 -256h-110z" />
<glyph unicode="&#x201e;" horiz-adv-x="792" d="M141 -231l49 243h-75v269h213v-256l-76 -256h-111zM496 -231l49 243h-78v269h215v-256l-76 -256h-110z" />
<glyph unicode="&#x2022;" horiz-adv-x="833" d="M418 455q-113 0 -192 79.5t-79 190.5q0 113 79 191.5t192 78.5q111 0 189.5 -78.5t78.5 -191.5q0 -111 -78.5 -190.5t-189.5 -79.5z" />
<glyph unicode="&#x2026;" horiz-adv-x="1290" d="M131 0v276h217v-276h-217zM539 0v276h215v-276h-215zM944 0v276h215v-276h-215z" />
<glyph unicode="&#x202f;" horiz-adv-x="380" />
<glyph unicode="&#x2039;" horiz-adv-x="561" d="M358 188l-282 361l280 362l123 -80l-170 -282l176 -285z" />
<glyph unicode="&#x203a;" horiz-adv-x="561" d="M205 190l-125 80l172 283l-176 283l127 77l282 -360z" />
<glyph unicode="&#x205f;" horiz-adv-x="477" />
<glyph unicode="&#x20ac;" horiz-adv-x="1318" d="M750 -25q-215 0 -354.5 113t-139.5 324v102h-154v148h154v141h-154v145h154v92q0 197 141.5 322t352.5 125q205 0 338 -106.5t133 -288.5v-66h-217v57q0 104 -66 165t-188 61q-117 0 -182.5 -73t-65.5 -183v-105h411v-145h-411v-141h411v-148h-411v-100 q0 -123 68.5 -192.5t191.5 -69.5q119 0 180.5 62t61.5 167v43h217v-51q0 -188 -132 -293t-339 -105z" />
<glyph unicode="&#x2122;" horiz-adv-x="1265" d="M612 815v649h150l121 -284l118 284h148v-649h-115l-2 442l-108 -264h-86l-111 269v-447h-115zM242 815v539h-170v110h463v-110h-168v-539h-125z" />
<glyph unicode="&#xe000;" horiz-adv-x="1065" d="M0 1065h1065v-1065h-1065v1065z" />
<glyph unicode="&#xe38c;" horiz-adv-x="1173" d="M201 0v874h-142v181h142v135q0 141 78.5 215t216.5 74q80 0 143 -15v-176q-31 10 -107 10q-109 0 -108 -108v-135h192v-181h-192v-874h-223zM817 0v1063h223v-1063h-223zM817 1206v254h223v-254h-223z" />
<glyph unicode="&#xfb01;" horiz-adv-x="1173" d="M201 0v874h-142v181h142v135q0 141 78.5 215t216.5 74q80 0 143 -15v-176q-31 10 -107 10q-109 0 -108 -108v-135h192v-181h-192v-874h-223zM817 0v1063h223v-1063h-223zM817 1206v254h223v-254h-223z" />
<glyph unicode="&#xe38d;" horiz-adv-x="1271" d="M201 0v874h-142v181h142v135q0 141 78.5 215t216.5 74q80 0 143 -15v-176q-31 10 -107 10q-109 0 -108 -108v-135h192v-181h-192v-874h-223zM1061 -16q-119 0 -185.5 61t-66.5 176v1239h225v-1188q0 -100 107 -100q31 0 80 8v-170q-78 -26 -160 -26z" />
<glyph unicode="&#xfb02;" horiz-adv-x="1271" d="M201 0v874h-142v181h142v135q0 141 78.5 215t216.5 74q80 0 143 -15v-176q-31 10 -107 10q-109 0 -108 -108v-135h192v-181h-192v-874h-223zM1061 -16q-119 0 -185.5 61t-66.5 176v1239h225v-1188q0 -100 107 -100q31 0 80 8v-170q-78 -26 -160 -26z" />
<glyph unicode="&#xfb03;" horiz-adv-x="1855" d="M1499 0v1063h223v-1063h-223zM1499 1206v254h223v-254h-223zM883 0v874h-142v181h142v135q0 141 78.5 215t216.5 74q80 0 143 -15v-176q-31 10 -107 10q-109 0 -108 -108v-135h192v-181h-192v-874h-223zM201 0v874h-142v181h142v135q0 141 78.5 215t216.5 74 q80 0 143 -15v-176q-31 10 -107 10q-109 0 -108 -108v-135h192v-181h-192v-874h-223z" />
<glyph unicode="&#xfb04;" horiz-adv-x="1953" d="M1743 -16q-119 0 -185.5 61t-66.5 176v1239h225v-1188q0 -100 107 -100q31 0 80 8v-170q-78 -26 -160 -26zM883 0v874h-142v181h142v135q0 141 78.5 215t216.5 74q80 0 143 -15v-176q-31 10 -107 10q-109 0 -108 -108v-135h192v-181h-192v-874h-223zM201 0v874h-142v181 h142v135q0 141 78.5 215t216.5 74q80 0 143 -15v-176q-31 10 -107 10q-109 0 -108 -108v-135h192v-181h-192v-874h-223z" />
<glyph horiz-adv-x="368" />
</font>
</defs>
</svg>
