<?xml version="1.0" standalone="no"?>
<!DOCTYPE svg PUBLIC "-//W3C//DTD SVG 1.1//EN" "http://www.w3.org/Graphics/SVG/1.1/DTD/svg11.dtd" >
<svg xmlns="http://www.w3.org/2000/svg">
<metadata>
This is a custom SVG webfont generated by Font Squirrel.
Copyright   : Copyright c 2008 by Mrio Feliciano All rights reserved
Designer    : Mrio Feliciano
Foundry     : Mrio Feliciano  Feliciano Type Foundry
Foundry URL : wwwfelicianotypefoundrycom
</metadata>
<defs>
<font id="webfontw2erbRZZ" horiz-adv-x="862" >
<font-face units-per-em="2048" ascent="1638" descent="-410" />
<missing-glyph horiz-adv-x="299" />
<glyph unicode=" "  horiz-adv-x="299" />
<glyph unicode="&#x09;" horiz-adv-x="299" />
<glyph unicode="&#xa0;" horiz-adv-x="299" />
<glyph unicode="!" horiz-adv-x="428" d="M135 420l-39 502v540h238v-540l-37 -502h-162zM100 0v299h230v-299h-230z" />
<glyph unicode="&#x22;" horiz-adv-x="708" d="M117 930l-33 287v245h215v-245l-33 -287h-149zM442 930l-32 287v245h215v-245l-33 -287h-150z" />
<glyph unicode="#" horiz-adv-x="874" d="M152 -4l34 387h-143l14 149h144l45 426h-148l15 150h143l39 358h137l-35 -358h162l37 358h135l-35 -358h144l-13 -150h-143l-43 -426h145l-12 -149h-147l-37 -387h-139l36 387h-161l-37 -387h-137zM340 532h164l43 426h-164z" />
<glyph unicode="$" horiz-adv-x="823" d="M367 -72v129q-127 16 -216.5 100.5t-95.5 237.5l234 8q14 -160 135 -159q53 0 82 34.5t29 88.5q0 98 -127 221l-134 133q-96 94 -145 176t-49 176q0 127 74.5 215t212.5 107v127h161v-129q229 -41 244 -322l-209 -4q-14 156 -129 156q-55 0 -85 -35t-30 -90 q0 -33 21.5 -72t42 -63.5t63.5 -67.5l132 -133q92 -98 143 -184t51 -185q0 -119 -65.5 -207t-178.5 -114v-144h-161z" />
<glyph unicode="%" horiz-adv-x="1247" d="M301 721q-100 0 -166.5 58.5t-66.5 158.5v319q0 106 64.5 167t166.5 61t169 -59.5t67 -165.5v-322q0 -98 -68 -157.5t-166 -59.5zM301 858q72 0 72 76v338q0 31 -18.5 53.5t-55.5 22.5q-35 0 -53.5 -22.5t-18.5 -53.5v-338q0 -76 74 -76zM274 -2l580 1468h129l-577 -1468 h-132zM946 -23q-100 0 -166.5 58.5t-66.5 159.5v311q0 106 65.5 170.5t168 64.5t169 -60t66.5 -165v-319q0 -96 -70 -158t-166 -62zM946 115q37 0 54.5 22.5t17.5 52.5v340q0 29 -18.5 51.5t-53.5 22.5t-52 -21.5t-17 -52.5v-340q-1 -75 69 -75z" />
<glyph unicode="&#x26;" horiz-adv-x="1058" d="M399 -27q-164 0 -248.5 112t-84.5 300q0 285 233 422q-119 209 -119 340q0 143 84 240.5t246 97.5q147 0 230 -87t83 -233q0 -258 -229 -401q4 -10 80 -135t80 -135q25 84 41 200l192 -22q-33 -213 -119 -393q6 -12 81 -137.5t81 -141.5h-270l-70 119 q-121 -146 -291 -146zM451 188q82 0 145 95q-6 14 -100.5 172.5t-100.5 177.5q-88 -66 -88 -227q0 -90 36 -154t108 -64zM502 926q111 80 110 237q0 61 -26.5 100.5t-71.5 39.5q-49 0 -74.5 -39t-25.5 -95q0 -83 88 -243z" />
<glyph unicode="'" horiz-adv-x="387" d="M117 930l-33 287v245h215v-245l-33 -287h-149z" />
<glyph unicode="(" horiz-adv-x="473" d="M313 -352q-102 174 -162.5 429t-60.5 494q0 244 59.5 486.5t163.5 423.5l140 -13q-84 -274 -118 -451t-34 -448q0 -428 152 -909z" />
<glyph unicode=")" horiz-adv-x="473" d="M160 -352l-140 12q152 481 152 909q0 270 -34 447.5t-118 451.5l140 13q104 -180 163.5 -423t59.5 -487q0 -240 -60.5 -494.5t-162.5 -428.5z" />
<glyph unicode="*" horiz-adv-x="710" d="M221 862l-115 74l130 190l-197 115l70 115l178 -103v207h137v-209l178 105l70 -115l-199 -115l131 -190l-115 -74l-133 195z" />
<glyph unicode="+" horiz-adv-x="878" d="M356 281v286h-272v168h272v291h168l-2 -291h275v-168h-273v-286h-168z" />
<glyph unicode="," horiz-adv-x="387" d="M102 -248l64 262h-86v285h229v-270l-84 -277h-123z" />
<glyph unicode="-" horiz-adv-x="485" d="M49 518v191h387v-191h-387z" />
<glyph unicode="." horiz-adv-x="387" d="M80 0v299h229v-299h-229z" />
<glyph unicode="/" horiz-adv-x="520" d="M-12 -334l327 1802h160l-321 -1802h-166z" />
<glyph unicode="0" horiz-adv-x="882" d="M442 -20q-158 0 -258 83.5t-100 241.5v856q0 156 103.5 239t255 83t255 -83t103.5 -237v-858q0 -158 -101.5 -241.5t-257.5 -83.5zM442 188q55 0 84 33t29 78v868q0 45 -30.5 75t-82 30t-81 -31t-29.5 -74v-870q0 -45 28.5 -77t81.5 -32z" />
<glyph unicode="1" horiz-adv-x="585" d="M193 0v1208l-109 -26l-33 186l244 94h141v-1462h-243z" />
<glyph unicode="2" horiz-adv-x="800" d="M78 0v160l248 424q164 291 163 497v41q-4 152 -100 152q-98 0 -98 -131v-90h-221v90q0 156 88 249t245 93q162 0 244 -98.5t82 -270.5q0 -287 -240 -684l-124 -211v-6h370v-215h-657z" />
<glyph unicode="3" horiz-adv-x="825" d="M408 -20q-180 0 -263.5 94t-83.5 252v84h230v-93q0 -133 106 -133q55 0 84 50.5t29 177.5q0 217 -150 217h-100v223h105q70 0 101.5 49t31.5 170q0 201 -107 201q-96 0 -96 -135v-86h-227v82q0 166 89 258t255 92q152 0 238.5 -99.5t86.5 -279.5q0 -291 -176 -350v-9 q98 -33 147.5 -124t49.5 -215q0 -213 -101.5 -319.5t-248.5 -106.5z" />
<glyph unicode="4" horiz-adv-x="854" d="M467 0v340h-416v192l336 928h258l-371 -911h193v235l223 154v-389h105v-209h-105v-340h-223z" />
<glyph unicode="5" horiz-adv-x="843" d="M412 -23q-162 0 -249 84t-87 230v131h225v-111q0 -55 29.5 -89t83.5 -34q109 0 108 148v280q0 135 -110 136q-63 0 -111 -78l-211 14l27 772h602v-215h-400q0 -158 -14 -373q84 68 199 68q117 0 189.5 -69.5t72.5 -217.5v-327q0 -164 -99 -256.5t-255 -92.5z" />
<glyph unicode="6" d="M432 -20q-162 0 -257 91t-95 240v832q0 162 102.5 252t261.5 90q152 0 240 -83t88 -218v-119h-231v104q0 45 -26 76t-75 31q-55 0 -82.5 -34t-27.5 -83v-344q82 86 205 86q121 0 187 -67.5t66 -184.5v-350q0 -143 -98 -231t-258 -88zM438.5 184q53.5 0 80 34t26.5 81v328 q0 49 -28 74.5t-71 25.5q-49 0 -81.5 -35t-34.5 -86v-307q0 -47 27.5 -81t81 -34z" />
<glyph unicode="7" horiz-adv-x="788" d="M188 0q2 344 86 678t205 565h-420v217h678v-186q-297 -541 -301 -1274h-248z" />
<glyph unicode="8" horiz-adv-x="849" d="M424 -20q-158 0 -256 77.5t-98 227.5v233q0 158 127 227q-53 29 -83 85.5t-30 119.5v224q0 145 96 228t245.5 83t245 -79t95.5 -224v-217q0 -156 -115 -220q129 -66 129 -217v-241q0 -145 -100 -226t-256 -81zM426 178q53 0 82 30t29 77v260q0 51 -32 81.5t-79 30.5 t-78 -29.5t-31 -76.5v-266q0 -47 29 -77t80 -30zM428 838q49 0 78 30.5t29 77.5v234q0 47 -31 74.5t-78 27.5t-77 -26.5t-30 -71.5v-238q0 -47 31 -77.5t78 -30.5z" />
<glyph unicode="9" horiz-adv-x="858" d="M426 -20q-156 0 -247 82.5t-91 222.5v114h231v-98q0 -51 27 -81t74 -30q53 0 80.5 33t27.5 86v350q-76 -96 -198 -96q-121 0 -188.5 67.5t-67.5 184.5v348q0 145 97 232.5t257 87.5q162 0 257 -91.5t95 -240.5v-811q0 -164 -98 -262t-256 -98zM416 737q45 0 78.5 34 t33.5 87v311q0 47 -27.5 80t-78.5 33q-53 0 -80 -35t-27 -82v-325q0 -49 29 -76t72 -27z" />
<glyph unicode=":" horiz-adv-x="387" d="M80 0v299h229v-299h-229zM80 788v297h229v-297h-229z" />
<glyph unicode=";" horiz-adv-x="387" d="M102 -248l64 262h-86v285h229v-270l-84 -277h-123zM80 788v297h229v-297h-229z" />
<glyph unicode="&#x3c;" horiz-adv-x="868" d="M698 295l-606 295l2 129l606 293l74 -152l-444 -207q369 -168 444 -209z" />
<glyph unicode="=" horiz-adv-x="868" d="M84 393v170h702v-170h-702zM84 719v170h702v-170h-702z" />
<glyph unicode="&#x3e;" horiz-adv-x="868" d="M170 297l-74 149l443 209q-16 8 -220 103.5t-225 103.5l76 150l606 -293v-129z" />
<glyph unicode="?" horiz-adv-x="770" d="M252 420v55q2 178 98 330q2 4 20.5 32.5t22.5 35.5l20 33q15 26 20 38t14.5 38t13.5 44t7 44t3 52q0 63 -24.5 106.5t-75.5 43.5q-98 0 -99 -133v-105h-209v105q0 158 87.5 250t236.5 92q154 0 239 -96.5t87 -266.5q0 -176 -138 -375q-86 -135 -100 -206q-6 -23 -6 -48 v-69h-217zM250 0v299h229v-299h-229z" />
<glyph unicode="@" horiz-adv-x="1449" d="M774 -156q-250 0 -416 111q-289 186 -288 637q0 383 202.5 611.5t520.5 228.5q117 0 220 -38t187 -111t133 -195.5t49 -280.5q0 -244 -122.5 -418t-290.5 -207h-195l17 117h-7q-88 -137 -221 -137q-90 0 -142 52t-52 146q0 45 6 76q33 250 65 430q18 115 94 181.5 t179 66.5q129 0 172 -100h4l12 86h203l-115 -803q115 33 193 178.5t78 327.5q0 270 -135.5 401t-344.5 131q-279 0 -433 -207.5t-154 -533.5q0 -406 258 -559q135 -84 321 -84q170 0 389 63l25 -88q-174 -82 -412 -82zM674 344q53 0 92 46t49 116l41 293q0 4 1 14t1 16 q0 53 -26.5 83t-69.5 30q-100 0 -121 -135l-45 -332q-4 -16 -4 -47q0 -84 82 -84z" />
<glyph unicode="A" horiz-adv-x="1024" d="M45 0l297 1462h352l285 -1462h-260l-68 354h-301l-65 -354h-240zM391 563h219l-104 606h-6z" />
<glyph unicode="B" horiz-adv-x="946" d="M96 0v1460h439q158 0 242.5 -93t84.5 -277q0 -143 -52 -229.5t-140 -110.5v-9q96 -25 148 -110.5t52 -220.5q0 -205 -88 -307.5t-237 -102.5h-449zM352 211h129q129 0 129 215q0 207 -143 207h-115v-422zM352 844h113q141 0 141 213q0 195 -125 194h-129v-407z" />
<glyph unicode="C" horiz-adv-x="929" d="M483 -20q-182 0 -292.5 94t-110.5 272v770q0 170 113.5 268.5t291.5 98.5q166 0 270.5 -92.5t104.5 -247.5v-162h-233v137q0 66 -38 104t-104 38q-143 0 -143 -150v-750q0 -154 145 -153q63 0 101.5 38t38.5 99v137h233v-151q0 -162 -104.5 -256t-272.5 -94z" />
<glyph unicode="D" horiz-adv-x="962" d="M96 0v1460h404q168 0 275.5 -87t107.5 -253v-760q0 -176 -107.5 -268t-279.5 -92h-400zM352 221h121q76 0 112 45t36 109v719q0 66 -38 105.5t-112 39.5h-119v-1018z" />
<glyph unicode="E" horiz-adv-x="835" d="M96 0v1460h670v-219h-414v-377h330v-221h-330v-422h416v-221h-672z" />
<glyph unicode="F" horiz-adv-x="819" d="M96 0v1460h670v-219h-414v-385h330v-223h-330v-633h-256z" />
<glyph unicode="G" horiz-adv-x="952" d="M487 -20q-182 0 -294.5 96t-112.5 274v766q0 170 113.5 268.5t289.5 98.5q168 0 278.5 -89t110.5 -245v-156h-237v135q0 61 -41 98.5t-107 37.5q-72 0 -108.5 -43t-36.5 -113v-752q0 -72 38 -112.5t107 -40.5q137 0 138 137v235h-160v197h409v-444q0 -164 -103.5 -256 t-283.5 -92z" />
<glyph unicode="H" horiz-adv-x="989" d="M96 0v1460h258v-602h283v602h256v-1460h-256v623h-283v-623h-258z" />
<glyph unicode="I" horiz-adv-x="450" d="M96 0v1460h258v-1460h-258z" />
<glyph unicode="J" horiz-adv-x="905" d="M436 -23q-182 0 -278.5 93.5t-96.5 271.5v199h246v-201q0 -139 125 -139t125 141v1118h258v-1104q0 -176 -99.5 -277.5t-279.5 -101.5z" />
<glyph unicode="K" horiz-adv-x="956" d="M96 0v1460h258v-663l301 663h256l-266 -567l270 -893h-276l-184 674l-101 -189v-485h-258z" />
<glyph unicode="L" horiz-adv-x="817" d="M96 0v1460h256v-1239h416v-221h-672z" />
<glyph unicode="M" horiz-adv-x="1189" d="M96 0v1460h326l176 -594h4l180 594h312v-1460h-230v1059h-4l-176 -619h-176l-180 617h-4v-1057h-228z" />
<glyph unicode="N" horiz-adv-x="1015" d="M96 0v1460h266l324 -844h6v844h230v-1460h-234l-358 936h-4v-936h-230z" />
<glyph unicode="O" horiz-adv-x="972" d="M485 -20q-188 0 -296.5 97t-108.5 288v733q0 182 113.5 283.5t293.5 101.5q178 0 292 -96.5t114 -280.5v-735q0 -190 -114 -290.5t-294 -100.5zM487.5 207q69.5 0 106.5 43t37 110v752q0 68 -39 106.5t-107 38.5q-70 0 -106.5 -40.5t-36.5 -108.5v-748q0 -68 38 -110.5 t107.5 -42.5z" />
<glyph unicode="P" horiz-adv-x="929" d="M96 0v1460h412q176 0 264 -113.5t88 -326.5q0 -473 -362 -473h-144v-547h-258zM354 760h107q147 0 147 254q0 231 -143 231h-111v-485z" />
<glyph unicode="Q" horiz-adv-x="972" d="M786 -176l-219 164q-33 -8 -80 -8q-188 0 -297.5 97t-109.5 288v733q0 182 113.5 283.5t294 101.5t294 -96.5t113.5 -280.5v-735q0 -162 -90 -252l143 -94zM489 207q70 0 108 43t38 110v752q0 68 -41 106.5t-109 38.5q-70 0 -106.5 -40.5t-36.5 -108.5v-748 q0 -70 37.5 -111.5t109.5 -41.5z" />
<glyph unicode="R" horiz-adv-x="952" d="M96 0v1460h396q184 0 283 -106.5t99 -319.5q0 -299 -178 -383l195 -651h-268l-160 594h-109v-594h-258zM354 786h117q143 0 143 230q0 227 -145 227h-115v-457z" />
<glyph unicode="S" horiz-adv-x="872" d="M440 -20q-172 0 -272 107.5t-111 297.5l242 8q20 -205 143 -205q63 0 92 45.5t29 108.5q0 102 -135 233l-145 152q-203 197 -203 393q0 156 96 260.5t273 104.5q150 0 246 -92.5t104 -302.5l-228 -9q-10 94 -39.5 144.5t-95.5 50.5q-55 0 -86 -38t-31 -99q0 -37 26 -81 t49.5 -69.5l74.5 -77.5l135 -137q211 -207 211 -420q0 -162 -101.5 -268t-273.5 -106z" />
<glyph unicode="T" horiz-adv-x="888" d="M315 0v1241h-276v219h811v-219h-275v-1241h-260z" />
<glyph unicode="U" horiz-adv-x="968" d="M477 -23q-184 0 -286.5 94.5t-102.5 280.5v1108h262v-1095q0 -78 40 -119t104 -41q68 0 103.5 43t35.5 114v1098h246v-1100q2 -180 -111 -281.5t-291 -101.5z" />
<glyph unicode="V" horiz-adv-x="874" d="M303 -8l-285 1468h258l168 -991h9l170 991h233l-281 -1468h-272z" />
<glyph unicode="W" horiz-adv-x="1314" d="M262 -8l-231 1468h256l121 -921h4l139 921h248l133 -917h4l119 917h229l-227 -1468h-242l-147 977h-9l-151 -977h-246z" />
<glyph unicode="X" horiz-adv-x="892" d="M18 0l285 735l-270 725h272l154 -438l155 438h244l-270 -704l284 -756h-268l-170 463l-168 -463h-248z" />
<glyph unicode="Y" horiz-adv-x="890" d="M317 0v586l-301 874h275l172 -567l166 567h245l-299 -874v-586h-258z" />
<glyph unicode="Z" horiz-adv-x="817" d="M61 0v170l416 1071h-407v219h694v-188l-408 -1051h400v-221h-695z" />
<glyph unicode="[" horiz-adv-x="477" d="M113 -344v1804h321v-135h-125v-1538h125v-131h-321z" />
<glyph unicode="\" horiz-adv-x="520" d="M369 -346l-340 1812h159l344 -1812h-163z" />
<glyph unicode="]" horiz-adv-x="477" d="M43 -344v133h123v1536h-123v135h322v-1804h-322z" />
<glyph unicode="^" horiz-adv-x="800" d="M125 371l190 772h168l172 -772h-168l-92 458l-100 -458h-170z" />
<glyph unicode="_" horiz-adv-x="802" d="M0 -274v163h803v-163h-803z" />
<glyph unicode="`" horiz-adv-x="493" d="M256 1200l-205 301h244l137 -301h-176z" />
<glyph unicode="a" horiz-adv-x="819" d="M299 -20q-104 0 -172 82.5t-68 246.5q0 166 105.5 259.5t263.5 97.5h64v165q0 90 -97 91q-94 0 -94 -91v-92h-219v97q0 125 91 201.5t238.5 76.5t233.5 -78t86 -213v-571q0 -51 5 -148.5t5 -103.5h-221q0 2 -2 17.5t-4 40.5l-4 53h-6q-29 -68 -88.5 -99.5t-116.5 -31.5z M389 168q41 0 72 37t31 88v225h-58q-59 0 -96 -45t-37 -135q0 -170 88 -170z" />
<glyph unicode="b" horiz-adv-x="856" d="M506 -18q-57 0 -108.5 28.5t-78.5 77.5h-4l-4 -88h-217v1460h242v-456h4q70 113 199 112q121 0 180 -71.5t59 -180.5v-616q0 -119 -74.5 -192.5t-197.5 -73.5zM446 172q92 0 93 104v537q0 104 -95 105q-47 0 -77.5 -39t-30.5 -107v-467q0 -59 31.5 -96t78.5 -37z" />
<glyph unicode="c" horiz-adv-x="796" d="M412 -20q-150 0 -242 82.5t-92 234.5v489q0 154 96 241t242 87q143 0 229 -78t86 -200v-103h-215v86q0 43 -24.5 71t-71.5 28q-49 0 -75 -32t-26 -83v-512q0 -119 101 -119q51 0 73.5 29.5t22.5 70.5v86h215v-98q0 -133 -86 -206.5t-233 -73.5z" />
<glyph unicode="d" horiz-adv-x="854" d="M319 -18q-123 0 -182 71.5t-59 186.5v618q0 111 68.5 183.5t185.5 72.5q121 0 188 -94h2v440h240v-1460h-223l-4 106h-7q-35 -61 -93.5 -92.5t-115.5 -31.5zM410 176q47 0 80.5 42t33.5 106v467q0 57 -33.5 96t-78.5 39q-94 0 -95 -113v-526q0 -51 25 -81t68 -30z" />
<glyph unicode="e" horiz-adv-x="800" d="M424 -23q-158 0 -252 83t-94 241v473q0 158 96 249t243.5 91t230.5 -86t83 -231v-336h-414v-131q0 -156 154 -156q84 0 203 43l45 -174q-135 -66 -295 -66zM317 633h199v176q0 113 -98 113q-49 0 -75 -33t-26 -82v-174z" />
<glyph unicode="f" horiz-adv-x="583" d="M162 0v895h-101v186h101v160q0 111 68.5 174.5t183.5 63.5q80 0 139 -15v-182q-33 8 -82 8q-31 0 -50.5 -21.5t-19.5 -60.5v-127h125v-186h-125v-895h-239z" />
<glyph unicode="g" horiz-adv-x="854" d="M387 -348q-158 0 -285 55l60 187q115 -45 211 -46q150 0 149 146v172h-4q-33 -61 -88 -96t-113 -35q-119 0 -179 70.5t-60 181.5v555q0 119 71.5 194.5t186.5 75.5q55 0 110.5 -28.5t83.5 -79.5h2l3 92h227v-1086q0 -176 -98.5 -267t-276.5 -91zM412 227q45 0 76.5 38 t31.5 97v429q0 57 -34.5 95t-77.5 38q-41 0 -66 -31t-25 -84v-475q1 -107 95 -107z" />
<glyph unicode="h" d="M94 0v1460h242v-473h2q78 127 221 127q94 0 155.5 -59.5t61.5 -159.5v-895h-239v801q0 111 -93 110q-47 0 -77.5 -44t-30.5 -105v-762h-242z" />
<glyph unicode="i" horiz-adv-x="428" d="M94 0v1090h242v-1090h-242zM94 1233v264h242v-264h-242z" />
<glyph unicode="j" horiz-adv-x="434" d="M98 -346q-43 0 -104 10v189q6 -2 41 -3q39 0 54 20.5t15 63.5v1156h240v-1186q0 -119 -66.5 -184.5t-179.5 -65.5zM102 1233v264h242v-264h-242z" />
<glyph unicode="k" horiz-adv-x="823" d="M94 0v1460h242v-823l219 453h240l-195 -373l195 -717h-254l-125 516l-80 -145v-371h-242z" />
<glyph unicode="l" horiz-adv-x="477" d="M305 -16q-215 0 -215 204v1272h242v-1196q0 -59 57 -59q25 0 51 6v-203q-61 -24 -135 -24z" />
<glyph unicode="m" horiz-adv-x="1306" d="M94 0v1090h236v-103h2q78 127 227 127q156 0 203 -131h2q92 131 240 131q92 0 154.5 -60.5t62.5 -158.5v-895h-240v801q0 111 -94 110q-47 0 -78 -41t-31 -100v-770h-241v803q0 109 -93 108q-47 0 -77.5 -44t-30.5 -103v-764h-242z" />
<glyph unicode="n" d="M94 0v1090h236v-101h2q78 125 227 125q94 0 155.5 -59.5t61.5 -159.5v-895h-239v801q0 111 -93 110q-47 0 -77.5 -44t-30.5 -103v-764h-242z" />
<glyph unicode="o" horiz-adv-x="839" d="M420 -20q-154 0 -248 81.5t-94 239.5v487q0 154 98 240t244 86q147 0 245.5 -82t98.5 -235v-494q0 -158 -97 -240.5t-247 -82.5zM422 172q100 0 100 117v512q0 49 -26.5 83t-75.5 34q-51 0 -76 -34t-25 -85v-512q0 -49 26 -82t77 -33z" />
<glyph unicode="p" horiz-adv-x="856" d="M94 -330v1420h236v-103h4q33 57 93 91t118 34q119 0 176 -72.5t57 -187.5v-614q0 -111 -68.5 -184.5t-187.5 -73.5q-121 0 -184 94h-2v-404h-242zM444 172q94 0 95 107v534q0 104 -95 105q-47 0 -77.5 -37t-30.5 -105v-477q0 -57 30.5 -92t77.5 -35z" />
<glyph unicode="q" horiz-adv-x="856" d="M522 -330v418h-4q-78 -111 -198.5 -111t-181 72t-60.5 182v617q0 117 72.5 190.5t195.5 73.5q133 0 195 -108h2l2 90h217v-1424h-240zM414 176q45 0 76.5 39t31.5 98v480q0 59 -33.5 97t-78.5 38q-43 0 -68 -31t-25 -86v-522q0 -51 26 -82t71 -31z" />
<glyph unicode="r" horiz-adv-x="626" d="M94 0v1090h238v-123h2q59 135 186 135q45 0 72 -8v-228q-43 8 -96 8q-68 0 -114 -33.5t-46 -103.5v-737h-242z" />
<glyph unicode="s" horiz-adv-x="735" d="M371 -20q-129 0 -217 75.5t-101 233.5l223 6q10 -133 101 -133q80 0 80 92q0 74 -125 182l-88 82q-166 145 -166 303q0 119 76.5 205t230.5 86q131 0 210 -74.5t87 -232.5l-207 -6q-12 135 -94 135q-84 0 -84 -86q0 -55 104 -150l105 -98q178 -168 178 -326 q0 -123 -78.5 -208.5t-234.5 -85.5z" />
<glyph unicode="t" horiz-adv-x="595" d="M381 -14q-100 0 -163.5 51t-63.5 153v703h-101v188h101v248h239v-248h156v-188h-156v-631q0 -68 62 -67q51 0 88 10v-193q-72 -26 -162 -26z" />
<glyph unicode="u" d="M303 -23q-92 0 -153.5 60.5t-61.5 161.5v891h238v-803q0 -106 94 -107q47 0 78.5 44t31.5 104v762h238v-1090h-233v109h-3q-79 -132 -229 -132z" />
<glyph unicode="v" horiz-adv-x="768" d="M260 -4l-244 1094h256l123 -715h4l131 715h220l-240 -1094h-250z" />
<glyph unicode="w" horiz-adv-x="1150" d="M244 -2l-209 1092h250l88 -629h8l102 629h224l100 -629h6l94 629h221l-210 -1092h-211l-119 678h-6l-121 -678h-217z" />
<glyph unicode="x" horiz-adv-x="765" d="M14 2l238 553l-223 535h252l120 -314l117 314h217l-221 -523l238 -565h-252l-131 340l-136 -340h-219z" />
<glyph unicode="y" horiz-adv-x="770" d="M211 -350q-74 0 -139 16l24 191q66 -12 86 -13q66 0 86 68l23 98l-273 1080h250l140 -687h6l118 687h220l-263 -1160q-69 -280 -278 -280z" />
<glyph unicode="z" horiz-adv-x="702" d="M55 0v168l324 723h-316v199h586v-177l-317 -712h317v-201h-594z" />
<glyph unicode="{" horiz-adv-x="489" d="M299 -344q-172 0 -172 182v582q0 63 -14.5 89t-57.5 30v141q45 10 58.5 30.5t13.5 67.5v492q0 190 174 190h150v-137h-86q-39 0 -39 -45v-469q0 -80 -19.5 -124t-75.5 -67v-10q59 -25 77 -63.5t18 -126.5v-582q0 -47 39 -47h86v-133h-152z" />
<glyph unicode="|" horiz-adv-x="518" d="M182 -215v1683h156v-1683h-156z" />
<glyph unicode="}" horiz-adv-x="489" d="M37 -344v133h86q39 0 39 47v582q0 88 17.5 127t74.5 63v10q-53 23 -72.5 67t-19.5 124v471q0 45 -39 45h-86v137h151q170 0 170 -190v-494q0 -47 14.5 -67.5t59.5 -30.5v-141q-43 -4 -58.5 -31t-15.5 -88v-582q0 -182 -170 -182h-151z" />
<glyph unicode="~" horiz-adv-x="837" d="M182 512l-112 20q31 233 180 234q45 0 171 -27.5t167 -27.5q29 0 43 18.5t28 61.5l109 -23q-29 -236 -174 -236q-43 0 -174 30t-164 30q-31 0 -46.5 -18.5t-27.5 -61.5z" />
<glyph unicode="&#xa1;" horiz-adv-x="428" d="M295 731l39 -502v-540h-238v540l37 502h162zM330 1151v-299h-230v299h230z" />
<glyph unicode="&#xa2;" horiz-adv-x="794" d="M309 -117v156q-113 23 -177 100.5t-64 202.5v471q0 125 66.5 204t174.5 105v156h201v-156q102 -23 159.5 -94.5t57.5 -171.5v-113h-215v103q0 100 -100 100q-53 0 -79 -32.5t-26 -86.5v-489q0 -55 25.5 -90t79 -35t77 30.5t23.5 75.5v107h215v-121q0 -104 -56.5 -173 t-160.5 -91v-158h-201z" />
<glyph unicode="&#xa3;" horiz-adv-x="929" d="M72 0v207h102v436h-88v170h88v330q0 168 102.5 254t253.5 86q143 0 229.5 -79t86.5 -220v-131h-215v127q0 102 -103 102q-45 0 -74.5 -28.5t-29.5 -84.5v-356h264v-170h-264v-436h444l-37 -207h-759z" />
<glyph unicode="&#xa4;" horiz-adv-x="788" d="M164 391l-76 76l82 82q-53 72 -53 162q0 78 45 149l-84 84l74 74l81 -80q74 53 160 53q80 0 152 -45l82 82l75 -76l-81 -80q55 -80 55 -163q0 -78 -47 -152l82 -82l-74 -74l-82 80q-70 -51 -160 -51q-82 0 -149 45zM395 528q82 0 126 51.5t44 131.5q0 78 -47 130t-123 52 q-82 0 -126 -51t-44 -133q0 -74 46 -127.5t124 -53.5z" />
<glyph unicode="&#xa5;" horiz-adv-x="880" d="M311 0v483h-231v164h205l-273 813h271l172 -563l163 563h250l-270 -813h203v-164h-232v-483h-258z" />
<glyph unicode="&#xa6;" horiz-adv-x="598" d="M193 -94v737h172v-737h-172zM193 788v678h172v-678h-172z" />
<glyph unicode="&#xa7;" horiz-adv-x="815" d="M399 -88q-59 0 -112.5 13.5t-102.5 45t-77.5 91t-28.5 143.5v74h196v-52q0 -154 140 -153q61 0 89.5 42t28.5 99q0 104 -118 158q-80 33 -109 43q-225 88 -225 286q0 121 119 230q-115 88 -115 242q0 135 86 218t240 83q141 0 226 -75t85 -214v-72h-189v62q0 59 -31.5 97 t-90.5 38q-57 0 -89 -36t-32 -91q0 -102 110 -150l119 -49q225 -100 225 -274q0 -141 -118 -240q125 -92 123 -240q0 -143 -96.5 -231t-252.5 -88zM463 565q78 39 78 117q0 74 -95 115q-80 35 -96 39q-72 -49 -71 -125q0 -74 100 -113z" />
<glyph unicode="&#xa8;" horiz-adv-x="655" d="M82 1210v281h190v-281h-190zM385 1210v281h190v-281h-190z" />
<glyph unicode="&#xa9;" horiz-adv-x="1480" d="M745 145q-141 0 -228 75t-87 212v553q0 137 88 216t227 79q135 0 218.5 -72.5t83.5 -195.5v-168h-197v155q0 41 -25.5 70t-74.5 29q-104 0 -105 -117v-537q0 -117 103 -116q53 0 77.5 27.5t24.5 68.5v160h197v-166q0 -127 -83.5 -200t-218.5 -73zM739 -90 q-317 0 -489 227.5t-172 577.5q0 221 76.5 400t229.5 288.5t355 109.5q311 0 486.5 -229t175.5 -569q0 -344 -175.5 -574.5t-486.5 -230.5zM741 29q227 0 373 187t146 499q0 315 -143.5 502.5t-377 187.5t-376 -187.5t-142.5 -502.5q0 -317 145.5 -501.5t374.5 -184.5z" />
<glyph unicode="&#xaa;" horiz-adv-x="561" d="M203 799q-66 0 -107 48t-41 146q0 96 66.5 151.5t163.5 55.5h34v92q0 51 -53 51t-53 -51v-53h-143v55q0 76 57 122t149 46q94 0 147.5 -46t53.5 -128v-332q0 -88 8 -145h-147q-2 6 -8 63q-39 -75 -127 -75zM264 918q23 0 39 18t16 45v125h-32q-74 0 -74 -96q0 -92 51 -92 zM88 602v133h389v-133h-389z" />
<glyph unicode="&#xab;" horiz-adv-x="808" d="M276 242l-235 319l233 322l127 -76l-116 -246l121 -248zM621 248l-234 313l234 313l127 -75l-117 -238l121 -239z" />
<glyph unicode="&#xac;" horiz-adv-x="958" d="M702 330v235h-634v164h806v-399h-172z" />
<glyph unicode="&#xad;" horiz-adv-x="485" d="M49 518v191h387v-191h-387z" />
<glyph unicode="&#xae;" horiz-adv-x="866" d="M434 631q-172 0 -273.5 128t-101.5 316.5t106.5 316.5t270.5 128q168 0 272.5 -127t104.5 -318q0 -186 -104.5 -315t-274.5 -129zM434 713q119 0 202 99t83 263t-82 264.5t-203 100.5q-117 0 -197.5 -100.5t-80.5 -264.5t81.5 -263t196.5 -99zM287 823v520h170 q70 0 109.5 -41.5t39.5 -115.5q0 -111 -78 -148l93 -215h-115l-78 197h-35v-197h-106zM393 1102h45q61 0 62 76q0 78 -62 77h-45v-153z" />
<glyph unicode="&#xaf;" horiz-adv-x="684" d="M111 1225v172h460v-172h-460z" />
<glyph unicode="&#xb0;" horiz-adv-x="507" d="M254 1118q-82 0 -135 53.5t-53 128.5q0 74 54 128.5t134 54.5t134 -53.5t54 -129t-55 -129t-133 -53.5zM254 1210q35 0 59.5 26t24.5 64q0 37 -23.5 63t-60.5 26t-60.5 -25t-23.5 -63.5t24.5 -64.5t59.5 -26z" />
<glyph unicode="&#xb1;" horiz-adv-x="878" d="M356 385v252h-272v170h272v262h168v-262h273v-170h-273v-252h-168zM88 96v168h700v-168h-700z" />
<glyph unicode="&#xb2;" horiz-adv-x="561" d="M70 778v111l170 235q96 150 96 240v10q0 78 -55 78q-59 0 -60 -76v-47h-164v55q0 100 60.5 157.5t165.5 57.5q109 0 168 -60t59 -167q0 -61 -25.5 -128.5t-50 -106.5t-76.5 -111l-69 -102h223v-146h-442z" />
<glyph unicode="&#xb3;" horiz-adv-x="571" d="M283 756q-115 0 -173.5 58t-58.5 159v47h166v-51q0 -72 64 -72q59 0 59 109q0 57 -22.5 82.5t-51.5 25.5h-65v133h59q76 0 76 109q0 96 -60 96q-57 0 -57 -76v-39h-164v45q0 100 59.5 158.5t168.5 58.5q104 0 163.5 -58t59.5 -163q0 -150 -105 -190v-4q57 -18 88 -70.5 t31 -118.5q0 -125 -65.5 -182t-171.5 -57z" />
<glyph unicode="&#xb4;" horiz-adv-x="507" d="M82 1200l137 301h244l-205 -301h-176z" />
<glyph unicode="&#xb5;" horiz-adv-x="886" d="M82 -367v1457h242v-797q0 -111 98 -111q47 0 81 38t34 106v764h243v-746q0 -51 15.5 -76.5t52.5 -34.5l-2 -239q-184 14 -219 145q-53 -162 -193 -162q-61 0 -114.5 33t-69.5 92l-10 -4l75 -444z" />
<glyph unicode="&#xb6;" horiz-adv-x="897" d="M334 -133v602q-266 57 -266 477q0 231 94 373.5t278 142.5h398v-135h-88v-1460h-150v1460h-115v-1460h-151z" />
<glyph unicode="&#xb7;" horiz-adv-x="387" d="M80 575v299h229v-299h-229z" />
<glyph unicode="&#x22c5;" horiz-adv-x="387" d="M80 575v299h229v-299h-229z" />
<glyph unicode="&#xb8;" horiz-adv-x="561" d="M250 -393q-94 0 -166 22v113q86 -23 155.5 -23t69.5 45q0 41 -76 46l-73 6l49 211h100l-30 -129q197 0 196 -127q0 -74 -65.5 -119t-159.5 -45z" />
<glyph unicode="&#xb9;" horiz-adv-x="434" d="M147 778v654l-73 -19l-23 127l166 57h98v-819h-168z" />
<glyph unicode="&#xba;" horiz-adv-x="563" d="M281 801q-98 0 -158 48t-60 142v281q0 92 61.5 142t156.5 50q92 0 154.5 -48t62.5 -140v-285q0 -92 -61.5 -141t-155.5 -49zM279 922q59 0 59 61v295q0 61 -59 61q-55 0 -56 -61v-295q1 -61 56 -61zM90 602v131h387v-131h-387z" />
<glyph unicode="&#xbb;" horiz-adv-x="808" d="M172 250l-127 76l115 237l-119 240l129 71l233 -309zM516 242l-127 75l117 246l-121 246l129 74l238 -318z" />
<glyph unicode="&#xbc;" horiz-adv-x="1294" d="M205 647v653l-74 -18l-22 127l165 57h99v-819h-168zM969 0v180h-271v127l228 510h178l-240 -500h105v117l166 123v-240h65v-137h-65v-180h-166zM242 -2l620 1468h123l-620 -1468h-123z" />
<glyph unicode="&#xbd;" horiz-adv-x="1294" d="M203 647v653l-74 -18l-23 127l166 57h99v-819h-168zM756 0v111l170 235q96 150 96 240v10q0 78 -55 78q-59 0 -60 -76v-47h-164v55q0 100 60.5 157.5t165.5 57.5q109 0 168 -60.5t59 -166.5q0 -61 -25.5 -129t-50 -107t-76.5 -110l-69 -103h223v-145h-442zM225 -2 l621 1468h123l-621 -1468h-123z" />
<glyph unicode="&#xbe;" horiz-adv-x="1294" d="M995 0v180h-270v127l227 510h178l-239 -500h104v117l166 123v-240h66v-137h-66v-180h-166zM289 625q-115 0 -173.5 58t-58.5 159v47h166v-51q0 -72 64 -72q59 0 59 108q0 57 -22.5 83t-51.5 26h-65v133h59q76 0 76 109q0 96 -59 96q-57 0 -58 -76v-39h-164v45 q0 100 59.5 158.5t168.5 58.5q104 0 163.5 -58t59.5 -163q0 -150 -104 -190v-4q57 -18 87.5 -70.5t30.5 -118.5q0 -125 -65.5 -182t-171.5 -57zM297 -2l621 1468h122l-620 -1468h-123z" />
<glyph unicode="&#xbf;" horiz-adv-x="774" d="M526 731v-55q-2 -178 -98 -330q-2 -4 -20.5 -32.5t-22.5 -35.5l-19 -33q-15 -26 -20.5 -38t-14.5 -38t-13.5 -44.5t-7.5 -44t-3 -51.5q0 -63 24.5 -106.5t76.5 -43.5q98 0 98 133v105h209v-105q0 -158 -87 -250t-237 -92q-154 0 -238.5 96.5t-86.5 266.5q0 176 137 375 q86 135 100 206q6 23 6 48v69h217zM528 1151v-299h-229v299h229z" />
<glyph unicode="&#xc0;" horiz-adv-x="1024" d="M45 0l297 1462h352l285 -1462h-260l-68 354h-301l-65 -354h-240zM391 563h219l-104 606h-6zM428 1561l-205 301h244l137 -301h-176z" />
<glyph unicode="&#xc1;" horiz-adv-x="1024" d="M45 0l297 1462h352l285 -1462h-260l-68 354h-301l-65 -354h-240zM391 563h219l-104 606h-6zM424 1561l137 301h244l-205 -301h-176z" />
<glyph unicode="&#xc2;" horiz-adv-x="1024" d="M45 0l297 1462h352l285 -1462h-260l-68 354h-301l-65 -354h-240zM391 563h219l-104 606h-6zM250 1561l180 309h176l178 -309h-188l-82 159l-82 -159h-182z" />
<glyph unicode="&#xc3;" horiz-adv-x="1024" d="M45 0l297 1462h352l285 -1462h-260l-68 354h-301l-65 -354h-240zM391 563h219l-104 606h-6zM324 1567l-125 28q16 100 63 163t123 63q43 0 124 -30t120 -30q29 0 45 17.5t31 58.5l114 -29q-14 -96 -62 -160.5t-124 -64.5q-41 0 -124 29.5t-113.5 29.5t-46 -15t-25.5 -60z " />
<glyph unicode="&#xc4;" horiz-adv-x="1024" d="M45 0l297 1462h352l285 -1462h-260l-68 354h-301l-65 -354h-240zM391 563h219l-104 606h-6zM264 1571v280h191v-280h-191zM567 1571v280h191v-280h-191z" />
<glyph unicode="&#xc5;" horiz-adv-x="1024" d="M45 0l297 1462h352l285 -1462h-260l-68 354h-301l-65 -354h-240zM391 563h219l-104 606h-6zM520 1530q-82 0 -135 52t-53 132q0 82 54 136.5t136 54.5q84 0 136.5 -50.5t52.5 -132.5t-55.5 -137t-135.5 -55zM522 1624q39 0 63.5 26.5t24.5 67.5q0 43 -23.5 70t-64.5 27 q-39 0 -62.5 -27t-23.5 -70t24.5 -68.5t61.5 -25.5z" />
<glyph unicode="&#xc6;" horiz-adv-x="1392" d="M33 0l473 1460h817v-219h-412v-379h328v-221h-328v-420h414v-221h-672v383h-258l-106 -383h-256zM465 580h188v618h-8z" />
<glyph unicode="&#xc7;" horiz-adv-x="929" d="M483.5 -393q-94.5 0 -166.5 22v113q86 -23 156 -23t70 45q0 41 -76 46l-74 6l39 166q-162 12 -257 105t-95 259v770q0 170 113.5 268.5t291.5 98.5q166 0 270.5 -92.5t104.5 -247.5v-162h-233v137q0 66 -38 104t-104 38q-143 0 -143 -150v-750q0 -154 145 -153 q63 0 101.5 38t38.5 99v137h233v-151q0 -150 -90 -242t-238 -106l-20 -84q197 0 197 -127q0 -74 -65.5 -119t-160 -45z" />
<glyph unicode="&#xc8;" horiz-adv-x="835" d="M96 0v1460h670v-219h-414v-377h330v-221h-330v-422h416v-221h-672zM379 1561l-205 301h244l137 -301h-176z" />
<glyph unicode="&#xc9;" horiz-adv-x="835" d="M332 1561l137 301h244l-205 -301h-176zM96 0v1460h670v-219h-414v-377h330v-221h-330v-422h416v-221h-672z" />
<glyph unicode="&#xca;" horiz-adv-x="835" d="M152 1561l180 309h176l178 -309h-188l-82 159l-82 -159h-182zM96 0v1460h670v-219h-414v-377h330v-221h-330v-422h416v-221h-672z" />
<glyph unicode="&#xcb;" horiz-adv-x="835" d="M201 1571v280h190v-280h-190zM504 1571v280h190v-280h-190zM96 0v1460h670v-219h-414v-377h330v-221h-330v-422h416v-221h-672z" />
<glyph unicode="&#xcc;" horiz-adv-x="450" d="M96 0v1460h258v-1460h-258zM135 1561l-205 301h244l137 -301h-176z" />
<glyph unicode="&#xcd;" horiz-adv-x="450" d="M96 0v1460h258v-1460h-258zM131 1561l137 301h244l-205 -301h-176z" />
<glyph unicode="&#xce;" horiz-adv-x="450" d="M96 0v1460h258v-1460h-258zM-41 1561l180 309h176l179 -309h-189l-82 159l-82 -159h-182z" />
<glyph unicode="&#xcf;" horiz-adv-x="450" d="M96 0v1460h258v-1460h-258zM-20 1571v280h190v-280h-190zM283 1571v280h190v-280h-190z" />
<glyph unicode="&#xd0;" horiz-adv-x="993" d="M43 678v164h84v618h403q168 0 275.5 -87t107.5 -253v-760q0 -176 -107.5 -268t-279.5 -92h-399v678h-84zM383 221h121q76 0 111.5 45t35.5 109v719q0 66 -38 105.5t-111 39.5h-119v-397h192v-164h-192v-457z" />
<glyph unicode="&#xd1;" horiz-adv-x="1015" d="M96 0v1460h266l324 -844h6v844h230v-1460h-234l-358 936h-4v-936h-230zM342 1567l-125 28q16 100 63.5 163t122.5 63q43 0 124 -30t120 -30q29 0 45.5 17.5t30.5 58.5l115 -29q-14 -96 -62.5 -160.5t-124.5 -64.5q-41 0 -124 29.5t-113.5 29.5t-46 -15t-25.5 -60z" />
<glyph unicode="&#xd2;" horiz-adv-x="972" d="M485 -20q-188 0 -296.5 97t-108.5 288v733q0 182 113.5 283.5t293.5 101.5q178 0 292 -96.5t114 -280.5v-735q0 -190 -114 -290.5t-294 -100.5zM487.5 207q69.5 0 106.5 43t37 110v752q0 68 -39 106.5t-107 38.5q-70 0 -106.5 -40.5t-36.5 -108.5v-748q0 -68 38 -110.5 t107.5 -42.5zM408 1561l-205 301h243l138 -301h-176z" />
<glyph unicode="&#xd3;" horiz-adv-x="972" d="M399 1561l138 301h243l-205 -301h-176zM485 -20q-188 0 -296.5 97t-108.5 288v733q0 182 113.5 283.5t293.5 101.5q178 0 292 -96.5t114 -280.5v-735q0 -190 -114 -290.5t-294 -100.5zM487.5 207q69.5 0 106.5 43t37 110v752q0 68 -39 106.5t-107 38.5 q-70 0 -106.5 -40.5t-36.5 -108.5v-748q0 -68 38 -110.5t107.5 -42.5z" />
<glyph unicode="&#xd4;" horiz-adv-x="972" d="M215 1561l180 309h176l179 -309h-189l-82 159l-82 -159h-182zM485 -20q-188 0 -296.5 97t-108.5 288v733q0 182 113.5 283.5t293.5 101.5q178 0 292 -96.5t114 -280.5v-735q0 -190 -114 -290.5t-294 -100.5zM487.5 207q69.5 0 106.5 43t37 110v752q0 68 -39 106.5 t-107 38.5q-70 0 -106.5 -40.5t-36.5 -108.5v-748q0 -68 38 -110.5t107.5 -42.5z" />
<glyph unicode="&#xd5;" horiz-adv-x="972" d="M485 -20q-188 0 -296.5 97t-108.5 288v733q0 182 113.5 283.5t293.5 101.5q178 0 292 -96.5t114 -280.5v-735q0 -190 -114 -290.5t-294 -100.5zM487.5 207q69.5 0 106.5 43t37 110v752q0 68 -39 106.5t-107 38.5q-70 0 -106.5 -40.5t-36.5 -108.5v-748q0 -68 38 -110.5 t107.5 -42.5zM293 1567l-125 28q16 100 63.5 163t122.5 63q43 0 124 -30t120 -30q29 0 45 17.5t31 58.5l114 -29q-14 -96 -62 -160.5t-124 -64.5q-41 0 -124 29.5t-113.5 29.5t-46 -15t-25.5 -60z" />
<glyph unicode="&#xd6;" horiz-adv-x="972" d="M238 1571v280h190v-280h-190zM541 1571v280h190v-280h-190zM485 -20q-188 0 -296.5 97t-108.5 288v733q0 182 113.5 283.5t293.5 101.5q178 0 292 -96.5t114 -280.5v-735q0 -190 -114 -290.5t-294 -100.5zM487.5 207q69.5 0 106.5 43t37 110v752q0 68 -39 106.5 t-107 38.5q-70 0 -106.5 -40.5t-36.5 -108.5v-748q0 -68 38 -110.5t107.5 -42.5z" />
<glyph unicode="&#xd7;" horiz-adv-x="878" d="M207 297l-119 119l236 239l-238 238l119 119l237 -236q31 33 234 236l119 -121l-234 -234l122 -126l112 -113l-119 -119l-234 236z" />
<glyph unicode="&#xd8;" horiz-adv-x="972" d="M252 -100l-107 30l50 140q-115 98 -115 295v733q0 182 113.5 283.5t293.5 101.5q111 0 199 -37l41 115l107 -31l-52 -146q111 -104 111 -278v-735q0 -190 -113.5 -290.5t-294.5 -100.5q-111 0 -194 32zM342 1108v-627l258 725q-39 51 -115 51q-70 0 -106.5 -40.5 t-36.5 -108.5zM487 207q70 0 107 43t37 110v601l-254 -709q38 -45 110 -45z" />
<glyph unicode="&#xd9;" horiz-adv-x="968" d="M477 -23q-184 0 -286.5 94.5t-102.5 280.5v1108h262v-1095q0 -78 40 -119t104 -41q68 0 103.5 43t35.5 114v1098h246v-1100q2 -180 -111 -281.5t-291 -101.5zM422 1561l-205 301h244l137 -301h-176z" />
<glyph unicode="&#xda;" horiz-adv-x="968" d="M403 1561l138 301h243l-204 -301h-177zM477 -23q-184 0 -286.5 94.5t-102.5 280.5v1108h262v-1095q0 -78 40 -119t104 -41q68 0 103.5 43t35.5 114v1098h246v-1100q2 -180 -111 -281.5t-291 -101.5z" />
<glyph unicode="&#xdb;" horiz-adv-x="968" d="M223 1561l180 309h177l178 -309h-189l-82 159l-81 -159h-183zM477 -23q-184 0 -286.5 94.5t-102.5 280.5v1108h262v-1095q0 -78 40 -119t104 -41q68 0 103.5 43t35.5 114v1098h246v-1100q2 -180 -111 -281.5t-291 -101.5z" />
<glyph unicode="&#xdc;" horiz-adv-x="968" d="M246 1571v280h190v-280h-190zM549 1571v280h190v-280h-190zM477 -23q-184 0 -286.5 94.5t-102.5 280.5v1108h262v-1095q0 -78 40 -119t104 -41q68 0 103.5 43t35.5 114v1098h246v-1100q2 -180 -111 -281.5t-291 -101.5z" />
<glyph unicode="&#xdd;" horiz-adv-x="890" d="M317 0v586l-301 874h275l172 -567l166 567h245l-299 -874v-586h-258zM373 1561l137 301h244l-205 -301h-176z" />
<glyph unicode="&#xde;" horiz-adv-x="921" d="M88 0v1460h260v-270h160q352 0 352 -428q0 -219 -90 -341t-274 -122h-148v-299h-260zM348 504h111q147 0 147 252q0 225 -141 225h-117v-477z" />
<glyph unicode="&#xdf;" horiz-adv-x="958" d="M627 -12q-102 0 -174 22l24 193q49 -16 92 -17q102 0 103 156q0 98 -51.5 179t-131.5 120v188h23q49 51 80 131t31 150q0 74 -31 122t-86 48q-57 0 -86 -43t-29 -113v-1124h-239v895h-99v186h99v39q0 160 94 258.5t280 98.5q166 0 254 -93.5t88 -238.5q0 -111 -40 -214.5 t-117 -164.5v-4q94 -82 147 -196.5t53 -227.5q0 -150 -73.5 -250t-210.5 -100z" />
<glyph unicode="&#xe0;" horiz-adv-x="819" d="M299 -20q-104 0 -172 82.5t-68 246.5q0 166 105.5 259.5t263.5 97.5h64v165q0 90 -97 91q-94 0 -94 -91v-92h-219v97q0 125 91 201.5t238.5 76.5t233.5 -78t86 -213v-571q0 -51 5 -148.5t5 -103.5h-221q0 2 -2 17.5t-4 40.5l-4 53h-6q-29 -68 -88.5 -99.5t-116.5 -31.5z M389 168q41 0 72 37t31 88v225h-58q-59 0 -96 -45t-37 -135q0 -170 88 -170zM336 1200l-205 301h244l137 -301h-176z" />
<glyph unicode="&#xe1;" horiz-adv-x="819" d="M299 -20q-104 0 -172 82.5t-68 246.5q0 166 105.5 259.5t263.5 97.5h64v165q0 90 -97 91q-94 0 -94 -91v-92h-219v97q0 125 91 201.5t238.5 76.5t233.5 -78t86 -213v-571q0 -51 5 -148.5t5 -103.5h-221q0 2 -2 17.5t-4 40.5l-4 53h-6q-29 -68 -88.5 -99.5t-116.5 -31.5z M389 168q41 0 72 37t31 88v225h-58q-59 0 -96 -45t-37 -135q0 -170 88 -170zM301 1200l137 301h244l-205 -301h-176z" />
<glyph unicode="&#xe2;" horiz-adv-x="819" d="M299 -20q-104 0 -172 82.5t-68 246.5q0 166 105.5 259.5t263.5 97.5h64v165q0 90 -97 91q-94 0 -94 -91v-92h-219v97q0 125 91 201.5t238.5 76.5t233.5 -78t86 -213v-571q0 -51 5 -148.5t5 -103.5h-221q0 2 -2 17.5t-4 40.5l-4 53h-6q-29 -68 -88.5 -99.5t-116.5 -31.5z M389 168q41 0 72 37t31 88v225h-58q-59 0 -96 -45t-37 -135q0 -170 88 -170zM135 1200l180 309h177l178 -309h-189l-82 160l-82 -160h-182z" />
<glyph unicode="&#xe3;" horiz-adv-x="819" d="M299 -20q-104 0 -172 82.5t-68 246.5q0 166 105.5 259.5t263.5 97.5h64v165q0 90 -97 91q-94 0 -94 -91v-92h-219v97q0 125 91 201.5t238.5 76.5t233.5 -78t86 -213v-571q0 -51 5 -148.5t5 -103.5h-221q0 2 -2 17.5t-4 40.5l-4 53h-6q-29 -68 -88.5 -99.5t-116.5 -31.5z M389 168q41 0 72 37t31 88v225h-58q-59 0 -96 -45t-37 -135q0 -170 88 -170zM221 1206l-125 29q16 100 63.5 162.5t123.5 62.5q43 0 123.5 -29.5t119.5 -29.5q29 0 45.5 17.5t30.5 58.5l115 -29q-14 -96 -62.5 -160.5t-124.5 -64.5q-41 0 -123.5 29.5t-113.5 29.5 t-46.5 -15.5t-25.5 -60.5z" />
<glyph unicode="&#xe4;" horiz-adv-x="819" d="M299 -20q-104 0 -172 82.5t-68 246.5q0 166 105.5 259.5t263.5 97.5h64v165q0 90 -97 91q-94 0 -94 -91v-92h-219v97q0 125 91 201.5t238.5 76.5t233.5 -78t86 -213v-571q0 -51 5 -148.5t5 -103.5h-221q0 2 -2 17.5t-4 40.5l-4 53h-6q-29 -68 -88.5 -99.5t-116.5 -31.5z M389 168q41 0 72 37t31 88v225h-58q-59 0 -96 -45t-37 -135q0 -170 88 -170zM160 1210v281h190v-281h-190zM463 1210v281h190v-281h-190z" />
<glyph unicode="&#xe5;" horiz-adv-x="819" d="M299 -20q-104 0 -172 82.5t-68 246.5q0 166 105.5 259.5t263.5 97.5h64v165q0 90 -97 91q-94 0 -94 -91v-92h-219v97q0 125 91 201.5t238.5 76.5t233.5 -78t86 -213v-571q0 -51 5 -148.5t5 -103.5h-221q0 2 -2 17.5t-4 40.5l-4 53h-6q-29 -68 -88.5 -99.5t-116.5 -31.5z M389 168q41 0 72 37t31 88v225h-58q-59 0 -96 -45t-37 -135q0 -170 88 -170zM408 1182q-82 0 -135.5 52t-53.5 132q0 82 54.5 136t136.5 54q84 0 136 -50t52 -132t-55 -137t-135 -55zM410 1276q39 0 63.5 26.5t24.5 67.5q0 43 -23.5 69.5t-64.5 26.5q-39 0 -62.5 -26.5 t-23.5 -69.5t24.5 -68.5t61.5 -25.5z" />
<glyph unicode="&#xe6;" horiz-adv-x="1216" d="M299 -23q-104 0 -172 83t-68 249t106.5 260.5t262.5 96.5h64v165q0 90 -97 91q-94 0 -94 -91v-92h-219v97q0 125 91 201.5t239 76.5q137 0 211 -70q90 70 213 70q143 0 227 -84t84 -229v-340h-412v-131q0 -156 150 -156q92 0 205 43l45 -174q-129 -66 -293 -66 q-205 0 -293 136q-78 -136 -250 -136zM393 168q41 0 70 32.5t29 84.5v233h-58q-59 0 -96 -45t-37 -135q0 -170 92 -170zM735 633h197v176q0 113 -98 113q-49 0 -74 -33t-25 -80v-176z" />
<glyph unicode="&#xe7;" horiz-adv-x="796" d="M413.5 -393q-94.5 0 -165.5 22v113q86 -23 155.5 -23t69.5 45q0 41 -76 46l-73 6l38 166q-131 14 -207.5 95t-76.5 220v489q0 154 96 241t242 87q143 0 229 -78t86 -200v-103h-215v86q0 43 -24.5 71t-71.5 28q-49 0 -75 -32t-26 -83v-512q0 -119 101 -119q51 0 73.5 29.5 t22.5 70.5v86h215v-98q0 -121 -71.5 -192.5t-196.5 -83.5l-21 -86q197 0 197 -127q0 -74 -65.5 -119t-160 -45z" />
<glyph unicode="&#xe8;" horiz-adv-x="800" d="M424 -23q-158 0 -252 83t-94 241v473q0 158 96 249t243.5 91t230.5 -86t83 -231v-336h-414v-131q0 -156 154 -156q84 0 203 43l45 -174q-135 -66 -295 -66zM317 633h199v176q0 113 -98 113q-49 0 -75 -33t-26 -82v-174zM354 1200l-204 301h243l137 -301h-176z" />
<glyph unicode="&#xe9;" horiz-adv-x="800" d="M319 1200l138 301h243l-204 -301h-177zM424 -23q-158 0 -252 83t-94 241v473q0 158 96 249t243.5 91t230.5 -86t83 -231v-336h-414v-131q0 -156 154 -156q84 0 203 43l45 -174q-135 -66 -295 -66zM317 633h199v176q0 113 -98 113q-49 0 -75 -33t-26 -82v-174z" />
<glyph unicode="&#xea;" horiz-adv-x="800" d="M162 1200l180 309h176l178 -309h-188l-82 160l-82 -160h-182zM424 -23q-158 0 -252 83t-94 241v473q0 158 96 249t243.5 91t230.5 -86t83 -231v-336h-414v-131q0 -156 154 -156q84 0 203 43l45 -174q-135 -66 -295 -66zM317 633h199v176q0 113 -98 113q-49 0 -75 -33 t-26 -82v-174z" />
<glyph unicode="&#xeb;" horiz-adv-x="800" d="M170 1210v281h190v-281h-190zM473 1210v281h191v-281h-191zM424 -23q-158 0 -252 83t-94 241v473q0 158 96 249t243.5 91t230.5 -86t83 -231v-336h-414v-131q0 -156 154 -156q84 0 203 43l45 -174q-135 -66 -295 -66zM317 633h199v176q0 113 -98 113q-49 0 -75 -33 t-26 -82v-174z" />
<glyph unicode="&#xec;" horiz-adv-x="428" d="M94 0v1090h240v-1090h-240zM125 1200l-205 301h244l137 -301h-176z" />
<glyph unicode="&#xed;" horiz-adv-x="428" d="M123 1200l137 301h244l-205 -301h-176zM94 0v1090h240v-1090h-240z" />
<glyph unicode="&#xee;" horiz-adv-x="428" d="M-51 1200l180 309h176l178 -309h-188l-82 160l-82 -160h-182zM94 0v1090h240v-1090h-240z" />
<glyph unicode="&#xef;" horiz-adv-x="428" d="M-29 1210v281h191v-281h-191zM274 1210v281h191v-281h-191zM94 0v1090h240v-1090h-240z" />
<glyph unicode="&#xf0;" horiz-adv-x="833" d="M137 1169l-59 131l147 31l-67 115l243 51l66 -117l145 31l62 -129l-133 -29l178 -311q45 -76 45 -164v-477q0 -158 -96.5 -239.5t-247.5 -81.5q-156 0 -249 79.5t-93 239.5v471q0 133 70.5 217t195.5 96q25 0 31 -4l-74 125zM422 172q100 0 100 115v493q0 51 -25.5 83 t-74.5 32t-76 -33t-27 -82v-497q0 -47 26 -79t77 -32z" />
<glyph unicode="&#xf1;" d="M94 0v1090h236v-101h2q78 125 227 125q94 0 155.5 -59.5t61.5 -159.5v-895h-239v801q0 111 -93 110q-47 0 -77.5 -44t-30.5 -103v-764h-242zM276 1206l-124 29q16 100 63 162.5t123 62.5q43 0 124 -29.5t120 -29.5q29 0 45 17.5t30 58.5l115 -29q-14 -96 -62 -160.5 t-124 -64.5q-41 0 -124 29.5t-114 29.5t-46.5 -15.5t-25.5 -60.5z" />
<glyph unicode="&#xf2;" horiz-adv-x="839" d="M420 -20q-154 0 -248 81.5t-94 239.5v487q0 154 98 240t244 86q147 0 245.5 -82t98.5 -235v-494q0 -158 -97 -240.5t-247 -82.5zM422 172q100 0 100 117v512q0 49 -26.5 83t-75.5 34q-51 0 -76 -34t-25 -85v-512q0 -49 26 -82t77 -33zM340 1200l-205 301h244l137 -301 h-176z" />
<glyph unicode="&#xf3;" horiz-adv-x="839" d="M322 1200l137 301h243l-204 -301h-176zM420 -20q-154 0 -248 81.5t-94 239.5v487q0 154 98 240t244 86q147 0 245.5 -82t98.5 -235v-494q0 -158 -97 -240.5t-247 -82.5zM422 172q100 0 100 117v512q0 49 -26.5 83t-75.5 34q-51 0 -76 -34t-25 -85v-512q0 -49 26 -82 t77 -33z" />
<glyph unicode="&#xf4;" horiz-adv-x="839" d="M160 1200l180 309h176l178 -309h-188l-82 160l-82 -160h-182zM420 -20q-154 0 -248 81.5t-94 239.5v487q0 154 98 240t244 86q147 0 245.5 -82t98.5 -235v-494q0 -158 -97 -240.5t-247 -82.5zM422 172q100 0 100 117v512q0 49 -26.5 83t-75.5 34q-51 0 -76 -34t-25 -85 v-512q0 -49 26 -82t77 -33z" />
<glyph unicode="&#xf5;" horiz-adv-x="839" d="M420 -20q-154 0 -248 81.5t-94 239.5v487q0 154 98 240t244 86q147 0 245.5 -82t98.5 -235v-494q0 -158 -97 -240.5t-247 -82.5zM422 172q100 0 100 117v512q0 49 -26.5 83t-75.5 34q-51 0 -76 -34t-25 -85v-512q0 -49 26 -82t77 -33zM236 1206l-125 29q16 100 63 162.5 t123 62.5q43 0 124 -29.5t120 -29.5q29 0 45 17.5t30 58.5l115 -29q-14 -96 -62 -160.5t-124 -64.5q-41 0 -124 29.5t-114 29.5t-46 -15.5t-25 -60.5z" />
<glyph unicode="&#xf6;" horiz-adv-x="839" d="M176 1210v281h191v-281h-191zM479 1210v281h191v-281h-191zM420 -20q-154 0 -248 81.5t-94 239.5v487q0 154 98 240t244 86q147 0 245.5 -82t98.5 -235v-494q0 -158 -97 -240.5t-247 -82.5zM422 172q100 0 100 117v512q0 49 -26.5 83t-75.5 34q-51 0 -76 -34t-25 -85 v-512q0 -49 26 -82t77 -33z" />
<glyph unicode="&#xf7;" horiz-adv-x="878" d="M344 227v236h193v-236h-193zM98 569v168h684v-168h-684zM344 836v235h193v-235h-193z" />
<glyph unicode="&#xf8;" horiz-adv-x="839" d="M238 -104l-93 30l43 119q-111 84 -110 256v487q0 154 98 240t244 86q82 0 149 -27l39 109l92 -31l-45 -125q109 -88 109 -243v-494q0 -158 -97.5 -240.5t-246.5 -82.5q-72 0 -144 20zM319 799v-396l175 482q-29 33 -74 33q-51 0 -76 -34t-25 -85zM422 172q100 0 100 117 v387l-174 -477q27 -27 74 -27z" />
<glyph unicode="&#xf9;" d="M303 -23q-92 0 -153.5 60.5t-61.5 161.5v891h238v-803q0 -106 94 -107q47 0 78.5 44t31.5 104v762h238v-1090h-233v109h-3q-79 -132 -229 -132zM342 1200l-205 301h244l137 -301h-176z" />
<glyph unicode="&#xfa;" d="M338 1200l137 301h244l-205 -301h-176zM303 -23q-92 0 -153.5 60.5t-61.5 161.5v891h238v-803q0 -106 94 -107q47 0 78.5 44t31.5 104v762h238v-1090h-233v109h-3q-79 -132 -229 -132z" />
<glyph unicode="&#xfb;" d="M168 1200l180 309h176l178 -309h-188l-82 160l-82 -160h-182zM303 -23q-92 0 -153.5 60.5t-61.5 161.5v891h238v-803q0 -106 94 -107q47 0 78.5 44t31.5 104v762h238v-1090h-233v109h-3q-79 -132 -229 -132z" />
<glyph unicode="&#xfc;" d="M184 1210v281h191v-281h-191zM487 1210v281h191v-281h-191zM303 -23q-92 0 -153.5 60.5t-61.5 161.5v891h238v-803q0 -106 94 -107q47 0 78.5 44t31.5 104v762h238v-1090h-233v109h-3q-79 -132 -229 -132z" />
<glyph unicode="&#xfd;" horiz-adv-x="770" d="M211 -350q-74 0 -139 16l24 191q66 -12 86 -13q66 0 86 68l23 98l-273 1080h250l140 -687h6l118 687h220l-263 -1160q-69 -280 -278 -280zM313 1200l138 301h243l-205 -301h-176z" />
<glyph unicode="&#xfe;" horiz-adv-x="839" d="M86 -330v1790h240v-473h4q35 57 94 91t119 34q117 0 172 -71.5t55 -188.5v-616q0 -111 -68.5 -183.5t-187.5 -72.5q-121 0 -184 94h-2v-404h-242zM432 170q45 0 71.5 27.5t26.5 81.5v534q0 49 -25.5 78t-68.5 29q-49 0 -78.5 -35t-29.5 -101v-491q0 -57 30.5 -90 t73.5 -33z" />
<glyph unicode="&#xff;" horiz-adv-x="770" d="M211 -350q-74 0 -139 16l24 191q66 -12 86 -13q66 0 86 68l23 98l-273 1080h250l140 -687h6l118 687h220l-263 -1160q-69 -280 -278 -280zM156 1210v281h190v-281h-190zM459 1210v281h190v-281h-190z" />
<glyph unicode="&#x152;" horiz-adv-x="1376" d="M446 -16q-367 0 -366 385v725q0 188 98 287.5t275 99.5q117 0 182 -66v45h672v-219h-414v-379h330v-221h-330v-420h416v-221h-674v55q-68 -71 -189 -71zM489 209q70 0 108 44t38 112v745q0 68 -41 105.5t-109 37.5q-70 0 -106.5 -41t-36.5 -106v-741q0 -70 37.5 -113 t109.5 -43z" />
<glyph unicode="&#x153;" horiz-adv-x="1247" d="M420 -23q-154 0 -248 83t-94 241v487q0 154 98 240t244 86q137 0 227 -74q90 74 219 74q147 0 229.5 -86t82.5 -231v-336h-412v-131q0 -156 152 -156q78 0 202 43l47 -174q-131 -66 -293 -66q-145 0 -231 72q-86 -72 -223 -72zM422 172q100 0 100 117v512q0 49 -26.5 83 t-75.5 34q-51 0 -76 -34t-25 -85v-512q0 -49 26 -82t77 -33zM766 633h199v176q0 113 -101 113q-47 0 -72.5 -33t-25.5 -80v-176z" />
<glyph unicode="&#x178;" horiz-adv-x="890" d="M317 0v586l-301 874h275l172 -567l166 567h245l-299 -874v-586h-258zM211 1571v280h190v-280h-190zM514 1571v280h191v-280h-191z" />
<glyph unicode="&#x2c6;" horiz-adv-x="626" d="M47 1200l180 309h176l179 -309h-189l-82 160l-82 -160h-182z" />
<glyph unicode="&#x2dc;" horiz-adv-x="722" d="M182 1206l-125 29q16 100 63.5 162.5t123.5 62.5q43 0 124 -29.5t119 -29.5q29 0 45.5 17.5t30.5 58.5l115 -29q-14 -96 -62.5 -160.5t-123.5 -64.5q-41 0 -124 29.5t-114 29.5t-46.5 -15.5t-25.5 -60.5z" />
<glyph unicode="&#x2000;" horiz-adv-x="952" />
<glyph unicode="&#x2001;" horiz-adv-x="1904" />
<glyph unicode="&#x2002;" horiz-adv-x="952" />
<glyph unicode="&#x2003;" horiz-adv-x="1904" />
<glyph unicode="&#x2004;" horiz-adv-x="634" />
<glyph unicode="&#x2005;" horiz-adv-x="475" />
<glyph unicode="&#x2006;" horiz-adv-x="317" />
<glyph unicode="&#x2007;" horiz-adv-x="317" />
<glyph unicode="&#x2008;" horiz-adv-x="237" />
<glyph unicode="&#x2009;" horiz-adv-x="380" />
<glyph unicode="&#x200a;" horiz-adv-x="104" />
<glyph unicode="&#x2010;" horiz-adv-x="485" d="M49 518v191h387v-191h-387z" />
<glyph unicode="&#x2011;" horiz-adv-x="485" d="M49 518v191h387v-191h-387z" />
<glyph unicode="&#x2012;" horiz-adv-x="485" d="M49 518v191h387v-191h-387z" />
<glyph unicode="&#x2013;" horiz-adv-x="751" d="M0 545v160h752v-160h-752z" />
<glyph unicode="&#x2014;" horiz-adv-x="1290" d="M0 545v160h1290v-160h-1290z" />
<glyph unicode="&#x2018;" horiz-adv-x="385" d="M78 930v270l88 262h117l-56 -250h78v-282h-227z" />
<glyph unicode="&#x2019;" horiz-adv-x="385" d="M104 928l52 250h-76v282h227v-268l-88 -264h-115z" />
<glyph unicode="&#x201a;" horiz-adv-x="385" d="M109 -207l45 221l-76 29l10 256l219 -27l-4 -272l-90 -236z" />
<glyph unicode="&#x201c;" horiz-adv-x="720" d="M78 930v270l88 262h117l-56 -250h78v-282h-227zM414 930v270l88 262h116l-53 -250h78v-282h-229z" />
<glyph unicode="&#x201d;" horiz-adv-x="720" d="M104 928l52 250h-78v282h229v-268l-88 -264h-115zM440 928l54 250h-78v282h229v-268l-90 -264h-115z" />
<glyph unicode="&#x201e;" horiz-adv-x="720" d="M104 -236l52 250h-78v285h229v-270l-88 -265h-115zM440 -236l54 250h-78v285h229v-270l-90 -265h-115z" />
<glyph unicode="&#x2022;" horiz-adv-x="770" d="M387 451q-115 0 -195.5 80.5t-80.5 195.5t80.5 196t195.5 81q113 0 192.5 -81t79.5 -196t-79.5 -195.5t-192.5 -80.5z" />
<glyph unicode="&#x2026;" horiz-adv-x="1116" d="M80 0v299h227v-299h-227zM444 0v299h230v-299h-230zM809 0v299h229v-299h-229z" />
<glyph unicode="&#x202f;" horiz-adv-x="380" />
<glyph unicode="&#x2039;" horiz-adv-x="464" d="M283 242l-238 319l236 322l127 -76l-119 -246l123 -248z" />
<glyph unicode="&#x203a;" horiz-adv-x="466" d="M178 242l-129 75l117 246l-121 246l131 74l238 -318z" />
<glyph unicode="&#x205f;" horiz-adv-x="475" />
<glyph unicode="&#x20ac;" horiz-adv-x="983" d="M551 -23q-176 0 -284.5 93.5t-108.5 261.5v188h-103v148h103v133h-103v143h103v182q0 160 112.5 259.5t282.5 99.5q166 0 269.5 -90t103.5 -246v-119h-234v105q0 63 -38 100t-103 37q-63 0 -97 -40t-34 -102v-186h268v-143h-268v-133h268v-148h-268v-180q0 -68 37 -107.5 t102 -39.5q63 0 98 37.5t35 101.5v92h234v-98q0 -162 -103.5 -255.5t-271.5 -93.5z" />
<glyph unicode="&#x2122;" horiz-adv-x="1044" d="M487 834v632h168l74 -266l70 266h164v-632h-121v411l-68 -246h-96l-70 246v-411h-121zM176 834v518h-125v114h383v-114h-125v-518h-133z" />
<glyph unicode="&#xe000;" horiz-adv-x="1090" d="M0 1090h1090v-1090h-1090v1090z" />
<glyph unicode="&#xe38c;" horiz-adv-x="968" d="M643 0v1090h242v-1090h-242zM643 1233v264h242v-264h-242zM160 0v895h-101v186h101v160q0 111 68.5 174.5t183.5 63.5q80 0 139 -15v-182q-33 8 -82 8q-31 0 -50.5 -21.5t-19.5 -60.5v-127h125v-186h-125v-895h-239z" />
<glyph unicode="&#xfb01;" horiz-adv-x="968" d="M643 0v1090h242v-1090h-242zM643 1233v264h242v-264h-242zM160 0v895h-101v186h101v160q0 111 68.5 174.5t183.5 63.5q80 0 139 -15v-182q-33 8 -82 8q-31 0 -50.5 -21.5t-19.5 -60.5v-127h125v-186h-125v-895h-239z" />
<glyph unicode="&#xe38d;" horiz-adv-x="1032" d="M856 -16q-215 0 -215 204v1272h242v-1196q0 -59 57 -59q23 0 51 6v-203q-61 -24 -135 -24zM160 0v895h-101v186h101v160q0 111 68.5 174.5t183.5 63.5q80 0 139 -15v-182q-33 8 -82 8q-31 0 -50.5 -21.5t-19.5 -60.5v-127h125v-186h-125v-895h-239z" />
<glyph unicode="&#xfb02;" horiz-adv-x="1032" d="M856 -16q-215 0 -215 204v1272h242v-1196q0 -59 57 -59q23 0 51 6v-203q-61 -24 -135 -24zM160 0v895h-101v186h101v160q0 111 68.5 174.5t183.5 63.5q80 0 139 -15v-182q-33 8 -82 8q-31 0 -50.5 -21.5t-19.5 -60.5v-127h125v-186h-125v-895h-239z" />
<glyph unicode="&#xfb03;" horiz-adv-x="1595" d="M1261 0v1090h242v-1090h-242zM1261 1233v264h242v-264h-242zM746 0v895h-101v186h101v160q0 111 68.5 174.5t183.5 63.5q80 0 139 -15v-182q-33 8 -82 8q-31 0 -50.5 -21.5t-19.5 -60.5v-127h125v-186h-125v-895h-239zM162 0v895h-101v186h101v160q0 111 68.5 174.5 t183.5 63.5q80 0 139 -15v-182q-33 8 -82 8q-31 0 -50.5 -21.5t-19.5 -60.5v-127h125v-186h-125v-895h-239z" />
<glyph unicode="&#xfb04;" horiz-adv-x="1644" d="M1472 -16q-215 0 -215 204v1272h242v-1196q0 -59 57 -59q25 0 51 6v-203q-61 -24 -135 -24zM746 0v895h-101v186h101v160q0 111 68.5 174.5t183.5 63.5q80 0 139 -15v-182q-33 8 -82 8q-31 0 -50.5 -21.5t-19.5 -60.5v-127h125v-186h-125v-895h-239zM162 0v895h-101v186 h101v160q0 111 68.5 174.5t183.5 63.5q80 0 139 -15v-182q-33 8 -82 8q-31 0 -50.5 -21.5t-19.5 -60.5v-127h125v-186h-125v-895h-239z" />
<glyph horiz-adv-x="331" />
</font>
</defs>
</svg>
