<?xml version="1.0" standalone="no"?>
<!DOCTYPE svg PUBLIC "-//W3C//DTD SVG 1.1//EN" "http://www.w3.org/Graphics/SVG/1.1/DTD/svg11.dtd" >
<svg xmlns="http://www.w3.org/2000/svg">
<metadata>
This is a custom SVG webfont generated by Font Squirrel.
Copyright   : Copyright c 2008 by Mrio Feliciano All rights reserved
Designer    : Mrio Feliciano
Foundry     : Mrio Feliciano  Feliciano Type Foundry
</metadata>
<defs>
<font id="webfontRLJPV8sW" horiz-adv-x="512" >
<font-face units-per-em="2048" ascent="1638" descent="-410" />
<missing-glyph horiz-adv-x="174" />
<glyph unicode=" "  horiz-adv-x="174" />
<glyph unicode="&#x09;" horiz-adv-x="174" />
<glyph unicode="&#xa0;" horiz-adv-x="174" />
<glyph unicode="!" horiz-adv-x="266" d="M98 371l-16 499v590h102v-590l-14 -499h-72zM84 0v203h96v-203h-96z" />
<glyph unicode="&#x22;" horiz-adv-x="430" d="M90 1090l-16 196v178h90v-178l-12 -196h-62zM281 1090l-17 196v178h92v-178l-14 -196h-61z" />
<glyph unicode="#" horiz-adv-x="600" d="M111 -4l24 412h-90l6 77h90l37 500h-94l6 80h90l35 403h80l-31 -403h125l29 403h84l-31 -403h90l-4 -80h-88l-37 -500h90l-4 -77h-90l-29 -412h-82l29 412h-127l-24 -412h-84zM225 485h127l33 500h-125z" />
<glyph unicode="$" horiz-adv-x="493" d="M201 -72v142q-156 27 -158 297h96q2 -70 9.5 -111t32 -72.5t65.5 -31.5q51 0 73.5 45t22.5 104q0 133 -92 313l-92 181q-106 217 -107 354q0 195 150 227v135h94v-133q78 -12 116 -77.5t40 -210.5h-101q-4 121 -27.5 163.5t-72.5 42.5q-92 0 -92 -147q0 -137 102 -313 l57 -113q127 -250 127 -422q0 -205 -149 -229v-144h-94z" />
<glyph unicode="%" horiz-adv-x="845" d="M215 782q-72 0 -112 46t-40 128v353q0 84 40 132t112 48q74 0 115 -47t41 -131v-355q0 -80 -42 -127t-114 -47zM213 862q74 0 74 94v361q0 94 -74 94q-68 0 -68 -94v-361q0 -94 68 -94zM630.5 -20q-71.5 0 -112.5 46t-41 128v342q0 84 41 137t112.5 53t112.5 -48t41 -132 v-352q0 -82 -41 -128t-112.5 -46zM629 55q72 0 71 97v362q0 92 -71 92q-70 0 -70 -92v-362q0 -95 70 -97zM186 0l404 1481h74l-398 -1481h-80z" />
<glyph unicode="&#x26;" horiz-adv-x="567" d="M252 -23q-201 0 -201 400q0 303 121 432q-88 238 -88 401q0 121 43 199t137 78q164 0 164 -268q0 -262 -141 -433q2 -4 66.5 -195.5t66.5 -195.5q20 125 31 248l79 -4q-20 -205 -65 -377l92 -262h-100l-47 139q-23 -72 -66 -117t-92 -45zM260 78q41 0 70.5 51t44.5 111 l-164 469q-27 -41 -41 -103.5t-15 -101.5t-1 -123q0 -63 2 -100t11 -92.5t32.5 -83t60.5 -27.5zM252 868q82 121 82 344q0 190 -74 190.5t-74 -185.5q0 -152 66 -349z" />
<glyph unicode="'" horiz-adv-x="239" d="M90 1090l-16 196v178h90v-178l-12 -196h-62z" />
<glyph unicode="(" horiz-adv-x="274" d="M203 -334q-63 176 -98 432t-35 482q0 539 133 903l59 -8q-57 -299 -76.5 -465t-19.5 -432q0 -375 96 -900z" />
<glyph unicode=")" horiz-adv-x="274" d="M72 -334l-60 12q96 524 97 900q0 266 -19.5 432t-77.5 465l60 8q133 -365 133 -903q0 -225 -35 -481.5t-98 -432.5z" />
<glyph unicode="*" horiz-adv-x="501" d="M158 1055l-62 41l88 141l-135 88l37 64l129 -78v155h74v-155l127 78l39 -64l-138 -88l89 -141l-60 -41l-94 149z" />
<glyph unicode="+" d="M217 420v194h-166v86h166v199h78l-2 -199h168v-86h-166v-194h-78z" />
<glyph unicode="," horiz-adv-x="243" d="M76 -172l24 178h-26v197h96v-187l-37 -188h-57z" />
<glyph unicode="-" horiz-adv-x="333" d="M43 569v99h248v-99h-248z" />
<glyph unicode="." horiz-adv-x="243" d="M74 0v203h96v-203h-96z" />
<glyph unicode="/" horiz-adv-x="333" d="M-25 -324l258 1784h82l-252 -1784h-88z" />
<glyph unicode="0" horiz-adv-x="495" d="M242 -14q-92 0 -139.5 57t-47.5 160v1075q0 96 55.5 149.5t141.5 53.5q82 0 135 -49.5t53 -141.5v-1089q0 -109 -53 -162t-145 -53zM248 84q84 0 84 104v1098q0 39 -20.5 67.5t-63.5 28.5q-84 0 -84 -92v-1102q0 -39 19.5 -71.5t64.5 -32.5z" />
<glyph unicode="1" horiz-adv-x="362" d="M135 0v1329l-65 -31l-21 78l121 84h70v-1460h-105z" />
<glyph unicode="2" horiz-adv-x="450" d="M41 0v80l119 332q137 397 137 698v43q0 229 -78 229q-68 0 -67 -174v-114h-101v110q0 276 174 277q180 0 181 -336q0 -217 -40 -394.5t-116 -392.5l-92 -258v-4h250v-96h-367z" />
<glyph unicode="3" horiz-adv-x="462" d="M229 -14q-59 0 -99 29.5t-57.5 86t-23.5 112.5t-6 136v39h111v-53q0 -53 1 -84t8 -76t23.5 -67.5t42.5 -22.5q45 0 60.5 78t15.5 246q0 291 -112 290h-56v109h64q57 0 77.5 73.5t20.5 233.5q0 152 -17.5 209t-58.5 57q-25 0 -40 -18t-21 -58t-7 -68t-1 -77v-67h-103v90 q0 297 182 297q174 0 175 -365q0 -297 -111 -350v-4q121 -55 121 -369q-1 -407 -189 -407z" />
<glyph unicode="4" horiz-adv-x="477" d="M279 0v403h-250v89l223 968h104l-231 -962h154v356l96 100v-456h76v-95h-76v-403h-96z" />
<glyph unicode="5" horiz-adv-x="460" d="M229 -14q-186 0 -186 274v133h107v-114q0 -193 79 -193q82 0 82 199v372q0 88 -16 127t-62 39q-33 0 -55 -26.5t-33 -67.5h-84l23 731h319v-98h-227q0 -8 -7 -261t-7 -259q33 76 117 76q57 0 98 -50.5t41 -158.5v-414q0 -141 -46.5 -225t-142.5 -84z" />
<glyph unicode="6" horiz-adv-x="489" d="M244 -14q-90 0 -135.5 62.5t-45.5 166.5v1042q0 111 52.5 166.5t138.5 55.5q84 0 131 -57.5t47 -139.5v-188h-102v166q0 125 -80 124q-82 0 -82 -131v-428q47 57 111 58q156 0 155 -183v-489q0 -106 -51 -165.5t-139 -59.5zM250 82q80 0 80 125v487q0 96 -78 97 q-43 0 -63.5 -31t-20.5 -68v-497q0 -43 19.5 -78t62.5 -35z" />
<glyph unicode="7" horiz-adv-x="438" d="M109 0q10 844 186 1362h-246v98h350v-88q-172 -498 -190 -1372h-100z" />
<glyph unicode="8" horiz-adv-x="487" d="M237.5 -10q-90.5 0 -138.5 56t-48 159v393q0 113 72 164q-61 49 -62 172v342q0 98 52.5 151.5t136.5 53.5q80 0 130 -49.5t50 -143.5v-352q0 -119 -65 -172q72 -49 71 -154v-405q0 -109 -54 -162t-144.5 -53zM246 86q82 0 82 107v419q0 41 -19.5 74t-62.5 33 q-45 0 -65.5 -31t-20.5 -72v-421q0 -41 19.5 -75t66.5 -34zM246 809q80 0 80 111v366q0 39 -19.5 68.5t-60.5 29.5q-80 0 -80 -96v-366q0 -113 80 -113z" />
<glyph unicode="9" horiz-adv-x="483" d="M236 -12q-86 0 -132.5 59t-46.5 160v182h103v-170q0 -135 80 -135q82 0 82 135v432q-43 -57 -109 -57q-158 0 -158 180v481q0 106 51.5 165t139.5 59q90 0 136 -62.5t46 -167.5v-1011q1 -250 -192 -250zM238 684q43 0 63.5 32t20.5 68v486q0 43 -18.5 78.5t-61.5 35.5 q-82 0 -82 -124v-480q0 -96 78 -96z" />
<glyph unicode=":" horiz-adv-x="243" d="M74 0v203h96v-203h-96zM78 879v202h96v-202h-96z" />
<glyph unicode=";" horiz-adv-x="247" d="M76 -172l28 178h-26v197h96v-187l-41 -188h-57zM78 879v202h96v-202h-96z" />
<glyph unicode="&#x3c;" d="M401 438l-333 187l2 69l331 187l41 -78l-264 -144l266 -145z" />
<glyph unicode="=" d="M53 492v88h406v-88h-406zM53 698v86h406v-86h-406z" />
<glyph unicode="&#x3e;" d="M111 438l-41 78l264 143l-266 146l43 76l333 -187l-2 -69z" />
<glyph unicode="?" horiz-adv-x="464" d="M174 371v80q0 170 68 352q61 172 61 311v35v40q0 13 -1 38.5t-3 40.5l-5 36q-3 22 -9 34t-14.5 24t-19.5 17t-26 5q-72 0 -71 -188v-125h-93v105q0 152 39 228.5t133 76.5q172 0 173 -359q0 -162 -82 -360q-59 -158 -60 -264v-127h-90zM176 0v203h98v-203h-98z" />
<glyph unicode="@" horiz-adv-x="1028" d="M559 -6q-188 0 -299 98q-197 162 -197 563q0 365 129.5 584t370.5 219q176 0 290 -135t114 -449q0 -285 -100.5 -448.5t-260.5 -177.5h-76l11 82h-4q-49 -96 -148 -97q-61 0 -91 35t-30 90q0 25 4 45l90 625q10 76 60.5 125t118.5 49q74 0 104 -59h2l8 57h101l-125 -872 q84 4 145.5 94t86 206.5t24.5 241.5q0 520 -330 521q-141 0 -237.5 -99.5t-137.5 -258.5t-41 -369q0 -389 185 -527q102 -74 252 -74q98 0 229 41l20 -63q-114 -47 -268 -47zM434 324q49 0 80 43t41 108l74 516q2 8 2 23q0 100 -82 100q-72 0 -90 -119l-80 -555 q-6 -31 -6 -53q0 -63 61 -63z" />
<glyph unicode="A" horiz-adv-x="604" d="M41 0l184 1462h158l180 -1462h-108l-58 479h-198l-58 -479h-100zM211 578h174l-84 745h-6z" />
<glyph unicode="B" horiz-adv-x="514" d="M74 0v1460h166q127 0 174 -93t47 -275q0 -297 -142 -332v-6q84 -23 114 -111t30 -240q0 -225 -51.5 -314t-155.5 -89h-182zM180 96h64q63 0 86.5 76t23.5 235.5t-32.5 227t-106.5 67.5h-35v-606zM180 797h43q135 0 135 290q0 274 -112 275h-66v-565z" />
<glyph unicode="C" horiz-adv-x="522" d="M272 -14q-106 0 -159.5 56t-53.5 153v1060q0 102 53.5 165t159.5 63q98 0 148.5 -60.5t50.5 -146.5v-254h-98v235q0 125 -103 125q-35 0 -57.5 -10t-31.5 -31.5t-12 -41t-3 -50.5v-1034q0 -131 104 -131q102 0 103 133v229h98v-231q0 -102 -51.5 -165.5t-147.5 -63.5z " />
<glyph unicode="D" horiz-adv-x="536" d="M74 0v1460h190q92 0 153.5 -52t61.5 -148v-1031q0 -115 -61.5 -172t-161.5 -57h-182zM180 98h78q63 0 88 39t25 88v1026q0 49 -29 79t-84 30h-78v-1262z" />
<glyph unicode="E" horiz-adv-x="440" d="M74 0v1460h317v-100h-213v-537h178v-100h-178v-625h217v-98h-321z" />
<glyph unicode="F" horiz-adv-x="421" d="M74 0v1460h317v-100h-213v-539h172v-98h-172v-723h-104z" />
<glyph unicode="G" horiz-adv-x="530" d="M272 -14q-106 0 -159.5 56t-53.5 153v1060q0 102 53.5 165t157.5 63q100 0 150.5 -60.5t50.5 -146.5v-250h-98v231q0 125 -103 125q-45 0 -69.5 -21.5t-29.5 -46t-5 -65.5v-1034q0 -131 104 -131q102 0 103 133v461h-119v94h217v-557q0 -102 -51.5 -165.5t-147.5 -63.5z " />
<glyph unicode="H" horiz-adv-x="567" d="M74 0v1460h106v-657h207v657h107v-1460h-107v696h-207v-696h-106z" />
<glyph unicode="I" horiz-adv-x="251" d="M74 0v1460h106v-1460h-106z" />
<glyph unicode="J" horiz-adv-x="507" d="M242 -16q-100 0 -149.5 60t-49.5 159v260h107v-246q0 -137 96 -137q53 0 72.5 35t19.5 100v1245h106v-1259q0 -98 -54 -157.5t-148 -59.5z" />
<glyph unicode="K" horiz-adv-x="542" d="M74 0v1460h106v-717l211 717h105l-164 -540l170 -920h-111l-131 774l-80 -252v-522h-106z" />
<glyph unicode="L" horiz-adv-x="423" d="M74 0v1460h104v-1362h217v-98h-321z" />
<glyph unicode="M" horiz-adv-x="667" d="M74 0v1460h108l150 -577h6l154 577h102v-1460h-102v1161h-3l-127 -477h-63l-123 473h-4v-1157h-98z" />
<glyph unicode="N" horiz-adv-x="575" d="M74 0v1460h133l196 -1073h5v1073h94v-1460h-115l-217 1190h-4v-1190h-92z" />
<glyph unicode="O" horiz-adv-x="540" d="M266 -14q-207 0 -207 235v1039q0 106 59.5 162.5t155.5 56.5q92 0 149.5 -52.5t57.5 -152.5v-1055q0 -117 -57.5 -175t-157.5 -58zM270 84q102 0 103 127v1061q0 106 -103 106q-55 0 -78.5 -30.5t-23.5 -73.5v-1067q0 -47 24.5 -85t77.5 -38z" />
<glyph unicode="P" horiz-adv-x="526" d="M74 0v1460h157q141 0 191.5 -103.5t50.5 -305.5q0 -422 -240 -422h-53v-629h-106zM180 731h56q76 0 104.5 79t28.5 245q0 61 -1 97t-9.5 80t-22.5 67.5t-41 40t-68 16.5h-47v-625z" />
<glyph unicode="Q" horiz-adv-x="540" d="M467 -113l-102 119q-47 -20 -99 -20q-207 0 -207 235v1039q0 106 60.5 162.5t154.5 56.5q92 0 150.5 -53.5t58.5 -151.5v-1055q0 -86 -37 -145l107 -117zM272 84q102 0 103 127v1061q0 106 -105 106q-55 0 -78.5 -30.5t-23.5 -73.5v-1067q0 -47 24.5 -85t79.5 -38z" />
<glyph unicode="R" horiz-adv-x="534" d="M74 0v1460h159q129 0 185.5 -96t56.5 -283q0 -137 -29.5 -228t-70.5 -122l112 -731h-108l-103 696h-96v-696h-106zM180 788h84q100 0 101 275q0 61 -3.5 100t-13.5 90.5t-37.5 78t-70.5 26.5h-60v-570z" />
<glyph unicode="S" horiz-adv-x="491" d="M250 -14q-106 0 -156 83q-47 80 -47 256v15h105q0 -137 19 -198.5t79 -61.5q41 0 63.5 28.5t26.5 60.5t4 81q0 164 -92 364l-92 195q-37 82 -53.5 125t-36 123t-19.5 151q0 125 49.5 197t147.5 72q96 0 141 -73t47 -263h-98q-4 133 -24.5 187t-69.5 54q-88 0 -88 -165 q0 -111 102 -357l64 -129q125 -272 124 -481q0 -121 -54 -192.5t-142 -71.5z" />
<glyph unicode="T" horiz-adv-x="481" d="M190 0v1360h-165v100h432v-100h-162v-1360h-105z" />
<glyph unicode="U" horiz-adv-x="534" d="M264 -18q-98 0 -148 57t-50 160v1261h106v-1253q0 -131 96 -131q100 0 101 141v1243h100v-1241q0 -109 -50.5 -173t-154.5 -64z" />
<glyph unicode="V" horiz-adv-x="522" d="M211 -6l-170 1466h111l114 -1155h4l111 1155h100l-157 -1466h-113z" />
<glyph unicode="W" horiz-adv-x="786" d="M186 -6l-149 1466h110l93 -1095h4l96 1095h119l100 -1095h6l86 1095h99l-138 -1466h-100l-113 1147h-4l-104 -1147h-105z" />
<glyph unicode="X" horiz-adv-x="471" d="M12 0l170 727l-172 733h107l125 -559l123 559h94l-170 -717l174 -743h-105l-127 563l-125 -563h-94z" />
<glyph unicode="Y" horiz-adv-x="509" d="M205 0v651l-168 809h110l115 -624l113 624h100l-164 -813v-647h-106z" />
<glyph unicode="Z" horiz-adv-x="407" d="M39 0v98l219 1260h-207v102h320v-74l-221 -1286h219v-100h-330z" />
<glyph unicode="[" horiz-adv-x="280" d="M74 -328v1788h182v-69h-90v-1649h90v-70h-182z" />
<glyph unicode="\" horiz-adv-x="333" d="M256 -324l-256 1784h84l260 -1784h-88z" />
<glyph unicode="]" horiz-adv-x="280" d="M25 -326v70h90v1647h-90v69h182v-1786h-182z" />
<glyph unicode="^" d="M119 496l98 442h82l86 -442h-84l-47 270l-49 -270h-86z" />
<glyph unicode="_" horiz-adv-x="573" d="M0 -260v92h573v-92h-573z" />
<glyph unicode="`" horiz-adv-x="325" d="M207 1200l-141 273h120l97 -273h-76z" />
<glyph unicode="a" horiz-adv-x="458" d="M199 -16q-154 0 -154 338q0 344 229 352h15v262q0 72 -64 72q-72 0 -71 -76v-166h-95v162q0 70 42 121t132 51q80 0 118 -49.5t38 -112.5v-678q0 -150 4 -260h-84q-6 37 -6 78h-4q-8 -43 -36.5 -68.5t-63.5 -25.5zM225 76q31 0 47.5 40t16.5 87v385h-25q-51 0 -86 -62.5 t-35 -195.5q0 -254 82 -254z" />
<glyph unicode="b" horiz-adv-x="497" d="M287 -12q-88 0 -121 78h-2v-66h-90v1460h100v-450h4q35 88 129 88q70 0 101.5 -46t31.5 -106v-792q0 -80 -40.5 -123t-112.5 -43zM266 78q70 0 70 94v735q0 98 -76 99q-86 0 -86 -127v-684q0 -49 25.5 -83t66.5 -34z" />
<glyph unicode="c" horiz-adv-x="473" d="M240 -14q-88 0 -134.5 56t-46.5 155v698q0 98 53.5 150.5t137.5 52.5q82 0 127 -51.5t45 -124.5v-160h-96v145q0 96 -82 97q-80 0 -80 -95v-723q0 -104 80 -104q39 0 58.5 22.5t21.5 40t2 50.5v157h96v-174q0 -88 -48 -140t-134 -52z" />
<glyph unicode="d" horiz-adv-x="497" d="M190 -14q-72 0 -101.5 47t-29.5 108v791q0 70 41 118t109 48q72 0 110 -56h3v418h104v-1460h-94l-2 80h-4q-36 -94 -136 -94zM238 80q86 0 86 131v690q0 47 -22.5 76t-63.5 29q-76 0 -76 -101v-727q0 -98 76 -98z" />
<glyph unicode="e" horiz-adv-x="460" d="M264 -14q-205 0 -205 225v672q0 98 47.5 156.5t135.5 58.5q86 0 127 -57.5t41 -147.5v-377h-246v-264q0 -86 25.5 -126t99.5 -40q43 0 100 20l25 -88q-72 -32 -150 -32zM164 606h143v289q0 106 -71.5 106t-71.5 -106v-289z" />
<glyph unicode="f" horiz-adv-x="305" d="M98 0v995h-63v86h63v250q0 59 35 98t103 39q39 0 59 -6v-86q-14 2 -49 2q-45 0 -45 -49v-248h75v-86h-75v-995h-103z" />
<glyph unicode="g" horiz-adv-x="501" d="M207 -354q-80 0 -141 22l22 88q72 -16 119 -16q61 0 90 35t29 110v201h-4q-12 -39 -47 -60.5t-70 -21.5q-74 0 -108 51t-34 129v734q0 88 40 134t112 46q88 0 119 -78h2l2 63h90v-1192q0 -123 -59.5 -184t-161.5 -61zM244 98q35 0 58.5 32t23.5 73v694q0 49 -25 81 t-63 32q-72 0 -72 -105v-706q0 -101 78 -101z" />
<glyph unicode="h" horiz-adv-x="499" d="M74 0v1460h100v-444h2q39 82 135 82q53 0 89 -33t36 -96v-969h-102v930q0 76 -66 76q-94 0 -94 -125v-881h-100z" />
<glyph unicode="i" horiz-adv-x="247" d="M74 0v1081h100v-1081h-100zM74 1255v209h100v-209h-100z" />
<glyph unicode="j" horiz-adv-x="247" d="M63 -336q-31 0 -59 6v90h31q39 0 39 47v1274h98v-1290q0 -53 -26 -90t-83 -37zM74 1255v209h100v-209h-100z" />
<glyph unicode="k" horiz-adv-x="464" d="M74 0v1460h98v-868l168 489h98l-133 -376l123 -705h-102l-97 580l-57 -148v-432h-98z" />
<glyph unicode="l" horiz-adv-x="264" d="M168 -8q-94 0 -94 98v1370h100v-1347q0 -23 25 -23q16 0 30 2v-90q-24 -10 -61 -10z" />
<glyph unicode="m" horiz-adv-x="761" d="M74 0v1081h98v-67h2q43 84 137.5 84t116.5 -84h4q43 84 141 84q53 0 89 -34t36 -97v-967h-102v930q0 76 -66 76q-90 0 -94 -113v-893h-102v930q0 76 -66 76q-94 0 -94 -125v-881h-100z" />
<glyph unicode="n" horiz-adv-x="499" d="M74 0v1081h98v-67h2q41 84 137 84q53 0 89 -33t36 -96v-969h-102v930q0 76 -66 76q-94 0 -94 -125v-881h-100z" />
<glyph unicode="o" horiz-adv-x="489" d="M240 -14q-180 0 -181 213v700q0 96 53.5 147.5t135.5 51.5q80 0 131 -48.5t51 -138.5v-714q0 -106 -51 -158.5t-139 -52.5zM244 82q82 0 82 102v723q0 39 -20.5 68t-61.5 29t-60.5 -28t-19.5 -65v-725q0 -39 19.5 -71.5t60.5 -32.5z" />
<glyph unicode="p" horiz-adv-x="497" d="M74 -328v1409h96v-71h4q37 88 133 88q70 0 101.5 -46t31.5 -108v-794q0 -70 -41 -117t-110 -47q-72 0 -113 57h-2v-371h-100zM260 82q76 0 76 96v729q0 98 -76 99q-86 0 -86 -127v-699q0 -98 86 -98z" />
<glyph unicode="q" horiz-adv-x="497" d="M324 -328v375h-2q-39 -63 -123 -63q-68 0 -104 47t-36 119v792q0 59 41 107.5t113 48.5q90 0 125 -76h2l6 59h80v-1409h-102zM238 78q41 0 63.5 27.5t22.5 74.5v701q0 125 -86 125q-76 0 -76 -97v-725q0 -106 76 -106z" />
<glyph unicode="r" horiz-adv-x="319" d="M74 0v1081h100v-63h2q12 29 41 49t57 20q16 0 25 -2v-116q-12 2 -35 2q-90 0 -90 -97v-874h-100z" />
<glyph unicode="s" horiz-adv-x="432" d="M225 -12q-106 0 -143 73.5t-37 221.5h96q2 -115 18.5 -161t59.5 -46q66 0 66 102q0 90 -52 213l-114 279q-63 143 -64 237q0 80 42 134.5t120 54.5q86 0 123 -64.5t39 -206.5h-88q-10 186 -76 187q-61 0 -61 -105q0 -47 59 -192l92 -223q78 -188 78 -312q0 -80 -40 -136 t-118 -56z" />
<glyph unicode="t" horiz-adv-x="313" d="M201 -6q-111 0 -111 108v891h-63v88h63v215h103v-215h102v-88h-102v-862q0 -39 32 -39q16 0 54 6v-92q-31 -12 -78 -12z" />
<glyph unicode="u" horiz-adv-x="499" d="M188 -16q-53 0 -89 32.5t-36 98.5v966h101v-929q0 -76 67 -76q94 0 95 125v880h100v-1081h-98v68h-2q-42 -84 -138 -84z" />
<glyph unicode="v" horiz-adv-x="432" d="M164 -4l-139 1085h104l90 -835h4l86 835h99l-138 -1085h-106z" />
<glyph unicode="w" horiz-adv-x="686" d="M154 -2l-125 1083h108l68 -813h6l82 813h108l88 -813h7l61 813h100l-118 -1083h-95l-94 866h-6l-96 -866h-94z" />
<glyph unicode="x" horiz-adv-x="477" d="M37 0l151 547l-139 534h109l88 -413l98 413h90l-137 -524l143 -557h-100l-104 424l-107 -424h-92z" />
<glyph unicode="y" horiz-adv-x="425" d="M88 -342q-23 0 -55 4l2 90q18 -4 43 -4q66 0 76 80l22 166l-153 1087h102l96 -780h4l82 780h96l-149 -1185q-16 -119 -53 -178.5t-113 -59.5z" />
<glyph unicode="z" horiz-adv-x="368" d="M37 0v76l192 919h-190v86h291v-90l-189 -903h193v-88h-297z" />
<glyph unicode="{" horiz-adv-x="305" d="M195 -328q-113 0 -113 115v713q0 84 -53 88v82q53 4 53 80v577q0 61 28.5 97t84.5 36h67v-69h-55q-35 0 -35 -54v-569q0 -104 -72 -135v-6q72 -29 72 -135v-697q0 -53 35 -53h55v-70h-67z" />
<glyph unicode="|" horiz-adv-x="430" d="M174 -322v1782h80v-1782h-80z" />
<glyph unicode="}" horiz-adv-x="305" d="M29 -328v70h55q35 0 35 53v697q0 106 71 135v6q-72 31 -71 135v569q0 53 -35 54h-55v69h67q55 0 84 -35.5t29 -97.5v-577q0 -76 53 -80v-82q-53 -4 -53 -88v-713q0 -115 -113 -115h-67z" />
<glyph unicode="~" d="M123 571l-62 9q14 147 103 147q29 0 96.5 -21.5t85.5 -21.5q35 0 41 53l64 -10q-8 -141 -99 -141q-33 0 -101.5 22.5t-80.5 22.5q-35 -1 -47 -60z" />
<glyph unicode="&#xa1;" horiz-adv-x="266" d="M82 -291v590l14 500h72l16 -500v-590h-102zM84 967v202h98v-202h-98z" />
<glyph unicode="&#xa2;" horiz-adv-x="473" d="M205 -121v131q-145 20 -146 207v682q0 170 146 195v129h84v-129q66 -12 99.5 -62.5t33.5 -120.5v-149h-96v145q0 96 -82 97q-80 0 -80 -95v-702q0 -104 80 -105q39 0 58.5 22.5t21.5 40t2 52.5v158h96v-176q0 -158 -133 -187v-133h-84z" />
<glyph unicode="&#xa3;" horiz-adv-x="585" d="M55 0v92h72v606h-70v95h70v467q0 106 62.5 162.5t158.5 56.5q92 0 144.5 -55.5t52.5 -131.5v-172h-105v154q0 109 -102 108.5t-102 -125.5v-464h159v-95h-159v-606h303l-17 -92h-467z" />
<glyph unicode="&#xa4;" horiz-adv-x="602" d="M117 467l-54 53l60 60q-45 59 -45 135q0 72 43 127q-16 14 -60 57l54 51l55 -55q59 41 127 41q76 0 131 -41l59 59l52 -53l-58 -55q45 -63 45 -135q0 -68 -47 -131l60 -60l-52 -49l-57 57q-57 -39 -127 -39t-131 37zM299 553q70 0 111 43t41 119q0 70 -44.5 113.5 t-103.5 43.5q-72 0 -112.5 -43t-40.5 -122q0 -63 41.5 -108.5t107.5 -45.5z" />
<glyph unicode="&#xa5;" horiz-adv-x="452" d="M176 0v565h-117v94h115l-166 803h111l114 -626l113 626h100l-161 -803h110v-94h-112v-565h-107z" />
<glyph unicode="&#xa6;" d="M180 -76v709h82v-709h-82zM180 786v697h82v-697h-82z" />
<glyph unicode="&#xa7;" horiz-adv-x="538" d="M274 -14q-84 0 -145 64.5t-61 199.5v69h96v-59q0 -86 30.5 -136t81.5 -50q100 0 101 166q0 152 -101 206l-65 46q-154 94 -154 247q0 104 103 236q-96 86 -97 239q0 113 55.5 182.5t149.5 69.5q86 0 135.5 -64.5t49.5 -172.5v-82h-88v67q0 164 -103 164q-100 0 -100 -153 q0 -135 86 -197l74 -55q147 -104 147 -248q0 -139 -92 -236q51 -37 79.5 -107.5t24.5 -148.5q0 -109 -58.5 -178t-148.5 -69zM305 545q66 70 66 174q0 100 -80 155l-60 44q-76 -61 -75 -173q0 -104 82 -153z" />
<glyph unicode="&#xa8;" horiz-adv-x="423" d="M80 1208v250h90v-250h-90zM254 1208v250h90v-250h-90z" />
<glyph unicode="&#xa9;" horiz-adv-x="1075" d="M541 186q-86 0 -131 49.5t-45 133.5v710q0 86 46 139.5t130 53.5q80 0 122 -50.5t42 -127.5v-244h-103v227q0 86 -61 86q-66 0 -66 -88v-690q0 -88 66 -88q61 0 61 90v221h103v-225q0 -86 -43 -141.5t-121 -55.5zM541 0q-129 0 -223.5 56.5t-148.5 158.5t-80 230t-26 284 q0 205 48.5 363.5t158 259t271.5 100.5q164 0 273.5 -106.5t153.5 -263t44 -353.5q0 -209 -45 -366.5t-153.5 -260t-272.5 -102.5zM541 76q186 0 287.5 175t101.5 478q0 305 -98.5 479t-290.5 174q-195 0 -294.5 -173t-99.5 -480t103 -480t291 -173z" />
<glyph unicode="&#xaa;" horiz-adv-x="413" d="M156 825q-88 0 -88 187q0 188 141 190h4v131q0 29 -29 29q-31 0 -30 -35v-80h-80v76q0 49 28.5 80t85.5 31q109 0 109 -107v-356q0 -88 4 -133h-78q-4 37 -4 39q-22 -52 -63 -52zM184 901q29 0 29 43v195h-8q-55 0 -55 -121q-1 -117 34 -117zM80 688v84h217v-84h-217z " />
<glyph unicode="&#xab;" horiz-adv-x="487" d="M182 330l-139 241l131 238l70 -39l-92 -199l100 -198zM375 334l-137 237l133 236l67 -41l-92 -195l98 -194z" />
<glyph unicode="&#xac;" horiz-adv-x="598" d="M471 403v189h-426v82h508v-271h-82z" />
<glyph unicode="&#xad;" horiz-adv-x="333" d="M43 569v99h248v-99h-248z" />
<glyph unicode="&#xae;" horiz-adv-x="647" d="M223 791v587h92q117 0 117 -168q0 -109 -47 -145l57 -274h-80l-47 256h-18v-256h-74zM322 647q-133 0 -205 122t-72 310q0 195 74 314.5t209 119.5q123 0 199.5 -120.5t76.5 -313.5q0 -186 -72.5 -309t-209.5 -123zM324 711q96 2 151 99t55 269q0 170 -60 271.5 t-148 101.5q-86 0 -146.5 -101.5t-60.5 -271.5t59.5 -270t149.5 -98zM297 1108h20q37 0 37 94q0 106 -41 107h-16v-201z" />
<glyph unicode="&#xaf;" horiz-adv-x="446" d="M84 1260v96h278v-96h-278z" />
<glyph unicode="&#xb0;" horiz-adv-x="370" d="M184.5 1192q-57.5 0 -95.5 41t-38 100.5t38 100.5t95.5 41t96 -41t38.5 -100.5t-38.5 -100.5t-96 -41zM184.5 1251q28.5 0 51 24.5t22.5 57.5t-22.5 57.5t-51 24.5t-50 -24.5t-21.5 -57.5t21.5 -57.5t50 -24.5z" />
<glyph unicode="&#xb1;" d="M217 459v190h-166v88h166v195h78l-2 -195h168v-88h-166v-190h-78zM53 285v88h406v-88h-406z" />
<glyph unicode="&#xb2;" horiz-adv-x="348" d="M53 778v62l84 211q70 188 70 338v22q0 106 -37 107q-33 0 -33 -82v-66h-82v64q0 164 117 163q123 0 123 -192q0 -76 -15.5 -155t-29.5 -123t-45 -128l-58 -143h150v-78h-244z" />
<glyph unicode="&#xb3;" horiz-adv-x="350" d="M172 762q-123 0 -123 203v32h86v-43q0 -115 37 -114q39 0 39 161q0 147 -59 148h-39v86h43q31 0 41 34t10 115q0 78 -8.5 107t-28.5 29q-35 0 -35 -105v-45h-82v51q0 176 123 176q57 0 88 -56t31 -150q0 -160 -70 -193v-4q74 -33 74 -201q0 -231 -127 -231z" />
<glyph unicode="&#xb4;" horiz-adv-x="329" d="M78 1200l96 273h119l-139 -273h-76z" />
<glyph unicode="&#xb5;" horiz-adv-x="499" d="M63 -365v1446h103v-927q0 -78 70 -78q90 0 90 133v872h102v-905q0 -53 25 -63v-117q-86 8 -95 94q-35 -104 -118 -104q-76 0 -93 77l-8 -2l27 -395z" />
<glyph unicode="&#xb6;" horiz-adv-x="618" d="M260 -98v649q-205 76 -205 420q0 240 65.5 364.5t229.5 124.5h225v-74h-65v-1484h-74v1484h-100v-1484h-76z" />
<glyph unicode="&#xb7;" horiz-adv-x="243" d="M74 586v202h96v-202h-96z" />
<glyph unicode="&#x22c5;" horiz-adv-x="243" d="M74 586v202h96v-202h-96z" />
<glyph unicode="&#xb8;" horiz-adv-x="317" d="M124.5 -313q-61.5 0 -106.5 12v68q66 -10 93 -11q66 0 65 49q0 39 -78 45l-35 3l37 174h62l-27 -117q135 -8 135 -107q0 -55 -42 -85.5t-103.5 -30.5z" />
<glyph unicode="&#xb9;" horiz-adv-x="323" d="M127 778v725l-45 -18l-21 59l95 58h55v-824h-84z" />
<glyph unicode="&#xba;" horiz-adv-x="376" d="M184 827q-119 0 -118 125v363q0 55 34.5 87t89.5 32q53 0 87 -31t34 -84v-369q0 -123 -127 -123zM186 897q43 0 43 47v373q0 45 -43 45q-39 0 -39 -43v-375q0 -47 39 -47zM80 688v82h221v-82h-221z" />
<glyph unicode="&#xbb;" horiz-adv-x="487" d="M117 336l-68 39l92 196l-98 195l70 43l137 -238zM313 332l-69 41l92 198l-98 197l67 43l139 -240z" />
<glyph unicode="&#xbc;" horiz-adv-x="782" d="M135 647v725l-45 -18l-20 59l94 57h55v-823h-84zM604 0v215h-158v70l134 536h84l-140 -532h80v176l76 72v-248h43v-74h-43v-215h-76zM168 0l352 1460h70l-348 -1460h-74z" />
<glyph unicode="&#xbd;" horiz-adv-x="782" d="M135 647v725l-45 -18l-20 59l94 57h55v-823h-84zM465 0v61l84 211q70 188 69 338v23q0 106 -36 106q-33 0 -33 -82v-65h-82v63q0 164 117 164q123 0 123 -192q0 -76 -15.5 -155t-30 -123t-45.5 -128l-57 -143h150v-78h-244zM137 0l352 1460h70l-348 -1460h-74z" />
<glyph unicode="&#xbe;" horiz-adv-x="782" d="M606 0v215h-157v70l133 536h84l-140 -532h80v176l76 72v-248h43v-74h-43v-215h-76zM150 631q-123 0 -123 203v32h86v-43q0 -115 37 -114q39 0 38 161q0 147 -59 148h-39v86h43q31 0 41 33.5t10 115.5q0 78 -8 107t-29 29q-35 0 -34 -105v-45h-82v51q0 176 123 176 q57 0 87.5 -56t30.5 -150q0 -160 -69 -193v-4q74 -33 73 -201q1 -231 -126 -231zM174 0l352 1460h70l-348 -1460h-74z" />
<glyph unicode="&#xbf;" horiz-adv-x="464" d="M233 -315q-172 0 -172 358q0 168 86 375q55 141 56 252v129h92v-82q0 -176 -66 -348q-66 -162 -65 -318v-35v-40q0 -13 1 -38.5t3 -39.5l5 -36q3 -22 9 -34t14.5 -24.5t19.5 -17.5t26 -5q45 0 58 49t13 141v123h93v-104q0 -152 -39.5 -228.5t-133.5 -76.5zM199 965v200 h96v-200h-96z" />
<glyph unicode="&#xc0;" horiz-adv-x="604" d="M41 0l184 1462h158l180 -1462h-108l-58 479h-198l-58 -479h-100zM211 578h174l-84 745h-6zM274 1573l-141 272h121l96 -272h-76z" />
<glyph unicode="&#xc1;" horiz-adv-x="604" d="M41 0l184 1462h158l180 -1462h-108l-58 479h-198l-58 -479h-100zM211 578h174l-84 745h-6zM260 1573l96 272h119l-139 -272h-76z" />
<glyph unicode="&#xc2;" horiz-adv-x="604" d="M41 0l184 1462h158l180 -1462h-108l-58 479h-198l-58 -479h-100zM211 578h174l-84 745h-6zM158 1573l108 272h78l102 -272h-88l-57 166l-57 -166h-86z" />
<glyph unicode="&#xc3;" horiz-adv-x="604" d="M41 0l184 1462h158l180 -1462h-108l-58 479h-198l-58 -479h-100zM211 578h174l-84 745h-6zM197 1599l-62 11q14 139 98 139q25 0 70 -20.5t62 -20.5q29 0 36 49l64 -12q-4 -57 -29.5 -95t-66.5 -38q-27 0 -73 20.5t-58 20.5q-16 0 -25.5 -10.5t-15.5 -43.5z" />
<glyph unicode="&#xc4;" horiz-adv-x="604" d="M41 0l184 1462h158l180 -1462h-108l-58 479h-198l-58 -479h-100zM211 578h174l-84 745h-6zM170 1581v250h90v-250h-90zM344 1581v250h90v-250h-90z" />
<glyph unicode="&#xc5;" horiz-adv-x="604" d="M41 0l184 1462h158l180 -1462h-108l-58 479h-198l-58 -479h-100zM211 578h174l-84 745h-6zM303 1567q-66 0 -102.5 41t-36.5 98q0 61 39 104t100 43q66 0 102.5 -38.5t36.5 -98.5q0 -63 -40 -106t-99 -43zM303 1628q72 0 72 84q0 82 -72 82t-72 -86q0 -35 19.5 -57.5 t52.5 -22.5z" />
<glyph unicode="&#xc6;" horiz-adv-x="735" d="M27 0l262 1460h399v-100h-215v-539h178v-100h-178v-623h219v-98h-323v535h-146l-92 -535h-104zM238 621h131v739h-4z" />
<glyph unicode="&#xc7;" horiz-adv-x="522" d="M243.5 -313q-61.5 0 -106.5 12v68q66 -10 92 -11q66 0 66 49q0 39 -78 45l-35 3l29 139q-152 27 -152 203v1060q0 102 53.5 165t159.5 63q98 0 148.5 -60.5t50.5 -146.5v-254h-98v235q0 125 -103 125q-35 0 -57.5 -10t-31.5 -31.5t-12 -41t-3 -50.5v-1034 q0 -131 104 -131q102 0 103 133v229h98v-231q0 -102 -51 -165.5t-148 -63.5h-2l-16 -76q135 -8 135 -107q0 -55 -42 -85.5t-103.5 -30.5z" />
<glyph unicode="&#xc8;" horiz-adv-x="440" d="M74 0v1460h317v-100h-213v-537h178v-100h-178v-625h217v-98h-321zM258 1573l-141 272h121l96 -272h-76z" />
<glyph unicode="&#xc9;" horiz-adv-x="440" d="M178 1573l96 272h119l-139 -272h-76zM74 0v1460h317v-100h-213v-537h178v-100h-178v-625h217v-98h-321z" />
<glyph unicode="&#xca;" horiz-adv-x="440" d="M90 1573l109 272h77l103 -272h-88l-58 166l-57 -166h-86zM74 0v1460h317v-100h-213v-537h178v-100h-178v-625h217v-98h-321z" />
<glyph unicode="&#xcb;" horiz-adv-x="440" d="M102 1581v250h91v-250h-91zM276 1581v250h91v-250h-91zM74 0v1460h317v-100h-213v-537h178v-100h-178v-625h217v-98h-321z" />
<glyph unicode="&#xcc;" horiz-adv-x="251" d="M74 0v1460h106v-1460h-106zM88 1573l-141 272h121l96 -272h-76z" />
<glyph unicode="&#xcd;" horiz-adv-x="251" d="M74 0v1460h106v-1460h-106zM88 1573l96 272h119l-139 -272h-76z" />
<glyph unicode="&#xce;" horiz-adv-x="251" d="M74 0v1460h106v-1460h-106zM-16 1573l108 272h78l102 -272h-88l-57 166l-57 -166h-86z" />
<glyph unicode="&#xcf;" horiz-adv-x="251" d="M74 0v1460h106v-1460h-106zM-4 1581v250h90v-250h-90zM170 1581v250h90v-250h-90z" />
<glyph unicode="&#xd0;" horiz-adv-x="552" d="M90 0v721h-55v90h55v649h195q90 0 149.5 -52t59.5 -148v-1031q0 -117 -59.5 -173t-160.5 -56h-184zM197 98h75q63 0 89 39t26 88v1026q0 49 -29.5 79t-85.5 30h-75v-549h112v-90h-112v-623z" />
<glyph unicode="&#xd1;" horiz-adv-x="575" d="M74 0v1460h133l196 -1073h5v1073h94v-1460h-115l-217 1190h-4v-1190h-92zM182 1599l-61 11q14 139 98 139q25 0 70 -20.5t61.5 -20.5t24.5 11.5t12 37.5l64 -12q-4 -57 -30 -95t-67 -38q-27 0 -72.5 20.5t-58.5 20.5q-16 0 -25.5 -10.5t-15.5 -43.5z" />
<glyph unicode="&#xd2;" horiz-adv-x="540" d="M266 -14q-207 0 -207 235v1039q0 106 59.5 162.5t155.5 56.5q92 0 149.5 -52.5t57.5 -152.5v-1055q0 -117 -57.5 -175t-157.5 -58zM270 84q102 0 103 127v1061q0 106 -103 106q-55 0 -78.5 -30.5t-23.5 -73.5v-1067q0 -47 24.5 -85t77.5 -38zM231 1573l-141 272h121 l96 -272h-76z" />
<glyph unicode="&#xd3;" horiz-adv-x="540" d="M225 1573l97 272h118l-139 -272h-76zM266 -14q-207 0 -207 235v1039q0 106 59.5 162.5t155.5 56.5q92 0 149.5 -52.5t57.5 -152.5v-1055q0 -117 -57.5 -175t-157.5 -58zM270 84q102 0 103 127v1061q0 106 -103 106q-55 0 -78.5 -30.5t-23.5 -73.5v-1067q0 -47 24.5 -85 t77.5 -38z" />
<glyph unicode="&#xd4;" horiz-adv-x="540" d="M125 1573l108 272h78l103 -272h-88l-58 166l-57 -166h-86zM266 -14q-207 0 -207 235v1039q0 106 59.5 162.5t155.5 56.5q92 0 149.5 -52.5t57.5 -152.5v-1055q0 -117 -57.5 -175t-157.5 -58zM270 84q102 0 103 127v1061q0 106 -103 106q-55 0 -78.5 -30.5t-23.5 -73.5 v-1067q0 -47 24.5 -85t77.5 -38z" />
<glyph unicode="&#xd5;" horiz-adv-x="540" d="M266 -14q-207 0 -207 235v1039q0 106 59.5 162.5t155.5 56.5q92 0 149.5 -52.5t57.5 -152.5v-1055q0 -117 -57.5 -175t-157.5 -58zM270 84q102 0 103 127v1061q0 106 -103 106q-55 0 -78.5 -30.5t-23.5 -73.5v-1067q0 -47 24.5 -85t77.5 -38zM164 1599l-62 11 q14 139 99 139q25 0 69.5 -20.5t61.5 -20.5q29 0 37 49l63 -12q-4 -57 -29.5 -95t-66.5 -38q-27 0 -73 20.5t-58 20.5q-16 0 -25.5 -10.5t-15.5 -43.5z" />
<glyph unicode="&#xd6;" horiz-adv-x="540" d="M137 1581v250h90v-250h-90zM311 1581v250h90v-250h-90zM266 -14q-207 0 -207 235v1039q0 106 59.5 162.5t155.5 56.5q92 0 149.5 -52.5t57.5 -152.5v-1055q0 -117 -57.5 -175t-157.5 -58zM270 84q102 0 103 127v1061q0 106 -103 106q-55 0 -78.5 -30.5t-23.5 -73.5v-1067 q0 -47 24.5 -85t77.5 -38z" />
<glyph unicode="&#xd7;" d="M98 444l-57 60l158 158l-158 157l57 58l158 -158l158 158l57 -56l-160 -157l158 -160l-55 -58l-158 158z" />
<glyph unicode="&#xd8;" horiz-adv-x="540" d="M156 -72l-76 13l22 114q-43 59 -43 166v1039q0 106 59.5 162.5t155.5 56.5q61 0 109 -25l18 88l72 -12l-27 -131q35 -51 35 -125v-1055q0 -117 -57 -175t-158 -58q-53 0 -96 16zM168 1274v-897l190 954q-23 47 -88 47q-55 0 -78.5 -30.5t-23.5 -73.5zM270 84 q102 0 103 127v813l-180 -903q26 -37 77 -37z" />
<glyph unicode="&#xd9;" horiz-adv-x="534" d="M264 -18q-98 0 -148 57t-50 160v1261h106v-1253q0 -131 96 -131q100 0 101 141v1243h100v-1241q0 -109 -50.5 -173t-154.5 -64zM231 1573l-141 272h121l96 -272h-76z" />
<glyph unicode="&#xda;" horiz-adv-x="534" d="M229 1573l97 272h118l-139 -272h-76zM264 -18q-98 0 -148 57t-50 160v1261h106v-1253q0 -131 96 -131q100 0 101 141v1243h100v-1241q0 -109 -50.5 -173t-154.5 -64z" />
<glyph unicode="&#xdb;" horiz-adv-x="534" d="M121 1573l108 272h78l103 -272h-88l-58 166l-57 -166h-86zM264 -18q-98 0 -148 57t-50 160v1261h106v-1253q0 -131 96 -131q100 0 101 141v1243h100v-1241q0 -109 -50.5 -173t-154.5 -64z" />
<glyph unicode="&#xdc;" horiz-adv-x="534" d="M133 1581v250h90v-250h-90zM307 1581v250h90v-250h-90zM264 -18q-98 0 -148 57t-50 160v1261h106v-1253q0 -131 96 -131q100 0 101 141v1243h100v-1241q0 -109 -50.5 -173t-154.5 -64z" />
<glyph unicode="&#xdd;" horiz-adv-x="509" d="M205 0v651l-168 809h110l115 -624l113 624h100l-164 -813v-647h-106zM209 1573l96 272h119l-139 -272h-76z" />
<glyph unicode="&#xde;" horiz-adv-x="526" d="M74 0v1460h106v-311h51q141 0 191.5 -102.5t50.5 -305.5q0 -422 -240 -422h-53v-319h-106zM180 422h56q76 0 104.5 79t28.5 244q0 61 -1 96.5t-9.5 79.5t-22.5 67.5t-42 39.5t-67 16h-47v-622z" />
<glyph unicode="&#xdf;" horiz-adv-x="550" d="M342 -6q-37 0 -68 10l2 76h41q31 0 50.5 19.5t26.5 56.5t9.5 64.5t2.5 70.5q0 262 -101 424v71h17q70 248 69 385q0 203 -72 203q-80 0 -79 -203v-1171h-103v995h-63v86h63v93q0 291 187 290q84 0 126 -74.5t42 -199.5q0 -201 -91 -434v-2q106 -227 105 -447 q0 -63 -5 -111.5t-21.5 -98.5t-51.5 -76.5t-86 -26.5z" />
<glyph unicode="&#xe0;" horiz-adv-x="458" d="M199 -16q-154 0 -154 338q0 344 229 352h15v262q0 72 -64 72q-72 0 -71 -76v-166h-95v162q0 70 42 121t132 51q80 0 118 -49.5t38 -112.5v-678q0 -150 4 -260h-84q-6 37 -6 78h-4q-8 -43 -36.5 -68.5t-63.5 -25.5zM225 76q31 0 47.5 40t16.5 87v385h-25q-51 0 -86 -62.5 t-35 -195.5q0 -254 82 -254zM207 1200l-141 273h120l97 -273h-76z" />
<glyph unicode="&#xe1;" horiz-adv-x="458" d="M199 -16q-154 0 -154 338q0 344 229 352h15v262q0 72 -64 72q-72 0 -71 -76v-166h-95v162q0 70 42 121t132 51q80 0 118 -49.5t38 -112.5v-678q0 -150 4 -260h-84q-6 37 -6 78h-4q-8 -43 -36.5 -68.5t-63.5 -25.5zM225 76q31 0 47.5 40t16.5 87v385h-25q-51 0 -86 -62.5 t-35 -195.5q0 -254 82 -254zM176 1200l96 273h119l-139 -273h-76z" />
<glyph unicode="&#xe2;" horiz-adv-x="458" d="M199 -16q-154 0 -154 338q0 344 229 352h15v262q0 72 -64 72q-72 0 -71 -76v-166h-95v162q0 70 42 121t132 51q80 0 118 -49.5t38 -112.5v-678q0 -150 4 -260h-84q-6 37 -6 78h-4q-8 -43 -36.5 -68.5t-63.5 -25.5zM225 76q31 0 47.5 40t16.5 87v385h-25q-51 0 -86 -62.5 t-35 -195.5q0 -254 82 -254zM84 1200l109 273h77l103 -273h-88l-58 166l-57 -166h-86z" />
<glyph unicode="&#xe3;" horiz-adv-x="458" d="M199 -16q-154 0 -154 338q0 344 229 352h15v262q0 72 -64 72q-72 0 -71 -76v-166h-95v162q0 70 42 121t132 51q80 0 118 -49.5t38 -112.5v-678q0 -150 4 -260h-84q-6 37 -6 78h-4q-8 -43 -36.5 -68.5t-63.5 -25.5zM225 76q31 0 47.5 40t16.5 87v385h-25q-51 0 -86 -62.5 t-35 -195.5q0 -254 82 -254zM127 1227l-61 10q14 139 98 139q25 0 70 -20.5t61 -20.5q29 0 37 49l63 -12q-4 -57 -29.5 -95t-66.5 -38q-27 0 -73 20.5t-58 20.5q-16 0 -25.5 -10t-15.5 -43z" />
<glyph unicode="&#xe4;" horiz-adv-x="458" d="M199 -16q-154 0 -154 338q0 344 229 352h15v262q0 72 -64 72q-72 0 -71 -76v-166h-95v162q0 70 42 121t132 51q80 0 118 -49.5t38 -112.5v-678q0 -150 4 -260h-84q-6 37 -6 78h-4q-8 -43 -36.5 -68.5t-63.5 -25.5zM225 76q31 0 47.5 40t16.5 87v385h-25q-51 0 -86 -62.5 t-35 -195.5q0 -254 82 -254zM96 1208v250h90v-250h-90zM270 1208v250h90v-250h-90z" />
<glyph unicode="&#xe5;" horiz-adv-x="458" d="M199 -16q-154 0 -154 338q0 344 229 352h15v262q0 72 -64 72q-72 0 -71 -76v-166h-95v162q0 70 42 121t132 51q80 0 118 -49.5t38 -112.5v-678q0 -150 4 -260h-84q-6 37 -6 78h-4q-8 -43 -36.5 -68.5t-63.5 -25.5zM225 76q31 0 47.5 40t16.5 87v385h-25q-51 0 -86 -62.5 t-35 -195.5q0 -254 82 -254zM227 1194q-68 0 -103.5 41t-35.5 98q0 61 39 104.5t100 43.5q66 0 103 -39t37 -99q0 -63 -40.5 -106t-99.5 -43zM227 1255q72 0 72 84q0 82 -71.5 82t-71.5 -86q0 -35 19 -57.5t52 -22.5z" />
<glyph unicode="&#xe6;" horiz-adv-x="692" d="M199 -16q-72 0 -113 84t-41 254q0 344 229 352h15v262q0 72 -64 72q-72 0 -71 -76v-166h-95v162q0 70 42 121t132 51q72 0 115 -51q45 49 127 49q84 0 125 -56.5t41 -146.5v-379h-248v-264q0 -84 25.5 -125t101.5 -41q39 0 101 20l24 -88q-66 -33 -151 -32 q-117 0 -166 86q-39 -88 -129 -88zM225 76q63 0 64 110v402h-25q-51 0 -86 -62.5t-35 -195.5q0 -254 82 -254zM393 606h146v289q0 106 -72 106q-74 0 -74 -106v-289z" />
<glyph unicode="&#xe7;" horiz-adv-x="473" d="M245.5 -313q-61.5 0 -106.5 12v68q66 -10 92 -11q66 0 66 49q0 39 -78 45l-35 3l29 135q-154 14 -154 209v698q0 98 53.5 150.5t137.5 52.5q82 0 127 -51.5t45 -124.5v-160h-96v145q0 96 -82 97q-80 0 -80 -95v-723q0 -104 80 -104q39 0 58.5 22.5t21.5 40t2 50.5v157h96 v-174q0 -80 -39 -131t-111 -59l-16 -78q135 -8 135 -107q0 -55 -42 -85.5t-103.5 -30.5z" />
<glyph unicode="&#xe8;" horiz-adv-x="460" d="M264 -14q-205 0 -205 225v672q0 98 47.5 156.5t135.5 58.5q86 0 127 -57.5t41 -147.5v-377h-246v-264q0 -86 25.5 -126t99.5 -40q43 0 100 20l25 -88q-72 -32 -150 -32zM164 606h143v289q0 106 -71.5 106t-71.5 -106v-289zM207 1200l-141 273h120l97 -273h-76z" />
<glyph unicode="&#xe9;" horiz-adv-x="460" d="M197 1200l96 273h119l-140 -273h-75zM264 -14q-205 0 -205 225v672q0 98 47.5 156.5t135.5 58.5q86 0 127 -57.5t41 -147.5v-377h-246v-264q0 -86 25.5 -126t99.5 -40q43 0 100 20l25 -88q-72 -32 -150 -32zM164 606h143v289q0 106 -71.5 106t-71.5 -106v-289z" />
<glyph unicode="&#xea;" horiz-adv-x="460" d="M86 1200l109 273h77l103 -273h-88l-58 166l-57 -166h-86zM264 -14q-205 0 -205 225v672q0 98 47.5 156.5t135.5 58.5q86 0 127 -57.5t41 -147.5v-377h-246v-264q0 -86 25.5 -126t99.5 -40q43 0 100 20l25 -88q-72 -32 -150 -32zM164 606h143v289q0 106 -71.5 106 t-71.5 -106v-289z" />
<glyph unicode="&#xeb;" horiz-adv-x="460" d="M111 1208v250h90v-250h-90zM285 1208v250h90v-250h-90zM264 -14q-205 0 -205 225v672q0 98 47.5 156.5t135.5 58.5q86 0 127 -57.5t41 -147.5v-377h-246v-264q0 -86 25.5 -126t99.5 -40q43 0 100 20l25 -88q-72 -32 -150 -32zM164 606h143v289q0 106 -71.5 106 t-71.5 -106v-289z" />
<glyph unicode="&#xec;" horiz-adv-x="247" d="M74 0v1081h100v-1081h-100zM76 1200l-142 273h121l97 -273h-76z" />
<glyph unicode="&#xed;" horiz-adv-x="247" d="M90 1200l96 273h119l-139 -273h-76zM74 0v1081h100v-1081h-100z" />
<glyph unicode="&#xee;" horiz-adv-x="247" d="M-20 1200l108 273h78l102 -273h-88l-57 166l-57 -166h-86zM74 0v1081h100v-1081h-100z" />
<glyph unicode="&#xef;" horiz-adv-x="247" d="M-8 1208v250h90v-250h-90zM166 1208v250h90v-250h-90zM74 0v1081h100v-1081h-100z" />
<glyph unicode="&#xf0;" horiz-adv-x="487" d="M240 -14q-182 0 -183 213v700q0 92 50.5 143.5t130.5 55.5h12l-70 135l-98 -21l-31 70l92 21l-73 147l106 20l74 -145l121 31l28 -74l-114 -27l118 -239q27 -53 27 -121v-698q0 -106 -51 -158.5t-139 -52.5zM244 82q82 0 82 102v723q0 39 -20.5 68t-61.5 29 q-80 0 -80 -93v-725q0 -41 18.5 -72.5t61.5 -31.5z" />
<glyph unicode="&#xf1;" horiz-adv-x="499" d="M74 0v1081h98v-67h2q41 84 137 84q53 0 89 -33t36 -96v-969h-102v930q0 76 -66 76q-94 0 -94 -125v-881h-100zM147 1227l-61 10q14 139 98 139q25 0 70 -20.5t61 -20.5q29 0 37 49l64 -12q-4 -57 -30 -95t-67 -38q-27 0 -72.5 20.5t-58.5 20.5q-16 0 -25.5 -10t-15.5 -43 z" />
<glyph unicode="&#xf2;" horiz-adv-x="489" d="M240 -14q-180 0 -181 213v700q0 96 53.5 147.5t135.5 51.5q80 0 131 -48.5t51 -138.5v-714q0 -106 -51 -158.5t-139 -52.5zM244 82q82 0 82 102v723q0 39 -20.5 68t-61.5 29t-60.5 -28t-19.5 -65v-725q0 -39 19.5 -71.5t60.5 -32.5zM203 1200l-142 273h121l97 -273h-76z " />
<glyph unicode="&#xf3;" horiz-adv-x="489" d="M201 1200l96 273h119l-140 -273h-75zM240 -14q-180 0 -181 213v700q0 96 53.5 147.5t135.5 51.5q80 0 131 -48.5t51 -138.5v-714q0 -106 -51 -158.5t-139 -52.5zM244 82q82 0 82 102v723q0 39 -20.5 68t-61.5 29t-60.5 -28t-19.5 -65v-725q0 -39 19.5 -71.5t60.5 -32.5z " />
<glyph unicode="&#xf4;" horiz-adv-x="489" d="M98 1200l109 273h78l102 -273h-88l-57 166l-58 -166h-86zM240 -14q-180 0 -181 213v700q0 96 53.5 147.5t135.5 51.5q80 0 131 -48.5t51 -138.5v-714q0 -106 -51 -158.5t-139 -52.5zM244 82q82 0 82 102v723q0 39 -20.5 68t-61.5 29t-60.5 -28t-19.5 -65v-725 q0 -39 19.5 -71.5t60.5 -32.5z" />
<glyph unicode="&#xf5;" horiz-adv-x="489" d="M240 -14q-180 0 -181 213v700q0 96 53.5 147.5t135.5 51.5q80 0 131 -48.5t51 -138.5v-714q0 -106 -51 -158.5t-139 -52.5zM244 82q82 0 82 102v723q0 39 -20.5 68t-61.5 29t-60.5 -28t-19.5 -65v-725q0 -39 19.5 -71.5t60.5 -32.5zM141 1227l-61 10q14 139 98 139 q25 0 70 -20.5t61.5 -20.5t24.5 11.5t12 37.5l64 -12q-4 -57 -30 -95t-67 -38q-27 0 -72.5 20.5t-58.5 20.5q-16 0 -25.5 -10t-15.5 -43z" />
<glyph unicode="&#xf6;" horiz-adv-x="489" d="M111 1208v250h90v-250h-90zM285 1208v250h90v-250h-90zM240 -14q-180 0 -181 213v700q0 96 53.5 147.5t135.5 51.5q80 0 131 -48.5t51 -138.5v-714q0 -106 -51 -158.5t-139 -52.5zM244 82q82 0 82 102v723q0 39 -20.5 68t-61.5 29t-60.5 -28t-19.5 -65v-725 q0 -39 19.5 -71.5t60.5 -32.5z" />
<glyph unicode="&#xf7;" d="M213 344v174h84v-174h-84zM55 614v86h402v-86h-402zM213 784v177h84v-177h-84z" />
<glyph unicode="&#xf8;" horiz-adv-x="489" d="M150 -68l-62 11l21 92q-49 51 -50 164v700q0 96 53.5 147.5t135.5 51.5q53 0 94 -21l14 64l62 -8l-23 -103q35 -49 35 -119v-714q0 -106 -51 -158.5t-139 -52.5q-45 0 -76 12zM164 911v-628l151 675q-23 45 -71 46q-41 0 -60.5 -28t-19.5 -65zM244 82q82 0 82 102v537 l-138 -615q21 -24 56 -24z" />
<glyph unicode="&#xf9;" horiz-adv-x="499" d="M188 -16q-53 0 -89 32.5t-36 98.5v966h101v-929q0 -76 67 -76q94 0 95 125v880h100v-1081h-98v68h-2q-42 -84 -138 -84zM207 1200l-141 273h120l97 -273h-76z" />
<glyph unicode="&#xfa;" horiz-adv-x="499" d="M199 1200l96 273h119l-140 -273h-75zM188 -16q-53 0 -89 32.5t-36 98.5v966h101v-929q0 -76 67 -76q94 0 95 125v880h100v-1081h-98v68h-2q-42 -84 -138 -84z" />
<glyph unicode="&#xfb;" horiz-adv-x="499" d="M104 1200l109 273h78l102 -273h-88l-57 166l-58 -166h-86zM188 -16q-53 0 -89 32.5t-36 98.5v966h101v-929q0 -76 67 -76q94 0 95 125v880h100v-1081h-98v68h-2q-42 -84 -138 -84z" />
<glyph unicode="&#xfc;" horiz-adv-x="499" d="M117 1208v250h90v-250h-90zM291 1208v250h90v-250h-90zM188 -16q-53 0 -89 32.5t-36 98.5v966h101v-929q0 -76 67 -76q94 0 95 125v880h100v-1081h-98v68h-2q-42 -84 -138 -84z" />
<glyph unicode="&#xfd;" horiz-adv-x="425" d="M88 -342q-23 0 -55 4l2 90q18 -4 43 -4q66 0 76 80l22 166l-153 1087h102l96 -780h4l82 780h96l-149 -1185q-16 -119 -53 -178.5t-113 -59.5zM176 1200l96 273h119l-139 -273h-76z" />
<glyph unicode="&#xfe;" horiz-adv-x="497" d="M74 -328v1788h98v-448h4q37 86 131 86q70 0 101.5 -47t31.5 -109v-792q0 -70 -41 -117t-110.5 -47t-112.5 55h-2v-369h-100zM260 82q76 0 76 96v731q0 96 -76 97q-41 0 -63.5 -43t-22.5 -105v-678q0 -98 86 -98z" />
<glyph unicode="&#xff;" horiz-adv-x="425" d="M88 -342q-23 0 -55 4l2 90q18 -4 43 -4q66 0 76 80l22 166l-153 1087h102l96 -780h4l82 780h96l-149 -1185q-16 -119 -53 -178.5t-113 -59.5zM82 1208v250h90v-250h-90zM256 1208v250h90v-250h-90z" />
<glyph unicode="&#x152;" horiz-adv-x="745" d="M248 -12q-102 0 -145.5 59t-43.5 176v1034q0 106 56.5 164t152.5 58q68 0 111 -37v18h317v-100h-215v-537h181v-100h-181v-625h219v-98h-321v39q-57 -51 -131 -51zM272 86q102 0 103 127v1057q0 109 -105 108q-53 0 -77.5 -31.5t-24.5 -72.5v-1065q0 -47 24.5 -85 t79.5 -38z" />
<glyph unicode="&#x153;" horiz-adv-x="729" d="M240 -14q-180 0 -181 213v700q0 96 53.5 147.5t135.5 51.5q76 0 133 -58q53 57 129 58q84 0 126 -57.5t42 -147.5v-377h-248v-285q2 -74 28.5 -109.5t96.5 -35.5q43 0 100 20l27 -88q-76 -33 -152 -32q-90 0 -151 65q-55 -65 -139 -65zM244 82q82 0 82 102v723 q0 39 -20.5 68t-61.5 29t-60.5 -28t-19.5 -65v-725q0 -39 19.5 -71.5t60.5 -32.5zM430 606h145v289q0 106 -71 106q-70 0 -74 -90v-305z" />
<glyph unicode="&#x178;" horiz-adv-x="509" d="M205 0v651l-168 809h110l115 -624l113 624h100l-164 -813v-647h-106zM123 1581v250h90v-250h-90zM297 1581v250h90v-250h-90z" />
<glyph unicode="&#x2c6;" horiz-adv-x="399" d="M55 1200l109 273h78l102 -273h-88l-57 166l-58 -166h-86z" />
<glyph unicode="&#x2dc;" horiz-adv-x="497" d="M147 1227l-61 10q14 139 98 139q25 0 70 -20.5t61 -20.5q29 0 37 49l64 -12q-4 -57 -30 -95t-67 -38q-27 0 -72.5 20.5t-58.5 20.5q-16 0 -25.5 -10t-15.5 -43z" />
<glyph unicode="&#x2000;" horiz-adv-x="925" />
<glyph unicode="&#x2001;" horiz-adv-x="1853" />
<glyph unicode="&#x2002;" horiz-adv-x="925" />
<glyph unicode="&#x2003;" horiz-adv-x="1853" />
<glyph unicode="&#x2004;" horiz-adv-x="616" />
<glyph unicode="&#x2005;" horiz-adv-x="462" />
<glyph unicode="&#x2006;" horiz-adv-x="307" />
<glyph unicode="&#x2007;" horiz-adv-x="307" />
<glyph unicode="&#x2008;" horiz-adv-x="231" />
<glyph unicode="&#x2009;" horiz-adv-x="370" />
<glyph unicode="&#x200a;" horiz-adv-x="102" />
<glyph unicode="&#x2010;" horiz-adv-x="333" d="M43 569v99h248v-99h-248z" />
<glyph unicode="&#x2011;" horiz-adv-x="333" d="M43 569v99h248v-99h-248z" />
<glyph unicode="&#x2012;" horiz-adv-x="333" d="M43 569v99h248v-99h-248z" />
<glyph unicode="&#x2013;" horiz-adv-x="522" d="M0 575v93h522v-93h-522z" />
<glyph unicode="&#x2014;" horiz-adv-x="862" d="M0 575v93h862v-93h-862z" />
<glyph unicode="&#x2018;" horiz-adv-x="247" d="M74 1092v186l39 188h59l-29 -178h27v-196h-96z" />
<glyph unicode="&#x2019;" horiz-adv-x="247" d="M76 1090l28 178h-26v196h96v-186l-41 -188h-57z" />
<glyph unicode="&#x201a;" horiz-adv-x="247" d="M76 -172l28 178h-26v197h96v-187l-41 -188h-57z" />
<glyph unicode="&#x201c;" horiz-adv-x="452" d="M74 1092v186l39 188h59l-29 -178h27v-196h-96zM279 1092v186l40 188h60l-31 -178h29v-196h-98z" />
<glyph unicode="&#x201d;" horiz-adv-x="452" d="M76 1090l28 178h-26v196h96v-186l-41 -188h-57zM281 1090l30 178h-28v196h98v-186l-41 -188h-59z" />
<glyph unicode="&#x201e;" horiz-adv-x="452" d="M76 -172l28 178h-26v197h96v-187l-41 -188h-57zM281 -172l30 178h-28v197h98v-187l-41 -188h-59z" />
<glyph unicode="&#x2022;" horiz-adv-x="645" d="M324 459q-102 0 -173 71.5t-71 172t71.5 171t172 70.5t171 -70.5t70.5 -171t-70.5 -172t-170.5 -71.5z" />
<glyph unicode="&#x2026;" horiz-adv-x="727" d="M74 0v203h96v-203h-96zM315 0v203h97v-203h-97zM557 0v203h96v-203h-96z" />
<glyph unicode="&#x202f;" horiz-adv-x="370" />
<glyph unicode="&#x2039;" horiz-adv-x="294" d="M182 330l-139 241l131 238l70 -39l-92 -199l100 -198z" />
<glyph unicode="&#x203a;" horiz-adv-x="294" d="M119 332l-68 41l90 198l-98 197l70 43l139 -240z" />
<glyph unicode="&#x205f;" horiz-adv-x="462" />
<glyph unicode="&#x20ac;" horiz-adv-x="565" d="M315 -14q-106 0 -159.5 56t-53.5 153v380h-61v87h61v155h-61v86h61v352q0 102 54.5 165t158.5 63q100 0 149.5 -59.5t49.5 -147.5v-262h-98v243q0 125 -103 125q-35 0 -57.5 -10t-31.5 -31.5t-12 -41t-3 -50.5v-346h170v-86h-170v-155h170v-87h-170v-360q0 -131 104 -131 q102 0 103 133v238h98v-240q0 -102 -50.5 -165.5t-148.5 -63.5z" />
<glyph unicode="&#x2122;" horiz-adv-x="612" d="M279 795v665h90l51 -270l49 270h88v-665h-70v505l-43 -237h-55l-45 235v-503h-65zM98 795v602h-67v63h205v-63h-66v-602h-72z" />
<glyph unicode="&#xe000;" horiz-adv-x="1080" d="M0 1080h1080v-1080h-1080v1080z" />
<glyph unicode="&#xe38c;" horiz-adv-x="548" d="M375 0v1081h100v-1081h-100zM375 1255v209h100v-209h-100zM98 0v995h-63v86h63v250q0 59 35 98t103 39q39 0 59 -6v-86q-14 2 -49 2q-45 0 -45 -49v-248h75v-86h-75v-995h-103z" />
<glyph unicode="&#xfb01;" horiz-adv-x="548" d="M375 0v1081h100v-1081h-100zM375 1255v209h100v-209h-100zM98 0v995h-63v86h63v250q0 59 35 98t103 39q39 0 59 -6v-86q-14 2 -49 2q-45 0 -45 -49v-248h75v-86h-75v-995h-103z" />
<glyph unicode="&#xe38d;" horiz-adv-x="565" d="M469 -8q-94 0 -94 98v1370h100v-1347q0 -23 25 -23q16 0 30 2v-90q-26 -10 -61 -10zM98 0v995h-63v86h63v250q0 59 35 98t103 39q39 0 59 -6v-86q-14 2 -49 2q-45 0 -45 -49v-248h75v-86h-75v-995h-103z" />
<glyph unicode="&#xfb02;" horiz-adv-x="565" d="M469 -8q-94 0 -94 98v1370h100v-1347q0 -23 25 -23q16 0 30 2v-90q-26 -10 -61 -10zM98 0v995h-63v86h63v250q0 59 35 98t103 39q39 0 59 -6v-86q-14 2 -49 2q-45 0 -45 -49v-248h75v-86h-75v-995h-103z" />
<glyph unicode="&#xfb03;" horiz-adv-x="858" d="M684 0v1081h100v-1081h-100zM684 1255v209h100v-209h-100zM403 0v995h-63v86h63v250q0 59 35 98t103 39q39 0 59 -6v-86q-14 2 -49 2q-45 0 -45 -49v-248h75v-86h-75v-995h-103zM98 0v995h-63v86h63v250q0 59 35 98t103 39q39 0 59 -6v-86q-14 2 -49 2q-45 0 -45 -49 v-248h75v-86h-75v-995h-103z" />
<glyph unicode="&#xfb04;" horiz-adv-x="874" d="M778 -8q-94 0 -94 98v1370h100v-1347q0 -23 25 -23q16 0 30 2v-90q-24 -10 -61 -10zM403 0v995h-63v86h63v250q0 59 35 98t103 39q39 0 59 -6v-86q-14 2 -49 2q-45 0 -45 -49v-248h75v-86h-75v-995h-103zM98 0v995h-63v86h63v250q0 59 35 98t103 39q39 0 59 -6v-86 q-14 2 -49 2q-45 0 -45 -49v-248h75v-86h-75v-995h-103z" />
<glyph horiz-adv-x="0" />
</font>
</defs>
</svg>
