<?xml version="1.0" standalone="no"?>
<!DOCTYPE svg PUBLIC "-//W3C//DTD SVG 1.1//EN" "http://www.w3.org/Graphics/SVG/1.1/DTD/svg11.dtd" >
<svg xmlns="http://www.w3.org/2000/svg">
<metadata>
This is a custom SVG webfont generated by Font Squirrel.
Copyright   : Copyright c 2008 by Mrio Feliciano All rights reserved
Designer    : Mrio Feliciano
Foundry     : Mrio Feliciano  Feliciano Type Foundry
Foundry URL : wwwfelicianotypefoundrycom
</metadata>
<defs>
<font id="webfont1dmnj31w" horiz-adv-x="1146" >
<font-face units-per-em="2048" ascent="1638" descent="-410" />
<missing-glyph horiz-adv-x="512" />
<glyph unicode=" "  horiz-adv-x="512" />
<glyph unicode="&#x09;" horiz-adv-x="512" />
<glyph unicode="&#xa0;" horiz-adv-x="512" />
<glyph unicode="!" horiz-adv-x="598" d="M223 430l-61 578v452h272v-452l-59 -578h-152zM164 0v305h268v-305h-268z" />
<glyph unicode="&#x22;" horiz-adv-x="886" d="M184 915l-39 306v239h230v-239l-39 -306h-152zM551 915l-39 306v239h229v-239l-39 -306h-151z" />
<glyph unicode="#" horiz-adv-x="1206" d="M190 -2l64 377h-229l28 160h226l73 419h-237l28 156h230l59 348h156l-56 -348h285l57 348h156l-59 -348h225l-22 -156h-226l-74 -419h230l-23 -160h-231l-64 -377h-155l61 377h-284l-62 -377h-156zM436 535h283l72 419h-285z" />
<glyph unicode="$" d="M496 -137v209q-147 16 -259 101t-151 212l221 88q76 -190 277 -190q100 0 166.5 38.5t66.5 114.5q0 33 -14.5 57.5t-28.5 39t-51 28.5l-49 18.5t-58 16.5l-196 47q-135 35 -205 116t-70 222q0 152 97.5 249t253.5 122v215h194v-217q283 -45 350 -269l-213 -84 q-70 150 -252 150q-78 0 -133 -41t-55 -115q0 -55 43 -84.5t129 -52.5l180 -47q150 -39 235 -119t85 -235q0 -147 -101.5 -249t-267.5 -128v-213h-194z" />
<glyph unicode="%" horiz-adv-x="1619" d="M387 686q-125 0 -209 62.5t-84 191.5v285q0 129 84 194.5t209 65.5t211 -64.5t86 -197.5v-285q0 -123 -88 -187.5t-209 -64.5zM387 829q59 0 89 31t30 78v299q0 47 -30 78t-87 31q-59 0 -88 -30t-29 -79v-299q0 -109 115 -109zM1227 -23q-125 0 -209 63.5t-84 190.5v287 q0 129 84 193.5t209 64.5q127 0 213 -64.5t86 -195.5v-285q0 -123 -88 -188.5t-211 -65.5zM1227 121q59 0 89 30.5t30 79.5v297q0 47 -30 78t-87 31q-117 0 -117 -109v-299q0 -108 115 -108zM242 0l989 1468h166l-987 -1468h-168z" />
<glyph unicode="&#x26;" horiz-adv-x="1595" d="M588 -31q-217 0 -346 113t-129 297q0 139 88 257t258 179q-156 164 -156 303q0 156 116 262.5t353 106.5q193 0 306.5 -96.5t113.5 -237.5t-97.5 -243.5t-236.5 -149.5l246 -266q51 115 76 206l215 -24q-41 -193 -131 -350l301 -326h-353l-139 150q-196 -181 -485 -181z M645 184q172 0 285 119l-346 377q-100 -39 -154.5 -116t-54.5 -158q0 -104 72.5 -163t197.5 -59zM735 897q211 66 211 252q0 74 -47 115t-119 41q-96 0 -147 -47.5t-51 -120.5q0 -59 98 -176z" />
<glyph unicode="'" horiz-adv-x="520" d="M184 915l-39 306v239h230v-239l-39 -306h-152z" />
<glyph unicode="(" horiz-adv-x="657" d="M457 -369q-133 147 -208 427t-75 505q0 229 68.5 484.5t212.5 431.5l137 -4q-117 -242 -162 -443t-45 -469q0 -494 207 -928z" />
<glyph unicode=")" horiz-adv-x="657" d="M201 -369l-135 4q207 434 206 928q0 268 -45 469t-161 443l137 4q143 -176 211.5 -431t68.5 -485q0 -225 -74.5 -505t-207.5 -427z" />
<glyph unicode="*" horiz-adv-x="894" d="M279 776l-121 80l157 229l-241 136l73 118l228 -122v243h145v-243l228 122l73 -118l-243 -136l163 -229l-125 -80l-167 242z" />
<glyph unicode="+" d="M487 125v440h-438v168h438v443h172v-443h439v-168h-439v-440h-172z" />
<glyph unicode="," horiz-adv-x="532" d="M160 -285l61 289h-88v299h268v-289l-108 -299h-133z" />
<glyph unicode="-" horiz-adv-x="743" d="M76 502v213h592v-213h-592z" />
<glyph unicode="." horiz-adv-x="532" d="M133 0v305h268v-305h-268z" />
<glyph unicode="/" horiz-adv-x="714" d="M-61 -365l555 1835h192l-551 -1835h-196z" />
<glyph unicode="0" horiz-adv-x="1220" d="M612 -25q-213 0 -361.5 110t-148.5 327v624q0 215 149.5 332t362.5 117t358.5 -116t145.5 -335v-616q0 -209 -149.5 -326t-356.5 -117zM612 190q111 0 172.5 68t61.5 166v620q0 98 -60.5 162t-171 64t-174 -65.5t-63.5 -168.5v-614q0 -98 61 -165t174 -67z" />
<glyph unicode="1" horiz-adv-x="1056" d="M100 0v193h318v1034l-297 -31l-21 184l482 88h94v-1275h297v-193h-873z" />
<glyph unicode="2" horiz-adv-x="1171" d="M150 0v172l487 573q133 156 133 312v41q0 80 -51 129t-152 49q-96 0 -150.5 -52.5t-54.5 -140.5v-39h-247v54q0 186 131 287.5t344 101.5q215 0 334.5 -111.5t119.5 -294.5q0 -49 -10 -99t-22.5 -89t-39.5 -87l-46 -78q-18 -30 -58.5 -79t-59.5 -70l-67 -74l-63 -71 l-189 -211v-4h566v-219h-905z" />
<glyph unicode="3" horiz-adv-x="1187" d="M588 -25q-227 0 -348 101.5t-121 263.5v53h254v-39q0 -84 63.5 -127t163.5 -43q96 0 156.5 63.5t60.5 172.5q0 68 -24.5 114t-63.5 66.5t-71.5 27.5t-67.5 7h-176v219h159q217 0 218 209q0 102 -62.5 154.5t-140.5 52.5q-102 0 -154.5 -51.5t-52.5 -141.5v-14h-248v49 q0 162 124 267.5t337 105.5q225 0 340 -112.5t115 -272.5q0 -119 -58.5 -211t-154.5 -125v-8q109 -33 184.5 -123t75.5 -221q0 -211 -147.5 -324t-360.5 -113z" />
<glyph unicode="4" horiz-adv-x="1212" d="M700 0v369h-614v200l545 893h293l-562 -884h338v231l254 133v-364h174v-209h-174v-369h-254z" />
<glyph unicode="5" horiz-adv-x="1171" d="M580 -25q-217 0 -341 97.5t-124 244.5v76h252v-37q0 -78 63.5 -123t157.5 -45q215 0 215 256v105q0 94 -64.5 144t-154.5 50q-125 0 -215 -94l-228 35l43 776h815v-237h-602l-16 -344q125 86 303 86q147 0 268 -93.5t121 -267.5v-158q0 -225 -139 -348t-354 -123z" />
<glyph unicode="6" horiz-adv-x="1196" d="M594 -25q-209 0 -347 119t-138 314v636q0 201 144 321t357 120t338 -98.5t125 -268.5v-51h-254v29q0 86 -57 132t-156 46q-109 0 -166 -61.5t-57 -159.5v-248q131 137 334 137q168 0 271.5 -88t103.5 -238v-237q0 -190 -140.5 -297t-357.5 -107zM606.5 186 q106.5 0 164.5 55.5t58 139.5v174q0 94 -63.5 135t-151.5 41q-86 0 -158.5 -64.5t-72.5 -170.5v-93q0 -92 58.5 -154.5t165 -62.5z" />
<glyph unicode="7" horiz-adv-x="1150" d="M240 0q8 340 165.5 678t350.5 545h-654v237h963v-200l-119 -138q-49 -59 -134 -190t-139.5 -256t-98.5 -306.5t-46 -369.5h-288z" />
<glyph unicode="8" horiz-adv-x="1183" d="M588 -25q-223 0 -356.5 97.5t-133.5 285.5v91q0 98 52.5 177t136.5 117q-78 33 -124 107t-46 166v74q0 186 137 290.5t336 104.5q127 0 230.5 -37t173 -123t69.5 -207q4 -129 0 -135q0 -78 -50 -142.5t-124 -95.5q84 -29 140 -111.5t56 -178.5v-88q0 -182 -140 -287 t-357 -105zM588 178q100 0 163.5 51.5t63.5 147.5v74q0 98 -64.5 141t-158.5 43q-96 0 -160.5 -43t-64.5 -135v-82q0 -90 64.5 -143.5t156.5 -53.5zM594 842q88 0 152.5 50t64.5 136v78q0 92 -64.5 134t-158.5 42q-88 0 -150.5 -48t-62.5 -132v-76q0 -92 63.5 -138 t155.5 -46z" />
<glyph unicode="9" horiz-adv-x="1187" d="M573 -25q-213 0 -334.5 97.5t-121.5 267.5v53h254v-31q0 -84 58 -131t155 -47q109 0 166 62.5t57 161.5v245q-47 -72 -138 -109.5t-196 -37.5q-166 0 -270.5 94t-104.5 244v237q0 190 140.5 297t357.5 107q209 0 347 -119t138 -311v-643q0 -199 -146.5 -318t-361.5 -119z M571 721q86 0 161 65.5t75 171.5v99q0 92 -58.5 156.5t-165 64.5t-165 -55.5t-58.5 -139.5v-176q0 -94 63.5 -140t147.5 -46z" />
<glyph unicode=":" horiz-adv-x="532" d="M133 0v305h268v-305h-268zM133 768v305h268v-305h-268z" />
<glyph unicode=";" horiz-adv-x="532" d="M160 -285l61 289h-88v299h268v-289l-108 -299h-133zM133 768v305h268v-305h-268z" />
<glyph unicode="&#x3c;" d="M973 154l-877 432v137l875 430l78 -154l-705 -344l707 -348z" />
<glyph unicode="=" d="M49 346v168h1049v-168h-1049zM49 776v168h1049v-168h-1049z" />
<glyph unicode="&#x3e;" d="M174 154l-78 153l707 348l-705 344l78 154l875 -430v-137z" />
<glyph unicode="?" horiz-adv-x="1099" d="M410 412v96q0 78 26.5 132t83.5 112q20 20 73.5 66t82.5 75t55.5 78t26.5 100q0 86 -55.5 144.5t-143.5 58.5q-86 0 -152.5 -43t-66.5 -131v-84l-231 -2v90q0 184 136 280.5t330 96.5q203 0 319 -105.5t116 -290.5q0 -193 -181 -340q-16 -14 -60 -48.5t-66.5 -55 t-43 -57.5t-20.5 -78v-94h-229zM387 0v305h268v-305h-268z" />
<glyph unicode="@" horiz-adv-x="1968" d="M1036 -309q-227 0 -377 55q-246 90 -396 288.5t-148 502.5q0 182 52 335.5t141 262t211 185.5t262.5 112.5t291.5 35.5q201 0 376 -75.5t290.5 -232t115.5 -363.5q0 -182 -54 -318.5t-145 -212.5t-194.5 -111.5t-218.5 -35.5h-158l19 102h-6q-45 -51 -126 -88t-147 -37 q-131 0 -213 75t-82 208q0 45 9 80l36 225q31 170 138.5 271.5t271.5 101.5q70 0 136.5 -29t97.5 -84h8l20 98h201l-131 -780q154 12 256 145.5t102 395.5q0 238 -191.5 377t-426.5 139q-154 0 -289 -46t-244.5 -137.5t-173 -242t-63.5 -342.5q0 -258 136 -435t351 -241 q121 -35 293 -35q217 0 461 70l37 -131q-212 -88 -529 -88zM915 281q86 0 148.5 50t77.5 136l37 227q4 25 4 31q0 74 -54.5 113t-128.5 39q-84 0 -139 -49.5t-72 -135.5l-38 -231q-4 -20 -5 -35q0 -72 48 -108.5t122 -36.5z" />
<glyph unicode="A" horiz-adv-x="1376" d="M23 0l542 1462h250l539 -1462h-289l-107 311h-557l-110 -311h-268zM477 545h404l-199 585h-4z" />
<glyph unicode="B" horiz-adv-x="1355" d="M147 0v1460h627q215 0 333 -95t118 -282q0 -213 -207 -309v-2q123 -33 187.5 -129t64.5 -223q0 -197 -134.5 -308.5t-326.5 -111.5h-662zM420 231h342q111 0 174 53.5t63 151.5q0 195 -235 195h-344v-400zM420 860h321q102 0 159.5 49t57.5 140q0 180 -229 180h-309v-369 z" />
<glyph unicode="C" horiz-adv-x="1351" d="M705 -25q-250 0 -422 134.5t-172 369.5v467q0 250 166.5 394.5t416.5 144.5q227 0 392 -126t165 -355v-46h-258v21q0 131 -91 197.5t-208 66.5q-123 0 -218 -69.5t-95 -212.5v-467q0 -127 94 -202t230 -75q115 0 201.5 66.5t86.5 197.5v21h258v-45q0 -231 -160.5 -356.5 t-385.5 -125.5z" />
<glyph unicode="D" horiz-adv-x="1402" d="M147 0v1460h570q244 0 409.5 -146.5t165.5 -385.5v-389q0 -248 -171 -393.5t-402 -145.5h-572zM420 240h289q123 0 218 69.5t95 212.5v422q0 127 -94 202t-230 75h-278v-981z" />
<glyph unicode="E" horiz-adv-x="1280" d="M147 0v1460h1014v-239h-741v-357h657v-239h-657v-385h749v-240h-1022z" />
<glyph unicode="F" horiz-adv-x="1193" d="M147 0v1460h981v-239h-706v-369h606v-238h-606v-614h-275z" />
<glyph unicode="G" horiz-adv-x="1361" d="M705 -25q-250 0 -422 134.5t-172 369.5v467q0 250 166.5 394.5t416.5 144.5q147 0 269 -46t205 -153.5t83 -263.5v-45h-258v20q0 129 -89 187.5t-210 58.5q-123 0 -218 -69.5t-95 -212.5v-467q0 -127 94 -202t230 -75q125 0 206.5 64.5t81.5 199.5v35h-377v246h635v-305 q0 -231 -160.5 -356.5t-385.5 -125.5z" />
<glyph unicode="H" horiz-adv-x="1423" d="M147 0v1460h273v-596h584v596h272v-1460h-272v625h-584v-625h-273z" />
<glyph unicode="I" horiz-adv-x="567" d="M147 0v1460h273v-1460h-273z" />
<glyph unicode="J" horiz-adv-x="1228" d="M594 -23q-240 0 -372 118t-132 358v94h272v-72q0 -252 246 -252q102 0 157.5 79t55.5 198v960h273v-1003q0 -190 -137.5 -335t-362.5 -145z" />
<glyph unicode="K" horiz-adv-x="1404" d="M147 0v1460h273v-678l588 678h331l-520 -575l572 -885h-318l-434 686l-219 -227v-459h-273z" />
<glyph unicode="L" horiz-adv-x="1183" d="M147 0v1460h273v-1220h710v-240h-983z" />
<glyph unicode="M" horiz-adv-x="1705" d="M147 0v1460h332l377 -913h4l367 913h332v-1460h-263v973h-4l-331 -805h-216l-331 801h-4v-969h-263z" />
<glyph unicode="N" horiz-adv-x="1460" d="M147 0v1460h265l635 -995h4v995h262v-1460h-266l-633 997h-4v-997h-263z" />
<glyph unicode="O" horiz-adv-x="1398" d="M705 -25q-250 0 -422 134.5t-172 369.5v467q0 246 175 392.5t408 146.5q246 0 420 -147.5t174 -385.5v-438q0 -246 -175 -392.5t-408 -146.5zM705 217q123 0 218 69.5t95 213.5v467q0 127 -94.5 201.5t-229.5 74.5q-123 0 -218 -69.5t-95 -212.5v-467q0 -127 94.5 -202 t229.5 -75z" />
<glyph unicode="P" horiz-adv-x="1290" d="M147 0v1460h594q219 0 357.5 -120.5t138.5 -338.5q0 -184 -124 -319t-357 -135h-336v-547h-273zM420 776h289q121 0 191.5 58.5t70.5 169.5q0 227 -266 227h-285v-455z" />
<glyph unicode="Q" horiz-adv-x="1398" d="M1135 -219l-301 209q-76 -14 -129 -15q-250 0 -422 134.5t-172 369.5v467q0 246 175 392.5t408 146.5q246 0 420 -147.5t174 -385.5v-438q0 -254 -194 -408l223 -129zM705 217q123 0 218 69.5t95 213.5v467q0 127 -94.5 201.5t-229.5 74.5q-123 0 -218 -69.5t-95 -212.5 v-467q0 -127 94.5 -202t229.5 -75z" />
<glyph unicode="R" horiz-adv-x="1333" d="M147 0v1460h578q215 0 355.5 -120.5t140.5 -338.5q0 -139 -74 -256.5t-215 -166.5l362 -578h-297l-342 547h-235v-547h-273zM420 776h272q121 0 191.5 58.5t70.5 169.5q0 227 -266 227h-268v-455z" />
<glyph unicode="S" horiz-adv-x="1282" d="M635 -23q-213 0 -374 91.5t-216 269.5l246 96q41 -104 134 -162.5t218 -58.5q121 0 204 48t83 145q0 76 -52.5 118.5t-148.5 71.5l-246 59q-168 43 -259 130t-91 266q0 199 150.5 316.5t371.5 117.5q385 0 514 -299l-223 -99q-86 168 -313 168q-98 0 -166 -46t-68 -138 q0 -123 213 -180l250 -62q334 -78 334 -405q0 -199 -158.5 -323t-402.5 -124z" />
<glyph unicode="T" horiz-adv-x="1220" d="M475 0v1227h-420v233h1110v-233h-420v-1227h-270z" />
<glyph unicode="U" horiz-adv-x="1417" d="M709 -23q-262 0 -417 135.5t-155 391.5v956h273v-923q0 -143 73.5 -228.5t225.5 -85.5q299 0 299 314v923h272v-936q0 -258 -155.5 -402.5t-415.5 -144.5z" />
<glyph unicode="V" horiz-adv-x="1228" d="M479 -6l-479 1466h295l330 -1075h4l329 1075h271l-484 -1466h-266z" />
<glyph unicode="W" horiz-adv-x="1839" d="M401 -6l-376 1466h278l229 -1022h5l268 1022h231l267 -1028h4l233 1028h275l-379 -1466h-252l-262 1030h-4l-263 -1030h-254z" />
<glyph unicode="X" horiz-adv-x="1232" d="M-16 0l479 758l-445 702h312l288 -485l295 485h301l-444 -704l479 -756h-317l-320 524l-321 -524h-307z" />
<glyph unicode="Y" horiz-adv-x="1245" d="M489 0v586l-489 874h305l326 -612l323 612h291l-491 -878v-582h-265z" />
<glyph unicode="Z" horiz-adv-x="1222" d="M70 0v219l714 1008h-678v233h1029v-209l-717 -1011h735v-240h-1083z" />
<glyph unicode="[" horiz-adv-x="675" d="M158 -377v1837h452v-153h-237v-1530h237v-154h-452z" />
<glyph unicode="\" horiz-adv-x="714" d="M567 -365l-551 1835h193l549 -1835h-191z" />
<glyph unicode="]" horiz-adv-x="675" d="M66 -377v154h237v1530h-237v153h452v-1837h-452z" />
<glyph unicode="^" d="M190 254l259 1003h262l243 -1003h-213l-166 801l-178 -801h-207z" />
<glyph unicode="_" horiz-adv-x="1024" d="M0 -283v162h1024v-162h-1024z" />
<glyph unicode="`" horiz-adv-x="704" d="M397 1214l-264 357h285l174 -357h-195z" />
<glyph unicode="a" horiz-adv-x="1107" d="M432 -20q-164 0 -264 85t-100 232q0 145 113.5 234.5t273.5 89.5h278v96q0 158 -201 157q-84 0 -136 -27.5t-52 -76.5v-37h-225v29q0 158 123 232.5t293 74.5q197 0 322.5 -78t125.5 -256v-510q0 -193 18 -225h-247q-2 10 -6 53l-5 43h-4q-66 -70 -133.5 -93t-173.5 -23z M500 176q137 0 185 55.5t48 155.5v51h-246q-176 0 -176 -129q1 -133 189 -133z" />
<glyph unicode="b" horiz-adv-x="1175" d="M647 -25q-168 0 -266 129h-6v-104h-240v1460h250v-532h2q104 141 289 141q180 0 297 -109.5t117 -304.5v-254q0 -203 -128.5 -314.5t-314.5 -111.5zM616 186q90 0 155 51.5t65 155.5v260q0 92 -63.5 146.5t-164.5 54.5q-88 0 -155.5 -58.5t-67.5 -164.5v-242 q0 -92 65.5 -147.5t165.5 -55.5z" />
<glyph unicode="c" horiz-adv-x="1077" d="M575 -25q-205 0 -347 114t-142 314v205q0 213 138 336t343 123q186 0 322.5 -107.5t136.5 -304.5v-20h-244v20q0 100 -64.5 150.5t-150.5 50.5q-90 0 -155.5 -53t-65.5 -162v-246q0 -98 63.5 -154.5t165.5 -56.5q86 0 146.5 50.5t60.5 150.5v10h244v-10 q0 -197 -132.5 -303.5t-318.5 -106.5z" />
<glyph unicode="d" horiz-adv-x="1175" d="M500 -25q-180 0 -297 110t-117 304v254q0 205 123 315.5t309 110.5q168 0 266 -129h7v520h249v-1460h-243v117h-2q-43 -59 -132 -100.5t-163 -41.5zM567 190q90 0 157 51.5t67 155.5v258q0 92 -66 147.5t-166 55.5q-90 0 -154.5 -51t-64.5 -156v-260q0 -92 63.5 -146.5 t163.5 -54.5z" />
<glyph unicode="e" horiz-adv-x="1110" d="M575 -25q-207 0 -348 112t-141 316v205q0 213 138 336t343 123q186 0 319.5 -107.5t133.5 -304.5v-202h-674v-58q0 -96 69.5 -153.5t172.5 -57.5q61 0 122.5 37t104.5 98l193 -110q-118 -234 -433 -234zM346 627h424v28q0 100 -58.5 150.5t-144.5 50.5q-90 0 -155.5 -53 t-65.5 -162v-14z" />
<glyph unicode="f" horiz-adv-x="647" d="M184 0v854h-149v195h149v135q0 307 303 307q59 0 125 -10v-215q-51 6 -94 6q-86 0 -86 -80v-143h180v-195h-180v-854h-248z" />
<glyph unicode="g" horiz-adv-x="1157" d="M528 -403q-139 0 -264 66.5t-162 186.5l238 84q70 -137 211 -137q113 0 174 65.5t61 178.5v111h-4q-100 -137 -280 -138q-195 0 -305.5 106.5t-110.5 305.5v201q0 207 115.5 324.5t296.5 117.5q88 0 166.5 -41t121.5 -104h5v125h237v-961q0 -205 -124 -348t-376 -143z M567 213q90 0 154.5 51t64.5 156v233q0 92 -63.5 146.5t-163.5 54.5q-90 0 -154.5 -51t-64.5 -156v-231q0 -92 64.5 -147.5t162.5 -55.5z" />
<glyph unicode="h" horiz-adv-x="1169" d="M135 0v1460h250v-540h6q104 150 289 149q176 0 271.5 -104.5t95.5 -292.5v-672h-250v608q0 242 -195 242q-217 0 -217 -262v-588h-250z" />
<glyph unicode="i" horiz-adv-x="520" d="M135 0v1049h250v-1049h-250zM135 1208v267h250v-267h-250z" />
<glyph unicode="j" horiz-adv-x="548" d="M61 -395q-33 0 -88 6v213q45 -4 72 -4q104 0 105 104v1125h249v-1139q0 -305 -338 -305zM152 1208v267h249v-267h-249z" />
<glyph unicode="k" horiz-adv-x="1118" d="M137 0v1460h250l2 -844l383 433h297l-375 -396l391 -653h-280l-281 479l-137 -147v-332h-250z" />
<glyph unicode="l" horiz-adv-x="630" d="M389 -14q-86 0 -142.5 30.5t-78 85t-27.5 91t-6 88.5v1179h250v-1177q0 -86 90 -86q25 0 115 8v-191q-107 -28 -201 -28z" />
<glyph unicode="m" horiz-adv-x="1800" d="M133 0v1049h242v-127h4q111 147 297 147q197 0 299 -156h2q121 156 323 156q158 0 262.5 -93t104.5 -276v-700h-250v610q0 240 -190 240q-100 0 -150.5 -67.5t-50.5 -178.5v-604h-250v606q0 244 -190 244q-78 0 -140.5 -57.5t-62.5 -176.5v-616h-250z" />
<glyph unicode="n" horiz-adv-x="1169" d="M135 0v1049h244v-129h4q104 150 297 149q176 0 271.5 -104.5t95.5 -292.5v-672h-250v608q0 242 -195 242q-217 0 -217 -262v-588h-250z" />
<glyph unicode="o" horiz-adv-x="1126" d="M567 -25q-201 0 -341 110t-140 302v240q0 203 143.5 321.5t329.5 118.5q199 0 340 -121t141 -315v-215q0 -203 -143.5 -322t-329.5 -119zM567 186q90 0 154.5 51.5t64.5 155.5v260q0 92 -63.5 146.5t-163.5 54.5q-90 0 -154.5 -51t-64.5 -156v-258q0 -92 64.5 -147.5 t162.5 -55.5z" />
<glyph unicode="p" horiz-adv-x="1175" d="M135 -395v1444h244v-121h2q119 141 295 141q180 0 297 -109.5t117 -304.5v-254q0 -205 -123 -315.5t-310 -110.5q-168 0 -266 129h-6v-499h-250zM616 186q90 0 155 51.5t65 155.5v260q0 92 -63.5 146.5t-164.5 54.5q-88 0 -155.5 -57.5t-67.5 -163.5v-244 q0 -92 65.5 -147.5t165.5 -55.5z" />
<glyph unicode="q" horiz-adv-x="1175" d="M797 -395v512h-2q-43 -59 -132.5 -100.5t-162.5 -41.5q-180 0 -297 110t-117 304v254q0 205 123 315.5t309 110.5q168 0 266 -129h7v111h249v-1446h-243zM567 190q90 0 157 51.5t67 155.5v258q0 92 -66 147.5t-166 55.5q-90 0 -154.5 -51t-64.5 -156v-260 q0 -92 63.5 -146.5t163.5 -54.5z" />
<glyph unicode="r" horiz-adv-x="833" d="M123 0v1049h244v-175h4q45 82 146 138.5t196 56.5q57 0 84 -6v-229q-33 6 -95 6q-145 0 -237 -81t-92 -222v-537h-250z" />
<glyph unicode="s" horiz-adv-x="1069" d="M535 -23q-332 0 -469 203l176 133q104 -137 288 -137q86 0 146.5 32t60.5 97q0 57 -41 81t-155 44l-138 25q-287 51 -286 272q0 158 120.5 251t294.5 93q291 0 412 -172l-180 -123q-88 102 -234 103q-78 0 -124 -30t-46 -87q0 -45 42 -64.5t133 -35.5q16 -2 24 -5 l158 -30q281 -55 280 -293q0 -168 -141 -262.5t-321 -94.5z" />
<glyph unicode="t" horiz-adv-x="679" d="M463 -16q-129 0 -211 65.5t-82 198.5v602h-141v199h141v317h250v-317h227v-199h-227v-543q0 -100 98 -100q68 0 129 10v-213q-80 -20 -184 -20z" />
<glyph unicode="u" horiz-adv-x="1157" d="M492 -20q-176 0 -272.5 106.5t-96.5 292.5v670h250v-609q0 -242 196 -241q215 0 215 264v586h250v-1049h-241v129h-7q-104 -149 -294 -149z" />
<glyph unicode="v" horiz-adv-x="1013" d="M385 -4l-373 1053h271l233 -730h4l234 730h247l-368 -1053h-248z" />
<glyph unicode="w" horiz-adv-x="1581" d="M346 -4l-334 1053h264l197 -727h4l207 727h217l207 -725h4l197 725h260l-332 -1053h-242l-202 723h-5l-198 -723h-244z" />
<glyph unicode="x" horiz-adv-x="1071" d="M25 0l368 545l-344 504h291l197 -306l194 306h287l-344 -502l373 -547h-291l-221 340l-222 -340h-288z" />
<glyph unicode="y" horiz-adv-x="1038" d="M240 -401q-59 0 -125 12v211q76 -10 118 -10q88 0 121 88l45 125l-387 1024h273l245 -717h5l235 717h256l-444 -1223q-82 -227 -342 -227z" />
<glyph unicode="z" horiz-adv-x="987" d="M57 0v193l535 655h-500v201h819v-193l-536 -647h555v-209h-873z" />
<glyph unicode="{" horiz-adv-x="675" d="M375 -377q-102 0 -159.5 66.5t-57.5 195.5v512q0 78 -18.5 106.5t-73.5 35.5v170q63 12 77.5 31.5t14.5 76.5v381q0 129 57 195.5t160 66.5h235v-153h-192q-45 0 -45 -47v-390q0 -100 -29 -156.5t-98 -82.5v-13q78 -31 102.5 -77.5t24.5 -157.5v-559q0 -47 45 -47h192 v-154h-235z" />
<glyph unicode="|" horiz-adv-x="667" d="M233 -109v1594h201v-1594h-201z" />
<glyph unicode="}" horiz-adv-x="675" d="M66 -377v154h192q45 0 45 47v559q0 111 24.5 158t102.5 77v13q-70 27 -98.5 83t-28.5 156v390q0 47 -45 47h-192v153h235q102 0 159.5 -66.5t57.5 -195.5v-381q0 -57 14.5 -76.5t77.5 -31.5v-170q-55 -6 -73.5 -35t-18.5 -107v-512q0 -129 -57.5 -195.5t-159.5 -66.5 h-235z" />
<glyph unicode="~" d="M174 498l-141 28q51 256 227 256q57 0 318.5 -30.5t316.5 -30.5q20 0 33.5 9t18.5 15.5t15.5 32t12.5 31.5l137 -27q-45 -258 -215 -258q-57 0 -321.5 30t-319.5 30q-27 0 -41 -15.5t-41 -70.5z" />
<glyph unicode="&#xa1;" horiz-adv-x="598" d="M162 -334v453l61 577h152l59 -577v-453h-272zM164 823v303h268v-303h-268z" />
<glyph unicode="&#xa2;" horiz-adv-x="1126" d="M489 -119v189q-156 25 -255 119t-99 251v326q0 166 98.5 267.5t255.5 125.5v197h211v-201q137 -25 226.5 -112t89.5 -234v-57h-238v39q0 82 -58 124.5t-134 42.5q-82 0 -143.5 -45t-61.5 -137v-325q0 -82 60.5 -130.5t152.5 -48.5q76 0 130 42t54 126v41h238v-57 q0 -152 -88 -240t-228 -112v-191h-211z" />
<glyph unicode="&#xa3;" horiz-adv-x="1226" d="M102 0v211h166v434h-139v162h139v266q0 111 39 194t104.5 129t141.5 67.5t162 21.5q178 0 293.5 -102.5t115.5 -282.5v-68h-254v70q0 74 -50 123t-130 49q-72 0 -120 -48t-48 -124v-295h400v-162h-400v-434h637l-49 -211h-1008z" />
<glyph unicode="&#xa4;" horiz-adv-x="1181" d="M219 252l-98 100l127 131q-72 106 -72 236q0 125 70 231l-125 131l98 99l127 -123q111 82 248 82q135 0 244 -82l123 123l100 -99l-123 -127q74 -106 74 -235q0 -131 -76 -240l125 -127l-100 -100l-127 125q-109 -76 -240 -76q-133 0 -244 78zM594 440q125 0 191.5 81 t66.5 198t-68.5 199.5t-189.5 82.5q-125 0 -191.5 -81.5t-66.5 -200.5q0 -115 69.5 -197t188.5 -82z" />
<glyph unicode="&#xa5;" horiz-adv-x="1245" d="M489 0v524h-409v174h397l-477 762h299l326 -545l323 545h297l-477 -762h397v-174h-411v-524h-265z" />
<glyph unicode="&#xa6;" horiz-adv-x="874" d="M362 -96v729h150v-729h-150zM362 784v676h150v-676h-150z" />
<glyph unicode="&#xa7;" horiz-adv-x="1130" d="M549 -182q-78 0 -147.5 16t-132 51t-100.5 99.5t-38 152.5v84h213v-49q0 -76 56.5 -120t162.5 -44q102 0 161.5 43t59.5 105q0 59 -38.5 88.5t-110.5 48.5l-203 57q-279 84 -278 305q0 166 135 254q-137 84 -137 240q0 152 110.5 243t308.5 91q190 0 301 -84t111 -240 v-76h-207v66q0 61 -57 102t-158 41q-86 0 -138 -33.5t-52 -97.5q0 -66 143 -112l217 -76q61 -25 100 -44.5t82 -53t64.5 -82t21.5 -111.5q0 -172 -129 -258q133 -78 134 -242q0 -158 -122 -261t-333 -103zM670 516q113 39 112 129q0 72 -118 111l-175 53q-117 -37 -116 -141 q0 -66 153 -111z" />
<glyph unicode="&#xa8;" horiz-adv-x="1036" d="M190 1208v269h244v-269h-244zM600 1208v269h244v-269h-244z" />
<glyph unicode="&#xa9;" horiz-adv-x="1878" d="M940 164q-180 0 -300 95t-120 282v325q0 182 120 285.5t302 103.5q176 0 295 -89t119 -261v-69h-226v47q0 176 -186 176q-90 0 -138 -52.5t-48 -140.5v-321q0 -88 48 -137.5t140 -49.5q86 0 136.5 45.5t50.5 122.5v56h223v-60q0 -174 -121 -266t-295 -92zM936 -127 q-379 0 -602 240.5t-223 597.5q0 348 232 589.5t593 241.5q373 0 602 -239.5t229 -591.5q0 -350 -232 -594t-599 -244zM936 -2q281 0 478.5 197.5t197.5 515t-197.5 514t-478.5 196.5q-287 0 -478.5 -194.5t-191.5 -516t194.5 -517t475.5 -195.5z" />
<glyph unicode="&#xaa;" horiz-adv-x="858" d="M350 741q-100 0 -169.5 51.5t-69.5 149.5q0 238 350 238h86v63q0 53 -31 83t-86 30q-53 0 -87 -26.5t-34 -69.5v-31h-166v35q0 109 87 166t216 57q121 0 203 -59.5t82 -178.5v-334q0 -59 10 -157h-176l-6 78q-78 -95 -209 -95zM406 879q49 0 92 28.5t43 79.5v84h-80 q-37 0 -59.5 -3t-49 -12t-40 -32t-13.5 -57q1 -88 107 -88zM145 467v162h588v-162h-588z" />
<glyph unicode="&#xab;" horiz-adv-x="1193" d="M510 131l-428 414l428 418l123 -113l-250 -305l252 -305zM1001 131l-428 414l426 418l125 -113l-250 -305l252 -305z" />
<glyph unicode="&#xac;" horiz-adv-x="1380" d="M1044 211v395h-925v168h1116v-563h-191z" />
<glyph unicode="&#xad;" horiz-adv-x="743" d="M76 502v213h592v-213h-592z" />
<glyph unicode="&#xae;" horiz-adv-x="999" d="M324 844v473h208q74 0 123.5 -39t49.5 -109q0 -102 -91 -139l107 -186h-127l-94 170h-58v-170h-118zM498 633q-197 0 -314.5 126t-117.5 310q0 182 122.5 309t309.5 127q195 0 315.5 -126t120.5 -310q0 -180 -123 -308t-313 -128zM497.5 723q135.5 0 232.5 95t97 251 q0 158 -95 255t-234.5 97t-232.5 -96t-93 -256q0 -158 95 -252t230.5 -94zM442 1100h74q33 0 51.5 16.5t18.5 44.5q0 63 -70 64h-74v-125z" />
<glyph unicode="&#xaf;" horiz-adv-x="833" d="M133 1225v209h567v-209h-567z" />
<glyph unicode="&#xb0;" horiz-adv-x="708" d="M354 1036q-106 0 -173.5 66.5t-67.5 163t69.5 167t171.5 70.5q104 0 173 -67.5t69 -163.5q0 -98 -71 -167t-171 -69zM354 1149q47 0 82 34t35 83q0 51 -32.5 88t-84.5 37q-49 0 -80.5 -36t-31.5 -89q0 -49 32.5 -83t79.5 -34z" />
<glyph unicode="&#xb1;" d="M66 0v168h1015v-168h-1015zM487 293v440h-438v168h438v442h172v-442h439v-168h-439v-440h-172z" />
<glyph unicode="&#xb2;" horiz-adv-x="714" d="M90 778v131l297 334q55 59 55 125v6q0 84 -92 84q-45 0 -67.5 -27.5t-22.5 -70.5v-25h-184v41q0 113 81 174.5t210 61.5q131 0 201.5 -66.5t70.5 -175.5q0 -29 -6 -56.5t-22 -57.5l-25 -49q-10 -19 -38 -51l-37 -43q-9 -11 -43 -46t-38 -41l-78 -84v-4h293v-160h-555z " />
<glyph unicode="&#xb3;" horiz-adv-x="727" d="M350 754q-137 0 -208.5 59t-71.5 166v29h188v-23q0 -78 104 -78q43 0 69 28t26 77q0 53 -37 74.5t-78 21.5h-70v141h68q106 0 106 99q0 45 -27.5 68.5t-64.5 23.5q-92 0 -92 -82v-17h-186v29q0 102 76.5 165.5t205.5 63.5q133 0 206 -63t73 -162q0 -68 -33 -117t-88 -67 v-4q63 -18 104.5 -67.5t41.5 -121.5q0 -123 -93.5 -183t-218.5 -60z" />
<glyph unicode="&#xb4;" horiz-adv-x="704" d="M113 1214l174 357h284l-264 -357h-194z" />
<glyph unicode="&#xb5;" horiz-adv-x="1167" d="M123 -365v1414h248v-658q0 -78 54 -135t144 -57q76 0 145.5 57t69.5 145v648h250v-684q0 -33 2 -47.5t17.5 -32t48.5 -17.5v-276q-127 -2 -190.5 53t-80.5 131q-82 -201 -268 -201q-72 0 -131 35t-90 96l-16 -6l51 -448z" />
<glyph unicode="&#xb6;" horiz-adv-x="1271" d="M526 -184v643q-197 16 -292 155.5t-95 340t117 353t297 152.5h614v-143h-108v-1501h-168v1501h-199v-1501h-166z" />
<glyph unicode="&#xb7;" horiz-adv-x="532" d="M133 639v305h268v-305h-268z" />
<glyph unicode="&#x22c5;" horiz-adv-x="532" d="M133 639v305h268v-305h-268z" />
<glyph unicode="&#xb8;" horiz-adv-x="604" d="M270 -444q-100 0 -200 38v127q113 -39 176 -38q61 0 88.5 16t27.5 57q0 20 -12 31.5t-41.5 17t-44 6.5t-53.5 3l-49 2l45 254h119l-27 -140q260 -4 260 -174q0 -86 -78 -143t-211 -57z" />
<glyph unicode="&#xb9;" horiz-adv-x="661" d="M90 778v137h156v500l-150 -12l-12 133l268 57h92v-678h142v-137h-496z" />
<glyph unicode="&#xba;" horiz-adv-x="870" d="M434 737q-145 0 -232 74t-87 223v160q0 145 90 225t229 80q143 0 232.5 -76.5t89.5 -226.5v-160q0 -145 -92.5 -222t-229.5 -77zM434 881q129 0 129 153v170q0 150 -125 150q-131 0 -131 -156v-168q0 -149 127 -149zM145 467v162h588v-162h-588z" />
<glyph unicode="&#xbb;" horiz-adv-x="1193" d="M195 131l-125 113l249 305l-251 305l125 109l428 -414zM684 131l-123 113l250 305l-252 305l125 109l428 -414z" />
<glyph unicode="&#xbc;" horiz-adv-x="1765" d="M90 645v137h156v500l-150 -12l-12 133l268 57h92v-678h142v-137h-496zM367 -4l796 1464h168l-796 -1464h-168zM1356 0v178h-350v146l301 495h219l-316 -487h146v100l188 121v-221h86v-154h-86v-178h-188z" />
<glyph unicode="&#xbd;" horiz-adv-x="1765" d="M90 645v137h156v500l-150 -12l-12 133l268 57h92v-678h142v-137h-496zM367 -4l796 1464h168l-796 -1464h-168zM1079 0v131l297 334q55 59 56 125v6q0 84 -93 84q-45 0 -67.5 -27.5t-22.5 -70.5v-25h-184v41q0 113 81 174.5t210 61.5q131 0 201.5 -67t70.5 -175 q0 -29 -6 -56.5t-21 -57.5l-26 -49q-10 -19 -38 -51l-37 -43q-9 -11 -43 -46t-38 -41l-78 -84v-4h293v-160h-555z" />
<glyph unicode="&#xbe;" horiz-adv-x="1765" d="M350 621q-137 0 -208.5 59t-71.5 166v28h188v-22q0 -78 104 -78q43 0 69 27.5t26 77.5q0 53 -37 74.5t-78 21.5h-70v141h68q106 0 106 98q0 45 -27.5 69t-64.5 24q-92 0 -92 -82v-17h-186v29q0 102 76.5 165.5t205.5 63.5q133 0 206 -63.5t73 -161.5q0 -68 -33 -117 t-88 -67v-4q63 -18 104.5 -67.5t41.5 -121.5q0 -123 -93.5 -183t-218.5 -60zM401 -4l797 1464h168l-797 -1464h-168zM1356 0v178h-350v146l301 495h219l-316 -487h146v100l188 121v-221h86v-154h-86v-178h-188z" />
<glyph unicode="&#xbf;" horiz-adv-x="1099" d="M537 -354q-203 0 -318 106.5t-115 290.5q0 47 14.5 93t27 74t53.5 74t53 58t71.5 65.5t63.5 57.5q88 72 88 156v94h230v-94q0 -78 -27 -133.5t-84 -112.5q-20 -20 -73.5 -66.5t-81 -75t-54.5 -76.5t-27 -100q0 -88 54.5 -145t142.5 -57q86 0 152.5 42t66.5 130v86h232 v-88q0 -184 -137 -281.5t-332 -97.5zM459 823v303h268v-303h-268z" />
<glyph unicode="&#xc0;" horiz-adv-x="1376" d="M23 0l542 1462h250l539 -1462h-289l-107 311h-557l-110 -311h-268zM477 545h404l-199 585h-4zM594 1597l-264 357h284l174 -357h-194z" />
<glyph unicode="&#xc1;" horiz-adv-x="1376" d="M23 0l542 1462h250l539 -1462h-289l-107 311h-557l-110 -311h-268zM477 545h404l-199 585h-4zM594 1597l174 357h285l-265 -357h-194z" />
<glyph unicode="&#xc2;" horiz-adv-x="1376" d="M23 0l542 1462h250l539 -1462h-289l-107 311h-557l-110 -311h-268zM477 545h404l-199 585h-4zM352 1599l223 357h234l215 -357h-233l-99 205l-110 -205h-230z" />
<glyph unicode="&#xc3;" horiz-adv-x="1376" d="M23 0l542 1462h250l539 -1462h-289l-107 311h-557l-110 -311h-268zM477 545h404l-199 585h-4zM438 1583l-162 35q23 121 86.5 193.5t163.5 72.5q59 0 167 -31.5t165 -31.5q37 0 53.5 23.5t28.5 68.5l158 -35q-20 -121 -81 -193.5t-157 -72.5q-59 0 -169.5 31.5 t-168.5 31.5q-27 0 -43 -16.5t-41 -75.5z" />
<glyph unicode="&#xc4;" horiz-adv-x="1376" d="M23 0l542 1462h250l539 -1462h-289l-107 311h-557l-110 -311h-268zM477 545h404l-199 585h-4zM360 1591v269h244v-269h-244zM770 1591v269h244v-269h-244z" />
<glyph unicode="&#xc5;" horiz-adv-x="1376" d="M23 0l542 1462h250l539 -1462h-289l-107 311h-557l-110 -311h-268zM477 545h404l-199 585h-4zM686 1579q-98 0 -155.5 55.5t-57.5 141.5t61.5 146t151.5 60q96 0 155.5 -53t59.5 -141t-63.5 -148.5t-151.5 -60.5zM686 1683q39 0 66.5 28t27.5 69t-24.5 69.5t-69.5 28.5 q-41 0 -66.5 -28.5t-25.5 -69.5t26.5 -69t65.5 -28z" />
<glyph unicode="&#xc6;" horiz-adv-x="2097" d="M25 0l786 1460h1167v-239h-741v-357h657v-239h-657v-385h750v-240h-1020v356h-463l-195 -356h-284zM610 584h357v661z" />
<glyph unicode="&#xc7;" horiz-adv-x="1351" d="M690 -444q-100 0 -201 38v127q113 -39 177 -38q61 0 88.5 16t27.5 57q0 20 -12 31.5t-42 17t-44 6.5t-53 3l-49 2l28 166q-217 25 -358 154.5t-141 342.5v467q0 250 166.5 394.5t416.5 144.5q227 0 392 -126t165 -355v-46h-258v21q0 131 -91 197.5t-208 66.5 q-123 0 -218 -69.5t-95 -212.5v-467q0 -127 94 -202t230 -75q115 0 201.5 66.5t86.5 197.5v21h258v-45q0 -225 -152.5 -350t-371.5 -132l-8 -45q260 -4 260 -174q0 -86 -78 -143t-211 -57z" />
<glyph unicode="&#xc8;" horiz-adv-x="1280" d="M147 0v1460h1014v-239h-741v-357h657v-239h-657v-385h749v-240h-1022zM606 1597l-264 357h285l174 -357h-195z" />
<glyph unicode="&#xc9;" horiz-adv-x="1280" d="M147 0v1460h1014v-239h-741v-357h657v-239h-657v-385h749v-240h-1022zM543 1597l174 357h284l-264 -357h-194z" />
<glyph unicode="&#xca;" horiz-adv-x="1280" d="M147 0v1460h1014v-239h-741v-357h657v-239h-657v-385h749v-240h-1022zM303 1599l223 357h234l215 -357h-234l-98 205l-111 -205h-229z" />
<glyph unicode="&#xcb;" horiz-adv-x="1280" d="M147 0v1460h1014v-239h-741v-357h657v-239h-657v-385h749v-240h-1022zM354 1591v269h244v-269h-244zM764 1591v269h244v-269h-244z" />
<glyph unicode="&#xcc;" horiz-adv-x="567" d="M147 0v1460h273v-1460h-273zM180 1597l-264 357h285l174 -357h-195z" />
<glyph unicode="&#xcd;" horiz-adv-x="567" d="M147 0v1460h273v-1460h-273zM190 1597l175 357h284l-264 -357h-195z" />
<glyph unicode="&#xce;" horiz-adv-x="567" d="M147 0v1460h273v-1460h-273zM-51 1599l223 357h234l215 -357h-234l-98 205l-111 -205h-229z" />
<glyph unicode="&#xcf;" horiz-adv-x="567" d="M147 0v1460h273v-1460h-273zM-43 1591v269h244v-269h-244zM367 1591v269h243v-269h-243z" />
<glyph unicode="&#xd0;" horiz-adv-x="1437" d="M55 647v187h127v626h570q244 0 409.5 -146.5t165.5 -385.5v-389q0 -248 -171 -393.5t-402 -145.5h-572v647h-127zM455 240h288q123 0 218.5 69.5t95.5 212.5v422q0 127 -94.5 202t-229.5 75h-278v-387h342v-187h-342v-407z" />
<glyph unicode="&#xd1;" horiz-adv-x="1460" d="M147 0v1460h265l635 -995h4v995h262v-1460h-266l-633 997h-4v-997h-263zM481 1583l-162 35q23 121 86.5 193.5t163.5 72.5q59 0 167 -31.5t165 -31.5q37 0 53.5 23.5t28.5 68.5l158 -35q-20 -121 -81 -193.5t-157 -72.5q-59 0 -169.5 31.5t-168.5 31.5q-27 0 -43 -16.5 t-41 -75.5z" />
<glyph unicode="&#xd2;" horiz-adv-x="1398" d="M705 -25q-250 0 -422 134.5t-172 369.5v467q0 246 175 392.5t408 146.5q246 0 420 -147.5t174 -385.5v-438q0 -246 -175 -392.5t-408 -146.5zM705 217q123 0 218 69.5t95 213.5v467q0 127 -94.5 201.5t-229.5 74.5q-123 0 -218 -69.5t-95 -212.5v-467q0 -127 94.5 -202 t229.5 -75zM635 1597l-264 357h284l174 -357h-194z" />
<glyph unicode="&#xd3;" horiz-adv-x="1398" d="M705 -25q-250 0 -422 134.5t-172 369.5v467q0 246 175 392.5t408 146.5q246 0 420 -147.5t174 -385.5v-438q0 -246 -175 -392.5t-408 -146.5zM705 217q123 0 218 69.5t95 213.5v467q0 127 -94.5 201.5t-229.5 74.5q-123 0 -218 -69.5t-95 -212.5v-467q0 -127 94.5 -202 t229.5 -75zM592 1597l174 357h285l-265 -357h-194z" />
<glyph unicode="&#xd4;" horiz-adv-x="1398" d="M705 -25q-250 0 -422 134.5t-172 369.5v467q0 246 175 392.5t408 146.5q246 0 420 -147.5t174 -385.5v-438q0 -246 -175 -392.5t-408 -146.5zM705 217q123 0 218 69.5t95 213.5v467q0 127 -94.5 201.5t-229.5 74.5q-123 0 -218 -69.5t-95 -212.5v-467q0 -127 94.5 -202 t229.5 -75zM362 1599l224 357h233l215 -357h-233l-99 205l-110 -205h-230z" />
<glyph unicode="&#xd5;" horiz-adv-x="1398" d="M705 -25q-250 0 -422 134.5t-172 369.5v467q0 246 175 392.5t408 146.5q246 0 420 -147.5t174 -385.5v-438q0 -246 -175 -392.5t-408 -146.5zM705 217q123 0 218 69.5t95 213.5v467q0 127 -94.5 201.5t-229.5 74.5q-123 0 -218 -69.5t-95 -212.5v-467q0 -127 94.5 -202 t229.5 -75zM451 1583l-162 35q23 121 86 193.5t164 72.5q59 0 166.5 -31.5t164.5 -31.5q37 0 53.5 23.5t28.5 68.5l158 -35q-20 -121 -80.5 -193.5t-157.5 -72.5q-59 0 -169.5 31.5t-167.5 31.5q-27 0 -43 -16.5t-41 -75.5z" />
<glyph unicode="&#xd6;" horiz-adv-x="1398" d="M705 -25q-250 0 -422 134.5t-172 369.5v467q0 246 175 392.5t408 146.5q246 0 420 -147.5t174 -385.5v-438q0 -246 -175 -392.5t-408 -146.5zM705 217q123 0 218 69.5t95 213.5v467q0 127 -94.5 201.5t-229.5 74.5q-123 0 -218 -69.5t-95 -212.5v-467q0 -127 94.5 -202 t229.5 -75zM373 1591v269h243v-269h-243zM782 1591v269h244v-269h-244z" />
<glyph unicode="&#xd7;" d="M209 168l-119 119l363 366l-363 369l121 123l362 -371l361 369l119 -121l-361 -365l377 -356l-125 -127l-375 361z" />
<glyph unicode="&#xd8;" horiz-adv-x="1398" d="M279 -123l-123 82l106 166q-152 135 -151 354v467q0 246 175 392.5t408 146.5q211 0 373 -113l115 176l123 -82l-127 -196q111 -133 110 -318v-438q0 -246 -175 -392.5t-408 -146.5q-172 0 -318 68zM381 494q0 -74 35 -134l516 801q-94 82 -238 82q-123 0 -218 -69.5 t-95 -212.5v-467zM705 217q123 0 218 69.5t95 213.5v467q0 16 -4 49l-490 -758q77 -41 181 -41z" />
<glyph unicode="&#xd9;" horiz-adv-x="1417" d="M709 -23q-262 0 -417 135.5t-155 391.5v956h273v-923q0 -143 73.5 -228.5t225.5 -85.5q299 0 299 314v923h272v-936q0 -258 -155.5 -402.5t-415.5 -144.5zM651 1597l-264 357h285l174 -357h-195z" />
<glyph unicode="&#xda;" horiz-adv-x="1417" d="M709 -23q-262 0 -417 135.5t-155 391.5v956h273v-923q0 -143 73.5 -228.5t225.5 -85.5q299 0 299 314v923h272v-936q0 -258 -155.5 -402.5t-415.5 -144.5zM616 1597l175 357h284l-264 -357h-195z" />
<glyph unicode="&#xdb;" horiz-adv-x="1417" d="M709 -23q-262 0 -417 135.5t-155 391.5v956h273v-923q0 -143 73.5 -228.5t225.5 -85.5q299 0 299 314v923h272v-936q0 -258 -155.5 -402.5t-415.5 -144.5zM373 1599l223 357h233l215 -357h-233l-98 205l-111 -205h-229z" />
<glyph unicode="&#xdc;" horiz-adv-x="1417" d="M709 -23q-262 0 -417 135.5t-155 391.5v956h273v-923q0 -143 73.5 -228.5t225.5 -85.5q299 0 299 314v923h272v-936q0 -258 -155.5 -402.5t-415.5 -144.5zM414 1591v269h243v-269h-243zM823 1591v269h244v-269h-244z" />
<glyph unicode="&#xdd;" horiz-adv-x="1245" d="M489 0v586l-489 874h305l326 -612l323 612h291l-491 -878v-582h-265zM520 1597l174 357h285l-264 -357h-195z" />
<glyph unicode="&#xde;" horiz-adv-x="1290" d="M147 0v1460h273v-239h321q219 0 357.5 -121t138.5 -338q0 -184 -124 -319.5t-357 -135.5h-336v-307h-273zM420 537h289q121 0 191.5 58t70.5 169q0 227 -266 227h-285v-454z" />
<glyph unicode="&#xdf;" horiz-adv-x="1314" d="M807 -25q-164 0 -264 37l37 219q98 -31 188 -30q213 0 213 196q0 86 -53.5 140.5t-124 73t-158.5 18.5v186h60q78 31 131 110t53 162q0 186 -223 187q-113 0 -173.5 -63.5t-60.5 -153.5v-1057h-264v854h-133v195h133v8q0 186 135 310t375 124q229 0 350 -102.5 t121 -280.5q0 -109 -58.5 -200t-156.5 -130v-8q164 -51 239.5 -153.5t75.5 -233.5q0 -178 -132 -295t-310 -113z" />
<glyph unicode="&#xe0;" horiz-adv-x="1107" d="M432 -20q-164 0 -264 85t-100 232q0 145 113.5 234.5t273.5 89.5h278v96q0 158 -201 157q-84 0 -136 -27.5t-52 -76.5v-37h-225v29q0 158 123 232.5t293 74.5q197 0 322.5 -78t125.5 -256v-510q0 -193 18 -225h-247q-2 10 -6 53l-5 43h-4q-66 -70 -133.5 -93t-173.5 -23z M500 176q137 0 185 55.5t48 155.5v51h-246q-176 0 -176 -129q1 -133 189 -133zM512 1214l-264 357h284l175 -357h-195z" />
<glyph unicode="&#xe1;" horiz-adv-x="1107" d="M432 -20q-164 0 -264 85t-100 232q0 145 113.5 234.5t273.5 89.5h278v96q0 158 -201 157q-84 0 -136 -27.5t-52 -76.5v-37h-225v29q0 158 123 232.5t293 74.5q197 0 322.5 -78t125.5 -256v-510q0 -193 18 -225h-247q-2 10 -6 53l-5 43h-4q-66 -70 -133.5 -93t-173.5 -23z M500 176q137 0 185 55.5t48 155.5v51h-246q-176 0 -176 -129q1 -133 189 -133zM436 1214l174 357h285l-264 -357h-195z" />
<glyph unicode="&#xe2;" horiz-adv-x="1107" d="M432 -20q-164 0 -264 85t-100 232q0 145 113.5 234.5t273.5 89.5h278v96q0 158 -201 157q-84 0 -136 -27.5t-52 -76.5v-37h-225v29q0 158 123 232.5t293 74.5q197 0 322.5 -78t125.5 -256v-510q0 -193 18 -225h-247q-2 10 -6 53l-5 43h-4q-66 -70 -133.5 -93t-173.5 -23z M500 176q137 0 185 55.5t48 155.5v51h-246q-176 0 -176 -129q1 -133 189 -133zM217 1217l223 356h234l215 -356h-234l-98 204l-111 -204h-229z" />
<glyph unicode="&#xe3;" horiz-adv-x="1107" d="M432 -20q-164 0 -264 85t-100 232q0 145 113.5 234.5t273.5 89.5h278v96q0 158 -201 157q-84 0 -136 -27.5t-52 -76.5v-37h-225v29q0 158 123 232.5t293 74.5q197 0 322.5 -78t125.5 -256v-510q0 -193 18 -225h-247q-2 10 -6 53l-5 43h-4q-66 -70 -133.5 -93t-173.5 -23z M500 176q137 0 185 55.5t48 155.5v51h-246q-176 0 -176 -129q1 -133 189 -133zM305 1200l-162 35q23 121 86.5 193.5t163.5 72.5q59 0 167 -31.5t165 -31.5q37 0 53.5 23.5t28.5 68.5l158 -35q-20 -121 -81 -193.5t-157 -72.5q-59 0 -170 31.5t-168 31.5q-27 0 -43 -16.5 t-41 -75.5z" />
<glyph unicode="&#xe4;" horiz-adv-x="1107" d="M432 -20q-164 0 -264 85t-100 232q0 145 113.5 234.5t273.5 89.5h278v96q0 158 -201 157q-84 0 -136 -27.5t-52 -76.5v-37h-225v29q0 158 123 232.5t293 74.5q197 0 322.5 -78t125.5 -256v-510q0 -193 18 -225h-247q-2 10 -6 53l-5 43h-4q-66 -70 -133.5 -93t-173.5 -23z M500 176q137 0 185 55.5t48 155.5v51h-246q-176 0 -176 -129q1 -133 189 -133zM227 1208v269h244v-269h-244zM637 1208v269h244v-269h-244z" />
<glyph unicode="&#xe5;" horiz-adv-x="1107" d="M432 -20q-164 0 -264 85t-100 232q0 145 113.5 234.5t273.5 89.5h278v96q0 158 -201 157q-84 0 -136 -27.5t-52 -76.5v-37h-225v29q0 158 123 232.5t293 74.5q197 0 322.5 -78t125.5 -256v-510q0 -193 18 -225h-247q-2 10 -6 53l-5 43h-4q-66 -70 -133.5 -93t-173.5 -23z M500 176q137 0 185 55.5t48 155.5v51h-246q-176 0 -176 -129q1 -133 189 -133zM553 1196q-98 0 -155.5 55.5t-57.5 141.5t61.5 146t151.5 60q96 0 155.5 -53t59.5 -141t-63.5 -148.5t-151.5 -60.5zM553 1300q39 0 66.5 28t27.5 69t-24.5 69.5t-69.5 28.5q-41 0 -66.5 -28.5 t-25.5 -69.5t26.5 -69t65.5 -28z" />
<glyph unicode="&#xe6;" horiz-adv-x="1755" d="M1221 -25q-285 0 -414 187q-115 -182 -375 -182q-164 0 -264 85t-100 232q0 145 113.5 234.5t273.5 89.5h278v96q0 158 -201 157q-84 0 -136 -27.5t-52 -76.5v-37h-225v29q0 158 123 232.5t293 74.5q244 0 358 -106q133 104 319.5 104t319.5 -107.5t133 -304.5v-202h-674 v-58q0 -96 69.5 -153.5t172.5 -57.5q61 0 122.5 37t104.5 98l199 -112q-131 -232 -438 -232zM500 176q137 0 185 55.5t48 155.5v51h-246q-176 0 -176 -129q1 -133 189 -133zM991 627h424v28q0 100 -58.5 150.5t-144.5 50.5q-90 0 -155.5 -53t-65.5 -162v-14z" />
<glyph unicode="&#xe7;" horiz-adv-x="1077" d="M565 -444q-100 0 -200 38v127q113 -39 176 -38q61 0 88.5 16t27.5 57q0 20 -12 31.5t-42 17t-44 6.5t-53 3l-49 2l28 166q-174 25 -286.5 135t-112.5 286v205q0 213 138 336t343 123q186 0 322.5 -107.5t136.5 -304.5v-20h-244v20q0 100 -64.5 150.5t-150.5 50.5 q-90 0 -155.5 -53t-65.5 -162v-246q0 -98 63.5 -154.5t165.5 -56.5q86 0 146.5 50.5t60.5 150.5v10h244v-10q0 -190 -123 -294.5t-301 -113.5l-8 -47q260 -4 260 -174q0 -86 -78 -143t-211 -57z" />
<glyph unicode="&#xe8;" horiz-adv-x="1110" d="M575 -25q-207 0 -348 112t-141 316v205q0 213 138 336t343 123q186 0 319.5 -107.5t133.5 -304.5v-202h-674v-58q0 -96 69.5 -153.5t172.5 -57.5q61 0 122.5 37t104.5 98l193 -110q-118 -234 -433 -234zM346 627h424v28q0 100 -58.5 150.5t-144.5 50.5q-90 0 -155.5 -53 t-65.5 -162v-14zM510 1214l-264 357h284l175 -357h-195z" />
<glyph unicode="&#xe9;" horiz-adv-x="1110" d="M575 -25q-207 0 -348 112t-141 316v205q0 213 138 336t343 123q186 0 319.5 -107.5t133.5 -304.5v-202h-674v-58q0 -96 69.5 -153.5t172.5 -57.5q61 0 122.5 37t104.5 98l193 -110q-118 -234 -433 -234zM346 627h424v28q0 100 -58.5 150.5t-144.5 50.5q-90 0 -155.5 -53 t-65.5 -162v-14zM461 1214l174 357h285l-265 -357h-194z" />
<glyph unicode="&#xea;" horiz-adv-x="1110" d="M575 -25q-207 0 -348 112t-141 316v205q0 213 138 336t343 123q186 0 319.5 -107.5t133.5 -304.5v-202h-674v-58q0 -96 69.5 -153.5t172.5 -57.5q61 0 122.5 37t104.5 98l193 -110q-118 -234 -433 -234zM346 627h424v28q0 100 -58.5 150.5t-144.5 50.5q-90 0 -155.5 -53 t-65.5 -162v-14zM219 1217l223 356h234l215 -356h-234l-98 204l-110 -204h-230z" />
<glyph unicode="&#xeb;" horiz-adv-x="1110" d="M575 -25q-207 0 -348 112t-141 316v205q0 213 138 336t343 123q186 0 319.5 -107.5t133.5 -304.5v-202h-674v-58q0 -96 69.5 -153.5t172.5 -57.5q61 0 122.5 37t104.5 98l193 -110q-118 -234 -433 -234zM346 627h424v28q0 100 -58.5 150.5t-144.5 50.5q-90 0 -155.5 -53 t-65.5 -162v-14zM227 1208v269h244v-269h-244zM637 1208v269h244v-269h-244z" />
<glyph unicode="&#xec;" horiz-adv-x="520" d="M135 0v1049h250v-1049h-250zM170 1214l-264 357h284l175 -357h-195z" />
<glyph unicode="&#xed;" horiz-adv-x="520" d="M135 0v1049h250v-1049h-250zM160 1214l174 357h284l-264 -357h-194z" />
<glyph unicode="&#xee;" horiz-adv-x="520" d="M135 0v1049h250v-1049h-250zM-76 1217l223 356h234l215 -356h-234l-98 204l-110 -204h-230z" />
<glyph unicode="&#xef;" horiz-adv-x="520" d="M135 0v1049h250v-1049h-250zM-66 1208v269h244v-269h-244zM344 1208v269h244v-269h-244z" />
<glyph unicode="&#xf0;" horiz-adv-x="1118" d="M557 -25q-205 0 -338 107.5t-133 312.5v238q0 195 120 308.5t304 131.5q20 2 49 2l-67 109l-220 -58l-73 152l198 55l-80 125l248 68l82 -131l217 53l74 -152l-199 -53l242 -387q51 -82 51 -217v-227q0 -207 -140 -322t-335 -115zM557 184q98 0 157.5 58.5t59.5 163.5 v249q0 98 -58.5 158.5t-158.5 60.5q-98 0 -155.5 -59t-57.5 -166v-246q0 -100 54.5 -159.5t158.5 -59.5z" />
<glyph unicode="&#xf1;" horiz-adv-x="1169" d="M135 0v1049h244v-129h4q104 150 297 149q176 0 271.5 -104.5t95.5 -292.5v-672h-250v608q0 242 -195 242q-217 0 -217 -262v-588h-250zM356 1200l-161 35q23 121 86 193.5t163 72.5q59 0 167 -31.5t165 -31.5q37 0 53.5 23.5t28.5 68.5l158 -35q-20 -121 -81 -193.5 t-157 -72.5q-59 0 -169.5 31.5t-168.5 31.5q-27 0 -43 -16.5t-41 -75.5z" />
<glyph unicode="&#xf2;" horiz-adv-x="1126" d="M567 -25q-201 0 -341 110t-140 302v240q0 203 143.5 321.5t329.5 118.5q199 0 340 -121t141 -315v-215q0 -203 -143.5 -322t-329.5 -119zM567 186q90 0 154.5 51.5t64.5 155.5v260q0 92 -63.5 146.5t-163.5 54.5q-90 0 -154.5 -51t-64.5 -156v-258q0 -92 64.5 -147.5 t162.5 -55.5zM498 1214l-265 357h285l174 -357h-194z" />
<glyph unicode="&#xf3;" horiz-adv-x="1126" d="M567 -25q-201 0 -341 110t-140 302v240q0 203 143.5 321.5t329.5 118.5q199 0 340 -121t141 -315v-215q0 -203 -143.5 -322t-329.5 -119zM567 186q90 0 154.5 51.5t64.5 155.5v260q0 92 -63.5 146.5t-163.5 54.5q-90 0 -154.5 -51t-64.5 -156v-258q0 -92 64.5 -147.5 t162.5 -55.5zM446 1214l175 357h284l-264 -357h-195z" />
<glyph unicode="&#xf4;" horiz-adv-x="1126" d="M567 -25q-201 0 -341 110t-140 302v240q0 203 143.5 321.5t329.5 118.5q199 0 340 -121t141 -315v-215q0 -203 -143.5 -322t-329.5 -119zM567 186q90 0 154.5 51.5t64.5 155.5v260q0 92 -63.5 146.5t-163.5 54.5q-90 0 -154.5 -51t-64.5 -156v-258q0 -92 64.5 -147.5 t162.5 -55.5zM227 1217l224 356h233l215 -356h-233l-99 204l-110 -204h-230z" />
<glyph unicode="&#xf5;" horiz-adv-x="1126" d="M567 -25q-201 0 -341 110t-140 302v240q0 203 143.5 321.5t329.5 118.5q199 0 340 -121t141 -315v-215q0 -203 -143.5 -322t-329.5 -119zM567 186q90 0 154.5 51.5t64.5 155.5v260q0 92 -63.5 146.5t-163.5 54.5q-90 0 -154.5 -51t-64.5 -156v-258q0 -92 64.5 -147.5 t162.5 -55.5zM313 1200l-161 35q23 121 86 193.5t163 72.5q59 0 167 -31.5t165 -31.5q37 0 53.5 23.5t28.5 68.5l158 -35q-20 -121 -81 -193.5t-157 -72.5q-59 0 -169.5 31.5t-168.5 31.5q-27 0 -43 -16.5t-41 -75.5z" />
<glyph unicode="&#xf6;" horiz-adv-x="1126" d="M567 -25q-201 0 -341 110t-140 302v240q0 203 143.5 321.5t329.5 118.5q199 0 340 -121t141 -315v-215q0 -203 -143.5 -322t-329.5 -119zM567 186q90 0 154.5 51.5t64.5 155.5v260q0 92 -63.5 146.5t-163.5 54.5q-90 0 -154.5 -51t-64.5 -156v-258q0 -92 64.5 -147.5 t162.5 -55.5zM236 1208v269h243v-269h-243zM645 1208v269h244v-269h-244z" />
<glyph unicode="&#xf7;" d="M444 125v258h256v-258h-256zM70 565v168h1007v-168h-1007zM444 907v260h256v-260h-256z" />
<glyph unicode="&#xf8;" horiz-adv-x="1126" d="M305 -154l-119 58l78 151q-178 117 -178 332v240q0 203 143.5 321.5t329.5 118.5q104 0 203 -39l78 152l118 -58l-81 -159q164 -127 163 -332v-215q0 -203 -143 -322t-330 -119q-88 0 -182 27zM340 389q0 -70 35 -117l289 564q-45 18 -105 18q-90 0 -154.5 -51 t-64.5 -156v-258zM567 186q90 0 154.5 51.5t64.5 155.5v260q0 47 -20 92l-281 -548q41 -11 82 -11z" />
<glyph unicode="&#xf9;" horiz-adv-x="1157" d="M492 -20q-176 0 -272.5 106.5t-96.5 292.5v670h250v-609q0 -242 196 -241q215 0 215 264v586h250v-1049h-241v129h-7q-104 -149 -294 -149zM543 1214l-264 357h284l174 -357h-194z" />
<glyph unicode="&#xfa;" horiz-adv-x="1157" d="M492 -20q-176 0 -272.5 106.5t-96.5 292.5v670h250v-609q0 -242 196 -241q215 0 215 264v586h250v-1049h-241v129h-7q-104 -149 -294 -149zM475 1214l174 357h285l-264 -357h-195z" />
<glyph unicode="&#xfb;" horiz-adv-x="1157" d="M492 -20q-176 0 -272.5 106.5t-96.5 292.5v670h250v-609q0 -242 196 -241q215 0 215 264v586h250v-1049h-241v129h-7q-104 -149 -294 -149zM242 1217l223 356h233l215 -356h-233l-98 204l-111 -204h-229z" />
<glyph unicode="&#xfc;" horiz-adv-x="1157" d="M492 -20q-176 0 -272.5 106.5t-96.5 292.5v670h250v-609q0 -242 196 -241q215 0 215 264v586h250v-1049h-241v129h-7q-104 -149 -294 -149zM252 1208v269h244v-269h-244zM662 1208v269h243v-269h-243z" />
<glyph unicode="&#xfd;" horiz-adv-x="1038" d="M240 -401q-59 0 -125 12v211q76 -10 118 -10q88 0 121 88l45 125l-387 1024h273l245 -717h5l235 717h256l-444 -1223q-82 -227 -342 -227zM461 1214l174 357h285l-265 -357h-194z" />
<glyph unicode="&#xfe;" horiz-adv-x="1175" d="M135 -395v1855h248v-532h2q119 141 291 141q180 0 297 -109.5t117 -304.5v-254q0 -205 -123 -315.5t-310 -110.5q-168 0 -266 129h-6v-499h-250zM616 186q90 0 155 51.5t65 155.5v260q0 92 -63.5 146.5t-164.5 54.5q-88 0 -155.5 -57.5t-67.5 -163.5v-244 q0 -92 65.5 -147.5t165.5 -55.5z" />
<glyph unicode="&#xff;" horiz-adv-x="1038" d="M240 -401q-59 0 -125 12v211q76 -10 118 -10q88 0 121 88l45 125l-387 1024h273l245 -717h5l235 717h256l-444 -1223q-82 -227 -342 -227zM215 1208v269h244v-269h-244zM625 1208v269h243v-269h-243z" />
<glyph unicode="&#x152;" horiz-adv-x="2150" d="M684 -25q-248 0 -410.5 134.5t-162.5 369.5v467q0 248 166.5 393.5t396.5 145.5q201 0 348 -82v57h1010v-239h-742v-357h658v-239h-658v-385h750v-240h-1018v57q-148 -82 -338 -82zM705 217q123 0 218 69.5t95 213.5v467q0 127 -94.5 201.5t-229.5 74.5 q-123 0 -218 -69.5t-95 -212.5v-467q0 -127 94.5 -202t229.5 -75z" />
<glyph unicode="&#x153;" horiz-adv-x="1810" d="M567.5 -25q-200.5 0 -341 110t-140.5 302v240q0 203 143.5 321.5t329.5 118.5q215 0 354 -133q137 133 355 133q186 0 319 -107.5t133 -304.5v-202h-673v-58q0 -96 69.5 -153.5t171.5 -57.5q61 0 123 37t105 98l194 -106q-135 -238 -434 -238q-231 0 -367 129 q-141 -129 -341.5 -129zM567 186q90 0 154.5 51.5t64.5 155.5v260q0 92 -63.5 146.5t-163.5 54.5q-90 0 -154.5 -51t-64.5 -156v-258q0 -92 64.5 -147.5t162.5 -55.5zM1047 627h423v28q0 100 -58 150.5t-144 50.5q-90 0 -155.5 -53t-65.5 -162v-14z" />
<glyph unicode="&#x178;" horiz-adv-x="1245" d="M489 0v586l-489 874h305l326 -612l323 612h291l-491 -878v-582h-265zM295 1591v269h244v-269h-244zM705 1591v269h243v-269h-243z" />
<glyph unicode="&#x2c6;" horiz-adv-x="786" d="M57 1217l224 356h233l215 -356h-233l-99 204l-110 -204h-230z" />
<glyph unicode="&#x2dc;" horiz-adv-x="1001" d="M252 1200l-162 35q23 121 86.5 193.5t163.5 72.5q59 0 166.5 -31.5t165.5 -31.5q37 0 53 23.5t29 68.5l157 -35q-20 -121 -80.5 -193.5t-156.5 -72.5q-59 0 -170 31.5t-168 31.5q-27 0 -43 -16.5t-41 -75.5z" />
<glyph unicode="&#x2000;" horiz-adv-x="991" />
<glyph unicode="&#x2001;" horiz-adv-x="1982" />
<glyph unicode="&#x2002;" horiz-adv-x="991" />
<glyph unicode="&#x2003;" horiz-adv-x="1982" />
<glyph unicode="&#x2004;" horiz-adv-x="659" />
<glyph unicode="&#x2005;" horiz-adv-x="495" />
<glyph unicode="&#x2006;" horiz-adv-x="329" />
<glyph unicode="&#x2007;" horiz-adv-x="329" />
<glyph unicode="&#x2008;" horiz-adv-x="247" />
<glyph unicode="&#x2009;" horiz-adv-x="395" />
<glyph unicode="&#x200a;" horiz-adv-x="108" />
<glyph unicode="&#x2010;" horiz-adv-x="743" d="M76 502v213h592v-213h-592z" />
<glyph unicode="&#x2011;" horiz-adv-x="743" d="M76 502v213h592v-213h-592z" />
<glyph unicode="&#x2012;" horiz-adv-x="743" d="M76 502v213h592v-213h-592z" />
<glyph unicode="&#x2013;" horiz-adv-x="1028" d="M0 541v178h1028v-178h-1028z" />
<glyph unicode="&#x2014;" horiz-adv-x="1626" d="M0 541v178h1626v-178h-1626z" />
<glyph unicode="&#x2018;" horiz-adv-x="542" d="M135 883v288l109 299h133l-62 -288h88v-299h-268z" />
<glyph unicode="&#x2019;" horiz-adv-x="542" d="M168 883l61 288h-90v299h269v-288l-107 -299h-133z" />
<glyph unicode="&#x201a;" horiz-adv-x="546" d="M168 -285l61 289h-90v299h269v-289l-107 -299h-133z" />
<glyph unicode="&#x201c;" horiz-adv-x="937" d="M135 883v288l109 299h133l-62 -288h88v-299h-268zM528 883v288l109 299h133l-61 -288h88v-299h-269z" />
<glyph unicode="&#x201d;" horiz-adv-x="937" d="M168 883l61 288h-90v299h269v-288l-107 -299h-133zM561 883l62 288h-91v299h269v-288l-107 -299h-133z" />
<glyph unicode="&#x201e;" horiz-adv-x="937" d="M168 -285l61 289h-90v299h269v-289l-107 -299h-133zM561 -285l62 289h-91v299h269v-289l-107 -299h-133z" />
<glyph unicode="&#x2022;" horiz-adv-x="825" d="M413.5 494q-106.5 0 -181 74.5t-74.5 181t74.5 181.5t181 75t180.5 -75t74 -181.5t-74 -181t-180.5 -74.5z" />
<glyph unicode="&#x2026;" horiz-adv-x="1497" d="M164 0v305h268v-305h-268zM614 0v305h269v-305h-269zM1065 0v305h268v-305h-268z" />
<glyph unicode="&#x202f;" horiz-adv-x="395" />
<glyph unicode="&#x2039;" horiz-adv-x="700" d="M510 131l-428 414l428 418l123 -113l-250 -305l252 -305z" />
<glyph unicode="&#x203a;" horiz-adv-x="700" d="M193 131l-125 113l249 305l-251 305l124 109l428 -414z" />
<glyph unicode="&#x205f;" horiz-adv-x="495" />
<glyph unicode="&#x20ac;" horiz-adv-x="1486" d="M831 -25q-244 0 -392 132.5t-148 371.5v15h-174v155h174v156h-174v156h174v14q0 233 159.5 371.5t399.5 138.5q223 0 375.5 -125t152.5 -356v-46h-258v21q0 137 -83 211t-208 74q-111 0 -189.5 -75t-78.5 -212v-16h459v-156h-459v-156h459v-155h-459v-17 q0 -125 77 -199.5t202 -74.5q281 0 280 278v21h258v-45q0 -231 -161 -356.5t-386 -125.5z" />
<glyph unicode="&#x2122;" horiz-adv-x="1370" d="M674 823v637h178l113 -299l114 299h178v-637h-137v398l-106 -283h-99l-106 281v-396h-135zM248 823v508h-168v129h483v-129h-168v-508h-147z" />
<glyph unicode="&#xe000;" horiz-adv-x="1050" d="M0 1050h1050v-1050h-1050v1050z" />
<glyph unicode="&#xe38c;" horiz-adv-x="1167" d="M184 0v854h-149v195h149v135q0 307 303 307q59 0 125 -10v-215q-51 6 -94 6q-86 0 -86 -80v-143h180v-195h-180v-854h-248zM782 0v1049h250v-1049h-250zM782 1208v267h250v-267h-250z" />
<glyph unicode="&#xfb01;" horiz-adv-x="1167" d="M184 0v854h-149v195h149v135q0 307 303 307q59 0 125 -10v-215q-51 6 -94 6q-86 0 -86 -80v-143h180v-195h-180v-854h-248zM782 0v1049h250v-1049h-250zM782 1208v267h250v-267h-250z" />
<glyph unicode="&#xe38d;" horiz-adv-x="1277" d="M184 0v854h-149v195h149v135q0 307 303 307q59 0 125 -10v-215q-51 6 -94 6q-86 0 -86 -80v-143h180v-195h-180v-854h-248zM1036 -14q-86 0 -142 30.5t-77.5 85t-28 91t-6.5 88.5v1179h250v-1177q0 -86 90 -86q25 0 115 8v-191q-107 -28 -201 -28z" />
<glyph unicode="&#xfb02;" horiz-adv-x="1277" d="M184 0v854h-149v195h149v135q0 307 303 307q59 0 125 -10v-215q-51 6 -94 6q-86 0 -86 -80v-143h180v-195h-180v-854h-248zM1036 -14q-86 0 -142 30.5t-77.5 85t-28 91t-6.5 88.5v1179h250v-1177q0 -86 90 -86q25 0 115 8v-191q-107 -28 -201 -28z" />
<glyph unicode="&#xfb03;" horiz-adv-x="1814" d="M1429 0v1049h250v-1049h-250zM1429 1208v267h250v-267h-250zM831 0v854h-149v195h149v135q0 307 303 307q59 0 125 -10v-215q-51 6 -94 6q-86 0 -86 -80v-143h180v-195h-180v-854h-248zM184 0v854h-149v195h149v135q0 307 303 307q59 0 125 -10v-215q-51 6 -94 6 q-86 0 -86 -80v-143h180v-195h-180v-854h-248z" />
<glyph unicode="&#xfb04;" horiz-adv-x="1925" d="M1683 -14q-86 0 -142.5 30.5t-78 85t-27.5 91t-6 88.5v1179h250v-1177q0 -86 90 -86q25 0 115 8v-191q-107 -28 -201 -28zM831 0v854h-149v195h149v135q0 307 303 307q59 0 125 -10v-215q-51 6 -94 6q-86 0 -86 -80v-143h180v-195h-180v-854h-248zM184 0v854h-149v195 h149v135q0 307 303 307q59 0 125 -10v-215q-51 6 -94 6q-86 0 -86 -80v-143h180v-195h-180v-854h-248z" />
<glyph horiz-adv-x="0" />
</font>
</defs>
</svg>
